<?xml version="1.0" encoding="UTF-8" standalone="no"?>
<!-- Created with Inkscape (http://www.inkscape.org/) -->

<svg
   width="5mm"
   height="27.940001mm"
   viewBox="0 0 5 27.940001"
   version="1.1"
   id="svg1"
   inkscape:version="1.3.2 (091e20e, 2023-11-25, custom)"
   sodipodi:docname="kf141-silk.svg"
   inkscape:export-filename="kf141-silk.pdf"
   inkscape:export-xdpi="1200"
   inkscape:export-ydpi="1200"
   xmlns:inkscape="http://www.inkscape.org/namespaces/inkscape"
   xmlns:sodipodi="http://sodipodi.sourceforge.net/DTD/sodipodi-0.dtd"
   xmlns="http://www.w3.org/2000/svg"
   xmlns:svg="http://www.w3.org/2000/svg">
  <sodipodi:namedview
     id="namedview1"
     pagecolor="#ffffff"
     bordercolor="#666666"
     borderopacity="1.0"
     inkscape:showpageshadow="2"
     inkscape:pageopacity="0.0"
     inkscape:pagecheckerboard="0"
     inkscape:deskcolor="#d1d1d1"
     inkscape:document-units="mm"
     inkscape:zoom="3.996212"
     inkscape:cx="-22.646446"
     inkscape:cy="41.914693"
     inkscape:window-width="1920"
     inkscape:window-height="1017"
     inkscape:window-x="1912"
     inkscape:window-y="-8"
     inkscape:window-maximized="1"
     inkscape:current-layer="g45"
     inkscape:export-bgcolor="#ffffffff"
     showguides="true">
    <sodipodi:guide
       position="-1.6883175,25.400001"
       orientation="0,1"
       id="guide1"
       inkscape:locked="false"
       inkscape:label=""
       inkscape:color="rgb(0,134,229)" />
    <sodipodi:guide
       position="-3.1780095,2.5400006"
       orientation="0,1"
       id="guide2"
       inkscape:locked="false"
       inkscape:label=""
       inkscape:color="rgb(0,134,229)" />
  </sodipodi:namedview>
  <defs
     id="defs1">
    <rect
       x="0"
       y="13.159868"
       width="28.531762"
       height="16.046638"
       id="rect2" />
    <rect
       x="0"
       y="13.159868"
       width="35.413278"
       height="21.551851"
       id="rect2-1" />
    <rect
       x="0"
       y="13.159868"
       width="37.79053"
       height="21.301614"
       id="rect2-1-4" />
    <rect
       x="0"
       y="13.159868"
       width="44.046454"
       height="19.424837"
       id="rect2-1-1" />
    <rect
       x="0"
       y="13.159868"
       width="34.662567"
       height="20.656184"
       id="rect2-1-5" />
    <rect
       x="0"
       y="13.159868"
       width="36.289108"
       height="18.048533"
       id="rect2-1-5-7" />
    <rect
       x="0"
       y="13.159868"
       width="29.532709"
       height="16.046638"
       id="rect2-1-5-3" />
    <rect
       x="0"
       y="13.159868"
       width="33.161146"
       height="15.671282"
       id="rect2-1-5-5" />
    <rect
       x="0"
       y="13.159868"
       width="27.655932"
       height="18.549007"
       id="rect2-1-5-0" />
    <rect
       x="0"
       y="13.159868"
       width="27.655932"
       height="19.1746"
       id="rect2-1-5-0-2" />
    <rect
       x="0"
       y="13.159868"
       width="35.663515"
       height="19.800192"
       id="rect2-1-54" />
    <rect
       x="0"
       y="13.159868"
       width="28.531762"
       height="16.046638"
       id="rect45" />
    <rect
       x="0"
       y="13.159868"
       width="35.413278"
       height="21.551851"
       id="rect46" />
    <rect
       x="0"
       y="13.159868"
       width="35.663515"
       height="19.800192"
       id="rect47" />
    <rect
       x="0"
       y="13.159868"
       width="37.79053"
       height="21.301614"
       id="rect48" />
    <rect
       x="0"
       y="13.159868"
       width="44.046454"
       height="19.424837"
       id="rect49" />
    <rect
       x="0"
       y="13.159868"
       width="34.662567"
       height="20.656184"
       id="rect50" />
    <rect
       x="0"
       y="13.159868"
       width="36.289108"
       height="18.048533"
       id="rect51" />
    <rect
       x="0"
       y="13.159868"
       width="29.532709"
       height="16.046638"
       id="rect52" />
    <rect
       x="0"
       y="13.159868"
       width="33.161146"
       height="15.671282"
       id="rect53" />
    <rect
       x="0"
       y="13.159868"
       width="27.655932"
       height="18.549007"
       id="rect54" />
    <rect
       x="0"
       y="13.159868"
       width="27.655932"
       height="19.1746"
       id="rect55" />
  </defs>
  <g
     inkscape:groupmode="layer"
     id="layer9"
     inkscape:label="boxes"
     style="display:none">
    <rect
       style="fill:#ffffff;fill-rule:evenodd;stroke:#000000;stroke-width:0.0999997;stroke-dasharray:none;stroke-opacity:1"
       id="rect3"
       width="5"
       height="2.4400001"
       x="0"
       y="2.6032038" />
    <rect
       style="fill:#ffffff;fill-rule:evenodd;stroke:#000000;stroke-width:0.0999997;stroke-dasharray:none;stroke-opacity:1"
       id="rect3-68"
       width="5"
       height="2.4400001"
       x="2.220446e-16"
       y="0.063056476" />
    <rect
       style="fill:#ffffff;fill-rule:evenodd;stroke:#000000;stroke-width:0.0999997;stroke-dasharray:none;stroke-opacity:1"
       id="rect3-1"
       width="5"
       height="2.4400001"
       x="-2.5905179e-17"
       y="5.1433511" />
    <rect
       style="fill:#ffffff;fill-rule:evenodd;stroke:#000000;stroke-width:0.0999997;stroke-dasharray:none;stroke-opacity:1"
       id="rect3-5"
       width="5"
       height="2.4400001"
       x="2.220446e-16"
       y="7.6834984" />
    <rect
       style="fill:#ffffff;fill-rule:evenodd;stroke:#000000;stroke-width:0.0999997;stroke-dasharray:none;stroke-opacity:1"
       id="rect3-2"
       width="5"
       height="2.4400001"
       x="2.220446e-16"
       y="10.223645" />
    <rect
       style="fill:#ffffff;fill-rule:evenodd;stroke:#000000;stroke-width:0.0999997;stroke-dasharray:none;stroke-opacity:1"
       id="rect3-24"
       width="5"
       height="2.4400001"
       x="1.110223e-16"
       y="12.763793" />
    <rect
       style="fill:#ffffff;fill-rule:evenodd;stroke:#000000;stroke-width:0.0999997;stroke-dasharray:none;stroke-opacity:1"
       id="rect3-6"
       width="5"
       height="2.4400001"
       x="-1.3877788e-17"
       y="15.30394" />
    <rect
       style="fill:#ffffff;fill-rule:evenodd;stroke:#000000;stroke-width:0.0999997;stroke-dasharray:none;stroke-opacity:1"
       id="rect3-3"
       width="5"
       height="2.4400001"
       x="-3.3306691e-16"
       y="17.844088" />
    <rect
       style="fill:#ffffff;fill-rule:evenodd;stroke:#000000;stroke-width:0.0999997;stroke-dasharray:none;stroke-opacity:1"
       id="rect3-15"
       width="5"
       height="2.4400001"
       x="-4.4408921e-16"
       y="20.384235" />
    <rect
       style="fill:#ffffff;fill-rule:evenodd;stroke:#000000;stroke-width:0.0999997;stroke-dasharray:none;stroke-opacity:1"
       id="rect3-9"
       width="5"
       height="2.4400001"
       x="-1.5728159e-17"
       y="22.924381" />
    <rect
       style="fill:#ffffff;fill-rule:evenodd;stroke:#000000;stroke-width:0.0999997;stroke-dasharray:none;stroke-opacity:1"
       id="rect3-16"
       width="5"
       height="2.4400001"
       x="1.8503715e-16"
       y="25.464529" />
  </g>
  <g
     inkscape:label="Layer 1"
     inkscape:groupmode="layer"
     id="layer1"
     style="display:inline">
    <path
       style="font-weight:bold;font-size:9.33333px;line-height:1.25;font-family:Arial;-inkscape-font-specification:'Arial Bold';white-space:pre"
       d="M 2.3834627,21.652322 -0.00455729,14.971334 H 1.4583328 l 1.6907547,4.94466 1.6360671,-4.94466 h 1.4309891 l -2.3925773,6.680988 z m 4.2473945,-3.299478 q 0,-1.020833 0.3053384,-1.713541 0.2278645,-0.510417 0.6197915,-0.916016 0.3964842,-0.405599 0.8658851,-0.601562 0.6243487,-0.264323 1.4401037,-0.264323 1.4765621,0 2.3606761,0.916015 0.888672,0.916016 0.888672,2.547526 0,1.617838 -0.879557,2.533853 -0.879557,0.911458 -2.351562,0.911458 -1.4902338,0 -2.3697908,-0.906901 -0.879557,-0.911458 -0.879557,-2.506509 z m 1.3899735,-0.04557 q 0,1.134765 0.5240883,1.722655 0.5240884,0.583334 1.3307287,0.583334 0.8066403,0 1.3216143,-0.578776 0.519531,-0.583333 0.519531,-1.745442 0,-1.148437 -0.505859,-1.713541 -0.501302,-0.565104 -1.3352863,-0.565104 -0.8339841,0 -1.3444006,0.574218 -0.5104164,0.569661 -0.5104164,1.722656 z"
       id="text1"
       transform="matrix(0.26458333,0,0,0.26458333,0.76608405,-1.035005)"
       aria-label="VO" />
    <path
       style="font-weight:bold;font-size:9.33333px;line-height:1.25;font-family:Arial;-inkscape-font-specification:'Arial Bold';white-space:pre"
       d="M 0.63802062,21.652322 V 14.971334 H 1.9869785 v 6.680988 z M 2.998697,18.352844 q 0,-1.020833 0.3053384,-1.713541 0.2278645,-0.510417 0.6197915,-0.916016 0.3964842,-0.405599 0.8658851,-0.601562 0.6243487,-0.264323 1.4401037,-0.264323 1.476562,0 2.3606763,0.916015 0.8886715,0.916016 0.8886715,2.547526 0,1.617838 -0.879557,2.533853 -0.879557,0.911458 -2.3515617,0.911458 -1.4902338,0 -2.3697908,-0.906901 -0.879557,-0.911458 -0.879557,-2.506509 z m 1.3899735,-0.04557 q 0,1.134765 0.5240883,1.722655 0.5240884,0.583334 1.3307287,0.583334 0.8066404,0 1.3216142,-0.578776 0.5195311,-0.583333 0.5195311,-1.745442 0,-1.148437 -0.5058593,-1.713541 -0.5013019,-0.565104 -1.335286,-0.565104 -0.833984,0 -1.3444005,0.574218 -0.5104165,0.569661 -0.5104165,1.722656 z m 8.0253875,-3.36328 q 0.970703,0 1.517578,0.692708 0.651693,0.820312 0.651693,2.720702 0,1.895833 -0.65625,2.725259 -0.542318,0.683594 -1.513021,0.683594 -0.97526,0 -1.572265,-0.747396 -0.597005,-0.751952 -0.597005,-2.675129 0,-1.886718 0.65625,-2.716145 0.542318,-0.683593 1.51302,-0.683593 z m 0,1.061848 q -0.232421,0 -0.414713,0.150391 -0.182292,0.145833 -0.282552,0.528646 -0.132161,0.496744 -0.132161,1.672525 0,1.175781 0.118489,1.617838 0.11849,0.4375 0.296224,0.583333 0.182292,0.145833 0.414713,0.145833 0.232422,0 0.414714,-0.145833 0.182291,-0.15039 0.282552,-0.533203 0.132161,-0.492187 0.132161,-1.667968 0,-1.175781 -0.118489,-1.613281 -0.11849,-0.442057 -0.300781,-0.58789 -0.177735,-0.150391 -0.410157,-0.150391 z"
       id="text1-5"
       transform="matrix(0.26458333,0,0,0.26458333,0.48634238,1.504995)"
       aria-label="IO0" />
    <g
       id="g7">
      <path
         id="rect7"
         style="fill-rule:evenodd;stroke-width:0.264583"
         d="M 0,0 H 5 V 2.5399997 H 0 Z" />
      <path
         style="font-weight:bold;font-size:9.33333px;line-height:1.25;font-family:Arial;-inkscape-font-specification:'Arial Bold';white-space:pre;fill:#ffffff"
         d="M 0.68359352,14.971334 H 3.3541655 q 0.7929685,0 1.1803382,0.06836 0.3919269,0.0638 0.6972654,0.273437 0.3098957,0.209636 0.5149737,0.560547 0.2050781,0.346354 0.2050781,0.779296 0,0.469401 -0.2552083,0.861328 -0.2506509,0.391927 -0.6835935,0.587891 0.6106769,0.177734 0.9388018,0.606119 0.3281249,0.428386 0.3281249,1.007161 0,0.455729 -0.2141927,0.888672 -0.2096353,0.428385 -0.5787758,0.688151 -0.3645832,0.255208 -0.9023434,0.314453 -0.3372395,0.03646 -1.6269526,0.04557 H 0.68359352 Z m 1.34895788,1.111979 v 1.544922 h 0.8841143 q 0.7884112,0 0.9798173,-0.02279 0.3463541,-0.04101 0.5423176,-0.236979 0.2005207,-0.200521 0.2005207,-0.524088 0,-0.309896 -0.173177,-0.501302 Q 4.2975246,16.147115 3.9602851,16.1061 3.7597643,16.083313 2.8072907,16.083313 Z m 0,2.6569 v 1.786458 h 1.2486975 q 0.7291664,0 0.9251299,-0.04102 0.3007811,-0.05469 0.48763,-0.264322 0.1914062,-0.214193 0.1914062,-0.569662 0,-0.300781 -0.1458333,-0.510416 -0.1458333,-0.209635 -0.423828,-0.305339 -0.2734374,-0.0957 -1.19401,-0.0957 z m 5.3867168,2.912109 V 14.971334 H 9.583981 q 1.230468,0 1.604166,0.100261 0.574219,0.15039 0.961588,0.65625 0.38737,0.501302 0.38737,1.298827 0,0.615234 -0.223307,1.034505 -0.223307,0.419271 -0.569661,0.660807 -0.341797,0.236979 -0.697266,0.314453 -0.483073,0.0957 -1.3990879,0.0957 h -0.879557 v 2.520182 z m 1.3489579,-5.55078 v 1.895833 h 0.738281 q 0.7975259,0 1.0664059,-0.104818 0.26888,-0.104817 0.419271,-0.328124 0.154948,-0.223308 0.154948,-0.519532 0,-0.364583 -0.214193,-0.601562 -0.214193,-0.236979 -0.542318,-0.296224 -0.241536,-0.04557 -0.9707024,-0.04557 z m 4.6119779,3.832681 1.276041,-0.132161 q 0.05469,0.432943 0.323568,0.688151 0.26888,0.250651 0.619791,0.250651 0.401042,0 0.679036,-0.323568 0.277995,-0.328125 0.277995,-0.984375 0,-0.615234 -0.277995,-0.920572 -0.273437,-0.309896 -0.715494,-0.309896 -0.551432,0 -0.988932,0.48763 l -1.039062,-0.15039 0.656249,-3.477213 h 3.386067 v 1.198568 h -2.415364 l -0.200521,1.134765 q 0.428386,-0.214193 0.875,-0.214193 0.852213,0 1.444661,0.619792 0.592448,0.619791 0.592448,1.608723 0,0.82487 -0.478516,1.472005 -0.651692,0.884114 -1.809244,0.884114 -0.92513,0 -1.508463,-0.496745 -0.583333,-0.496744 -0.697265,-1.335286 z"
         id="text1-5-4"
         transform="matrix(0.26458333,0,0,0.26458333,0.04502583,-3.5900769)"
         aria-label="BP5" />
    </g>
    <path
       style="font-weight:bold;font-size:9.33333px;line-height:1.25;font-family:Arial;-inkscape-font-specification:'Arial Bold';white-space:pre"
       d="M 0.63802062,21.652322 V 14.971334 H 1.9869785 v 6.680988 z M 2.998697,18.352844 q 0,-1.020833 0.3053384,-1.713541 0.2278645,-0.510417 0.6197915,-0.916016 0.3964842,-0.405599 0.8658851,-0.601562 0.6243487,-0.264323 1.4401037,-0.264323 1.476562,0 2.3606763,0.916015 0.8886715,0.916016 0.8886715,2.547526 0,1.617838 -0.879557,2.533853 -0.879557,0.911458 -2.3515617,0.911458 -1.4902338,0 -2.3697908,-0.906901 -0.879557,-0.911458 -0.879557,-2.506509 z m 1.3899735,-0.04557 q 0,1.134765 0.5240883,1.722655 0.5240884,0.583334 1.3307287,0.583334 0.8066404,0 1.3216142,-0.578776 0.5195311,-0.583333 0.5195311,-1.745442 0,-1.148437 -0.5058593,-1.713541 -0.5013019,-0.565104 -1.335286,-0.565104 -0.833984,0 -1.3444005,0.574218 -0.5104165,0.569661 -0.5104165,1.722656 z m 9.1373665,3.345051 h -1.280598 v -4.82617 q -0.701823,0.656249 -1.654297,0.970702 v -1.162109 q 0.501302,-0.164062 1.089193,-0.619791 0.58789,-0.460286 0.80664,-1.070963 h 1.039062 z"
       id="text1-5-8"
       transform="matrix(0.26458333,0,0,0.26458333,0.6262132,4.044995)"
       aria-label="IO1" />
    <path
       style="font-weight:bold;font-size:9.33333px;line-height:1.25;font-family:Arial;-inkscape-font-specification:'Arial Bold';white-space:pre"
       d="M 0.63802062,21.652322 V 14.971334 H 1.9869785 v 6.680988 z M 2.998697,18.352844 q 0,-1.020833 0.3053384,-1.713541 0.2278645,-0.510417 0.6197915,-0.916016 0.3964842,-0.405599 0.8658851,-0.601562 0.6243487,-0.264323 1.4401037,-0.264323 1.476562,0 2.3606763,0.916015 0.8886715,0.916016 0.8886715,2.547526 0,1.617838 -0.879557,2.533853 -0.879557,0.911458 -2.3515617,0.911458 -1.4902338,0 -2.3697908,-0.906901 -0.879557,-0.911458 -0.879557,-2.506509 z m 1.3899735,-0.04557 q 0,1.134765 0.5240883,1.722655 0.5240884,0.583334 1.3307287,0.583334 0.8066404,0 1.3216142,-0.578776 0.5195311,-0.583333 0.5195311,-1.745442 0,-1.148437 -0.5058593,-1.713541 -0.5013019,-0.565104 -1.335286,-0.565104 -0.833984,0 -1.3444005,0.574218 -0.5104165,0.569661 -0.5104165,1.722656 z m 10.1855435,2.155598 v 1.189453 h -4.488931 q 0.07292,-0.674479 0.4375,-1.276041 0.364583,-0.60612 1.440104,-1.604167 0.865885,-0.80664 1.061848,-1.093749 0.264323,-0.396484 0.264323,-0.783854 0,-0.428385 -0.232422,-0.65625 -0.227864,-0.232422 -0.633463,-0.232422 -0.401042,0 -0.638021,0.241537 -0.236979,0.241536 -0.273437,0.802083 l -1.276041,-0.127604 q 0.113932,-1.057292 0.715494,-1.517578 0.601563,-0.460286 1.503906,-0.460286 0.988932,0 1.554036,0.533203 0.565104,0.533203 0.565104,1.326171 0,0.451172 -0.164062,0.861328 -0.159506,0.405599 -0.510417,0.852213 -0.232422,0.296224 -0.838541,0.852213 -0.60612,0.55599 -0.770182,0.738281 -0.159506,0.182292 -0.259766,0.355469 z"
       id="text1-5-9"
       transform="matrix(0.26458333,0,0,0.26458333,0.48754816,6.584995)"
       aria-label="IO2" />
    <path
       style="font-weight:bold;font-size:9.33333px;line-height:1.25;font-family:Arial;-inkscape-font-specification:'Arial Bold';white-space:pre"
       d="M 0.63802062,21.652322 V 14.971334 H 1.9869785 v 6.680988 z M 2.998697,18.352844 q 0,-1.020833 0.3053384,-1.713541 0.2278645,-0.510417 0.6197915,-0.916016 0.3964842,-0.405599 0.8658851,-0.601562 0.6243487,-0.264323 1.4401037,-0.264323 1.476562,0 2.3606763,0.916015 0.8886715,0.916016 0.8886715,2.547526 0,1.617838 -0.879557,2.533853 -0.879557,0.911458 -2.3515617,0.911458 -1.4902338,0 -2.3697908,-0.906901 -0.879557,-0.911458 -0.879557,-2.506509 z m 1.3899735,-0.04557 q 0,1.134765 0.5240883,1.722655 0.5240884,0.583334 1.3307287,0.583334 0.8066404,0 1.3216142,-0.578776 0.5195311,-0.583333 0.5195311,-1.745442 0,-1.148437 -0.5058593,-1.713541 -0.5013019,-0.565104 -1.335286,-0.565104 -0.833984,0 -1.3444005,0.574218 -0.5104165,0.569661 -0.5104165,1.722656 z m 5.8151025,1.572265 1.239583,-0.150391 q 0.05924,0.473958 0.31901,0.724609 0.259765,0.250651 0.628906,0.250651 0.396484,0 0.665364,-0.300781 0.273438,-0.300781 0.273438,-0.811197 0,-0.483073 -0.259766,-0.765625 -0.259765,-0.282552 -0.633463,-0.282552 -0.246094,0 -0.587891,0.0957 l 0.141276,-1.043619 q 0.519532,0.01367 0.792969,-0.223308 0.273437,-0.241536 0.273437,-0.63802 0,-0.33724 -0.20052,-0.537761 -0.200521,-0.20052 -0.533203,-0.20052 -0.328125,0 -0.560547,0.227864 -0.232422,0.227865 -0.282552,0.665365 l -1.180338,-0.200521 q 0.123047,-0.60612 0.36914,-0.966146 0.250651,-0.364583 0.692708,-0.569661 0.446615,-0.209635 0.998047,-0.209635 0.943359,0 1.51302,0.601562 0.469401,0.492187 0.469401,1.111979 0,0.879557 -0.961588,1.403645 0.574219,0.123047 0.916015,0.551432 0.346354,0.428386 0.346354,1.034505 0,0.879557 -0.642578,1.499349 -0.642577,0.619791 -1.599608,0.619791 -0.906901,0 -1.503906,-0.519531 -0.597005,-0.524088 -0.692708,-1.367187 z"
       id="text1-5-6"
       transform="matrix(0.26458333,0,0,0.26458333,0.47850479,9.124995)"
       aria-label="IO3" />
    <path
       style="font-weight:bold;font-size:9.33333px;line-height:1.25;font-family:Arial;-inkscape-font-specification:'Arial Bold';white-space:pre"
       d="M 0.63802062,21.652322 V 14.971334 H 1.9869785 v 6.680988 z M 2.998697,18.352844 q 0,-1.020833 0.3053384,-1.713541 0.2278645,-0.510417 0.6197915,-0.916016 0.3964842,-0.405599 0.8658851,-0.601562 0.6243487,-0.264323 1.4401037,-0.264323 1.476562,0 2.3606763,0.916015 0.8886715,0.916016 0.8886715,2.547526 0,1.617838 -0.879557,2.533853 -0.879557,0.911458 -2.3515617,0.911458 -1.4902338,0 -2.3697908,-0.906901 -0.879557,-0.911458 -0.879557,-2.506509 z m 1.3899735,-0.04557 q 0,1.134765 0.5240883,1.722655 0.5240884,0.583334 1.3307287,0.583334 0.8066404,0 1.3216142,-0.578776 0.5195311,-0.583333 0.5195311,-1.745442 0,-1.148437 -0.5058593,-1.713541 -0.5013019,-0.565104 -1.335286,-0.565104 -0.833984,0 -1.3444005,0.574218 -0.5104165,0.569661 -0.5104165,1.722656 z m 8.3717415,3.345051 v -1.344401 h -2.734374 v -1.121093 l 2.898437,-4.242837 h 1.07552 v 4.238279 h 0.829427 v 1.125651 h -0.829427 v 1.344401 z m 0,-2.470052 v -2.283202 l -1.535806,2.283202 z"
       id="text1-5-6-0"
       transform="matrix(0.26458333,0,0,0.26458333,0.45378624,11.664995)"
       aria-label="IO4" />
    <path
       style="font-weight:bold;font-size:9.33333px;line-height:1.25;font-family:Arial;-inkscape-font-specification:'Arial Bold';white-space:pre"
       d="M 0.63802062,21.652322 V 14.971334 H 1.9869785 v 6.680988 z M 2.998697,18.352844 q 0,-1.020833 0.3053384,-1.713541 0.2278645,-0.510417 0.6197915,-0.916016 0.3964842,-0.405599 0.8658851,-0.601562 0.6243487,-0.264323 1.4401037,-0.264323 1.476562,0 2.3606763,0.916015 0.8886715,0.916016 0.8886715,2.547526 0,1.617838 -0.879557,2.533853 -0.879557,0.911458 -2.3515617,0.911458 -1.4902338,0 -2.3697908,-0.906901 -0.879557,-0.911458 -0.879557,-2.506509 z m 1.3899735,-0.04557 q 0,1.134765 0.5240883,1.722655 0.5240884,0.583334 1.3307287,0.583334 0.8066404,0 1.3216142,-0.578776 0.5195311,-0.583333 0.5195311,-1.745442 0,-1.148437 -0.5058593,-1.713541 -0.5013019,-0.565104 -1.335286,-0.565104 -0.833984,0 -1.3444005,0.574218 -0.5104165,0.569661 -0.5104165,1.722656 z m 5.8789045,1.626952 1.276041,-0.132161 q 0.05469,0.432943 0.323568,0.688151 0.26888,0.250651 0.619791,0.250651 0.401042,0 0.679036,-0.323568 0.277995,-0.328125 0.277995,-0.984375 0,-0.615234 -0.277995,-0.920572 -0.273437,-0.309896 -0.715494,-0.309896 -0.551432,0 -0.988932,0.48763 l -1.039062,-0.15039 0.656249,-3.477213 h 3.386067 v 1.198568 h -2.415364 l -0.200521,1.134765 q 0.428386,-0.214193 0.875,-0.214193 0.852213,0 1.444661,0.619792 0.592448,0.619791 0.592448,1.608723 0,0.82487 -0.478516,1.472005 -0.651692,0.884114 -1.809244,0.884114 -0.92513,0 -1.508463,-0.496745 -0.583333,-0.496744 -0.697265,-1.335286 z"
       id="text1-5-6-9"
       transform="matrix(0.26458333,0,0,0.26458333,0.46282961,14.204995)"
       aria-label="IO5" />
    <path
       style="font-weight:bold;font-size:9.33333px;line-height:1.25;font-family:Arial;-inkscape-font-specification:'Arial Bold';white-space:pre"
       d="M 0.63802062,21.652322 V 14.971334 H 1.9869785 v 6.680988 z M 2.998697,18.352844 q 0,-1.020833 0.3053384,-1.713541 0.2278645,-0.510417 0.6197915,-0.916016 0.3964842,-0.405599 0.8658851,-0.601562 0.6243487,-0.264323 1.4401037,-0.264323 1.476562,0 2.3606763,0.916015 0.8886715,0.916016 0.8886715,2.547526 0,1.617838 -0.879557,2.533853 -0.879557,0.911458 -2.3515617,0.911458 -1.4902338,0 -2.3697908,-0.906901 -0.879557,-0.911458 -0.879557,-2.506509 z m 1.3899735,-0.04557 q 0,1.134765 0.5240883,1.722655 0.5240884,0.583334 1.3307287,0.583334 0.8066404,0 1.3216142,-0.578776 0.5195311,-0.583333 0.5195311,-1.745442 0,-1.148437 -0.5058593,-1.713541 -0.5013019,-0.565104 -1.335286,-0.565104 -0.833984,0 -1.3444005,0.574218 -0.5104165,0.569661 -0.5104165,1.722656 z M 14.587886,16.607402 13.348303,16.74412 q -0.04557,-0.382812 -0.236979,-0.565104 -0.191406,-0.182291 -0.496745,-0.182291 -0.405599,0 -0.688151,0.364583 -0.277994,0.364583 -0.350911,1.517578 0.478516,-0.565104 1.189453,-0.565104 0.802083,0 1.371744,0.610676 0.574219,0.610677 0.574219,1.576823 0,1.02539 -0.601563,1.645182 -0.601562,0.619791 -1.544921,0.619791 -1.011718,0 -1.663411,-0.783854 -0.651692,-0.788411 -0.651692,-2.579426 0,-1.836588 0.679036,-2.647786 0.679036,-0.811197 1.763671,-0.811197 0.761068,0 1.257812,0.428385 0.501302,0.423828 0.638021,1.235026 z m -2.902994,2.793618 q 0,0.624349 0.287109,0.966146 0.28711,0.337239 0.65625,0.337239 0.355469,0 0.592448,-0.277994 0.236979,-0.277995 0.236979,-0.911458 0,-0.651693 -0.255208,-0.952474 -0.255209,-0.305338 -0.638021,-0.305338 -0.36914,0 -0.624349,0.291666 -0.255208,0.287109 -0.255208,0.852213 z"
       id="text1-5-6-8"
       transform="matrix(0.26458333,0,0,0.26458333,0.46946141,16.744995)"
       aria-label="IO6" />
    <path
       style="font-weight:bold;font-size:9.33333px;line-height:1.25;font-family:Arial;-inkscape-font-specification:'Arial Bold';white-space:pre"
       d="M 0.63802062,21.652322 V 14.971334 H 1.9869785 v 6.680988 z M 2.998697,18.352844 q 0,-1.020833 0.3053384,-1.713541 0.2278645,-0.510417 0.6197915,-0.916016 0.3964842,-0.405599 0.8658851,-0.601562 0.6243487,-0.264323 1.4401037,-0.264323 1.476562,0 2.3606763,0.916015 0.8886715,0.916016 0.8886715,2.547526 0,1.617838 -0.879557,2.533853 -0.879557,0.911458 -2.3515617,0.911458 -1.4902338,0 -2.3697908,-0.906901 -0.879557,-0.911458 -0.879557,-2.506509 z m 1.3899735,-0.04557 q 0,1.134765 0.5240883,1.722655 0.5240884,0.583334 1.3307287,0.583334 0.8066404,0 1.3216142,-0.578776 0.5195311,-0.583333 0.5195311,-1.745442 0,-1.148437 -0.5058593,-1.713541 -0.5013019,-0.565104 -1.335286,-0.565104 -0.833984,0 -1.3444005,0.574218 -0.5104165,0.569661 -0.5104165,1.722656 z M 10.249346,16.251933 V 15.06248 h 4.379555 v 0.929687 q -0.542317,0.533203 -1.102864,1.53125 -0.560546,0.998046 -0.85677,2.123697 -0.291667,1.121093 -0.28711,2.005208 h -1.235025 q 0.0319,-1.385416 0.569661,-2.82552 0.542318,-1.440104 1.444661,-2.574869 z"
       id="text1-5-6-5"
       transform="matrix(0.26458333,0,0,0.26458333,0.48031346,19.284995)"
       aria-label="IO7" />
    <g
       id="g8">
      <path
         id="rect5"
         style="fill-rule:evenodd;stroke-width:0.264583"
         d="m 0,25.4 h 5 v 2.54 H 0 Z" />
      <path
         style="font-weight:bold;font-size:8.66667px;line-height:1.25;font-family:Arial;-inkscape-font-specification:'Arial Bold';white-space:pre;fill:#ffffff"
         d="m 3.5166029,18.764819 v -1.045248 h 2.6998707 v 2.471355 q -0.3935548,0.38086 -1.1425785,0.672852 -0.7447919,0.28776 -1.5107428,0.28776 -0.9733076,0 -1.6969407,-0.40625 Q 1.1425785,20.334806 0.77864612,19.577319 0.41471369,18.8156 0.41471369,17.922696 q 0,-0.969076 0.40625015,-1.722331 0.40625016,-0.753256 1.18912806,-1.155274 0.5966799,-0.30892 1.4853521,-0.30892 1.1552739,0 1.802735,0.486654 0.651693,0.482422 0.837891,1.33724 L 4.8919289,16.792813 Q 4.7607439,16.335781 4.3968115,16.073412 4.0371109,15.80681 3.495444,15.80681 q -0.8209639,0 -1.3076177,0.520508 -0.482422,0.520508 -0.482422,1.544597 0,1.104492 0.4908856,1.658855 0.4908856,0.55013 1.2864588,0.55013 0.3935548,0 0.7871096,-0.152344 0.3977866,-0.156575 0.6813154,-0.376628 v -0.787109 z m 3.8678398,2.280925 v -6.203778 h 1.2187505 l 2.5390638,4.142905 v -4.142905 h 1.163737 v 6.203778 H 11.049158 L 8.5481801,17.00017 v 4.045574 z m 6.2418643,-6.203778 h 2.289389 q 0.774414,0 1.180664,0.118489 0.545899,0.160808 0.935222,0.57129 0.389323,0.410482 0.592448,1.007161 0.203125,0.592449 0.203125,1.464194 0,0.765951 -0.190429,1.320313 -0.232748,0.677083 -0.664389,1.096029 -0.325846,0.317383 -0.880208,0.495117 -0.414714,0.131185 -1.108725,0.131185 h -2.357097 z m 1.252605,1.049479 v 4.109051 h 0.935221 q 0.52474,0 0.757488,-0.05924 0.304687,-0.07617 0.503581,-0.258138 0.203125,-0.181966 0.330078,-0.59668 0.126953,-0.418945 0.126953,-1.138346 0,-0.719402 -0.126953,-1.104493 -0.126953,-0.385091 -0.355469,-0.600912 -0.228516,-0.21582 -0.579753,-0.291992 -0.26237,-0.05925 -1.028321,-0.05925 z"
         id="text1-5-6-5-4"
         transform="matrix(0.26458333,0,0,0.26458333,-0.04553889,21.922355)"
         aria-label="GND" />
    </g>
  </g>
  <g
     inkscape:label="Layer 1 path"
     inkscape:groupmode="layer"
     id="g45"
     style="display:inline">
    <path
       style="font-weight:bold;font-size:9.33333px;line-height:1.25;font-family:Arial;-inkscape-font-specification:'Arial Bold';white-space:pre"
       d="M 2.3834627,21.652322 -0.00455729,14.971334 H 1.4583328 l 1.6907547,4.94466 1.6360671,-4.94466 h 1.4309891 l -2.3925773,6.680988 z m 4.2473945,-3.299478 q 0,-1.020833 0.3053384,-1.713541 0.2278645,-0.510417 0.6197915,-0.916016 0.3964842,-0.405599 0.8658851,-0.601562 0.6243487,-0.264323 1.4401037,-0.264323 1.4765621,0 2.3606761,0.916015 0.888672,0.916016 0.888672,2.547526 0,1.617838 -0.879557,2.533853 -0.879557,0.911458 -2.351562,0.911458 -1.4902338,0 -2.3697908,-0.906901 -0.879557,-0.911458 -0.879557,-2.506509 z m 1.3899735,-0.04557 q 0,1.134765 0.5240883,1.722655 0.5240884,0.583334 1.3307287,0.583334 0.8066403,0 1.3216143,-0.578776 0.519531,-0.583333 0.519531,-1.745442 0,-1.148437 -0.505859,-1.713541 -0.501302,-0.565104 -1.3352863,-0.565104 -0.8339841,0 -1.3444006,0.574218 -0.5104164,0.569661 -0.5104164,1.722656 z"
       id="text25"
       transform="matrix(0.26458333,0,0,0.26458333,0.76608405,-1.035005)"
       aria-label="VO" />
    <path
       style="font-weight:bold;font-size:9.33333px;line-height:1.25;font-family:Arial;-inkscape-font-specification:'Arial Bold';white-space:pre"
       d="M 0.63802062,21.652322 V 14.971334 H 1.9869785 v 6.680988 z M 2.998697,18.352844 q 0,-1.020833 0.3053384,-1.713541 0.2278645,-0.510417 0.6197915,-0.916016 0.3964842,-0.405599 0.8658851,-0.601562 0.6243487,-0.264323 1.4401037,-0.264323 1.476562,0 2.3606763,0.916015 0.8886715,0.916016 0.8886715,2.547526 0,1.617838 -0.879557,2.533853 -0.879557,0.911458 -2.3515617,0.911458 -1.4902338,0 -2.3697908,-0.906901 -0.879557,-0.911458 -0.879557,-2.506509 z m 1.3899735,-0.04557 q 0,1.134765 0.5240883,1.722655 0.5240884,0.583334 1.3307287,0.583334 0.8066404,0 1.3216142,-0.578776 0.5195311,-0.583333 0.5195311,-1.745442 0,-1.148437 -0.5058593,-1.713541 -0.5013019,-0.565104 -1.335286,-0.565104 -0.833984,0 -1.3444005,0.574218 -0.5104165,0.569661 -0.5104165,1.722656 z m 8.0253875,-3.36328 q 0.970703,0 1.517578,0.692708 0.651693,0.820312 0.651693,2.720702 0,1.895833 -0.65625,2.725259 -0.542318,0.683594 -1.513021,0.683594 -0.97526,0 -1.572265,-0.747396 -0.597005,-0.751952 -0.597005,-2.675129 0,-1.886718 0.65625,-2.716145 0.542318,-0.683593 1.51302,-0.683593 z m 0,1.061848 q -0.232421,0 -0.414713,0.150391 -0.182292,0.145833 -0.282552,0.528646 -0.132161,0.496744 -0.132161,1.672525 0,1.175781 0.118489,1.617838 0.11849,0.4375 0.296224,0.583333 0.182292,0.145833 0.414713,0.145833 0.232422,0 0.414714,-0.145833 0.182291,-0.15039 0.282552,-0.533203 0.132161,-0.492187 0.132161,-1.667968 0,-1.175781 -0.118489,-1.613281 -0.11849,-0.442057 -0.300781,-0.58789 -0.177735,-0.150391 -0.410157,-0.150391 z"
       id="text28"
       transform="matrix(0.26458333,0,0,0.26458333,0.48634238,1.504995)"
       aria-label="IO0" />
    <g
       id="g29">
      <path
         id="rect28"
         style="fill-rule:evenodd;stroke-width:0.264583"
         d="M 0,0 H 5 V 2.5399997 H 0 Z" />
      <path
         style="font-weight:bold;font-size:9.33333px;line-height:1.25;font-family:Arial;-inkscape-font-specification:'Arial Bold';white-space:pre;fill:#ffffff"
         d="M 0.68359352,14.971334 H 3.3541655 q 0.7929685,0 1.1803382,0.06836 0.3919269,0.0638 0.6972654,0.273437 0.3098957,0.209636 0.5149737,0.560547 0.2050781,0.346354 0.2050781,0.779296 0,0.469401 -0.2552083,0.861328 -0.2506509,0.391927 -0.6835935,0.587891 0.6106769,0.177734 0.9388018,0.606119 0.3281249,0.428386 0.3281249,1.007161 0,0.455729 -0.2141927,0.888672 -0.2096353,0.428385 -0.5787758,0.688151 -0.3645832,0.255208 -0.9023434,0.314453 -0.3372395,0.03646 -1.6269526,0.04557 H 0.68359352 Z m 1.34895788,1.111979 v 1.544922 h 0.8841143 q 0.7884112,0 0.9798173,-0.02279 0.3463541,-0.04101 0.5423176,-0.236979 0.2005207,-0.200521 0.2005207,-0.524088 0,-0.309896 -0.173177,-0.501302 Q 4.2975246,16.147115 3.9602851,16.1061 3.7597643,16.083313 2.8072907,16.083313 Z m 0,2.6569 v 1.786458 h 1.2486975 q 0.7291664,0 0.9251299,-0.04102 0.3007811,-0.05469 0.48763,-0.264322 0.1914062,-0.214193 0.1914062,-0.569662 0,-0.300781 -0.1458333,-0.510416 -0.1458333,-0.209635 -0.423828,-0.305339 -0.2734374,-0.0957 -1.19401,-0.0957 z m 5.3867168,2.912109 V 14.971334 H 9.583981 q 1.230468,0 1.604166,0.100261 0.574219,0.15039 0.961588,0.65625 0.38737,0.501302 0.38737,1.298827 0,0.615234 -0.223307,1.034505 -0.223307,0.419271 -0.569661,0.660807 -0.341797,0.236979 -0.697266,0.314453 -0.483073,0.0957 -1.3990879,0.0957 h -0.879557 v 2.520182 z m 1.3489579,-5.55078 v 1.895833 h 0.738281 q 0.7975259,0 1.0664059,-0.104818 0.26888,-0.104817 0.419271,-0.328124 0.154948,-0.223308 0.154948,-0.519532 0,-0.364583 -0.214193,-0.601562 -0.214193,-0.236979 -0.542318,-0.296224 -0.241536,-0.04557 -0.9707024,-0.04557 z m 4.6119779,3.832681 1.276041,-0.132161 q 0.05469,0.432943 0.323568,0.688151 0.26888,0.250651 0.619791,0.250651 0.401042,0 0.679036,-0.323568 0.277995,-0.328125 0.277995,-0.984375 0,-0.615234 -0.277995,-0.920572 -0.273437,-0.309896 -0.715494,-0.309896 -0.551432,0 -0.988932,0.48763 l -1.039062,-0.15039 0.656249,-3.477213 h 3.386067 v 1.198568 h -2.415364 l -0.200521,1.134765 q 0.428386,-0.214193 0.875,-0.214193 0.852213,0 1.444661,0.619792 0.592448,0.619791 0.592448,1.608723 0,0.82487 -0.478516,1.472005 -0.651692,0.884114 -1.809244,0.884114 -0.92513,0 -1.508463,-0.496745 -0.583333,-0.496744 -0.697265,-1.335286 z"
         id="text29"
         transform="matrix(0.26458333,0,0,0.26458333,0.04502583,-3.5900769)"
         aria-label="BP5" />
    </g>
    <path
       style="font-weight:bold;font-size:9.33333px;line-height:1.25;font-family:Arial;-inkscape-font-specification:'Arial Bold';white-space:pre"
       d="M 0.63802062,21.652322 V 14.971334 H 1.9869785 v 6.680988 z M 2.998697,18.352844 q 0,-1.020833 0.3053384,-1.713541 0.2278645,-0.510417 0.6197915,-0.916016 0.3964842,-0.405599 0.8658851,-0.601562 0.6243487,-0.264323 1.4401037,-0.264323 1.476562,0 2.3606763,0.916015 0.8886715,0.916016 0.8886715,2.547526 0,1.617838 -0.879557,2.533853 -0.879557,0.911458 -2.3515617,0.911458 -1.4902338,0 -2.3697908,-0.906901 -0.879557,-0.911458 -0.879557,-2.506509 z m 1.3899735,-0.04557 q 0,1.134765 0.5240883,1.722655 0.5240884,0.583334 1.3307287,0.583334 0.8066404,0 1.3216142,-0.578776 0.5195311,-0.583333 0.5195311,-1.745442 0,-1.148437 -0.5058593,-1.713541 -0.5013019,-0.565104 -1.335286,-0.565104 -0.833984,0 -1.3444005,0.574218 -0.5104165,0.569661 -0.5104165,1.722656 z m 9.1373665,3.345051 h -1.280598 v -4.82617 q -0.701823,0.656249 -1.654297,0.970702 v -1.162109 q 0.501302,-0.164062 1.089193,-0.619791 0.58789,-0.460286 0.80664,-1.070963 h 1.039062 z"
       id="text31"
       transform="matrix(0.26458333,0,0,0.26458333,0.6262132,4.044995)"
       aria-label="IO1" />
    <path
       style="font-weight:bold;font-size:9.33333px;line-height:1.25;font-family:Arial;-inkscape-font-specification:'Arial Bold';white-space:pre"
       d="M 0.63802062,21.652322 V 14.971334 H 1.9869785 v 6.680988 z M 2.998697,18.352844 q 0,-1.020833 0.3053384,-1.713541 0.2278645,-0.510417 0.6197915,-0.916016 0.3964842,-0.405599 0.8658851,-0.601562 0.6243487,-0.264323 1.4401037,-0.264323 1.476562,0 2.3606763,0.916015 0.8886715,0.916016 0.8886715,2.547526 0,1.617838 -0.879557,2.533853 -0.879557,0.911458 -2.3515617,0.911458 -1.4902338,0 -2.3697908,-0.906901 -0.879557,-0.911458 -0.879557,-2.506509 z m 1.3899735,-0.04557 q 0,1.134765 0.5240883,1.722655 0.5240884,0.583334 1.3307287,0.583334 0.8066404,0 1.3216142,-0.578776 0.5195311,-0.583333 0.5195311,-1.745442 0,-1.148437 -0.5058593,-1.713541 -0.5013019,-0.565104 -1.335286,-0.565104 -0.833984,0 -1.3444005,0.574218 -0.5104165,0.569661 -0.5104165,1.722656 z m 10.1855435,2.155598 v 1.189453 h -4.488931 q 0.07292,-0.674479 0.4375,-1.276041 0.364583,-0.60612 1.440104,-1.604167 0.865885,-0.80664 1.061848,-1.093749 0.264323,-0.396484 0.264323,-0.783854 0,-0.428385 -0.232422,-0.65625 -0.227864,-0.232422 -0.633463,-0.232422 -0.401042,0 -0.638021,0.241537 -0.236979,0.241536 -0.273437,0.802083 l -1.276041,-0.127604 q 0.113932,-1.057292 0.715494,-1.517578 0.601563,-0.460286 1.503906,-0.460286 0.988932,0 1.554036,0.533203 0.565104,0.533203 0.565104,1.326171 0,0.451172 -0.164062,0.861328 -0.159506,0.405599 -0.510417,0.852213 -0.232422,0.296224 -0.838541,0.852213 -0.60612,0.55599 -0.770182,0.738281 -0.159506,0.182292 -0.259766,0.355469 z"
       id="text33"
       transform="matrix(0.26458333,0,0,0.26458333,0.48754816,6.584995)"
       aria-label="IO2" />
    <path
       style="font-weight:bold;font-size:9.33333px;line-height:1.25;font-family:Arial;-inkscape-font-specification:'Arial Bold';white-space:pre"
       d="M 0.63802062,21.652322 V 14.971334 H 1.9869785 v 6.680988 z M 2.998697,18.352844 q 0,-1.020833 0.3053384,-1.713541 0.2278645,-0.510417 0.6197915,-0.916016 0.3964842,-0.405599 0.8658851,-0.601562 0.6243487,-0.264323 1.4401037,-0.264323 1.476562,0 2.3606763,0.916015 0.8886715,0.916016 0.8886715,2.547526 0,1.617838 -0.879557,2.533853 -0.879557,0.911458 -2.3515617,0.911458 -1.4902338,0 -2.3697908,-0.906901 -0.879557,-0.911458 -0.879557,-2.506509 z m 1.3899735,-0.04557 q 0,1.134765 0.5240883,1.722655 0.5240884,0.583334 1.3307287,0.583334 0.8066404,0 1.3216142,-0.578776 0.5195311,-0.583333 0.5195311,-1.745442 0,-1.148437 -0.5058593,-1.713541 -0.5013019,-0.565104 -1.335286,-0.565104 -0.833984,0 -1.3444005,0.574218 -0.5104165,0.569661 -0.5104165,1.722656 z m 5.8151025,1.572265 1.239583,-0.150391 q 0.05924,0.473958 0.31901,0.724609 0.259765,0.250651 0.628906,0.250651 0.396484,0 0.665364,-0.300781 0.273438,-0.300781 0.273438,-0.811197 0,-0.483073 -0.259766,-0.765625 -0.259765,-0.282552 -0.633463,-0.282552 -0.246094,0 -0.587891,0.0957 l 0.141276,-1.043619 q 0.519532,0.01367 0.792969,-0.223308 0.273437,-0.241536 0.273437,-0.63802 0,-0.33724 -0.20052,-0.537761 -0.200521,-0.20052 -0.533203,-0.20052 -0.328125,0 -0.560547,0.227864 -0.232422,0.227865 -0.282552,0.665365 l -1.180338,-0.200521 q 0.123047,-0.60612 0.36914,-0.966146 0.250651,-0.364583 0.692708,-0.569661 0.446615,-0.209635 0.998047,-0.209635 0.943359,0 1.51302,0.601562 0.469401,0.492187 0.469401,1.111979 0,0.879557 -0.961588,1.403645 0.574219,0.123047 0.916015,0.551432 0.346354,0.428386 0.346354,1.034505 0,0.879557 -0.642578,1.499349 -0.642577,0.619791 -1.599608,0.619791 -0.906901,0 -1.503906,-0.519531 -0.597005,-0.524088 -0.692708,-1.367187 z"
       id="text35"
       transform="matrix(0.26458333,0,0,0.26458333,0.47850479,9.124995)"
       aria-label="IO3" />
    <path
       style="font-weight:bold;font-size:9.33333px;line-height:1.25;font-family:Arial;-inkscape-font-specification:'Arial Bold';white-space:pre"
       d="M 0.63802062,21.652322 V 14.971334 H 1.9869785 v 6.680988 z M 2.998697,18.352844 q 0,-1.020833 0.3053384,-1.713541 0.2278645,-0.510417 0.6197915,-0.916016 0.3964842,-0.405599 0.8658851,-0.601562 0.6243487,-0.264323 1.4401037,-0.264323 1.476562,0 2.3606763,0.916015 0.8886715,0.916016 0.8886715,2.547526 0,1.617838 -0.879557,2.533853 -0.879557,0.911458 -2.3515617,0.911458 -1.4902338,0 -2.3697908,-0.906901 -0.879557,-0.911458 -0.879557,-2.506509 z m 1.3899735,-0.04557 q 0,1.134765 0.5240883,1.722655 0.5240884,0.583334 1.3307287,0.583334 0.8066404,0 1.3216142,-0.578776 0.5195311,-0.583333 0.5195311,-1.745442 0,-1.148437 -0.5058593,-1.713541 -0.5013019,-0.565104 -1.335286,-0.565104 -0.833984,0 -1.3444005,0.574218 -0.5104165,0.569661 -0.5104165,1.722656 z m 8.3717415,3.345051 v -1.344401 h -2.734374 v -1.121093 l 2.898437,-4.242837 h 1.07552 v 4.238279 h 0.829427 v 1.125651 h -0.829427 v 1.344401 z m 0,-2.470052 v -2.283202 l -1.535806,2.283202 z"
       id="text37"
       transform="matrix(0.26458333,0,0,0.26458333,0.45378624,11.664995)"
       aria-label="IO4" />
    <path
       style="font-weight:bold;font-size:9.33333px;line-height:1.25;font-family:Arial;-inkscape-font-specification:'Arial Bold';white-space:pre"
       d="M 0.63802062,21.652322 V 14.971334 H 1.9869785 v 6.680988 z M 2.998697,18.352844 q 0,-1.020833 0.3053384,-1.713541 0.2278645,-0.510417 0.6197915,-0.916016 0.3964842,-0.405599 0.8658851,-0.601562 0.6243487,-0.264323 1.4401037,-0.264323 1.476562,0 2.3606763,0.916015 0.8886715,0.916016 0.8886715,2.547526 0,1.617838 -0.879557,2.533853 -0.879557,0.911458 -2.3515617,0.911458 -1.4902338,0 -2.3697908,-0.906901 -0.879557,-0.911458 -0.879557,-2.506509 z m 1.3899735,-0.04557 q 0,1.134765 0.5240883,1.722655 0.5240884,0.583334 1.3307287,0.583334 0.8066404,0 1.3216142,-0.578776 0.5195311,-0.583333 0.5195311,-1.745442 0,-1.148437 -0.5058593,-1.713541 -0.5013019,-0.565104 -1.335286,-0.565104 -0.833984,0 -1.3444005,0.574218 -0.5104165,0.569661 -0.5104165,1.722656 z m 5.8789045,1.626952 1.276041,-0.132161 q 0.05469,0.432943 0.323568,0.688151 0.26888,0.250651 0.619791,0.250651 0.401042,0 0.679036,-0.323568 0.277995,-0.328125 0.277995,-0.984375 0,-0.615234 -0.277995,-0.920572 -0.273437,-0.309896 -0.715494,-0.309896 -0.551432,0 -0.988932,0.48763 l -1.039062,-0.15039 0.656249,-3.477213 h 3.386067 v 1.198568 h -2.415364 l -0.200521,1.134765 q 0.428386,-0.214193 0.875,-0.214193 0.852213,0 1.444661,0.619792 0.592448,0.619791 0.592448,1.608723 0,0.82487 -0.478516,1.472005 -0.651692,0.884114 -1.809244,0.884114 -0.92513,0 -1.508463,-0.496745 -0.583333,-0.496744 -0.697265,-1.335286 z"
       id="text39"
       transform="matrix(0.26458333,0,0,0.26458333,0.46282961,14.204995)"
       aria-label="IO5" />
    <path
       style="font-weight:bold;font-size:9.33333px;line-height:1.25;font-family:Arial;-inkscape-font-specification:'Arial Bold';white-space:pre"
       d="M 0.63802062,21.652322 V 14.971334 H 1.9869785 v 6.680988 z M 2.998697,18.352844 q 0,-1.020833 0.3053384,-1.713541 0.2278645,-0.510417 0.6197915,-0.916016 0.3964842,-0.405599 0.8658851,-0.601562 0.6243487,-0.264323 1.4401037,-0.264323 1.476562,0 2.3606763,0.916015 0.8886715,0.916016 0.8886715,2.547526 0,1.617838 -0.879557,2.533853 -0.879557,0.911458 -2.3515617,0.911458 -1.4902338,0 -2.3697908,-0.906901 -0.879557,-0.911458 -0.879557,-2.506509 z m 1.3899735,-0.04557 q 0,1.134765 0.5240883,1.722655 0.5240884,0.583334 1.3307287,0.583334 0.8066404,0 1.3216142,-0.578776 0.5195311,-0.583333 0.5195311,-1.745442 0,-1.148437 -0.5058593,-1.713541 -0.5013019,-0.565104 -1.335286,-0.565104 -0.833984,0 -1.3444005,0.574218 -0.5104165,0.569661 -0.5104165,1.722656 z M 14.587886,16.607402 13.348303,16.74412 q -0.04557,-0.382812 -0.236979,-0.565104 -0.191406,-0.182291 -0.496745,-0.182291 -0.405599,0 -0.688151,0.364583 -0.277994,0.364583 -0.350911,1.517578 0.478516,-0.565104 1.189453,-0.565104 0.802083,0 1.371744,0.610676 0.574219,0.610677 0.574219,1.576823 0,1.02539 -0.601563,1.645182 -0.601562,0.619791 -1.544921,0.619791 -1.011718,0 -1.663411,-0.783854 -0.651692,-0.788411 -0.651692,-2.579426 0,-1.836588 0.679036,-2.647786 0.679036,-0.811197 1.763671,-0.811197 0.761068,0 1.257812,0.428385 0.501302,0.423828 0.638021,1.235026 z m -2.902994,2.793618 q 0,0.624349 0.287109,0.966146 0.28711,0.337239 0.65625,0.337239 0.355469,0 0.592448,-0.277994 0.236979,-0.277995 0.236979,-0.911458 0,-0.651693 -0.255208,-0.952474 -0.255209,-0.305338 -0.638021,-0.305338 -0.36914,0 -0.624349,0.291666 -0.255208,0.287109 -0.255208,0.852213 z"
       id="text41"
       transform="matrix(0.26458333,0,0,0.26458333,0.46946141,16.744995)"
       aria-label="IO6" />
    <path
       style="font-weight:bold;font-size:9.33333px;line-height:1.25;font-family:Arial;-inkscape-font-specification:'Arial Bold';white-space:pre"
       d="M 0.63802062,21.652322 V 14.971334 H 1.9869785 v 6.680988 z M 2.998697,18.352844 q 0,-1.020833 0.3053384,-1.713541 0.2278645,-0.510417 0.6197915,-0.916016 0.3964842,-0.405599 0.8658851,-0.601562 0.6243487,-0.264323 1.4401037,-0.264323 1.476562,0 2.3606763,0.916015 0.8886715,0.916016 0.8886715,2.547526 0,1.617838 -0.879557,2.533853 -0.879557,0.911458 -2.3515617,0.911458 -1.4902338,0 -2.3697908,-0.906901 -0.879557,-0.911458 -0.879557,-2.506509 z m 1.3899735,-0.04557 q 0,1.134765 0.5240883,1.722655 0.5240884,0.583334 1.3307287,0.583334 0.8066404,0 1.3216142,-0.578776 0.5195311,-0.583333 0.5195311,-1.745442 0,-1.148437 -0.5058593,-1.713541 -0.5013019,-0.565104 -1.335286,-0.565104 -0.833984,0 -1.3444005,0.574218 -0.5104165,0.569661 -0.5104165,1.722656 z M 10.249346,16.251933 V 15.06248 h 4.379555 v 0.929687 q -0.542317,0.533203 -1.102864,1.53125 -0.560546,0.998046 -0.85677,2.123697 -0.291667,1.121093 -0.28711,2.005208 h -1.235025 q 0.0319,-1.385416 0.569661,-2.82552 0.542318,-1.440104 1.444661,-2.574869 z"
       id="text43"
       transform="matrix(0.26458333,0,0,0.26458333,0.48031346,19.284995)"
       aria-label="IO7" />
    <g
       id="g44">
      <path
         id="rect43"
         style="fill-rule:evenodd;stroke-width:0.264583"
         d="m 0,25.4 h 5 v 2.54 H 0 Z" />
      <path
         style="font-weight:bold;font-size:8.66667px;line-height:1.25;font-family:Arial;-inkscape-font-specification:'Arial Bold';white-space:pre;fill:#ffffff"
         d="m 3.5166029,18.764819 v -1.045248 h 2.6998707 v 2.471355 q -0.3935548,0.38086 -1.1425785,0.672852 -0.7447919,0.28776 -1.5107428,0.28776 -0.9733076,0 -1.6969407,-0.40625 Q 1.1425785,20.334806 0.77864612,19.577319 0.41471369,18.8156 0.41471369,17.922696 q 0,-0.969076 0.40625015,-1.722331 0.40625016,-0.753256 1.18912806,-1.155274 0.5966799,-0.30892 1.4853521,-0.30892 1.1552739,0 1.802735,0.486654 0.651693,0.482422 0.837891,1.33724 L 4.8919289,16.792813 Q 4.7607439,16.335781 4.3968115,16.073412 4.0371109,15.80681 3.495444,15.80681 q -0.8209639,0 -1.3076177,0.520508 -0.482422,0.520508 -0.482422,1.544597 0,1.104492 0.4908856,1.658855 0.4908856,0.55013 1.2864588,0.55013 0.3935548,0 0.7871096,-0.152344 0.3977866,-0.156575 0.6813154,-0.376628 v -0.787109 z m 3.8678398,2.280925 v -6.203778 h 1.2187505 l 2.5390638,4.142905 v -4.142905 h 1.163737 v 6.203778 H 11.049158 L 8.5481801,17.00017 v 4.045574 z m 6.2418643,-6.203778 h 2.289389 q 0.774414,0 1.180664,0.118489 0.545899,0.160808 0.935222,0.57129 0.389323,0.410482 0.592448,1.007161 0.203125,0.592449 0.203125,1.464194 0,0.765951 -0.190429,1.320313 -0.232748,0.677083 -0.664389,1.096029 -0.325846,0.317383 -0.880208,0.495117 -0.414714,0.131185 -1.108725,0.131185 h -2.357097 z m 1.252605,1.049479 v 4.109051 h 0.935221 q 0.52474,0 0.757488,-0.05924 0.304687,-0.07617 0.503581,-0.258138 0.203125,-0.181966 0.330078,-0.59668 0.126953,-0.418945 0.126953,-1.138346 0,-0.719402 -0.126953,-1.104493 -0.126953,-0.385091 -0.355469,-0.600912 -0.228516,-0.21582 -0.579753,-0.291992 -0.26237,-0.05925 -1.028321,-0.05925 z"
         id="text44"
         transform="matrix(0.26458333,0,0,0.26458333,-0.04553889,21.922355)"
         aria-label="GND" />
    </g>
  </g>
</svg>
