G04 #@! TF.GenerationSoftware,KiCad,Pcbnew,8.0.6*
G04 #@! TF.CreationDate,2024-11-01T16:37:01+01:00*
G04 #@! TF.ProjectId,7-REV0,372d5245-5630-42e6-9b69-6361645f7063,rev?*
G04 #@! TF.SameCoordinates,Original*
G04 #@! TF.FileFunction,Copper,L4,Bot*
G04 #@! TF.FilePolarity,Positive*
%FSLAX46Y46*%
G04 Gerber Fmt 4.6, Leading zero omitted, Abs format (unit mm)*
G04 Created by KiCad (PCBNEW 8.0.6) date 2024-11-01 16:37:01*
%MOMM*%
%LPD*%
G01*
G04 APERTURE LIST*
G04 #@! TA.AperFunction,ComponentPad*
%ADD10R,1.700000X1.700000*%
G04 #@! TD*
G04 #@! TA.AperFunction,ComponentPad*
%ADD11O,1.700000X1.700000*%
G04 #@! TD*
G04 #@! TA.AperFunction,ComponentPad*
%ADD12O,1.050000X2.100000*%
G04 #@! TD*
G04 #@! TA.AperFunction,ComponentPad*
%ADD13C,0.600000*%
G04 #@! TD*
G04 #@! TA.AperFunction,SMDPad,CuDef*
%ADD14R,0.700000X1.250000*%
G04 #@! TD*
G04 #@! TA.AperFunction,SMDPad,CuDef*
%ADD15R,2.550000X0.600000*%
G04 #@! TD*
G04 #@! TA.AperFunction,ViaPad*
%ADD16C,0.500000*%
G04 #@! TD*
G04 #@! TA.AperFunction,ViaPad*
%ADD17C,0.600000*%
G04 #@! TD*
G04 #@! TA.AperFunction,Conductor*
%ADD18C,0.500000*%
G04 #@! TD*
G04 #@! TA.AperFunction,Conductor*
%ADD19C,0.304800*%
G04 #@! TD*
G04 #@! TA.AperFunction,Conductor*
%ADD20C,0.150000*%
G04 #@! TD*
G04 #@! TA.AperFunction,Conductor*
%ADD21C,0.250000*%
G04 #@! TD*
G04 #@! TA.AperFunction,Conductor*
%ADD22C,1.000000*%
G04 #@! TD*
G04 APERTURE END LIST*
D10*
X148010000Y-70850000D03*
D11*
X150550000Y-70850000D03*
X153090000Y-70850000D03*
D12*
X134220000Y-65680000D03*
X125580000Y-65680000D03*
X134220000Y-61500000D03*
X125580000Y-61500000D03*
D13*
X130066667Y-86616667D03*
X130066667Y-87750000D03*
X130066667Y-88883333D03*
X131200000Y-86616667D03*
X131200000Y-87750000D03*
X131200000Y-88883333D03*
X132333333Y-86616667D03*
X132333333Y-87750000D03*
X132333333Y-88883333D03*
D10*
X118470000Y-112220000D03*
D11*
X121010000Y-112220000D03*
X123550000Y-112220000D03*
X126090000Y-112220000D03*
X128630000Y-112220000D03*
X131170000Y-112220000D03*
X133710000Y-112220000D03*
X136250000Y-112220000D03*
X138790000Y-112220000D03*
X141330000Y-112220000D03*
D14*
X130900000Y-68880000D03*
X130900000Y-65120000D03*
X128900000Y-68880000D03*
X128900000Y-65120000D03*
D15*
X137725000Y-96400000D03*
X137725000Y-95600000D03*
X137725000Y-94800000D03*
X137725000Y-94000000D03*
X137725000Y-93200000D03*
X137725000Y-92400000D03*
X137725000Y-91600000D03*
X137725000Y-90800000D03*
X137725000Y-90000000D03*
X137725000Y-89200000D03*
X137725000Y-88400000D03*
X137725000Y-87600000D03*
D16*
X136400000Y-65800000D03*
X156000000Y-80100000D03*
X157400000Y-78600000D03*
X105500000Y-90850000D03*
X128300000Y-99100000D03*
X143200000Y-99200000D03*
X104600000Y-111600000D03*
X123900000Y-108400000D03*
X119900000Y-98500000D03*
X103000000Y-86000000D03*
X113900000Y-98250000D03*
X112700000Y-87700000D03*
X156900000Y-111700000D03*
X134600000Y-95700000D03*
X156300000Y-71000000D03*
X151600000Y-62800000D03*
X141100000Y-97200000D03*
X145000000Y-75600000D03*
X139250000Y-81750000D03*
X152300000Y-73800000D03*
X105515000Y-97850000D03*
X139000000Y-65800000D03*
X156400000Y-87500000D03*
X129700000Y-109900000D03*
X114500000Y-90850000D03*
X128100000Y-64100000D03*
X122500000Y-88400000D03*
X127250000Y-70000000D03*
X126600000Y-79800000D03*
X146500000Y-111200000D03*
X126100000Y-107800000D03*
X138000000Y-65400000D03*
X125750000Y-78000000D03*
X117000000Y-117800000D03*
X133400000Y-108300000D03*
X134600000Y-114700000D03*
X109000000Y-70100000D03*
X141000000Y-64400000D03*
X133800000Y-67200000D03*
X134600000Y-67200000D03*
X114400000Y-76300000D03*
X140200000Y-96400000D03*
X102250000Y-83750000D03*
X138700000Y-106600000D03*
X155200000Y-111000000D03*
X140000000Y-64400000D03*
X122500000Y-116800000D03*
X107900000Y-95550000D03*
X139300000Y-97200000D03*
X144000000Y-80300000D03*
X155100000Y-102000000D03*
X106700000Y-70000000D03*
X103250000Y-77750000D03*
X124600000Y-64600000D03*
X108500000Y-97850000D03*
X102100000Y-93400000D03*
X109200000Y-66700000D03*
X150200000Y-75500000D03*
X138000000Y-66600000D03*
X123300000Y-85100000D03*
X107250000Y-88750000D03*
X143800000Y-105700000D03*
X156900000Y-95500000D03*
X148700000Y-79900000D03*
X126000000Y-103400000D03*
X120250000Y-100750000D03*
X132300000Y-99800000D03*
X151900000Y-79300000D03*
X135500000Y-104500000D03*
X125900000Y-96100000D03*
X137400000Y-108300000D03*
X125400000Y-67200000D03*
X122250000Y-71500000D03*
X107600000Y-74900000D03*
X112500000Y-70000000D03*
X110750000Y-63750000D03*
X105400000Y-80900000D03*
X141500000Y-116750000D03*
X137000000Y-104700000D03*
X108800000Y-103500000D03*
X120700000Y-95900000D03*
X103000000Y-110300000D03*
X151750000Y-115500000D03*
X124000000Y-92400000D03*
X135400000Y-114700000D03*
X128300000Y-105600000D03*
X135700000Y-79100000D03*
X113900000Y-79200000D03*
X155000000Y-100400000D03*
X139900000Y-86700000D03*
X113899998Y-95550002D03*
X156900000Y-94500000D03*
X102750000Y-79500000D03*
X150600000Y-84100000D03*
X136700000Y-75000000D03*
X104600000Y-110600000D03*
X105100000Y-107700000D03*
X115600000Y-75200000D03*
X130000000Y-96500000D03*
X121000000Y-71500000D03*
X140300000Y-75100000D03*
X103000000Y-102250000D03*
X110900000Y-95550000D03*
X131000000Y-102400000D03*
X122500000Y-81400000D03*
X108500000Y-90850000D03*
X111500000Y-90850000D03*
X102750000Y-96000000D03*
X140000000Y-92400000D03*
X126800000Y-100800000D03*
X139900000Y-87500000D03*
X144000000Y-84500000D03*
X138200000Y-100500000D03*
X139400000Y-108300000D03*
X104900000Y-96500000D03*
X133500000Y-75750000D03*
X126000000Y-72750000D03*
X118000000Y-63000000D03*
X132200000Y-104400000D03*
X130400000Y-106400000D03*
X134900000Y-115300000D03*
X140000000Y-65800000D03*
X111600000Y-97850000D03*
X119500000Y-61250000D03*
X119100000Y-75500000D03*
X137500000Y-75700000D03*
X138900000Y-102400000D03*
X130500000Y-99000000D03*
X135500000Y-100500000D03*
X124600000Y-66800000D03*
X154250000Y-84750000D03*
X121900000Y-108100000D03*
X149500000Y-90000000D03*
X145900000Y-92700000D03*
X135400000Y-107900000D03*
X157600000Y-102900000D03*
X131000000Y-96500000D03*
X132250000Y-72750000D03*
X149200000Y-83000000D03*
X105800000Y-103600000D03*
X146800000Y-104700000D03*
X113900000Y-102600000D03*
X108400000Y-117000000D03*
X124000000Y-62500000D03*
X111700000Y-69300000D03*
X142600000Y-73100000D03*
X132250000Y-71500000D03*
X142400000Y-62800000D03*
X155200000Y-96000000D03*
X102250000Y-100500000D03*
X146600000Y-93600000D03*
X132000000Y-79400000D03*
X142600000Y-69400000D03*
X140100000Y-99900000D03*
X103000000Y-69250000D03*
X113000000Y-111000000D03*
X115800000Y-79700000D03*
X152200000Y-81800000D03*
X142600000Y-71000000D03*
X111115000Y-102600000D03*
X116800000Y-95400000D03*
X147200000Y-88900000D03*
X131800000Y-109200000D03*
X140100000Y-104400000D03*
X150750000Y-91250000D03*
X155250000Y-110000000D03*
X150100000Y-117200000D03*
X143200000Y-70200000D03*
X106500000Y-106800000D03*
X107200000Y-96050000D03*
X128200000Y-101600000D03*
X113100000Y-103200000D03*
X109000000Y-87900000D03*
X106100000Y-109500000D03*
X110900000Y-87900000D03*
X151900000Y-83600000D03*
X110000000Y-88900000D03*
X116100000Y-103200000D03*
X110000000Y-87900000D03*
X110300000Y-96050000D03*
X113200000Y-96050000D03*
X110900000Y-88900000D03*
X109000000Y-88900000D03*
X107100000Y-103000000D03*
X153600000Y-111900000D03*
X116200000Y-95950000D03*
X109900000Y-103500000D03*
X133000000Y-90700000D03*
X132200000Y-90700000D03*
X124600000Y-82300000D03*
X108600000Y-100700000D03*
X119500000Y-109000000D03*
X119500000Y-103100000D03*
X143000000Y-110800000D03*
X151100000Y-116100000D03*
X144400000Y-114200000D03*
X147100000Y-106000000D03*
X123000000Y-106600000D03*
X122750000Y-104000000D03*
X109600000Y-100800000D03*
X125200000Y-83900000D03*
X108500000Y-107000000D03*
X120200000Y-108447600D03*
X115900000Y-114600000D03*
X120250000Y-103500000D03*
X116200000Y-112500000D03*
X115900000Y-110700000D03*
X144400000Y-113400000D03*
X150250000Y-116100000D03*
X143700000Y-110100000D03*
X149600000Y-105100000D03*
X123700000Y-106000000D03*
X123700000Y-104000000D03*
X125100000Y-84600000D03*
X112000000Y-101000000D03*
X115500000Y-113125000D03*
X121000000Y-107800000D03*
X121000000Y-104000000D03*
X112600000Y-114600000D03*
X115300000Y-111300000D03*
X110250000Y-105400000D03*
X124500000Y-105400000D03*
X150400000Y-105100000D03*
X147900000Y-114600000D03*
X144400000Y-109700000D03*
X144400000Y-112500000D03*
X124500000Y-104200000D03*
X124250000Y-84950000D03*
X115000000Y-101100000D03*
X114500000Y-111300000D03*
X114800000Y-114100000D03*
X111700000Y-106200000D03*
X108600000Y-115100000D03*
X121900000Y-107200000D03*
X121900000Y-104000000D03*
X125300000Y-104800000D03*
X131400000Y-83900000D03*
X119900000Y-74075000D03*
X112500000Y-97850000D03*
X129300000Y-96800000D03*
X105100000Y-75500000D03*
X140100000Y-85000000D03*
X115500000Y-78200000D03*
X136700000Y-79100000D03*
X109000000Y-76400000D03*
X106500000Y-90850000D03*
X109300000Y-97500000D03*
X130800000Y-80400000D03*
X112500000Y-90850000D03*
X114500000Y-78400000D03*
X138250000Y-81750000D03*
X135700000Y-92300000D03*
X122250000Y-72750000D03*
X120800000Y-79300000D03*
X105300000Y-82300000D03*
X132800000Y-81300000D03*
X116400000Y-98550000D03*
X135700000Y-93000000D03*
X124700000Y-92000000D03*
X141600000Y-69300000D03*
X115500000Y-90850000D03*
X128200000Y-100200000D03*
X123500000Y-69750000D03*
X140000000Y-69000000D03*
X118300000Y-85300000D03*
X106800000Y-112400000D03*
X113500000Y-82250000D03*
X146850000Y-95400000D03*
X127400000Y-80100000D03*
X109500000Y-90850000D03*
X140900000Y-69600000D03*
X126600000Y-94500000D03*
X107900000Y-108200000D03*
X141250000Y-84750000D03*
X141600000Y-71400000D03*
X111400000Y-80700000D03*
X133500000Y-73250000D03*
X140900000Y-70900000D03*
X107400000Y-97200000D03*
X140000000Y-70100000D03*
X129750000Y-70750000D03*
X151100000Y-100400000D03*
X144600000Y-92700000D03*
X112500000Y-89100000D03*
X122625000Y-86375000D03*
X140000000Y-71200000D03*
X114500000Y-81100000D03*
X140100000Y-88200000D03*
X144000000Y-83250000D03*
X118250000Y-61000000D03*
X136700000Y-61800000D03*
X146400000Y-83200000D03*
X122400000Y-65800000D03*
X122400000Y-67000000D03*
X101250000Y-101250000D03*
X146800000Y-67000000D03*
X136900000Y-106800000D03*
X156000000Y-83400000D03*
X107500000Y-116200000D03*
X134100000Y-104700000D03*
X149300000Y-67000000D03*
X101650000Y-94250000D03*
X141500000Y-119250000D03*
X155950000Y-92750000D03*
X123600000Y-67000000D03*
X133800000Y-103700000D03*
X142000000Y-100200000D03*
D17*
X117700000Y-116900000D03*
D16*
X101500000Y-84500000D03*
X158500000Y-111800000D03*
X141800000Y-104100000D03*
X151700000Y-61400000D03*
X128250000Y-106500000D03*
X124000000Y-61500000D03*
X150700000Y-80600000D03*
X158300000Y-78800000D03*
X159200000Y-94500000D03*
X133700000Y-99300000D03*
X136700000Y-100500000D03*
X141700000Y-99400000D03*
X147900000Y-93900000D03*
X142000000Y-105000000D03*
X123600000Y-65800000D03*
X122400000Y-64600000D03*
X159200000Y-95500000D03*
X156000000Y-82500000D03*
X129250000Y-99100000D03*
X123600000Y-64600000D03*
X147900000Y-94600000D03*
X138250000Y-116700000D03*
X134000000Y-100000000D03*
X151400000Y-67000000D03*
X104200000Y-68900000D03*
X101600000Y-78000000D03*
X143250000Y-77000000D03*
X142500000Y-77000000D03*
X122200000Y-89100000D03*
X141500000Y-77000000D03*
X143250000Y-76000000D03*
X142500000Y-76000000D03*
X134600000Y-94400000D03*
X137500000Y-86750000D03*
X131200000Y-98400000D03*
X111700000Y-72100000D03*
X111700000Y-73000000D03*
X106200000Y-84900000D03*
X107200000Y-84100000D03*
X106200000Y-84100000D03*
X107200000Y-85700000D03*
X110900000Y-72100000D03*
X112600000Y-71300000D03*
X112600000Y-73000000D03*
X107200000Y-84900000D03*
X105300000Y-84900000D03*
X108100000Y-85100000D03*
X155400000Y-101200000D03*
X105300000Y-84100000D03*
X110900000Y-71300000D03*
X123600000Y-94800000D03*
X112600000Y-72100000D03*
X141500000Y-95400000D03*
X143100000Y-95400000D03*
X142250000Y-90000000D03*
X142100000Y-89250000D03*
X127300000Y-91400000D03*
X115300000Y-85500000D03*
X140250000Y-82750000D03*
X137400000Y-84500000D03*
X150700000Y-93600000D03*
X152500000Y-98800000D03*
X150000000Y-93100000D03*
X151900000Y-99400000D03*
X132500000Y-83700000D03*
X124250000Y-71500000D03*
X107050000Y-75700000D03*
X117800000Y-79200000D03*
X134000000Y-93600000D03*
X133800000Y-91800000D03*
X135200000Y-89950000D03*
X125345034Y-90845034D03*
X111800000Y-78600000D03*
X117500000Y-83490000D03*
X127300000Y-90500000D03*
X134500000Y-89300000D03*
X147300000Y-85600000D03*
X132300000Y-68000000D03*
X126600000Y-68200000D03*
X126600000Y-68900000D03*
X133100000Y-68300000D03*
X133100000Y-69100000D03*
X127400000Y-68700000D03*
X132300000Y-68800000D03*
X127400000Y-67900000D03*
X119100000Y-63800000D03*
X122300000Y-62400000D03*
X141800000Y-61500000D03*
X139100000Y-61500000D03*
X156400000Y-96600000D03*
X157600000Y-100300000D03*
X118200000Y-118100000D03*
X139925000Y-118700000D03*
X140700000Y-91800000D03*
X140700000Y-93900000D03*
X133900000Y-90700000D03*
X145600000Y-79750000D03*
X113800000Y-92850000D03*
X119500000Y-93250000D03*
X107800000Y-93100000D03*
X116500000Y-94550000D03*
X119500000Y-92050000D03*
X110800000Y-92850000D03*
X116700000Y-93650000D03*
X105700000Y-93700000D03*
X127200000Y-89700000D03*
X118200000Y-86600000D03*
X133775000Y-84900000D03*
X138250000Y-104650000D03*
X142100000Y-106500000D03*
X134400000Y-106700000D03*
X130500000Y-104500000D03*
X144100000Y-98100000D03*
X131300000Y-99900000D03*
X134000000Y-101000000D03*
X144500000Y-98800000D03*
X145750000Y-100350000D03*
X131300000Y-104400000D03*
X144800000Y-100300000D03*
X133900000Y-105500000D03*
X155100000Y-96900000D03*
X149200000Y-82000000D03*
X144700000Y-88500000D03*
X147900000Y-86300000D03*
X146900000Y-89700000D03*
X142400000Y-87400000D03*
X135200000Y-87800000D03*
X147800000Y-90300000D03*
X147100000Y-86900000D03*
X144300000Y-87900000D03*
X116250000Y-108000000D03*
X107750000Y-94750000D03*
X116250000Y-107250000D03*
X110750000Y-94750000D03*
X116750000Y-108750000D03*
X104900000Y-95200000D03*
X113750000Y-94750000D03*
X116375000Y-106375000D03*
X107600000Y-108900000D03*
X119200000Y-81000000D03*
X151800000Y-113800000D03*
X128200000Y-85600000D03*
X117100000Y-110700000D03*
X116950000Y-109550000D03*
X107000000Y-109500000D03*
X120200000Y-82600000D03*
X119800000Y-79100000D03*
X129025000Y-85625000D03*
X152500000Y-113100000D03*
X152900000Y-109200000D03*
X150400000Y-98700000D03*
X108100000Y-113600000D03*
X140000000Y-90250000D03*
X148700000Y-91400000D03*
X146800000Y-79900000D03*
X129800000Y-83900000D03*
X136500000Y-77750000D03*
D18*
X128900000Y-64900000D02*
X128100000Y-64100000D01*
D19*
X139800000Y-87600000D02*
X139900000Y-87500000D01*
D18*
X140200000Y-96400000D02*
X137725000Y-96400000D01*
D19*
X138500000Y-86700000D02*
X139900000Y-86700000D01*
X139200000Y-93200000D02*
X137725000Y-93200000D01*
X137725000Y-87600000D02*
X139800000Y-87600000D01*
X137725000Y-87475000D02*
X138500000Y-86700000D01*
D18*
X138500000Y-96400000D02*
X139300000Y-97200000D01*
X137725000Y-96400000D02*
X138500000Y-96400000D01*
X128900000Y-65120000D02*
X128900000Y-64900000D01*
D19*
X140000000Y-92400000D02*
X137725000Y-92400000D01*
X137725000Y-87600000D02*
X137725000Y-87475000D01*
X140000000Y-92400000D02*
X139200000Y-93200000D01*
X118600000Y-112090000D02*
X118470000Y-112220000D01*
D20*
X151900000Y-83600000D02*
X151900000Y-95000000D01*
X152000000Y-106000000D02*
X152000000Y-111900000D01*
D21*
X152000000Y-111900000D02*
X144000000Y-111900000D01*
X141800000Y-114100000D02*
X139100000Y-114100000D01*
X144000000Y-111900000D02*
X141800000Y-114100000D01*
D20*
X156400000Y-101600000D02*
X152000000Y-106000000D01*
D21*
X120350000Y-114100000D02*
X118470000Y-112220000D01*
D20*
X151900000Y-95000000D02*
X156400000Y-99500000D01*
D21*
X139100000Y-114100000D02*
X120350000Y-114100000D01*
D20*
X156400000Y-99500000D02*
X156400000Y-101600000D01*
D21*
X153600000Y-111900000D02*
X152000000Y-111900000D01*
D19*
X119600000Y-101600000D02*
X118600000Y-102600000D01*
X128200000Y-101600000D02*
X119600000Y-101600000D01*
X118600000Y-102600000D02*
X118600000Y-112090000D01*
D20*
X137250000Y-80250000D02*
X145300000Y-72200000D01*
X133500000Y-90200000D02*
X133500000Y-87500000D01*
X145300000Y-72200000D02*
X149200000Y-72200000D01*
X133500000Y-87500000D02*
X137250000Y-83750000D01*
X133000000Y-90700000D02*
X133500000Y-90200000D01*
X137250000Y-83750000D02*
X137250000Y-80250000D01*
X149200000Y-72200000D02*
X150550000Y-70850000D01*
X136750000Y-83650000D02*
X136750000Y-79980000D01*
X147230000Y-69500000D02*
X151740000Y-69500000D01*
X136750000Y-79980000D02*
X147230000Y-69500000D01*
X132200000Y-90700000D02*
X132200000Y-90600000D01*
X133100000Y-87300000D02*
X136750000Y-83650000D01*
X133100000Y-89700000D02*
X133100000Y-87300000D01*
X151740000Y-69500000D02*
X153090000Y-70850000D01*
X132200000Y-90600000D02*
X133100000Y-89700000D01*
D19*
X119500000Y-103100000D02*
X119300000Y-103300000D01*
X119300000Y-108800000D02*
X119500000Y-109000000D01*
X119500000Y-109000000D02*
X121010000Y-110510000D01*
X121010000Y-110510000D02*
X121010000Y-112220000D01*
X119300000Y-103300000D02*
X119300000Y-108800000D01*
X128950000Y-110000000D02*
X131170000Y-112220000D01*
X126300000Y-110000000D02*
X128950000Y-110000000D01*
X123000000Y-106700000D02*
X126300000Y-110000000D01*
X123000000Y-106600000D02*
X123000000Y-106700000D01*
X122750000Y-104000000D02*
X122750000Y-106350000D01*
X122750000Y-106350000D02*
X123000000Y-106600000D01*
X120200000Y-108500000D02*
X123550000Y-111850000D01*
X120200000Y-108447600D02*
X120200000Y-103550000D01*
X120200000Y-108447600D02*
X120200000Y-108500000D01*
X123550000Y-111850000D02*
X123550000Y-112220000D01*
D20*
X115900000Y-114600000D02*
X116200000Y-114300000D01*
D19*
X120200000Y-103550000D02*
X120250000Y-103500000D01*
D20*
X116200000Y-114300000D02*
X116200000Y-112500000D01*
X115900000Y-110700000D02*
X116200000Y-111000000D01*
X116200000Y-111000000D02*
X116200000Y-112500000D01*
D19*
X126750000Y-109250000D02*
X130740000Y-109250000D01*
X130740000Y-109250000D02*
X133710000Y-112220000D01*
X123700000Y-106000000D02*
X123700000Y-104000000D01*
X123700000Y-106000000D02*
X123700000Y-106200000D01*
X123700000Y-106200000D02*
X126750000Y-109250000D01*
D20*
X115500000Y-113125000D02*
X115500000Y-111500000D01*
D19*
X125820000Y-112220000D02*
X126090000Y-112220000D01*
X124200000Y-110600000D02*
X125820000Y-112220000D01*
D20*
X112700000Y-114700000D02*
X115000000Y-114700000D01*
D19*
X123600000Y-110600000D02*
X124200000Y-110600000D01*
D20*
X115500000Y-111500000D02*
X115300000Y-111300000D01*
D19*
X121000000Y-107800000D02*
X121000000Y-108000000D01*
D20*
X112600000Y-114600000D02*
X112700000Y-114700000D01*
D19*
X121000000Y-107800000D02*
X121000000Y-104000000D01*
D20*
X115000000Y-114700000D02*
X115500000Y-114200000D01*
D19*
X121000000Y-108000000D02*
X123600000Y-110600000D01*
D20*
X115500000Y-114200000D02*
X115500000Y-113125000D01*
D19*
X136220000Y-112220000D02*
X136250000Y-112220000D01*
X124500000Y-105400000D02*
X124500000Y-104200000D01*
X124500000Y-105400000D02*
X127600000Y-108500000D01*
X132500000Y-108500000D02*
X136220000Y-112220000D01*
X127600000Y-108500000D02*
X132500000Y-108500000D01*
X121900000Y-107200000D02*
X121900000Y-104000000D01*
D20*
X114500000Y-111300000D02*
X114500000Y-113800000D01*
X114800000Y-114100000D02*
X114500000Y-113800000D01*
D19*
X125450000Y-110750000D02*
X127160000Y-110750000D01*
X121900000Y-107200000D02*
X125450000Y-110750000D01*
X127160000Y-110750000D02*
X128630000Y-112220000D01*
X134000000Y-107500000D02*
X138720000Y-112220000D01*
X128000000Y-107500000D02*
X134000000Y-107500000D01*
X125300000Y-104800000D02*
X128000000Y-107500000D01*
X138720000Y-112220000D02*
X138790000Y-112220000D01*
D20*
X129400000Y-81900000D02*
X131400000Y-83900000D01*
X127600000Y-81900000D02*
X129400000Y-81900000D01*
X119900000Y-74075000D02*
X119900000Y-74200000D01*
X119900000Y-74200000D02*
X127600000Y-81900000D01*
D18*
X105400000Y-108600000D02*
X105400000Y-111000000D01*
X112500000Y-90000000D02*
X112500000Y-89100000D01*
X135700000Y-92300000D02*
X135700000Y-93750000D01*
X135950000Y-94000000D02*
X137725000Y-94000000D01*
X135700000Y-93750000D02*
X135950000Y-94000000D01*
X109500000Y-90000000D02*
X112500000Y-90000000D01*
X106500000Y-91700000D02*
X104000000Y-94200000D01*
X107400000Y-106300000D02*
X107400000Y-107700000D01*
X106500000Y-90850000D02*
X107350000Y-90000000D01*
X105400000Y-111000000D02*
X106800000Y-112400000D01*
X115200000Y-90000000D02*
X115500000Y-90300000D01*
X106500000Y-90850000D02*
X106500000Y-91700000D01*
X112500000Y-90850000D02*
X112500000Y-90000000D01*
D21*
X146850000Y-95400000D02*
X146850000Y-96150000D01*
D18*
X106300000Y-107700000D02*
X105400000Y-108600000D01*
X107900000Y-108200000D02*
X107400000Y-107700000D01*
X115500000Y-90300000D02*
X115500000Y-90850000D01*
X109500000Y-90000000D02*
X109500000Y-90850000D01*
X112500000Y-90000000D02*
X115200000Y-90000000D01*
X104000000Y-102900000D02*
X107400000Y-106300000D01*
X107400000Y-107700000D02*
X106300000Y-107700000D01*
D21*
X146850000Y-96150000D02*
X151100000Y-100400000D01*
D18*
X104000000Y-94200000D02*
X104000000Y-102900000D01*
X107350000Y-90000000D02*
X109500000Y-90000000D01*
X147800000Y-94500000D02*
X147900000Y-94600000D01*
X104900000Y-113200000D02*
X103800000Y-112100000D01*
X151400000Y-67000000D02*
X149300000Y-67000000D01*
X104200000Y-109000000D02*
X104200000Y-104700000D01*
X156300000Y-93100000D02*
X155500000Y-92300000D01*
X155600000Y-108900000D02*
X155600000Y-103700000D01*
X138250000Y-116700000D02*
X139700000Y-116700000D01*
X156000000Y-81900000D02*
X158300000Y-79600000D01*
X158500000Y-111800000D02*
X155600000Y-108900000D01*
X156000000Y-83400000D02*
X156000000Y-82500000D01*
X107730945Y-115969055D02*
X107500000Y-116200000D01*
X104200000Y-92500000D02*
X104200000Y-85700000D01*
X101700000Y-78000000D02*
X101600000Y-78000000D01*
X103400000Y-103900000D02*
X102900000Y-103900000D01*
X103000000Y-84500000D02*
X101500000Y-84500000D01*
X141500000Y-118500000D02*
X141500000Y-119250000D01*
X155600000Y-103700000D02*
X159200000Y-100100000D01*
X101250000Y-94650000D02*
X101250000Y-101250000D01*
X156000000Y-82500000D02*
X156000000Y-81900000D01*
X103800000Y-112100000D02*
X103800000Y-109400000D01*
X152000000Y-67000000D02*
X155100000Y-70100000D01*
X151400000Y-67000000D02*
X152000000Y-67000000D01*
X116769055Y-115969055D02*
X107730945Y-115969055D01*
X139700000Y-116700000D02*
X141500000Y-118500000D01*
X104200000Y-75500000D02*
X101700000Y-78000000D01*
X157800000Y-93100000D02*
X156300000Y-93100000D01*
X101650000Y-94250000D02*
X102450000Y-94250000D01*
X101650000Y-94250000D02*
X101250000Y-94650000D01*
X159200000Y-95500000D02*
X159200000Y-94500000D01*
X137725000Y-94800000D02*
X141000000Y-94800000D01*
X159200000Y-100100000D02*
X159200000Y-95500000D01*
X159200000Y-94500000D02*
X157800000Y-93100000D01*
X121300000Y-116900000D02*
X122400000Y-118000000D01*
X141300000Y-94500000D02*
X147800000Y-94500000D01*
X104200000Y-104700000D02*
X103400000Y-103900000D01*
X100900000Y-83900000D02*
X101500000Y-84500000D01*
X117700000Y-116900000D02*
X121300000Y-116900000D01*
X102900000Y-103900000D02*
X101250000Y-102250000D01*
X104200000Y-68900000D02*
X104200000Y-75500000D01*
X155500000Y-92300000D02*
X155500000Y-86200000D01*
X156600000Y-76700000D02*
X157500000Y-76700000D01*
X136950000Y-118000000D02*
X138250000Y-116700000D01*
X103800000Y-109400000D02*
X104200000Y-109000000D01*
X141000000Y-94800000D02*
X141300000Y-94500000D01*
X158300000Y-79600000D02*
X158300000Y-78800000D01*
X117700000Y-116900000D02*
X116769055Y-115969055D01*
X101250000Y-102250000D02*
X101250000Y-101250000D01*
X102450000Y-94250000D02*
X104200000Y-92500000D01*
X147900000Y-94600000D02*
X147900000Y-93900000D01*
X155500000Y-86200000D02*
X156000000Y-85700000D01*
X104200000Y-85700000D02*
X103000000Y-84500000D01*
X156000000Y-85700000D02*
X156000000Y-83400000D01*
X155100000Y-70100000D02*
X155100000Y-75200000D01*
X158300000Y-77500000D02*
X158300000Y-78800000D01*
X101600000Y-78000000D02*
X100900000Y-78700000D01*
X105800000Y-113200000D02*
X104900000Y-113200000D01*
X100900000Y-78700000D02*
X100900000Y-83900000D01*
X107500000Y-116200000D02*
X107500000Y-114900000D01*
X155100000Y-75200000D02*
X156600000Y-76700000D01*
X107500000Y-114900000D02*
X105800000Y-113200000D01*
X157500000Y-76700000D02*
X158300000Y-77500000D01*
X149300000Y-67000000D02*
X146800000Y-67000000D01*
X122400000Y-118000000D02*
X136950000Y-118000000D01*
D20*
X123600000Y-94800000D02*
X113900000Y-85100000D01*
D22*
X107500000Y-72100000D02*
X110900000Y-72100000D01*
X107200000Y-78000000D02*
X106100000Y-76900000D01*
D20*
X146300000Y-97400000D02*
X142900000Y-97400000D01*
X150100000Y-101200000D02*
X146300000Y-97400000D01*
X142200000Y-98100000D02*
X131500000Y-98100000D01*
D22*
X106100000Y-73500000D02*
X107500000Y-72100000D01*
X107200000Y-84100000D02*
X107200000Y-78000000D01*
X106100000Y-76900000D02*
X106100000Y-73500000D01*
D20*
X142900000Y-97400000D02*
X142200000Y-98100000D01*
X155400000Y-101200000D02*
X150100000Y-101200000D01*
X131500000Y-98100000D02*
X131200000Y-98400000D01*
X113900000Y-85100000D02*
X108100000Y-85100000D01*
D18*
X141300000Y-95600000D02*
X137725000Y-95600000D01*
X141500000Y-95400000D02*
X141300000Y-95600000D01*
X141500000Y-95400000D02*
X143100000Y-95400000D01*
D20*
X142250000Y-90000000D02*
X140900000Y-90000000D01*
X140500000Y-89600000D02*
X139439124Y-89600000D01*
X140900000Y-90000000D02*
X140500000Y-89600000D01*
X139039124Y-90000000D02*
X137725000Y-90000000D01*
X139439124Y-89600000D02*
X139039124Y-90000000D01*
X142050000Y-89200000D02*
X137725000Y-89200000D01*
X142100000Y-89250000D02*
X142050000Y-89200000D01*
X121000000Y-91400000D02*
X127300000Y-91400000D01*
X115300000Y-85700000D02*
X121000000Y-91400000D01*
X115300000Y-85500000D02*
X115300000Y-85700000D01*
X138500000Y-84500000D02*
X137400000Y-84500000D01*
X140250000Y-82750000D02*
X138500000Y-84500000D01*
X152500000Y-98300000D02*
X150700000Y-96500000D01*
X150700000Y-96500000D02*
X150700000Y-93600000D01*
X152500000Y-98800000D02*
X152500000Y-98300000D01*
X151900000Y-99400000D02*
X151900000Y-98600000D01*
X151900000Y-98600000D02*
X150000000Y-96700000D01*
X150000000Y-96700000D02*
X150000000Y-93100000D01*
X124250000Y-75375000D02*
X124250000Y-71500000D01*
X132500000Y-83625000D02*
X124250000Y-75375000D01*
X132500000Y-83700000D02*
X132500000Y-83625000D01*
X107050000Y-75700000D02*
X108350000Y-77000000D01*
X115600000Y-77000000D02*
X117800000Y-79200000D01*
X108350000Y-77000000D02*
X115600000Y-77000000D01*
X134000000Y-93600000D02*
X134000000Y-92800000D01*
X134000000Y-92800000D02*
X135200000Y-91600000D01*
X135200000Y-91600000D02*
X137725000Y-91600000D01*
X133800000Y-91800000D02*
X134800000Y-90800000D01*
X134800000Y-90800000D02*
X137725000Y-90800000D01*
X135200000Y-89300000D02*
X136100000Y-88400000D01*
X136100000Y-88400000D02*
X137725000Y-88400000D01*
X135200000Y-89950000D02*
X135200000Y-89300000D01*
X125345034Y-90845034D02*
X125300000Y-90800000D01*
X116000000Y-85700000D02*
X116000000Y-81500000D01*
X113200000Y-80000000D02*
X111800000Y-78600000D01*
X121100000Y-90800000D02*
X116000000Y-85700000D01*
X114500000Y-80000000D02*
X113200000Y-80000000D01*
X116000000Y-81500000D02*
X114500000Y-80000000D01*
X125300000Y-90800000D02*
X121100000Y-90800000D01*
X127100000Y-90300000D02*
X127300000Y-90500000D01*
X117500000Y-86600000D02*
X121200000Y-90300000D01*
X117500000Y-83490000D02*
X117500000Y-86600000D01*
X121200000Y-90300000D02*
X127100000Y-90300000D01*
X136600000Y-85600000D02*
X134500000Y-87700000D01*
X147300000Y-85600000D02*
X136600000Y-85600000D01*
X134500000Y-87700000D02*
X134500000Y-89300000D01*
X120900000Y-63800000D02*
X122300000Y-62400000D01*
X119100000Y-63800000D02*
X120900000Y-63800000D01*
X139100000Y-61500000D02*
X141800000Y-61500000D01*
X157600000Y-100300000D02*
X157600000Y-97800000D01*
X157600000Y-97800000D02*
X156400000Y-96600000D01*
X119100000Y-119000000D02*
X118200000Y-118100000D01*
X139925000Y-118700000D02*
X139625000Y-119000000D01*
X139625000Y-119000000D02*
X119100000Y-119000000D01*
X140700000Y-91800000D02*
X140700000Y-93900000D01*
X145600000Y-79750000D02*
X145600000Y-79800000D01*
X136600000Y-85000000D02*
X133900000Y-87700000D01*
X133900000Y-87700000D02*
X133900000Y-90700000D01*
X145600000Y-79800000D02*
X143800000Y-81600000D01*
X139000000Y-85000000D02*
X136600000Y-85000000D01*
X142400000Y-81600000D02*
X139000000Y-85000000D01*
X143800000Y-81600000D02*
X142400000Y-81600000D01*
X119400000Y-93250000D02*
X119500000Y-93250000D01*
X119000000Y-92850000D02*
X113800000Y-92850000D01*
X119000000Y-92850000D02*
X119400000Y-93250000D01*
X115840000Y-93890000D02*
X116500000Y-94550000D01*
X107800000Y-93100000D02*
X109000000Y-93100000D01*
X109790000Y-93890000D02*
X115840000Y-93890000D01*
X109000000Y-93100000D02*
X109790000Y-93890000D01*
X110800000Y-92850000D02*
X111350000Y-92300000D01*
X111350000Y-92300000D02*
X119250000Y-92300000D01*
X119250000Y-92300000D02*
X119500000Y-92050000D01*
X107000000Y-92400000D02*
X109150000Y-92400000D01*
X116500000Y-93450000D02*
X116700000Y-93650000D01*
X109150000Y-92400000D02*
X110200000Y-93450000D01*
X110200000Y-93450000D02*
X116500000Y-93450000D01*
X105700000Y-93700000D02*
X107000000Y-92400000D01*
X118200000Y-86600000D02*
X121400000Y-89800000D01*
X127100000Y-89800000D02*
X127200000Y-89700000D01*
X121400000Y-89800000D02*
X127100000Y-89800000D01*
X130900000Y-77025000D02*
X130900000Y-68880000D01*
X133775000Y-84900000D02*
X133775000Y-79900000D01*
X133775000Y-79900000D02*
X130900000Y-77025000D01*
X140100000Y-106500000D02*
X142100000Y-106500000D01*
X138250000Y-104650000D02*
X140100000Y-106500000D01*
X134400000Y-106700000D02*
X132700000Y-106700000D01*
X132700000Y-106700000D02*
X130500000Y-104500000D01*
X132500000Y-98700000D02*
X131300000Y-99900000D01*
X144100000Y-98100000D02*
X143100000Y-98100000D01*
X142500000Y-98700000D02*
X132500000Y-98700000D01*
X143100000Y-98100000D02*
X142500000Y-98700000D01*
X144500000Y-98800000D02*
X142300000Y-101000000D01*
X142300000Y-101000000D02*
X134000000Y-101000000D01*
X131300000Y-104400000D02*
X133000000Y-106100000D01*
X137364124Y-103500000D02*
X142600000Y-103500000D01*
X134764124Y-106100000D02*
X137364124Y-103500000D01*
X133000000Y-106100000D02*
X134764124Y-106100000D01*
X142600000Y-103500000D02*
X145750000Y-100350000D01*
X134300000Y-105500000D02*
X133900000Y-105500000D01*
X136100000Y-103000000D02*
X134800000Y-104300000D01*
X134800000Y-105000000D02*
X134300000Y-105500000D01*
X134800000Y-104300000D02*
X134800000Y-105000000D01*
X144800000Y-100500000D02*
X142300000Y-103000000D01*
X144800000Y-100300000D02*
X144800000Y-100500000D01*
X142300000Y-103000000D02*
X136100000Y-103000000D01*
X149200000Y-82000000D02*
X149600000Y-82400000D01*
X153500000Y-95300000D02*
X155100000Y-96900000D01*
X151800000Y-82400000D02*
X153500000Y-84100000D01*
X153500000Y-84100000D02*
X153500000Y-95300000D01*
X149600000Y-82400000D02*
X151800000Y-82400000D01*
X147900000Y-86300000D02*
X147900000Y-87100000D01*
X146500000Y-88500000D02*
X144700000Y-88500000D01*
X147900000Y-87100000D02*
X146500000Y-88500000D01*
X144700000Y-89700000D02*
X142400000Y-87400000D01*
X146900000Y-89700000D02*
X144700000Y-89700000D01*
X144400000Y-90300000D02*
X147800000Y-90300000D01*
X135200000Y-87800000D02*
X136900000Y-86100000D01*
X136900000Y-86100000D02*
X140200000Y-86100000D01*
X140200000Y-86100000D02*
X144400000Y-90300000D01*
X147100000Y-86900000D02*
X146100000Y-87900000D01*
X146100000Y-87900000D02*
X144300000Y-87900000D01*
D19*
X108800000Y-96000000D02*
X108800000Y-95200000D01*
X108350000Y-94750000D02*
X107750000Y-94750000D01*
X115600000Y-108000000D02*
X110200000Y-102600000D01*
X110200000Y-97400000D02*
X108800000Y-96000000D01*
X110200000Y-102600000D02*
X110200000Y-97400000D01*
X108800000Y-95200000D02*
X108350000Y-94750000D01*
X116250000Y-108000000D02*
X115600000Y-108000000D01*
X113052400Y-101147600D02*
X112300000Y-101900000D01*
X112300000Y-101900000D02*
X112300000Y-103400000D01*
X113052400Y-96683612D02*
X113052400Y-101147600D01*
X112300000Y-103400000D02*
X116150000Y-107250000D01*
X116150000Y-107250000D02*
X116250000Y-107250000D01*
X111118788Y-94750000D02*
X113052400Y-96683612D01*
X110750000Y-94750000D02*
X111118788Y-94750000D01*
X106400000Y-99300000D02*
X107800000Y-100700000D01*
X108600000Y-104400000D02*
X111000000Y-104400000D01*
X104900000Y-95200000D02*
X105450000Y-95200000D01*
X111000000Y-104400000D02*
X115350000Y-108750000D01*
X107800000Y-100700000D02*
X107800000Y-103600000D01*
X115350000Y-108750000D02*
X116750000Y-108750000D01*
X106400000Y-96150000D02*
X106400000Y-99300000D01*
X105450000Y-95200000D02*
X106400000Y-96150000D01*
X107800000Y-103600000D02*
X108600000Y-104400000D01*
X114600000Y-104600000D02*
X116375000Y-106375000D01*
X114900000Y-95768792D02*
X114900000Y-98847600D01*
X114900000Y-98847600D02*
X114000000Y-99747600D01*
X114600000Y-102100000D02*
X114600000Y-104600000D01*
X113750000Y-94750000D02*
X113881208Y-94750000D01*
X114000000Y-99747600D02*
X114000000Y-101500000D01*
X114000000Y-101500000D02*
X114600000Y-102100000D01*
X113881208Y-94750000D02*
X114900000Y-95768792D01*
D20*
X108400000Y-109600000D02*
X116900000Y-109600000D01*
X118000000Y-115250000D02*
X123150000Y-115250000D01*
X117400000Y-102100000D02*
X117400000Y-109100000D01*
X128200000Y-85600000D02*
X125900000Y-83300000D01*
X136250000Y-116700000D02*
X137700000Y-115250000D01*
X116750000Y-111050000D02*
X116750000Y-114000000D01*
X116750000Y-114000000D02*
X118000000Y-115250000D01*
X123150000Y-115250000D02*
X124600000Y-116700000D01*
X117400000Y-109100000D02*
X116950000Y-109550000D01*
X107600000Y-108900000D02*
X107700000Y-108900000D01*
X128200000Y-85600000D02*
X128200000Y-91300000D01*
X117100000Y-110700000D02*
X116750000Y-111050000D01*
X107700000Y-108900000D02*
X108400000Y-109600000D01*
X116900000Y-109600000D02*
X116950000Y-109550000D01*
X128200000Y-91300000D02*
X117400000Y-102100000D01*
X145550000Y-115250000D02*
X147000000Y-113800000D01*
X125900000Y-83300000D02*
X120100000Y-83300000D01*
X120100000Y-83300000D02*
X119200000Y-82400000D01*
X124600000Y-116700000D02*
X136250000Y-116700000D01*
X119200000Y-82400000D02*
X119200000Y-81000000D01*
X137700000Y-115250000D02*
X145550000Y-115250000D01*
X147000000Y-113800000D02*
X151800000Y-113800000D01*
X123550000Y-114750000D02*
X118250000Y-114750000D01*
X129025000Y-85553248D02*
X126346752Y-82875000D01*
X117800000Y-110100000D02*
X107600000Y-110100000D01*
X126346752Y-82875000D02*
X120475000Y-82875000D01*
X146900000Y-113100000D02*
X145250000Y-114750000D01*
X119800000Y-79100000D02*
X119800000Y-82200000D01*
X117800000Y-102200000D02*
X129000000Y-91000000D01*
X107600000Y-110100000D02*
X107000000Y-109500000D01*
X119800000Y-82200000D02*
X120200000Y-82600000D01*
X118250000Y-114750000D02*
X117250000Y-113750000D01*
X129025000Y-85625000D02*
X129025000Y-85553248D01*
X136050000Y-116200000D02*
X125000000Y-116200000D01*
X117800000Y-110100000D02*
X117800000Y-102200000D01*
X120475000Y-82875000D02*
X120200000Y-82600000D01*
X117250000Y-111350000D02*
X117800000Y-110800000D01*
X129000000Y-85650000D02*
X129025000Y-85625000D01*
X117800000Y-110800000D02*
X117800000Y-110100000D01*
X117250000Y-113750000D02*
X117250000Y-111350000D01*
X152500000Y-113100000D02*
X146900000Y-113100000D01*
X125000000Y-116200000D02*
X123550000Y-114750000D01*
X145250000Y-114750000D02*
X137500000Y-114750000D01*
X129000000Y-91000000D02*
X129000000Y-85650000D01*
X137500000Y-114750000D02*
X136050000Y-116200000D01*
X141010000Y-91000000D02*
X140300000Y-90290000D01*
X152300000Y-114700000D02*
X149400000Y-114700000D01*
X136400000Y-117200000D02*
X124300000Y-117200000D01*
X149400000Y-114700000D02*
X148300000Y-115800000D01*
X148300000Y-115800000D02*
X137800000Y-115800000D01*
X140300000Y-90290000D02*
X140040000Y-90290000D01*
X137800000Y-115800000D02*
X136400000Y-117200000D01*
X118050000Y-115800000D02*
X117500000Y-115250000D01*
X148700000Y-92800000D02*
X146900000Y-91000000D01*
X122900000Y-115800000D02*
X118050000Y-115800000D01*
X117500000Y-115250000D02*
X109750000Y-115250000D01*
X124300000Y-117200000D02*
X122900000Y-115800000D01*
X148700000Y-97000000D02*
X148700000Y-92800000D01*
X154300000Y-112700000D02*
X152300000Y-114700000D01*
X150400000Y-98700000D02*
X148700000Y-97000000D01*
X154300000Y-110600000D02*
X154300000Y-112700000D01*
X146900000Y-91000000D02*
X141010000Y-91000000D01*
X152900000Y-109200000D02*
X154300000Y-110600000D01*
X109750000Y-115250000D02*
X108100000Y-113600000D01*
X140040000Y-90290000D02*
X140000000Y-90250000D01*
X148700000Y-91400000D02*
X148700000Y-83400000D01*
X148700000Y-83400000D02*
X146800000Y-81500000D01*
X146800000Y-81500000D02*
X146800000Y-79900000D01*
X134400000Y-85300000D02*
X134400000Y-79500000D01*
X131600000Y-85700000D02*
X134000000Y-85700000D01*
X134400000Y-79500000D02*
X136150000Y-77750000D01*
X134000000Y-85700000D02*
X134400000Y-85300000D01*
X136150000Y-77750000D02*
X136500000Y-77750000D01*
X129800000Y-83900000D02*
X131600000Y-85700000D01*
G04 #@! TA.AperFunction,Conductor*
G36*
X108206433Y-83700847D02*
G01*
X108221739Y-83702862D01*
X108316489Y-83715336D01*
X108341447Y-83722023D01*
X108437960Y-83762000D01*
X108460336Y-83774918D01*
X108543216Y-83838515D01*
X108561484Y-83856783D01*
X108625079Y-83939660D01*
X108638001Y-83962042D01*
X108677975Y-84058548D01*
X108684664Y-84083512D01*
X108699153Y-84193566D01*
X108700000Y-84206488D01*
X108700000Y-85593511D01*
X108699153Y-85606433D01*
X108684664Y-85716487D01*
X108677975Y-85741451D01*
X108638001Y-85837957D01*
X108625079Y-85860339D01*
X108561487Y-85943213D01*
X108543213Y-85961487D01*
X108460339Y-86025079D01*
X108437957Y-86038001D01*
X108341451Y-86077975D01*
X108316487Y-86084664D01*
X108206434Y-86099153D01*
X108193512Y-86100000D01*
X105506488Y-86100000D01*
X105493566Y-86099153D01*
X105383512Y-86084664D01*
X105358548Y-86077975D01*
X105262042Y-86038001D01*
X105239660Y-86025079D01*
X105156783Y-85961484D01*
X105138515Y-85943216D01*
X105074918Y-85860336D01*
X105062000Y-85837960D01*
X105022023Y-85741447D01*
X105015336Y-85716489D01*
X105000847Y-85606432D01*
X105000000Y-85593511D01*
X105000000Y-84206488D01*
X105000847Y-84193567D01*
X105002511Y-84180923D01*
X105015336Y-84083508D01*
X105022022Y-84058554D01*
X105062001Y-83962035D01*
X105074916Y-83939666D01*
X105138518Y-83856779D01*
X105156779Y-83838518D01*
X105239666Y-83774916D01*
X105262035Y-83762001D01*
X105358554Y-83722022D01*
X105383508Y-83715336D01*
X105480923Y-83702511D01*
X105493567Y-83700847D01*
X105506488Y-83700000D01*
X108193512Y-83700000D01*
X108206433Y-83700847D01*
G37*
G04 #@! TD.AperFunction*
G04 #@! TA.AperFunction,Conductor*
G36*
X112506433Y-70800847D02*
G01*
X112521739Y-70802862D01*
X112616489Y-70815336D01*
X112641447Y-70822023D01*
X112737960Y-70862000D01*
X112760336Y-70874918D01*
X112843216Y-70938515D01*
X112861484Y-70956783D01*
X112925079Y-71039660D01*
X112938001Y-71062042D01*
X112977975Y-71158548D01*
X112984664Y-71183512D01*
X112999153Y-71293566D01*
X113000000Y-71306488D01*
X113000000Y-72893511D01*
X112999153Y-72906433D01*
X112984664Y-73016487D01*
X112977975Y-73041451D01*
X112938001Y-73137957D01*
X112925079Y-73160339D01*
X112861487Y-73243213D01*
X112843213Y-73261487D01*
X112760339Y-73325079D01*
X112737957Y-73338001D01*
X112641451Y-73377975D01*
X112616487Y-73384664D01*
X112506434Y-73399153D01*
X112493512Y-73400000D01*
X111006488Y-73400000D01*
X110993566Y-73399153D01*
X110883512Y-73384664D01*
X110858548Y-73377975D01*
X110762042Y-73338001D01*
X110739660Y-73325079D01*
X110656783Y-73261484D01*
X110638515Y-73243216D01*
X110574918Y-73160336D01*
X110562000Y-73137960D01*
X110522023Y-73041447D01*
X110515336Y-73016489D01*
X110500847Y-72906432D01*
X110500000Y-72893511D01*
X110500000Y-71306488D01*
X110500847Y-71293567D01*
X110502511Y-71280923D01*
X110515336Y-71183508D01*
X110522022Y-71158554D01*
X110562001Y-71062035D01*
X110574916Y-71039666D01*
X110638518Y-70956779D01*
X110656779Y-70938518D01*
X110739666Y-70874916D01*
X110762035Y-70862001D01*
X110858554Y-70822022D01*
X110883508Y-70815336D01*
X110980923Y-70802511D01*
X110993567Y-70800847D01*
X111006488Y-70800000D01*
X112493512Y-70800000D01*
X112506433Y-70800847D01*
G37*
G04 #@! TD.AperFunction*
G04 #@! TA.AperFunction,Conductor*
G36*
X132099326Y-66800847D02*
G01*
X132114632Y-66802862D01*
X132209382Y-66815336D01*
X132234340Y-66822023D01*
X132330854Y-66862000D01*
X132353233Y-66874921D01*
X132441293Y-66942492D01*
X132451030Y-66951030D01*
X133248969Y-67748969D01*
X133257507Y-67758706D01*
X133325078Y-67846766D01*
X133338000Y-67869147D01*
X133377975Y-67965655D01*
X133384664Y-67990619D01*
X133399153Y-68100673D01*
X133400000Y-68113595D01*
X133400000Y-68986404D01*
X133399153Y-68999326D01*
X133384664Y-69109380D01*
X133377975Y-69134344D01*
X133338000Y-69230852D01*
X133325078Y-69253233D01*
X133258402Y-69340127D01*
X133240127Y-69358402D01*
X133153233Y-69425078D01*
X133130852Y-69438000D01*
X133034344Y-69477975D01*
X133009380Y-69484664D01*
X132899327Y-69499153D01*
X132886405Y-69500000D01*
X132413595Y-69500000D01*
X132400673Y-69499153D01*
X132290619Y-69484664D01*
X132265655Y-69477975D01*
X132169147Y-69438000D01*
X132146766Y-69425078D01*
X132058706Y-69357507D01*
X132048969Y-69348969D01*
X131851030Y-69151030D01*
X131842492Y-69141293D01*
X131827920Y-69122303D01*
X131774920Y-69053232D01*
X131761999Y-69030852D01*
X131722023Y-68934340D01*
X131715336Y-68909382D01*
X131700847Y-68799325D01*
X131700000Y-68786404D01*
X131700000Y-68607108D01*
X131700000Y-68607107D01*
X131682963Y-68477697D01*
X131682961Y-68477692D01*
X131633014Y-68357109D01*
X131633012Y-68357105D01*
X131553558Y-68253559D01*
X131553556Y-68253557D01*
X131553553Y-68253553D01*
X131546447Y-68246447D01*
X131546442Y-68246443D01*
X131546440Y-68246441D01*
X131437746Y-68163037D01*
X131438583Y-68161945D01*
X131412872Y-68137866D01*
X131394552Y-68110448D01*
X131394548Y-68110445D01*
X131328233Y-68066134D01*
X131328231Y-68066133D01*
X131328228Y-68066132D01*
X131328227Y-68066132D01*
X131269758Y-68054501D01*
X131269748Y-68054500D01*
X130530252Y-68054500D01*
X130530251Y-68054500D01*
X130530241Y-68054501D01*
X130471772Y-68066132D01*
X130471769Y-68066133D01*
X130446052Y-68083316D01*
X130391053Y-68100000D01*
X129408947Y-68100000D01*
X129353947Y-68083316D01*
X129328231Y-68066133D01*
X129328228Y-68066132D01*
X129328227Y-68066132D01*
X129269758Y-68054501D01*
X129269748Y-68054500D01*
X128530252Y-68054500D01*
X128530251Y-68054500D01*
X128530241Y-68054501D01*
X128471772Y-68066132D01*
X128471766Y-68066134D01*
X128405447Y-68110448D01*
X128387125Y-68137868D01*
X128361418Y-68161950D01*
X128362253Y-68163038D01*
X128253559Y-68246441D01*
X128106063Y-68393937D01*
X128027567Y-68511415D01*
X128027567Y-68511416D01*
X128027566Y-68511418D01*
X128008532Y-68607107D01*
X128000000Y-68650001D01*
X127976275Y-68769269D01*
X127961493Y-68804955D01*
X127899352Y-68897956D01*
X127887040Y-68912959D01*
X127651030Y-69148969D01*
X127641293Y-69157507D01*
X127553233Y-69225078D01*
X127530852Y-69238000D01*
X127434344Y-69277975D01*
X127409380Y-69284664D01*
X127299327Y-69299153D01*
X127286405Y-69300000D01*
X126713595Y-69300000D01*
X126700673Y-69299153D01*
X126590619Y-69284664D01*
X126565655Y-69277975D01*
X126469147Y-69238000D01*
X126446766Y-69225078D01*
X126359872Y-69158402D01*
X126341597Y-69140127D01*
X126327920Y-69122303D01*
X126274920Y-69053232D01*
X126261999Y-69030852D01*
X126222023Y-68934340D01*
X126215336Y-68909382D01*
X126200847Y-68799325D01*
X126200000Y-68786404D01*
X126200000Y-68113595D01*
X126200847Y-68100674D01*
X126205394Y-68066132D01*
X126215336Y-67990615D01*
X126222022Y-67965661D01*
X126262002Y-67869141D01*
X126274918Y-67846771D01*
X126342499Y-67758697D01*
X126351022Y-67748977D01*
X127148977Y-66951022D01*
X127158697Y-66942499D01*
X127246771Y-66874918D01*
X127269141Y-66862002D01*
X127365661Y-66822022D01*
X127390615Y-66815336D01*
X127488030Y-66802511D01*
X127500674Y-66800847D01*
X127513595Y-66800000D01*
X132086405Y-66800000D01*
X132099326Y-66800847D01*
G37*
G04 #@! TD.AperFunction*
M02*
