M48
; DRILL file {KiCad 8.0.6} date 2024-11-01T16:37:05+0100
; FORMAT={-:-/ absolute / inch / decimal}
; #@! TF.CreationDate,2024-11-01T16:37:05+01:00
; #@! TF.GenerationSoftware,Kicad,Pcbnew,8.0.6
; #@! TF.FileFunction,Plated,1,4,PTH
FMAT,2
INCH
; #@! TA.AperFunction,Plated,PTH,ViaDrill
T1C0.0118
; #@! TA.AperFunction,Plated,PTH,ViaDrill
T2C0.0138
; #@! TA.AperFunction,Plated,PTH,ComponentDrill
T3C0.0138
; #@! TA.AperFunction,Plated,PTH,ComponentDrill
T4C0.0256
; #@! TA.AperFunction,Plated,PTH,ComponentDrill
T5C0.0394
%
G90
G05
T1
X3.9862Y-3.9862
X3.9961Y-3.3268
X4.0Y-3.0709
X4.002Y-3.7106
X4.0197Y-3.6772
X4.0256Y-3.2972
X4.0256Y-3.9567
X4.0453Y-3.1299
X4.0453Y-3.7795
X4.0551Y-2.7264
X4.0551Y-3.3858
X4.0551Y-4.0256
X4.0551Y-4.3425
X4.065Y-3.061
X4.1024Y-2.7126
X4.1181Y-4.3543
X4.1181Y-4.3937
X4.1299Y-3.748
X4.1299Y-3.7992
X4.1378Y-2.9724
X4.1378Y-4.2402
X4.1457Y-3.2402
X4.1457Y-3.311
X4.1457Y-3.3425
X4.1496Y-3.185
X4.1535Y-3.5768
X4.1541Y-3.8524
X4.1614Y-3.689
X4.1654Y-4.0787
X4.1772Y-4.311
X4.1811Y-3.311
X4.1811Y-3.3425
X4.1929Y-3.5768
X4.1929Y-4.2047
X4.2008Y-2.7559
X4.2047Y-4.4252
X4.2126Y-4.311
X4.2146Y-2.9803
X4.2165Y-4.0551
X4.2205Y-3.311
X4.2205Y-3.3425
X4.2205Y-3.374
X4.2205Y-3.7815
X4.2224Y-3.4941
X4.2283Y-3.8268
X4.2323Y-4.5748
X4.2362Y-2.9488
X4.2362Y-4.2874
X4.2421Y-3.7303
X4.2441Y-3.6654
X4.248Y-3.7618
X4.248Y-4.2598
X4.2559Y-3.3504
X4.2559Y-4.4724
X4.2677Y-4.6063
X4.2717Y-3.5768
X4.2717Y-3.8524
X4.2717Y-4.2126
X4.2756Y-3.9646
X4.2756Y-4.5315
X4.2835Y-4.0748
X4.2913Y-2.7598
X4.2913Y-3.0079
X4.2913Y-3.4606
X4.2913Y-3.5
X4.2992Y-2.626
X4.3031Y-3.8386
X4.311Y-3.5768
X4.315Y-3.9685
X4.3268Y-4.0748
X4.3307Y-3.4606
X4.3307Y-3.5
X4.3406Y-4.1496
X4.3425Y-3.7815
X4.3602Y-2.5098
X4.3602Y-3.7303
X4.3622Y-3.6555
X4.3661Y-2.8071
X4.3661Y-2.8386
X4.3661Y-3.4606
X4.3661Y-3.5
X4.3661Y-3.7618
X4.3746Y-4.0394
X4.3858Y-3.1772
X4.3898Y-3.5768
X4.3937Y-3.8524
X4.3976Y-2.7283
X4.3976Y-2.8386
X4.3976Y-2.874
X4.3976Y-4.1811
X4.4016Y-3.0945
X4.4094Y-3.9764
X4.4291Y-2.7559
X4.4291Y-3.5079
X4.4291Y-3.5768
X4.4291Y-3.8524
X4.4331Y-2.8071
X4.4331Y-2.8386
X4.4331Y-2.874
X4.4331Y-4.5118
X4.437Y-3.4528
X4.4488Y-4.3701
X4.4528Y-4.063
X4.4567Y-3.7815
X4.4685Y-3.2382
X4.4783Y-3.7303
X4.4803Y-3.6555
X4.4843Y-3.7618
X4.4843Y-3.1181
X4.4843Y-3.8681
X4.4843Y-4.0394
X4.5039Y-3.0039
X4.5079Y-3.0866
X4.5079Y-3.1929
X4.5079Y-3.5768
X4.5079Y-4.3819
X4.5197Y-4.4921
X4.5276Y-3.9803
X4.5394Y-3.3661
X4.5394Y-4.3819
X4.5472Y-3.0787
X4.5472Y-3.5768
X4.5472Y-4.4537
X4.5512Y-2.9606
X4.5591Y-3.1378
X4.563Y-4.3583
X4.563Y-4.5118
X4.5709Y-4.063
X4.5748Y-3.7776
X4.5748Y-4.4291
X4.5768Y-4.2224
X4.5768Y-4.252
X4.5817Y-4.188
X4.5827Y-3.8799
X4.5866Y-3.7224
X4.5945Y-3.687
X4.5965Y-4.2815
X4.5984Y-3.7559
X4.6043Y-4.313
X4.6063Y-4.6378
X4.6102Y-4.3583
X4.626Y-3.287
X4.6378Y-3.1181
X4.6457Y-2.4803
X4.6535Y-3.4094
X4.6535Y-4.6496
X4.6555Y-2.4016
X4.6575Y-3.3583
X4.689Y-2.5118
X4.689Y-2.9724
X4.6929Y-3.189
X4.7047Y-2.4114
X4.7047Y-3.624
X4.7047Y-3.6713
X4.7047Y-4.0591
X4.7047Y-4.2913
X4.7165Y-3.1142
X4.7205Y-2.9163
X4.7205Y-3.878
X4.7323Y-3.252
X4.7323Y-4.2696
X4.7343Y-3.9665
X4.7343Y-4.0748
X4.752Y-3.7756
X4.7559Y-3.122
X4.7638Y-2.815
X4.7638Y-4.0945
X4.7638Y-4.2441
X4.7992Y-4.0945
X4.7992Y-4.2205
X4.7992Y-4.2559
X4.811Y-3.5079
X4.813Y-2.815
X4.813Y-2.8642
X4.815Y-2.4567
X4.8189Y-2.5433
X4.8189Y-2.5906
X4.8189Y-2.6378
X4.8228Y-3.2047
X4.8228Y-3.4803
X4.8228Y-4.5984
X4.8278Y-3.4006
X4.8327Y-4.0945
X4.8425Y-4.1969
X4.8543Y-3.3504
X4.8622Y-2.7461
X4.8661Y-2.5433
X4.8661Y-2.5906
X4.8661Y-2.6378
X4.8661Y-3.7323
X4.8701Y-4.0945
X4.8701Y-4.1732
X4.878Y-4.2677
X4.8819Y-2.4213
X4.8819Y-2.4606
X4.8819Y-3.6378
X4.8917Y-2.815
X4.8917Y-3.3445
X4.9016Y-4.1024
X4.9016Y-4.1496
X4.9055Y-2.5433
X4.9055Y-2.6299
X4.9055Y-3.2402
X4.9094Y-3.622
X4.9252Y-3.3307
X4.9291Y-3.3031
X4.9331Y-4.126
X4.9348Y-3.5766
X4.937Y-2.6457
X4.9508Y-3.0709
X4.9567Y-3.7835
X4.9606Y-2.8642
X4.9606Y-4.0709
X4.9646Y-4.2441
X4.9843Y-2.685
X4.9843Y-2.7126
X4.9843Y-3.1417
X4.9843Y-3.7205
X4.9921Y-3.9685
X5.0079Y-3.5315
X5.0098Y-2.7559
X5.0118Y-3.563
X5.0118Y-3.5984
X5.0157Y-2.6732
X5.0157Y-2.7047
X5.0157Y-3.1535
X5.0433Y-2.5236
X5.0472Y-3.3701
X5.0472Y-3.9449
X5.0472Y-4.0
X5.0492Y-4.1929
X5.0512Y-3.9016
X5.0512Y-4.1575
X5.0797Y-3.3711
X5.0886Y-3.9016
X5.0906Y-3.811
X5.1063Y-4.3268
X5.1083Y-2.7854
X5.1102Y-3.3031
X5.1181Y-3.7992
X5.1339Y-4.189
X5.1378Y-3.8976
X5.1378Y-4.1142
X5.1496Y-3.1654
X5.1575Y-3.7992
X5.1575Y-4.0315
X5.1654Y-3.874
X5.1693Y-3.9331
X5.1693Y-4.1102
X5.1732Y-3.3031
X5.189Y-4.2992
X5.1969Y-3.126
X5.2047Y-3.5709
X5.2047Y-4.1102
X5.2067Y-2.815
X5.2067Y-2.8642
X5.2087Y-2.6772
X5.2087Y-2.7087
X5.2087Y-3.9291
X5.2165Y-3.2953
X5.2283Y-3.2008
X5.2362Y-3.5709
X5.2402Y-2.689
X5.2402Y-2.7205
X5.252Y-4.2638
X5.2559Y-2.8839
X5.2559Y-2.9823
X5.2638Y-3.9094
X5.2667Y-3.3425
X5.2677Y-2.6457
X5.2677Y-3.6142
X5.2677Y-4.0827
X5.2717Y-3.5709
X5.2717Y-4.1535
X5.2756Y-3.685
X5.2756Y-3.937
X5.2756Y-3.9764
X5.2795Y-4.122
X5.2913Y-4.2008
X5.2953Y-3.5157
X5.2992Y-2.6457
X5.2992Y-3.7165
X5.2992Y-3.7677
X5.2992Y-4.5157
X5.311Y-4.5394
X5.3228Y-3.4567
X5.3228Y-3.5413
X5.3307Y-4.248
X5.3307Y-4.5157
X5.3346Y-3.9567
X5.3346Y-4.1142
X5.3425Y-3.1142
X5.3425Y-3.6339
X5.3425Y-3.6614
X5.3701Y-2.5906
X5.374Y-3.061
X5.3819Y-2.4331
X5.3819Y-2.9528
X5.3819Y-3.1142
X5.3819Y-3.9567
X5.3898Y-4.2047
X5.3937Y-4.122
X5.4094Y-3.3268
X5.4094Y-4.2638
X5.4134Y-2.9803
X5.4134Y-3.4154
X5.4331Y-2.5748
X5.4331Y-2.622
X5.4409Y-3.9567
X5.4429Y-3.2185
X5.4429Y-4.1201
X5.4429Y-4.5945
X5.4606Y-4.1969
X5.4685Y-4.0315
X5.4724Y-2.5906
X5.4764Y-2.4213
X5.4823Y-3.2185
X5.4843Y-3.8268
X5.4882Y-4.2638
X5.5079Y-3.4134
X5.5079Y-3.4449
X5.5089Y-4.6732
X5.5118Y-2.5354
X5.5118Y-2.5906
X5.5118Y-2.7165
X5.5118Y-2.7598
X5.5118Y-2.8031
X5.5118Y-3.5531
X5.5118Y-3.6378
X5.5157Y-3.3465
X5.5157Y-3.4724
X5.5157Y-3.9331
X5.5157Y-4.1102
X5.5197Y-3.7953
X5.5217Y-3.2579
X5.5236Y-2.9567
X5.5394Y-3.6142
X5.5394Y-3.6969
X5.5472Y-2.7402
X5.5472Y-2.7913
X5.5512Y-2.5354
X5.5551Y-3.8268
X5.561Y-3.3366
X5.5709Y-3.0315
X5.5709Y-3.7559
X5.5709Y-4.5965
X5.5709Y-4.6949
X5.5748Y-2.7283
X5.5748Y-2.811
X5.5787Y-3.9134
X5.5827Y-2.4213
X5.5827Y-4.0984
X5.5906Y-3.9449
X5.5906Y-4.1339
X5.5945Y-3.5138
X5.5945Y-4.1929
X5.6004Y-3.5433
X5.6063Y-2.4724
X5.6063Y-3.4409
X5.6102Y-2.9921
X5.6102Y-3.0315
X5.6142Y-2.7323
X5.6142Y-2.7953
X5.6142Y-2.878
X5.6299Y-4.3622
X5.6339Y-3.7559
X5.6378Y-2.7638
X5.6378Y-3.9055
X5.6398Y-2.9921
X5.6398Y-3.0315
X5.6575Y-4.3346
X5.6614Y-4.1614
X5.6693Y-3.1614
X5.6693Y-3.2776
X5.6693Y-3.3268
X5.6732Y-3.8622
X5.6811Y-3.4606
X5.685Y-4.3189
X5.685Y-4.4291
X5.685Y-4.4646
X5.685Y-4.4961
X5.689Y-3.8898
X5.6929Y-3.6496
X5.6969Y-3.4843
X5.7008Y-3.9488
X5.7087Y-2.9764
X5.7323Y-3.1398
X5.7382Y-3.9508
X5.7441Y-3.6496
X5.7638Y-3.2756
X5.7677Y-4.378
X5.7717Y-3.685
X5.7795Y-2.6378
X5.7795Y-3.1457
X5.7795Y-4.122
X5.7815Y-3.7559
X5.7835Y-3.5315
X5.7913Y-3.4213
X5.7913Y-4.1732
X5.7953Y-3.5
X5.7992Y-3.3701
X5.8189Y-3.5551
X5.8228Y-3.3976
X5.8228Y-3.6969
X5.8228Y-3.7244
X5.8228Y-4.5118
X5.8543Y-3.1457
X5.8543Y-3.5984
X5.874Y-3.2283
X5.874Y-3.2677
X5.878Y-2.6378
X5.8858Y-3.5433
X5.8898Y-4.1378
X5.9055Y-3.6654
X5.9094Y-4.6142
X5.9134Y-2.9724
X5.9154Y-4.5709
X5.9213Y-3.8858
X5.9213Y-4.1378
X5.9291Y-3.311
X5.9331Y-3.1732
X5.9331Y-3.685
X5.935Y-3.5925
X5.9488Y-3.9528
X5.9488Y-4.5709
X5.9606Y-2.6378
X5.9685Y-2.4724
X5.9724Y-2.4173
X5.9744Y-4.5472
X5.9764Y-4.4803
X5.9803Y-3.122
X5.9803Y-3.2913
X5.9803Y-3.9134
X5.9921Y-3.2205
X5.9961Y-2.9055
X6.0039Y-3.8898
X6.0039Y-4.4528
X6.0197Y-4.2992
X6.0472Y-4.4055
X6.0728Y-3.3366
X6.1024Y-3.9528
X6.1063Y-3.815
X6.1063Y-4.0157
X6.1102Y-3.7795
X6.1102Y-4.3701
X6.1122Y-4.3307
X6.1181Y-3.9843
X6.1398Y-3.6516
X6.1417Y-3.1535
X6.1417Y-3.248
X6.1417Y-3.2835
X6.1535Y-2.7953
X6.1575Y-3.4449
X6.1575Y-3.8031
X6.1772Y-3.7205
X6.1772Y-3.7598
X6.1772Y-4.3976
X6.1969Y-3.0945
X6.2047Y-3.9488
X6.2047Y-4.0512
X6.2323Y-3.1024
X6.2402Y-4.4016
X6.2677Y-3.7205
X6.2677Y-3.7598
T2
X4.6339Y-4.6024
T3
X5.1207Y-3.4101
X5.1207Y-3.4547
X5.1207Y-3.4993
X5.1654Y-3.4101
X5.1654Y-3.4547
X5.1654Y-3.4993
X5.21Y-3.4101
X5.21Y-3.4547
X5.21Y-3.4993
T5
X4.6642Y-4.4181
X4.7642Y-4.4181
X4.8642Y-4.4181
X4.9642Y-4.4181
X5.0642Y-4.4181
X5.1642Y-4.4181
X5.2642Y-4.4181
X5.3642Y-4.4181
X5.4642Y-4.4181
X5.5642Y-4.4181
X5.8272Y-2.7894
X5.9272Y-2.7894
X6.0272Y-2.7894
T4
G00X4.9441Y-2.4331
M15
G01X4.9441Y-2.4094
M16
G05
G00X4.9441Y-2.6075
M15
G01X4.9441Y-2.5642
M16
G05
G00X5.2843Y-2.4331
M15
G01X5.2843Y-2.4094
M16
G05
G00X5.2843Y-2.6075
M15
G01X5.2843Y-2.5642
M16
G05
M30
