G04 #@! TF.GenerationSoftware,KiCad,Pcbnew,8.0.6*
G04 #@! TF.CreationDate,2024-11-01T16:37:01+01:00*
G04 #@! TF.ProjectId,7-REV0,372d5245-5630-42e6-9b69-6361645f7063,rev?*
G04 #@! TF.SameCoordinates,Original*
G04 #@! TF.FileFunction,Soldermask,Top*
G04 #@! TF.FilePolarity,Negative*
%FSLAX46Y46*%
G04 Gerber Fmt 4.6, Leading zero omitted, Abs format (unit mm)*
G04 Created by KiCad (PCBNEW 8.0.6) date 2024-11-01 16:37:01*
%MOMM*%
%LPD*%
G01*
G04 APERTURE LIST*
G04 Aperture macros list*
%AMRoundRect*
0 Rectangle with rounded corners*
0 $1 Rounding radius*
0 $2 $3 $4 $5 $6 $7 $8 $9 X,Y pos of 4 corners*
0 Add a 4 corners polygon primitive as box body*
4,1,4,$2,$3,$4,$5,$6,$7,$8,$9,$2,$3,0*
0 Add four circle primitives for the rounded corners*
1,1,$1+$1,$2,$3*
1,1,$1+$1,$4,$5*
1,1,$1+$1,$6,$7*
1,1,$1+$1,$8,$9*
0 Add four rect primitives between the rounded corners*
20,1,$1+$1,$2,$3,$4,$5,0*
20,1,$1+$1,$4,$5,$6,$7,0*
20,1,$1+$1,$6,$7,$8,$9,0*
20,1,$1+$1,$8,$9,$2,$3,0*%
%AMFreePoly0*
4,1,5,0.215000,-0.575000,-0.215000,-0.575000,-0.215000,0.575000,0.215000,0.575000,0.215000,-0.575000,0.215000,-0.575000,$1*%
%AMFreePoly1*
4,1,9,3.862500,-0.866500,0.737500,-0.866500,0.737500,-0.450000,-0.737500,-0.450000,-0.737500,0.450000,0.737500,0.450000,0.737500,0.866500,3.862500,0.866500,3.862500,-0.866500,3.862500,-0.866500,$1*%
G04 Aperture macros list end*
%ADD10R,1.700000X0.820000*%
%ADD11RoundRect,0.205000X0.645000X0.205000X-0.645000X0.205000X-0.645000X-0.205000X0.645000X-0.205000X0*%
%ADD12RoundRect,0.205000X-0.645000X-0.205000X0.645000X-0.205000X0.645000X0.205000X-0.645000X0.205000X0*%
%ADD13R,0.820000X1.700000*%
%ADD14RoundRect,0.205000X-0.205000X0.645000X-0.205000X-0.645000X0.205000X-0.645000X0.205000X0.645000X0*%
%ADD15RoundRect,0.205000X0.205000X-0.645000X0.205000X0.645000X-0.205000X0.645000X-0.205000X-0.645000X0*%
%ADD16RoundRect,0.147500X-0.147500X-0.172500X0.147500X-0.172500X0.147500X0.172500X-0.147500X0.172500X0*%
%ADD17RoundRect,0.147500X0.147500X0.172500X-0.147500X0.172500X-0.147500X-0.172500X0.147500X-0.172500X0*%
%ADD18RoundRect,0.140000X-0.140000X-0.170000X0.140000X-0.170000X0.140000X0.170000X-0.140000X0.170000X0*%
%ADD19RoundRect,0.147500X0.172500X-0.147500X0.172500X0.147500X-0.172500X0.147500X-0.172500X-0.147500X0*%
%ADD20RoundRect,0.147500X-0.017678X0.226274X-0.226274X0.017678X0.017678X-0.226274X0.226274X-0.017678X0*%
%ADD21C,3.200000*%
%ADD22R,0.400000X0.650000*%
%ADD23RoundRect,0.243750X0.243750X0.456250X-0.243750X0.456250X-0.243750X-0.456250X0.243750X-0.456250X0*%
%ADD24RoundRect,0.140000X0.140000X0.170000X-0.140000X0.170000X-0.140000X-0.170000X0.140000X-0.170000X0*%
%ADD25RoundRect,0.140000X0.170000X-0.140000X0.170000X0.140000X-0.170000X0.140000X-0.170000X-0.140000X0*%
%ADD26RoundRect,0.147500X-0.172500X0.147500X-0.172500X-0.147500X0.172500X-0.147500X0.172500X0.147500X0*%
%ADD27RoundRect,0.135000X0.135000X0.185000X-0.135000X0.185000X-0.135000X-0.185000X0.135000X-0.185000X0*%
%ADD28RoundRect,0.140000X-0.170000X0.140000X-0.170000X-0.140000X0.170000X-0.140000X0.170000X0.140000X0*%
%ADD29RoundRect,0.030000X0.200000X-0.250000X0.200000X0.250000X-0.200000X0.250000X-0.200000X-0.250000X0*%
%ADD30RoundRect,0.030000X0.150000X-0.250000X0.150000X0.250000X-0.150000X0.250000X-0.150000X-0.250000X0*%
%ADD31RoundRect,0.249998X-0.262502X-0.450002X0.262502X-0.450002X0.262502X0.450002X-0.262502X0.450002X0*%
%ADD32RoundRect,0.150000X-0.650000X-0.150000X0.650000X-0.150000X0.650000X0.150000X-0.650000X0.150000X0*%
%ADD33C,2.000000*%
%ADD34R,1.700000X1.700000*%
%ADD35O,1.700000X1.700000*%
%ADD36RoundRect,0.135000X-0.185000X0.135000X-0.185000X-0.135000X0.185000X-0.135000X0.185000X0.135000X0*%
%ADD37RoundRect,0.150000X-0.150000X-0.625000X0.150000X-0.625000X0.150000X0.625000X-0.150000X0.625000X0*%
%ADD38RoundRect,0.249999X-0.350001X-0.650001X0.350001X-0.650001X0.350001X0.650001X-0.350001X0.650001X0*%
%ADD39RoundRect,0.062500X-0.062500X-0.350000X0.062500X-0.350000X0.062500X0.350000X-0.062500X0.350000X0*%
%ADD40RoundRect,0.062500X-0.350000X-0.062500X0.350000X-0.062500X0.350000X0.062500X-0.350000X0.062500X0*%
%ADD41R,1.000000X3.000000*%
%ADD42R,1.400000X1.200000*%
%ADD43R,0.900000X0.800000*%
%ADD44R,1.050000X0.650000*%
%ADD45R,0.700000X0.600000*%
%ADD46RoundRect,0.135000X0.185000X-0.135000X0.185000X0.135000X-0.185000X0.135000X-0.185000X-0.135000X0*%
%ADD47RoundRect,0.249999X0.450001X1.425001X-0.450001X1.425001X-0.450001X-1.425001X0.450001X-1.425001X0*%
%ADD48R,0.400000X0.510000*%
%ADD49R,0.650000X1.060000*%
%ADD50R,0.650000X0.400000*%
%ADD51R,0.600000X0.700000*%
%ADD52RoundRect,0.030000X0.250000X0.200000X-0.250000X0.200000X-0.250000X-0.200000X0.250000X-0.200000X0*%
%ADD53RoundRect,0.030000X0.250000X0.150000X-0.250000X0.150000X-0.250000X-0.150000X0.250000X-0.150000X0*%
%ADD54RoundRect,0.100000X-0.637500X-0.100000X0.637500X-0.100000X0.637500X0.100000X-0.637500X0.100000X0*%
%ADD55RoundRect,0.135000X-0.135000X-0.185000X0.135000X-0.185000X0.135000X0.185000X-0.135000X0.185000X0*%
%ADD56RoundRect,0.030000X-0.250000X-0.200000X0.250000X-0.200000X0.250000X0.200000X-0.250000X0.200000X0*%
%ADD57RoundRect,0.030000X-0.250000X-0.150000X0.250000X-0.150000X0.250000X0.150000X-0.250000X0.150000X0*%
%ADD58C,0.700000*%
%ADD59R,0.600000X1.450000*%
%ADD60R,0.300000X1.450000*%
%ADD61O,1.050000X2.100000*%
%ADD62FreePoly0,90.000000*%
%ADD63R,1.150000X0.430000*%
%ADD64FreePoly0,0.000000*%
%ADD65R,0.430000X1.150000*%
%ADD66FreePoly0,270.000000*%
%ADD67FreePoly0,180.000000*%
%ADD68R,0.500000X0.400000*%
%ADD69R,0.500000X0.300000*%
%ADD70R,1.300000X0.900000*%
%ADD71FreePoly1,0.000000*%
%ADD72R,1.060000X0.650000*%
%ADD73RoundRect,0.202500X0.022500X-0.247500X0.022500X0.247500X-0.022500X0.247500X-0.022500X-0.247500X0*%
%ADD74RoundRect,0.100000X0.100000X-0.155000X0.100000X0.155000X-0.100000X0.155000X-0.100000X-0.155000X0*%
%ADD75R,0.400000X0.500000*%
%ADD76R,0.300000X0.500000*%
%ADD77R,1.050000X1.750000*%
%ADD78R,0.900000X0.290000*%
%ADD79R,0.290000X0.900000*%
%ADD80R,4.000000X2.000000*%
%ADD81RoundRect,0.100000X0.155000X0.100000X-0.155000X0.100000X-0.155000X-0.100000X0.155000X-0.100000X0*%
%ADD82RoundRect,0.150000X-0.200000X0.150000X-0.200000X-0.150000X0.200000X-0.150000X0.200000X0.150000X0*%
%ADD83RoundRect,0.140000X-0.021213X0.219203X-0.219203X0.021213X0.021213X-0.219203X0.219203X-0.021213X0*%
%ADD84RoundRect,0.150000X-0.512500X-0.150000X0.512500X-0.150000X0.512500X0.150000X-0.512500X0.150000X0*%
%ADD85RoundRect,0.250000X0.475000X-0.250000X0.475000X0.250000X-0.475000X0.250000X-0.475000X-0.250000X0*%
%ADD86RoundRect,0.055000X0.335000X-0.055000X0.335000X0.055000X-0.335000X0.055000X-0.335000X-0.055000X0*%
%ADD87RoundRect,0.055000X-0.055000X-0.335000X0.055000X-0.335000X0.055000X0.335000X-0.055000X0.335000X0*%
%ADD88C,0.600000*%
%ADD89R,1.133333X1.133333*%
%ADD90RoundRect,0.059250X0.177750X-0.472750X0.177750X0.472750X-0.177750X0.472750X-0.177750X-0.472750X0*%
%ADD91RoundRect,0.059250X0.472750X-0.177750X0.472750X0.177750X-0.472750X0.177750X-0.472750X-0.177750X0*%
%ADD92RoundRect,0.102000X1.300000X-1.300000X1.300000X1.300000X-1.300000X1.300000X-1.300000X-1.300000X0*%
%ADD93RoundRect,0.100000X-0.155000X-0.100000X0.155000X-0.100000X0.155000X0.100000X-0.155000X0.100000X0*%
%ADD94RoundRect,0.150000X-0.150000X0.587500X-0.150000X-0.587500X0.150000X-0.587500X0.150000X0.587500X0*%
%ADD95RoundRect,0.150000X-0.150000X0.512500X-0.150000X-0.512500X0.150000X-0.512500X0.150000X0.512500X0*%
%ADD96RoundRect,0.059250X-0.177750X0.472750X-0.177750X-0.472750X0.177750X-0.472750X0.177750X0.472750X0*%
%ADD97RoundRect,0.059250X-0.472750X0.177750X-0.472750X-0.177750X0.472750X-0.177750X0.472750X0.177750X0*%
%ADD98RoundRect,0.102000X-1.300000X1.300000X-1.300000X-1.300000X1.300000X-1.300000X1.300000X1.300000X0*%
%ADD99RoundRect,0.062500X-0.387500X-0.062500X0.387500X-0.062500X0.387500X0.062500X-0.387500X0.062500X0*%
%ADD100R,0.200000X1.600000*%
G04 APERTURE END LIST*
D10*
X115950000Y-61350000D03*
X115950000Y-62850000D03*
D11*
X110850000Y-62850000D03*
D10*
X110850000Y-61350000D03*
X143850000Y-118850000D03*
X143850000Y-117350000D03*
D12*
X148950000Y-117350000D03*
D10*
X148950000Y-118850000D03*
D13*
X101150000Y-104050000D03*
X102650000Y-104050000D03*
D14*
X102650000Y-109150000D03*
D13*
X101150000Y-109150000D03*
D10*
X148950000Y-61350000D03*
X148950000Y-62850000D03*
D11*
X143850000Y-62850000D03*
D10*
X143850000Y-61350000D03*
D13*
X158650000Y-76150000D03*
X157150000Y-76150000D03*
D15*
X157150000Y-71050000D03*
D13*
X158650000Y-71050000D03*
D10*
X110850000Y-118850000D03*
X110850000Y-117350000D03*
D12*
X115950000Y-117350000D03*
D10*
X115950000Y-118850000D03*
D13*
X101150000Y-71050000D03*
X102650000Y-71050000D03*
D14*
X102650000Y-76150000D03*
D13*
X101150000Y-76150000D03*
X101150000Y-87550000D03*
X102650000Y-87550000D03*
D14*
X102650000Y-92650000D03*
D13*
X101150000Y-92650000D03*
D16*
X141515000Y-70250000D03*
X142485000Y-70250000D03*
X111515000Y-98500000D03*
X112485000Y-98500000D03*
X105515000Y-98500000D03*
X106485000Y-98500000D03*
D17*
X112485000Y-103000000D03*
X111515000Y-103000000D03*
X106485000Y-96000000D03*
X105515000Y-96000000D03*
X154485000Y-96000000D03*
X153515000Y-96000000D03*
D16*
X114515000Y-98500000D03*
X115485000Y-98500000D03*
X108515000Y-98500000D03*
X109485000Y-98500000D03*
X138265000Y-82500000D03*
X139235000Y-82500000D03*
D18*
X138270000Y-83500000D03*
X139230000Y-83500000D03*
D19*
X131500000Y-80735000D03*
X131500000Y-79765000D03*
D20*
X124142947Y-91157053D03*
X123457053Y-91842947D03*
D21*
X155900000Y-116100000D03*
D16*
X138265000Y-88000000D03*
X139235000Y-88000000D03*
X130515000Y-72250000D03*
X131485000Y-72250000D03*
D21*
X155900000Y-64100000D03*
D19*
X133000000Y-95735000D03*
X133000000Y-94765000D03*
D18*
X138270000Y-87000000D03*
X139230000Y-87000000D03*
D21*
X103900000Y-64100000D03*
X103900000Y-116100000D03*
D22*
X106650000Y-92800000D03*
X106000000Y-92800000D03*
X105350000Y-92800000D03*
X105350000Y-94700000D03*
X106000000Y-94700000D03*
X106650000Y-94700000D03*
X115650000Y-92800000D03*
X115000000Y-92800000D03*
X114350000Y-92800000D03*
X114350000Y-94700000D03*
X115000000Y-94700000D03*
X115650000Y-94700000D03*
X106650000Y-99800000D03*
X106000000Y-99800000D03*
X105350000Y-99800000D03*
X105350000Y-101700000D03*
X106000000Y-101700000D03*
X106650000Y-101700000D03*
X112650000Y-99800000D03*
X112000000Y-99800000D03*
X111350000Y-99800000D03*
X111350000Y-101700000D03*
X112000000Y-101700000D03*
X112650000Y-101700000D03*
D19*
X133500000Y-80735000D03*
X133500000Y-79765000D03*
X134500000Y-80735000D03*
X134500000Y-79765000D03*
X137000000Y-65265000D03*
X137000000Y-64295000D03*
D23*
X136187500Y-69250000D03*
X134312500Y-69250000D03*
D18*
X157420000Y-77900000D03*
X158380000Y-77900000D03*
D24*
X102430000Y-78700000D03*
X101470000Y-78700000D03*
D25*
X135750000Y-62480000D03*
X135750000Y-61520000D03*
D24*
X102480000Y-69000000D03*
X101520000Y-69000000D03*
X102380000Y-85600000D03*
X101420000Y-85600000D03*
X102380000Y-95250000D03*
X101420000Y-95250000D03*
D25*
X150750000Y-62730000D03*
X150750000Y-61770000D03*
X123250000Y-62480000D03*
X123250000Y-61520000D03*
D26*
X134000000Y-94765000D03*
X134000000Y-95735000D03*
D27*
X143260000Y-83250000D03*
X142240000Y-83250000D03*
D28*
X133500000Y-74020000D03*
X133500000Y-74980000D03*
X135750000Y-66520000D03*
X135750000Y-67480000D03*
X137000000Y-66520000D03*
X137000000Y-67480000D03*
D24*
X124230000Y-85800000D03*
X123270000Y-85800000D03*
D29*
X117250000Y-95050000D03*
D30*
X117750000Y-95050000D03*
X118250000Y-95050000D03*
D29*
X118750000Y-95050000D03*
X118750000Y-94050000D03*
D30*
X118250000Y-94050000D03*
X117750000Y-94050000D03*
D29*
X117250000Y-94050000D03*
D31*
X144087500Y-96250000D03*
X145912500Y-96250000D03*
D29*
X120250000Y-95050000D03*
D30*
X120750000Y-95050000D03*
X121250000Y-95050000D03*
D29*
X121750000Y-95050000D03*
X121750000Y-94050000D03*
D30*
X121250000Y-94050000D03*
X120750000Y-94050000D03*
D29*
X120250000Y-94050000D03*
D32*
X124400000Y-74095000D03*
X124400000Y-75365000D03*
X124400000Y-76635000D03*
X124400000Y-77905000D03*
X131600000Y-77905000D03*
X131600000Y-76635000D03*
X131600000Y-75365000D03*
X131600000Y-74095000D03*
D33*
X158600000Y-68050000D03*
X101050000Y-112300000D03*
D28*
X142250000Y-117770000D03*
X142250000Y-118730000D03*
D24*
X102380000Y-102200000D03*
X101420000Y-102200000D03*
X140230000Y-116332000D03*
X139270000Y-116332000D03*
X121384000Y-116332000D03*
X120424000Y-116332000D03*
D28*
X109000000Y-117520000D03*
X109000000Y-118480000D03*
D25*
X139250000Y-67480000D03*
X139250000Y-66520000D03*
D34*
X148010000Y-70850000D03*
D35*
X150550000Y-70850000D03*
X153090000Y-70850000D03*
D36*
X122250000Y-73490000D03*
X122250000Y-74510000D03*
D33*
X108000000Y-61750000D03*
X155000000Y-77500000D03*
X151750000Y-118500000D03*
D18*
X157520000Y-111000000D03*
X158480000Y-111000000D03*
D19*
X135750000Y-65265000D03*
X135750000Y-64295000D03*
D37*
X125900000Y-114820000D03*
X126900000Y-114820000D03*
X127900000Y-114820000D03*
X128900000Y-114820000D03*
X129900000Y-114820000D03*
X130900000Y-114820000D03*
X131900000Y-114820000D03*
X132900000Y-114820000D03*
X133900000Y-114820000D03*
D38*
X124600000Y-118695000D03*
X135200000Y-118695000D03*
D39*
X151500000Y-86562500D03*
D40*
X150562500Y-87000000D03*
X150562500Y-87500000D03*
X150562500Y-88000000D03*
X150562500Y-88500000D03*
X150562500Y-89000000D03*
X150562500Y-89500000D03*
X150562500Y-90000000D03*
X150562500Y-90500000D03*
D39*
X151500000Y-90937500D03*
X152000000Y-90937500D03*
D40*
X152937500Y-90500000D03*
X152937500Y-90000000D03*
X152937500Y-89500000D03*
X152937500Y-89000000D03*
X152937500Y-88500000D03*
X152937500Y-88000000D03*
X152937500Y-87500000D03*
X152937500Y-87000000D03*
D39*
X152000000Y-86562500D03*
D41*
X151750000Y-88750000D03*
D42*
X135650000Y-97100000D03*
X137850000Y-97100000D03*
X137850000Y-95400000D03*
X135650000Y-95400000D03*
D26*
X145500000Y-81015000D03*
X145500000Y-81985000D03*
X129750000Y-94765000D03*
X129750000Y-95735000D03*
D43*
X140250000Y-95300000D03*
X140250000Y-97200000D03*
X142250000Y-96250000D03*
D26*
X130750000Y-94765000D03*
X130750000Y-95735000D03*
D44*
X142325000Y-80825000D03*
X138175000Y-80825000D03*
X142325000Y-78675000D03*
X138175000Y-78675000D03*
D45*
X112000000Y-81200000D03*
X112000000Y-79800000D03*
D18*
X157520000Y-95500000D03*
X158480000Y-95500000D03*
D26*
X121000000Y-69765000D03*
X121000000Y-70735000D03*
D19*
X122250000Y-70735000D03*
X122250000Y-69765000D03*
X106000000Y-70985000D03*
X106000000Y-70015000D03*
D46*
X111500000Y-87010000D03*
X111500000Y-85990000D03*
D36*
X112750000Y-85990000D03*
X112750000Y-87010000D03*
D17*
X112485000Y-84250000D03*
X111515000Y-84250000D03*
D16*
X105515000Y-88750000D03*
X106485000Y-88750000D03*
D46*
X111750000Y-77260000D03*
X111750000Y-76240000D03*
D36*
X104750000Y-76240000D03*
X104750000Y-77260000D03*
X106000000Y-76240000D03*
X106000000Y-77260000D03*
D24*
X110230000Y-67500000D03*
X109270000Y-67500000D03*
D19*
X106000000Y-72985000D03*
X106000000Y-72015000D03*
D17*
X118985000Y-73000000D03*
X118015000Y-73000000D03*
D47*
X121300000Y-66000000D03*
X115200000Y-66000000D03*
D17*
X115485000Y-69500000D03*
X114515000Y-69500000D03*
X115485000Y-70500000D03*
X114515000Y-70500000D03*
D16*
X109515000Y-74250000D03*
X110485000Y-74250000D03*
X107265000Y-74250000D03*
X108235000Y-74250000D03*
D19*
X106000000Y-82235000D03*
X106000000Y-81265000D03*
D17*
X115485000Y-71500000D03*
X114515000Y-71500000D03*
D36*
X106000000Y-78990000D03*
X106000000Y-80010000D03*
D25*
X117500000Y-62480000D03*
X117500000Y-61520000D03*
D48*
X105500000Y-87145000D03*
X106500000Y-87145000D03*
X106000000Y-85855000D03*
D46*
X118250000Y-84510000D03*
X118250000Y-83490000D03*
X116750000Y-84510000D03*
X116750000Y-83490000D03*
D25*
X111750000Y-70980000D03*
X111750000Y-70020000D03*
D16*
X107265000Y-67500000D03*
X108235000Y-67500000D03*
D49*
X109950000Y-69150000D03*
X109000000Y-69150000D03*
X108050000Y-69150000D03*
X108050000Y-71350000D03*
X109950000Y-71350000D03*
D50*
X109950000Y-77150000D03*
X109950000Y-76500000D03*
X109950000Y-75850000D03*
X108050000Y-75850000D03*
X108050000Y-76500000D03*
X108050000Y-77150000D03*
X109950000Y-87150000D03*
X109950000Y-86500000D03*
X109950000Y-85850000D03*
X108050000Y-85850000D03*
X108050000Y-86500000D03*
X108050000Y-87150000D03*
D51*
X108300000Y-84250000D03*
X109700000Y-84250000D03*
D52*
X118250000Y-105500000D03*
D53*
X118250000Y-105000000D03*
X118250000Y-104500000D03*
D52*
X118250000Y-104000000D03*
X117250000Y-104000000D03*
D53*
X117250000Y-104500000D03*
X117250000Y-105000000D03*
D52*
X117250000Y-105500000D03*
D54*
X148137500Y-97425000D03*
X148137500Y-98075000D03*
X148137500Y-98725000D03*
X148137500Y-99375000D03*
X148137500Y-100025000D03*
X148137500Y-100675000D03*
X148137500Y-101325000D03*
X148137500Y-101975000D03*
X148137500Y-102625000D03*
X148137500Y-103275000D03*
X148137500Y-103925000D03*
X148137500Y-104575000D03*
X153862500Y-104575000D03*
X153862500Y-103925000D03*
X153862500Y-103275000D03*
X153862500Y-102625000D03*
X153862500Y-101975000D03*
X153862500Y-101325000D03*
X153862500Y-100675000D03*
X153862500Y-100025000D03*
X153862500Y-99375000D03*
X153862500Y-98725000D03*
X153862500Y-98075000D03*
X153862500Y-97425000D03*
D22*
X109650000Y-99800000D03*
X109000000Y-99800000D03*
X108350000Y-99800000D03*
X108350000Y-101700000D03*
X109000000Y-101700000D03*
X109650000Y-101700000D03*
D17*
X106485000Y-103000000D03*
X105515000Y-103000000D03*
D55*
X138240000Y-91750000D03*
X139260000Y-91750000D03*
D17*
X109485000Y-103000000D03*
X108515000Y-103000000D03*
D56*
X123250000Y-80000000D03*
D57*
X123250000Y-80500000D03*
X123250000Y-81000000D03*
D56*
X123250000Y-81500000D03*
X124250000Y-81500000D03*
D57*
X124250000Y-81000000D03*
X124250000Y-80500000D03*
D56*
X124250000Y-80000000D03*
D24*
X153480000Y-84750000D03*
X152520000Y-84750000D03*
D22*
X112650000Y-92800000D03*
X112000000Y-92800000D03*
X111350000Y-92800000D03*
X111350000Y-94700000D03*
X112000000Y-94700000D03*
X112650000Y-94700000D03*
D56*
X123250000Y-83000000D03*
D57*
X123250000Y-83500000D03*
X123250000Y-84000000D03*
D56*
X123250000Y-84500000D03*
X124250000Y-84500000D03*
D57*
X124250000Y-84000000D03*
X124250000Y-83500000D03*
D56*
X124250000Y-83000000D03*
D29*
X117250000Y-92500000D03*
D30*
X117750000Y-92500000D03*
X118250000Y-92500000D03*
D29*
X118750000Y-92500000D03*
X118750000Y-91500000D03*
D30*
X118250000Y-91500000D03*
X117750000Y-91500000D03*
D29*
X117250000Y-91500000D03*
D22*
X109650000Y-92800000D03*
X109000000Y-92800000D03*
X108350000Y-92800000D03*
X108350000Y-94700000D03*
X109000000Y-94700000D03*
X109650000Y-94700000D03*
D17*
X112485000Y-96000000D03*
X111515000Y-96000000D03*
D16*
X114515000Y-91500000D03*
X115485000Y-91500000D03*
X105515000Y-91500000D03*
X106485000Y-91500000D03*
X108515000Y-91500000D03*
X109485000Y-91500000D03*
D17*
X109485000Y-96000000D03*
X108515000Y-96000000D03*
D16*
X111515000Y-91500000D03*
X112485000Y-91500000D03*
D29*
X120250000Y-92550000D03*
D30*
X120750000Y-92550000D03*
X121250000Y-92550000D03*
D29*
X121750000Y-92550000D03*
X121750000Y-91550000D03*
D30*
X121250000Y-91550000D03*
X120750000Y-91550000D03*
D29*
X120250000Y-91550000D03*
D22*
X115650000Y-99800000D03*
X115000000Y-99800000D03*
X114350000Y-99800000D03*
X114350000Y-101700000D03*
X115000000Y-101700000D03*
X115650000Y-101700000D03*
D13*
X158650000Y-109150000D03*
X157150000Y-109150000D03*
D15*
X157150000Y-104050000D03*
D13*
X158650000Y-104050000D03*
D58*
X132790000Y-65150000D03*
X127010000Y-65150000D03*
D59*
X133150000Y-66595000D03*
X132350000Y-66595000D03*
D60*
X131150000Y-66595000D03*
X130150000Y-66595000D03*
X129650000Y-66595000D03*
X128650000Y-66595000D03*
D59*
X126650000Y-66595000D03*
X127450000Y-66595000D03*
D60*
X128150000Y-66595000D03*
X129150000Y-66595000D03*
X130650000Y-66595000D03*
X131650000Y-66595000D03*
D61*
X134220000Y-65680000D03*
X125580000Y-65680000D03*
X134220000Y-61500000D03*
X125580000Y-61500000D03*
D17*
X115485000Y-103000000D03*
X114515000Y-103000000D03*
D62*
X157575000Y-97075000D03*
D63*
X157575000Y-97925000D03*
X157575000Y-98775000D03*
D62*
X157575000Y-99625000D03*
D64*
X140775000Y-117775000D03*
D65*
X139925000Y-117775000D03*
X139075000Y-117775000D03*
D64*
X138225000Y-117775000D03*
X121575000Y-117775000D03*
D65*
X120725000Y-117775000D03*
X119875000Y-117775000D03*
D64*
X119025000Y-117775000D03*
D66*
X102225000Y-99625000D03*
D63*
X102225000Y-98775000D03*
X102225000Y-97925000D03*
D66*
X102225000Y-97075000D03*
X102225000Y-83125000D03*
D63*
X102225000Y-82275000D03*
X102225000Y-81425000D03*
D66*
X102225000Y-80575000D03*
D67*
X119025000Y-62425000D03*
D65*
X119875000Y-62425000D03*
X120725000Y-62425000D03*
D67*
X121575000Y-62425000D03*
X138225000Y-62425000D03*
D65*
X139075000Y-62425000D03*
X139925000Y-62425000D03*
D67*
X140775000Y-62425000D03*
D68*
X151500000Y-92750000D03*
D69*
X151500000Y-93250000D03*
X151500000Y-93750000D03*
D68*
X151500000Y-94250000D03*
X152500000Y-94250000D03*
D69*
X152500000Y-93750000D03*
X152500000Y-93250000D03*
D68*
X152500000Y-92750000D03*
D52*
X118250000Y-108250000D03*
D53*
X118250000Y-107750000D03*
X118250000Y-107250000D03*
D52*
X118250000Y-106750000D03*
X117250000Y-106750000D03*
D53*
X117250000Y-107250000D03*
X117250000Y-107750000D03*
D52*
X117250000Y-108250000D03*
D17*
X115485000Y-96000000D03*
X114515000Y-96000000D03*
D51*
X114050000Y-84250000D03*
X115450000Y-84250000D03*
D48*
X117000000Y-85855000D03*
X116000000Y-85855000D03*
X116500000Y-87145000D03*
D70*
X141100000Y-65500000D03*
D71*
X141187500Y-67000000D03*
D70*
X141100000Y-68500000D03*
D24*
X110480000Y-73000000D03*
X109520000Y-73000000D03*
D17*
X108235000Y-73000000D03*
X107265000Y-73000000D03*
D45*
X114250000Y-85800000D03*
X114250000Y-87200000D03*
D72*
X110100000Y-81950000D03*
X110100000Y-81000000D03*
X110100000Y-80050000D03*
X107900000Y-80050000D03*
X107900000Y-81950000D03*
D52*
X146250000Y-102500000D03*
D53*
X146250000Y-102000000D03*
X146250000Y-101500000D03*
D52*
X146250000Y-101000000D03*
X145250000Y-101000000D03*
D53*
X145250000Y-101500000D03*
X145250000Y-102000000D03*
D52*
X145250000Y-102500000D03*
X146250000Y-99750000D03*
D53*
X146250000Y-99250000D03*
X146250000Y-98750000D03*
D52*
X146250000Y-98250000D03*
X145250000Y-98250000D03*
D53*
X145250000Y-98750000D03*
X145250000Y-99250000D03*
D52*
X145250000Y-99750000D03*
D72*
X117150000Y-69550000D03*
X117150000Y-70500000D03*
X117150000Y-71450000D03*
X119350000Y-71450000D03*
X119350000Y-69550000D03*
D26*
X144250000Y-81015000D03*
X144250000Y-81985000D03*
D18*
X157520000Y-94500000D03*
X158480000Y-94500000D03*
D13*
X158650000Y-92650000D03*
X157150000Y-92650000D03*
D15*
X157150000Y-87550000D03*
D13*
X158650000Y-87550000D03*
D18*
X142270000Y-84500000D03*
X143230000Y-84500000D03*
D73*
X142095000Y-93600000D03*
X143365000Y-93600000D03*
X144635000Y-93600000D03*
X145905000Y-93600000D03*
X145905000Y-85900000D03*
X144635000Y-85900000D03*
X143365000Y-85900000D03*
X142095000Y-85900000D03*
D46*
X154500000Y-87260000D03*
X154500000Y-86240000D03*
D27*
X139260000Y-86000000D03*
X138240000Y-86000000D03*
D74*
X135500000Y-99855000D03*
X134500000Y-99855000D03*
X135000000Y-101145000D03*
D18*
X105520000Y-110500000D03*
X106480000Y-110500000D03*
D62*
X157575000Y-80575000D03*
D63*
X157575000Y-81425000D03*
X157575000Y-82275000D03*
D62*
X157575000Y-83125000D03*
D27*
X106510000Y-108250000D03*
X105490000Y-108250000D03*
D24*
X148230000Y-83250000D03*
X147270000Y-83250000D03*
D28*
X155956000Y-80800000D03*
X155956000Y-81760000D03*
D24*
X127730000Y-80800000D03*
X126770000Y-80800000D03*
D75*
X150750000Y-106000000D03*
D76*
X150250000Y-106000000D03*
X149750000Y-106000000D03*
D75*
X149250000Y-106000000D03*
X149250000Y-107000000D03*
D76*
X149750000Y-107000000D03*
X150250000Y-107000000D03*
D75*
X150750000Y-107000000D03*
D55*
X151490000Y-96000000D03*
X152510000Y-96000000D03*
D74*
X138000000Y-99855000D03*
X137000000Y-99855000D03*
X137500000Y-101145000D03*
D46*
X132000000Y-95760000D03*
X132000000Y-94740000D03*
D69*
X148650000Y-82000000D03*
X148650000Y-81500000D03*
X148650000Y-81000000D03*
X148650000Y-80500000D03*
X146850000Y-80500000D03*
X146850000Y-81000000D03*
X146850000Y-81500000D03*
X146850000Y-82000000D03*
D77*
X147750000Y-81250000D03*
D25*
X116250000Y-77230000D03*
X116250000Y-76270000D03*
D28*
X137500000Y-74020000D03*
X137500000Y-74980000D03*
D74*
X143500000Y-105105000D03*
X142500000Y-105105000D03*
X143000000Y-106395000D03*
D25*
X127500000Y-101730000D03*
X127500000Y-100770000D03*
D18*
X140020000Y-99250000D03*
X140980000Y-99250000D03*
D68*
X146250000Y-113500000D03*
D69*
X146250000Y-113000000D03*
X146250000Y-112500000D03*
D68*
X146250000Y-112000000D03*
X145250000Y-112000000D03*
D69*
X145250000Y-112500000D03*
X145250000Y-113000000D03*
D68*
X145250000Y-113500000D03*
D28*
X127500000Y-98770000D03*
X127500000Y-99730000D03*
D78*
X125800000Y-100000000D03*
D79*
X125250000Y-98950000D03*
X124750000Y-98950000D03*
X124250000Y-98950000D03*
X123750000Y-98950000D03*
X123250000Y-98950000D03*
X122750000Y-98950000D03*
X122250000Y-98950000D03*
X121750000Y-98950000D03*
X121250000Y-98950000D03*
X120750000Y-98950000D03*
D78*
X120200000Y-100000000D03*
X120200000Y-101500000D03*
D79*
X120750000Y-102550000D03*
X121250000Y-102550000D03*
X121750000Y-102550000D03*
X122250000Y-102550000D03*
X122750000Y-102550000D03*
X123250000Y-102550000D03*
X123750000Y-102550000D03*
X124250000Y-102550000D03*
X124750000Y-102550000D03*
X125250000Y-102550000D03*
D78*
X125800000Y-101500000D03*
D80*
X123000000Y-100750000D03*
D81*
X136855000Y-105250000D03*
X136855000Y-106250000D03*
X138145000Y-105750000D03*
D24*
X146980000Y-73750000D03*
X146020000Y-73750000D03*
D18*
X150270000Y-79250000D03*
X151230000Y-79250000D03*
D68*
X145250000Y-109000000D03*
D69*
X145250000Y-109500000D03*
X145250000Y-110000000D03*
D68*
X145250000Y-110500000D03*
X146250000Y-110500000D03*
D69*
X146250000Y-110000000D03*
X146250000Y-109500000D03*
D68*
X146250000Y-109000000D03*
D55*
X150490000Y-73750000D03*
X151510000Y-73750000D03*
D25*
X143000000Y-74980000D03*
X143000000Y-74020000D03*
D74*
X130000000Y-99855000D03*
X129000000Y-99855000D03*
X129500000Y-101145000D03*
D36*
X124250000Y-69740000D03*
X124250000Y-70760000D03*
D82*
X124750000Y-109700000D03*
X124750000Y-108300000D03*
D68*
X114750000Y-113500000D03*
D69*
X114750000Y-113000000D03*
X114750000Y-112500000D03*
D68*
X114750000Y-112000000D03*
X113750000Y-112000000D03*
D69*
X113750000Y-112500000D03*
X113750000Y-113000000D03*
D68*
X113750000Y-113500000D03*
D24*
X124230000Y-88400000D03*
X123270000Y-88400000D03*
D27*
X149260000Y-73750000D03*
X148240000Y-73750000D03*
D83*
X127089411Y-94910589D03*
X126410589Y-95589411D03*
D74*
X143500000Y-99855000D03*
X142500000Y-99855000D03*
X143000000Y-101145000D03*
D84*
X117862500Y-75550000D03*
X117862500Y-76500000D03*
X117862500Y-77450000D03*
X120137500Y-77450000D03*
X120137500Y-76500000D03*
X120137500Y-75550000D03*
D69*
X131350000Y-105000000D03*
X131350000Y-105500000D03*
X131350000Y-106000000D03*
X131350000Y-106500000D03*
X133150000Y-106500000D03*
X133150000Y-106000000D03*
X133150000Y-105500000D03*
X133150000Y-105000000D03*
D77*
X132250000Y-105750000D03*
D68*
X113750000Y-109000000D03*
D69*
X113750000Y-109500000D03*
X113750000Y-110000000D03*
D68*
X113750000Y-110500000D03*
X114750000Y-110500000D03*
D69*
X114750000Y-110000000D03*
X114750000Y-109500000D03*
D68*
X114750000Y-109000000D03*
D81*
X128855000Y-105250000D03*
X128855000Y-106250000D03*
X130145000Y-105750000D03*
D69*
X139350000Y-100500000D03*
X139350000Y-101000000D03*
X139350000Y-101500000D03*
X139350000Y-102000000D03*
X141150000Y-102000000D03*
X141150000Y-101500000D03*
X141150000Y-101000000D03*
X141150000Y-100500000D03*
D77*
X140250000Y-101250000D03*
D69*
X131350000Y-100500000D03*
X131350000Y-101000000D03*
X131350000Y-101500000D03*
X131350000Y-102000000D03*
X133150000Y-102000000D03*
X133150000Y-101500000D03*
X133150000Y-101000000D03*
X133150000Y-100500000D03*
D77*
X132250000Y-101250000D03*
D85*
X114500000Y-77450000D03*
X114500000Y-75550000D03*
D75*
X109250000Y-115500000D03*
D76*
X109750000Y-115500000D03*
X110250000Y-115500000D03*
D75*
X110750000Y-115500000D03*
X110750000Y-114500000D03*
D76*
X110250000Y-114500000D03*
X109750000Y-114500000D03*
D75*
X109250000Y-114500000D03*
D68*
X148100000Y-87550000D03*
D69*
X148100000Y-88050000D03*
X148100000Y-88550000D03*
D68*
X148100000Y-89050000D03*
X149100000Y-89050000D03*
D69*
X149100000Y-88550000D03*
X149100000Y-88050000D03*
D68*
X149100000Y-87550000D03*
D86*
X126303500Y-83950000D03*
X126303500Y-84350000D03*
X126303500Y-84750000D03*
X126303500Y-85150000D03*
X126303500Y-85550000D03*
X126303500Y-85950000D03*
X126303500Y-86350000D03*
X126303500Y-86750000D03*
X126303500Y-87150000D03*
X126303500Y-87550000D03*
X126303500Y-87950000D03*
X126303500Y-88350000D03*
X126303500Y-88750000D03*
X126303500Y-89150000D03*
X126303500Y-89550000D03*
X126303500Y-89950000D03*
X126303500Y-90350000D03*
X126303500Y-90750000D03*
X126303500Y-91150000D03*
X126303500Y-91550000D03*
D87*
X127400000Y-92646500D03*
X127800000Y-92646500D03*
X128200000Y-92646500D03*
X128600000Y-92646500D03*
X129000000Y-92646500D03*
X129400000Y-92646500D03*
X129800000Y-92646500D03*
X130200000Y-92646500D03*
X130600000Y-92646500D03*
X131000000Y-92646500D03*
X131400000Y-92646500D03*
X131800000Y-92646500D03*
X132200000Y-92646500D03*
X132600000Y-92646500D03*
X133000000Y-92646500D03*
X133400000Y-92646500D03*
X133800000Y-92646500D03*
X134200000Y-92646500D03*
X134600000Y-92646500D03*
X135000000Y-92646500D03*
D86*
X136096500Y-91550000D03*
X136096500Y-91150000D03*
X136096500Y-90750000D03*
X136096500Y-90350000D03*
X136096500Y-89950000D03*
X136096500Y-89550000D03*
X136096500Y-89150000D03*
X136096500Y-88750000D03*
X136096500Y-88350000D03*
X136096500Y-87950000D03*
X136096500Y-87550000D03*
X136096500Y-87150000D03*
X136096500Y-86750000D03*
X136096500Y-86350000D03*
X136096500Y-85950000D03*
X136096500Y-85550000D03*
X136096500Y-85150000D03*
X136096500Y-84750000D03*
X136096500Y-84350000D03*
X136096500Y-83950000D03*
D87*
X135000000Y-82853500D03*
X134600000Y-82853500D03*
X134200000Y-82853500D03*
X133800000Y-82853500D03*
X133400000Y-82853500D03*
X133000000Y-82853500D03*
X132600000Y-82853500D03*
X132200000Y-82853500D03*
X131800000Y-82853500D03*
X131400000Y-82853500D03*
X131000000Y-82853500D03*
X130600000Y-82853500D03*
X130200000Y-82853500D03*
X129800000Y-82853500D03*
X129400000Y-82853500D03*
X129000000Y-82853500D03*
X128600000Y-82853500D03*
X128200000Y-82853500D03*
X127800000Y-82853500D03*
X127400000Y-82853500D03*
D88*
X130066667Y-86616667D03*
D89*
X130066667Y-86616667D03*
D88*
X130066667Y-87750000D03*
D89*
X130066667Y-87750000D03*
D88*
X130066667Y-88883333D03*
D89*
X130066667Y-88883333D03*
D88*
X131200000Y-86616667D03*
D89*
X131200000Y-86616667D03*
D88*
X131200000Y-87750000D03*
D89*
X131200000Y-87750000D03*
D88*
X131200000Y-88883333D03*
D89*
X131200000Y-88883333D03*
D88*
X132333333Y-86616667D03*
D89*
X132333333Y-86616667D03*
D88*
X132333333Y-87750000D03*
D89*
X132333333Y-87750000D03*
D88*
X132333333Y-88883333D03*
D89*
X132333333Y-88883333D03*
D55*
X150240000Y-83250000D03*
X151260000Y-83250000D03*
D18*
X130520000Y-71000000D03*
X131480000Y-71000000D03*
D75*
X150750000Y-114500000D03*
D76*
X150250000Y-114500000D03*
X149750000Y-114500000D03*
D75*
X149250000Y-114500000D03*
X149250000Y-115500000D03*
D76*
X149750000Y-115500000D03*
X150250000Y-115500000D03*
D75*
X150750000Y-115500000D03*
D69*
X139350000Y-105000000D03*
X139350000Y-105500000D03*
X139350000Y-106000000D03*
X139350000Y-106500000D03*
X141150000Y-106500000D03*
X141150000Y-106000000D03*
X141150000Y-105500000D03*
X141150000Y-105000000D03*
D77*
X140250000Y-105750000D03*
D82*
X138750000Y-109700000D03*
X138750000Y-108300000D03*
D55*
X150240000Y-84750000D03*
X151260000Y-84750000D03*
D90*
X108750000Y-112685000D03*
X109250000Y-112685000D03*
X109750000Y-112685000D03*
X110250000Y-112685000D03*
X110750000Y-112685000D03*
X111250000Y-112685000D03*
D91*
X111935000Y-112000000D03*
X111935000Y-111500000D03*
X111935000Y-111000000D03*
X111935000Y-110500000D03*
X111935000Y-110000000D03*
X111935000Y-109500000D03*
D90*
X111250000Y-108815000D03*
X110750000Y-108815000D03*
X110250000Y-108815000D03*
X109750000Y-108815000D03*
X109250000Y-108815000D03*
X108750000Y-108815000D03*
D91*
X108065000Y-109500000D03*
X108065000Y-110000000D03*
X108065000Y-110500000D03*
X108065000Y-111000000D03*
X108065000Y-111500000D03*
X108065000Y-112000000D03*
D92*
X110000000Y-110750000D03*
D36*
X155750000Y-99490000D03*
X155750000Y-100510000D03*
D74*
X135500000Y-105105000D03*
X134500000Y-105105000D03*
X135000000Y-106395000D03*
D82*
X122750000Y-109700000D03*
X122750000Y-108300000D03*
D75*
X109250000Y-107000000D03*
D76*
X109750000Y-107000000D03*
X110250000Y-107000000D03*
D75*
X110750000Y-107000000D03*
X110750000Y-106000000D03*
D76*
X110250000Y-106000000D03*
X109750000Y-106000000D03*
D75*
X109250000Y-106000000D03*
D93*
X151395000Y-81750000D03*
X151395000Y-80750000D03*
X150105000Y-81250000D03*
D36*
X136750000Y-79740000D03*
X136750000Y-80760000D03*
D84*
X117862500Y-80050000D03*
X117862500Y-81000000D03*
X117862500Y-81950000D03*
X120137500Y-81950000D03*
X120137500Y-81000000D03*
X120137500Y-80050000D03*
D27*
X139260000Y-85000000D03*
X138240000Y-85000000D03*
D24*
X154480000Y-110000000D03*
X153520000Y-110000000D03*
D94*
X151450000Y-75562500D03*
X149550000Y-75562500D03*
X150500000Y-77437500D03*
D85*
X114500000Y-81950000D03*
X114500000Y-80050000D03*
D18*
X132020000Y-99250000D03*
X132980000Y-99250000D03*
D82*
X136750000Y-109700000D03*
X136750000Y-108300000D03*
X126750000Y-109700000D03*
X126750000Y-108300000D03*
D18*
X132020000Y-103750000D03*
X132980000Y-103750000D03*
D36*
X144250000Y-76740000D03*
X144250000Y-77760000D03*
D25*
X116250000Y-82230000D03*
X116250000Y-81270000D03*
D94*
X147700000Y-75562500D03*
X145800000Y-75562500D03*
X146750000Y-77437500D03*
D27*
X154510000Y-108750000D03*
X153490000Y-108750000D03*
D25*
X135750000Y-80730000D03*
X135750000Y-79770000D03*
D95*
X141200000Y-73362500D03*
X140250000Y-73362500D03*
X139300000Y-73362500D03*
X139300000Y-75637500D03*
X141200000Y-75637500D03*
D96*
X151250000Y-108815000D03*
X150750000Y-108815000D03*
X150250000Y-108815000D03*
X149750000Y-108815000D03*
X149250000Y-108815000D03*
X148750000Y-108815000D03*
D97*
X148065000Y-109500000D03*
X148065000Y-110000000D03*
X148065000Y-110500000D03*
X148065000Y-111000000D03*
X148065000Y-111500000D03*
X148065000Y-112000000D03*
D96*
X148750000Y-112685000D03*
X149250000Y-112685000D03*
X149750000Y-112685000D03*
X150250000Y-112685000D03*
X150750000Y-112685000D03*
X151250000Y-112685000D03*
D97*
X151935000Y-112000000D03*
X151935000Y-111500000D03*
X151935000Y-111000000D03*
X151935000Y-110500000D03*
X151935000Y-110000000D03*
X151935000Y-109500000D03*
D98*
X150000000Y-110750000D03*
D82*
X134750000Y-109700000D03*
X134750000Y-108300000D03*
D18*
X105520000Y-111600000D03*
X106480000Y-111600000D03*
D24*
X128980000Y-69500000D03*
X128020000Y-69500000D03*
D82*
X128750000Y-109700000D03*
X128750000Y-108300000D03*
D25*
X132500000Y-80730000D03*
X132500000Y-79770000D03*
D82*
X130750000Y-109700000D03*
X130750000Y-108300000D03*
D24*
X154480000Y-111250000D03*
X153520000Y-111250000D03*
D82*
X132750000Y-109700000D03*
X132750000Y-108300000D03*
D18*
X140020000Y-103750000D03*
X140980000Y-103750000D03*
D68*
X130000000Y-104000000D03*
D69*
X130000000Y-103500000D03*
X130000000Y-103000000D03*
D68*
X130000000Y-102500000D03*
X129000000Y-102500000D03*
D69*
X129000000Y-103000000D03*
X129000000Y-103500000D03*
D68*
X129000000Y-104000000D03*
D99*
X125825000Y-70750000D03*
X125825000Y-71250000D03*
X125825000Y-71750000D03*
X125825000Y-72250000D03*
X128675000Y-72250000D03*
X128675000Y-71750000D03*
X128675000Y-71250000D03*
X128675000Y-70750000D03*
D100*
X127250000Y-71500000D03*
D46*
X155750000Y-98510000D03*
X155750000Y-97490000D03*
D18*
X138270000Y-92750000D03*
X139230000Y-92750000D03*
D68*
X138000000Y-104000000D03*
D69*
X138000000Y-103500000D03*
X138000000Y-103000000D03*
D68*
X138000000Y-102500000D03*
X137000000Y-102500000D03*
D69*
X137000000Y-103000000D03*
X137000000Y-103500000D03*
D68*
X137000000Y-104000000D03*
D34*
X118470000Y-112220000D03*
D35*
X121010000Y-112220000D03*
X123550000Y-112220000D03*
X126090000Y-112220000D03*
X128630000Y-112220000D03*
X131170000Y-112220000D03*
X133710000Y-112220000D03*
X136250000Y-112220000D03*
X138790000Y-112220000D03*
X141330000Y-112220000D03*
M02*
