G04 #@! TF.GenerationSoftware,KiCad,Pcbnew,8.0.6*
G04 #@! TF.CreationDate,2024-11-01T16:37:01+01:00*
G04 #@! TF.ProjectId,7-REV0,372d5245-5630-42e6-9b69-6361645f7063,rev?*
G04 #@! TF.SameCoordinates,Original*
G04 #@! TF.FileFunction,Profile,NP*
%FSLAX46Y46*%
G04 Gerber Fmt 4.6, Leading zero omitted, Abs format (unit mm)*
G04 Created by KiCad (PCBNEW 8.0.6) date 2024-11-01 16:37:01*
%MOMM*%
%LPD*%
G01*
G04 APERTURE LIST*
G04 #@! TA.AperFunction,Profile*
%ADD10C,0.050000*%
G04 #@! TD*
G04 #@! TA.AperFunction,Profile*
%ADD11C,0.120000*%
G04 #@! TD*
G04 APERTURE END LIST*
D10*
X103900000Y-120100000D02*
G75*
G02*
X99900000Y-116100000I0J4000000D01*
G01*
X156900000Y-116100000D02*
G75*
G02*
X154900000Y-116100000I-1000000J0D01*
G01*
X154900000Y-116100000D02*
G75*
G02*
X156900000Y-116100000I1000000J0D01*
G01*
X104900000Y-64100000D02*
G75*
G02*
X102900000Y-64100000I-1000000J0D01*
G01*
X102900000Y-64100000D02*
G75*
G02*
X104900000Y-64100000I1000000J0D01*
G01*
X104900000Y-116100000D02*
G75*
G02*
X102900000Y-116100000I-1000000J0D01*
G01*
X102900000Y-116100000D02*
G75*
G02*
X104900000Y-116100000I1000000J0D01*
G01*
X159900000Y-116100000D02*
G75*
G02*
X155900000Y-120100000I-4000000J0D01*
G01*
X103900000Y-120100000D02*
X155900000Y-120100000D01*
X156900000Y-64100000D02*
G75*
G02*
X154900000Y-64100000I-1000000J0D01*
G01*
X154900000Y-64100000D02*
G75*
G02*
X156900000Y-64100000I1000000J0D01*
G01*
X99900000Y-64100000D02*
X99900000Y-116100000D01*
X159900000Y-116100000D02*
X159900000Y-64100000D01*
X155900000Y-60100000D02*
G75*
G02*
X159900000Y-64100000I0J-4000000D01*
G01*
X99900000Y-64100000D02*
G75*
G02*
X103900000Y-60100000I4000000J0D01*
G01*
X103900000Y-60100000D02*
X155900000Y-60100000D01*
D11*
X111700000Y-63034314D02*
X111700000Y-61165686D01*
X112265686Y-60600000D02*
X114534314Y-60600000D01*
X114534314Y-63600000D02*
X112265686Y-63600000D01*
X115100000Y-61165686D02*
X115100000Y-63034314D01*
X111700000Y-61165686D02*
G75*
G02*
X112265686Y-60600000I282843J282843D01*
G01*
X112265686Y-63600000D02*
G75*
G02*
X111700000Y-63034314I-282843J282843D01*
G01*
X114534314Y-60600000D02*
G75*
G02*
X115100000Y-61165686I282843J-282843D01*
G01*
X115100000Y-63034314D02*
G75*
G02*
X114534314Y-63600000I-282843J-282843D01*
G01*
X144700000Y-119034314D02*
X144700000Y-117165686D01*
X145265686Y-116600000D02*
X147534314Y-116600000D01*
X147534314Y-119600000D02*
X145265686Y-119600000D01*
X148100000Y-117165686D02*
X148100000Y-119034314D01*
X144700000Y-117165686D02*
G75*
G02*
X145265686Y-116600000I282843J282843D01*
G01*
X145265686Y-119600000D02*
G75*
G02*
X144700000Y-119034314I-282843J282843D01*
G01*
X147534314Y-116600000D02*
G75*
G02*
X148100000Y-117165686I282843J-282843D01*
G01*
X148100000Y-119034314D02*
G75*
G02*
X147534314Y-119600000I-282843J-282843D01*
G01*
X100400000Y-107734314D02*
X100400000Y-105465686D01*
X100965686Y-104900000D02*
X102834314Y-104900000D01*
X102834314Y-108300000D02*
X100965686Y-108300000D01*
X103400000Y-105465686D02*
X103400000Y-107734314D01*
X100400000Y-105465686D02*
G75*
G02*
X100965686Y-104900000I282843J282843D01*
G01*
X100965686Y-108300000D02*
G75*
G02*
X100400000Y-107734314I-282843J282843D01*
G01*
X102834314Y-104900000D02*
G75*
G02*
X103400000Y-105465686I282843J-282843D01*
G01*
X103400000Y-107734314D02*
G75*
G02*
X102834314Y-108300000I-282843J-282843D01*
G01*
X144700000Y-63034314D02*
X144700000Y-61165686D01*
X145265686Y-60600000D02*
X147534314Y-60600000D01*
X147534314Y-63600000D02*
X145265686Y-63600000D01*
X148100000Y-61165686D02*
X148100000Y-63034314D01*
X144700000Y-61165686D02*
G75*
G02*
X145265686Y-60600000I282843J282843D01*
G01*
X145265686Y-63600000D02*
G75*
G02*
X144700000Y-63034314I-282843J282843D01*
G01*
X147534314Y-60600000D02*
G75*
G02*
X148100000Y-61165686I282843J-282843D01*
G01*
X148100000Y-63034314D02*
G75*
G02*
X147534314Y-63600000I-282843J-282843D01*
G01*
X156400000Y-74734314D02*
X156400000Y-72465686D01*
X156965686Y-71900000D02*
X158834314Y-71900000D01*
X158834314Y-75300000D02*
X156965686Y-75300000D01*
X159400000Y-72465686D02*
X159400000Y-74734314D01*
X156400000Y-72465686D02*
G75*
G02*
X156965686Y-71900000I282843J282843D01*
G01*
X156965686Y-75300000D02*
G75*
G02*
X156400000Y-74734314I-282843J282843D01*
G01*
X158834314Y-71900000D02*
G75*
G02*
X159400000Y-72465686I282843J-282843D01*
G01*
X159400000Y-74734314D02*
G75*
G02*
X158834314Y-75300000I-282843J-282843D01*
G01*
X111700000Y-119034314D02*
X111700000Y-117165686D01*
X112265686Y-116600000D02*
X114534314Y-116600000D01*
X114534314Y-119600000D02*
X112265686Y-119600000D01*
X115100000Y-117165686D02*
X115100000Y-119034314D01*
X111700000Y-117165686D02*
G75*
G02*
X112265686Y-116600000I282843J282843D01*
G01*
X112265686Y-119600000D02*
G75*
G02*
X111700000Y-119034314I-282843J282843D01*
G01*
X114534314Y-116600000D02*
G75*
G02*
X115100000Y-117165686I282843J-282843D01*
G01*
X115100000Y-119034314D02*
G75*
G02*
X114534314Y-119600000I-282843J-282843D01*
G01*
X100400000Y-74734314D02*
X100400000Y-72465686D01*
X100965686Y-71900000D02*
X102834314Y-71900000D01*
X102834314Y-75300000D02*
X100965686Y-75300000D01*
X103400000Y-72465686D02*
X103400000Y-74734314D01*
X100400000Y-72465686D02*
G75*
G02*
X100965686Y-71900000I282843J282843D01*
G01*
X100965686Y-75300000D02*
G75*
G02*
X100400000Y-74734314I-282843J282843D01*
G01*
X102834314Y-71900000D02*
G75*
G02*
X103400000Y-72465686I282843J-282843D01*
G01*
X103400000Y-74734314D02*
G75*
G02*
X102834314Y-75300000I-282843J-282843D01*
G01*
X100400000Y-91234314D02*
X100400000Y-88965686D01*
X100965686Y-88400000D02*
X102834314Y-88400000D01*
X102834314Y-91800000D02*
X100965686Y-91800000D01*
X103400000Y-88965686D02*
X103400000Y-91234314D01*
X100400000Y-88965686D02*
G75*
G02*
X100965686Y-88400000I282843J282843D01*
G01*
X100965686Y-91800000D02*
G75*
G02*
X100400000Y-91234314I-282843J282843D01*
G01*
X102834314Y-88400000D02*
G75*
G02*
X103400000Y-88965686I282843J-282843D01*
G01*
X103400000Y-91234314D02*
G75*
G02*
X102834314Y-91800000I-282843J-282843D01*
G01*
X156400000Y-107734314D02*
X156400000Y-105465686D01*
X156965686Y-104900000D02*
X158834314Y-104900000D01*
X158834314Y-108300000D02*
X156965686Y-108300000D01*
X159400000Y-105465686D02*
X159400000Y-107734314D01*
X156400000Y-105465686D02*
G75*
G02*
X156965686Y-104900000I282843J282843D01*
G01*
X156965686Y-108300000D02*
G75*
G02*
X156400000Y-107734314I-282843J282843D01*
G01*
X158834314Y-104900000D02*
G75*
G02*
X159400000Y-105465686I282843J-282843D01*
G01*
X159400000Y-107734314D02*
G75*
G02*
X158834314Y-108300000I-282843J-282843D01*
G01*
X156400000Y-91234314D02*
X156400000Y-88965686D01*
X156965686Y-88400000D02*
X158834314Y-88400000D01*
X158834314Y-91800000D02*
X156965686Y-91800000D01*
X159400000Y-88965686D02*
X159400000Y-91234314D01*
X156400000Y-88965686D02*
G75*
G02*
X156965686Y-88400000I282843J282843D01*
G01*
X156965686Y-91800000D02*
G75*
G02*
X156400000Y-91234314I-282843J282843D01*
G01*
X158834314Y-88400000D02*
G75*
G02*
X159400000Y-88965686I282843J-282843D01*
G01*
X159400000Y-91234314D02*
G75*
G02*
X158834314Y-91800000I-282843J-282843D01*
G01*
M02*
