M48
; DRILL file {KiCad 7.0.7} date Sun Nov 26 14:09:32 2023
; FORMAT={-:-/ absolute / metric / decimal}
; #@! TF.CreationDate,2023-11-26T14:09:32+01:00
; #@! TF.GenerationSoftware,Kicad,Pcbnew,7.0.7
; #@! TF.FileFunction,Plated,1,4,PTH
FMAT,2
METRIC
; #@! TA.AperFunction,Plated,PTH,ViaDrill
T1C0.350
; #@! TA.AperFunction,Plated,PTH,ComponentDrill
T2C0.350
; #@! TA.AperFunction,Plated,PTH,ComponentDrill
T3C0.650
; #@! TA.AperFunction,Plated,PTH,ComponentDrill
T4C1.000
%
G90
G05
T1
X101.15Y-69.25
X101.4Y-84.7
X101.4Y-94.2
X101.4Y-101.2
X101.45Y-77.7
X102.4Y-68.3
X102.5Y-84.7
X102.5Y-94.2
X102.5Y-101.2
X102.6Y-77.6
X103.236Y-110.599
X103.3Y-112.05
X104.0Y-69.8
X104.154Y-84.836
X105.15Y-69.05
X105.373Y-81.356
X105.4Y-105.1
X105.45Y-103.2
X105.5Y-94.05
X105.5Y-100.35
X105.8Y-70.5
X105.85Y-71.75
X106.0Y-69.05
X106.15Y-100.95
X106.172Y-108.204
X106.25Y-97.65
X106.3Y-75.1
X106.3Y-76.0
X106.4Y-103.2
X106.542Y-87.35
X106.761Y-95.504
X107.05Y-84.7
X107.188Y-96.52
X107.25Y-103.2
X107.263Y-94.875
X107.269Y-93.98
X107.44Y-99.09
X107.55Y-62.75
X107.7Y-72.85
X107.75Y-80.75
X107.765Y-76.515
X107.8Y-71.65
X107.812Y-87.299
X107.85Y-105.2
X108.1Y-117.6
X108.204Y-111.76
X108.3Y-96.6
X108.45Y-100.95
X108.6Y-103.2
X108.657Y-91.977
X108.9Y-89.1
X109.05Y-82.2
X109.1Y-96.1
X109.1Y-106.2
X109.22Y-65.532
X109.35Y-100.95
X109.4Y-74.35
X109.45Y-118.9
X109.5Y-103.2
X109.6Y-90.1
X109.65Y-63.95
X109.65Y-115.9
X109.7Y-96.7
X109.8Y-107.1
X109.9Y-89.1
X110.031Y-81.915
X110.1Y-69.7
X110.3Y-81.1
X110.3Y-96.1
X110.3Y-107.7
X110.35Y-103.2
X110.8Y-74.65
X111.0Y-64.25
X111.1Y-105.2
X111.1Y-106.2
X111.252Y-85.344
X111.3Y-88.25
X111.32Y-97.0
X111.33Y-94.0
X111.5Y-100.9
X111.65Y-103.3
X111.9Y-78.1
X112.085Y-80.124
X112.137Y-94.0
X112.2Y-97.0
X112.286Y-105.2
X112.384Y-106.227
X112.4Y-101.05
X112.5Y-87.2
X112.55Y-103.3
X112.6Y-76.3
X112.7Y-115.95
X112.8Y-89.8
X112.943Y-94.0
X112.95Y-107.6
X112.95Y-108.8
X113.018Y-97.0
X113.15Y-80.2
X113.4Y-103.3
X113.45Y-67.6
X113.45Y-68.65
X113.6Y-107.1
X113.6Y-108.3
X113.75Y-94.0
X113.792Y-87.884
X113.87Y-97.0
X114.153Y-109.803
X114.25Y-103.25
X114.45Y-116.05
X114.5Y-72.65
X114.537Y-84.703
X114.55Y-81.9
X114.55Y-100.95
X114.737Y-98.74
X114.76Y-65.94
X114.864Y-110.6
X115.0Y-78.65
X115.1Y-76.5
X115.1Y-103.25
X115.152Y-99.792
X115.197Y-87.975
X115.22Y-70.86
X115.316Y-115.824
X115.35Y-101.3
X115.469Y-90.159
X115.563Y-111.029
X115.604Y-85.782
X115.7Y-64.25
X115.75Y-67.6
X115.824Y-112.776
X115.95Y-103.25
X116.05Y-81.65
X116.1Y-72.68
X116.15Y-71.7
X116.15Y-80.25
X116.237Y-107.221
X116.25Y-105.35
X116.25Y-116.1
X116.5Y-64.0
X116.6Y-75.2
X116.976Y-107.721
X117.0Y-95.75
X117.072Y-104.843
X117.4Y-66.0
X117.538Y-108.326
X117.6Y-70.9
X117.8Y-95.15
X117.815Y-104.481
X117.976Y-109.02
X118.05Y-86.482
X118.11Y-118.5
X118.342Y-98.107
X118.364Y-66.04
X118.5Y-80.25
X118.5Y-84.4
X118.6Y-76.95
X118.65Y-61.35
X118.8Y-81.45
X118.872Y-88.392
X119.38Y-86.868
X119.388Y-96.012
X119.56Y-100.145
X119.65Y-76.95
X119.65Y-94.8
X119.888Y-116.3
X120.05Y-82.35
X120.05Y-84.5
X120.075Y-85.7
X120.121Y-103.363
X120.55Y-81.5
X120.572Y-95.725
X120.6Y-70.2
X120.85Y-76.45
X120.9Y-66.35
X120.912Y-94.996
X121.3Y-82.1
X121.356Y-106.102
X121.412Y-115.316
X121.7Y-96.52
X121.85Y-69.2
X121.9Y-63.5
X121.9Y-67.6
X121.9Y-68.4
X121.92Y-103.352
X121.932Y-101.087
X121.976Y-108.988
X122.05Y-84.2
X122.1Y-75.2
X122.4Y-93.6
X122.428Y-65.532
X122.428Y-106.68
X122.647Y-90.703
X122.914Y-94.376
X123.05Y-62.45
X123.05Y-71.35
X123.05Y-85.05
X123.1Y-73.55
X123.55Y-114.4
X123.6Y-93.6
X123.7Y-117.5
X123.85Y-76.45
X123.85Y-81.45
X124.0Y-66.2
X124.0Y-96.424
X124.05Y-82.88
X124.124Y-88.721
X124.164Y-100.609
X124.2Y-63.0
X124.3Y-85.15
X124.46Y-61.468
X124.6Y-82.0
X124.63Y-83.62
X124.742Y-92.45
X124.85Y-75.5
X124.882Y-91.282
X124.9Y-67.8
X124.9Y-68.5
X124.9Y-69.2
X124.9Y-85.7
X125.1Y-93.8
X125.251Y-100.342
X125.3Y-79.1
X125.85Y-117.45
X125.877Y-102.866
X125.9Y-75.5
X125.9Y-78.5
X126.1Y-85.35
X126.1Y-90.95
X126.15Y-68.1
X126.2Y-95.0
X126.45Y-119.25
X126.7Y-88.35
X126.8Y-90.0
X126.85Y-73.9
X126.85Y-75.5
X126.85Y-82.75
X126.88Y-78.38
X126.9Y-85.95
X127.0Y-61.468
X127.05Y-87.55
X127.1Y-68.75
X127.125Y-96.225
X127.15Y-117.45
X127.198Y-94.421
X127.45Y-86.6
X127.464Y-102.465
X127.7Y-83.65
X127.763Y-99.902
X127.8Y-119.25
X127.85Y-70.5
X127.9Y-89.3
X127.9Y-105.55
X128.112Y-102.941
X128.25Y-113.5
X128.3Y-84.2
X128.4Y-63.8
X128.425Y-96.925
X128.45Y-117.45
X128.524Y-70.612
X128.524Y-103.632
X128.595Y-89.57
X128.6Y-76.9
X128.6Y-87.7
X128.7Y-90.45
X128.754Y-94.737
X129.0Y-84.85
X129.1Y-73.9
X129.113Y-110.556
X129.15Y-119.25
X129.35Y-89.65
X129.42Y-76.82
X129.535Y-95.195
X129.85Y-63.7
X129.9Y-73.9
X129.9Y-85.3
X129.9Y-117.45
X130.05Y-96.89
X130.15Y-79.4
X130.248Y-102.393
X130.35Y-105.45
X130.375Y-99.568
X130.55Y-84.8
X130.6Y-119.25
X130.63Y-76.78
X130.7Y-73.9
X131.05Y-87.5
X131.1Y-92.75
X131.188Y-98.774
X131.3Y-84.35
X131.3Y-104.8
X131.35Y-117.45
X131.55Y-102.4
X131.65Y-76.9
X131.68Y-73.92
X131.95Y-119.25
X132.1Y-83.7
X132.15Y-104.35
X132.25Y-87.6
X132.4Y-68.75
X132.588Y-61.468
X132.7Y-117.45
X132.85Y-70.15
X132.85Y-73.3
X132.85Y-77.15
X133.3Y-119.25
X133.35Y-82.45
X133.45Y-77.75
X133.463Y-105.734
X133.9Y-117.45
X134.1Y-73.2
X134.1Y-75.45
X134.2Y-67.35
X134.3Y-77.5
X134.419Y-87.372
X134.45Y-70.7
X134.75Y-79.7
X134.77Y-104.188
X134.8Y-114.35
X134.9Y-86.578
X134.95Y-82.95
X135.0Y-115.65
X135.05Y-111.14
X135.5Y-67.35
X135.636Y-60.96
X135.636Y-96.996
X135.8Y-63.0
X135.8Y-66.1
X135.8Y-82.6
X135.95Y-70.9
X136.0Y-80.4
X136.153Y-100.584
X136.55Y-119.0
X136.7Y-63.65
X136.7Y-79.8
X136.75Y-70.9
X136.95Y-67.65
X137.0Y-66.2
X137.05Y-84.85
X137.073Y-109.62
X137.337Y-103.205
X137.4Y-83.95
X137.468Y-81.162
X137.55Y-70.9
X137.55Y-73.6
X137.922Y-80.391
X137.973Y-106.583
X138.0Y-116.7
X138.1Y-78.9
X138.1Y-86.8
X138.35Y-66.45
X138.35Y-67.6
X138.35Y-70.9
X138.4Y-74.2
X138.431Y-84.557
X139.0Y-61.2
X139.05Y-118.9
X139.15Y-70.9
X139.2Y-113.6
X139.25Y-74.1
X139.639Y-105.227
X139.7Y-79.248
X139.7Y-86.868
X139.85Y-76.15
X139.9Y-64.7
X139.9Y-65.6
X139.9Y-66.5
X139.9Y-69.45
X139.9Y-70.9
X140.208Y-104.648
X140.208Y-106.172
X140.208Y-111.13
X140.491Y-103.205
X140.65Y-80.25
X140.716Y-84.2
X140.716Y-115.545
X140.749Y-96.226
X140.8Y-98.55
X140.9Y-83.225
X141.0Y-82.296
X141.05Y-67.35
X141.05Y-68.1
X141.05Y-70.7
X141.1Y-72.05
X141.15Y-119.45
X141.224Y-114.808
X141.294Y-85.325
X141.296Y-113.864
X141.3Y-64.7
X141.3Y-110.8
X141.401Y-109.122
X141.75Y-75.85
X141.75Y-90.572
X141.95Y-70.7
X142.0Y-108.5
X142.028Y-97.536
X142.1Y-61.9
X142.18Y-104.171
X142.35Y-73.55
X142.4Y-118.8
X142.446Y-93.828
X142.6Y-98.552
X142.6Y-107.806
X142.65Y-63.75
X142.65Y-64.7
X142.7Y-90.725
X142.8Y-70.7
X142.843Y-113.055
X142.95Y-82.1
X142.979Y-104.262
X143.256Y-76.708
X143.256Y-114.808
X143.35Y-87.325
X143.4Y-107.188
X143.5Y-116.3
X143.51Y-111.76
X143.695Y-84.569
X143.7Y-98.6
X143.7Y-105.9
X143.75Y-64.7
X143.764Y-88.375
X143.9Y-100.45
X143.963Y-110.961
X144.1Y-103.15
X144.175Y-90.55
X144.2Y-89.775
X144.55Y-75.75
X144.567Y-88.423
X144.6Y-100.9
X144.65Y-73.5
X144.7Y-104.9
X144.78Y-115.316
X144.841Y-102.836
X144.864Y-110.299
X144.9Y-70.8
X144.9Y-71.9
X144.92Y-65.57
X144.95Y-64.7
X144.95Y-66.5
X145.118Y-79.248
X145.85Y-104.95
X145.9Y-70.8
X145.9Y-71.9
X145.9Y-85.3
X146.0Y-107.7
X146.017Y-108.915
X146.7Y-80.1
X146.7Y-105.9
X146.751Y-107.021
X146.8Y-96.8
X146.85Y-87.75
X146.85Y-100.3
X146.85Y-103.1
X146.9Y-84.45
X146.9Y-108.2
X146.95Y-73.5
X147.15Y-66.55
X147.15Y-67.6
X147.5Y-100.85
X147.5Y-104.75
X147.574Y-87.2
X147.6Y-93.85
X147.7Y-96.7
X147.817Y-102.824
X147.828Y-72.644
X147.828Y-89.916
X148.25Y-78.7
X148.27Y-96.13
X148.35Y-81.6
X148.4Y-86.3
X148.5Y-104.7
X148.55Y-76.3
X148.844Y-87.249
X148.95Y-93.85
X149.0Y-84.0
X149.1Y-96.1
X149.3Y-66.2
X149.3Y-94.8
X149.3Y-105.1
X149.352Y-115.824
X149.625Y-100.825
X149.675Y-103.075
X149.8Y-96.75
X149.85Y-93.55
X150.15Y-64.35
X150.25Y-81.5
X150.475Y-100.825
X150.475Y-102.925
X150.5Y-104.7
X150.6Y-61.35
X150.6Y-96.85
X150.75Y-93.55
X151.325Y-103.075
X151.45Y-73.8
X151.5Y-84.1
X151.55Y-75.45
X151.55Y-82.15
X151.6Y-96.85
X151.65Y-76.7
X151.7Y-93.55
X151.8Y-85.8
X151.892Y-87.376
X151.892Y-89.916
X151.892Y-107.696
X152.05Y-62.6
X152.3Y-105.15
X152.3Y-105.9
X152.5Y-96.8
X152.55Y-93.55
X152.55Y-100.9
X152.65Y-103.1
X152.69Y-112.75
X152.85Y-79.1
X152.85Y-81.2
X152.85Y-83.05
X152.9Y-91.8
X152.95Y-77.05
X152.99Y-97.97
X153.1Y-95.25
X153.1Y-99.75
X153.15Y-73.85
X153.238Y-92.75
X153.4Y-104.7
X153.45Y-100.9
X153.5Y-103.0
X153.5Y-110.45
X153.75Y-74.75
X154.35Y-103.05
X154.8Y-110.75
X155.55Y-90.35
X155.6Y-107.6
X156.1Y-67.95
X156.1Y-97.5
X156.2Y-100.4
X156.3Y-102.2
X156.35Y-82.0
X156.5Y-94.8
X157.1Y-69.5
X157.2Y-78.9
X157.2Y-86.05
X157.25Y-102.6
X158.35Y-95.9
X158.4Y-78.9
X158.65Y-110.6
X158.75Y-96.85
X158.95Y-85.0
T2
X128.097Y-82.43
X128.998Y-81.528
X128.998Y-83.332
X129.9Y-80.627
X129.9Y-82.43
X129.9Y-84.233
X130.802Y-81.528
X130.802Y-83.332
X131.703Y-82.43
T4
X118.47Y-112.22
X121.01Y-112.22
X123.55Y-112.22
X126.09Y-112.22
X128.63Y-112.22
X131.17Y-112.22
X133.71Y-112.22
X136.25Y-112.22
X138.79Y-112.22
X141.33Y-112.22
X148.01Y-70.85
X150.55Y-70.85
X153.09Y-70.85
T3
X125.58Y-61.8G85X125.58Y-61.2
G05
X125.58Y-66.23G85X125.58Y-65.13
G05
X134.22Y-61.8G85X134.22Y-61.2
G05
X134.22Y-66.23G85X134.22Y-65.13
G05
T0
M30
