G04 #@! TF.GenerationSoftware,KiCad,Pcbnew,7.0.7*
G04 #@! TF.CreationDate,2023-12-02T12:42:21+01:00*
G04 #@! TF.ProjectId,BusPirate-5-rev10,42757350-6972-4617-9465-2d352d726576,rev?*
G04 #@! TF.SameCoordinates,Original*
G04 #@! TF.FileFunction,Legend,Bot*
G04 #@! TF.FilePolarity,Positive*
%FSLAX46Y46*%
G04 Gerber Fmt 4.6, Leading zero omitted, Abs format (unit mm)*
G04 Created by KiCad (PCBNEW 7.0.7) date 2023-12-02 12:42:21*
%MOMM*%
%LPD*%
G01*
G04 APERTURE LIST*
G04 Aperture macros list*
%AMRoundRect*
0 Rectangle with rounded corners*
0 $1 Rounding radius*
0 $2 $3 $4 $5 $6 $7 $8 $9 X,Y pos of 4 corners*
0 Add a 4 corners polygon primitive as box body*
4,1,4,$2,$3,$4,$5,$6,$7,$8,$9,$2,$3,0*
0 Add four circle primitives for the rounded corners*
1,1,$1+$1,$2,$3*
1,1,$1+$1,$4,$5*
1,1,$1+$1,$6,$7*
1,1,$1+$1,$8,$9*
0 Add four rect primitives between the rounded corners*
20,1,$1+$1,$2,$3,$4,$5,0*
20,1,$1+$1,$4,$5,$6,$7,0*
20,1,$1+$1,$6,$7,$8,$9,0*
20,1,$1+$1,$8,$9,$2,$3,0*%
G04 Aperture macros list end*
%ADD10C,0.212500*%
%ADD11C,0.250000*%
%ADD12C,0.400000*%
%ADD13C,0.375000*%
%ADD14C,0.150000*%
%ADD15C,0.120000*%
%ADD16C,0.085000*%
%ADD17C,0.010000*%
%ADD18C,0.203200*%
%ADD19C,3.300000*%
%ADD20RoundRect,0.050000X0.850000X-0.850000X0.850000X0.850000X-0.850000X0.850000X-0.850000X-0.850000X0*%
%ADD21O,1.800000X1.800000*%
%ADD22C,0.800000*%
%ADD23O,1.150000X2.200000*%
%ADD24RoundRect,0.050000X-0.850000X0.850000X-0.850000X-0.850000X0.850000X-0.850000X0.850000X0.850000X0*%
%ADD25RoundRect,0.050000X0.350000X-0.625000X0.350000X0.625000X-0.350000X0.625000X-0.350000X-0.625000X0*%
%ADD26RoundRect,0.050000X-1.275000X0.300000X-1.275000X-0.300000X1.275000X-0.300000X1.275000X0.300000X0*%
G04 APERTURE END LIST*
D10*
X137603364Y-108639089D02*
X137726048Y-108675582D01*
X137726048Y-108675582D02*
X137782421Y-108665642D01*
X137782421Y-108665642D02*
X137862009Y-108622546D01*
X137862009Y-108622546D02*
X137931658Y-108523077D01*
X137931658Y-108523077D02*
X137944934Y-108433549D01*
X137944934Y-108433549D02*
X137934994Y-108377176D01*
X137934994Y-108377176D02*
X137891898Y-108297588D01*
X137891898Y-108297588D02*
X137626649Y-108111858D01*
X137626649Y-108111858D02*
X137139109Y-108808138D01*
X137139109Y-108808138D02*
X137371202Y-108970651D01*
X137371202Y-108970651D02*
X137460730Y-108983927D01*
X137460730Y-108983927D02*
X137517103Y-108973987D01*
X137517103Y-108973987D02*
X137596691Y-108930891D01*
X137596691Y-108930891D02*
X137643124Y-108864579D01*
X137643124Y-108864579D02*
X137656400Y-108775050D01*
X137656400Y-108775050D02*
X137646460Y-108718678D01*
X137646460Y-108718678D02*
X137603364Y-108639089D01*
X137603364Y-108639089D02*
X137371271Y-108476576D01*
X138322928Y-108599398D02*
X137835388Y-109295678D01*
X137835388Y-109295678D02*
X138100637Y-109481407D01*
X138100637Y-109481407D02*
X138190166Y-109494683D01*
X138190166Y-109494683D02*
X138246538Y-109484743D01*
X138246538Y-109484743D02*
X138326127Y-109441647D01*
X138326127Y-109441647D02*
X138395775Y-109342179D01*
X138395775Y-109342179D02*
X138409051Y-109252650D01*
X138409051Y-109252650D02*
X138399112Y-109196278D01*
X138399112Y-109196278D02*
X138356015Y-109116689D01*
X138356015Y-109116689D02*
X138090766Y-108930960D01*
X139019207Y-109086938D02*
X138531667Y-109783217D01*
X138995854Y-110108244D02*
X139128478Y-110201109D01*
X139128478Y-110201109D02*
X139218007Y-110214385D01*
X139218007Y-110214385D02*
X139330751Y-110194505D01*
X139330751Y-110194505D02*
X139456772Y-110085097D01*
X139456772Y-110085097D02*
X139619286Y-109853004D01*
X139619286Y-109853004D02*
X139678994Y-109697163D01*
X139678994Y-109697163D02*
X139659114Y-109584418D01*
X139659114Y-109584418D02*
X139616018Y-109504830D01*
X139616018Y-109504830D02*
X139483394Y-109411965D01*
X139483394Y-109411965D02*
X139393865Y-109398689D01*
X139393865Y-109398689D02*
X139281120Y-109418569D01*
X139281120Y-109418569D02*
X139155099Y-109527977D01*
X139155099Y-109527977D02*
X138992586Y-109760070D01*
X138992586Y-109760070D02*
X138932878Y-109915911D01*
X138932878Y-109915911D02*
X138952757Y-110028656D01*
X138952757Y-110028656D02*
X138995854Y-110108244D01*
X139526352Y-110479703D02*
X139990538Y-110804730D01*
X139990538Y-110804730D02*
X140179673Y-109899505D01*
X127413364Y-108639089D02*
X127536048Y-108675582D01*
X127536048Y-108675582D02*
X127592421Y-108665642D01*
X127592421Y-108665642D02*
X127672009Y-108622546D01*
X127672009Y-108622546D02*
X127741658Y-108523077D01*
X127741658Y-108523077D02*
X127754934Y-108433549D01*
X127754934Y-108433549D02*
X127744994Y-108377176D01*
X127744994Y-108377176D02*
X127701898Y-108297588D01*
X127701898Y-108297588D02*
X127436649Y-108111858D01*
X127436649Y-108111858D02*
X126949109Y-108808138D01*
X126949109Y-108808138D02*
X127181202Y-108970651D01*
X127181202Y-108970651D02*
X127270730Y-108983927D01*
X127270730Y-108983927D02*
X127327103Y-108973987D01*
X127327103Y-108973987D02*
X127406691Y-108930891D01*
X127406691Y-108930891D02*
X127453124Y-108864579D01*
X127453124Y-108864579D02*
X127466400Y-108775050D01*
X127466400Y-108775050D02*
X127456460Y-108718678D01*
X127456460Y-108718678D02*
X127413364Y-108639089D01*
X127413364Y-108639089D02*
X127181271Y-108476576D01*
X128132928Y-108599398D02*
X127645388Y-109295678D01*
X127645388Y-109295678D02*
X127910637Y-109481407D01*
X127910637Y-109481407D02*
X128000166Y-109494683D01*
X128000166Y-109494683D02*
X128056538Y-109484743D01*
X128056538Y-109484743D02*
X128136127Y-109441647D01*
X128136127Y-109441647D02*
X128205775Y-109342179D01*
X128205775Y-109342179D02*
X128219051Y-109252650D01*
X128219051Y-109252650D02*
X128209112Y-109196278D01*
X128209112Y-109196278D02*
X128166015Y-109116689D01*
X128166015Y-109116689D02*
X127900766Y-108930960D01*
X128829207Y-109086938D02*
X128341667Y-109783217D01*
X128805854Y-110108244D02*
X128938478Y-110201109D01*
X128938478Y-110201109D02*
X129028007Y-110214385D01*
X129028007Y-110214385D02*
X129140751Y-110194505D01*
X129140751Y-110194505D02*
X129266772Y-110085097D01*
X129266772Y-110085097D02*
X129429286Y-109853004D01*
X129429286Y-109853004D02*
X129488994Y-109697163D01*
X129488994Y-109697163D02*
X129469114Y-109584418D01*
X129469114Y-109584418D02*
X129426018Y-109504830D01*
X129426018Y-109504830D02*
X129293394Y-109411965D01*
X129293394Y-109411965D02*
X129203865Y-109398689D01*
X129203865Y-109398689D02*
X129091120Y-109418569D01*
X129091120Y-109418569D02*
X128965099Y-109527977D01*
X128965099Y-109527977D02*
X128802586Y-109760070D01*
X128802586Y-109760070D02*
X128742878Y-109915911D01*
X128742878Y-109915911D02*
X128762757Y-110028656D01*
X128762757Y-110028656D02*
X128805854Y-110108244D01*
X129336352Y-110479703D02*
X129767382Y-110781514D01*
X129767382Y-110781514D02*
X129721018Y-110353751D01*
X129721018Y-110353751D02*
X129820487Y-110423400D01*
X129820487Y-110423400D02*
X129910015Y-110436676D01*
X129910015Y-110436676D02*
X129966388Y-110426736D01*
X129966388Y-110426736D02*
X130045976Y-110383640D01*
X130045976Y-110383640D02*
X130162057Y-110217859D01*
X130162057Y-110217859D02*
X130175333Y-110128330D01*
X130175333Y-110128330D02*
X130165393Y-110071958D01*
X130165393Y-110071958D02*
X130122297Y-109992370D01*
X130122297Y-109992370D02*
X129923360Y-109853072D01*
X129923360Y-109853072D02*
X129833832Y-109839796D01*
X129833832Y-109839796D02*
X129777459Y-109849736D01*
X116804890Y-108874219D02*
X117524523Y-108340453D01*
X117524523Y-108340453D02*
X117269076Y-109199245D01*
X117633794Y-109454623D02*
X117766418Y-109547488D01*
X117766418Y-109547488D02*
X117855947Y-109560764D01*
X117855947Y-109560764D02*
X117968691Y-109540884D01*
X117968691Y-109540884D02*
X118094712Y-109431476D01*
X118094712Y-109431476D02*
X118257226Y-109199383D01*
X118257226Y-109199383D02*
X118316934Y-109043542D01*
X118316934Y-109043542D02*
X118297054Y-108930797D01*
X118297054Y-108930797D02*
X118253958Y-108851209D01*
X118253958Y-108851209D02*
X118121333Y-108758344D01*
X118121333Y-108758344D02*
X118031805Y-108745068D01*
X118031805Y-108745068D02*
X117919060Y-108764948D01*
X117919060Y-108764948D02*
X117793039Y-108874356D01*
X117793039Y-108874356D02*
X117630526Y-109106449D01*
X117630526Y-109106449D02*
X117570817Y-109262290D01*
X117570817Y-109262290D02*
X117590697Y-109375035D01*
X117590697Y-109375035D02*
X117633794Y-109454623D01*
X118230604Y-109872515D02*
X118625279Y-109308860D01*
X118625279Y-109308860D02*
X118704868Y-109265764D01*
X118704868Y-109265764D02*
X118761240Y-109255824D01*
X118761240Y-109255824D02*
X118850769Y-109269100D01*
X118850769Y-109269100D02*
X118983393Y-109361965D01*
X118983393Y-109361965D02*
X119026489Y-109441553D01*
X119026489Y-109441553D02*
X119036429Y-109497926D01*
X119036429Y-109497926D02*
X119023153Y-109587454D01*
X119023153Y-109587454D02*
X118628478Y-110151109D01*
X118860571Y-110313622D02*
X119258445Y-110592216D01*
X119547048Y-109756640D02*
X119059508Y-110452919D01*
X124903364Y-108689089D02*
X125026048Y-108725582D01*
X125026048Y-108725582D02*
X125082421Y-108715642D01*
X125082421Y-108715642D02*
X125162009Y-108672546D01*
X125162009Y-108672546D02*
X125231658Y-108573077D01*
X125231658Y-108573077D02*
X125244934Y-108483549D01*
X125244934Y-108483549D02*
X125234994Y-108427176D01*
X125234994Y-108427176D02*
X125191898Y-108347588D01*
X125191898Y-108347588D02*
X124926649Y-108161858D01*
X124926649Y-108161858D02*
X124439109Y-108858138D01*
X124439109Y-108858138D02*
X124671202Y-109020651D01*
X124671202Y-109020651D02*
X124760730Y-109033927D01*
X124760730Y-109033927D02*
X124817103Y-109023987D01*
X124817103Y-109023987D02*
X124896691Y-108980891D01*
X124896691Y-108980891D02*
X124943124Y-108914579D01*
X124943124Y-108914579D02*
X124956400Y-108825050D01*
X124956400Y-108825050D02*
X124946460Y-108768678D01*
X124946460Y-108768678D02*
X124903364Y-108689089D01*
X124903364Y-108689089D02*
X124671271Y-108526576D01*
X125622928Y-108649398D02*
X125135388Y-109345678D01*
X125135388Y-109345678D02*
X125400637Y-109531407D01*
X125400637Y-109531407D02*
X125490166Y-109544683D01*
X125490166Y-109544683D02*
X125546538Y-109534743D01*
X125546538Y-109534743D02*
X125626127Y-109491647D01*
X125626127Y-109491647D02*
X125695775Y-109392179D01*
X125695775Y-109392179D02*
X125709051Y-109302650D01*
X125709051Y-109302650D02*
X125699112Y-109246278D01*
X125699112Y-109246278D02*
X125656015Y-109166689D01*
X125656015Y-109166689D02*
X125390766Y-108980960D01*
X126319207Y-109136938D02*
X125831667Y-109833217D01*
X126295854Y-110158244D02*
X126428478Y-110251109D01*
X126428478Y-110251109D02*
X126518007Y-110264385D01*
X126518007Y-110264385D02*
X126630751Y-110244505D01*
X126630751Y-110244505D02*
X126756772Y-110135097D01*
X126756772Y-110135097D02*
X126919286Y-109903004D01*
X126919286Y-109903004D02*
X126978994Y-109747163D01*
X126978994Y-109747163D02*
X126959114Y-109634418D01*
X126959114Y-109634418D02*
X126916018Y-109554830D01*
X126916018Y-109554830D02*
X126783394Y-109461965D01*
X126783394Y-109461965D02*
X126693865Y-109448689D01*
X126693865Y-109448689D02*
X126581120Y-109468569D01*
X126581120Y-109468569D02*
X126455099Y-109577977D01*
X126455099Y-109577977D02*
X126292586Y-109810070D01*
X126292586Y-109810070D02*
X126232878Y-109965911D01*
X126232878Y-109965911D02*
X126252757Y-110078656D01*
X126252757Y-110078656D02*
X126295854Y-110158244D01*
X126905940Y-110486607D02*
X126915880Y-110542979D01*
X126915880Y-110542979D02*
X126958976Y-110622568D01*
X126958976Y-110622568D02*
X127124757Y-110738649D01*
X127124757Y-110738649D02*
X127214286Y-110751925D01*
X127214286Y-110751925D02*
X127270658Y-110741985D01*
X127270658Y-110741985D02*
X127350247Y-110698889D01*
X127350247Y-110698889D02*
X127396679Y-110632577D01*
X127396679Y-110632577D02*
X127433171Y-110509892D01*
X127433171Y-110509892D02*
X127313892Y-109833424D01*
X127313892Y-109833424D02*
X127744922Y-110135234D01*
X135053364Y-108639089D02*
X135176048Y-108675582D01*
X135176048Y-108675582D02*
X135232421Y-108665642D01*
X135232421Y-108665642D02*
X135312009Y-108622546D01*
X135312009Y-108622546D02*
X135381658Y-108523077D01*
X135381658Y-108523077D02*
X135394934Y-108433549D01*
X135394934Y-108433549D02*
X135384994Y-108377176D01*
X135384994Y-108377176D02*
X135341898Y-108297588D01*
X135341898Y-108297588D02*
X135076649Y-108111858D01*
X135076649Y-108111858D02*
X134589109Y-108808138D01*
X134589109Y-108808138D02*
X134821202Y-108970651D01*
X134821202Y-108970651D02*
X134910730Y-108983927D01*
X134910730Y-108983927D02*
X134967103Y-108973987D01*
X134967103Y-108973987D02*
X135046691Y-108930891D01*
X135046691Y-108930891D02*
X135093124Y-108864579D01*
X135093124Y-108864579D02*
X135106400Y-108775050D01*
X135106400Y-108775050D02*
X135096460Y-108718678D01*
X135096460Y-108718678D02*
X135053364Y-108639089D01*
X135053364Y-108639089D02*
X134821271Y-108476576D01*
X135772928Y-108599398D02*
X135285388Y-109295678D01*
X135285388Y-109295678D02*
X135550637Y-109481407D01*
X135550637Y-109481407D02*
X135640166Y-109494683D01*
X135640166Y-109494683D02*
X135696538Y-109484743D01*
X135696538Y-109484743D02*
X135776127Y-109441647D01*
X135776127Y-109441647D02*
X135845775Y-109342179D01*
X135845775Y-109342179D02*
X135859051Y-109252650D01*
X135859051Y-109252650D02*
X135849112Y-109196278D01*
X135849112Y-109196278D02*
X135806015Y-109116689D01*
X135806015Y-109116689D02*
X135540766Y-108930960D01*
X136469207Y-109086938D02*
X135981667Y-109783217D01*
X136445854Y-110108244D02*
X136578478Y-110201109D01*
X136578478Y-110201109D02*
X136668007Y-110214385D01*
X136668007Y-110214385D02*
X136780751Y-110194505D01*
X136780751Y-110194505D02*
X136906772Y-110085097D01*
X136906772Y-110085097D02*
X137069286Y-109853004D01*
X137069286Y-109853004D02*
X137128994Y-109697163D01*
X137128994Y-109697163D02*
X137109114Y-109584418D01*
X137109114Y-109584418D02*
X137066018Y-109504830D01*
X137066018Y-109504830D02*
X136933394Y-109411965D01*
X136933394Y-109411965D02*
X136843865Y-109398689D01*
X136843865Y-109398689D02*
X136731120Y-109418569D01*
X136731120Y-109418569D02*
X136605099Y-109527977D01*
X136605099Y-109527977D02*
X136442586Y-109760070D01*
X136442586Y-109760070D02*
X136382878Y-109915911D01*
X136382878Y-109915911D02*
X136402757Y-110028656D01*
X136402757Y-110028656D02*
X136445854Y-110108244D01*
X137341070Y-110735081D02*
X137208445Y-110642216D01*
X137208445Y-110642216D02*
X137165349Y-110562628D01*
X137165349Y-110562628D02*
X137155409Y-110506256D01*
X137155409Y-110506256D02*
X137158745Y-110360355D01*
X137158745Y-110360355D02*
X137218454Y-110204514D01*
X137218454Y-110204514D02*
X137404183Y-109939265D01*
X137404183Y-109939265D02*
X137483772Y-109896169D01*
X137483772Y-109896169D02*
X137540144Y-109886229D01*
X137540144Y-109886229D02*
X137629673Y-109899505D01*
X137629673Y-109899505D02*
X137762297Y-109992370D01*
X137762297Y-109992370D02*
X137805393Y-110071958D01*
X137805393Y-110071958D02*
X137815333Y-110128330D01*
X137815333Y-110128330D02*
X137802057Y-110217859D01*
X137802057Y-110217859D02*
X137685976Y-110383640D01*
X137685976Y-110383640D02*
X137606388Y-110426736D01*
X137606388Y-110426736D02*
X137550015Y-110436676D01*
X137550015Y-110436676D02*
X137460487Y-110423400D01*
X137460487Y-110423400D02*
X137327862Y-110330535D01*
X137327862Y-110330535D02*
X137284766Y-110250946D01*
X137284766Y-110250946D02*
X137274826Y-110194574D01*
X137274826Y-110194574D02*
X137288102Y-110105045D01*
X122353364Y-108639089D02*
X122476048Y-108675582D01*
X122476048Y-108675582D02*
X122532421Y-108665642D01*
X122532421Y-108665642D02*
X122612009Y-108622546D01*
X122612009Y-108622546D02*
X122681658Y-108523077D01*
X122681658Y-108523077D02*
X122694934Y-108433549D01*
X122694934Y-108433549D02*
X122684994Y-108377176D01*
X122684994Y-108377176D02*
X122641898Y-108297588D01*
X122641898Y-108297588D02*
X122376649Y-108111858D01*
X122376649Y-108111858D02*
X121889109Y-108808138D01*
X121889109Y-108808138D02*
X122121202Y-108970651D01*
X122121202Y-108970651D02*
X122210730Y-108983927D01*
X122210730Y-108983927D02*
X122267103Y-108973987D01*
X122267103Y-108973987D02*
X122346691Y-108930891D01*
X122346691Y-108930891D02*
X122393124Y-108864579D01*
X122393124Y-108864579D02*
X122406400Y-108775050D01*
X122406400Y-108775050D02*
X122396460Y-108718678D01*
X122396460Y-108718678D02*
X122353364Y-108639089D01*
X122353364Y-108639089D02*
X122121271Y-108476576D01*
X123072928Y-108599398D02*
X122585388Y-109295678D01*
X122585388Y-109295678D02*
X122850637Y-109481407D01*
X122850637Y-109481407D02*
X122940166Y-109494683D01*
X122940166Y-109494683D02*
X122996538Y-109484743D01*
X122996538Y-109484743D02*
X123076127Y-109441647D01*
X123076127Y-109441647D02*
X123145775Y-109342179D01*
X123145775Y-109342179D02*
X123159051Y-109252650D01*
X123159051Y-109252650D02*
X123149112Y-109196278D01*
X123149112Y-109196278D02*
X123106015Y-109116689D01*
X123106015Y-109116689D02*
X122840766Y-108930960D01*
X123769207Y-109086938D02*
X123281667Y-109783217D01*
X123745854Y-110108244D02*
X123878478Y-110201109D01*
X123878478Y-110201109D02*
X123968007Y-110214385D01*
X123968007Y-110214385D02*
X124080751Y-110194505D01*
X124080751Y-110194505D02*
X124206772Y-110085097D01*
X124206772Y-110085097D02*
X124369286Y-109853004D01*
X124369286Y-109853004D02*
X124428994Y-109697163D01*
X124428994Y-109697163D02*
X124409114Y-109584418D01*
X124409114Y-109584418D02*
X124366018Y-109504830D01*
X124366018Y-109504830D02*
X124233394Y-109411965D01*
X124233394Y-109411965D02*
X124143865Y-109398689D01*
X124143865Y-109398689D02*
X124031120Y-109418569D01*
X124031120Y-109418569D02*
X123905099Y-109527977D01*
X123905099Y-109527977D02*
X123742586Y-109760070D01*
X123742586Y-109760070D02*
X123682878Y-109915911D01*
X123682878Y-109915911D02*
X123702757Y-110028656D01*
X123702757Y-110028656D02*
X123745854Y-110108244D01*
X125194922Y-110085234D02*
X124797048Y-109806640D01*
X124995985Y-109945937D02*
X124508445Y-110642216D01*
X124508445Y-110642216D02*
X124511781Y-110496316D01*
X124511781Y-110496316D02*
X124491901Y-110383571D01*
X124491901Y-110383571D02*
X124448805Y-110303982D01*
X119803364Y-108589089D02*
X119926048Y-108625582D01*
X119926048Y-108625582D02*
X119982421Y-108615642D01*
X119982421Y-108615642D02*
X120062009Y-108572546D01*
X120062009Y-108572546D02*
X120131658Y-108473077D01*
X120131658Y-108473077D02*
X120144934Y-108383549D01*
X120144934Y-108383549D02*
X120134994Y-108327176D01*
X120134994Y-108327176D02*
X120091898Y-108247588D01*
X120091898Y-108247588D02*
X119826649Y-108061858D01*
X119826649Y-108061858D02*
X119339109Y-108758138D01*
X119339109Y-108758138D02*
X119571202Y-108920651D01*
X119571202Y-108920651D02*
X119660730Y-108933927D01*
X119660730Y-108933927D02*
X119717103Y-108923987D01*
X119717103Y-108923987D02*
X119796691Y-108880891D01*
X119796691Y-108880891D02*
X119843124Y-108814579D01*
X119843124Y-108814579D02*
X119856400Y-108725050D01*
X119856400Y-108725050D02*
X119846460Y-108668678D01*
X119846460Y-108668678D02*
X119803364Y-108589089D01*
X119803364Y-108589089D02*
X119571271Y-108426576D01*
X120522928Y-108549398D02*
X120035388Y-109245678D01*
X120035388Y-109245678D02*
X120300637Y-109431407D01*
X120300637Y-109431407D02*
X120390166Y-109444683D01*
X120390166Y-109444683D02*
X120446538Y-109434743D01*
X120446538Y-109434743D02*
X120526127Y-109391647D01*
X120526127Y-109391647D02*
X120595775Y-109292179D01*
X120595775Y-109292179D02*
X120609051Y-109202650D01*
X120609051Y-109202650D02*
X120599112Y-109146278D01*
X120599112Y-109146278D02*
X120556015Y-109066689D01*
X120556015Y-109066689D02*
X120290766Y-108880960D01*
X121219207Y-109036938D02*
X120731667Y-109733217D01*
X121195854Y-110058244D02*
X121328478Y-110151109D01*
X121328478Y-110151109D02*
X121418007Y-110164385D01*
X121418007Y-110164385D02*
X121530751Y-110144505D01*
X121530751Y-110144505D02*
X121656772Y-110035097D01*
X121656772Y-110035097D02*
X121819286Y-109803004D01*
X121819286Y-109803004D02*
X121878994Y-109647163D01*
X121878994Y-109647163D02*
X121859114Y-109534418D01*
X121859114Y-109534418D02*
X121816018Y-109454830D01*
X121816018Y-109454830D02*
X121683394Y-109361965D01*
X121683394Y-109361965D02*
X121593865Y-109348689D01*
X121593865Y-109348689D02*
X121481120Y-109368569D01*
X121481120Y-109368569D02*
X121355099Y-109477977D01*
X121355099Y-109477977D02*
X121192586Y-109710070D01*
X121192586Y-109710070D02*
X121132878Y-109865911D01*
X121132878Y-109865911D02*
X121152757Y-109978656D01*
X121152757Y-109978656D02*
X121195854Y-110058244D01*
X121925289Y-110569000D02*
X121991601Y-110615433D01*
X121991601Y-110615433D02*
X122081130Y-110628709D01*
X122081130Y-110628709D02*
X122137502Y-110618769D01*
X122137502Y-110618769D02*
X122217090Y-110575673D01*
X122217090Y-110575673D02*
X122343111Y-110466264D01*
X122343111Y-110466264D02*
X122459192Y-110300484D01*
X122459192Y-110300484D02*
X122518901Y-110144643D01*
X122518901Y-110144643D02*
X122532177Y-110055114D01*
X122532177Y-110055114D02*
X122522237Y-109998742D01*
X122522237Y-109998742D02*
X122479141Y-109919153D01*
X122479141Y-109919153D02*
X122412829Y-109872721D01*
X122412829Y-109872721D02*
X122323300Y-109859445D01*
X122323300Y-109859445D02*
X122266928Y-109869385D01*
X122266928Y-109869385D02*
X122187339Y-109912481D01*
X122187339Y-109912481D02*
X122061318Y-110021889D01*
X122061318Y-110021889D02*
X121945238Y-110187670D01*
X121945238Y-110187670D02*
X121885529Y-110343511D01*
X121885529Y-110343511D02*
X121872253Y-110433039D01*
X121872253Y-110433039D02*
X121882193Y-110489412D01*
X121882193Y-110489412D02*
X121925289Y-110569000D01*
X132503364Y-108639089D02*
X132626048Y-108675582D01*
X132626048Y-108675582D02*
X132682421Y-108665642D01*
X132682421Y-108665642D02*
X132762009Y-108622546D01*
X132762009Y-108622546D02*
X132831658Y-108523077D01*
X132831658Y-108523077D02*
X132844934Y-108433549D01*
X132844934Y-108433549D02*
X132834994Y-108377176D01*
X132834994Y-108377176D02*
X132791898Y-108297588D01*
X132791898Y-108297588D02*
X132526649Y-108111858D01*
X132526649Y-108111858D02*
X132039109Y-108808138D01*
X132039109Y-108808138D02*
X132271202Y-108970651D01*
X132271202Y-108970651D02*
X132360730Y-108983927D01*
X132360730Y-108983927D02*
X132417103Y-108973987D01*
X132417103Y-108973987D02*
X132496691Y-108930891D01*
X132496691Y-108930891D02*
X132543124Y-108864579D01*
X132543124Y-108864579D02*
X132556400Y-108775050D01*
X132556400Y-108775050D02*
X132546460Y-108718678D01*
X132546460Y-108718678D02*
X132503364Y-108639089D01*
X132503364Y-108639089D02*
X132271271Y-108476576D01*
X133222928Y-108599398D02*
X132735388Y-109295678D01*
X132735388Y-109295678D02*
X133000637Y-109481407D01*
X133000637Y-109481407D02*
X133090166Y-109494683D01*
X133090166Y-109494683D02*
X133146538Y-109484743D01*
X133146538Y-109484743D02*
X133226127Y-109441647D01*
X133226127Y-109441647D02*
X133295775Y-109342179D01*
X133295775Y-109342179D02*
X133309051Y-109252650D01*
X133309051Y-109252650D02*
X133299112Y-109196278D01*
X133299112Y-109196278D02*
X133256015Y-109116689D01*
X133256015Y-109116689D02*
X132990766Y-108930960D01*
X133919207Y-109086938D02*
X133431667Y-109783217D01*
X133895854Y-110108244D02*
X134028478Y-110201109D01*
X134028478Y-110201109D02*
X134118007Y-110214385D01*
X134118007Y-110214385D02*
X134230751Y-110194505D01*
X134230751Y-110194505D02*
X134356772Y-110085097D01*
X134356772Y-110085097D02*
X134519286Y-109853004D01*
X134519286Y-109853004D02*
X134578994Y-109697163D01*
X134578994Y-109697163D02*
X134559114Y-109584418D01*
X134559114Y-109584418D02*
X134516018Y-109504830D01*
X134516018Y-109504830D02*
X134383394Y-109411965D01*
X134383394Y-109411965D02*
X134293865Y-109398689D01*
X134293865Y-109398689D02*
X134181120Y-109418569D01*
X134181120Y-109418569D02*
X134055099Y-109527977D01*
X134055099Y-109527977D02*
X133892586Y-109760070D01*
X133892586Y-109760070D02*
X133832878Y-109915911D01*
X133832878Y-109915911D02*
X133852757Y-110028656D01*
X133852757Y-110028656D02*
X133895854Y-110108244D01*
X134824226Y-110758297D02*
X134492664Y-110526135D01*
X134492664Y-110526135D02*
X134691670Y-110171358D01*
X134691670Y-110171358D02*
X134701610Y-110227730D01*
X134701610Y-110227730D02*
X134744706Y-110307319D01*
X134744706Y-110307319D02*
X134910487Y-110423400D01*
X134910487Y-110423400D02*
X135000015Y-110436676D01*
X135000015Y-110436676D02*
X135056388Y-110426736D01*
X135056388Y-110426736D02*
X135135976Y-110383640D01*
X135135976Y-110383640D02*
X135252057Y-110217859D01*
X135252057Y-110217859D02*
X135265333Y-110128330D01*
X135265333Y-110128330D02*
X135255393Y-110071958D01*
X135255393Y-110071958D02*
X135212297Y-109992370D01*
X135212297Y-109992370D02*
X135046516Y-109876289D01*
X135046516Y-109876289D02*
X134956988Y-109863012D01*
X134956988Y-109863012D02*
X134900616Y-109872952D01*
D11*
X140387512Y-109474828D02*
X140282184Y-109459209D01*
X140282184Y-109459209D02*
X140165162Y-109377269D01*
X140165162Y-109377269D02*
X140075454Y-109256322D01*
X140075454Y-109256322D02*
X140052066Y-109123682D01*
X140052066Y-109123682D02*
X140067685Y-109018354D01*
X140067685Y-109018354D02*
X140137930Y-108835012D01*
X140137930Y-108835012D02*
X140219870Y-108717990D01*
X140219870Y-108717990D02*
X140368130Y-108589274D01*
X140368130Y-108589274D02*
X140461763Y-108538573D01*
X140461763Y-108538573D02*
X140594404Y-108515185D01*
X140594404Y-108515185D02*
X140738739Y-108558117D01*
X140738739Y-108558117D02*
X140816753Y-108612743D01*
X140816753Y-108612743D02*
X140906462Y-108733690D01*
X140906462Y-108733690D02*
X140918156Y-108800010D01*
X140918156Y-108800010D02*
X140726964Y-109073061D01*
X140726964Y-109073061D02*
X140570935Y-108963808D01*
X141323847Y-108967814D02*
X140750271Y-109786967D01*
X140750271Y-109786967D02*
X141791934Y-109295572D01*
X141791934Y-109295572D02*
X141218358Y-110114724D01*
X142182007Y-109568704D02*
X141608430Y-110387856D01*
X141608430Y-110387856D02*
X141803466Y-110524422D01*
X141803466Y-110524422D02*
X141947801Y-110567354D01*
X141947801Y-110567354D02*
X142080442Y-110543966D01*
X142080442Y-110543966D02*
X142174076Y-110493265D01*
X142174076Y-110493265D02*
X142322336Y-110364549D01*
X142322336Y-110364549D02*
X142404275Y-110247527D01*
X142404275Y-110247527D02*
X142474520Y-110064185D01*
X142474520Y-110064185D02*
X142490140Y-109958857D01*
X142490140Y-109958857D02*
X142466751Y-109826217D01*
X142466751Y-109826217D02*
X142377043Y-109705270D01*
X142377043Y-109705270D02*
X142182007Y-109568704D01*
X112870952Y-114865273D02*
X113287618Y-114270035D01*
X113585237Y-114865273D02*
X113585237Y-113615273D01*
X113585237Y-113615273D02*
X113109047Y-113615273D01*
X113109047Y-113615273D02*
X112989999Y-113674797D01*
X112989999Y-113674797D02*
X112930476Y-113734321D01*
X112930476Y-113734321D02*
X112870952Y-113853369D01*
X112870952Y-113853369D02*
X112870952Y-114031940D01*
X112870952Y-114031940D02*
X112930476Y-114150988D01*
X112930476Y-114150988D02*
X112989999Y-114210511D01*
X112989999Y-114210511D02*
X113109047Y-114270035D01*
X113109047Y-114270035D02*
X113585237Y-114270035D01*
X112335237Y-114210511D02*
X111918571Y-114210511D01*
X111739999Y-114865273D02*
X112335237Y-114865273D01*
X112335237Y-114865273D02*
X112335237Y-113615273D01*
X112335237Y-113615273D02*
X111739999Y-113615273D01*
X111382857Y-113615273D02*
X110966190Y-114865273D01*
X110966190Y-114865273D02*
X110549524Y-113615273D01*
X108525714Y-114865273D02*
X109239999Y-114865273D01*
X108882856Y-114865273D02*
X108882856Y-113615273D01*
X108882856Y-113615273D02*
X109001904Y-113793845D01*
X109001904Y-113793845D02*
X109120952Y-113912892D01*
X109120952Y-113912892D02*
X109239999Y-113972416D01*
X107751904Y-113615273D02*
X107632857Y-113615273D01*
X107632857Y-113615273D02*
X107513809Y-113674797D01*
X107513809Y-113674797D02*
X107454285Y-113734321D01*
X107454285Y-113734321D02*
X107394761Y-113853369D01*
X107394761Y-113853369D02*
X107335238Y-114091464D01*
X107335238Y-114091464D02*
X107335238Y-114389083D01*
X107335238Y-114389083D02*
X107394761Y-114627178D01*
X107394761Y-114627178D02*
X107454285Y-114746226D01*
X107454285Y-114746226D02*
X107513809Y-114805750D01*
X107513809Y-114805750D02*
X107632857Y-114865273D01*
X107632857Y-114865273D02*
X107751904Y-114865273D01*
X107751904Y-114865273D02*
X107870952Y-114805750D01*
X107870952Y-114805750D02*
X107930476Y-114746226D01*
X107930476Y-114746226D02*
X107989999Y-114627178D01*
X107989999Y-114627178D02*
X108049523Y-114389083D01*
X108049523Y-114389083D02*
X108049523Y-114091464D01*
X108049523Y-114091464D02*
X107989999Y-113853369D01*
X107989999Y-113853369D02*
X107930476Y-113734321D01*
X107930476Y-113734321D02*
X107870952Y-113674797D01*
X107870952Y-113674797D02*
X107751904Y-113615273D01*
D10*
X129953364Y-108639089D02*
X130076048Y-108675582D01*
X130076048Y-108675582D02*
X130132421Y-108665642D01*
X130132421Y-108665642D02*
X130212009Y-108622546D01*
X130212009Y-108622546D02*
X130281658Y-108523077D01*
X130281658Y-108523077D02*
X130294934Y-108433549D01*
X130294934Y-108433549D02*
X130284994Y-108377176D01*
X130284994Y-108377176D02*
X130241898Y-108297588D01*
X130241898Y-108297588D02*
X129976649Y-108111858D01*
X129976649Y-108111858D02*
X129489109Y-108808138D01*
X129489109Y-108808138D02*
X129721202Y-108970651D01*
X129721202Y-108970651D02*
X129810730Y-108983927D01*
X129810730Y-108983927D02*
X129867103Y-108973987D01*
X129867103Y-108973987D02*
X129946691Y-108930891D01*
X129946691Y-108930891D02*
X129993124Y-108864579D01*
X129993124Y-108864579D02*
X130006400Y-108775050D01*
X130006400Y-108775050D02*
X129996460Y-108718678D01*
X129996460Y-108718678D02*
X129953364Y-108639089D01*
X129953364Y-108639089D02*
X129721271Y-108476576D01*
X130672928Y-108599398D02*
X130185388Y-109295678D01*
X130185388Y-109295678D02*
X130450637Y-109481407D01*
X130450637Y-109481407D02*
X130540166Y-109494683D01*
X130540166Y-109494683D02*
X130596538Y-109484743D01*
X130596538Y-109484743D02*
X130676127Y-109441647D01*
X130676127Y-109441647D02*
X130745775Y-109342179D01*
X130745775Y-109342179D02*
X130759051Y-109252650D01*
X130759051Y-109252650D02*
X130749112Y-109196278D01*
X130749112Y-109196278D02*
X130706015Y-109116689D01*
X130706015Y-109116689D02*
X130440766Y-108930960D01*
X131369207Y-109086938D02*
X130881667Y-109783217D01*
X131345854Y-110108244D02*
X131478478Y-110201109D01*
X131478478Y-110201109D02*
X131568007Y-110214385D01*
X131568007Y-110214385D02*
X131680751Y-110194505D01*
X131680751Y-110194505D02*
X131806772Y-110085097D01*
X131806772Y-110085097D02*
X131969286Y-109853004D01*
X131969286Y-109853004D02*
X132028994Y-109697163D01*
X132028994Y-109697163D02*
X132009114Y-109584418D01*
X132009114Y-109584418D02*
X131966018Y-109504830D01*
X131966018Y-109504830D02*
X131833394Y-109411965D01*
X131833394Y-109411965D02*
X131743865Y-109398689D01*
X131743865Y-109398689D02*
X131631120Y-109418569D01*
X131631120Y-109418569D02*
X131505099Y-109527977D01*
X131505099Y-109527977D02*
X131342586Y-109760070D01*
X131342586Y-109760070D02*
X131282878Y-109915911D01*
X131282878Y-109915911D02*
X131302757Y-110028656D01*
X131302757Y-110028656D02*
X131345854Y-110108244D01*
X132403583Y-110502988D02*
X132728610Y-110038802D01*
X132052073Y-110652156D02*
X132234535Y-110038733D01*
X132234535Y-110038733D02*
X132665565Y-110340544D01*
D11*
X113624761Y-112325273D02*
X113624761Y-111075273D01*
X113624761Y-111075273D02*
X112910476Y-112325273D01*
X112910476Y-112325273D02*
X112910476Y-111075273D01*
X112077142Y-111075273D02*
X111839047Y-111075273D01*
X111839047Y-111075273D02*
X111719999Y-111134797D01*
X111719999Y-111134797D02*
X111600952Y-111253845D01*
X111600952Y-111253845D02*
X111541428Y-111491940D01*
X111541428Y-111491940D02*
X111541428Y-111908607D01*
X111541428Y-111908607D02*
X111600952Y-112146702D01*
X111600952Y-112146702D02*
X111719999Y-112265750D01*
X111719999Y-112265750D02*
X111839047Y-112325273D01*
X111839047Y-112325273D02*
X112077142Y-112325273D01*
X112077142Y-112325273D02*
X112196190Y-112265750D01*
X112196190Y-112265750D02*
X112315237Y-112146702D01*
X112315237Y-112146702D02*
X112374761Y-111908607D01*
X112374761Y-111908607D02*
X112374761Y-111491940D01*
X112374761Y-111491940D02*
X112315237Y-111253845D01*
X112315237Y-111253845D02*
X112196190Y-111134797D01*
X112196190Y-111134797D02*
X112077142Y-111075273D01*
X111184285Y-111075273D02*
X110767618Y-112325273D01*
X110767618Y-112325273D02*
X110350952Y-111075273D01*
X109041427Y-111194321D02*
X108981903Y-111134797D01*
X108981903Y-111134797D02*
X108862856Y-111075273D01*
X108862856Y-111075273D02*
X108565237Y-111075273D01*
X108565237Y-111075273D02*
X108446189Y-111134797D01*
X108446189Y-111134797D02*
X108386665Y-111194321D01*
X108386665Y-111194321D02*
X108327142Y-111313369D01*
X108327142Y-111313369D02*
X108327142Y-111432416D01*
X108327142Y-111432416D02*
X108386665Y-111610988D01*
X108386665Y-111610988D02*
X109100951Y-112325273D01*
X109100951Y-112325273D02*
X108327142Y-112325273D01*
X107553332Y-111075273D02*
X107434285Y-111075273D01*
X107434285Y-111075273D02*
X107315237Y-111134797D01*
X107315237Y-111134797D02*
X107255713Y-111194321D01*
X107255713Y-111194321D02*
X107196189Y-111313369D01*
X107196189Y-111313369D02*
X107136666Y-111551464D01*
X107136666Y-111551464D02*
X107136666Y-111849083D01*
X107136666Y-111849083D02*
X107196189Y-112087178D01*
X107196189Y-112087178D02*
X107255713Y-112206226D01*
X107255713Y-112206226D02*
X107315237Y-112265750D01*
X107315237Y-112265750D02*
X107434285Y-112325273D01*
X107434285Y-112325273D02*
X107553332Y-112325273D01*
X107553332Y-112325273D02*
X107672380Y-112265750D01*
X107672380Y-112265750D02*
X107731904Y-112206226D01*
X107731904Y-112206226D02*
X107791427Y-112087178D01*
X107791427Y-112087178D02*
X107850951Y-111849083D01*
X107850951Y-111849083D02*
X107850951Y-111551464D01*
X107850951Y-111551464D02*
X107791427Y-111313369D01*
X107791427Y-111313369D02*
X107731904Y-111194321D01*
X107731904Y-111194321D02*
X107672380Y-111134797D01*
X107672380Y-111134797D02*
X107553332Y-111075273D01*
X106660475Y-111194321D02*
X106600951Y-111134797D01*
X106600951Y-111134797D02*
X106481904Y-111075273D01*
X106481904Y-111075273D02*
X106184285Y-111075273D01*
X106184285Y-111075273D02*
X106065237Y-111134797D01*
X106065237Y-111134797D02*
X106005713Y-111194321D01*
X106005713Y-111194321D02*
X105946190Y-111313369D01*
X105946190Y-111313369D02*
X105946190Y-111432416D01*
X105946190Y-111432416D02*
X106005713Y-111610988D01*
X106005713Y-111610988D02*
X106719999Y-112325273D01*
X106719999Y-112325273D02*
X105946190Y-112325273D01*
X105529523Y-111075273D02*
X104755714Y-111075273D01*
X104755714Y-111075273D02*
X105172380Y-111551464D01*
X105172380Y-111551464D02*
X104993809Y-111551464D01*
X104993809Y-111551464D02*
X104874761Y-111610988D01*
X104874761Y-111610988D02*
X104815237Y-111670511D01*
X104815237Y-111670511D02*
X104755714Y-111789559D01*
X104755714Y-111789559D02*
X104755714Y-112087178D01*
X104755714Y-112087178D02*
X104815237Y-112206226D01*
X104815237Y-112206226D02*
X104874761Y-112265750D01*
X104874761Y-112265750D02*
X104993809Y-112325273D01*
X104993809Y-112325273D02*
X105350952Y-112325273D01*
X105350952Y-112325273D02*
X105469999Y-112265750D01*
X105469999Y-112265750D02*
X105529523Y-112206226D01*
D12*
X102688784Y-93250000D02*
X100938784Y-93250000D01*
X100938784Y-93250000D02*
X100938784Y-93935714D01*
X100938784Y-93935714D02*
X101022117Y-94107143D01*
X101022117Y-94107143D02*
X101105451Y-94192857D01*
X101105451Y-94192857D02*
X101272117Y-94278571D01*
X101272117Y-94278571D02*
X101522117Y-94278571D01*
X101522117Y-94278571D02*
X101688784Y-94192857D01*
X101688784Y-94192857D02*
X101772117Y-94107143D01*
X101772117Y-94107143D02*
X101855451Y-93935714D01*
X101855451Y-93935714D02*
X101855451Y-93250000D01*
X102688784Y-95050000D02*
X101522117Y-95050000D01*
X100938784Y-95050000D02*
X101022117Y-94964286D01*
X101022117Y-94964286D02*
X101105451Y-95050000D01*
X101105451Y-95050000D02*
X101022117Y-95135714D01*
X101022117Y-95135714D02*
X100938784Y-95050000D01*
X100938784Y-95050000D02*
X101105451Y-95050000D01*
X102688784Y-95907143D02*
X101522117Y-95907143D01*
X101855451Y-95907143D02*
X101688784Y-95992857D01*
X101688784Y-95992857D02*
X101605451Y-96078572D01*
X101605451Y-96078572D02*
X101522117Y-96250000D01*
X101522117Y-96250000D02*
X101522117Y-96421429D01*
X102688784Y-97792858D02*
X101772117Y-97792858D01*
X101772117Y-97792858D02*
X101605451Y-97707143D01*
X101605451Y-97707143D02*
X101522117Y-97535715D01*
X101522117Y-97535715D02*
X101522117Y-97192858D01*
X101522117Y-97192858D02*
X101605451Y-97021429D01*
X102605451Y-97792858D02*
X102688784Y-97621429D01*
X102688784Y-97621429D02*
X102688784Y-97192858D01*
X102688784Y-97192858D02*
X102605451Y-97021429D01*
X102605451Y-97021429D02*
X102438784Y-96935715D01*
X102438784Y-96935715D02*
X102272117Y-96935715D01*
X102272117Y-96935715D02*
X102105451Y-97021429D01*
X102105451Y-97021429D02*
X102022117Y-97192858D01*
X102022117Y-97192858D02*
X102022117Y-97621429D01*
X102022117Y-97621429D02*
X101938784Y-97792858D01*
X101522117Y-98392857D02*
X101522117Y-99078571D01*
X100938784Y-98650000D02*
X102438784Y-98650000D01*
X102438784Y-98650000D02*
X102605451Y-98735714D01*
X102605451Y-98735714D02*
X102688784Y-98907143D01*
X102688784Y-98907143D02*
X102688784Y-99078571D01*
X102605451Y-100364285D02*
X102688784Y-100192857D01*
X102688784Y-100192857D02*
X102688784Y-99850000D01*
X102688784Y-99850000D02*
X102605451Y-99678571D01*
X102605451Y-99678571D02*
X102438784Y-99592857D01*
X102438784Y-99592857D02*
X101772117Y-99592857D01*
X101772117Y-99592857D02*
X101605451Y-99678571D01*
X101605451Y-99678571D02*
X101522117Y-99850000D01*
X101522117Y-99850000D02*
X101522117Y-100192857D01*
X101522117Y-100192857D02*
X101605451Y-100364285D01*
X101605451Y-100364285D02*
X101772117Y-100450000D01*
X101772117Y-100450000D02*
X101938784Y-100450000D01*
X101938784Y-100450000D02*
X102105451Y-99592857D01*
X100938784Y-103450000D02*
X100938784Y-102592857D01*
X100938784Y-102592857D02*
X101772117Y-102507143D01*
X101772117Y-102507143D02*
X101688784Y-102592857D01*
X101688784Y-102592857D02*
X101605451Y-102764286D01*
X101605451Y-102764286D02*
X101605451Y-103192857D01*
X101605451Y-103192857D02*
X101688784Y-103364286D01*
X101688784Y-103364286D02*
X101772117Y-103450000D01*
X101772117Y-103450000D02*
X101938784Y-103535714D01*
X101938784Y-103535714D02*
X102355451Y-103535714D01*
X102355451Y-103535714D02*
X102522117Y-103450000D01*
X102522117Y-103450000D02*
X102605451Y-103364286D01*
X102605451Y-103364286D02*
X102688784Y-103192857D01*
X102688784Y-103192857D02*
X102688784Y-102764286D01*
X102688784Y-102764286D02*
X102605451Y-102592857D01*
X102605451Y-102592857D02*
X102522117Y-102507143D01*
D13*
X101723417Y-80228571D02*
X101806751Y-80514285D01*
X101806751Y-80514285D02*
X101890084Y-80609523D01*
X101890084Y-80609523D02*
X102056751Y-80704761D01*
X102056751Y-80704761D02*
X102306751Y-80704761D01*
X102306751Y-80704761D02*
X102473417Y-80609523D01*
X102473417Y-80609523D02*
X102556751Y-80514285D01*
X102556751Y-80514285D02*
X102640084Y-80323809D01*
X102640084Y-80323809D02*
X102640084Y-79561904D01*
X102640084Y-79561904D02*
X100890084Y-79561904D01*
X100890084Y-79561904D02*
X100890084Y-80228571D01*
X100890084Y-80228571D02*
X100973417Y-80419047D01*
X100973417Y-80419047D02*
X101056751Y-80514285D01*
X101056751Y-80514285D02*
X101223417Y-80609523D01*
X101223417Y-80609523D02*
X101390084Y-80609523D01*
X101390084Y-80609523D02*
X101556751Y-80514285D01*
X101556751Y-80514285D02*
X101640084Y-80419047D01*
X101640084Y-80419047D02*
X101723417Y-80228571D01*
X101723417Y-80228571D02*
X101723417Y-79561904D01*
X101473417Y-82419047D02*
X102640084Y-82419047D01*
X101473417Y-81561904D02*
X102390084Y-81561904D01*
X102390084Y-81561904D02*
X102556751Y-81657142D01*
X102556751Y-81657142D02*
X102640084Y-81847618D01*
X102640084Y-81847618D02*
X102640084Y-82133333D01*
X102640084Y-82133333D02*
X102556751Y-82323809D01*
X102556751Y-82323809D02*
X102473417Y-82419047D01*
X102556751Y-83276190D02*
X102640084Y-83466666D01*
X102640084Y-83466666D02*
X102640084Y-83847618D01*
X102640084Y-83847618D02*
X102556751Y-84038095D01*
X102556751Y-84038095D02*
X102390084Y-84133333D01*
X102390084Y-84133333D02*
X102306751Y-84133333D01*
X102306751Y-84133333D02*
X102140084Y-84038095D01*
X102140084Y-84038095D02*
X102056751Y-83847618D01*
X102056751Y-83847618D02*
X102056751Y-83561904D01*
X102056751Y-83561904D02*
X101973417Y-83371428D01*
X101973417Y-83371428D02*
X101806751Y-83276190D01*
X101806751Y-83276190D02*
X101723417Y-83276190D01*
X101723417Y-83276190D02*
X101556751Y-83371428D01*
X101556751Y-83371428D02*
X101473417Y-83561904D01*
X101473417Y-83561904D02*
X101473417Y-83847618D01*
X101473417Y-83847618D02*
X101556751Y-84038095D01*
D14*
X138672743Y-115693819D02*
X138672743Y-114693819D01*
X138244172Y-115693819D02*
X138244172Y-115170009D01*
X138244172Y-115170009D02*
X138291791Y-115074771D01*
X138291791Y-115074771D02*
X138387029Y-115027152D01*
X138387029Y-115027152D02*
X138529886Y-115027152D01*
X138529886Y-115027152D02*
X138625124Y-115074771D01*
X138625124Y-115074771D02*
X138672743Y-115122390D01*
X137910838Y-115027152D02*
X137529886Y-115027152D01*
X137767981Y-114693819D02*
X137767981Y-115550961D01*
X137767981Y-115550961D02*
X137720362Y-115646200D01*
X137720362Y-115646200D02*
X137625124Y-115693819D01*
X137625124Y-115693819D02*
X137529886Y-115693819D01*
X137339409Y-115027152D02*
X136958457Y-115027152D01*
X137196552Y-114693819D02*
X137196552Y-115550961D01*
X137196552Y-115550961D02*
X137148933Y-115646200D01*
X137148933Y-115646200D02*
X137053695Y-115693819D01*
X137053695Y-115693819D02*
X136958457Y-115693819D01*
X136625123Y-115027152D02*
X136625123Y-116027152D01*
X136625123Y-115074771D02*
X136529885Y-115027152D01*
X136529885Y-115027152D02*
X136339409Y-115027152D01*
X136339409Y-115027152D02*
X136244171Y-115074771D01*
X136244171Y-115074771D02*
X136196552Y-115122390D01*
X136196552Y-115122390D02*
X136148933Y-115217628D01*
X136148933Y-115217628D02*
X136148933Y-115503342D01*
X136148933Y-115503342D02*
X136196552Y-115598580D01*
X136196552Y-115598580D02*
X136244171Y-115646200D01*
X136244171Y-115646200D02*
X136339409Y-115693819D01*
X136339409Y-115693819D02*
X136529885Y-115693819D01*
X136529885Y-115693819D02*
X136625123Y-115646200D01*
X135720361Y-115598580D02*
X135672742Y-115646200D01*
X135672742Y-115646200D02*
X135720361Y-115693819D01*
X135720361Y-115693819D02*
X135767980Y-115646200D01*
X135767980Y-115646200D02*
X135720361Y-115598580D01*
X135720361Y-115598580D02*
X135720361Y-115693819D01*
X135720361Y-115074771D02*
X135672742Y-115122390D01*
X135672742Y-115122390D02*
X135720361Y-115170009D01*
X135720361Y-115170009D02*
X135767980Y-115122390D01*
X135767980Y-115122390D02*
X135720361Y-115074771D01*
X135720361Y-115074771D02*
X135720361Y-115170009D01*
X134529886Y-114646200D02*
X135387028Y-115931914D01*
X133482267Y-114646200D02*
X134339409Y-115931914D01*
X133148933Y-115693819D02*
X133148933Y-114693819D01*
X133148933Y-115074771D02*
X133053695Y-115027152D01*
X133053695Y-115027152D02*
X132863219Y-115027152D01*
X132863219Y-115027152D02*
X132767981Y-115074771D01*
X132767981Y-115074771D02*
X132720362Y-115122390D01*
X132720362Y-115122390D02*
X132672743Y-115217628D01*
X132672743Y-115217628D02*
X132672743Y-115503342D01*
X132672743Y-115503342D02*
X132720362Y-115598580D01*
X132720362Y-115598580D02*
X132767981Y-115646200D01*
X132767981Y-115646200D02*
X132863219Y-115693819D01*
X132863219Y-115693819D02*
X133053695Y-115693819D01*
X133053695Y-115693819D02*
X133148933Y-115646200D01*
X131815600Y-115027152D02*
X131815600Y-115693819D01*
X132244171Y-115027152D02*
X132244171Y-115550961D01*
X132244171Y-115550961D02*
X132196552Y-115646200D01*
X132196552Y-115646200D02*
X132101314Y-115693819D01*
X132101314Y-115693819D02*
X131958457Y-115693819D01*
X131958457Y-115693819D02*
X131863219Y-115646200D01*
X131863219Y-115646200D02*
X131815600Y-115598580D01*
X131387028Y-115646200D02*
X131291790Y-115693819D01*
X131291790Y-115693819D02*
X131101314Y-115693819D01*
X131101314Y-115693819D02*
X131006076Y-115646200D01*
X131006076Y-115646200D02*
X130958457Y-115550961D01*
X130958457Y-115550961D02*
X130958457Y-115503342D01*
X130958457Y-115503342D02*
X131006076Y-115408104D01*
X131006076Y-115408104D02*
X131101314Y-115360485D01*
X131101314Y-115360485D02*
X131244171Y-115360485D01*
X131244171Y-115360485D02*
X131339409Y-115312866D01*
X131339409Y-115312866D02*
X131387028Y-115217628D01*
X131387028Y-115217628D02*
X131387028Y-115170009D01*
X131387028Y-115170009D02*
X131339409Y-115074771D01*
X131339409Y-115074771D02*
X131244171Y-115027152D01*
X131244171Y-115027152D02*
X131101314Y-115027152D01*
X131101314Y-115027152D02*
X131006076Y-115074771D01*
X130529885Y-115027152D02*
X130529885Y-116027152D01*
X130529885Y-115074771D02*
X130434647Y-115027152D01*
X130434647Y-115027152D02*
X130244171Y-115027152D01*
X130244171Y-115027152D02*
X130148933Y-115074771D01*
X130148933Y-115074771D02*
X130101314Y-115122390D01*
X130101314Y-115122390D02*
X130053695Y-115217628D01*
X130053695Y-115217628D02*
X130053695Y-115503342D01*
X130053695Y-115503342D02*
X130101314Y-115598580D01*
X130101314Y-115598580D02*
X130148933Y-115646200D01*
X130148933Y-115646200D02*
X130244171Y-115693819D01*
X130244171Y-115693819D02*
X130434647Y-115693819D01*
X130434647Y-115693819D02*
X130529885Y-115646200D01*
X129625123Y-115693819D02*
X129625123Y-115027152D01*
X129625123Y-114693819D02*
X129672742Y-114741438D01*
X129672742Y-114741438D02*
X129625123Y-114789057D01*
X129625123Y-114789057D02*
X129577504Y-114741438D01*
X129577504Y-114741438D02*
X129625123Y-114693819D01*
X129625123Y-114693819D02*
X129625123Y-114789057D01*
X129148933Y-115693819D02*
X129148933Y-115027152D01*
X129148933Y-115217628D02*
X129101314Y-115122390D01*
X129101314Y-115122390D02*
X129053695Y-115074771D01*
X129053695Y-115074771D02*
X128958457Y-115027152D01*
X128958457Y-115027152D02*
X128863219Y-115027152D01*
X128101314Y-115693819D02*
X128101314Y-115170009D01*
X128101314Y-115170009D02*
X128148933Y-115074771D01*
X128148933Y-115074771D02*
X128244171Y-115027152D01*
X128244171Y-115027152D02*
X128434647Y-115027152D01*
X128434647Y-115027152D02*
X128529885Y-115074771D01*
X128101314Y-115646200D02*
X128196552Y-115693819D01*
X128196552Y-115693819D02*
X128434647Y-115693819D01*
X128434647Y-115693819D02*
X128529885Y-115646200D01*
X128529885Y-115646200D02*
X128577504Y-115550961D01*
X128577504Y-115550961D02*
X128577504Y-115455723D01*
X128577504Y-115455723D02*
X128529885Y-115360485D01*
X128529885Y-115360485D02*
X128434647Y-115312866D01*
X128434647Y-115312866D02*
X128196552Y-115312866D01*
X128196552Y-115312866D02*
X128101314Y-115265247D01*
X127767980Y-115027152D02*
X127387028Y-115027152D01*
X127625123Y-114693819D02*
X127625123Y-115550961D01*
X127625123Y-115550961D02*
X127577504Y-115646200D01*
X127577504Y-115646200D02*
X127482266Y-115693819D01*
X127482266Y-115693819D02*
X127387028Y-115693819D01*
X126672742Y-115646200D02*
X126767980Y-115693819D01*
X126767980Y-115693819D02*
X126958456Y-115693819D01*
X126958456Y-115693819D02*
X127053694Y-115646200D01*
X127053694Y-115646200D02*
X127101313Y-115550961D01*
X127101313Y-115550961D02*
X127101313Y-115170009D01*
X127101313Y-115170009D02*
X127053694Y-115074771D01*
X127053694Y-115074771D02*
X126958456Y-115027152D01*
X126958456Y-115027152D02*
X126767980Y-115027152D01*
X126767980Y-115027152D02*
X126672742Y-115074771D01*
X126672742Y-115074771D02*
X126625123Y-115170009D01*
X126625123Y-115170009D02*
X126625123Y-115265247D01*
X126625123Y-115265247D02*
X127101313Y-115360485D01*
X126196551Y-115598580D02*
X126148932Y-115646200D01*
X126148932Y-115646200D02*
X126196551Y-115693819D01*
X126196551Y-115693819D02*
X126244170Y-115646200D01*
X126244170Y-115646200D02*
X126196551Y-115598580D01*
X126196551Y-115598580D02*
X126196551Y-115693819D01*
X125291790Y-115646200D02*
X125387028Y-115693819D01*
X125387028Y-115693819D02*
X125577504Y-115693819D01*
X125577504Y-115693819D02*
X125672742Y-115646200D01*
X125672742Y-115646200D02*
X125720361Y-115598580D01*
X125720361Y-115598580D02*
X125767980Y-115503342D01*
X125767980Y-115503342D02*
X125767980Y-115217628D01*
X125767980Y-115217628D02*
X125720361Y-115122390D01*
X125720361Y-115122390D02*
X125672742Y-115074771D01*
X125672742Y-115074771D02*
X125577504Y-115027152D01*
X125577504Y-115027152D02*
X125387028Y-115027152D01*
X125387028Y-115027152D02*
X125291790Y-115074771D01*
X124720361Y-115693819D02*
X124815599Y-115646200D01*
X124815599Y-115646200D02*
X124863218Y-115598580D01*
X124863218Y-115598580D02*
X124910837Y-115503342D01*
X124910837Y-115503342D02*
X124910837Y-115217628D01*
X124910837Y-115217628D02*
X124863218Y-115122390D01*
X124863218Y-115122390D02*
X124815599Y-115074771D01*
X124815599Y-115074771D02*
X124720361Y-115027152D01*
X124720361Y-115027152D02*
X124577504Y-115027152D01*
X124577504Y-115027152D02*
X124482266Y-115074771D01*
X124482266Y-115074771D02*
X124434647Y-115122390D01*
X124434647Y-115122390D02*
X124387028Y-115217628D01*
X124387028Y-115217628D02*
X124387028Y-115503342D01*
X124387028Y-115503342D02*
X124434647Y-115598580D01*
X124434647Y-115598580D02*
X124482266Y-115646200D01*
X124482266Y-115646200D02*
X124577504Y-115693819D01*
X124577504Y-115693819D02*
X124720361Y-115693819D01*
X123958456Y-115693819D02*
X123958456Y-115027152D01*
X123958456Y-115122390D02*
X123910837Y-115074771D01*
X123910837Y-115074771D02*
X123815599Y-115027152D01*
X123815599Y-115027152D02*
X123672742Y-115027152D01*
X123672742Y-115027152D02*
X123577504Y-115074771D01*
X123577504Y-115074771D02*
X123529885Y-115170009D01*
X123529885Y-115170009D02*
X123529885Y-115693819D01*
X123529885Y-115170009D02*
X123482266Y-115074771D01*
X123482266Y-115074771D02*
X123387028Y-115027152D01*
X123387028Y-115027152D02*
X123244171Y-115027152D01*
X123244171Y-115027152D02*
X123148932Y-115074771D01*
X123148932Y-115074771D02*
X123101313Y-115170009D01*
X123101313Y-115170009D02*
X123101313Y-115693819D01*
X139363220Y-117725819D02*
X139363220Y-116725819D01*
X138934649Y-117725819D02*
X138934649Y-117202009D01*
X138934649Y-117202009D02*
X138982268Y-117106771D01*
X138982268Y-117106771D02*
X139077506Y-117059152D01*
X139077506Y-117059152D02*
X139220363Y-117059152D01*
X139220363Y-117059152D02*
X139315601Y-117106771D01*
X139315601Y-117106771D02*
X139363220Y-117154390D01*
X138601315Y-117059152D02*
X138220363Y-117059152D01*
X138458458Y-116725819D02*
X138458458Y-117582961D01*
X138458458Y-117582961D02*
X138410839Y-117678200D01*
X138410839Y-117678200D02*
X138315601Y-117725819D01*
X138315601Y-117725819D02*
X138220363Y-117725819D01*
X138029886Y-117059152D02*
X137648934Y-117059152D01*
X137887029Y-116725819D02*
X137887029Y-117582961D01*
X137887029Y-117582961D02*
X137839410Y-117678200D01*
X137839410Y-117678200D02*
X137744172Y-117725819D01*
X137744172Y-117725819D02*
X137648934Y-117725819D01*
X137315600Y-117059152D02*
X137315600Y-118059152D01*
X137315600Y-117106771D02*
X137220362Y-117059152D01*
X137220362Y-117059152D02*
X137029886Y-117059152D01*
X137029886Y-117059152D02*
X136934648Y-117106771D01*
X136934648Y-117106771D02*
X136887029Y-117154390D01*
X136887029Y-117154390D02*
X136839410Y-117249628D01*
X136839410Y-117249628D02*
X136839410Y-117535342D01*
X136839410Y-117535342D02*
X136887029Y-117630580D01*
X136887029Y-117630580D02*
X136934648Y-117678200D01*
X136934648Y-117678200D02*
X137029886Y-117725819D01*
X137029886Y-117725819D02*
X137220362Y-117725819D01*
X137220362Y-117725819D02*
X137315600Y-117678200D01*
X136410838Y-117630580D02*
X136363219Y-117678200D01*
X136363219Y-117678200D02*
X136410838Y-117725819D01*
X136410838Y-117725819D02*
X136458457Y-117678200D01*
X136458457Y-117678200D02*
X136410838Y-117630580D01*
X136410838Y-117630580D02*
X136410838Y-117725819D01*
X136410838Y-117106771D02*
X136363219Y-117154390D01*
X136363219Y-117154390D02*
X136410838Y-117202009D01*
X136410838Y-117202009D02*
X136458457Y-117154390D01*
X136458457Y-117154390D02*
X136410838Y-117106771D01*
X136410838Y-117106771D02*
X136410838Y-117202009D01*
X135220363Y-116678200D02*
X136077505Y-117963914D01*
X134172744Y-116678200D02*
X135029886Y-117963914D01*
X133887029Y-117678200D02*
X133791791Y-117725819D01*
X133791791Y-117725819D02*
X133601315Y-117725819D01*
X133601315Y-117725819D02*
X133506077Y-117678200D01*
X133506077Y-117678200D02*
X133458458Y-117582961D01*
X133458458Y-117582961D02*
X133458458Y-117535342D01*
X133458458Y-117535342D02*
X133506077Y-117440104D01*
X133506077Y-117440104D02*
X133601315Y-117392485D01*
X133601315Y-117392485D02*
X133744172Y-117392485D01*
X133744172Y-117392485D02*
X133839410Y-117344866D01*
X133839410Y-117344866D02*
X133887029Y-117249628D01*
X133887029Y-117249628D02*
X133887029Y-117202009D01*
X133887029Y-117202009D02*
X133839410Y-117106771D01*
X133839410Y-117106771D02*
X133744172Y-117059152D01*
X133744172Y-117059152D02*
X133601315Y-117059152D01*
X133601315Y-117059152D02*
X133506077Y-117106771D01*
X133029886Y-117725819D02*
X133029886Y-117059152D01*
X133029886Y-117154390D02*
X132982267Y-117106771D01*
X132982267Y-117106771D02*
X132887029Y-117059152D01*
X132887029Y-117059152D02*
X132744172Y-117059152D01*
X132744172Y-117059152D02*
X132648934Y-117106771D01*
X132648934Y-117106771D02*
X132601315Y-117202009D01*
X132601315Y-117202009D02*
X132601315Y-117725819D01*
X132601315Y-117202009D02*
X132553696Y-117106771D01*
X132553696Y-117106771D02*
X132458458Y-117059152D01*
X132458458Y-117059152D02*
X132315601Y-117059152D01*
X132315601Y-117059152D02*
X132220362Y-117106771D01*
X132220362Y-117106771D02*
X132172743Y-117202009D01*
X132172743Y-117202009D02*
X132172743Y-117725819D01*
X131267982Y-117725819D02*
X131267982Y-116725819D01*
X131267982Y-117678200D02*
X131363220Y-117725819D01*
X131363220Y-117725819D02*
X131553696Y-117725819D01*
X131553696Y-117725819D02*
X131648934Y-117678200D01*
X131648934Y-117678200D02*
X131696553Y-117630580D01*
X131696553Y-117630580D02*
X131744172Y-117535342D01*
X131744172Y-117535342D02*
X131744172Y-117249628D01*
X131744172Y-117249628D02*
X131696553Y-117154390D01*
X131696553Y-117154390D02*
X131648934Y-117106771D01*
X131648934Y-117106771D02*
X131553696Y-117059152D01*
X131553696Y-117059152D02*
X131363220Y-117059152D01*
X131363220Y-117059152D02*
X131267982Y-117106771D01*
X130791791Y-117059152D02*
X130791791Y-118059152D01*
X130791791Y-117106771D02*
X130696553Y-117059152D01*
X130696553Y-117059152D02*
X130506077Y-117059152D01*
X130506077Y-117059152D02*
X130410839Y-117106771D01*
X130410839Y-117106771D02*
X130363220Y-117154390D01*
X130363220Y-117154390D02*
X130315601Y-117249628D01*
X130315601Y-117249628D02*
X130315601Y-117535342D01*
X130315601Y-117535342D02*
X130363220Y-117630580D01*
X130363220Y-117630580D02*
X130410839Y-117678200D01*
X130410839Y-117678200D02*
X130506077Y-117725819D01*
X130506077Y-117725819D02*
X130696553Y-117725819D01*
X130696553Y-117725819D02*
X130791791Y-117678200D01*
X129887029Y-117725819D02*
X129887029Y-117059152D01*
X129887029Y-117249628D02*
X129839410Y-117154390D01*
X129839410Y-117154390D02*
X129791791Y-117106771D01*
X129791791Y-117106771D02*
X129696553Y-117059152D01*
X129696553Y-117059152D02*
X129601315Y-117059152D01*
X128839410Y-117059152D02*
X128839410Y-117725819D01*
X129267981Y-117059152D02*
X129267981Y-117582961D01*
X129267981Y-117582961D02*
X129220362Y-117678200D01*
X129220362Y-117678200D02*
X129125124Y-117725819D01*
X129125124Y-117725819D02*
X128982267Y-117725819D01*
X128982267Y-117725819D02*
X128887029Y-117678200D01*
X128887029Y-117678200D02*
X128839410Y-117630580D01*
X128506076Y-117059152D02*
X128125124Y-117059152D01*
X128363219Y-116725819D02*
X128363219Y-117582961D01*
X128363219Y-117582961D02*
X128315600Y-117678200D01*
X128315600Y-117678200D02*
X128220362Y-117725819D01*
X128220362Y-117725819D02*
X128125124Y-117725819D01*
X127839409Y-117678200D02*
X127744171Y-117725819D01*
X127744171Y-117725819D02*
X127553695Y-117725819D01*
X127553695Y-117725819D02*
X127458457Y-117678200D01*
X127458457Y-117678200D02*
X127410838Y-117582961D01*
X127410838Y-117582961D02*
X127410838Y-117535342D01*
X127410838Y-117535342D02*
X127458457Y-117440104D01*
X127458457Y-117440104D02*
X127553695Y-117392485D01*
X127553695Y-117392485D02*
X127696552Y-117392485D01*
X127696552Y-117392485D02*
X127791790Y-117344866D01*
X127791790Y-117344866D02*
X127839409Y-117249628D01*
X127839409Y-117249628D02*
X127839409Y-117202009D01*
X127839409Y-117202009D02*
X127791790Y-117106771D01*
X127791790Y-117106771D02*
X127696552Y-117059152D01*
X127696552Y-117059152D02*
X127553695Y-117059152D01*
X127553695Y-117059152D02*
X127458457Y-117106771D01*
X126601314Y-117678200D02*
X126696552Y-117725819D01*
X126696552Y-117725819D02*
X126887028Y-117725819D01*
X126887028Y-117725819D02*
X126982266Y-117678200D01*
X126982266Y-117678200D02*
X127029885Y-117582961D01*
X127029885Y-117582961D02*
X127029885Y-117202009D01*
X127029885Y-117202009D02*
X126982266Y-117106771D01*
X126982266Y-117106771D02*
X126887028Y-117059152D01*
X126887028Y-117059152D02*
X126696552Y-117059152D01*
X126696552Y-117059152D02*
X126601314Y-117106771D01*
X126601314Y-117106771D02*
X126553695Y-117202009D01*
X126553695Y-117202009D02*
X126553695Y-117297247D01*
X126553695Y-117297247D02*
X127029885Y-117392485D01*
X126125123Y-117725819D02*
X126125123Y-117059152D01*
X126125123Y-117249628D02*
X126077504Y-117154390D01*
X126077504Y-117154390D02*
X126029885Y-117106771D01*
X126029885Y-117106771D02*
X125934647Y-117059152D01*
X125934647Y-117059152D02*
X125839409Y-117059152D01*
X125506075Y-117630580D02*
X125458456Y-117678200D01*
X125458456Y-117678200D02*
X125506075Y-117725819D01*
X125506075Y-117725819D02*
X125553694Y-117678200D01*
X125553694Y-117678200D02*
X125506075Y-117630580D01*
X125506075Y-117630580D02*
X125506075Y-117725819D01*
X124601314Y-117678200D02*
X124696552Y-117725819D01*
X124696552Y-117725819D02*
X124887028Y-117725819D01*
X124887028Y-117725819D02*
X124982266Y-117678200D01*
X124982266Y-117678200D02*
X125029885Y-117630580D01*
X125029885Y-117630580D02*
X125077504Y-117535342D01*
X125077504Y-117535342D02*
X125077504Y-117249628D01*
X125077504Y-117249628D02*
X125029885Y-117154390D01*
X125029885Y-117154390D02*
X124982266Y-117106771D01*
X124982266Y-117106771D02*
X124887028Y-117059152D01*
X124887028Y-117059152D02*
X124696552Y-117059152D01*
X124696552Y-117059152D02*
X124601314Y-117106771D01*
X124029885Y-117725819D02*
X124125123Y-117678200D01*
X124125123Y-117678200D02*
X124172742Y-117630580D01*
X124172742Y-117630580D02*
X124220361Y-117535342D01*
X124220361Y-117535342D02*
X124220361Y-117249628D01*
X124220361Y-117249628D02*
X124172742Y-117154390D01*
X124172742Y-117154390D02*
X124125123Y-117106771D01*
X124125123Y-117106771D02*
X124029885Y-117059152D01*
X124029885Y-117059152D02*
X123887028Y-117059152D01*
X123887028Y-117059152D02*
X123791790Y-117106771D01*
X123791790Y-117106771D02*
X123744171Y-117154390D01*
X123744171Y-117154390D02*
X123696552Y-117249628D01*
X123696552Y-117249628D02*
X123696552Y-117535342D01*
X123696552Y-117535342D02*
X123744171Y-117630580D01*
X123744171Y-117630580D02*
X123791790Y-117678200D01*
X123791790Y-117678200D02*
X123887028Y-117725819D01*
X123887028Y-117725819D02*
X124029885Y-117725819D01*
X123267980Y-117725819D02*
X123267980Y-117059152D01*
X123267980Y-117154390D02*
X123220361Y-117106771D01*
X123220361Y-117106771D02*
X123125123Y-117059152D01*
X123125123Y-117059152D02*
X122982266Y-117059152D01*
X122982266Y-117059152D02*
X122887028Y-117106771D01*
X122887028Y-117106771D02*
X122839409Y-117202009D01*
X122839409Y-117202009D02*
X122839409Y-117725819D01*
X122839409Y-117202009D02*
X122791790Y-117106771D01*
X122791790Y-117106771D02*
X122696552Y-117059152D01*
X122696552Y-117059152D02*
X122553695Y-117059152D01*
X122553695Y-117059152D02*
X122458456Y-117106771D01*
X122458456Y-117106771D02*
X122410837Y-117202009D01*
X122410837Y-117202009D02*
X122410837Y-117725819D01*
X115404819Y-110934285D02*
X116119104Y-110934285D01*
X116119104Y-110934285D02*
X116261961Y-110886666D01*
X116261961Y-110886666D02*
X116357200Y-110791428D01*
X116357200Y-110791428D02*
X116404819Y-110648571D01*
X116404819Y-110648571D02*
X116404819Y-110553333D01*
X115404819Y-111315238D02*
X115404819Y-111934285D01*
X115404819Y-111934285D02*
X115785771Y-111600952D01*
X115785771Y-111600952D02*
X115785771Y-111743809D01*
X115785771Y-111743809D02*
X115833390Y-111839047D01*
X115833390Y-111839047D02*
X115881009Y-111886666D01*
X115881009Y-111886666D02*
X115976247Y-111934285D01*
X115976247Y-111934285D02*
X116214342Y-111934285D01*
X116214342Y-111934285D02*
X116309580Y-111886666D01*
X116309580Y-111886666D02*
X116357200Y-111839047D01*
X116357200Y-111839047D02*
X116404819Y-111743809D01*
X116404819Y-111743809D02*
X116404819Y-111458095D01*
X116404819Y-111458095D02*
X116357200Y-111362857D01*
X116357200Y-111362857D02*
X116309580Y-111315238D01*
X115404819Y-112553333D02*
X115404819Y-112648571D01*
X115404819Y-112648571D02*
X115452438Y-112743809D01*
X115452438Y-112743809D02*
X115500057Y-112791428D01*
X115500057Y-112791428D02*
X115595295Y-112839047D01*
X115595295Y-112839047D02*
X115785771Y-112886666D01*
X115785771Y-112886666D02*
X116023866Y-112886666D01*
X116023866Y-112886666D02*
X116214342Y-112839047D01*
X116214342Y-112839047D02*
X116309580Y-112791428D01*
X116309580Y-112791428D02*
X116357200Y-112743809D01*
X116357200Y-112743809D02*
X116404819Y-112648571D01*
X116404819Y-112648571D02*
X116404819Y-112553333D01*
X116404819Y-112553333D02*
X116357200Y-112458095D01*
X116357200Y-112458095D02*
X116309580Y-112410476D01*
X116309580Y-112410476D02*
X116214342Y-112362857D01*
X116214342Y-112362857D02*
X116023866Y-112315238D01*
X116023866Y-112315238D02*
X115785771Y-112315238D01*
X115785771Y-112315238D02*
X115595295Y-112362857D01*
X115595295Y-112362857D02*
X115500057Y-112410476D01*
X115500057Y-112410476D02*
X115452438Y-112458095D01*
X115452438Y-112458095D02*
X115404819Y-112553333D01*
X116404819Y-113839047D02*
X116404819Y-113267619D01*
X116404819Y-113553333D02*
X115404819Y-113553333D01*
X115404819Y-113553333D02*
X115547676Y-113458095D01*
X115547676Y-113458095D02*
X115642914Y-113362857D01*
X115642914Y-113362857D02*
X115690533Y-113267619D01*
X132185713Y-64057200D02*
X132042856Y-64104819D01*
X132042856Y-64104819D02*
X131804761Y-64104819D01*
X131804761Y-64104819D02*
X131709523Y-64057200D01*
X131709523Y-64057200D02*
X131661904Y-64009580D01*
X131661904Y-64009580D02*
X131614285Y-63914342D01*
X131614285Y-63914342D02*
X131614285Y-63819104D01*
X131614285Y-63819104D02*
X131661904Y-63723866D01*
X131661904Y-63723866D02*
X131709523Y-63676247D01*
X131709523Y-63676247D02*
X131804761Y-63628628D01*
X131804761Y-63628628D02*
X131995237Y-63581009D01*
X131995237Y-63581009D02*
X132090475Y-63533390D01*
X132090475Y-63533390D02*
X132138094Y-63485771D01*
X132138094Y-63485771D02*
X132185713Y-63390533D01*
X132185713Y-63390533D02*
X132185713Y-63295295D01*
X132185713Y-63295295D02*
X132138094Y-63200057D01*
X132138094Y-63200057D02*
X132090475Y-63152438D01*
X132090475Y-63152438D02*
X131995237Y-63104819D01*
X131995237Y-63104819D02*
X131757142Y-63104819D01*
X131757142Y-63104819D02*
X131614285Y-63152438D01*
X131280951Y-63104819D02*
X131042856Y-64104819D01*
X131042856Y-64104819D02*
X130852380Y-63390533D01*
X130852380Y-63390533D02*
X130661904Y-64104819D01*
X130661904Y-64104819D02*
X130423809Y-63104819D01*
X129519047Y-64104819D02*
X130090475Y-64104819D01*
X129804761Y-64104819D02*
X129804761Y-63104819D01*
X129804761Y-63104819D02*
X129899999Y-63247676D01*
X129899999Y-63247676D02*
X129995237Y-63342914D01*
X129995237Y-63342914D02*
X130090475Y-63390533D01*
X128899999Y-63104819D02*
X128804761Y-63104819D01*
X128804761Y-63104819D02*
X128709523Y-63152438D01*
X128709523Y-63152438D02*
X128661904Y-63200057D01*
X128661904Y-63200057D02*
X128614285Y-63295295D01*
X128614285Y-63295295D02*
X128566666Y-63485771D01*
X128566666Y-63485771D02*
X128566666Y-63723866D01*
X128566666Y-63723866D02*
X128614285Y-63914342D01*
X128614285Y-63914342D02*
X128661904Y-64009580D01*
X128661904Y-64009580D02*
X128709523Y-64057200D01*
X128709523Y-64057200D02*
X128804761Y-64104819D01*
X128804761Y-64104819D02*
X128899999Y-64104819D01*
X128899999Y-64104819D02*
X128995237Y-64057200D01*
X128995237Y-64057200D02*
X129042856Y-64009580D01*
X129042856Y-64009580D02*
X129090475Y-63914342D01*
X129090475Y-63914342D02*
X129138094Y-63723866D01*
X129138094Y-63723866D02*
X129138094Y-63485771D01*
X129138094Y-63485771D02*
X129090475Y-63295295D01*
X129090475Y-63295295D02*
X129042856Y-63200057D01*
X129042856Y-63200057D02*
X128995237Y-63152438D01*
X128995237Y-63152438D02*
X128899999Y-63104819D01*
X128185713Y-63200057D02*
X128138094Y-63152438D01*
X128138094Y-63152438D02*
X128042856Y-63104819D01*
X128042856Y-63104819D02*
X127804761Y-63104819D01*
X127804761Y-63104819D02*
X127709523Y-63152438D01*
X127709523Y-63152438D02*
X127661904Y-63200057D01*
X127661904Y-63200057D02*
X127614285Y-63295295D01*
X127614285Y-63295295D02*
X127614285Y-63390533D01*
X127614285Y-63390533D02*
X127661904Y-63533390D01*
X127661904Y-63533390D02*
X128233332Y-64104819D01*
X128233332Y-64104819D02*
X127614285Y-64104819D01*
X156254819Y-71930952D02*
X156254819Y-71454762D01*
X156254819Y-71454762D02*
X155254819Y-71454762D01*
X156159580Y-72835714D02*
X156207200Y-72788095D01*
X156207200Y-72788095D02*
X156254819Y-72645238D01*
X156254819Y-72645238D02*
X156254819Y-72550000D01*
X156254819Y-72550000D02*
X156207200Y-72407143D01*
X156207200Y-72407143D02*
X156111961Y-72311905D01*
X156111961Y-72311905D02*
X156016723Y-72264286D01*
X156016723Y-72264286D02*
X155826247Y-72216667D01*
X155826247Y-72216667D02*
X155683390Y-72216667D01*
X155683390Y-72216667D02*
X155492914Y-72264286D01*
X155492914Y-72264286D02*
X155397676Y-72311905D01*
X155397676Y-72311905D02*
X155302438Y-72407143D01*
X155302438Y-72407143D02*
X155254819Y-72550000D01*
X155254819Y-72550000D02*
X155254819Y-72645238D01*
X155254819Y-72645238D02*
X155302438Y-72788095D01*
X155302438Y-72788095D02*
X155350057Y-72835714D01*
X156254819Y-73264286D02*
X155254819Y-73264286D01*
X155254819Y-73264286D02*
X155254819Y-73502381D01*
X155254819Y-73502381D02*
X155302438Y-73645238D01*
X155302438Y-73645238D02*
X155397676Y-73740476D01*
X155397676Y-73740476D02*
X155492914Y-73788095D01*
X155492914Y-73788095D02*
X155683390Y-73835714D01*
X155683390Y-73835714D02*
X155826247Y-73835714D01*
X155826247Y-73835714D02*
X156016723Y-73788095D01*
X156016723Y-73788095D02*
X156111961Y-73740476D01*
X156111961Y-73740476D02*
X156207200Y-73645238D01*
X156207200Y-73645238D02*
X156254819Y-73502381D01*
X156254819Y-73502381D02*
X156254819Y-73264286D01*
X155350057Y-74216667D02*
X155302438Y-74264286D01*
X155302438Y-74264286D02*
X155254819Y-74359524D01*
X155254819Y-74359524D02*
X155254819Y-74597619D01*
X155254819Y-74597619D02*
X155302438Y-74692857D01*
X155302438Y-74692857D02*
X155350057Y-74740476D01*
X155350057Y-74740476D02*
X155445295Y-74788095D01*
X155445295Y-74788095D02*
X155540533Y-74788095D01*
X155540533Y-74788095D02*
X155683390Y-74740476D01*
X155683390Y-74740476D02*
X156254819Y-74169048D01*
X156254819Y-74169048D02*
X156254819Y-74788095D01*
X155254819Y-75407143D02*
X155254819Y-75502381D01*
X155254819Y-75502381D02*
X155302438Y-75597619D01*
X155302438Y-75597619D02*
X155350057Y-75645238D01*
X155350057Y-75645238D02*
X155445295Y-75692857D01*
X155445295Y-75692857D02*
X155635771Y-75740476D01*
X155635771Y-75740476D02*
X155873866Y-75740476D01*
X155873866Y-75740476D02*
X156064342Y-75692857D01*
X156064342Y-75692857D02*
X156159580Y-75645238D01*
X156159580Y-75645238D02*
X156207200Y-75597619D01*
X156207200Y-75597619D02*
X156254819Y-75502381D01*
X156254819Y-75502381D02*
X156254819Y-75407143D01*
X156254819Y-75407143D02*
X156207200Y-75311905D01*
X156207200Y-75311905D02*
X156159580Y-75264286D01*
X156159580Y-75264286D02*
X156064342Y-75216667D01*
X156064342Y-75216667D02*
X155873866Y-75169048D01*
X155873866Y-75169048D02*
X155635771Y-75169048D01*
X155635771Y-75169048D02*
X155445295Y-75216667D01*
X155445295Y-75216667D02*
X155350057Y-75264286D01*
X155350057Y-75264286D02*
X155302438Y-75311905D01*
X155302438Y-75311905D02*
X155254819Y-75407143D01*
X156254819Y-76692857D02*
X156254819Y-76121429D01*
X156254819Y-76407143D02*
X155254819Y-76407143D01*
X155254819Y-76407143D02*
X155397676Y-76311905D01*
X155397676Y-76311905D02*
X155492914Y-76216667D01*
X155492914Y-76216667D02*
X155540533Y-76121429D01*
D15*
X142660000Y-110890000D02*
X142660000Y-113550000D01*
X119740000Y-110890000D02*
X142660000Y-110890000D01*
X119740000Y-110890000D02*
X119740000Y-113550000D01*
X118470000Y-110890000D02*
X117140000Y-110890000D01*
X117140000Y-110890000D02*
X117140000Y-112220000D01*
X119740000Y-113550000D02*
X142660000Y-113550000D01*
X128220000Y-68680000D02*
X128220000Y-65320000D01*
X131580000Y-68680000D02*
X128220000Y-68680000D01*
X131580000Y-68680000D02*
X131580000Y-65320000D01*
D16*
X128350000Y-68550000D02*
X128350000Y-65450000D01*
X131450000Y-68550000D02*
X128350000Y-68550000D01*
X131450000Y-68550000D02*
X131450000Y-65450000D01*
X131450000Y-65450000D02*
X128350000Y-65450000D01*
D15*
X131580000Y-65320000D02*
X128220000Y-65320000D01*
X130800000Y-67000000D02*
G75*
G03*
X130800000Y-67000000I-900000J0D01*
G01*
D17*
X116344586Y-65983044D02*
X116645905Y-66023935D01*
X116929325Y-66103053D01*
X117195756Y-66220759D01*
X117446108Y-66377411D01*
X117681293Y-66573369D01*
X117686226Y-66578050D01*
X117901357Y-66809490D01*
X118077463Y-67057311D01*
X118214503Y-67321423D01*
X118312438Y-67601733D01*
X118371228Y-67898150D01*
X118390833Y-68210583D01*
X118384854Y-68383497D01*
X118343273Y-68687828D01*
X118262383Y-68976919D01*
X118142557Y-69249827D01*
X117984167Y-69505607D01*
X117787583Y-69743313D01*
X117651902Y-69876382D01*
X117410260Y-70067557D01*
X117147844Y-70221858D01*
X116864461Y-70339393D01*
X116559917Y-70420269D01*
X116532169Y-70424283D01*
X116455128Y-70430132D01*
X116351503Y-70434011D01*
X116231377Y-70435601D01*
X116104833Y-70434585D01*
X115959253Y-70430660D01*
X115842210Y-70424361D01*
X115747701Y-70414740D01*
X115665717Y-70400769D01*
X115586250Y-70381424D01*
X115518527Y-70360901D01*
X115362686Y-70303108D01*
X115197603Y-70230384D01*
X115039535Y-70150158D01*
X114904736Y-70069864D01*
X114863652Y-70041092D01*
X114764222Y-69962331D01*
X114657041Y-69867837D01*
X114552720Y-69767605D01*
X114461874Y-69671631D01*
X114395115Y-69589909D01*
X114326384Y-69494203D01*
X114665461Y-69241730D01*
X115004537Y-68989257D01*
X115189560Y-69173454D01*
X115324059Y-69294742D01*
X115511853Y-69423307D01*
X115710498Y-69512862D01*
X115924346Y-69565248D01*
X116157750Y-69582301D01*
X116202054Y-69581599D01*
X116436315Y-69554037D01*
X116657808Y-69488587D01*
X116862827Y-69388293D01*
X117047663Y-69256201D01*
X117208608Y-69095356D01*
X117341954Y-68908806D01*
X117443993Y-68699594D01*
X117511017Y-68470767D01*
X117516363Y-68443257D01*
X117539718Y-68226538D01*
X117526422Y-68017475D01*
X117475424Y-67808710D01*
X117385674Y-67592886D01*
X117335826Y-67500800D01*
X117201439Y-67312036D01*
X117040979Y-67152163D01*
X116858940Y-67022715D01*
X116659813Y-66925227D01*
X116448090Y-66861233D01*
X116228264Y-66832268D01*
X116004826Y-66839866D01*
X115782268Y-66885564D01*
X115565083Y-66970894D01*
X115422606Y-67050214D01*
X115253877Y-67175562D01*
X115104510Y-67328937D01*
X115015839Y-67434122D01*
X114951795Y-67389062D01*
X114932103Y-67374961D01*
X114876556Y-67334481D01*
X114798955Y-67277456D01*
X114706723Y-67209348D01*
X114607286Y-67135620D01*
X114512603Y-67064637D01*
X114434692Y-67003999D01*
X114383416Y-66960167D01*
X114354540Y-66929133D01*
X114343830Y-66906893D01*
X114347051Y-66889440D01*
X114373942Y-66850757D01*
X114427711Y-66787364D01*
X114499035Y-66710442D01*
X114580371Y-66627650D01*
X114664171Y-66546646D01*
X114742890Y-66475087D01*
X114808983Y-66420633D01*
X114830602Y-66404747D01*
X114921399Y-66343884D01*
X115026364Y-66279945D01*
X115126901Y-66224410D01*
X115241618Y-66168204D01*
X115462721Y-66079294D01*
X115682258Y-66019792D01*
X115913153Y-65986622D01*
X116168333Y-65976712D01*
X116344586Y-65983044D01*
G36*
X116344586Y-65983044D02*
G01*
X116645905Y-66023935D01*
X116929325Y-66103053D01*
X117195756Y-66220759D01*
X117446108Y-66377411D01*
X117681293Y-66573369D01*
X117686226Y-66578050D01*
X117901357Y-66809490D01*
X118077463Y-67057311D01*
X118214503Y-67321423D01*
X118312438Y-67601733D01*
X118371228Y-67898150D01*
X118390833Y-68210583D01*
X118384854Y-68383497D01*
X118343273Y-68687828D01*
X118262383Y-68976919D01*
X118142557Y-69249827D01*
X117984167Y-69505607D01*
X117787583Y-69743313D01*
X117651902Y-69876382D01*
X117410260Y-70067557D01*
X117147844Y-70221858D01*
X116864461Y-70339393D01*
X116559917Y-70420269D01*
X116532169Y-70424283D01*
X116455128Y-70430132D01*
X116351503Y-70434011D01*
X116231377Y-70435601D01*
X116104833Y-70434585D01*
X115959253Y-70430660D01*
X115842210Y-70424361D01*
X115747701Y-70414740D01*
X115665717Y-70400769D01*
X115586250Y-70381424D01*
X115518527Y-70360901D01*
X115362686Y-70303108D01*
X115197603Y-70230384D01*
X115039535Y-70150158D01*
X114904736Y-70069864D01*
X114863652Y-70041092D01*
X114764222Y-69962331D01*
X114657041Y-69867837D01*
X114552720Y-69767605D01*
X114461874Y-69671631D01*
X114395115Y-69589909D01*
X114326384Y-69494203D01*
X114665461Y-69241730D01*
X115004537Y-68989257D01*
X115189560Y-69173454D01*
X115324059Y-69294742D01*
X115511853Y-69423307D01*
X115710498Y-69512862D01*
X115924346Y-69565248D01*
X116157750Y-69582301D01*
X116202054Y-69581599D01*
X116436315Y-69554037D01*
X116657808Y-69488587D01*
X116862827Y-69388293D01*
X117047663Y-69256201D01*
X117208608Y-69095356D01*
X117341954Y-68908806D01*
X117443993Y-68699594D01*
X117511017Y-68470767D01*
X117516363Y-68443257D01*
X117539718Y-68226538D01*
X117526422Y-68017475D01*
X117475424Y-67808710D01*
X117385674Y-67592886D01*
X117335826Y-67500800D01*
X117201439Y-67312036D01*
X117040979Y-67152163D01*
X116858940Y-67022715D01*
X116659813Y-66925227D01*
X116448090Y-66861233D01*
X116228264Y-66832268D01*
X116004826Y-66839866D01*
X115782268Y-66885564D01*
X115565083Y-66970894D01*
X115422606Y-67050214D01*
X115253877Y-67175562D01*
X115104510Y-67328937D01*
X115015839Y-67434122D01*
X114951795Y-67389062D01*
X114932103Y-67374961D01*
X114876556Y-67334481D01*
X114798955Y-67277456D01*
X114706723Y-67209348D01*
X114607286Y-67135620D01*
X114512603Y-67064637D01*
X114434692Y-67003999D01*
X114383416Y-66960167D01*
X114354540Y-66929133D01*
X114343830Y-66906893D01*
X114347051Y-66889440D01*
X114373942Y-66850757D01*
X114427711Y-66787364D01*
X114499035Y-66710442D01*
X114580371Y-66627650D01*
X114664171Y-66546646D01*
X114742890Y-66475087D01*
X114808983Y-66420633D01*
X114830602Y-66404747D01*
X114921399Y-66343884D01*
X115026364Y-66279945D01*
X115126901Y-66224410D01*
X115241618Y-66168204D01*
X115462721Y-66079294D01*
X115682258Y-66019792D01*
X115913153Y-65986622D01*
X116168333Y-65976712D01*
X116344586Y-65983044D01*
G37*
X122264333Y-68212347D02*
X122264280Y-68513343D01*
X122264048Y-68907015D01*
X122263639Y-69287563D01*
X122263064Y-69652901D01*
X122262332Y-70000944D01*
X122261451Y-70329603D01*
X122260433Y-70636794D01*
X122259287Y-70920428D01*
X122258021Y-71178421D01*
X122256645Y-71408686D01*
X122255170Y-71609136D01*
X122253604Y-71777684D01*
X122251958Y-71912245D01*
X122250239Y-72010732D01*
X122248459Y-72071059D01*
X122246627Y-72091138D01*
X122241511Y-72088122D01*
X122207325Y-72064678D01*
X122146407Y-72021366D01*
X122063936Y-71961911D01*
X121965088Y-71890038D01*
X121855044Y-71809471D01*
X121481167Y-71534860D01*
X121481167Y-68644500D01*
X120023261Y-68644500D01*
X120009236Y-68745041D01*
X119943253Y-69093709D01*
X119832896Y-69469998D01*
X119685172Y-69835259D01*
X119502506Y-70184902D01*
X119287319Y-70514336D01*
X119042036Y-70818972D01*
X118769078Y-71094220D01*
X118721312Y-71136812D01*
X118403572Y-71388376D01*
X118065141Y-71603275D01*
X117705366Y-71781838D01*
X117323595Y-71924397D01*
X116919175Y-72031282D01*
X116902273Y-72034783D01*
X116750276Y-72058607D01*
X116569038Y-72076371D01*
X116369811Y-72087790D01*
X116163843Y-72092577D01*
X115962385Y-72090448D01*
X115776687Y-72081117D01*
X115618000Y-72064299D01*
X115595072Y-72060890D01*
X115191133Y-71979795D01*
X114807896Y-71861814D01*
X114444887Y-71706716D01*
X114101633Y-71514270D01*
X113777664Y-71284245D01*
X113472505Y-71016412D01*
X113461529Y-71005727D01*
X113372781Y-70916344D01*
X113284037Y-70822309D01*
X113200272Y-70729400D01*
X113126460Y-70643393D01*
X113067577Y-70570067D01*
X113028599Y-70515199D01*
X113014500Y-70484566D01*
X113021409Y-70474914D01*
X113056478Y-70442939D01*
X113115553Y-70394455D01*
X113192272Y-70334205D01*
X113280272Y-70266934D01*
X113373190Y-70197388D01*
X113464665Y-70130312D01*
X113548334Y-70070451D01*
X113617835Y-70022550D01*
X113666805Y-69991354D01*
X113688881Y-69981608D01*
X113707122Y-69998206D01*
X113746751Y-70041306D01*
X113801422Y-70104050D01*
X113865128Y-70179689D01*
X113905634Y-70227324D01*
X114137385Y-70462189D01*
X114399267Y-70671426D01*
X114686361Y-70852234D01*
X114993751Y-71001812D01*
X115316520Y-71117360D01*
X115649750Y-71196077D01*
X115654484Y-71196904D01*
X115841018Y-71220295D01*
X116051585Y-71231907D01*
X116270012Y-71231742D01*
X116480125Y-71219799D01*
X116665750Y-71196077D01*
X116907795Y-71143476D01*
X117244263Y-71035358D01*
X117561705Y-70891531D01*
X117857866Y-70714238D01*
X118130495Y-70505725D01*
X118377340Y-70268236D01*
X118596147Y-70004015D01*
X118784665Y-69715307D01*
X118940641Y-69404356D01*
X119061822Y-69073406D01*
X119145956Y-68724703D01*
X119164215Y-68592212D01*
X119177187Y-68414902D01*
X119181875Y-68222713D01*
X119178274Y-68029743D01*
X119166382Y-67850090D01*
X119146196Y-67697851D01*
X119117400Y-67557124D01*
X119017945Y-67211617D01*
X118882479Y-66886062D01*
X118712906Y-66582402D01*
X118511125Y-66302577D01*
X118279041Y-66048527D01*
X118018553Y-65822195D01*
X117731566Y-65625520D01*
X117419979Y-65460443D01*
X117085696Y-65328907D01*
X116730619Y-65232850D01*
X116716164Y-65229864D01*
X116555099Y-65205599D01*
X116368101Y-65190451D01*
X116168600Y-65184538D01*
X115970023Y-65187976D01*
X115785797Y-65200878D01*
X115629351Y-65223362D01*
X115464084Y-65260140D01*
X115119881Y-65365924D01*
X114796011Y-65507938D01*
X114489064Y-65687808D01*
X114195628Y-65907163D01*
X114175879Y-65923895D01*
X114080160Y-66011402D01*
X113979412Y-66112110D01*
X113883041Y-66215965D01*
X113800455Y-66312916D01*
X113741060Y-66392910D01*
X113713233Y-66427249D01*
X113688511Y-66443166D01*
X113677899Y-66438809D01*
X113637533Y-66413622D01*
X113574470Y-66370160D01*
X113495058Y-66313192D01*
X113405643Y-66247485D01*
X113312571Y-66177808D01*
X113222190Y-66108930D01*
X113140846Y-66045618D01*
X113074885Y-65992642D01*
X113030654Y-65954769D01*
X113014500Y-65936768D01*
X113014715Y-65934547D01*
X113032076Y-65900618D01*
X113073732Y-65843150D01*
X113134713Y-65767915D01*
X113210050Y-65680686D01*
X113294774Y-65587234D01*
X113383916Y-65493333D01*
X113472505Y-65404754D01*
X113608146Y-65278939D01*
X113922739Y-65027036D01*
X114255124Y-64813507D01*
X114604934Y-64638499D01*
X114971799Y-64502160D01*
X115355352Y-64404637D01*
X115755225Y-64346076D01*
X116171050Y-64326624D01*
X116423623Y-64333399D01*
X116786424Y-64369874D01*
X117132875Y-64439482D01*
X117470983Y-64543975D01*
X117808750Y-64685106D01*
X118089401Y-64831652D01*
X118421794Y-65046713D01*
X118729077Y-65293355D01*
X119009252Y-65568863D01*
X119260324Y-65870524D01*
X119480294Y-66195624D01*
X119667168Y-66541448D01*
X119818947Y-66905282D01*
X119933636Y-67284412D01*
X120009236Y-67676125D01*
X120023261Y-67776666D01*
X121481167Y-67776666D01*
X121481167Y-65258278D01*
X120556704Y-65252764D01*
X119632242Y-65247250D01*
X119307871Y-64796584D01*
X119225948Y-64682448D01*
X119147327Y-64572250D01*
X119080524Y-64477918D01*
X119028787Y-64404061D01*
X118995363Y-64355288D01*
X118983500Y-64336209D01*
X118984600Y-64335852D01*
X119014457Y-64334333D01*
X119082693Y-64332892D01*
X119186088Y-64331549D01*
X119321423Y-64330324D01*
X119485479Y-64329235D01*
X119675038Y-64328301D01*
X119886880Y-64327541D01*
X120117787Y-64326975D01*
X120364539Y-64326622D01*
X120623917Y-64326500D01*
X122264333Y-64326500D01*
X122264333Y-68212347D01*
G36*
X122264333Y-68212347D02*
G01*
X122264280Y-68513343D01*
X122264048Y-68907015D01*
X122263639Y-69287563D01*
X122263064Y-69652901D01*
X122262332Y-70000944D01*
X122261451Y-70329603D01*
X122260433Y-70636794D01*
X122259287Y-70920428D01*
X122258021Y-71178421D01*
X122256645Y-71408686D01*
X122255170Y-71609136D01*
X122253604Y-71777684D01*
X122251958Y-71912245D01*
X122250239Y-72010732D01*
X122248459Y-72071059D01*
X122246627Y-72091138D01*
X122241511Y-72088122D01*
X122207325Y-72064678D01*
X122146407Y-72021366D01*
X122063936Y-71961911D01*
X121965088Y-71890038D01*
X121855044Y-71809471D01*
X121481167Y-71534860D01*
X121481167Y-68644500D01*
X120023261Y-68644500D01*
X120009236Y-68745041D01*
X119943253Y-69093709D01*
X119832896Y-69469998D01*
X119685172Y-69835259D01*
X119502506Y-70184902D01*
X119287319Y-70514336D01*
X119042036Y-70818972D01*
X118769078Y-71094220D01*
X118721312Y-71136812D01*
X118403572Y-71388376D01*
X118065141Y-71603275D01*
X117705366Y-71781838D01*
X117323595Y-71924397D01*
X116919175Y-72031282D01*
X116902273Y-72034783D01*
X116750276Y-72058607D01*
X116569038Y-72076371D01*
X116369811Y-72087790D01*
X116163843Y-72092577D01*
X115962385Y-72090448D01*
X115776687Y-72081117D01*
X115618000Y-72064299D01*
X115595072Y-72060890D01*
X115191133Y-71979795D01*
X114807896Y-71861814D01*
X114444887Y-71706716D01*
X114101633Y-71514270D01*
X113777664Y-71284245D01*
X113472505Y-71016412D01*
X113461529Y-71005727D01*
X113372781Y-70916344D01*
X113284037Y-70822309D01*
X113200272Y-70729400D01*
X113126460Y-70643393D01*
X113067577Y-70570067D01*
X113028599Y-70515199D01*
X113014500Y-70484566D01*
X113021409Y-70474914D01*
X113056478Y-70442939D01*
X113115553Y-70394455D01*
X113192272Y-70334205D01*
X113280272Y-70266934D01*
X113373190Y-70197388D01*
X113464665Y-70130312D01*
X113548334Y-70070451D01*
X113617835Y-70022550D01*
X113666805Y-69991354D01*
X113688881Y-69981608D01*
X113707122Y-69998206D01*
X113746751Y-70041306D01*
X113801422Y-70104050D01*
X113865128Y-70179689D01*
X113905634Y-70227324D01*
X114137385Y-70462189D01*
X114399267Y-70671426D01*
X114686361Y-70852234D01*
X114993751Y-71001812D01*
X115316520Y-71117360D01*
X115649750Y-71196077D01*
X115654484Y-71196904D01*
X115841018Y-71220295D01*
X116051585Y-71231907D01*
X116270012Y-71231742D01*
X116480125Y-71219799D01*
X116665750Y-71196077D01*
X116907795Y-71143476D01*
X117244263Y-71035358D01*
X117561705Y-70891531D01*
X117857866Y-70714238D01*
X118130495Y-70505725D01*
X118377340Y-70268236D01*
X118596147Y-70004015D01*
X118784665Y-69715307D01*
X118940641Y-69404356D01*
X119061822Y-69073406D01*
X119145956Y-68724703D01*
X119164215Y-68592212D01*
X119177187Y-68414902D01*
X119181875Y-68222713D01*
X119178274Y-68029743D01*
X119166382Y-67850090D01*
X119146196Y-67697851D01*
X119117400Y-67557124D01*
X119017945Y-67211617D01*
X118882479Y-66886062D01*
X118712906Y-66582402D01*
X118511125Y-66302577D01*
X118279041Y-66048527D01*
X118018553Y-65822195D01*
X117731566Y-65625520D01*
X117419979Y-65460443D01*
X117085696Y-65328907D01*
X116730619Y-65232850D01*
X116716164Y-65229864D01*
X116555099Y-65205599D01*
X116368101Y-65190451D01*
X116168600Y-65184538D01*
X115970023Y-65187976D01*
X115785797Y-65200878D01*
X115629351Y-65223362D01*
X115464084Y-65260140D01*
X115119881Y-65365924D01*
X114796011Y-65507938D01*
X114489064Y-65687808D01*
X114195628Y-65907163D01*
X114175879Y-65923895D01*
X114080160Y-66011402D01*
X113979412Y-66112110D01*
X113883041Y-66215965D01*
X113800455Y-66312916D01*
X113741060Y-66392910D01*
X113713233Y-66427249D01*
X113688511Y-66443166D01*
X113677899Y-66438809D01*
X113637533Y-66413622D01*
X113574470Y-66370160D01*
X113495058Y-66313192D01*
X113405643Y-66247485D01*
X113312571Y-66177808D01*
X113222190Y-66108930D01*
X113140846Y-66045618D01*
X113074885Y-65992642D01*
X113030654Y-65954769D01*
X113014500Y-65936768D01*
X113014715Y-65934547D01*
X113032076Y-65900618D01*
X113073732Y-65843150D01*
X113134713Y-65767915D01*
X113210050Y-65680686D01*
X113294774Y-65587234D01*
X113383916Y-65493333D01*
X113472505Y-65404754D01*
X113608146Y-65278939D01*
X113922739Y-65027036D01*
X114255124Y-64813507D01*
X114604934Y-64638499D01*
X114971799Y-64502160D01*
X115355352Y-64404637D01*
X115755225Y-64346076D01*
X116171050Y-64326624D01*
X116423623Y-64333399D01*
X116786424Y-64369874D01*
X117132875Y-64439482D01*
X117470983Y-64543975D01*
X117808750Y-64685106D01*
X118089401Y-64831652D01*
X118421794Y-65046713D01*
X118729077Y-65293355D01*
X119009252Y-65568863D01*
X119260324Y-65870524D01*
X119480294Y-66195624D01*
X119667168Y-66541448D01*
X119818947Y-66905282D01*
X119933636Y-67284412D01*
X120009236Y-67676125D01*
X120023261Y-67776666D01*
X121481167Y-67776666D01*
X121481167Y-65258278D01*
X120556704Y-65252764D01*
X119632242Y-65247250D01*
X119307871Y-64796584D01*
X119225948Y-64682448D01*
X119147327Y-64572250D01*
X119080524Y-64477918D01*
X119028787Y-64404061D01*
X118995363Y-64355288D01*
X118983500Y-64336209D01*
X118984600Y-64335852D01*
X119014457Y-64334333D01*
X119082693Y-64332892D01*
X119186088Y-64331549D01*
X119321423Y-64330324D01*
X119485479Y-64329235D01*
X119675038Y-64328301D01*
X119886880Y-64327541D01*
X120117787Y-64326975D01*
X120364539Y-64326622D01*
X120623917Y-64326500D01*
X122264333Y-64326500D01*
X122264333Y-68212347D01*
G37*
D18*
X153800000Y-72800000D02*
X106000000Y-72800000D01*
X153800000Y-72800000D02*
X153800000Y-107400000D01*
X106000000Y-72800000D02*
X106000000Y-107400000D01*
X154800000Y-79555000D02*
X154800000Y-100645000D01*
X153800000Y-79555000D02*
X154800000Y-79555000D01*
X139000000Y-86400000D02*
X137000000Y-86400000D01*
X137000000Y-86400000D02*
X137000000Y-87148000D01*
X137000000Y-96852000D02*
X137000000Y-97600000D01*
X139000000Y-97600000D02*
X137000000Y-97600000D01*
X153800000Y-100645000D02*
X154800000Y-100645000D01*
X153800000Y-107400000D02*
X106000000Y-107400000D01*
%LPC*%
D19*
X155900000Y-116100000D03*
X155900000Y-64100000D03*
X103900000Y-64100000D03*
X103900000Y-116100000D03*
D20*
X148010000Y-70850000D03*
D21*
X150550000Y-70850000D03*
X153090000Y-70850000D03*
D22*
X132790000Y-65150000D03*
X127010000Y-65150000D03*
D23*
X134220000Y-65680000D03*
X125580000Y-65680000D03*
X134220000Y-61500000D03*
X125580000Y-61500000D03*
D24*
X118470000Y-112220000D03*
D21*
X121010000Y-112220000D03*
X123550000Y-112220000D03*
X126090000Y-112220000D03*
X128630000Y-112220000D03*
X131170000Y-112220000D03*
X133710000Y-112220000D03*
X136250000Y-112220000D03*
X138790000Y-112220000D03*
X141330000Y-112220000D03*
D25*
X130900000Y-68880000D03*
X130900000Y-65120000D03*
X128900000Y-68880000D03*
X128900000Y-65120000D03*
D26*
X137725000Y-96400000D03*
X137725000Y-95600000D03*
X137725000Y-94800000D03*
X137725000Y-94000000D03*
X137725000Y-93200000D03*
X137725000Y-92400000D03*
X137725000Y-91600000D03*
X137725000Y-90800000D03*
X137725000Y-90000000D03*
X137725000Y-89200000D03*
X137725000Y-88400000D03*
X137725000Y-87600000D03*
%LPD*%
M02*
