%TF.GenerationSoftware,KiCad,Pcbnew,8.0.7*%
%TF.CreationDate,2025-03-27T17:00:37+01:00*%
%TF.ProjectId,7-REV1B,372d5245-5631-4422-9e6b-696361645f70,rev?*%
%TF.SameCoordinates,Original*%
%TF.FileFunction,Drillmap*%
%TF.FilePolarity,Positive*%
%FSLAX45Y45*%
G04 Gerber Fmt 4.5, Leading zero omitted, Abs format (unit mm)*
G04 Created by KiCad (PCBNEW 8.0.7) date 2025-03-27 17:00:37*
%MOMM*%
%LPD*%
G01*
G04 APERTURE LIST*
%ADD10C,0.050000*%
%ADD11C,0.120000*%
%ADD12C,0.200000*%
%ADD13C,0.100000*%
%ADD14C,0.320000*%
G04 APERTURE END LIST*
D10*
X10390000Y-12010000D02*
G75*
G02*
X9990000Y-11610000I0J400000D01*
G01*
X15690000Y-11610000D02*
G75*
G02*
X15490000Y-11610000I-100000J0D01*
G01*
X15490000Y-11610000D02*
G75*
G02*
X15690000Y-11610000I100000J0D01*
G01*
X10490000Y-6410000D02*
G75*
G02*
X10290000Y-6410000I-100000J0D01*
G01*
X10290000Y-6410000D02*
G75*
G02*
X10490000Y-6410000I100000J0D01*
G01*
X10490000Y-11610000D02*
G75*
G02*
X10290000Y-11610000I-100000J0D01*
G01*
X10290000Y-11610000D02*
G75*
G02*
X10490000Y-11610000I100000J0D01*
G01*
X15990000Y-11610000D02*
G75*
G02*
X15590000Y-12010000I-400000J0D01*
G01*
X10390000Y-12010000D02*
X15590000Y-12010000D01*
X15690000Y-6410000D02*
G75*
G02*
X15490000Y-6410000I-100000J0D01*
G01*
X15490000Y-6410000D02*
G75*
G02*
X15690000Y-6410000I100000J0D01*
G01*
X9965000Y-5025000D02*
X9965000Y-13025000D01*
X16990000Y-6410000D02*
X16990000Y-11610000D01*
X8990000Y-5010000D02*
X16990000Y-5010000D01*
X10015000Y-5505000D02*
X16015000Y-5510000D01*
X16990000Y-5010000D02*
X16990000Y-6410000D01*
X16990000Y-11610000D02*
X16990000Y-13010000D01*
X8990000Y-13010000D02*
X16990000Y-13010000D01*
X16020000Y-5010000D02*
X16015000Y-13010000D01*
X9986708Y-12510657D02*
X16025000Y-12510657D01*
X8990000Y-5010000D02*
X8990000Y-6410000D01*
X8990000Y-6410000D02*
X8990000Y-11610000D01*
X8990000Y-11610000D02*
X8990000Y-13010000D01*
X9990000Y-6410000D02*
X9990000Y-11610000D01*
X9965000Y-5025807D02*
G75*
G02*
X9967498Y-5010008I0J8097D01*
G01*
X9986708Y-12510657D02*
G75*
G02*
X9965000Y-12497240I-6708J13417D01*
G01*
X10015000Y-5505000D02*
G75*
G02*
X9965088Y-5456632I-2410J47450D01*
G01*
X15990000Y-11610000D02*
X15990000Y-6410000D01*
X15590000Y-6010000D02*
G75*
G02*
X15990000Y-6410000I0J-400000D01*
G01*
X9990000Y-6410000D02*
G75*
G02*
X10390000Y-6010000I400000J0D01*
G01*
X10390000Y-6010000D02*
X15590000Y-6010000D01*
D11*
X11170000Y-6303431D02*
X11170000Y-6116569D01*
X11226569Y-6060000D02*
X11453431Y-6060000D01*
X11453431Y-6360000D02*
X11226569Y-6360000D01*
X11510000Y-6116569D02*
X11510000Y-6303431D01*
X11170000Y-6116569D02*
G75*
G02*
X11226569Y-6060000I28284J28284D01*
G01*
X11226569Y-6360000D02*
G75*
G02*
X11170000Y-6303431I-28284J28284D01*
G01*
X11453431Y-6060000D02*
G75*
G02*
X11510000Y-6116569I28284J-28284D01*
G01*
X11510000Y-6303431D02*
G75*
G02*
X11453431Y-6360000I-28284J-28284D01*
G01*
X14470000Y-11903431D02*
X14470000Y-11716569D01*
X14526569Y-11660000D02*
X14753431Y-11660000D01*
X14753431Y-11960000D02*
X14526569Y-11960000D01*
X14810000Y-11716569D02*
X14810000Y-11903431D01*
X14470000Y-11716569D02*
G75*
G02*
X14526569Y-11660000I28284J28284D01*
G01*
X14526569Y-11960000D02*
G75*
G02*
X14470000Y-11903431I-28284J28284D01*
G01*
X14753431Y-11660000D02*
G75*
G02*
X14810000Y-11716569I28284J-28284D01*
G01*
X14810000Y-11903431D02*
G75*
G02*
X14753431Y-11960000I-28284J-28284D01*
G01*
X10040000Y-10773431D02*
X10040000Y-10546569D01*
X10096569Y-10490000D02*
X10283431Y-10490000D01*
X10283431Y-10830000D02*
X10096569Y-10830000D01*
X10340000Y-10546569D02*
X10340000Y-10773431D01*
X10040000Y-10546569D02*
G75*
G02*
X10096569Y-10490000I28284J28284D01*
G01*
X10096569Y-10830000D02*
G75*
G02*
X10040000Y-10773431I-28284J28284D01*
G01*
X10283431Y-10490000D02*
G75*
G02*
X10340000Y-10546569I28284J-28284D01*
G01*
X10340000Y-10773431D02*
G75*
G02*
X10283431Y-10830000I-28284J-28284D01*
G01*
X14470000Y-6303431D02*
X14470000Y-6116569D01*
X14526569Y-6060000D02*
X14753431Y-6060000D01*
X14753431Y-6360000D02*
X14526569Y-6360000D01*
X14810000Y-6116569D02*
X14810000Y-6303431D01*
X14470000Y-6116569D02*
G75*
G02*
X14526569Y-6060000I28284J28284D01*
G01*
X14526569Y-6360000D02*
G75*
G02*
X14470000Y-6303431I-28284J28284D01*
G01*
X14753431Y-6060000D02*
G75*
G02*
X14810000Y-6116569I28284J-28284D01*
G01*
X14810000Y-6303431D02*
G75*
G02*
X14753431Y-6360000I-28284J-28284D01*
G01*
X15640000Y-7473431D02*
X15640000Y-7246569D01*
X15696569Y-7190000D02*
X15883431Y-7190000D01*
X15883431Y-7530000D02*
X15696569Y-7530000D01*
X15940000Y-7246569D02*
X15940000Y-7473431D01*
X15640000Y-7246569D02*
G75*
G02*
X15696569Y-7190000I28284J28284D01*
G01*
X15696569Y-7530000D02*
G75*
G02*
X15640000Y-7473431I-28284J28284D01*
G01*
X15883431Y-7190000D02*
G75*
G02*
X15940000Y-7246569I28284J-28284D01*
G01*
X15940000Y-7473431D02*
G75*
G02*
X15883431Y-7530000I-28284J-28284D01*
G01*
X11170000Y-11903431D02*
X11170000Y-11716569D01*
X11226569Y-11660000D02*
X11453431Y-11660000D01*
X11453431Y-11960000D02*
X11226569Y-11960000D01*
X11510000Y-11716569D02*
X11510000Y-11903431D01*
X11170000Y-11716569D02*
G75*
G02*
X11226569Y-11660000I28284J28284D01*
G01*
X11226569Y-11960000D02*
G75*
G02*
X11170000Y-11903431I-28284J28284D01*
G01*
X11453431Y-11660000D02*
G75*
G02*
X11510000Y-11716569I28284J-28284D01*
G01*
X11510000Y-11903431D02*
G75*
G02*
X11453431Y-11960000I-28284J-28284D01*
G01*
X10040000Y-7473431D02*
X10040000Y-7246569D01*
X10096569Y-7190000D02*
X10283431Y-7190000D01*
X10283431Y-7530000D02*
X10096569Y-7530000D01*
X10340000Y-7246569D02*
X10340000Y-7473431D01*
X10040000Y-7246569D02*
G75*
G02*
X10096569Y-7190000I28284J28284D01*
G01*
X10096569Y-7530000D02*
G75*
G02*
X10040000Y-7473431I-28284J28284D01*
G01*
X10283431Y-7190000D02*
G75*
G02*
X10340000Y-7246569I28284J-28284D01*
G01*
X10340000Y-7473431D02*
G75*
G02*
X10283431Y-7530000I-28284J-28284D01*
G01*
X10040000Y-9123431D02*
X10040000Y-8896569D01*
X10096569Y-8840000D02*
X10283431Y-8840000D01*
X10283431Y-9180000D02*
X10096569Y-9180000D01*
X10340000Y-8896569D02*
X10340000Y-9123431D01*
X10040000Y-8896569D02*
G75*
G02*
X10096569Y-8840000I28284J28284D01*
G01*
X10096569Y-9180000D02*
G75*
G02*
X10040000Y-9123431I-28284J28284D01*
G01*
X10283431Y-8840000D02*
G75*
G02*
X10340000Y-8896569I28284J-28284D01*
G01*
X10340000Y-9123431D02*
G75*
G02*
X10283431Y-9180000I-28284J-28284D01*
G01*
X15640000Y-10773431D02*
X15640000Y-10546569D01*
X15696569Y-10490000D02*
X15883431Y-10490000D01*
X15883431Y-10830000D02*
X15696569Y-10830000D01*
X15940000Y-10546569D02*
X15940000Y-10773431D01*
X15640000Y-10546569D02*
G75*
G02*
X15696569Y-10490000I28284J28284D01*
G01*
X15696569Y-10830000D02*
G75*
G02*
X15640000Y-10773431I-28284J28284D01*
G01*
X15883431Y-10490000D02*
G75*
G02*
X15940000Y-10546569I28284J-28284D01*
G01*
X15940000Y-10773431D02*
G75*
G02*
X15883431Y-10830000I-28284J-28284D01*
G01*
X15640000Y-9123431D02*
X15640000Y-8896569D01*
X15696569Y-8840000D02*
X15883431Y-8840000D01*
X15883431Y-9180000D02*
X15696569Y-9180000D01*
X15940000Y-8896569D02*
X15940000Y-9123431D01*
X15640000Y-8896569D02*
G75*
G02*
X15696569Y-8840000I28284J28284D01*
G01*
X15696569Y-9180000D02*
G75*
G02*
X15640000Y-9123431I-28284J28284D01*
G01*
X15883431Y-8840000D02*
G75*
G02*
X15940000Y-8896569I28284J-28284D01*
G01*
X15940000Y-9123431D02*
G75*
G02*
X15883431Y-9180000I-28284J-28284D01*
G01*
D12*
D13*
X12666000Y-6480000D02*
X12736000Y-6550000D01*
X12736000Y-6480000D02*
X12666000Y-6550000D01*
X13244000Y-6480000D02*
X13314000Y-6550000D01*
X13314000Y-6480000D02*
X13244000Y-6550000D01*
D14*
X10550000Y-6410000D02*
G75*
G02*
X10230000Y-6410000I-160000J0D01*
G01*
X10230000Y-6410000D02*
G75*
G02*
X10550000Y-6410000I160000J0D01*
G01*
X10550000Y-11610000D02*
G75*
G02*
X10230000Y-11610000I-160000J0D01*
G01*
X10230000Y-11610000D02*
G75*
G02*
X10550000Y-11610000I160000J0D01*
G01*
X15750000Y-6410000D02*
G75*
G02*
X15430000Y-6410000I-160000J0D01*
G01*
X15430000Y-6410000D02*
G75*
G02*
X15750000Y-6410000I160000J0D01*
G01*
X15750000Y-11610000D02*
G75*
G02*
X15430000Y-11610000I-160000J0D01*
G01*
X15430000Y-11610000D02*
G75*
G02*
X15750000Y-11610000I160000J0D01*
G01*
D12*
X9248277Y-13338984D02*
X9248277Y-13138984D01*
X9248277Y-13138984D02*
X9295896Y-13138984D01*
X9295896Y-13138984D02*
X9324467Y-13148508D01*
X9324467Y-13148508D02*
X9343515Y-13167555D01*
X9343515Y-13167555D02*
X9353039Y-13186603D01*
X9353039Y-13186603D02*
X9362563Y-13224698D01*
X9362563Y-13224698D02*
X9362563Y-13253269D01*
X9362563Y-13253269D02*
X9353039Y-13291365D01*
X9353039Y-13291365D02*
X9343515Y-13310412D01*
X9343515Y-13310412D02*
X9324467Y-13329460D01*
X9324467Y-13329460D02*
X9295896Y-13338984D01*
X9295896Y-13338984D02*
X9248277Y-13338984D01*
X9448277Y-13338984D02*
X9448277Y-13205650D01*
X9448277Y-13243746D02*
X9457801Y-13224698D01*
X9457801Y-13224698D02*
X9467324Y-13215174D01*
X9467324Y-13215174D02*
X9486372Y-13205650D01*
X9486372Y-13205650D02*
X9505420Y-13205650D01*
X9572086Y-13338984D02*
X9572086Y-13205650D01*
X9572086Y-13138984D02*
X9562563Y-13148508D01*
X9562563Y-13148508D02*
X9572086Y-13158031D01*
X9572086Y-13158031D02*
X9581610Y-13148508D01*
X9581610Y-13148508D02*
X9572086Y-13138984D01*
X9572086Y-13138984D02*
X9572086Y-13158031D01*
X9695896Y-13338984D02*
X9676848Y-13329460D01*
X9676848Y-13329460D02*
X9667324Y-13310412D01*
X9667324Y-13310412D02*
X9667324Y-13138984D01*
X9800658Y-13338984D02*
X9781610Y-13329460D01*
X9781610Y-13329460D02*
X9772086Y-13310412D01*
X9772086Y-13310412D02*
X9772086Y-13138984D01*
X10029229Y-13338984D02*
X10029229Y-13138984D01*
X10029229Y-13138984D02*
X10095896Y-13281841D01*
X10095896Y-13281841D02*
X10162563Y-13138984D01*
X10162563Y-13138984D02*
X10162563Y-13338984D01*
X10343515Y-13338984D02*
X10343515Y-13234222D01*
X10343515Y-13234222D02*
X10333991Y-13215174D01*
X10333991Y-13215174D02*
X10314944Y-13205650D01*
X10314944Y-13205650D02*
X10276848Y-13205650D01*
X10276848Y-13205650D02*
X10257801Y-13215174D01*
X10343515Y-13329460D02*
X10324467Y-13338984D01*
X10324467Y-13338984D02*
X10276848Y-13338984D01*
X10276848Y-13338984D02*
X10257801Y-13329460D01*
X10257801Y-13329460D02*
X10248277Y-13310412D01*
X10248277Y-13310412D02*
X10248277Y-13291365D01*
X10248277Y-13291365D02*
X10257801Y-13272317D01*
X10257801Y-13272317D02*
X10276848Y-13262793D01*
X10276848Y-13262793D02*
X10324467Y-13262793D01*
X10324467Y-13262793D02*
X10343515Y-13253269D01*
X10438753Y-13205650D02*
X10438753Y-13405650D01*
X10438753Y-13215174D02*
X10457801Y-13205650D01*
X10457801Y-13205650D02*
X10495896Y-13205650D01*
X10495896Y-13205650D02*
X10514944Y-13215174D01*
X10514944Y-13215174D02*
X10524467Y-13224698D01*
X10524467Y-13224698D02*
X10533991Y-13243746D01*
X10533991Y-13243746D02*
X10533991Y-13300888D01*
X10533991Y-13300888D02*
X10524467Y-13319936D01*
X10524467Y-13319936D02*
X10514944Y-13329460D01*
X10514944Y-13329460D02*
X10495896Y-13338984D01*
X10495896Y-13338984D02*
X10457801Y-13338984D01*
X10457801Y-13338984D02*
X10438753Y-13329460D01*
X10619705Y-13319936D02*
X10629229Y-13329460D01*
X10629229Y-13329460D02*
X10619705Y-13338984D01*
X10619705Y-13338984D02*
X10610182Y-13329460D01*
X10610182Y-13329460D02*
X10619705Y-13319936D01*
X10619705Y-13319936D02*
X10619705Y-13338984D01*
X10619705Y-13215174D02*
X10629229Y-13224698D01*
X10629229Y-13224698D02*
X10619705Y-13234222D01*
X10619705Y-13234222D02*
X10610182Y-13224698D01*
X10610182Y-13224698D02*
X10619705Y-13215174D01*
X10619705Y-13215174D02*
X10619705Y-13234222D01*
D13*
X8917500Y-13632500D02*
X8987500Y-13702500D01*
X8987500Y-13632500D02*
X8917500Y-13702500D01*
D12*
X9286372Y-13558984D02*
X9305420Y-13558984D01*
X9305420Y-13558984D02*
X9324467Y-13568508D01*
X9324467Y-13568508D02*
X9333991Y-13578031D01*
X9333991Y-13578031D02*
X9343515Y-13597079D01*
X9343515Y-13597079D02*
X9353039Y-13635174D01*
X9353039Y-13635174D02*
X9353039Y-13682793D01*
X9353039Y-13682793D02*
X9343515Y-13720888D01*
X9343515Y-13720888D02*
X9333991Y-13739936D01*
X9333991Y-13739936D02*
X9324467Y-13749460D01*
X9324467Y-13749460D02*
X9305420Y-13758984D01*
X9305420Y-13758984D02*
X9286372Y-13758984D01*
X9286372Y-13758984D02*
X9267324Y-13749460D01*
X9267324Y-13749460D02*
X9257801Y-13739936D01*
X9257801Y-13739936D02*
X9248277Y-13720888D01*
X9248277Y-13720888D02*
X9238753Y-13682793D01*
X9238753Y-13682793D02*
X9238753Y-13635174D01*
X9238753Y-13635174D02*
X9248277Y-13597079D01*
X9248277Y-13597079D02*
X9257801Y-13578031D01*
X9257801Y-13578031D02*
X9267324Y-13568508D01*
X9267324Y-13568508D02*
X9286372Y-13558984D01*
X9438753Y-13739936D02*
X9448277Y-13749460D01*
X9448277Y-13749460D02*
X9438753Y-13758984D01*
X9438753Y-13758984D02*
X9429229Y-13749460D01*
X9429229Y-13749460D02*
X9438753Y-13739936D01*
X9438753Y-13739936D02*
X9438753Y-13758984D01*
X9514944Y-13558984D02*
X9648277Y-13558984D01*
X9648277Y-13558984D02*
X9562563Y-13758984D01*
X9762563Y-13558984D02*
X9781610Y-13558984D01*
X9781610Y-13558984D02*
X9800658Y-13568508D01*
X9800658Y-13568508D02*
X9810182Y-13578031D01*
X9810182Y-13578031D02*
X9819705Y-13597079D01*
X9819705Y-13597079D02*
X9829229Y-13635174D01*
X9829229Y-13635174D02*
X9829229Y-13682793D01*
X9829229Y-13682793D02*
X9819705Y-13720888D01*
X9819705Y-13720888D02*
X9810182Y-13739936D01*
X9810182Y-13739936D02*
X9800658Y-13749460D01*
X9800658Y-13749460D02*
X9781610Y-13758984D01*
X9781610Y-13758984D02*
X9762563Y-13758984D01*
X9762563Y-13758984D02*
X9743515Y-13749460D01*
X9743515Y-13749460D02*
X9733991Y-13739936D01*
X9733991Y-13739936D02*
X9724467Y-13720888D01*
X9724467Y-13720888D02*
X9714944Y-13682793D01*
X9714944Y-13682793D02*
X9714944Y-13635174D01*
X9714944Y-13635174D02*
X9724467Y-13597079D01*
X9724467Y-13597079D02*
X9733991Y-13578031D01*
X9733991Y-13578031D02*
X9743515Y-13568508D01*
X9743515Y-13568508D02*
X9762563Y-13558984D01*
X9953039Y-13558984D02*
X9972086Y-13558984D01*
X9972086Y-13558984D02*
X9991134Y-13568508D01*
X9991134Y-13568508D02*
X10000658Y-13578031D01*
X10000658Y-13578031D02*
X10010182Y-13597079D01*
X10010182Y-13597079D02*
X10019705Y-13635174D01*
X10019705Y-13635174D02*
X10019705Y-13682793D01*
X10019705Y-13682793D02*
X10010182Y-13720888D01*
X10010182Y-13720888D02*
X10000658Y-13739936D01*
X10000658Y-13739936D02*
X9991134Y-13749460D01*
X9991134Y-13749460D02*
X9972086Y-13758984D01*
X9972086Y-13758984D02*
X9953039Y-13758984D01*
X9953039Y-13758984D02*
X9933991Y-13749460D01*
X9933991Y-13749460D02*
X9924467Y-13739936D01*
X9924467Y-13739936D02*
X9914944Y-13720888D01*
X9914944Y-13720888D02*
X9905420Y-13682793D01*
X9905420Y-13682793D02*
X9905420Y-13635174D01*
X9905420Y-13635174D02*
X9914944Y-13597079D01*
X9914944Y-13597079D02*
X9924467Y-13578031D01*
X9924467Y-13578031D02*
X9933991Y-13568508D01*
X9933991Y-13568508D02*
X9953039Y-13558984D01*
X10105420Y-13758984D02*
X10105420Y-13625650D01*
X10105420Y-13644698D02*
X10114944Y-13635174D01*
X10114944Y-13635174D02*
X10133991Y-13625650D01*
X10133991Y-13625650D02*
X10162563Y-13625650D01*
X10162563Y-13625650D02*
X10181610Y-13635174D01*
X10181610Y-13635174D02*
X10191134Y-13654222D01*
X10191134Y-13654222D02*
X10191134Y-13758984D01*
X10191134Y-13654222D02*
X10200658Y-13635174D01*
X10200658Y-13635174D02*
X10219705Y-13625650D01*
X10219705Y-13625650D02*
X10248277Y-13625650D01*
X10248277Y-13625650D02*
X10267325Y-13635174D01*
X10267325Y-13635174D02*
X10276848Y-13654222D01*
X10276848Y-13654222D02*
X10276848Y-13758984D01*
X10372086Y-13758984D02*
X10372086Y-13625650D01*
X10372086Y-13644698D02*
X10381610Y-13635174D01*
X10381610Y-13635174D02*
X10400658Y-13625650D01*
X10400658Y-13625650D02*
X10429229Y-13625650D01*
X10429229Y-13625650D02*
X10448277Y-13635174D01*
X10448277Y-13635174D02*
X10457801Y-13654222D01*
X10457801Y-13654222D02*
X10457801Y-13758984D01*
X10457801Y-13654222D02*
X10467325Y-13635174D01*
X10467325Y-13635174D02*
X10486372Y-13625650D01*
X10486372Y-13625650D02*
X10514944Y-13625650D01*
X10514944Y-13625650D02*
X10533991Y-13635174D01*
X10533991Y-13635174D02*
X10543515Y-13654222D01*
X10543515Y-13654222D02*
X10543515Y-13758984D01*
X10933991Y-13549460D02*
X10762563Y-13806603D01*
X11191134Y-13558984D02*
X11210182Y-13558984D01*
X11210182Y-13558984D02*
X11229229Y-13568508D01*
X11229229Y-13568508D02*
X11238753Y-13578031D01*
X11238753Y-13578031D02*
X11248277Y-13597079D01*
X11248277Y-13597079D02*
X11257801Y-13635174D01*
X11257801Y-13635174D02*
X11257801Y-13682793D01*
X11257801Y-13682793D02*
X11248277Y-13720888D01*
X11248277Y-13720888D02*
X11238753Y-13739936D01*
X11238753Y-13739936D02*
X11229229Y-13749460D01*
X11229229Y-13749460D02*
X11210182Y-13758984D01*
X11210182Y-13758984D02*
X11191134Y-13758984D01*
X11191134Y-13758984D02*
X11172087Y-13749460D01*
X11172087Y-13749460D02*
X11162563Y-13739936D01*
X11162563Y-13739936D02*
X11153039Y-13720888D01*
X11153039Y-13720888D02*
X11143515Y-13682793D01*
X11143515Y-13682793D02*
X11143515Y-13635174D01*
X11143515Y-13635174D02*
X11153039Y-13597079D01*
X11153039Y-13597079D02*
X11162563Y-13578031D01*
X11162563Y-13578031D02*
X11172087Y-13568508D01*
X11172087Y-13568508D02*
X11191134Y-13558984D01*
X11343515Y-13739936D02*
X11353039Y-13749460D01*
X11353039Y-13749460D02*
X11343515Y-13758984D01*
X11343515Y-13758984D02*
X11333991Y-13749460D01*
X11333991Y-13749460D02*
X11343515Y-13739936D01*
X11343515Y-13739936D02*
X11343515Y-13758984D01*
X11476848Y-13558984D02*
X11495896Y-13558984D01*
X11495896Y-13558984D02*
X11514944Y-13568508D01*
X11514944Y-13568508D02*
X11524467Y-13578031D01*
X11524467Y-13578031D02*
X11533991Y-13597079D01*
X11533991Y-13597079D02*
X11543515Y-13635174D01*
X11543515Y-13635174D02*
X11543515Y-13682793D01*
X11543515Y-13682793D02*
X11533991Y-13720888D01*
X11533991Y-13720888D02*
X11524467Y-13739936D01*
X11524467Y-13739936D02*
X11514944Y-13749460D01*
X11514944Y-13749460D02*
X11495896Y-13758984D01*
X11495896Y-13758984D02*
X11476848Y-13758984D01*
X11476848Y-13758984D02*
X11457801Y-13749460D01*
X11457801Y-13749460D02*
X11448277Y-13739936D01*
X11448277Y-13739936D02*
X11438753Y-13720888D01*
X11438753Y-13720888D02*
X11429229Y-13682793D01*
X11429229Y-13682793D02*
X11429229Y-13635174D01*
X11429229Y-13635174D02*
X11438753Y-13597079D01*
X11438753Y-13597079D02*
X11448277Y-13578031D01*
X11448277Y-13578031D02*
X11457801Y-13568508D01*
X11457801Y-13568508D02*
X11476848Y-13558984D01*
X11619706Y-13578031D02*
X11629229Y-13568508D01*
X11629229Y-13568508D02*
X11648277Y-13558984D01*
X11648277Y-13558984D02*
X11695896Y-13558984D01*
X11695896Y-13558984D02*
X11714944Y-13568508D01*
X11714944Y-13568508D02*
X11724467Y-13578031D01*
X11724467Y-13578031D02*
X11733991Y-13597079D01*
X11733991Y-13597079D02*
X11733991Y-13616127D01*
X11733991Y-13616127D02*
X11724467Y-13644698D01*
X11724467Y-13644698D02*
X11610182Y-13758984D01*
X11610182Y-13758984D02*
X11733991Y-13758984D01*
X11800658Y-13558984D02*
X11933991Y-13558984D01*
X11933991Y-13558984D02*
X11848277Y-13758984D01*
X12095896Y-13558984D02*
X12057801Y-13558984D01*
X12057801Y-13558984D02*
X12038753Y-13568508D01*
X12038753Y-13568508D02*
X12029229Y-13578031D01*
X12029229Y-13578031D02*
X12010182Y-13606603D01*
X12010182Y-13606603D02*
X12000658Y-13644698D01*
X12000658Y-13644698D02*
X12000658Y-13720888D01*
X12000658Y-13720888D02*
X12010182Y-13739936D01*
X12010182Y-13739936D02*
X12019706Y-13749460D01*
X12019706Y-13749460D02*
X12038753Y-13758984D01*
X12038753Y-13758984D02*
X12076848Y-13758984D01*
X12076848Y-13758984D02*
X12095896Y-13749460D01*
X12095896Y-13749460D02*
X12105420Y-13739936D01*
X12105420Y-13739936D02*
X12114944Y-13720888D01*
X12114944Y-13720888D02*
X12114944Y-13673269D01*
X12114944Y-13673269D02*
X12105420Y-13654222D01*
X12105420Y-13654222D02*
X12095896Y-13644698D01*
X12095896Y-13644698D02*
X12076848Y-13635174D01*
X12076848Y-13635174D02*
X12038753Y-13635174D01*
X12038753Y-13635174D02*
X12019706Y-13644698D01*
X12019706Y-13644698D02*
X12010182Y-13654222D01*
X12010182Y-13654222D02*
X12000658Y-13673269D01*
X12191134Y-13558984D02*
X12191134Y-13597079D01*
X12267325Y-13558984D02*
X12267325Y-13597079D01*
X12562563Y-13835174D02*
X12553039Y-13825650D01*
X12553039Y-13825650D02*
X12533991Y-13797079D01*
X12533991Y-13797079D02*
X12524468Y-13778031D01*
X12524468Y-13778031D02*
X12514944Y-13749460D01*
X12514944Y-13749460D02*
X12505420Y-13701841D01*
X12505420Y-13701841D02*
X12505420Y-13663746D01*
X12505420Y-13663746D02*
X12514944Y-13616127D01*
X12514944Y-13616127D02*
X12524468Y-13587555D01*
X12524468Y-13587555D02*
X12533991Y-13568508D01*
X12533991Y-13568508D02*
X12553039Y-13539936D01*
X12553039Y-13539936D02*
X12562563Y-13530412D01*
X12629229Y-13578031D02*
X12638753Y-13568508D01*
X12638753Y-13568508D02*
X12657801Y-13558984D01*
X12657801Y-13558984D02*
X12705420Y-13558984D01*
X12705420Y-13558984D02*
X12724468Y-13568508D01*
X12724468Y-13568508D02*
X12733991Y-13578031D01*
X12733991Y-13578031D02*
X12743515Y-13597079D01*
X12743515Y-13597079D02*
X12743515Y-13616127D01*
X12743515Y-13616127D02*
X12733991Y-13644698D01*
X12733991Y-13644698D02*
X12619706Y-13758984D01*
X12619706Y-13758984D02*
X12743515Y-13758984D01*
X12981610Y-13758984D02*
X12981610Y-13558984D01*
X13067325Y-13758984D02*
X13067325Y-13654222D01*
X13067325Y-13654222D02*
X13057801Y-13635174D01*
X13057801Y-13635174D02*
X13038753Y-13625650D01*
X13038753Y-13625650D02*
X13010182Y-13625650D01*
X13010182Y-13625650D02*
X12991134Y-13635174D01*
X12991134Y-13635174D02*
X12981610Y-13644698D01*
X13191134Y-13758984D02*
X13172087Y-13749460D01*
X13172087Y-13749460D02*
X13162563Y-13739936D01*
X13162563Y-13739936D02*
X13153039Y-13720888D01*
X13153039Y-13720888D02*
X13153039Y-13663746D01*
X13153039Y-13663746D02*
X13162563Y-13644698D01*
X13162563Y-13644698D02*
X13172087Y-13635174D01*
X13172087Y-13635174D02*
X13191134Y-13625650D01*
X13191134Y-13625650D02*
X13219706Y-13625650D01*
X13219706Y-13625650D02*
X13238753Y-13635174D01*
X13238753Y-13635174D02*
X13248277Y-13644698D01*
X13248277Y-13644698D02*
X13257801Y-13663746D01*
X13257801Y-13663746D02*
X13257801Y-13720888D01*
X13257801Y-13720888D02*
X13248277Y-13739936D01*
X13248277Y-13739936D02*
X13238753Y-13749460D01*
X13238753Y-13749460D02*
X13219706Y-13758984D01*
X13219706Y-13758984D02*
X13191134Y-13758984D01*
X13372087Y-13758984D02*
X13353039Y-13749460D01*
X13353039Y-13749460D02*
X13343515Y-13730412D01*
X13343515Y-13730412D02*
X13343515Y-13558984D01*
X13524468Y-13749460D02*
X13505420Y-13758984D01*
X13505420Y-13758984D02*
X13467325Y-13758984D01*
X13467325Y-13758984D02*
X13448277Y-13749460D01*
X13448277Y-13749460D02*
X13438753Y-13730412D01*
X13438753Y-13730412D02*
X13438753Y-13654222D01*
X13438753Y-13654222D02*
X13448277Y-13635174D01*
X13448277Y-13635174D02*
X13467325Y-13625650D01*
X13467325Y-13625650D02*
X13505420Y-13625650D01*
X13505420Y-13625650D02*
X13524468Y-13635174D01*
X13524468Y-13635174D02*
X13533991Y-13654222D01*
X13533991Y-13654222D02*
X13533991Y-13673269D01*
X13533991Y-13673269D02*
X13438753Y-13692317D01*
X13610182Y-13749460D02*
X13629230Y-13758984D01*
X13629230Y-13758984D02*
X13667325Y-13758984D01*
X13667325Y-13758984D02*
X13686372Y-13749460D01*
X13686372Y-13749460D02*
X13695896Y-13730412D01*
X13695896Y-13730412D02*
X13695896Y-13720888D01*
X13695896Y-13720888D02*
X13686372Y-13701841D01*
X13686372Y-13701841D02*
X13667325Y-13692317D01*
X13667325Y-13692317D02*
X13638753Y-13692317D01*
X13638753Y-13692317D02*
X13619706Y-13682793D01*
X13619706Y-13682793D02*
X13610182Y-13663746D01*
X13610182Y-13663746D02*
X13610182Y-13654222D01*
X13610182Y-13654222D02*
X13619706Y-13635174D01*
X13619706Y-13635174D02*
X13638753Y-13625650D01*
X13638753Y-13625650D02*
X13667325Y-13625650D01*
X13667325Y-13625650D02*
X13686372Y-13635174D01*
X13762563Y-13835174D02*
X13772087Y-13825650D01*
X13772087Y-13825650D02*
X13791134Y-13797079D01*
X13791134Y-13797079D02*
X13800658Y-13778031D01*
X13800658Y-13778031D02*
X13810182Y-13749460D01*
X13810182Y-13749460D02*
X13819706Y-13701841D01*
X13819706Y-13701841D02*
X13819706Y-13663746D01*
X13819706Y-13663746D02*
X13810182Y-13616127D01*
X13810182Y-13616127D02*
X13800658Y-13587555D01*
X13800658Y-13587555D02*
X13791134Y-13568508D01*
X13791134Y-13568508D02*
X13772087Y-13539936D01*
X13772087Y-13539936D02*
X13762563Y-13530412D01*
X14124468Y-13835174D02*
X14114944Y-13825650D01*
X14114944Y-13825650D02*
X14095896Y-13797079D01*
X14095896Y-13797079D02*
X14086372Y-13778031D01*
X14086372Y-13778031D02*
X14076849Y-13749460D01*
X14076849Y-13749460D02*
X14067325Y-13701841D01*
X14067325Y-13701841D02*
X14067325Y-13663746D01*
X14067325Y-13663746D02*
X14076849Y-13616127D01*
X14076849Y-13616127D02*
X14086372Y-13587555D01*
X14086372Y-13587555D02*
X14095896Y-13568508D01*
X14095896Y-13568508D02*
X14114944Y-13539936D01*
X14114944Y-13539936D02*
X14124468Y-13530412D01*
X14200658Y-13625650D02*
X14200658Y-13758984D01*
X14200658Y-13644698D02*
X14210182Y-13635174D01*
X14210182Y-13635174D02*
X14229230Y-13625650D01*
X14229230Y-13625650D02*
X14257801Y-13625650D01*
X14257801Y-13625650D02*
X14276849Y-13635174D01*
X14276849Y-13635174D02*
X14286372Y-13654222D01*
X14286372Y-13654222D02*
X14286372Y-13758984D01*
X14410182Y-13758984D02*
X14391134Y-13749460D01*
X14391134Y-13749460D02*
X14381611Y-13739936D01*
X14381611Y-13739936D02*
X14372087Y-13720888D01*
X14372087Y-13720888D02*
X14372087Y-13663746D01*
X14372087Y-13663746D02*
X14381611Y-13644698D01*
X14381611Y-13644698D02*
X14391134Y-13635174D01*
X14391134Y-13635174D02*
X14410182Y-13625650D01*
X14410182Y-13625650D02*
X14438753Y-13625650D01*
X14438753Y-13625650D02*
X14457801Y-13635174D01*
X14457801Y-13635174D02*
X14467325Y-13644698D01*
X14467325Y-13644698D02*
X14476849Y-13663746D01*
X14476849Y-13663746D02*
X14476849Y-13720888D01*
X14476849Y-13720888D02*
X14467325Y-13739936D01*
X14467325Y-13739936D02*
X14457801Y-13749460D01*
X14457801Y-13749460D02*
X14438753Y-13758984D01*
X14438753Y-13758984D02*
X14410182Y-13758984D01*
X14533992Y-13625650D02*
X14610182Y-13625650D01*
X14562563Y-13558984D02*
X14562563Y-13730412D01*
X14562563Y-13730412D02*
X14572087Y-13749460D01*
X14572087Y-13749460D02*
X14591134Y-13758984D01*
X14591134Y-13758984D02*
X14610182Y-13758984D01*
X14829230Y-13625650D02*
X14829230Y-13825650D01*
X14829230Y-13635174D02*
X14848277Y-13625650D01*
X14848277Y-13625650D02*
X14886373Y-13625650D01*
X14886373Y-13625650D02*
X14905420Y-13635174D01*
X14905420Y-13635174D02*
X14914944Y-13644698D01*
X14914944Y-13644698D02*
X14924468Y-13663746D01*
X14924468Y-13663746D02*
X14924468Y-13720888D01*
X14924468Y-13720888D02*
X14914944Y-13739936D01*
X14914944Y-13739936D02*
X14905420Y-13749460D01*
X14905420Y-13749460D02*
X14886373Y-13758984D01*
X14886373Y-13758984D02*
X14848277Y-13758984D01*
X14848277Y-13758984D02*
X14829230Y-13749460D01*
X15038753Y-13758984D02*
X15019706Y-13749460D01*
X15019706Y-13749460D02*
X15010182Y-13730412D01*
X15010182Y-13730412D02*
X15010182Y-13558984D01*
X15200658Y-13758984D02*
X15200658Y-13654222D01*
X15200658Y-13654222D02*
X15191134Y-13635174D01*
X15191134Y-13635174D02*
X15172087Y-13625650D01*
X15172087Y-13625650D02*
X15133992Y-13625650D01*
X15133992Y-13625650D02*
X15114944Y-13635174D01*
X15200658Y-13749460D02*
X15181611Y-13758984D01*
X15181611Y-13758984D02*
X15133992Y-13758984D01*
X15133992Y-13758984D02*
X15114944Y-13749460D01*
X15114944Y-13749460D02*
X15105420Y-13730412D01*
X15105420Y-13730412D02*
X15105420Y-13711365D01*
X15105420Y-13711365D02*
X15114944Y-13692317D01*
X15114944Y-13692317D02*
X15133992Y-13682793D01*
X15133992Y-13682793D02*
X15181611Y-13682793D01*
X15181611Y-13682793D02*
X15200658Y-13673269D01*
X15267325Y-13625650D02*
X15343515Y-13625650D01*
X15295896Y-13558984D02*
X15295896Y-13730412D01*
X15295896Y-13730412D02*
X15305420Y-13749460D01*
X15305420Y-13749460D02*
X15324468Y-13758984D01*
X15324468Y-13758984D02*
X15343515Y-13758984D01*
X15486373Y-13749460D02*
X15467325Y-13758984D01*
X15467325Y-13758984D02*
X15429230Y-13758984D01*
X15429230Y-13758984D02*
X15410182Y-13749460D01*
X15410182Y-13749460D02*
X15400658Y-13730412D01*
X15400658Y-13730412D02*
X15400658Y-13654222D01*
X15400658Y-13654222D02*
X15410182Y-13635174D01*
X15410182Y-13635174D02*
X15429230Y-13625650D01*
X15429230Y-13625650D02*
X15467325Y-13625650D01*
X15467325Y-13625650D02*
X15486373Y-13635174D01*
X15486373Y-13635174D02*
X15495896Y-13654222D01*
X15495896Y-13654222D02*
X15495896Y-13673269D01*
X15495896Y-13673269D02*
X15400658Y-13692317D01*
X15667325Y-13758984D02*
X15667325Y-13558984D01*
X15667325Y-13749460D02*
X15648277Y-13758984D01*
X15648277Y-13758984D02*
X15610182Y-13758984D01*
X15610182Y-13758984D02*
X15591134Y-13749460D01*
X15591134Y-13749460D02*
X15581611Y-13739936D01*
X15581611Y-13739936D02*
X15572087Y-13720888D01*
X15572087Y-13720888D02*
X15572087Y-13663746D01*
X15572087Y-13663746D02*
X15581611Y-13644698D01*
X15581611Y-13644698D02*
X15591134Y-13635174D01*
X15591134Y-13635174D02*
X15610182Y-13625650D01*
X15610182Y-13625650D02*
X15648277Y-13625650D01*
X15648277Y-13625650D02*
X15667325Y-13635174D01*
X15743515Y-13835174D02*
X15753039Y-13825650D01*
X15753039Y-13825650D02*
X15772087Y-13797079D01*
X15772087Y-13797079D02*
X15781611Y-13778031D01*
X15781611Y-13778031D02*
X15791134Y-13749460D01*
X15791134Y-13749460D02*
X15800658Y-13701841D01*
X15800658Y-13701841D02*
X15800658Y-13663746D01*
X15800658Y-13663746D02*
X15791134Y-13616127D01*
X15791134Y-13616127D02*
X15781611Y-13587555D01*
X15781611Y-13587555D02*
X15772087Y-13568508D01*
X15772087Y-13568508D02*
X15753039Y-13539936D01*
X15753039Y-13539936D02*
X15743515Y-13530412D01*
X8987500Y-13931500D02*
G75*
G02*
X8787500Y-13931500I-100000J0D01*
G01*
X8787500Y-13931500D02*
G75*
G02*
X8987500Y-13931500I100000J0D01*
G01*
X9229229Y-13822984D02*
X9353039Y-13822984D01*
X9353039Y-13822984D02*
X9286372Y-13899174D01*
X9286372Y-13899174D02*
X9314944Y-13899174D01*
X9314944Y-13899174D02*
X9333991Y-13908698D01*
X9333991Y-13908698D02*
X9343515Y-13918222D01*
X9343515Y-13918222D02*
X9353039Y-13937269D01*
X9353039Y-13937269D02*
X9353039Y-13984888D01*
X9353039Y-13984888D02*
X9343515Y-14003936D01*
X9343515Y-14003936D02*
X9333991Y-14013460D01*
X9333991Y-14013460D02*
X9314944Y-14022984D01*
X9314944Y-14022984D02*
X9257801Y-14022984D01*
X9257801Y-14022984D02*
X9238753Y-14013460D01*
X9238753Y-14013460D02*
X9229229Y-14003936D01*
X9438753Y-14003936D02*
X9448277Y-14013460D01*
X9448277Y-14013460D02*
X9438753Y-14022984D01*
X9438753Y-14022984D02*
X9429229Y-14013460D01*
X9429229Y-14013460D02*
X9438753Y-14003936D01*
X9438753Y-14003936D02*
X9438753Y-14022984D01*
X9524467Y-13842031D02*
X9533991Y-13832508D01*
X9533991Y-13832508D02*
X9553039Y-13822984D01*
X9553039Y-13822984D02*
X9600658Y-13822984D01*
X9600658Y-13822984D02*
X9619705Y-13832508D01*
X9619705Y-13832508D02*
X9629229Y-13842031D01*
X9629229Y-13842031D02*
X9638753Y-13861079D01*
X9638753Y-13861079D02*
X9638753Y-13880127D01*
X9638753Y-13880127D02*
X9629229Y-13908698D01*
X9629229Y-13908698D02*
X9514944Y-14022984D01*
X9514944Y-14022984D02*
X9638753Y-14022984D01*
X9762563Y-13822984D02*
X9781610Y-13822984D01*
X9781610Y-13822984D02*
X9800658Y-13832508D01*
X9800658Y-13832508D02*
X9810182Y-13842031D01*
X9810182Y-13842031D02*
X9819705Y-13861079D01*
X9819705Y-13861079D02*
X9829229Y-13899174D01*
X9829229Y-13899174D02*
X9829229Y-13946793D01*
X9829229Y-13946793D02*
X9819705Y-13984888D01*
X9819705Y-13984888D02*
X9810182Y-14003936D01*
X9810182Y-14003936D02*
X9800658Y-14013460D01*
X9800658Y-14013460D02*
X9781610Y-14022984D01*
X9781610Y-14022984D02*
X9762563Y-14022984D01*
X9762563Y-14022984D02*
X9743515Y-14013460D01*
X9743515Y-14013460D02*
X9733991Y-14003936D01*
X9733991Y-14003936D02*
X9724467Y-13984888D01*
X9724467Y-13984888D02*
X9714944Y-13946793D01*
X9714944Y-13946793D02*
X9714944Y-13899174D01*
X9714944Y-13899174D02*
X9724467Y-13861079D01*
X9724467Y-13861079D02*
X9733991Y-13842031D01*
X9733991Y-13842031D02*
X9743515Y-13832508D01*
X9743515Y-13832508D02*
X9762563Y-13822984D01*
X9953039Y-13822984D02*
X9972086Y-13822984D01*
X9972086Y-13822984D02*
X9991134Y-13832508D01*
X9991134Y-13832508D02*
X10000658Y-13842031D01*
X10000658Y-13842031D02*
X10010182Y-13861079D01*
X10010182Y-13861079D02*
X10019705Y-13899174D01*
X10019705Y-13899174D02*
X10019705Y-13946793D01*
X10019705Y-13946793D02*
X10010182Y-13984888D01*
X10010182Y-13984888D02*
X10000658Y-14003936D01*
X10000658Y-14003936D02*
X9991134Y-14013460D01*
X9991134Y-14013460D02*
X9972086Y-14022984D01*
X9972086Y-14022984D02*
X9953039Y-14022984D01*
X9953039Y-14022984D02*
X9933991Y-14013460D01*
X9933991Y-14013460D02*
X9924467Y-14003936D01*
X9924467Y-14003936D02*
X9914944Y-13984888D01*
X9914944Y-13984888D02*
X9905420Y-13946793D01*
X9905420Y-13946793D02*
X9905420Y-13899174D01*
X9905420Y-13899174D02*
X9914944Y-13861079D01*
X9914944Y-13861079D02*
X9924467Y-13842031D01*
X9924467Y-13842031D02*
X9933991Y-13832508D01*
X9933991Y-13832508D02*
X9953039Y-13822984D01*
X10105420Y-14022984D02*
X10105420Y-13889650D01*
X10105420Y-13908698D02*
X10114944Y-13899174D01*
X10114944Y-13899174D02*
X10133991Y-13889650D01*
X10133991Y-13889650D02*
X10162563Y-13889650D01*
X10162563Y-13889650D02*
X10181610Y-13899174D01*
X10181610Y-13899174D02*
X10191134Y-13918222D01*
X10191134Y-13918222D02*
X10191134Y-14022984D01*
X10191134Y-13918222D02*
X10200658Y-13899174D01*
X10200658Y-13899174D02*
X10219705Y-13889650D01*
X10219705Y-13889650D02*
X10248277Y-13889650D01*
X10248277Y-13889650D02*
X10267325Y-13899174D01*
X10267325Y-13899174D02*
X10276848Y-13918222D01*
X10276848Y-13918222D02*
X10276848Y-14022984D01*
X10372086Y-14022984D02*
X10372086Y-13889650D01*
X10372086Y-13908698D02*
X10381610Y-13899174D01*
X10381610Y-13899174D02*
X10400658Y-13889650D01*
X10400658Y-13889650D02*
X10429229Y-13889650D01*
X10429229Y-13889650D02*
X10448277Y-13899174D01*
X10448277Y-13899174D02*
X10457801Y-13918222D01*
X10457801Y-13918222D02*
X10457801Y-14022984D01*
X10457801Y-13918222D02*
X10467325Y-13899174D01*
X10467325Y-13899174D02*
X10486372Y-13889650D01*
X10486372Y-13889650D02*
X10514944Y-13889650D01*
X10514944Y-13889650D02*
X10533991Y-13899174D01*
X10533991Y-13899174D02*
X10543515Y-13918222D01*
X10543515Y-13918222D02*
X10543515Y-14022984D01*
X10933991Y-13813460D02*
X10762563Y-14070603D01*
X11191134Y-13822984D02*
X11210182Y-13822984D01*
X11210182Y-13822984D02*
X11229229Y-13832508D01*
X11229229Y-13832508D02*
X11238753Y-13842031D01*
X11238753Y-13842031D02*
X11248277Y-13861079D01*
X11248277Y-13861079D02*
X11257801Y-13899174D01*
X11257801Y-13899174D02*
X11257801Y-13946793D01*
X11257801Y-13946793D02*
X11248277Y-13984888D01*
X11248277Y-13984888D02*
X11238753Y-14003936D01*
X11238753Y-14003936D02*
X11229229Y-14013460D01*
X11229229Y-14013460D02*
X11210182Y-14022984D01*
X11210182Y-14022984D02*
X11191134Y-14022984D01*
X11191134Y-14022984D02*
X11172087Y-14013460D01*
X11172087Y-14013460D02*
X11162563Y-14003936D01*
X11162563Y-14003936D02*
X11153039Y-13984888D01*
X11153039Y-13984888D02*
X11143515Y-13946793D01*
X11143515Y-13946793D02*
X11143515Y-13899174D01*
X11143515Y-13899174D02*
X11153039Y-13861079D01*
X11153039Y-13861079D02*
X11162563Y-13842031D01*
X11162563Y-13842031D02*
X11172087Y-13832508D01*
X11172087Y-13832508D02*
X11191134Y-13822984D01*
X11343515Y-14003936D02*
X11353039Y-14013460D01*
X11353039Y-14013460D02*
X11343515Y-14022984D01*
X11343515Y-14022984D02*
X11333991Y-14013460D01*
X11333991Y-14013460D02*
X11343515Y-14003936D01*
X11343515Y-14003936D02*
X11343515Y-14022984D01*
X11543515Y-14022984D02*
X11429229Y-14022984D01*
X11486372Y-14022984D02*
X11486372Y-13822984D01*
X11486372Y-13822984D02*
X11467325Y-13851555D01*
X11467325Y-13851555D02*
X11448277Y-13870603D01*
X11448277Y-13870603D02*
X11429229Y-13880127D01*
X11619706Y-13842031D02*
X11629229Y-13832508D01*
X11629229Y-13832508D02*
X11648277Y-13822984D01*
X11648277Y-13822984D02*
X11695896Y-13822984D01*
X11695896Y-13822984D02*
X11714944Y-13832508D01*
X11714944Y-13832508D02*
X11724467Y-13842031D01*
X11724467Y-13842031D02*
X11733991Y-13861079D01*
X11733991Y-13861079D02*
X11733991Y-13880127D01*
X11733991Y-13880127D02*
X11724467Y-13908698D01*
X11724467Y-13908698D02*
X11610182Y-14022984D01*
X11610182Y-14022984D02*
X11733991Y-14022984D01*
X11905420Y-13822984D02*
X11867325Y-13822984D01*
X11867325Y-13822984D02*
X11848277Y-13832508D01*
X11848277Y-13832508D02*
X11838753Y-13842031D01*
X11838753Y-13842031D02*
X11819706Y-13870603D01*
X11819706Y-13870603D02*
X11810182Y-13908698D01*
X11810182Y-13908698D02*
X11810182Y-13984888D01*
X11810182Y-13984888D02*
X11819706Y-14003936D01*
X11819706Y-14003936D02*
X11829229Y-14013460D01*
X11829229Y-14013460D02*
X11848277Y-14022984D01*
X11848277Y-14022984D02*
X11886372Y-14022984D01*
X11886372Y-14022984D02*
X11905420Y-14013460D01*
X11905420Y-14013460D02*
X11914944Y-14003936D01*
X11914944Y-14003936D02*
X11924467Y-13984888D01*
X11924467Y-13984888D02*
X11924467Y-13937269D01*
X11924467Y-13937269D02*
X11914944Y-13918222D01*
X11914944Y-13918222D02*
X11905420Y-13908698D01*
X11905420Y-13908698D02*
X11886372Y-13899174D01*
X11886372Y-13899174D02*
X11848277Y-13899174D01*
X11848277Y-13899174D02*
X11829229Y-13908698D01*
X11829229Y-13908698D02*
X11819706Y-13918222D01*
X11819706Y-13918222D02*
X11810182Y-13937269D01*
X12048277Y-13822984D02*
X12067325Y-13822984D01*
X12067325Y-13822984D02*
X12086372Y-13832508D01*
X12086372Y-13832508D02*
X12095896Y-13842031D01*
X12095896Y-13842031D02*
X12105420Y-13861079D01*
X12105420Y-13861079D02*
X12114944Y-13899174D01*
X12114944Y-13899174D02*
X12114944Y-13946793D01*
X12114944Y-13946793D02*
X12105420Y-13984888D01*
X12105420Y-13984888D02*
X12095896Y-14003936D01*
X12095896Y-14003936D02*
X12086372Y-14013460D01*
X12086372Y-14013460D02*
X12067325Y-14022984D01*
X12067325Y-14022984D02*
X12048277Y-14022984D01*
X12048277Y-14022984D02*
X12029229Y-14013460D01*
X12029229Y-14013460D02*
X12019706Y-14003936D01*
X12019706Y-14003936D02*
X12010182Y-13984888D01*
X12010182Y-13984888D02*
X12000658Y-13946793D01*
X12000658Y-13946793D02*
X12000658Y-13899174D01*
X12000658Y-13899174D02*
X12010182Y-13861079D01*
X12010182Y-13861079D02*
X12019706Y-13842031D01*
X12019706Y-13842031D02*
X12029229Y-13832508D01*
X12029229Y-13832508D02*
X12048277Y-13822984D01*
X12191134Y-13822984D02*
X12191134Y-13861079D01*
X12267325Y-13822984D02*
X12267325Y-13861079D01*
X12562563Y-14099174D02*
X12553039Y-14089650D01*
X12553039Y-14089650D02*
X12533991Y-14061079D01*
X12533991Y-14061079D02*
X12524468Y-14042031D01*
X12524468Y-14042031D02*
X12514944Y-14013460D01*
X12514944Y-14013460D02*
X12505420Y-13965841D01*
X12505420Y-13965841D02*
X12505420Y-13927746D01*
X12505420Y-13927746D02*
X12514944Y-13880127D01*
X12514944Y-13880127D02*
X12524468Y-13851555D01*
X12524468Y-13851555D02*
X12533991Y-13832508D01*
X12533991Y-13832508D02*
X12553039Y-13803936D01*
X12553039Y-13803936D02*
X12562563Y-13794412D01*
X12724468Y-13889650D02*
X12724468Y-14022984D01*
X12676848Y-13813460D02*
X12629229Y-13956317D01*
X12629229Y-13956317D02*
X12753039Y-13956317D01*
X12981610Y-14022984D02*
X12981610Y-13822984D01*
X13067325Y-14022984D02*
X13067325Y-13918222D01*
X13067325Y-13918222D02*
X13057801Y-13899174D01*
X13057801Y-13899174D02*
X13038753Y-13889650D01*
X13038753Y-13889650D02*
X13010182Y-13889650D01*
X13010182Y-13889650D02*
X12991134Y-13899174D01*
X12991134Y-13899174D02*
X12981610Y-13908698D01*
X13191134Y-14022984D02*
X13172087Y-14013460D01*
X13172087Y-14013460D02*
X13162563Y-14003936D01*
X13162563Y-14003936D02*
X13153039Y-13984888D01*
X13153039Y-13984888D02*
X13153039Y-13927746D01*
X13153039Y-13927746D02*
X13162563Y-13908698D01*
X13162563Y-13908698D02*
X13172087Y-13899174D01*
X13172087Y-13899174D02*
X13191134Y-13889650D01*
X13191134Y-13889650D02*
X13219706Y-13889650D01*
X13219706Y-13889650D02*
X13238753Y-13899174D01*
X13238753Y-13899174D02*
X13248277Y-13908698D01*
X13248277Y-13908698D02*
X13257801Y-13927746D01*
X13257801Y-13927746D02*
X13257801Y-13984888D01*
X13257801Y-13984888D02*
X13248277Y-14003936D01*
X13248277Y-14003936D02*
X13238753Y-14013460D01*
X13238753Y-14013460D02*
X13219706Y-14022984D01*
X13219706Y-14022984D02*
X13191134Y-14022984D01*
X13372087Y-14022984D02*
X13353039Y-14013460D01*
X13353039Y-14013460D02*
X13343515Y-13994412D01*
X13343515Y-13994412D02*
X13343515Y-13822984D01*
X13524468Y-14013460D02*
X13505420Y-14022984D01*
X13505420Y-14022984D02*
X13467325Y-14022984D01*
X13467325Y-14022984D02*
X13448277Y-14013460D01*
X13448277Y-14013460D02*
X13438753Y-13994412D01*
X13438753Y-13994412D02*
X13438753Y-13918222D01*
X13438753Y-13918222D02*
X13448277Y-13899174D01*
X13448277Y-13899174D02*
X13467325Y-13889650D01*
X13467325Y-13889650D02*
X13505420Y-13889650D01*
X13505420Y-13889650D02*
X13524468Y-13899174D01*
X13524468Y-13899174D02*
X13533991Y-13918222D01*
X13533991Y-13918222D02*
X13533991Y-13937269D01*
X13533991Y-13937269D02*
X13438753Y-13956317D01*
X13610182Y-14013460D02*
X13629230Y-14022984D01*
X13629230Y-14022984D02*
X13667325Y-14022984D01*
X13667325Y-14022984D02*
X13686372Y-14013460D01*
X13686372Y-14013460D02*
X13695896Y-13994412D01*
X13695896Y-13994412D02*
X13695896Y-13984888D01*
X13695896Y-13984888D02*
X13686372Y-13965841D01*
X13686372Y-13965841D02*
X13667325Y-13956317D01*
X13667325Y-13956317D02*
X13638753Y-13956317D01*
X13638753Y-13956317D02*
X13619706Y-13946793D01*
X13619706Y-13946793D02*
X13610182Y-13927746D01*
X13610182Y-13927746D02*
X13610182Y-13918222D01*
X13610182Y-13918222D02*
X13619706Y-13899174D01*
X13619706Y-13899174D02*
X13638753Y-13889650D01*
X13638753Y-13889650D02*
X13667325Y-13889650D01*
X13667325Y-13889650D02*
X13686372Y-13899174D01*
X13762563Y-14099174D02*
X13772087Y-14089650D01*
X13772087Y-14089650D02*
X13791134Y-14061079D01*
X13791134Y-14061079D02*
X13800658Y-14042031D01*
X13800658Y-14042031D02*
X13810182Y-14013460D01*
X13810182Y-14013460D02*
X13819706Y-13965841D01*
X13819706Y-13965841D02*
X13819706Y-13927746D01*
X13819706Y-13927746D02*
X13810182Y-13880127D01*
X13810182Y-13880127D02*
X13800658Y-13851555D01*
X13800658Y-13851555D02*
X13791134Y-13832508D01*
X13791134Y-13832508D02*
X13772087Y-13803936D01*
X13772087Y-13803936D02*
X13762563Y-13794412D01*
X14124468Y-14099174D02*
X14114944Y-14089650D01*
X14114944Y-14089650D02*
X14095896Y-14061079D01*
X14095896Y-14061079D02*
X14086372Y-14042031D01*
X14086372Y-14042031D02*
X14076849Y-14013460D01*
X14076849Y-14013460D02*
X14067325Y-13965841D01*
X14067325Y-13965841D02*
X14067325Y-13927746D01*
X14067325Y-13927746D02*
X14076849Y-13880127D01*
X14076849Y-13880127D02*
X14086372Y-13851555D01*
X14086372Y-13851555D02*
X14095896Y-13832508D01*
X14095896Y-13832508D02*
X14114944Y-13803936D01*
X14114944Y-13803936D02*
X14124468Y-13794412D01*
X14200658Y-13889650D02*
X14200658Y-14022984D01*
X14200658Y-13908698D02*
X14210182Y-13899174D01*
X14210182Y-13899174D02*
X14229230Y-13889650D01*
X14229230Y-13889650D02*
X14257801Y-13889650D01*
X14257801Y-13889650D02*
X14276849Y-13899174D01*
X14276849Y-13899174D02*
X14286372Y-13918222D01*
X14286372Y-13918222D02*
X14286372Y-14022984D01*
X14410182Y-14022984D02*
X14391134Y-14013460D01*
X14391134Y-14013460D02*
X14381611Y-14003936D01*
X14381611Y-14003936D02*
X14372087Y-13984888D01*
X14372087Y-13984888D02*
X14372087Y-13927746D01*
X14372087Y-13927746D02*
X14381611Y-13908698D01*
X14381611Y-13908698D02*
X14391134Y-13899174D01*
X14391134Y-13899174D02*
X14410182Y-13889650D01*
X14410182Y-13889650D02*
X14438753Y-13889650D01*
X14438753Y-13889650D02*
X14457801Y-13899174D01*
X14457801Y-13899174D02*
X14467325Y-13908698D01*
X14467325Y-13908698D02*
X14476849Y-13927746D01*
X14476849Y-13927746D02*
X14476849Y-13984888D01*
X14476849Y-13984888D02*
X14467325Y-14003936D01*
X14467325Y-14003936D02*
X14457801Y-14013460D01*
X14457801Y-14013460D02*
X14438753Y-14022984D01*
X14438753Y-14022984D02*
X14410182Y-14022984D01*
X14533992Y-13889650D02*
X14610182Y-13889650D01*
X14562563Y-13822984D02*
X14562563Y-13994412D01*
X14562563Y-13994412D02*
X14572087Y-14013460D01*
X14572087Y-14013460D02*
X14591134Y-14022984D01*
X14591134Y-14022984D02*
X14610182Y-14022984D01*
X14829230Y-13889650D02*
X14829230Y-14089650D01*
X14829230Y-13899174D02*
X14848277Y-13889650D01*
X14848277Y-13889650D02*
X14886373Y-13889650D01*
X14886373Y-13889650D02*
X14905420Y-13899174D01*
X14905420Y-13899174D02*
X14914944Y-13908698D01*
X14914944Y-13908698D02*
X14924468Y-13927746D01*
X14924468Y-13927746D02*
X14924468Y-13984888D01*
X14924468Y-13984888D02*
X14914944Y-14003936D01*
X14914944Y-14003936D02*
X14905420Y-14013460D01*
X14905420Y-14013460D02*
X14886373Y-14022984D01*
X14886373Y-14022984D02*
X14848277Y-14022984D01*
X14848277Y-14022984D02*
X14829230Y-14013460D01*
X15038753Y-14022984D02*
X15019706Y-14013460D01*
X15019706Y-14013460D02*
X15010182Y-13994412D01*
X15010182Y-13994412D02*
X15010182Y-13822984D01*
X15200658Y-14022984D02*
X15200658Y-13918222D01*
X15200658Y-13918222D02*
X15191134Y-13899174D01*
X15191134Y-13899174D02*
X15172087Y-13889650D01*
X15172087Y-13889650D02*
X15133992Y-13889650D01*
X15133992Y-13889650D02*
X15114944Y-13899174D01*
X15200658Y-14013460D02*
X15181611Y-14022984D01*
X15181611Y-14022984D02*
X15133992Y-14022984D01*
X15133992Y-14022984D02*
X15114944Y-14013460D01*
X15114944Y-14013460D02*
X15105420Y-13994412D01*
X15105420Y-13994412D02*
X15105420Y-13975365D01*
X15105420Y-13975365D02*
X15114944Y-13956317D01*
X15114944Y-13956317D02*
X15133992Y-13946793D01*
X15133992Y-13946793D02*
X15181611Y-13946793D01*
X15181611Y-13946793D02*
X15200658Y-13937269D01*
X15267325Y-13889650D02*
X15343515Y-13889650D01*
X15295896Y-13822984D02*
X15295896Y-13994412D01*
X15295896Y-13994412D02*
X15305420Y-14013460D01*
X15305420Y-14013460D02*
X15324468Y-14022984D01*
X15324468Y-14022984D02*
X15343515Y-14022984D01*
X15486373Y-14013460D02*
X15467325Y-14022984D01*
X15467325Y-14022984D02*
X15429230Y-14022984D01*
X15429230Y-14022984D02*
X15410182Y-14013460D01*
X15410182Y-14013460D02*
X15400658Y-13994412D01*
X15400658Y-13994412D02*
X15400658Y-13918222D01*
X15400658Y-13918222D02*
X15410182Y-13899174D01*
X15410182Y-13899174D02*
X15429230Y-13889650D01*
X15429230Y-13889650D02*
X15467325Y-13889650D01*
X15467325Y-13889650D02*
X15486373Y-13899174D01*
X15486373Y-13899174D02*
X15495896Y-13918222D01*
X15495896Y-13918222D02*
X15495896Y-13937269D01*
X15495896Y-13937269D02*
X15400658Y-13956317D01*
X15667325Y-14022984D02*
X15667325Y-13822984D01*
X15667325Y-14013460D02*
X15648277Y-14022984D01*
X15648277Y-14022984D02*
X15610182Y-14022984D01*
X15610182Y-14022984D02*
X15591134Y-14013460D01*
X15591134Y-14013460D02*
X15581611Y-14003936D01*
X15581611Y-14003936D02*
X15572087Y-13984888D01*
X15572087Y-13984888D02*
X15572087Y-13927746D01*
X15572087Y-13927746D02*
X15581611Y-13908698D01*
X15581611Y-13908698D02*
X15591134Y-13899174D01*
X15591134Y-13899174D02*
X15610182Y-13889650D01*
X15610182Y-13889650D02*
X15648277Y-13889650D01*
X15648277Y-13889650D02*
X15667325Y-13899174D01*
X15743515Y-14099174D02*
X15753039Y-14089650D01*
X15753039Y-14089650D02*
X15772087Y-14061079D01*
X15772087Y-14061079D02*
X15781611Y-14042031D01*
X15781611Y-14042031D02*
X15791134Y-14013460D01*
X15791134Y-14013460D02*
X15800658Y-13965841D01*
X15800658Y-13965841D02*
X15800658Y-13927746D01*
X15800658Y-13927746D02*
X15791134Y-13880127D01*
X15791134Y-13880127D02*
X15781611Y-13851555D01*
X15781611Y-13851555D02*
X15772087Y-13832508D01*
X15772087Y-13832508D02*
X15753039Y-13803936D01*
X15753039Y-13803936D02*
X15743515Y-13794412D01*
M02*
