G04 #@! TF.GenerationSoftware,KiCad,Pcbnew,8.0.7*
G04 #@! TF.CreationDate,2025-03-27T17:00:34+01:00*
G04 #@! TF.ProjectId,7-REV1B,372d5245-5631-4422-9e6b-696361645f70,rev?*
G04 #@! TF.SameCoordinates,Original*
G04 #@! TF.FileFunction,Copper,L4,Bot*
G04 #@! TF.FilePolarity,Positive*
%FSLAX46Y46*%
G04 Gerber Fmt 4.6, Leading zero omitted, Abs format (unit mm)*
G04 Created by KiCad (PCBNEW 8.0.7) date 2025-03-27 17:00:34*
%MOMM*%
%LPD*%
G01*
G04 APERTURE LIST*
G04 #@! TA.AperFunction,ComponentPad*
%ADD10R,1.700000X1.700000*%
G04 #@! TD*
G04 #@! TA.AperFunction,ComponentPad*
%ADD11O,1.700000X1.700000*%
G04 #@! TD*
G04 #@! TA.AperFunction,ComponentPad*
%ADD12O,1.050000X2.100000*%
G04 #@! TD*
G04 #@! TA.AperFunction,ComponentPad*
%ADD13C,0.600000*%
G04 #@! TD*
G04 #@! TA.AperFunction,SMDPad,CuDef*
%ADD14R,0.700000X1.250000*%
G04 #@! TD*
G04 #@! TA.AperFunction,SMDPad,CuDef*
%ADD15R,2.550000X0.600000*%
G04 #@! TD*
G04 #@! TA.AperFunction,ViaPad*
%ADD16C,0.500000*%
G04 #@! TD*
G04 #@! TA.AperFunction,ViaPad*
%ADD17C,0.600000*%
G04 #@! TD*
G04 #@! TA.AperFunction,Conductor*
%ADD18C,0.500000*%
G04 #@! TD*
G04 #@! TA.AperFunction,Conductor*
%ADD19C,0.304800*%
G04 #@! TD*
G04 #@! TA.AperFunction,Conductor*
%ADD20C,0.150000*%
G04 #@! TD*
G04 #@! TA.AperFunction,Conductor*
%ADD21C,0.250000*%
G04 #@! TD*
G04 APERTURE END LIST*
D10*
X148010000Y-70850000D03*
D11*
X150550000Y-70850000D03*
X153090000Y-70850000D03*
D12*
X134220000Y-65680000D03*
X125580000Y-65680000D03*
X134220000Y-61500000D03*
X125580000Y-61500000D03*
D13*
X130066667Y-86616667D03*
X130066667Y-87750000D03*
X130066667Y-88883333D03*
X131200000Y-86616667D03*
X131200000Y-87750000D03*
X131200000Y-88883333D03*
X132333333Y-86616667D03*
X132333333Y-87750000D03*
X132333333Y-88883333D03*
D10*
X118470000Y-112220000D03*
D11*
X121010000Y-112220000D03*
X123550000Y-112220000D03*
X126090000Y-112220000D03*
X128630000Y-112220000D03*
X131170000Y-112220000D03*
X133710000Y-112220000D03*
X136250000Y-112220000D03*
X138790000Y-112220000D03*
X141330000Y-112220000D03*
D14*
X130900000Y-68880000D03*
X130900000Y-65120000D03*
X128900000Y-68880000D03*
X128900000Y-65120000D03*
D15*
X137725000Y-96400000D03*
X137725000Y-95600000D03*
X137725000Y-94800000D03*
X137725000Y-94000000D03*
X137725000Y-93200000D03*
X137725000Y-92400000D03*
X137725000Y-91600000D03*
X137725000Y-90800000D03*
X137725000Y-90000000D03*
X137725000Y-89200000D03*
X137725000Y-88400000D03*
X137725000Y-87600000D03*
D16*
X136400000Y-65800000D03*
X156000000Y-80100000D03*
X130400000Y-71600000D03*
X157400000Y-78600000D03*
X105250000Y-86000000D03*
X104600000Y-111600000D03*
X127200000Y-101000000D03*
X103000000Y-86000000D03*
X135400000Y-72600000D03*
X114800000Y-95900000D03*
X119700000Y-80000000D03*
X156900000Y-111700000D03*
X134600000Y-95700000D03*
X156300000Y-71000000D03*
X151600000Y-62800000D03*
X142500000Y-95500000D03*
X140500000Y-97200000D03*
X154100000Y-73400000D03*
X139250000Y-81500000D03*
X148250000Y-101500000D03*
X105265000Y-96000000D03*
X104500000Y-78900000D03*
X139000000Y-65800000D03*
X122800000Y-86400000D03*
X156400000Y-87500000D03*
X113800000Y-86300000D03*
X128100000Y-64100000D03*
X144750000Y-103000000D03*
X122750000Y-88400000D03*
X119250000Y-106500000D03*
X125900000Y-80750000D03*
X110200000Y-71100000D03*
X138000000Y-65400000D03*
X125600000Y-110600000D03*
X117000000Y-117800000D03*
X155000000Y-97300000D03*
X107800000Y-77300000D03*
X121750000Y-94750000D03*
X134600000Y-114700000D03*
X126250000Y-98500000D03*
X109400000Y-65200000D03*
X110520000Y-69700000D03*
X141000000Y-64400000D03*
X134500000Y-67200000D03*
X135250000Y-66000000D03*
X147800000Y-73300000D03*
X140500000Y-72750000D03*
X139750000Y-97200000D03*
X102250000Y-83750000D03*
X148000000Y-104250000D03*
X108750000Y-67800000D03*
X149600000Y-88100000D03*
X140000000Y-64400000D03*
X122500000Y-116800000D03*
X108250000Y-92500000D03*
X139000000Y-97200000D03*
X103150000Y-77650000D03*
X151800000Y-91400000D03*
X104100000Y-81000000D03*
X155100000Y-101600000D03*
X155400000Y-94600000D03*
X124600000Y-64600000D03*
X108265000Y-96000000D03*
X102100000Y-93400000D03*
X110520000Y-64300000D03*
X138750000Y-64500000D03*
X109400000Y-64300000D03*
X122700000Y-84500000D03*
X137250000Y-76750000D03*
X137800000Y-102100000D03*
X156900000Y-95500000D03*
X116900000Y-91000000D03*
X142200000Y-73300000D03*
X125800000Y-95300000D03*
X124750000Y-67200000D03*
X120500000Y-95750000D03*
X122250000Y-71250000D03*
X147200000Y-100400000D03*
X141500000Y-116750000D03*
X108265000Y-102500000D03*
X110500000Y-65700000D03*
X103000000Y-110300000D03*
X123500000Y-92600000D03*
X135400000Y-114700000D03*
X123900000Y-106200000D03*
X135700000Y-79100000D03*
X138400000Y-75800000D03*
X152600000Y-100980000D03*
X155100000Y-111300000D03*
X139500000Y-87000000D03*
X113600000Y-91700000D03*
X114900000Y-81100000D03*
X156900000Y-94500000D03*
X124650000Y-77750000D03*
X139700000Y-91700000D03*
X155100000Y-99900000D03*
X102400000Y-79500000D03*
X149600000Y-82250000D03*
X110500000Y-67800000D03*
X109600000Y-67800000D03*
X138500000Y-101750000D03*
X104600000Y-110600000D03*
X115600000Y-78600000D03*
X141000000Y-84900000D03*
X151800000Y-77100000D03*
X108400000Y-65200000D03*
X150600000Y-73400000D03*
X102700000Y-101600000D03*
X110500000Y-91750000D03*
X109800000Y-63300000D03*
X107750000Y-87250000D03*
X111265000Y-86100000D03*
X102750000Y-96000000D03*
X146400000Y-73300000D03*
X140000000Y-92400000D03*
X145800000Y-77700000D03*
X124962500Y-72750000D03*
X150100000Y-117100000D03*
X143000000Y-101000000D03*
X137000000Y-110250000D03*
X139600000Y-87800000D03*
X129300000Y-72900000D03*
X131500000Y-72700000D03*
X151500000Y-104200000D03*
X105600000Y-92600000D03*
X151000000Y-80600000D03*
X138000000Y-99750000D03*
X118000000Y-63000000D03*
X144650000Y-100450000D03*
X117500000Y-106000000D03*
X134900000Y-115300000D03*
X152450000Y-88700000D03*
X140000000Y-65800000D03*
X116800000Y-88300000D03*
X119500000Y-61250000D03*
X151600000Y-113300000D03*
X107100000Y-106750000D03*
X135800000Y-106900000D03*
X154750000Y-78500000D03*
X119250000Y-96750000D03*
X124500000Y-66250000D03*
X154250000Y-81500000D03*
X144000000Y-84500000D03*
X149500000Y-86750000D03*
X145900000Y-92700000D03*
X118500000Y-106000000D03*
X157600000Y-102900000D03*
X130307500Y-96292500D03*
X105265000Y-102500000D03*
X139750000Y-73000000D03*
X127000000Y-102000000D03*
X130400000Y-72600000D03*
X114500000Y-101250000D03*
X138750000Y-77000000D03*
X108400000Y-117000000D03*
X124000000Y-62500000D03*
X142400000Y-62800000D03*
X146400000Y-111300000D03*
X139400000Y-77000000D03*
X102250000Y-100500000D03*
X146600000Y-93600000D03*
X132000000Y-79400000D03*
X142600000Y-69400000D03*
X117200000Y-84800000D03*
X103000000Y-69250000D03*
X132500000Y-75900000D03*
X113000000Y-111000000D03*
X142600000Y-71000000D03*
X155100000Y-110000000D03*
X111250000Y-102500000D03*
X140800000Y-91900000D03*
X147550000Y-85300000D03*
X138000000Y-104250000D03*
X152200000Y-75100000D03*
X111750000Y-96000000D03*
X151000000Y-88000000D03*
X104400000Y-77300000D03*
X147250000Y-102000000D03*
X143200000Y-70200000D03*
X143000000Y-103750000D03*
X141400000Y-95400000D03*
X106675000Y-92500000D03*
X106250000Y-83750000D03*
X125500000Y-101400000D03*
X112235000Y-102500000D03*
X153700000Y-111900000D03*
X116100000Y-101100000D03*
X105875000Y-105625000D03*
X109250000Y-92500000D03*
X107750000Y-84500000D03*
X112800000Y-91750000D03*
X106750000Y-84500000D03*
X152750000Y-107250000D03*
X106235000Y-102500000D03*
X107250000Y-83750000D03*
X154250000Y-107250000D03*
X114900000Y-91000000D03*
X108250000Y-83750000D03*
X109235000Y-102500000D03*
X154500000Y-80250000D03*
X145500000Y-80100000D03*
X134676265Y-86576265D03*
X134100000Y-85900000D03*
X146200000Y-79500000D03*
X118600000Y-85800000D03*
X117000000Y-92900000D03*
X119800000Y-85900000D03*
X117400000Y-93600000D03*
X119100000Y-93600000D03*
X120500000Y-85400000D03*
X121100000Y-85900000D03*
X119800000Y-93100000D03*
X133700000Y-83850000D03*
X121050000Y-72050000D03*
X139700000Y-69250000D03*
X127500000Y-99250000D03*
X129100000Y-96500000D03*
X105600000Y-76500000D03*
X117200000Y-80600000D03*
X110350000Y-74500000D03*
X136700000Y-79100000D03*
X141625000Y-84375000D03*
X141250000Y-69250000D03*
X140500000Y-69250000D03*
X106235000Y-86000000D03*
X109235000Y-96000000D03*
X113250000Y-77000000D03*
X112200000Y-86100000D03*
X135700000Y-92300000D03*
X144000000Y-82250000D03*
X140700000Y-70750000D03*
X140100000Y-70000000D03*
X109200000Y-95300000D03*
X132800000Y-81300000D03*
X115700000Y-96000000D03*
X135700000Y-93000000D03*
X124400000Y-92000000D03*
X115700000Y-86300000D03*
X106800000Y-112400000D03*
X128100000Y-79900000D03*
X144800000Y-92500000D03*
X109035000Y-86000000D03*
X112750000Y-96000000D03*
X126300000Y-94700000D03*
X108200000Y-107500000D03*
X115300000Y-83400000D03*
X107050000Y-72500000D03*
X130000000Y-70500000D03*
D17*
X136600000Y-82100000D03*
D16*
X107350000Y-94850000D03*
X139300000Y-70000000D03*
X139700000Y-70750000D03*
X143600000Y-92600000D03*
X124000000Y-86400000D03*
D17*
X140425000Y-80825000D03*
D16*
X140000000Y-88400000D03*
X152750000Y-106250000D03*
X131950000Y-73500000D03*
X118250000Y-61000000D03*
X136700000Y-61800000D03*
X122400000Y-65800000D03*
X122400000Y-67000000D03*
X143700000Y-103100000D03*
X143500000Y-65250000D03*
X149700000Y-80600000D03*
X101250000Y-101250000D03*
X153600000Y-102100000D03*
X146800000Y-67000000D03*
X156000000Y-83400000D03*
X145500000Y-99750000D03*
X107500000Y-116200000D03*
X149300000Y-67000000D03*
X101650000Y-94250000D03*
X147800000Y-87600000D03*
X154250000Y-76750000D03*
X141500000Y-119250000D03*
X123600000Y-67000000D03*
D17*
X117700000Y-116900000D03*
D16*
X146500000Y-95200000D03*
X146500000Y-95900000D03*
X101500000Y-84500000D03*
X158500000Y-111800000D03*
X151700000Y-61400000D03*
X138200000Y-106900000D03*
X143750000Y-100250000D03*
X126400000Y-106500000D03*
X124000000Y-61500000D03*
X158300000Y-78800000D03*
X159200000Y-94500000D03*
X148000000Y-65250000D03*
X136900000Y-100300000D03*
X152550000Y-80950000D03*
X123600000Y-65800000D03*
X122400000Y-64600000D03*
X159200000Y-95500000D03*
X156000000Y-82500000D03*
X136950000Y-118000000D03*
X146500000Y-96600000D03*
X123600000Y-64600000D03*
X146000000Y-65250000D03*
X138250000Y-116700000D03*
X151400000Y-67000000D03*
X150250000Y-65250000D03*
X104200000Y-68900000D03*
X123300000Y-118000000D03*
X153200000Y-100400000D03*
X101600000Y-78000000D03*
X142500000Y-77000000D03*
X141750000Y-77000000D03*
X122100000Y-89500000D03*
X141000000Y-77250000D03*
X142500000Y-76000000D03*
X140500000Y-77000000D03*
X134600000Y-94400000D03*
X137500000Y-86750000D03*
X134100000Y-93900000D03*
X105700000Y-80900000D03*
X106400000Y-81500000D03*
X112500000Y-71000000D03*
X149400000Y-91500000D03*
X106950000Y-80900000D03*
X105050000Y-81500000D03*
X111300000Y-71800000D03*
X107850000Y-80900000D03*
X112500000Y-71800000D03*
X111900000Y-71400000D03*
X133400000Y-84600000D03*
X140900000Y-86300000D03*
X126800000Y-79200000D03*
X142600000Y-90400000D03*
X142500000Y-89500000D03*
X107250000Y-66500000D03*
X113000000Y-79450000D03*
X108650000Y-76300000D03*
X110900000Y-75600000D03*
X137250000Y-84750000D03*
X144500000Y-80700000D03*
X154600000Y-85500000D03*
X154425000Y-94750000D03*
X153775000Y-94250000D03*
X154200000Y-84800000D03*
X134600000Y-83800000D03*
X126800000Y-74700000D03*
X107100000Y-70300000D03*
X114000000Y-80800000D03*
X133700000Y-91300000D03*
X134600000Y-90800000D03*
X117500000Y-73000000D03*
X118250000Y-73500000D03*
X142700000Y-97000000D03*
X135100000Y-89500000D03*
X144450000Y-83050000D03*
X139400000Y-84400000D03*
X127600000Y-79300000D03*
X132800000Y-83800000D03*
X132300000Y-68000000D03*
X126600000Y-68200000D03*
X126600000Y-68900000D03*
X133100000Y-68300000D03*
X133100000Y-69100000D03*
X127400000Y-68700000D03*
X132300000Y-68800000D03*
X127400000Y-67900000D03*
X119100000Y-63800000D03*
X122300000Y-62400000D03*
X141800000Y-61500000D03*
X139100000Y-61500000D03*
X156400000Y-96600000D03*
X157600000Y-100300000D03*
X118200000Y-118100000D03*
X139925000Y-118700000D03*
X143175000Y-94925000D03*
X140750000Y-94800000D03*
X140250000Y-96250000D03*
X139500000Y-95600000D03*
X134200000Y-89500000D03*
X143750000Y-81300000D03*
X113600000Y-88250000D03*
X118500000Y-89000000D03*
X107550000Y-88600000D03*
X116100000Y-89500000D03*
X119250000Y-87750000D03*
X110700000Y-87850000D03*
X119400000Y-86700000D03*
X105450000Y-89200000D03*
X116750000Y-100350000D03*
X129000000Y-101400000D03*
X121000000Y-106000000D03*
X105300000Y-90900000D03*
X112500000Y-105900000D03*
X115800000Y-109800000D03*
X117650000Y-100150000D03*
X129100000Y-102300000D03*
X107500000Y-90500000D03*
X122750000Y-106000000D03*
X118550000Y-99950000D03*
X113000000Y-106600000D03*
X113000000Y-114100000D03*
X110500000Y-90250000D03*
X130800000Y-102200000D03*
X115600000Y-112900000D03*
X115600000Y-110700000D03*
X127750000Y-106600000D03*
X119500000Y-99600000D03*
X113500000Y-90250000D03*
X108600000Y-115100000D03*
X115400000Y-113700000D03*
X130000000Y-106500000D03*
X114800000Y-111200000D03*
X131400000Y-101400000D03*
X112500000Y-107200000D03*
X132050000Y-105250000D03*
X132200000Y-101600000D03*
X133500000Y-108750000D03*
X118250000Y-105250000D03*
X151300000Y-115500000D03*
X146500000Y-108100000D03*
X144450000Y-110850000D03*
X144700000Y-113700000D03*
X118250000Y-102250000D03*
X119250000Y-102250000D03*
X134500000Y-106900000D03*
X132800000Y-104500000D03*
X150300000Y-116200000D03*
X119250000Y-104500000D03*
X144300000Y-109900000D03*
X147500000Y-106600000D03*
X144200000Y-113000000D03*
X132900000Y-102300000D03*
X134200000Y-85100000D03*
X137000000Y-101700000D03*
X142200000Y-104900000D03*
X116040690Y-105668620D03*
X136500000Y-104200000D03*
X116000000Y-106500000D03*
X141150000Y-104900000D03*
X115750000Y-107250000D03*
X146400000Y-101600000D03*
X115000000Y-107600000D03*
X150900000Y-101750000D03*
X147000000Y-105900000D03*
X139400000Y-106900000D03*
X133700000Y-102300000D03*
X143700000Y-109100000D03*
X143700000Y-111900000D03*
X133650000Y-103750000D03*
X120250000Y-103750000D03*
X149500000Y-116300000D03*
X120250000Y-102250000D03*
X151500000Y-88800000D03*
X151750000Y-79000000D03*
X146400000Y-83200000D03*
X144300000Y-86900000D03*
X140900000Y-88250000D03*
X145300000Y-88500000D03*
X146800000Y-87750000D03*
X135200000Y-88200000D03*
X125200000Y-91600000D03*
X108000000Y-109000000D03*
X152000000Y-112500000D03*
X119700000Y-115200000D03*
X116200000Y-80300000D03*
X107150000Y-109650000D03*
X116800000Y-79700000D03*
X152900000Y-111800000D03*
X125450000Y-90750000D03*
X122200000Y-114500000D03*
X108100000Y-113600000D03*
X153500000Y-108000000D03*
X140000000Y-90250000D03*
X148700000Y-77100000D03*
X149900000Y-92700000D03*
X123500000Y-71500000D03*
X143750000Y-73250000D03*
X126200000Y-92400000D03*
X118000000Y-79500000D03*
X111500000Y-80700000D03*
X113300000Y-83600000D03*
X141300000Y-103500000D03*
X148600000Y-98500000D03*
X144300000Y-98600000D03*
X140000000Y-101900000D03*
X150500000Y-97900000D03*
X151100000Y-100700000D03*
X149550000Y-98550000D03*
X147900000Y-100100000D03*
X141300000Y-100700000D03*
X151800000Y-97200000D03*
X151200000Y-99000000D03*
X148000000Y-102900000D03*
X152500000Y-99000000D03*
X151100000Y-103500000D03*
X120300000Y-78900000D03*
X128950000Y-98050000D03*
X129200000Y-97300000D03*
X120900000Y-78300000D03*
X120800000Y-77300000D03*
X130150000Y-97250000D03*
X131200000Y-97700000D03*
X120800000Y-76500000D03*
X131800000Y-98200000D03*
X120800000Y-75700000D03*
X132700000Y-98200000D03*
X120800000Y-74900000D03*
X134400000Y-98300000D03*
X119600000Y-73900000D03*
X119900000Y-74600000D03*
X133500000Y-98400000D03*
D18*
X128900000Y-64900000D02*
X128100000Y-64100000D01*
D19*
X137725000Y-87475000D02*
X137725000Y-87600000D01*
D18*
X139000000Y-97200000D02*
X138200000Y-97200000D01*
D19*
X139400000Y-87600000D02*
X137725000Y-87600000D01*
D18*
X139750000Y-97200000D02*
X138950000Y-96400000D01*
D19*
X139200000Y-93200000D02*
X137725000Y-93200000D01*
D18*
X138950000Y-96400000D02*
X137725000Y-96400000D01*
X139000000Y-97200000D02*
X140500000Y-97200000D01*
D19*
X138200000Y-87000000D02*
X137725000Y-87475000D01*
D18*
X128900000Y-65120000D02*
X128900000Y-64900000D01*
D19*
X140000000Y-92400000D02*
X137725000Y-92400000D01*
D18*
X137725000Y-96725000D02*
X137725000Y-96400000D01*
X138200000Y-97200000D02*
X137725000Y-96725000D01*
D19*
X139600000Y-87800000D02*
X139400000Y-87600000D01*
X139500000Y-87000000D02*
X138200000Y-87000000D01*
X140000000Y-92400000D02*
X139200000Y-93200000D01*
D20*
X154500000Y-80250000D02*
X153000000Y-81750000D01*
D18*
X153300000Y-111000000D02*
X153700000Y-111400000D01*
X152750000Y-111000000D02*
X153300000Y-111000000D01*
D20*
X154250000Y-103750000D02*
X154250000Y-107250000D01*
X153000000Y-81750000D02*
X153000000Y-94400000D01*
X153000000Y-94400000D02*
X155750000Y-97150000D01*
D18*
X146950000Y-114500000D02*
X150450000Y-111000000D01*
D20*
X152750000Y-107250000D02*
X152750000Y-111000000D01*
X155750000Y-97150000D02*
X155750000Y-102250000D01*
D18*
X153700000Y-111400000D02*
X153700000Y-111900000D01*
X150450000Y-111000000D02*
X152750000Y-111000000D01*
X120050000Y-113800000D02*
X143200000Y-113800000D01*
X143900000Y-114500000D02*
X146950000Y-114500000D01*
X143200000Y-113800000D02*
X143900000Y-114500000D01*
D20*
X155750000Y-102250000D02*
X154250000Y-103750000D01*
D18*
X118470000Y-112220000D02*
X120050000Y-113800000D01*
D20*
X145500000Y-80100000D02*
X143175000Y-80100000D01*
X143175000Y-80100000D02*
X140275000Y-83000000D01*
X138252530Y-83000000D02*
X134676265Y-86576265D01*
X140275000Y-83000000D02*
X138252530Y-83000000D01*
X143000000Y-79500000D02*
X140000000Y-82500000D01*
X134400000Y-85900000D02*
X134100000Y-85900000D01*
X140000000Y-82500000D02*
X137800000Y-82500000D01*
X137800000Y-82500000D02*
X134400000Y-85900000D01*
X146200000Y-79500000D02*
X143000000Y-79500000D01*
X120000000Y-88500000D02*
X118400000Y-90100000D01*
X118400000Y-90100000D02*
X118400000Y-92600000D01*
X119800000Y-85900000D02*
X120000000Y-86100000D01*
X118400000Y-92600000D02*
X117400000Y-93600000D01*
X120000000Y-86100000D02*
X120000000Y-88500000D01*
X120500000Y-85400000D02*
X120500000Y-88800000D01*
X119100000Y-90200000D02*
X119100000Y-93600000D01*
X120500000Y-88800000D02*
X119100000Y-90200000D01*
X121100000Y-85900000D02*
X121100000Y-89100000D01*
X121100000Y-89100000D02*
X119800000Y-90400000D01*
X119800000Y-90400000D02*
X119800000Y-93100000D01*
X133675000Y-83850000D02*
X121875000Y-72050000D01*
X133700000Y-83850000D02*
X133675000Y-83850000D01*
X121875000Y-72050000D02*
X121050000Y-72050000D01*
D19*
X146300000Y-94500000D02*
X147200000Y-94500000D01*
X153900000Y-98200000D02*
X153900000Y-100800000D01*
D18*
X136200000Y-94000000D02*
X137725000Y-94000000D01*
D19*
X109035000Y-86000000D02*
X106235000Y-86000000D01*
D18*
X135700000Y-93500000D02*
X136200000Y-94000000D01*
X106300000Y-111900000D02*
X106800000Y-112400000D01*
X109235000Y-96000000D02*
X109235000Y-95335000D01*
X109235000Y-95335000D02*
X109200000Y-95300000D01*
D19*
X152750000Y-101950000D02*
X152750000Y-106250000D01*
X153900000Y-100800000D02*
X152750000Y-101950000D01*
D18*
X109235000Y-99735000D02*
X109235000Y-96000000D01*
X110100000Y-105600000D02*
X110100000Y-100600000D01*
X110100000Y-100600000D02*
X109235000Y-99735000D01*
D19*
X149100000Y-96400000D02*
X152100000Y-96400000D01*
D18*
X108200000Y-107500000D02*
X110100000Y-105600000D01*
X108200000Y-107500000D02*
X107600000Y-107500000D01*
D19*
X147200000Y-94500000D02*
X149100000Y-96400000D01*
D18*
X107600000Y-107500000D02*
X106300000Y-108800000D01*
X106300000Y-108800000D02*
X106300000Y-111900000D01*
D19*
X152100000Y-96400000D02*
X153900000Y-98200000D01*
D18*
X135700000Y-92300000D02*
X135700000Y-93500000D01*
D19*
X144800000Y-92500000D02*
X144800000Y-93000000D01*
X144800000Y-93000000D02*
X146300000Y-94500000D01*
D18*
X104900000Y-113200000D02*
X103800000Y-112100000D01*
X116600000Y-116900000D02*
X115600000Y-115900000D01*
X151400000Y-67000000D02*
X149300000Y-67000000D01*
X104200000Y-109000000D02*
X104200000Y-104700000D01*
X156300000Y-93100000D02*
X155500000Y-92300000D01*
X138250000Y-116700000D02*
X139700000Y-116700000D01*
X156000000Y-81900000D02*
X158300000Y-79600000D01*
X156000000Y-83400000D02*
X156000000Y-82500000D01*
X104200000Y-92500000D02*
X104200000Y-85700000D01*
X103400000Y-103900000D02*
X102900000Y-103900000D01*
X103000000Y-84500000D02*
X101500000Y-84500000D01*
X115600000Y-115900000D02*
X107800000Y-115900000D01*
X141500000Y-118500000D02*
X141500000Y-119250000D01*
X101250000Y-94650000D02*
X101250000Y-101250000D01*
X123300000Y-118000000D02*
X136950000Y-118000000D01*
X156000000Y-82500000D02*
X156000000Y-81900000D01*
X103800000Y-112100000D02*
X103800000Y-109400000D01*
X159200000Y-100000000D02*
X159200000Y-95500000D01*
X152000000Y-67000000D02*
X155100000Y-70100000D01*
X151400000Y-67000000D02*
X152000000Y-67000000D01*
X104200000Y-68900000D02*
X104200000Y-75300000D01*
X139700000Y-116700000D02*
X141500000Y-118500000D01*
X117700000Y-116900000D02*
X116600000Y-116900000D01*
X104200000Y-75300000D02*
X101600000Y-77900000D01*
X157800000Y-93100000D02*
X156300000Y-93100000D01*
X101650000Y-94250000D02*
X102450000Y-94250000D01*
X101650000Y-94250000D02*
X101250000Y-94650000D01*
X159200000Y-95500000D02*
X159200000Y-94500000D01*
X101600000Y-77900000D02*
X101600000Y-78000000D01*
X159200000Y-94500000D02*
X157800000Y-93100000D01*
X121300000Y-116900000D02*
X122400000Y-118000000D01*
X155600000Y-103600000D02*
X159200000Y-100000000D01*
X104200000Y-104700000D02*
X103400000Y-103900000D01*
X100900000Y-83900000D02*
X101500000Y-84500000D01*
X117700000Y-116900000D02*
X121300000Y-116900000D01*
X102900000Y-103900000D02*
X101250000Y-102250000D01*
X155500000Y-92300000D02*
X155500000Y-86200000D01*
X156600000Y-76700000D02*
X157500000Y-76700000D01*
X155600000Y-108900000D02*
X155600000Y-103600000D01*
X136950000Y-118000000D02*
X138250000Y-116700000D01*
X103800000Y-109400000D02*
X104200000Y-109000000D01*
X107800000Y-115900000D02*
X107500000Y-116200000D01*
X158300000Y-79600000D02*
X158300000Y-78800000D01*
X101250000Y-102250000D02*
X101250000Y-101250000D01*
X158500000Y-111800000D02*
X155600000Y-108900000D01*
X102450000Y-94250000D02*
X104200000Y-92500000D01*
X155500000Y-86200000D02*
X156000000Y-85700000D01*
X104200000Y-85700000D02*
X103000000Y-84500000D01*
X156000000Y-85700000D02*
X156000000Y-83400000D01*
X155100000Y-70100000D02*
X155100000Y-75200000D01*
X122400000Y-118000000D02*
X123300000Y-118000000D01*
X158300000Y-77500000D02*
X158300000Y-78800000D01*
X101600000Y-78000000D02*
X100900000Y-78700000D01*
X105800000Y-113200000D02*
X104900000Y-113200000D01*
X100900000Y-78700000D02*
X100900000Y-83900000D01*
X107500000Y-116200000D02*
X107500000Y-114900000D01*
X155100000Y-75200000D02*
X156600000Y-76700000D01*
X107500000Y-114900000D02*
X105800000Y-113200000D01*
X157500000Y-76700000D02*
X158300000Y-77500000D01*
X149300000Y-67000000D02*
X146800000Y-67000000D01*
X122100000Y-92700000D02*
X128600000Y-99200000D01*
X128600000Y-99200000D02*
X134700000Y-99200000D01*
X134700000Y-99200000D02*
X135300000Y-98600000D01*
X135300000Y-95100000D02*
X134600000Y-94400000D01*
X135300000Y-98600000D02*
X135300000Y-95100000D01*
X134600000Y-94400000D02*
X134100000Y-93900000D01*
X122100000Y-89500000D02*
X122100000Y-92700000D01*
D20*
X148800000Y-78400000D02*
X144700000Y-74300000D01*
X143100000Y-71500000D02*
X137900000Y-71500000D01*
X148800000Y-90900000D02*
X148800000Y-78400000D01*
X149400000Y-91500000D02*
X148800000Y-90900000D01*
X137900000Y-71500000D02*
X132500000Y-66100000D01*
X127000000Y-66100000D02*
X123100000Y-70000000D01*
X113500000Y-70000000D02*
X112500000Y-71000000D01*
X132500000Y-66100000D02*
X127000000Y-66100000D01*
X144700000Y-74300000D02*
X144700000Y-73100000D01*
X123100000Y-70000000D02*
X113500000Y-70000000D01*
X144700000Y-73100000D02*
X143100000Y-71500000D01*
X131800000Y-84400000D02*
X132900000Y-84400000D01*
X126800000Y-79200000D02*
X126800000Y-79400000D01*
X133100000Y-84600000D02*
X133400000Y-84600000D01*
X132900000Y-84400000D02*
X133100000Y-84600000D01*
X126800000Y-79400000D02*
X131800000Y-84400000D01*
X142600000Y-90400000D02*
X142000000Y-90400000D01*
X142000000Y-90400000D02*
X141300000Y-89700000D01*
X139339124Y-89700000D02*
X139039124Y-90000000D01*
X141300000Y-89700000D02*
X139339124Y-89700000D01*
X139039124Y-90000000D02*
X137725000Y-90000000D01*
X142500000Y-89500000D02*
X142200000Y-89200000D01*
X142200000Y-89200000D02*
X137725000Y-89200000D01*
X107250000Y-68850000D02*
X112500000Y-74100000D01*
X112500000Y-74100000D02*
X112500000Y-78950000D01*
X112500000Y-78950000D02*
X113000000Y-79450000D01*
X107250000Y-66500000D02*
X107250000Y-68850000D01*
X110900000Y-75600000D02*
X110500000Y-75600000D01*
X109800000Y-76300000D02*
X108650000Y-76300000D01*
X110500000Y-75600000D02*
X109800000Y-76300000D01*
X138500000Y-83500000D02*
X137250000Y-84750000D01*
X143325000Y-80700000D02*
X140525000Y-83500000D01*
X140525000Y-83500000D02*
X138500000Y-83500000D01*
X144500000Y-80700000D02*
X143325000Y-80700000D01*
X154425000Y-85675000D02*
X154425000Y-94750000D01*
X154600000Y-85500000D02*
X154425000Y-85675000D01*
X154200000Y-84800000D02*
X153750000Y-85250000D01*
X153750000Y-94225000D02*
X153775000Y-94250000D01*
X153750000Y-85250000D02*
X153750000Y-94225000D01*
X126800000Y-76100000D02*
X134500000Y-83800000D01*
X134500000Y-83800000D02*
X134600000Y-83800000D01*
X126800000Y-74700000D02*
X126800000Y-76100000D01*
X107100000Y-70300000D02*
X112000000Y-75200000D01*
X112000000Y-75200000D02*
X112000000Y-79750000D01*
X112000000Y-79750000D02*
X113050000Y-80800000D01*
X113050000Y-80800000D02*
X114000000Y-80800000D01*
X133700000Y-91300000D02*
X134000000Y-91600000D01*
X134000000Y-91600000D02*
X137725000Y-91600000D01*
X134600000Y-90800000D02*
X137725000Y-90800000D01*
X135900000Y-89500000D02*
X135900000Y-88800000D01*
X134028248Y-90000000D02*
X135400000Y-90000000D01*
X133500000Y-85700000D02*
X133500000Y-89471752D01*
X132700000Y-84900000D02*
X133500000Y-85700000D01*
X125800000Y-76700000D02*
X125800000Y-79100000D01*
X135900000Y-88800000D02*
X136300000Y-88400000D01*
X121900000Y-72800000D02*
X125800000Y-76700000D01*
X133500000Y-89471752D02*
X134028248Y-90000000D01*
X135400000Y-90000000D02*
X135900000Y-89500000D01*
X125800000Y-79100000D02*
X131600000Y-84900000D01*
X136300000Y-88400000D02*
X137725000Y-88400000D01*
X117700000Y-72800000D02*
X121900000Y-72800000D01*
X117500000Y-73000000D02*
X117700000Y-72800000D01*
X131600000Y-84900000D02*
X132700000Y-84900000D01*
X133000000Y-86200000D02*
X132100000Y-85300000D01*
X125400000Y-77100000D02*
X121600000Y-73300000D01*
X136000000Y-97000000D02*
X136000000Y-94900000D01*
X132100000Y-85300000D02*
X131300000Y-85300000D01*
X118450000Y-73300000D02*
X118250000Y-73500000D01*
X121600000Y-73300000D02*
X118450000Y-73300000D01*
X133000000Y-91900000D02*
X133000000Y-86200000D01*
X125400000Y-79400000D02*
X125400000Y-77100000D01*
X141800000Y-97900000D02*
X136900000Y-97900000D01*
X136000000Y-94900000D02*
X133000000Y-91900000D01*
X131300000Y-85300000D02*
X125400000Y-79400000D01*
X136900000Y-97900000D02*
X136000000Y-97000000D01*
X142700000Y-97000000D02*
X141800000Y-97900000D01*
X134600000Y-88000000D02*
X136800000Y-85800000D01*
X135100000Y-89500000D02*
X134600000Y-89000000D01*
X136800000Y-85800000D02*
X141700000Y-85800000D01*
X134600000Y-89000000D02*
X134600000Y-88000000D01*
X141700000Y-85800000D02*
X144450000Y-83050000D01*
X128300000Y-79300000D02*
X127600000Y-79300000D01*
X132800000Y-83800000D02*
X128300000Y-79300000D01*
X120900000Y-63800000D02*
X122300000Y-62400000D01*
X119100000Y-63800000D02*
X120900000Y-63800000D01*
X139100000Y-61500000D02*
X141800000Y-61500000D01*
X157600000Y-100300000D02*
X157600000Y-97800000D01*
X157600000Y-97800000D02*
X156400000Y-96600000D01*
X119100000Y-119000000D02*
X118200000Y-118100000D01*
X139925000Y-118700000D02*
X139625000Y-119000000D01*
X139625000Y-119000000D02*
X119100000Y-119000000D01*
D18*
X140750000Y-94800000D02*
X137725000Y-94800000D01*
X143175000Y-94925000D02*
X142750000Y-94500000D01*
X142750000Y-94500000D02*
X141050000Y-94500000D01*
X141050000Y-94500000D02*
X140750000Y-94800000D01*
X139600000Y-95600000D02*
X140250000Y-96250000D01*
X139500000Y-95600000D02*
X137725000Y-95600000D01*
X139500000Y-95600000D02*
X139600000Y-95600000D01*
D20*
X136750000Y-85300000D02*
X134200000Y-87850000D01*
X134200000Y-87850000D02*
X134200000Y-89500000D01*
X143700000Y-81300000D02*
X139700000Y-85300000D01*
X139700000Y-85300000D02*
X136750000Y-85300000D01*
X143750000Y-81300000D02*
X143700000Y-81300000D01*
X115750000Y-88250000D02*
X113600000Y-88250000D01*
X118500000Y-89000000D02*
X116500000Y-89000000D01*
X116500000Y-89000000D02*
X115750000Y-88250000D01*
X109000000Y-88600000D02*
X107550000Y-88600000D01*
X116100000Y-89500000D02*
X109900000Y-89500000D01*
X109900000Y-89500000D02*
X109000000Y-88600000D01*
X110950000Y-87600000D02*
X119100000Y-87600000D01*
X110700000Y-87850000D02*
X110950000Y-87600000D01*
X119100000Y-87600000D02*
X119250000Y-87750000D01*
X119000000Y-87100000D02*
X109200000Y-87100000D01*
X106750000Y-87900000D02*
X105450000Y-89200000D01*
X108400000Y-87900000D02*
X106750000Y-87900000D01*
X119400000Y-86700000D02*
X119000000Y-87100000D01*
X109200000Y-87100000D02*
X108400000Y-87900000D01*
D21*
X110500000Y-95100000D02*
X110500000Y-96700000D01*
X107500000Y-92100000D02*
X107500000Y-92900000D01*
X114150000Y-100350000D02*
X116750000Y-100350000D01*
X105300000Y-90900000D02*
X106300000Y-90900000D01*
X106300000Y-90900000D02*
X107500000Y-92100000D01*
X120496231Y-101500000D02*
X121000000Y-102003769D01*
X109200000Y-93800000D02*
X110500000Y-95100000D01*
X108400000Y-93800000D02*
X109200000Y-93800000D01*
X117900000Y-101500000D02*
X120496231Y-101500000D01*
X121000000Y-102003769D02*
X121000000Y-106000000D01*
X116750000Y-100350000D02*
X117900000Y-101500000D01*
X110500000Y-96700000D02*
X114150000Y-100350000D01*
X107500000Y-92900000D02*
X108400000Y-93800000D01*
D20*
X114000000Y-106600000D02*
X113300000Y-105900000D01*
D21*
X117650000Y-100150000D02*
X118400000Y-100900000D01*
X122750000Y-102750000D02*
X122750000Y-106000000D01*
D20*
X115800000Y-109800000D02*
X114000000Y-108000000D01*
D21*
X108300000Y-90500000D02*
X107500000Y-90500000D01*
X118400000Y-100900000D02*
X120900000Y-100900000D01*
X113800000Y-96300000D02*
X113800000Y-96000000D01*
D20*
X114000000Y-108000000D02*
X114000000Y-106600000D01*
D21*
X117650000Y-100150000D02*
X113800000Y-96300000D01*
D20*
X113300000Y-105900000D02*
X112500000Y-105900000D01*
D21*
X120900000Y-100900000D02*
X122750000Y-102750000D01*
X113800000Y-96000000D02*
X108300000Y-90500000D01*
X118850000Y-100250000D02*
X118550000Y-99950000D01*
D20*
X113000000Y-108100000D02*
X113000000Y-106600000D01*
D21*
X121500000Y-100250000D02*
X118850000Y-100250000D01*
D20*
X115600000Y-112900000D02*
X115600000Y-110700000D01*
D21*
X127750000Y-106600000D02*
X127750000Y-106500000D01*
D20*
X115600000Y-110700000D02*
X113000000Y-108100000D01*
D21*
X118550000Y-99950000D02*
X117300000Y-98700000D01*
X117300000Y-98700000D02*
X117300000Y-96400000D01*
X114000000Y-93100000D02*
X112900000Y-93100000D01*
X127750000Y-106500000D02*
X121500000Y-100250000D01*
X117300000Y-96400000D02*
X114000000Y-93100000D01*
X110500000Y-90700000D02*
X110500000Y-90250000D01*
X112900000Y-93100000D02*
X110500000Y-90700000D01*
X130000000Y-106500000D02*
X129000000Y-106500000D01*
D20*
X131400000Y-105100000D02*
X130000000Y-106500000D01*
X114800000Y-111000000D02*
X112500000Y-108700000D01*
D21*
X122100000Y-99600000D02*
X119500000Y-99600000D01*
X119500000Y-99600000D02*
X118100000Y-98200000D01*
X114300000Y-92000000D02*
X114300000Y-91050000D01*
X114300000Y-91050000D02*
X113500000Y-90250000D01*
D20*
X114800000Y-111200000D02*
X114800000Y-111000000D01*
X115400000Y-113700000D02*
X114800000Y-113100000D01*
X114800000Y-113100000D02*
X114800000Y-111200000D01*
X112500000Y-108700000D02*
X112500000Y-107200000D01*
D21*
X129000000Y-106500000D02*
X122100000Y-99600000D01*
D20*
X131400000Y-101400000D02*
X131400000Y-105100000D01*
D21*
X118100000Y-98200000D02*
X118100000Y-95800000D01*
X118100000Y-95800000D02*
X114300000Y-92000000D01*
D20*
X132100000Y-105200000D02*
X132100000Y-101700000D01*
X132100000Y-101700000D02*
X132200000Y-101600000D01*
X144700000Y-113700000D02*
X144900000Y-113500000D01*
X135600000Y-110800000D02*
X144400000Y-110800000D01*
X144400000Y-110800000D02*
X144450000Y-110850000D01*
X132050000Y-105250000D02*
X132100000Y-105200000D01*
X146500000Y-108800000D02*
X144450000Y-110850000D01*
X133500000Y-108750000D02*
X133550000Y-108750000D01*
X146500000Y-108100000D02*
X146500000Y-108800000D01*
X144900000Y-113500000D02*
X144900000Y-111300000D01*
D21*
X118250000Y-102250000D02*
X118250000Y-105250000D01*
D20*
X144900000Y-111300000D02*
X144450000Y-110850000D01*
X133550000Y-108750000D02*
X135600000Y-110800000D01*
X137128248Y-108900000D02*
X138128248Y-109900000D01*
X132800000Y-104500000D02*
X132800000Y-102400000D01*
D21*
X119250000Y-104500000D02*
X119250000Y-102250000D01*
D20*
X136500000Y-108900000D02*
X137128248Y-108900000D01*
X138128248Y-109900000D02*
X144300000Y-109900000D01*
X145700000Y-108500000D02*
X145700000Y-107900000D01*
X147000000Y-106600000D02*
X147500000Y-106600000D01*
X134500000Y-106900000D02*
X136500000Y-108900000D01*
X144300000Y-109900000D02*
X145700000Y-108500000D01*
X145700000Y-107900000D02*
X147000000Y-106600000D01*
X132800000Y-102400000D02*
X132900000Y-102300000D01*
X134200000Y-85100000D02*
X135300000Y-84000000D01*
X134000000Y-71750000D02*
X131130000Y-68880000D01*
X135300000Y-81600000D02*
X134000000Y-80300000D01*
X131130000Y-68880000D02*
X130900000Y-68880000D01*
X135300000Y-84000000D02*
X135300000Y-81600000D01*
X134000000Y-80300000D02*
X134000000Y-71750000D01*
X142200000Y-104900000D02*
X141600000Y-104300000D01*
X139100000Y-104300000D02*
X137000000Y-102200000D01*
X137000000Y-102200000D02*
X137000000Y-101700000D01*
X141600000Y-104300000D02*
X139100000Y-104300000D01*
X136200000Y-104500000D02*
X133600000Y-104500000D01*
X136500000Y-104200000D02*
X136200000Y-104500000D01*
X130850000Y-107250000D02*
X117622070Y-107250000D01*
X117622070Y-107250000D02*
X116040690Y-105668620D01*
X133600000Y-104500000D02*
X130850000Y-107250000D01*
X140950000Y-105100000D02*
X133800000Y-105100000D01*
X141150000Y-104900000D02*
X140950000Y-105100000D01*
X117250000Y-107750000D02*
X116000000Y-106500000D01*
X131150000Y-107750000D02*
X117250000Y-107750000D01*
X133800000Y-105100000D02*
X131150000Y-107750000D01*
X143000000Y-105700000D02*
X134000000Y-105700000D01*
X131450000Y-108250000D02*
X116750000Y-108250000D01*
X116750000Y-108250000D02*
X115750000Y-107250000D01*
X146400000Y-101600000D02*
X146400000Y-102300000D01*
X146400000Y-102300000D02*
X143000000Y-105700000D01*
X134000000Y-105700000D02*
X131450000Y-108250000D01*
X134200000Y-106300000D02*
X143300000Y-106300000D01*
X143300000Y-106300000D02*
X145975000Y-103625000D01*
X145975000Y-103625000D02*
X148775000Y-103625000D01*
X115000000Y-107600000D02*
X116150000Y-108750000D01*
X116150000Y-108750000D02*
X131750000Y-108750000D01*
X131750000Y-108750000D02*
X134200000Y-106300000D01*
X148775000Y-103625000D02*
X150650000Y-101750000D01*
X150650000Y-101750000D02*
X150900000Y-101750000D01*
X143700000Y-109100000D02*
X146900000Y-105900000D01*
X143700000Y-109100000D02*
X141600000Y-109100000D01*
X141600000Y-109100000D02*
X139400000Y-106900000D01*
X133650000Y-103750000D02*
X133650000Y-102350000D01*
X146900000Y-105900000D02*
X147000000Y-105900000D01*
X133650000Y-102350000D02*
X133700000Y-102300000D01*
D21*
X120250000Y-103750000D02*
X120250000Y-102250000D01*
D20*
X151700000Y-79050000D02*
X151750000Y-79000000D01*
X151700000Y-88600000D02*
X151700000Y-79050000D01*
X151500000Y-88800000D02*
X151700000Y-88600000D01*
X146400000Y-84800000D02*
X146400000Y-83200000D01*
X144300000Y-86900000D02*
X146400000Y-84800000D01*
X141150000Y-88500000D02*
X140900000Y-88250000D01*
X145300000Y-88500000D02*
X141150000Y-88500000D01*
X139700000Y-86200000D02*
X141250000Y-87750000D01*
X137200000Y-86200000D02*
X139700000Y-86200000D01*
X141250000Y-87750000D02*
X146800000Y-87750000D01*
X135200000Y-88200000D02*
X137200000Y-86200000D01*
X147800000Y-115500000D02*
X150800000Y-112500000D01*
X116200000Y-80500000D02*
X117000000Y-81300000D01*
X118300000Y-81300000D02*
X121100000Y-84100000D01*
X114800000Y-114900000D02*
X116700000Y-114900000D01*
X150800000Y-112500000D02*
X152000000Y-112500000D01*
X108900000Y-109000000D02*
X114800000Y-114900000D01*
X121100000Y-85100000D02*
X121700000Y-85700000D01*
X121700000Y-85700000D02*
X121700000Y-88100000D01*
X116200000Y-80300000D02*
X116200000Y-80500000D01*
X117000000Y-81300000D02*
X118300000Y-81300000D01*
X121700000Y-88100000D02*
X125200000Y-91600000D01*
X136250000Y-116700000D02*
X137450000Y-115500000D01*
X116700000Y-114900000D02*
X117000000Y-115200000D01*
X119700000Y-115200000D02*
X123200000Y-115200000D01*
X108000000Y-109000000D02*
X108900000Y-109000000D01*
X137450000Y-115500000D02*
X147800000Y-115500000D01*
X124700000Y-116700000D02*
X136250000Y-116700000D01*
X117000000Y-115200000D02*
X119700000Y-115200000D01*
X121100000Y-84100000D02*
X121100000Y-85100000D01*
X123200000Y-115200000D02*
X124700000Y-116700000D01*
X122200000Y-85500000D02*
X122200000Y-87000000D01*
X115200000Y-114500000D02*
X123255061Y-114500000D01*
X123255061Y-114500000D02*
X124955061Y-116200000D01*
X107150000Y-108950000D02*
X107700000Y-108400000D01*
X117400000Y-79700000D02*
X121650000Y-83950000D01*
X137250000Y-115000000D02*
X147500000Y-115000000D01*
X121650000Y-84950000D02*
X122200000Y-85500000D01*
X136050000Y-116200000D02*
X137250000Y-115000000D01*
X124955061Y-116200000D02*
X136050000Y-116200000D01*
X116800000Y-79700000D02*
X117400000Y-79700000D01*
X107700000Y-108400000D02*
X109100000Y-108400000D01*
X121650000Y-83950000D02*
X121650000Y-84950000D01*
X125450000Y-90250000D02*
X125450000Y-90750000D01*
X150700000Y-111800000D02*
X152900000Y-111800000D01*
X107150000Y-109650000D02*
X107150000Y-108950000D01*
X109100000Y-108400000D02*
X115200000Y-114500000D01*
X147500000Y-115000000D02*
X150700000Y-111800000D01*
X122200000Y-87000000D02*
X125450000Y-90250000D01*
X140990000Y-90290000D02*
X140040000Y-90290000D01*
X124300000Y-117200000D02*
X123100000Y-116000000D01*
X109800000Y-115300000D02*
X108100000Y-113600000D01*
X153500000Y-108000000D02*
X153500000Y-110100000D01*
X153500000Y-103200000D02*
X154500000Y-102200000D01*
X150200000Y-113900000D02*
X148100000Y-116000000D01*
X140040000Y-90290000D02*
X140000000Y-90250000D01*
X154500000Y-102200000D02*
X154500000Y-97800000D01*
X141700000Y-91000000D02*
X140990000Y-90290000D01*
X154400000Y-112400000D02*
X152900000Y-113900000D01*
X123100000Y-116000000D02*
X116700000Y-116000000D01*
X136400000Y-117200000D02*
X124300000Y-117200000D01*
X152450000Y-95750000D02*
X150000000Y-95750000D01*
X154500000Y-97800000D02*
X152450000Y-95750000D01*
X152900000Y-113900000D02*
X150200000Y-113900000D01*
X116000000Y-115300000D02*
X109800000Y-115300000D01*
X153500000Y-110100000D02*
X154400000Y-111000000D01*
X116700000Y-116000000D02*
X116000000Y-115300000D01*
X145250000Y-91000000D02*
X141700000Y-91000000D01*
X150000000Y-95750000D02*
X145250000Y-91000000D01*
X148100000Y-116000000D02*
X137600000Y-116000000D01*
X137600000Y-116000000D02*
X136400000Y-117200000D01*
X153500000Y-108000000D02*
X153500000Y-103200000D01*
X154400000Y-111000000D02*
X154400000Y-112400000D01*
X150300000Y-92300000D02*
X150300000Y-78700000D01*
X149900000Y-92700000D02*
X150300000Y-92300000D01*
X150300000Y-78700000D02*
X148700000Y-77100000D01*
X137800000Y-72000000D02*
X142500000Y-72000000D01*
X142500000Y-72000000D02*
X143750000Y-73250000D01*
X123500000Y-70250000D02*
X127250000Y-66500000D01*
X123500000Y-71500000D02*
X123500000Y-70250000D01*
X127250000Y-66500000D02*
X132300000Y-66500000D01*
X132300000Y-66500000D02*
X137800000Y-72000000D01*
X122100000Y-83600000D02*
X118000000Y-79500000D01*
X123400000Y-86000000D02*
X122100000Y-84700000D01*
X122100000Y-84700000D02*
X122100000Y-83600000D01*
X123400000Y-87100000D02*
X123400000Y-86000000D01*
X126200000Y-89900000D02*
X123400000Y-87100000D01*
X126200000Y-92400000D02*
X126200000Y-89900000D01*
X113300000Y-82500000D02*
X113300000Y-83600000D01*
X111500000Y-80700000D02*
X113300000Y-82500000D01*
X144700000Y-101900000D02*
X148100000Y-98500000D01*
X148100000Y-98500000D02*
X148600000Y-98500000D01*
X142900000Y-101900000D02*
X144700000Y-101900000D01*
X141300000Y-103500000D02*
X142900000Y-101900000D01*
X142500000Y-98600000D02*
X140000000Y-101100000D01*
X140000000Y-101100000D02*
X140000000Y-101900000D01*
X144300000Y-98600000D02*
X142500000Y-98600000D01*
X151100000Y-100300000D02*
X151100000Y-100700000D01*
X150500000Y-97900000D02*
X151300000Y-97900000D01*
X151800000Y-99600000D02*
X151100000Y-100300000D01*
X151800000Y-98400000D02*
X151800000Y-99600000D01*
X151300000Y-97900000D02*
X151800000Y-98400000D01*
X148000000Y-100100000D02*
X149550000Y-98550000D01*
X147900000Y-100100000D02*
X148000000Y-100100000D01*
X142600000Y-99400000D02*
X141300000Y-100700000D01*
X151800000Y-97200000D02*
X147000000Y-97200000D01*
X147000000Y-97200000D02*
X144800000Y-99400000D01*
X144800000Y-99400000D02*
X142600000Y-99400000D01*
X149300000Y-100900000D02*
X149300000Y-101600000D01*
X149300000Y-101600000D02*
X148000000Y-102900000D01*
X151200000Y-99000000D02*
X149300000Y-100900000D01*
X151800000Y-100500000D02*
X151800000Y-102800000D01*
X151800000Y-102800000D02*
X151100000Y-103500000D01*
X152500000Y-99800000D02*
X151800000Y-100500000D01*
X152500000Y-99000000D02*
X152500000Y-99800000D01*
X126900000Y-96000000D02*
X128950000Y-98050000D01*
X120400000Y-81100000D02*
X126900000Y-87600000D01*
X126900000Y-87600000D02*
X126900000Y-96000000D01*
X120400000Y-79000000D02*
X120400000Y-81100000D01*
X120300000Y-78900000D02*
X120400000Y-79000000D01*
X127400000Y-87300000D02*
X127400000Y-95700000D01*
X120900000Y-78300000D02*
X121000000Y-78400000D01*
X121000000Y-78400000D02*
X121000000Y-80900000D01*
X129000000Y-97300000D02*
X129200000Y-97300000D01*
X127400000Y-95700000D02*
X129000000Y-97300000D01*
X121000000Y-80900000D02*
X127400000Y-87300000D01*
X121600000Y-80800000D02*
X121600000Y-78100000D01*
X121600000Y-78100000D02*
X120800000Y-77300000D01*
X127900000Y-93800000D02*
X127900000Y-87100000D01*
X130150000Y-97250000D02*
X129700000Y-96800000D01*
X129700000Y-95600000D02*
X127900000Y-93800000D01*
X127900000Y-87100000D02*
X121600000Y-80800000D01*
X129700000Y-96800000D02*
X129700000Y-95600000D01*
X122100000Y-80564124D02*
X122100000Y-77800000D01*
X128400000Y-93556624D02*
X128400000Y-86864124D01*
X131200000Y-97700000D02*
X131200000Y-96356624D01*
X131200000Y-96356624D02*
X128400000Y-93556624D01*
X122100000Y-77800000D02*
X120800000Y-76500000D01*
X128400000Y-86864124D02*
X122100000Y-80564124D01*
X122600000Y-80300000D02*
X122600000Y-77500000D01*
X131800000Y-96200000D02*
X128900000Y-93300000D01*
X122600000Y-77500000D02*
X120800000Y-75700000D01*
X131800000Y-98200000D02*
X131800000Y-96200000D01*
X128900000Y-93300000D02*
X128900000Y-86600000D01*
X128900000Y-86600000D02*
X122600000Y-80300000D01*
X129300000Y-86300000D02*
X123100000Y-80100000D01*
X132700000Y-98200000D02*
X132700000Y-96300000D01*
X123100000Y-77200000D02*
X120800000Y-74900000D01*
X123100000Y-80100000D02*
X123100000Y-77200000D01*
X132700000Y-96300000D02*
X129300000Y-92900000D01*
X129300000Y-92900000D02*
X129300000Y-86300000D01*
X131800000Y-86200000D02*
X131300000Y-85700000D01*
X131000000Y-85700000D02*
X130400000Y-85100000D01*
X124100000Y-76500000D02*
X121500000Y-73900000D01*
X131300000Y-85700000D02*
X131000000Y-85700000D01*
X134400000Y-98300000D02*
X134400000Y-96400000D01*
X129500000Y-85100000D02*
X124100000Y-79700000D01*
X124100000Y-79700000D02*
X124100000Y-76500000D01*
X134400000Y-96400000D02*
X131800000Y-93800000D01*
X121500000Y-73900000D02*
X119600000Y-73900000D01*
X131800000Y-93800000D02*
X131800000Y-86200000D01*
X130400000Y-85100000D02*
X129500000Y-85100000D01*
X120200000Y-74300000D02*
X119900000Y-74600000D01*
X129300000Y-85600000D02*
X123600000Y-79900000D01*
X133500000Y-98400000D02*
X133500000Y-96300000D01*
X130100000Y-85600000D02*
X129300000Y-85600000D01*
X123600000Y-79900000D02*
X123600000Y-76700000D01*
X121200000Y-74300000D02*
X120200000Y-74300000D01*
X123600000Y-76700000D02*
X121200000Y-74300000D01*
X130600000Y-93400000D02*
X130600000Y-86100000D01*
X133500000Y-96300000D02*
X130600000Y-93400000D01*
X130600000Y-86100000D02*
X130100000Y-85600000D01*
G04 #@! TA.AperFunction,Conductor*
G36*
X142299326Y-95000847D02*
G01*
X142314632Y-95002862D01*
X142409382Y-95015336D01*
X142434340Y-95022023D01*
X142530854Y-95062000D01*
X142553233Y-95074921D01*
X142641293Y-95142492D01*
X142651030Y-95151030D01*
X142748969Y-95248969D01*
X142757507Y-95258706D01*
X142825078Y-95346766D01*
X142838000Y-95369147D01*
X142877975Y-95465655D01*
X142884664Y-95490619D01*
X142899153Y-95600673D01*
X142900000Y-95613595D01*
X142900000Y-96456957D01*
X142881093Y-96515148D01*
X142831593Y-96551112D01*
X142773113Y-96551948D01*
X142764778Y-96549501D01*
X142764773Y-96549500D01*
X142764772Y-96549500D01*
X142635228Y-96549500D01*
X142635225Y-96549500D01*
X142510933Y-96585995D01*
X142510926Y-96585998D01*
X142401952Y-96656031D01*
X142317117Y-96753938D01*
X142263302Y-96871774D01*
X142244867Y-96999997D01*
X142244867Y-97000002D01*
X142246050Y-97008234D01*
X142235613Y-97068523D01*
X142218061Y-97092321D01*
X141739382Y-97571003D01*
X141684865Y-97598781D01*
X141669378Y-97600000D01*
X137113595Y-97600000D01*
X137100674Y-97599153D01*
X137071751Y-97595345D01*
X137005121Y-97586573D01*
X136949897Y-97560232D01*
X136948040Y-97558424D01*
X136441575Y-97051959D01*
X136413798Y-96997442D01*
X136413426Y-96994877D01*
X136400847Y-96899326D01*
X136400000Y-96886404D01*
X136400000Y-96606488D01*
X136400847Y-96593567D01*
X136410440Y-96520697D01*
X136415336Y-96483508D01*
X136422022Y-96458554D01*
X136462001Y-96362035D01*
X136474916Y-96339666D01*
X136538518Y-96256779D01*
X136556779Y-96238518D01*
X136639666Y-96174916D01*
X136662035Y-96162001D01*
X136758554Y-96122022D01*
X136783508Y-96115336D01*
X136879051Y-96102757D01*
X136889769Y-96101347D01*
X136902690Y-96100500D01*
X139019744Y-96100500D01*
X139019748Y-96100500D01*
X139019751Y-96100499D01*
X139019988Y-96100476D01*
X139029689Y-96100000D01*
X139421890Y-96100000D01*
X139480081Y-96118907D01*
X139491892Y-96128996D01*
X139709409Y-96346513D01*
X139917564Y-96554668D01*
X139922379Y-96559840D01*
X139951604Y-96593567D01*
X139951951Y-96593967D01*
X139956740Y-96597045D01*
X139973216Y-96610320D01*
X139973386Y-96610490D01*
X139973388Y-96610491D01*
X140013406Y-96633596D01*
X140017429Y-96636048D01*
X140060925Y-96664001D01*
X140060929Y-96664003D01*
X140060931Y-96664004D01*
X140060932Y-96664004D01*
X140065150Y-96665930D01*
X140069859Y-96667945D01*
X140070120Y-96667316D01*
X140076109Y-96669796D01*
X140076113Y-96669799D01*
X140127050Y-96683447D01*
X140129318Y-96684084D01*
X140165053Y-96694576D01*
X140185228Y-96700500D01*
X140185230Y-96700500D01*
X140314771Y-96700500D01*
X140314772Y-96700500D01*
X140370729Y-96684069D01*
X140372949Y-96683447D01*
X140423887Y-96669799D01*
X140423889Y-96669797D01*
X140429878Y-96667317D01*
X140430145Y-96667962D01*
X140434491Y-96666094D01*
X140439065Y-96664004D01*
X140439069Y-96664004D01*
X140482581Y-96636039D01*
X140486574Y-96633606D01*
X140526614Y-96610490D01*
X140526771Y-96610333D01*
X140543262Y-96597043D01*
X140548049Y-96593967D01*
X140577619Y-96559838D01*
X140582422Y-96554680D01*
X140610490Y-96526614D01*
X140613909Y-96520689D01*
X140624823Y-96505362D01*
X140632882Y-96496063D01*
X140648925Y-96460932D01*
X140653222Y-96452597D01*
X140669799Y-96423887D01*
X140673271Y-96410924D01*
X140678848Y-96395412D01*
X140686695Y-96378231D01*
X140686695Y-96378229D01*
X140686697Y-96378226D01*
X140691259Y-96346492D01*
X140693622Y-96334973D01*
X140700499Y-96309309D01*
X140700499Y-96289308D01*
X140701507Y-96275217D01*
X140705133Y-96250000D01*
X140705133Y-96249998D01*
X140701507Y-96224779D01*
X140700499Y-96210690D01*
X140700499Y-96190692D01*
X140700498Y-96190688D01*
X140693622Y-96165026D01*
X140691259Y-96153509D01*
X140686697Y-96121774D01*
X140678846Y-96104584D01*
X140673275Y-96089089D01*
X140669799Y-96076113D01*
X140653227Y-96047409D01*
X140648921Y-96039059D01*
X140632882Y-96003937D01*
X140632880Y-96003935D01*
X140632880Y-96003934D01*
X140624828Y-95994642D01*
X140613913Y-95979314D01*
X140610490Y-95973386D01*
X140582434Y-95945331D01*
X140577618Y-95940158D01*
X140548050Y-95906034D01*
X140548049Y-95906033D01*
X140543255Y-95902952D01*
X140526776Y-95889672D01*
X140526303Y-95889199D01*
X140488554Y-95851450D01*
X140460777Y-95796936D01*
X140470348Y-95736504D01*
X140488548Y-95711451D01*
X141048977Y-95151022D01*
X141058697Y-95142499D01*
X141146771Y-95074918D01*
X141169141Y-95062002D01*
X141265661Y-95022022D01*
X141290615Y-95015336D01*
X141388030Y-95002511D01*
X141400674Y-95000847D01*
X141413595Y-95000000D01*
X142286405Y-95000000D01*
X142299326Y-95000847D01*
G37*
G04 #@! TD.AperFunction*
G04 #@! TA.AperFunction,Conductor*
G36*
X111358302Y-62918907D02*
G01*
X111394266Y-62968407D01*
X111394266Y-63029593D01*
X111393555Y-63031698D01*
X111344641Y-63171484D01*
X111344638Y-63171496D01*
X111328227Y-63317152D01*
X111328227Y-63317161D01*
X111344638Y-63462817D01*
X111344641Y-63462829D01*
X111393054Y-63601184D01*
X111393055Y-63601188D01*
X111471039Y-63725297D01*
X111471042Y-63725300D01*
X111471044Y-63725303D01*
X111574697Y-63828956D01*
X111574699Y-63828957D01*
X111574702Y-63828960D01*
X111698811Y-63906944D01*
X111698814Y-63906944D01*
X111698816Y-63906946D01*
X111780621Y-63935570D01*
X111837170Y-63955358D01*
X111837174Y-63955359D01*
X111837177Y-63955360D01*
X111837178Y-63955360D01*
X111837182Y-63955361D01*
X111982839Y-63971773D01*
X111982843Y-63971773D01*
X111982847Y-63971773D01*
X112128503Y-63955361D01*
X112128505Y-63955360D01*
X112128509Y-63955360D01*
X112266870Y-63906946D01*
X112332551Y-63865674D01*
X112385223Y-63850500D01*
X113309492Y-63850500D01*
X113367683Y-63869407D01*
X113379496Y-63879496D01*
X114048969Y-64548969D01*
X114057507Y-64558706D01*
X114125078Y-64646766D01*
X114138000Y-64669147D01*
X114177975Y-64765655D01*
X114184664Y-64790619D01*
X114199153Y-64900673D01*
X114200000Y-64913595D01*
X114200000Y-68686404D01*
X114199153Y-68699326D01*
X114184664Y-68809380D01*
X114177975Y-68834344D01*
X114138000Y-68930852D01*
X114125078Y-68953233D01*
X114057507Y-69041293D01*
X114048969Y-69051030D01*
X113251030Y-69848969D01*
X113241293Y-69857507D01*
X113153233Y-69925078D01*
X113130852Y-69938000D01*
X113034344Y-69977975D01*
X113009380Y-69984664D01*
X112899327Y-69999153D01*
X112886405Y-70000000D01*
X108830624Y-70000000D01*
X108772433Y-69981093D01*
X108760620Y-69971004D01*
X107554496Y-68764880D01*
X107526719Y-68710363D01*
X107525500Y-68694876D01*
X107525500Y-66906915D01*
X107544407Y-66848724D01*
X107549673Y-66842092D01*
X107632882Y-66746063D01*
X107686697Y-66628226D01*
X107705133Y-66500000D01*
X107686697Y-66371774D01*
X107632882Y-66253937D01*
X107548049Y-66156033D01*
X107548048Y-66156032D01*
X107548047Y-66156031D01*
X107439073Y-66085998D01*
X107439070Y-66085996D01*
X107439069Y-66085996D01*
X107439066Y-66085995D01*
X107314774Y-66049500D01*
X107314772Y-66049500D01*
X107185228Y-66049500D01*
X107185225Y-66049500D01*
X107060933Y-66085995D01*
X107060926Y-66085998D01*
X106951952Y-66156031D01*
X106867117Y-66253938D01*
X106813302Y-66371774D01*
X106794867Y-66499997D01*
X106794867Y-66500002D01*
X106813302Y-66628225D01*
X106867117Y-66746061D01*
X106867118Y-66746063D01*
X106950320Y-66842085D01*
X106974137Y-66898444D01*
X106974500Y-66906915D01*
X106974500Y-68904800D01*
X107016443Y-69006058D01*
X107503896Y-69493511D01*
X107841381Y-69830996D01*
X107869158Y-69885513D01*
X107859587Y-69945945D01*
X107816322Y-69989210D01*
X107771377Y-70000000D01*
X107481359Y-70000000D01*
X107423168Y-69981093D01*
X107406541Y-69965832D01*
X107398051Y-69956034D01*
X107398048Y-69956032D01*
X107289073Y-69885998D01*
X107289070Y-69885996D01*
X107289069Y-69885996D01*
X107287424Y-69885513D01*
X107164774Y-69849500D01*
X107164772Y-69849500D01*
X107035228Y-69849500D01*
X107035225Y-69849500D01*
X106910933Y-69885995D01*
X106910926Y-69885998D01*
X106801951Y-69956032D01*
X106801948Y-69956034D01*
X106793459Y-69965832D01*
X106741063Y-69997427D01*
X106718641Y-70000000D01*
X106206488Y-70000000D01*
X106193566Y-69999153D01*
X106083512Y-69984664D01*
X106058548Y-69977975D01*
X105962042Y-69938001D01*
X105939660Y-69925079D01*
X105939659Y-69925078D01*
X105856783Y-69861484D01*
X105838515Y-69843216D01*
X105774918Y-69760336D01*
X105762000Y-69737960D01*
X105722023Y-69641447D01*
X105715336Y-69616489D01*
X105700847Y-69506432D01*
X105700000Y-69493511D01*
X105700000Y-67313595D01*
X105700847Y-67300674D01*
X105702511Y-67288030D01*
X105715336Y-67190615D01*
X105722022Y-67165661D01*
X105762002Y-67069141D01*
X105774918Y-67046771D01*
X105842499Y-66958697D01*
X105851022Y-66948977D01*
X107053553Y-65746447D01*
X107133013Y-65642893D01*
X107182963Y-65522303D01*
X107200000Y-65392893D01*
X107200000Y-64213595D01*
X107200847Y-64200674D01*
X107202511Y-64188030D01*
X107215336Y-64090615D01*
X107222022Y-64065661D01*
X107262002Y-63969141D01*
X107274918Y-63946771D01*
X107342499Y-63858697D01*
X107351022Y-63848977D01*
X108148977Y-63051022D01*
X108158697Y-63042499D01*
X108246771Y-62974918D01*
X108269141Y-62962002D01*
X108365661Y-62922022D01*
X108390615Y-62915336D01*
X108488030Y-62902511D01*
X108500674Y-62900847D01*
X108513595Y-62900000D01*
X111300111Y-62900000D01*
X111358302Y-62918907D01*
G37*
G04 #@! TD.AperFunction*
G04 #@! TA.AperFunction,Conductor*
G36*
X140806433Y-91300847D02*
G01*
X140809259Y-91301219D01*
X140916489Y-91315336D01*
X140941447Y-91322023D01*
X141037960Y-91362000D01*
X141060336Y-91374918D01*
X141143216Y-91438515D01*
X141161484Y-91456783D01*
X141162608Y-91458247D01*
X141225079Y-91539660D01*
X141238001Y-91562042D01*
X141277975Y-91658548D01*
X141284664Y-91683512D01*
X141299153Y-91793566D01*
X141300000Y-91806488D01*
X141300000Y-92993511D01*
X141299153Y-93006433D01*
X141284664Y-93116487D01*
X141277975Y-93141451D01*
X141238001Y-93237957D01*
X141225079Y-93260339D01*
X141161487Y-93343213D01*
X141143213Y-93361487D01*
X141060339Y-93425079D01*
X141037957Y-93438001D01*
X140941451Y-93477975D01*
X140916487Y-93484664D01*
X140806434Y-93499153D01*
X140793512Y-93500000D01*
X139029689Y-93500000D01*
X139019988Y-93499524D01*
X139019751Y-93499500D01*
X139019748Y-93499500D01*
X136902690Y-93499500D01*
X136889768Y-93498653D01*
X136783512Y-93484664D01*
X136758548Y-93477975D01*
X136662042Y-93438001D01*
X136639660Y-93425079D01*
X136556783Y-93361484D01*
X136538515Y-93343216D01*
X136474918Y-93260336D01*
X136462000Y-93237960D01*
X136422023Y-93141447D01*
X136415336Y-93116489D01*
X136400847Y-93006432D01*
X136400000Y-92993511D01*
X136400000Y-92506488D01*
X136400847Y-92493567D01*
X136402511Y-92480923D01*
X136415336Y-92383508D01*
X136422022Y-92358554D01*
X136462001Y-92262035D01*
X136474916Y-92239666D01*
X136538518Y-92156779D01*
X136556783Y-92138515D01*
X136574176Y-92125168D01*
X136579669Y-92120955D01*
X136637346Y-92100534D01*
X136639933Y-92100500D01*
X139019747Y-92100500D01*
X139019748Y-92100500D01*
X139078231Y-92088867D01*
X139144552Y-92044552D01*
X139188867Y-91978231D01*
X139194478Y-91950019D01*
X139201450Y-91914977D01*
X139202642Y-91915214D01*
X139224964Y-91864160D01*
X139228961Y-91859919D01*
X139233156Y-91855725D01*
X139282870Y-91758156D01*
X139300000Y-91650000D01*
X139314677Y-91557328D01*
X139324245Y-91527879D01*
X139359726Y-91458242D01*
X139377927Y-91433191D01*
X139433191Y-91377927D01*
X139458242Y-91359726D01*
X139527879Y-91324245D01*
X139557328Y-91314677D01*
X139633902Y-91302549D01*
X139642304Y-91301219D01*
X139657790Y-91300000D01*
X140793512Y-91300000D01*
X140806433Y-91300847D01*
G37*
G04 #@! TD.AperFunction*
G04 #@! TA.AperFunction,Conductor*
G36*
X132099326Y-66800846D02*
G01*
X132194879Y-66813426D01*
X132250103Y-66839767D01*
X132251960Y-66841575D01*
X133358424Y-67948039D01*
X133386201Y-68002556D01*
X133386573Y-68005121D01*
X133399153Y-68100673D01*
X133400000Y-68113595D01*
X133400000Y-68986404D01*
X133399153Y-68999326D01*
X133384664Y-69109380D01*
X133377975Y-69134344D01*
X133338000Y-69230852D01*
X133325078Y-69253233D01*
X133258402Y-69340127D01*
X133240127Y-69358402D01*
X133153233Y-69425078D01*
X133130852Y-69438000D01*
X133034344Y-69477975D01*
X133009380Y-69484664D01*
X132899327Y-69499153D01*
X132886405Y-69500000D01*
X132413595Y-69500000D01*
X132400673Y-69499153D01*
X132290619Y-69484664D01*
X132265655Y-69477975D01*
X132169147Y-69438000D01*
X132146766Y-69425078D01*
X132058706Y-69357507D01*
X132048969Y-69348969D01*
X131851030Y-69151030D01*
X131842492Y-69141293D01*
X131827920Y-69122303D01*
X131774920Y-69053232D01*
X131761999Y-69030852D01*
X131722023Y-68934340D01*
X131715336Y-68909382D01*
X131700847Y-68799325D01*
X131700000Y-68786404D01*
X131700000Y-68607108D01*
X131700000Y-68607107D01*
X131682963Y-68477697D01*
X131682961Y-68477692D01*
X131633014Y-68357109D01*
X131633012Y-68357105D01*
X131553558Y-68253559D01*
X131553556Y-68253557D01*
X131553553Y-68253553D01*
X131546447Y-68246447D01*
X131546442Y-68246443D01*
X131546440Y-68246441D01*
X131437746Y-68163037D01*
X131438583Y-68161945D01*
X131412872Y-68137866D01*
X131394552Y-68110448D01*
X131394548Y-68110445D01*
X131328233Y-68066134D01*
X131328231Y-68066133D01*
X131328228Y-68066132D01*
X131328227Y-68066132D01*
X131269758Y-68054501D01*
X131269748Y-68054500D01*
X130530252Y-68054500D01*
X130530251Y-68054500D01*
X130530241Y-68054501D01*
X130471772Y-68066132D01*
X130471769Y-68066133D01*
X130446052Y-68083316D01*
X130391053Y-68100000D01*
X129408947Y-68100000D01*
X129353947Y-68083316D01*
X129328231Y-68066133D01*
X129328228Y-68066132D01*
X129328227Y-68066132D01*
X129269758Y-68054501D01*
X129269748Y-68054500D01*
X128530252Y-68054500D01*
X128530251Y-68054500D01*
X128530241Y-68054501D01*
X128471772Y-68066132D01*
X128471766Y-68066134D01*
X128405447Y-68110448D01*
X128387125Y-68137868D01*
X128361418Y-68161950D01*
X128362253Y-68163038D01*
X128253559Y-68246441D01*
X128106063Y-68393937D01*
X128027567Y-68511415D01*
X128027567Y-68511416D01*
X128027566Y-68511418D01*
X128008532Y-68607107D01*
X128000000Y-68650001D01*
X127976275Y-68769269D01*
X127961493Y-68804955D01*
X127899352Y-68897956D01*
X127887040Y-68912959D01*
X127651030Y-69148969D01*
X127641293Y-69157507D01*
X127553233Y-69225078D01*
X127530852Y-69238000D01*
X127434344Y-69277975D01*
X127409380Y-69284664D01*
X127299327Y-69299153D01*
X127286405Y-69300000D01*
X126713595Y-69300000D01*
X126700673Y-69299153D01*
X126590619Y-69284664D01*
X126565655Y-69277975D01*
X126469147Y-69238000D01*
X126446766Y-69225078D01*
X126359872Y-69158402D01*
X126341597Y-69140127D01*
X126327920Y-69122303D01*
X126274920Y-69053232D01*
X126261999Y-69030852D01*
X126222023Y-68934340D01*
X126215336Y-68909382D01*
X126200847Y-68799325D01*
X126200000Y-68786404D01*
X126200000Y-68113595D01*
X126200847Y-68100674D01*
X126205394Y-68066132D01*
X126215336Y-67990611D01*
X126222020Y-67965665D01*
X126248478Y-67901791D01*
X126269930Y-67869684D01*
X127269684Y-66869930D01*
X127301791Y-66848478D01*
X127365665Y-66822020D01*
X127390611Y-66815336D01*
X127491294Y-66802081D01*
X127500674Y-66800847D01*
X127513595Y-66800000D01*
X132086405Y-66800000D01*
X132099326Y-66800846D01*
G37*
G04 #@! TD.AperFunction*
M02*
