G04 #@! TF.GenerationSoftware,KiCad,Pcbnew,8.0.7*
G04 #@! TF.CreationDate,2025-03-27T17:00:34+01:00*
G04 #@! TF.ProjectId,7-REV1B,372d5245-5631-4422-9e6b-696361645f70,rev?*
G04 #@! TF.SameCoordinates,Original*
G04 #@! TF.FileFunction,Legend,Top*
G04 #@! TF.FilePolarity,Positive*
%FSLAX46Y46*%
G04 Gerber Fmt 4.6, Leading zero omitted, Abs format (unit mm)*
G04 Created by KiCad (PCBNEW 8.0.7) date 2025-03-27 17:00:34*
%MOMM*%
%LPD*%
G01*
G04 APERTURE LIST*
G04 Aperture macros list*
%AMRoundRect*
0 Rectangle with rounded corners*
0 $1 Rounding radius*
0 $2 $3 $4 $5 $6 $7 $8 $9 X,Y pos of 4 corners*
0 Add a 4 corners polygon primitive as box body*
4,1,4,$2,$3,$4,$5,$6,$7,$8,$9,$2,$3,0*
0 Add four circle primitives for the rounded corners*
1,1,$1+$1,$2,$3*
1,1,$1+$1,$4,$5*
1,1,$1+$1,$6,$7*
1,1,$1+$1,$8,$9*
0 Add four rect primitives between the rounded corners*
20,1,$1+$1,$2,$3,$4,$5,0*
20,1,$1+$1,$4,$5,$6,$7,0*
20,1,$1+$1,$6,$7,$8,$9,0*
20,1,$1+$1,$8,$9,$2,$3,0*%
%AMRotRect*
0 Rectangle, with rotation*
0 The origin of the aperture is its center*
0 $1 length*
0 $2 width*
0 $3 Rotation angle, in degrees counterclockwise*
0 Add horizontal line*
21,1,$1,$2,0,0,$3*%
%AMFreePoly0*
4,1,5,0.215000,-0.575000,-0.215000,-0.575000,-0.215000,0.575000,0.215000,0.575000,0.215000,-0.575000,0.215000,-0.575000,$1*%
%AMFreePoly1*
4,1,9,3.862500,-0.866500,0.737500,-0.866500,0.737500,-0.450000,-0.737500,-0.450000,-0.737500,0.450000,0.737500,0.450000,0.737500,0.866500,3.862500,0.866500,3.862500,-0.866500,3.862500,-0.866500,$1*%
G04 Aperture macros list end*
%ADD10C,0.212500*%
%ADD11C,0.187500*%
%ADD12C,0.250000*%
%ADD13C,0.350000*%
%ADD14C,0.162500*%
%ADD15C,0.200000*%
%ADD16C,0.300000*%
%ADD17C,0.100000*%
%ADD18C,0.120000*%
%ADD19C,0.150000*%
%ADD20C,0.127000*%
%ADD21C,0.152400*%
%ADD22RoundRect,0.140000X0.170000X-0.140000X0.170000X0.140000X-0.170000X0.140000X-0.170000X-0.140000X0*%
%ADD23R,1.700000X0.820000*%
%ADD24RoundRect,0.205000X0.645000X0.205000X-0.645000X0.205000X-0.645000X-0.205000X0.645000X-0.205000X0*%
%ADD25RoundRect,0.205000X-0.645000X-0.205000X0.645000X-0.205000X0.645000X0.205000X-0.645000X0.205000X0*%
%ADD26R,0.820000X1.700000*%
%ADD27RoundRect,0.205000X-0.205000X0.645000X-0.205000X-0.645000X0.205000X-0.645000X0.205000X0.645000X0*%
%ADD28RoundRect,0.205000X0.205000X-0.645000X0.205000X0.645000X-0.205000X0.645000X-0.205000X-0.645000X0*%
%ADD29RoundRect,0.147500X-0.147500X-0.172500X0.147500X-0.172500X0.147500X0.172500X-0.147500X0.172500X0*%
%ADD30RoundRect,0.147500X0.147500X0.172500X-0.147500X0.172500X-0.147500X-0.172500X0.147500X-0.172500X0*%
%ADD31RoundRect,0.147500X0.172500X-0.147500X0.172500X0.147500X-0.172500X0.147500X-0.172500X-0.147500X0*%
%ADD32RoundRect,0.147500X-0.017678X0.226274X-0.226274X0.017678X0.017678X-0.226274X0.226274X-0.017678X0*%
%ADD33C,3.200000*%
%ADD34RoundRect,0.140000X-0.140000X-0.170000X0.140000X-0.170000X0.140000X0.170000X-0.140000X0.170000X0*%
%ADD35R,0.400000X0.650000*%
%ADD36RoundRect,0.243750X0.243750X0.456250X-0.243750X0.456250X-0.243750X-0.456250X0.243750X-0.456250X0*%
%ADD37RoundRect,0.140000X0.140000X0.170000X-0.140000X0.170000X-0.140000X-0.170000X0.140000X-0.170000X0*%
%ADD38RoundRect,0.147500X-0.172500X0.147500X-0.172500X-0.147500X0.172500X-0.147500X0.172500X0.147500X0*%
%ADD39RoundRect,0.135000X0.185000X-0.135000X0.185000X0.135000X-0.185000X0.135000X-0.185000X-0.135000X0*%
%ADD40RoundRect,0.140000X-0.170000X0.140000X-0.170000X-0.140000X0.170000X-0.140000X0.170000X0.140000X0*%
%ADD41RoundRect,0.030000X-0.250000X-0.200000X0.250000X-0.200000X0.250000X0.200000X-0.250000X0.200000X0*%
%ADD42RoundRect,0.030000X-0.250000X-0.150000X0.250000X-0.150000X0.250000X0.150000X-0.250000X0.150000X0*%
%ADD43RoundRect,0.249998X0.262502X0.450002X-0.262502X0.450002X-0.262502X-0.450002X0.262502X-0.450002X0*%
%ADD44RoundRect,0.150000X-0.650000X-0.150000X0.650000X-0.150000X0.650000X0.150000X-0.650000X0.150000X0*%
%ADD45C,2.000000*%
%ADD46R,1.700000X1.700000*%
%ADD47O,1.700000X1.700000*%
%ADD48RoundRect,0.150000X-0.150000X-0.625000X0.150000X-0.625000X0.150000X0.625000X-0.150000X0.625000X0*%
%ADD49RoundRect,0.249999X-0.350001X-0.650001X0.350001X-0.650001X0.350001X0.650001X-0.350001X0.650001X0*%
%ADD50RoundRect,0.062500X-0.062500X-0.350000X0.062500X-0.350000X0.062500X0.350000X-0.062500X0.350000X0*%
%ADD51RoundRect,0.062500X-0.350000X-0.062500X0.350000X-0.062500X0.350000X0.062500X-0.350000X0.062500X0*%
%ADD52R,1.000000X3.000000*%
%ADD53R,1.400000X1.200000*%
%ADD54R,1.050000X0.650000*%
%ADD55RoundRect,0.135000X0.135000X0.185000X-0.135000X0.185000X-0.135000X-0.185000X0.135000X-0.185000X0*%
%ADD56RoundRect,0.249999X0.450001X1.425001X-0.450001X1.425001X-0.450001X-1.425001X0.450001X-1.425001X0*%
%ADD57RoundRect,0.135000X-0.135000X-0.185000X0.135000X-0.185000X0.135000X0.185000X-0.135000X0.185000X0*%
%ADD58RoundRect,0.100000X-0.100000X0.155000X-0.100000X-0.155000X0.100000X-0.155000X0.100000X0.155000X0*%
%ADD59R,0.650000X1.060000*%
%ADD60R,0.650000X0.400000*%
%ADD61R,0.600000X0.700000*%
%ADD62RoundRect,0.100000X0.100000X-0.637500X0.100000X0.637500X-0.100000X0.637500X-0.100000X-0.637500X0*%
%ADD63C,0.700000*%
%ADD64R,0.600000X1.450000*%
%ADD65R,0.300000X1.450000*%
%ADD66O,1.050000X2.100000*%
%ADD67FreePoly0,90.000000*%
%ADD68R,1.150000X0.430000*%
%ADD69FreePoly0,0.000000*%
%ADD70R,0.430000X1.150000*%
%ADD71FreePoly0,270.000000*%
%ADD72FreePoly0,180.000000*%
%ADD73R,0.700000X0.600000*%
%ADD74RoundRect,0.100000X0.100000X-0.155000X0.100000X0.155000X-0.100000X0.155000X-0.100000X-0.155000X0*%
%ADD75R,1.300000X0.900000*%
%ADD76FreePoly1,0.000000*%
%ADD77R,1.060000X0.650000*%
%ADD78RoundRect,0.202500X0.022500X-0.247500X0.022500X0.247500X-0.022500X0.247500X-0.022500X-0.247500X0*%
%ADD79RoundRect,0.250000X-0.450000X0.350000X-0.450000X-0.350000X0.450000X-0.350000X0.450000X0.350000X0*%
%ADD80R,0.500000X0.400000*%
%ADD81R,0.500000X0.300000*%
%ADD82R,0.900000X1.750000*%
%ADD83RoundRect,0.140000X-0.219203X-0.021213X-0.021213X-0.219203X0.219203X0.021213X0.021213X0.219203X0*%
%ADD84RoundRect,0.140000X0.219203X0.021213X0.021213X0.219203X-0.219203X-0.021213X-0.021213X-0.219203X0*%
%ADD85RotRect,0.900000X0.290000X135.000000*%
%ADD86RotRect,0.290000X0.900000X135.000000*%
%ADD87RotRect,2.000000X4.000000X225.000000*%
%ADD88RoundRect,0.135000X-0.185000X0.135000X-0.185000X-0.135000X0.185000X-0.135000X0.185000X0.135000X0*%
%ADD89RoundRect,0.250000X0.450000X-0.400000X0.450000X0.400000X-0.450000X0.400000X-0.450000X-0.400000X0*%
%ADD90RoundRect,0.100000X-0.088388X-0.229810X0.229810X0.088388X0.088388X0.229810X-0.229810X-0.088388X0*%
%ADD91RoundRect,0.140000X-0.021213X0.219203X-0.219203X0.021213X0.021213X-0.219203X0.219203X-0.021213X0*%
%ADD92RoundRect,0.062500X0.350000X0.062500X-0.350000X0.062500X-0.350000X-0.062500X0.350000X-0.062500X0*%
%ADD93RoundRect,0.062500X0.062500X0.350000X-0.062500X0.350000X-0.062500X-0.350000X0.062500X-0.350000X0*%
%ADD94R,2.700000X2.700000*%
%ADD95R,0.400000X0.500000*%
%ADD96R,0.300000X0.500000*%
%ADD97RoundRect,0.055000X0.335000X-0.055000X0.335000X0.055000X-0.335000X0.055000X-0.335000X-0.055000X0*%
%ADD98RoundRect,0.055000X-0.055000X-0.335000X0.055000X-0.335000X0.055000X0.335000X-0.055000X0.335000X0*%
%ADD99C,0.600000*%
%ADD100R,1.133333X1.133333*%
%ADD101RoundRect,0.100000X0.100000X-0.225000X0.100000X0.225000X-0.100000X0.225000X-0.100000X-0.225000X0*%
%ADD102RoundRect,0.062500X0.062500X-0.337500X0.062500X0.337500X-0.062500X0.337500X-0.062500X-0.337500X0*%
%ADD103RoundRect,0.062500X0.337500X-0.062500X0.337500X0.062500X-0.337500X0.062500X-0.337500X-0.062500X0*%
%ADD104R,2.750000X2.750000*%
%ADD105RoundRect,0.100000X-0.155000X-0.100000X0.155000X-0.100000X0.155000X0.100000X-0.155000X0.100000X0*%
%ADD106R,1.750000X0.900000*%
%ADD107RoundRect,0.093750X0.093750X0.106250X-0.093750X0.106250X-0.093750X-0.106250X0.093750X-0.106250X0*%
%ADD108R,1.000000X1.600000*%
%ADD109RoundRect,0.062500X-0.062500X0.337500X-0.062500X-0.337500X0.062500X-0.337500X0.062500X0.337500X0*%
%ADD110RoundRect,0.062500X-0.337500X0.062500X-0.337500X-0.062500X0.337500X-0.062500X0.337500X0.062500X0*%
%ADD111RoundRect,0.075000X-0.187500X-0.075000X0.187500X-0.075000X0.187500X0.075000X-0.187500X0.075000X0*%
%ADD112RoundRect,0.075000X-0.075000X-0.775000X0.075000X-0.775000X0.075000X0.775000X-0.075000X0.775000X0*%
G04 APERTURE END LIST*
D10*
X147499188Y-68582658D02*
X147451569Y-68663611D01*
X147451569Y-68663611D02*
X147451569Y-68785039D01*
X147451569Y-68785039D02*
X147499188Y-68906468D01*
X147499188Y-68906468D02*
X147594426Y-68987420D01*
X147594426Y-68987420D02*
X147689664Y-69027897D01*
X147689664Y-69027897D02*
X147880140Y-69068373D01*
X147880140Y-69068373D02*
X148022997Y-69068373D01*
X148022997Y-69068373D02*
X148213473Y-69027897D01*
X148213473Y-69027897D02*
X148308711Y-68987420D01*
X148308711Y-68987420D02*
X148403950Y-68906468D01*
X148403950Y-68906468D02*
X148451569Y-68785039D01*
X148451569Y-68785039D02*
X148451569Y-68704087D01*
X148451569Y-68704087D02*
X148403950Y-68582658D01*
X148403950Y-68582658D02*
X148356330Y-68542182D01*
X148356330Y-68542182D02*
X148022997Y-68542182D01*
X148022997Y-68542182D02*
X148022997Y-68704087D01*
X148451569Y-68177897D02*
X147451569Y-68177897D01*
X147451569Y-68177897D02*
X148451569Y-67692182D01*
X148451569Y-67692182D02*
X147451569Y-67692182D01*
X148451569Y-67287421D02*
X147451569Y-67287421D01*
X147451569Y-67287421D02*
X147451569Y-67085040D01*
X147451569Y-67085040D02*
X147499188Y-66963611D01*
X147499188Y-66963611D02*
X147594426Y-66882659D01*
X147594426Y-66882659D02*
X147689664Y-66842182D01*
X147689664Y-66842182D02*
X147880140Y-66801706D01*
X147880140Y-66801706D02*
X148022997Y-66801706D01*
X148022997Y-66801706D02*
X148213473Y-66842182D01*
X148213473Y-66842182D02*
X148308711Y-66882659D01*
X148308711Y-66882659D02*
X148403950Y-66963611D01*
X148403950Y-66963611D02*
X148451569Y-67085040D01*
X148451569Y-67085040D02*
X148451569Y-67287421D01*
D11*
X150955250Y-69087641D02*
X151002869Y-68966212D01*
X151002869Y-68966212D02*
X151002869Y-68763831D01*
X151002869Y-68763831D02*
X150955250Y-68682879D01*
X150955250Y-68682879D02*
X150907630Y-68642403D01*
X150907630Y-68642403D02*
X150812392Y-68601926D01*
X150812392Y-68601926D02*
X150717154Y-68601926D01*
X150717154Y-68601926D02*
X150621916Y-68642403D01*
X150621916Y-68642403D02*
X150574297Y-68682879D01*
X150574297Y-68682879D02*
X150526678Y-68763831D01*
X150526678Y-68763831D02*
X150479059Y-68925736D01*
X150479059Y-68925736D02*
X150431440Y-69006688D01*
X150431440Y-69006688D02*
X150383821Y-69047165D01*
X150383821Y-69047165D02*
X150288583Y-69087641D01*
X150288583Y-69087641D02*
X150193345Y-69087641D01*
X150193345Y-69087641D02*
X150098107Y-69047165D01*
X150098107Y-69047165D02*
X150050488Y-69006688D01*
X150050488Y-69006688D02*
X150002869Y-68925736D01*
X150002869Y-68925736D02*
X150002869Y-68723355D01*
X150002869Y-68723355D02*
X150050488Y-68601926D01*
X150002869Y-68318593D02*
X151002869Y-68116212D01*
X151002869Y-68116212D02*
X150288583Y-67954307D01*
X150288583Y-67954307D02*
X151002869Y-67792402D01*
X151002869Y-67792402D02*
X150002869Y-67590022D01*
X151002869Y-67266212D02*
X150002869Y-67266212D01*
X150002869Y-67266212D02*
X150002869Y-67063831D01*
X150002869Y-67063831D02*
X150050488Y-66942402D01*
X150050488Y-66942402D02*
X150145726Y-66861450D01*
X150145726Y-66861450D02*
X150240964Y-66820973D01*
X150240964Y-66820973D02*
X150431440Y-66780497D01*
X150431440Y-66780497D02*
X150574297Y-66780497D01*
X150574297Y-66780497D02*
X150764773Y-66820973D01*
X150764773Y-66820973D02*
X150860011Y-66861450D01*
X150860011Y-66861450D02*
X150955250Y-66942402D01*
X150955250Y-66942402D02*
X151002869Y-67063831D01*
X151002869Y-67063831D02*
X151002869Y-67266212D01*
X151002869Y-66416212D02*
X150002869Y-66416212D01*
X150002869Y-65849545D02*
X150002869Y-65687640D01*
X150002869Y-65687640D02*
X150050488Y-65606688D01*
X150050488Y-65606688D02*
X150145726Y-65525735D01*
X150145726Y-65525735D02*
X150336202Y-65485259D01*
X150336202Y-65485259D02*
X150669535Y-65485259D01*
X150669535Y-65485259D02*
X150860011Y-65525735D01*
X150860011Y-65525735D02*
X150955250Y-65606688D01*
X150955250Y-65606688D02*
X151002869Y-65687640D01*
X151002869Y-65687640D02*
X151002869Y-65849545D01*
X151002869Y-65849545D02*
X150955250Y-65930497D01*
X150955250Y-65930497D02*
X150860011Y-66011450D01*
X150860011Y-66011450D02*
X150669535Y-66051926D01*
X150669535Y-66051926D02*
X150336202Y-66051926D01*
X150336202Y-66051926D02*
X150145726Y-66011450D01*
X150145726Y-66011450D02*
X150050488Y-65930497D01*
X150050488Y-65930497D02*
X150002869Y-65849545D01*
D12*
X106347619Y-104449619D02*
X106347619Y-103449619D01*
X106347619Y-103449619D02*
X106714286Y-104163904D01*
X106714286Y-104163904D02*
X107080953Y-103449619D01*
X107080953Y-103449619D02*
X107080953Y-104449619D01*
X107552381Y-104163904D02*
X108076191Y-104163904D01*
X107447619Y-104449619D02*
X107814286Y-103449619D01*
X107814286Y-103449619D02*
X108180953Y-104449619D01*
X109176191Y-104449619D02*
X108809524Y-103973428D01*
X108547619Y-104449619D02*
X108547619Y-103449619D01*
X108547619Y-103449619D02*
X108966667Y-103449619D01*
X108966667Y-103449619D02*
X109071429Y-103497238D01*
X109071429Y-103497238D02*
X109123810Y-103544857D01*
X109123810Y-103544857D02*
X109176191Y-103640095D01*
X109176191Y-103640095D02*
X109176191Y-103782952D01*
X109176191Y-103782952D02*
X109123810Y-103878190D01*
X109123810Y-103878190D02*
X109071429Y-103925809D01*
X109071429Y-103925809D02*
X108966667Y-103973428D01*
X108966667Y-103973428D02*
X108547619Y-103973428D01*
X110433333Y-103544857D02*
X110485714Y-103497238D01*
X110485714Y-103497238D02*
X110590476Y-103449619D01*
X110590476Y-103449619D02*
X110852381Y-103449619D01*
X110852381Y-103449619D02*
X110957143Y-103497238D01*
X110957143Y-103497238D02*
X111009524Y-103544857D01*
X111009524Y-103544857D02*
X111061905Y-103640095D01*
X111061905Y-103640095D02*
X111061905Y-103735333D01*
X111061905Y-103735333D02*
X111009524Y-103878190D01*
X111009524Y-103878190D02*
X110380952Y-104449619D01*
X110380952Y-104449619D02*
X111061905Y-104449619D01*
X111742857Y-103449619D02*
X111847619Y-103449619D01*
X111847619Y-103449619D02*
X111952381Y-103497238D01*
X111952381Y-103497238D02*
X112004762Y-103544857D01*
X112004762Y-103544857D02*
X112057143Y-103640095D01*
X112057143Y-103640095D02*
X112109524Y-103830571D01*
X112109524Y-103830571D02*
X112109524Y-104068666D01*
X112109524Y-104068666D02*
X112057143Y-104259142D01*
X112057143Y-104259142D02*
X112004762Y-104354380D01*
X112004762Y-104354380D02*
X111952381Y-104402000D01*
X111952381Y-104402000D02*
X111847619Y-104449619D01*
X111847619Y-104449619D02*
X111742857Y-104449619D01*
X111742857Y-104449619D02*
X111638095Y-104402000D01*
X111638095Y-104402000D02*
X111585714Y-104354380D01*
X111585714Y-104354380D02*
X111533333Y-104259142D01*
X111533333Y-104259142D02*
X111480952Y-104068666D01*
X111480952Y-104068666D02*
X111480952Y-103830571D01*
X111480952Y-103830571D02*
X111533333Y-103640095D01*
X111533333Y-103640095D02*
X111585714Y-103544857D01*
X111585714Y-103544857D02*
X111638095Y-103497238D01*
X111638095Y-103497238D02*
X111742857Y-103449619D01*
X112528571Y-103544857D02*
X112580952Y-103497238D01*
X112580952Y-103497238D02*
X112685714Y-103449619D01*
X112685714Y-103449619D02*
X112947619Y-103449619D01*
X112947619Y-103449619D02*
X113052381Y-103497238D01*
X113052381Y-103497238D02*
X113104762Y-103544857D01*
X113104762Y-103544857D02*
X113157143Y-103640095D01*
X113157143Y-103640095D02*
X113157143Y-103735333D01*
X113157143Y-103735333D02*
X113104762Y-103878190D01*
X113104762Y-103878190D02*
X112476190Y-104449619D01*
X112476190Y-104449619D02*
X113157143Y-104449619D01*
X114152381Y-103449619D02*
X113628571Y-103449619D01*
X113628571Y-103449619D02*
X113576190Y-103925809D01*
X113576190Y-103925809D02*
X113628571Y-103878190D01*
X113628571Y-103878190D02*
X113733333Y-103830571D01*
X113733333Y-103830571D02*
X113995238Y-103830571D01*
X113995238Y-103830571D02*
X114100000Y-103878190D01*
X114100000Y-103878190D02*
X114152381Y-103925809D01*
X114152381Y-103925809D02*
X114204762Y-104021047D01*
X114204762Y-104021047D02*
X114204762Y-104259142D01*
X114204762Y-104259142D02*
X114152381Y-104354380D01*
X114152381Y-104354380D02*
X114100000Y-104402000D01*
X114100000Y-104402000D02*
X113995238Y-104449619D01*
X113995238Y-104449619D02*
X113733333Y-104449619D01*
X113733333Y-104449619D02*
X113628571Y-104402000D01*
X113628571Y-104402000D02*
X113576190Y-104354380D01*
X105590476Y-94693500D02*
X105747619Y-94745880D01*
X105747619Y-94745880D02*
X106009524Y-94745880D01*
X106009524Y-94745880D02*
X106114286Y-94693500D01*
X106114286Y-94693500D02*
X106166667Y-94641119D01*
X106166667Y-94641119D02*
X106219048Y-94536357D01*
X106219048Y-94536357D02*
X106219048Y-94431595D01*
X106219048Y-94431595D02*
X106166667Y-94326833D01*
X106166667Y-94326833D02*
X106114286Y-94274452D01*
X106114286Y-94274452D02*
X106009524Y-94222071D01*
X106009524Y-94222071D02*
X105800000Y-94169690D01*
X105800000Y-94169690D02*
X105695238Y-94117309D01*
X105695238Y-94117309D02*
X105642857Y-94064928D01*
X105642857Y-94064928D02*
X105590476Y-93960166D01*
X105590476Y-93960166D02*
X105590476Y-93855404D01*
X105590476Y-93855404D02*
X105642857Y-93750642D01*
X105642857Y-93750642D02*
X105695238Y-93698261D01*
X105695238Y-93698261D02*
X105800000Y-93645880D01*
X105800000Y-93645880D02*
X106061905Y-93645880D01*
X106061905Y-93645880D02*
X106219048Y-93698261D01*
X106690476Y-94745880D02*
X106690476Y-93645880D01*
X106690476Y-93645880D02*
X107057143Y-94431595D01*
X107057143Y-94431595D02*
X107423810Y-93645880D01*
X107423810Y-93645880D02*
X107423810Y-94745880D01*
X107947619Y-94745880D02*
X107947619Y-93645880D01*
X107947619Y-93645880D02*
X108209524Y-93645880D01*
X108209524Y-93645880D02*
X108366667Y-93698261D01*
X108366667Y-93698261D02*
X108471429Y-93803023D01*
X108471429Y-93803023D02*
X108523810Y-93907785D01*
X108523810Y-93907785D02*
X108576191Y-94117309D01*
X108576191Y-94117309D02*
X108576191Y-94274452D01*
X108576191Y-94274452D02*
X108523810Y-94483976D01*
X108523810Y-94483976D02*
X108471429Y-94588738D01*
X108471429Y-94588738D02*
X108366667Y-94693500D01*
X108366667Y-94693500D02*
X108209524Y-94745880D01*
X108209524Y-94745880D02*
X107947619Y-94745880D01*
X109047619Y-94745880D02*
X109047619Y-93645880D01*
X109047619Y-93645880D02*
X109466667Y-93645880D01*
X109466667Y-93645880D02*
X109571429Y-93698261D01*
X109571429Y-93698261D02*
X109623810Y-93750642D01*
X109623810Y-93750642D02*
X109676191Y-93855404D01*
X109676191Y-93855404D02*
X109676191Y-94012547D01*
X109676191Y-94012547D02*
X109623810Y-94117309D01*
X109623810Y-94117309D02*
X109571429Y-94169690D01*
X109571429Y-94169690D02*
X109466667Y-94222071D01*
X109466667Y-94222071D02*
X109047619Y-94222071D01*
X110776191Y-94745880D02*
X110409524Y-94222071D01*
X110147619Y-94745880D02*
X110147619Y-93645880D01*
X110147619Y-93645880D02*
X110566667Y-93645880D01*
X110566667Y-93645880D02*
X110671429Y-93698261D01*
X110671429Y-93698261D02*
X110723810Y-93750642D01*
X110723810Y-93750642D02*
X110776191Y-93855404D01*
X110776191Y-93855404D02*
X110776191Y-94012547D01*
X110776191Y-94012547D02*
X110723810Y-94117309D01*
X110723810Y-94117309D02*
X110671429Y-94169690D01*
X110671429Y-94169690D02*
X110566667Y-94222071D01*
X110566667Y-94222071D02*
X110147619Y-94222071D01*
X111247619Y-93645880D02*
X111247619Y-94536357D01*
X111247619Y-94536357D02*
X111300000Y-94641119D01*
X111300000Y-94641119D02*
X111352381Y-94693500D01*
X111352381Y-94693500D02*
X111457143Y-94745880D01*
X111457143Y-94745880D02*
X111666667Y-94745880D01*
X111666667Y-94745880D02*
X111771429Y-94693500D01*
X111771429Y-94693500D02*
X111823810Y-94641119D01*
X111823810Y-94641119D02*
X111876191Y-94536357D01*
X111876191Y-94536357D02*
X111876191Y-93645880D01*
X112242857Y-93645880D02*
X112871429Y-93645880D01*
X112557143Y-94745880D02*
X112557143Y-93645880D01*
X113185714Y-94693500D02*
X113342857Y-94745880D01*
X113342857Y-94745880D02*
X113604762Y-94745880D01*
X113604762Y-94745880D02*
X113709524Y-94693500D01*
X113709524Y-94693500D02*
X113761905Y-94641119D01*
X113761905Y-94641119D02*
X113814286Y-94536357D01*
X113814286Y-94536357D02*
X113814286Y-94431595D01*
X113814286Y-94431595D02*
X113761905Y-94326833D01*
X113761905Y-94326833D02*
X113709524Y-94274452D01*
X113709524Y-94274452D02*
X113604762Y-94222071D01*
X113604762Y-94222071D02*
X113395238Y-94169690D01*
X113395238Y-94169690D02*
X113290476Y-94117309D01*
X113290476Y-94117309D02*
X113238095Y-94064928D01*
X113238095Y-94064928D02*
X113185714Y-93960166D01*
X113185714Y-93960166D02*
X113185714Y-93855404D01*
X113185714Y-93855404D02*
X113238095Y-93750642D01*
X113238095Y-93750642D02*
X113290476Y-93698261D01*
X113290476Y-93698261D02*
X113395238Y-93645880D01*
X113395238Y-93645880D02*
X113657143Y-93645880D01*
X113657143Y-93645880D02*
X113814286Y-93698261D01*
X114285714Y-94169690D02*
X114652381Y-94169690D01*
X114809524Y-94745880D02*
X114285714Y-94745880D01*
X114285714Y-94745880D02*
X114285714Y-93645880D01*
X114285714Y-93645880D02*
X114809524Y-93645880D01*
X115909524Y-94745880D02*
X115542857Y-94222071D01*
X115280952Y-94745880D02*
X115280952Y-93645880D01*
X115280952Y-93645880D02*
X115700000Y-93645880D01*
X115700000Y-93645880D02*
X115804762Y-93698261D01*
X115804762Y-93698261D02*
X115857143Y-93750642D01*
X115857143Y-93750642D02*
X115909524Y-93855404D01*
X115909524Y-93855404D02*
X115909524Y-94012547D01*
X115909524Y-94012547D02*
X115857143Y-94117309D01*
X115857143Y-94117309D02*
X115804762Y-94169690D01*
X115804762Y-94169690D02*
X115700000Y-94222071D01*
X115700000Y-94222071D02*
X115280952Y-94222071D01*
X137136905Y-115565273D02*
X137136905Y-114315273D01*
X138267857Y-115565273D02*
X138267857Y-114910511D01*
X138267857Y-114910511D02*
X138208333Y-114791464D01*
X138208333Y-114791464D02*
X138089285Y-114731940D01*
X138089285Y-114731940D02*
X137851190Y-114731940D01*
X137851190Y-114731940D02*
X137732143Y-114791464D01*
X138267857Y-115505750D02*
X138148809Y-115565273D01*
X138148809Y-115565273D02*
X137851190Y-115565273D01*
X137851190Y-115565273D02*
X137732143Y-115505750D01*
X137732143Y-115505750D02*
X137672619Y-115386702D01*
X137672619Y-115386702D02*
X137672619Y-115267654D01*
X137672619Y-115267654D02*
X137732143Y-115148607D01*
X137732143Y-115148607D02*
X137851190Y-115089083D01*
X137851190Y-115089083D02*
X138148809Y-115089083D01*
X138148809Y-115089083D02*
X138267857Y-115029559D01*
X138863095Y-114731940D02*
X138863095Y-115565273D01*
X138863095Y-114850988D02*
X138922618Y-114791464D01*
X138922618Y-114791464D02*
X139041666Y-114731940D01*
X139041666Y-114731940D02*
X139220237Y-114731940D01*
X139220237Y-114731940D02*
X139339285Y-114791464D01*
X139339285Y-114791464D02*
X139398809Y-114910511D01*
X139398809Y-114910511D02*
X139398809Y-115565273D01*
X141541666Y-115565273D02*
X140946428Y-115565273D01*
X140946428Y-115565273D02*
X140946428Y-114315273D01*
X142434523Y-115505750D02*
X142315475Y-115565273D01*
X142315475Y-115565273D02*
X142077380Y-115565273D01*
X142077380Y-115565273D02*
X141958333Y-115505750D01*
X141958333Y-115505750D02*
X141898809Y-115386702D01*
X141898809Y-115386702D02*
X141898809Y-114910511D01*
X141898809Y-114910511D02*
X141958333Y-114791464D01*
X141958333Y-114791464D02*
X142077380Y-114731940D01*
X142077380Y-114731940D02*
X142315475Y-114731940D01*
X142315475Y-114731940D02*
X142434523Y-114791464D01*
X142434523Y-114791464D02*
X142494047Y-114910511D01*
X142494047Y-114910511D02*
X142494047Y-115029559D01*
X142494047Y-115029559D02*
X141898809Y-115148607D01*
X142970238Y-115505750D02*
X143089285Y-115565273D01*
X143089285Y-115565273D02*
X143327381Y-115565273D01*
X143327381Y-115565273D02*
X143446428Y-115505750D01*
X143446428Y-115505750D02*
X143505952Y-115386702D01*
X143505952Y-115386702D02*
X143505952Y-115327178D01*
X143505952Y-115327178D02*
X143446428Y-115208130D01*
X143446428Y-115208130D02*
X143327381Y-115148607D01*
X143327381Y-115148607D02*
X143148809Y-115148607D01*
X143148809Y-115148607D02*
X143029762Y-115089083D01*
X143029762Y-115089083D02*
X142970238Y-114970035D01*
X142970238Y-114970035D02*
X142970238Y-114910511D01*
X142970238Y-114910511D02*
X143029762Y-114791464D01*
X143029762Y-114791464D02*
X143148809Y-114731940D01*
X143148809Y-114731940D02*
X143327381Y-114731940D01*
X143327381Y-114731940D02*
X143446428Y-114791464D01*
X144041667Y-114731940D02*
X144041667Y-115565273D01*
X144041667Y-114850988D02*
X144101190Y-114791464D01*
X144101190Y-114791464D02*
X144220238Y-114731940D01*
X144220238Y-114731940D02*
X144398809Y-114731940D01*
X144398809Y-114731940D02*
X144517857Y-114791464D01*
X144517857Y-114791464D02*
X144577381Y-114910511D01*
X144577381Y-114910511D02*
X144577381Y-115565273D01*
X145648809Y-115505750D02*
X145529761Y-115565273D01*
X145529761Y-115565273D02*
X145291666Y-115565273D01*
X145291666Y-115565273D02*
X145172619Y-115505750D01*
X145172619Y-115505750D02*
X145113095Y-115386702D01*
X145113095Y-115386702D02*
X145113095Y-114910511D01*
X145113095Y-114910511D02*
X145172619Y-114791464D01*
X145172619Y-114791464D02*
X145291666Y-114731940D01*
X145291666Y-114731940D02*
X145529761Y-114731940D01*
X145529761Y-114731940D02*
X145648809Y-114791464D01*
X145648809Y-114791464D02*
X145708333Y-114910511D01*
X145708333Y-114910511D02*
X145708333Y-115029559D01*
X145708333Y-115029559D02*
X145113095Y-115148607D01*
X146065476Y-114731940D02*
X146541667Y-114731940D01*
X146244048Y-114315273D02*
X146244048Y-115386702D01*
X146244048Y-115386702D02*
X146303571Y-115505750D01*
X146303571Y-115505750D02*
X146422619Y-115565273D01*
X146422619Y-115565273D02*
X146541667Y-115565273D01*
D11*
X153505250Y-69030498D02*
X153552869Y-68909069D01*
X153552869Y-68909069D02*
X153552869Y-68706688D01*
X153552869Y-68706688D02*
X153505250Y-68625736D01*
X153505250Y-68625736D02*
X153457630Y-68585260D01*
X153457630Y-68585260D02*
X153362392Y-68544783D01*
X153362392Y-68544783D02*
X153267154Y-68544783D01*
X153267154Y-68544783D02*
X153171916Y-68585260D01*
X153171916Y-68585260D02*
X153124297Y-68625736D01*
X153124297Y-68625736D02*
X153076678Y-68706688D01*
X153076678Y-68706688D02*
X153029059Y-68868593D01*
X153029059Y-68868593D02*
X152981440Y-68949545D01*
X152981440Y-68949545D02*
X152933821Y-68990022D01*
X152933821Y-68990022D02*
X152838583Y-69030498D01*
X152838583Y-69030498D02*
X152743345Y-69030498D01*
X152743345Y-69030498D02*
X152648107Y-68990022D01*
X152648107Y-68990022D02*
X152600488Y-68949545D01*
X152600488Y-68949545D02*
X152552869Y-68868593D01*
X152552869Y-68868593D02*
X152552869Y-68666212D01*
X152552869Y-68666212D02*
X152600488Y-68544783D01*
X152552869Y-68261450D02*
X153552869Y-68059069D01*
X153552869Y-68059069D02*
X152838583Y-67897164D01*
X152838583Y-67897164D02*
X153552869Y-67735259D01*
X153552869Y-67735259D02*
X152552869Y-67532879D01*
X153457630Y-66723354D02*
X153505250Y-66763830D01*
X153505250Y-66763830D02*
X153552869Y-66885259D01*
X153552869Y-66885259D02*
X153552869Y-66966211D01*
X153552869Y-66966211D02*
X153505250Y-67087640D01*
X153505250Y-67087640D02*
X153410011Y-67168592D01*
X153410011Y-67168592D02*
X153314773Y-67209069D01*
X153314773Y-67209069D02*
X153124297Y-67249545D01*
X153124297Y-67249545D02*
X152981440Y-67249545D01*
X152981440Y-67249545D02*
X152790964Y-67209069D01*
X152790964Y-67209069D02*
X152695726Y-67168592D01*
X152695726Y-67168592D02*
X152600488Y-67087640D01*
X152600488Y-67087640D02*
X152552869Y-66966211D01*
X152552869Y-66966211D02*
X152552869Y-66885259D01*
X152552869Y-66885259D02*
X152600488Y-66763830D01*
X152600488Y-66763830D02*
X152648107Y-66723354D01*
X153552869Y-65954307D02*
X153552869Y-66359069D01*
X153552869Y-66359069D02*
X152552869Y-66359069D01*
X153552869Y-65670974D02*
X152552869Y-65670974D01*
X153552869Y-65185259D02*
X152981440Y-65549545D01*
X152552869Y-65185259D02*
X153124297Y-65670974D01*
D13*
X161924271Y-75857144D02*
X161495700Y-74714286D01*
X161495700Y-74714286D02*
X161067128Y-75857144D01*
X161495700Y-76571429D02*
X161495700Y-77714287D01*
X161924271Y-79428572D02*
X160924271Y-79785715D01*
X160924271Y-79785715D02*
X161924271Y-80142858D01*
X161495700Y-80714286D02*
X161495700Y-81857144D01*
X161924271Y-83214287D02*
X160709985Y-83214287D01*
X160709985Y-83214287D02*
X160567128Y-83142858D01*
X160567128Y-83142858D02*
X160495700Y-83071429D01*
X160495700Y-83071429D02*
X160424271Y-82928572D01*
X160424271Y-82928572D02*
X160424271Y-82714287D01*
X160424271Y-82714287D02*
X160495700Y-82571429D01*
X160995700Y-83214287D02*
X160924271Y-83071429D01*
X160924271Y-83071429D02*
X160924271Y-82785715D01*
X160924271Y-82785715D02*
X160995700Y-82642858D01*
X160995700Y-82642858D02*
X161067128Y-82571429D01*
X161067128Y-82571429D02*
X161209985Y-82500001D01*
X161209985Y-82500001D02*
X161638557Y-82500001D01*
X161638557Y-82500001D02*
X161781414Y-82571429D01*
X161781414Y-82571429D02*
X161852842Y-82642858D01*
X161852842Y-82642858D02*
X161924271Y-82785715D01*
X161924271Y-82785715D02*
X161924271Y-83071429D01*
X161924271Y-83071429D02*
X161852842Y-83214287D01*
X160924271Y-83928572D02*
X161924271Y-83928572D01*
X161638557Y-83928572D02*
X161781414Y-84000001D01*
X161781414Y-84000001D02*
X161852842Y-84071430D01*
X161852842Y-84071430D02*
X161924271Y-84214287D01*
X161924271Y-84214287D02*
X161924271Y-84357144D01*
X160924271Y-85071429D02*
X160995700Y-84928572D01*
X160995700Y-84928572D02*
X161067128Y-84857143D01*
X161067128Y-84857143D02*
X161209985Y-84785715D01*
X161209985Y-84785715D02*
X161638557Y-84785715D01*
X161638557Y-84785715D02*
X161781414Y-84857143D01*
X161781414Y-84857143D02*
X161852842Y-84928572D01*
X161852842Y-84928572D02*
X161924271Y-85071429D01*
X161924271Y-85071429D02*
X161924271Y-85285715D01*
X161924271Y-85285715D02*
X161852842Y-85428572D01*
X161852842Y-85428572D02*
X161781414Y-85500001D01*
X161781414Y-85500001D02*
X161638557Y-85571429D01*
X161638557Y-85571429D02*
X161209985Y-85571429D01*
X161209985Y-85571429D02*
X161067128Y-85500001D01*
X161067128Y-85500001D02*
X160995700Y-85428572D01*
X160995700Y-85428572D02*
X160924271Y-85285715D01*
X160924271Y-85285715D02*
X160924271Y-85071429D01*
X160924271Y-86428572D02*
X160995700Y-86285715D01*
X160995700Y-86285715D02*
X161067128Y-86214286D01*
X161067128Y-86214286D02*
X161209985Y-86142858D01*
X161209985Y-86142858D02*
X161638557Y-86142858D01*
X161638557Y-86142858D02*
X161781414Y-86214286D01*
X161781414Y-86214286D02*
X161852842Y-86285715D01*
X161852842Y-86285715D02*
X161924271Y-86428572D01*
X161924271Y-86428572D02*
X161924271Y-86642858D01*
X161924271Y-86642858D02*
X161852842Y-86785715D01*
X161852842Y-86785715D02*
X161781414Y-86857144D01*
X161781414Y-86857144D02*
X161638557Y-86928572D01*
X161638557Y-86928572D02*
X161209985Y-86928572D01*
X161209985Y-86928572D02*
X161067128Y-86857144D01*
X161067128Y-86857144D02*
X160995700Y-86785715D01*
X160995700Y-86785715D02*
X160924271Y-86642858D01*
X160924271Y-86642858D02*
X160924271Y-86428572D01*
X161924271Y-87428572D02*
X160924271Y-87785715D01*
X160924271Y-87785715D02*
X161924271Y-88142858D01*
X160995700Y-89285715D02*
X160924271Y-89142858D01*
X160924271Y-89142858D02*
X160924271Y-88857144D01*
X160924271Y-88857144D02*
X160995700Y-88714286D01*
X160995700Y-88714286D02*
X161138557Y-88642858D01*
X161138557Y-88642858D02*
X161709985Y-88642858D01*
X161709985Y-88642858D02*
X161852842Y-88714286D01*
X161852842Y-88714286D02*
X161924271Y-88857144D01*
X161924271Y-88857144D02*
X161924271Y-89142858D01*
X161924271Y-89142858D02*
X161852842Y-89285715D01*
X161852842Y-89285715D02*
X161709985Y-89357144D01*
X161709985Y-89357144D02*
X161567128Y-89357144D01*
X161567128Y-89357144D02*
X161424271Y-88642858D01*
X160995700Y-91785715D02*
X160924271Y-91642857D01*
X160924271Y-91642857D02*
X160924271Y-91357143D01*
X160924271Y-91357143D02*
X160995700Y-91214286D01*
X160995700Y-91214286D02*
X161067128Y-91142857D01*
X161067128Y-91142857D02*
X161209985Y-91071429D01*
X161209985Y-91071429D02*
X161638557Y-91071429D01*
X161638557Y-91071429D02*
X161781414Y-91142857D01*
X161781414Y-91142857D02*
X161852842Y-91214286D01*
X161852842Y-91214286D02*
X161924271Y-91357143D01*
X161924271Y-91357143D02*
X161924271Y-91642857D01*
X161924271Y-91642857D02*
X161852842Y-91785715D01*
X161924271Y-93071429D02*
X160924271Y-93071429D01*
X161924271Y-92428571D02*
X161138557Y-92428571D01*
X161138557Y-92428571D02*
X160995700Y-92500000D01*
X160995700Y-92500000D02*
X160924271Y-92642857D01*
X160924271Y-92642857D02*
X160924271Y-92857143D01*
X160924271Y-92857143D02*
X160995700Y-93000000D01*
X160995700Y-93000000D02*
X161067128Y-93071429D01*
X161924271Y-93571429D02*
X161924271Y-94142857D01*
X162424271Y-93785714D02*
X161138557Y-93785714D01*
X161138557Y-93785714D02*
X160995700Y-93857143D01*
X160995700Y-93857143D02*
X160924271Y-94000000D01*
X160924271Y-94000000D02*
X160924271Y-94142857D01*
X160924271Y-95785714D02*
X162424271Y-95785714D01*
X160924271Y-96428572D02*
X161709985Y-96428572D01*
X161709985Y-96428572D02*
X161852842Y-96357143D01*
X161852842Y-96357143D02*
X161924271Y-96214286D01*
X161924271Y-96214286D02*
X161924271Y-96000000D01*
X161924271Y-96000000D02*
X161852842Y-95857143D01*
X161852842Y-95857143D02*
X161781414Y-95785714D01*
X160995700Y-97714286D02*
X160924271Y-97571429D01*
X160924271Y-97571429D02*
X160924271Y-97285715D01*
X160924271Y-97285715D02*
X160995700Y-97142857D01*
X160995700Y-97142857D02*
X161138557Y-97071429D01*
X161138557Y-97071429D02*
X161709985Y-97071429D01*
X161709985Y-97071429D02*
X161852842Y-97142857D01*
X161852842Y-97142857D02*
X161924271Y-97285715D01*
X161924271Y-97285715D02*
X161924271Y-97571429D01*
X161924271Y-97571429D02*
X161852842Y-97714286D01*
X161852842Y-97714286D02*
X161709985Y-97785715D01*
X161709985Y-97785715D02*
X161567128Y-97785715D01*
X161567128Y-97785715D02*
X161424271Y-97071429D01*
X160924271Y-98428571D02*
X161924271Y-98428571D01*
X161638557Y-98428571D02*
X161781414Y-98500000D01*
X161781414Y-98500000D02*
X161852842Y-98571429D01*
X161852842Y-98571429D02*
X161924271Y-98714286D01*
X161924271Y-98714286D02*
X161924271Y-98857143D01*
X160995700Y-99928571D02*
X160924271Y-99785714D01*
X160924271Y-99785714D02*
X160924271Y-99500000D01*
X160924271Y-99500000D02*
X160995700Y-99357142D01*
X160995700Y-99357142D02*
X161138557Y-99285714D01*
X161138557Y-99285714D02*
X161709985Y-99285714D01*
X161709985Y-99285714D02*
X161852842Y-99357142D01*
X161852842Y-99357142D02*
X161924271Y-99500000D01*
X161924271Y-99500000D02*
X161924271Y-99785714D01*
X161924271Y-99785714D02*
X161852842Y-99928571D01*
X161852842Y-99928571D02*
X161709985Y-100000000D01*
X161709985Y-100000000D02*
X161567128Y-100000000D01*
X161567128Y-100000000D02*
X161424271Y-99285714D01*
X161495700Y-101785713D02*
X161495700Y-102928571D01*
X161924271Y-103642856D02*
X161495700Y-104785714D01*
X161495700Y-104785714D02*
X161067128Y-103642856D01*
X98774271Y-75857144D02*
X98345700Y-74714286D01*
X98345700Y-74714286D02*
X97917128Y-75857144D01*
X98345700Y-76571429D02*
X98345700Y-77714287D01*
X98774271Y-79428572D02*
X97774271Y-79785715D01*
X97774271Y-79785715D02*
X98774271Y-80142858D01*
X98345700Y-80714286D02*
X98345700Y-81857144D01*
X98774271Y-83214287D02*
X97559985Y-83214287D01*
X97559985Y-83214287D02*
X97417128Y-83142858D01*
X97417128Y-83142858D02*
X97345700Y-83071429D01*
X97345700Y-83071429D02*
X97274271Y-82928572D01*
X97274271Y-82928572D02*
X97274271Y-82714287D01*
X97274271Y-82714287D02*
X97345700Y-82571429D01*
X97845700Y-83214287D02*
X97774271Y-83071429D01*
X97774271Y-83071429D02*
X97774271Y-82785715D01*
X97774271Y-82785715D02*
X97845700Y-82642858D01*
X97845700Y-82642858D02*
X97917128Y-82571429D01*
X97917128Y-82571429D02*
X98059985Y-82500001D01*
X98059985Y-82500001D02*
X98488557Y-82500001D01*
X98488557Y-82500001D02*
X98631414Y-82571429D01*
X98631414Y-82571429D02*
X98702842Y-82642858D01*
X98702842Y-82642858D02*
X98774271Y-82785715D01*
X98774271Y-82785715D02*
X98774271Y-83071429D01*
X98774271Y-83071429D02*
X98702842Y-83214287D01*
X97774271Y-83928572D02*
X98774271Y-83928572D01*
X98488557Y-83928572D02*
X98631414Y-84000001D01*
X98631414Y-84000001D02*
X98702842Y-84071430D01*
X98702842Y-84071430D02*
X98774271Y-84214287D01*
X98774271Y-84214287D02*
X98774271Y-84357144D01*
X97774271Y-85071429D02*
X97845700Y-84928572D01*
X97845700Y-84928572D02*
X97917128Y-84857143D01*
X97917128Y-84857143D02*
X98059985Y-84785715D01*
X98059985Y-84785715D02*
X98488557Y-84785715D01*
X98488557Y-84785715D02*
X98631414Y-84857143D01*
X98631414Y-84857143D02*
X98702842Y-84928572D01*
X98702842Y-84928572D02*
X98774271Y-85071429D01*
X98774271Y-85071429D02*
X98774271Y-85285715D01*
X98774271Y-85285715D02*
X98702842Y-85428572D01*
X98702842Y-85428572D02*
X98631414Y-85500001D01*
X98631414Y-85500001D02*
X98488557Y-85571429D01*
X98488557Y-85571429D02*
X98059985Y-85571429D01*
X98059985Y-85571429D02*
X97917128Y-85500001D01*
X97917128Y-85500001D02*
X97845700Y-85428572D01*
X97845700Y-85428572D02*
X97774271Y-85285715D01*
X97774271Y-85285715D02*
X97774271Y-85071429D01*
X97774271Y-86428572D02*
X97845700Y-86285715D01*
X97845700Y-86285715D02*
X97917128Y-86214286D01*
X97917128Y-86214286D02*
X98059985Y-86142858D01*
X98059985Y-86142858D02*
X98488557Y-86142858D01*
X98488557Y-86142858D02*
X98631414Y-86214286D01*
X98631414Y-86214286D02*
X98702842Y-86285715D01*
X98702842Y-86285715D02*
X98774271Y-86428572D01*
X98774271Y-86428572D02*
X98774271Y-86642858D01*
X98774271Y-86642858D02*
X98702842Y-86785715D01*
X98702842Y-86785715D02*
X98631414Y-86857144D01*
X98631414Y-86857144D02*
X98488557Y-86928572D01*
X98488557Y-86928572D02*
X98059985Y-86928572D01*
X98059985Y-86928572D02*
X97917128Y-86857144D01*
X97917128Y-86857144D02*
X97845700Y-86785715D01*
X97845700Y-86785715D02*
X97774271Y-86642858D01*
X97774271Y-86642858D02*
X97774271Y-86428572D01*
X98774271Y-87428572D02*
X97774271Y-87785715D01*
X97774271Y-87785715D02*
X98774271Y-88142858D01*
X97845700Y-89285715D02*
X97774271Y-89142858D01*
X97774271Y-89142858D02*
X97774271Y-88857144D01*
X97774271Y-88857144D02*
X97845700Y-88714286D01*
X97845700Y-88714286D02*
X97988557Y-88642858D01*
X97988557Y-88642858D02*
X98559985Y-88642858D01*
X98559985Y-88642858D02*
X98702842Y-88714286D01*
X98702842Y-88714286D02*
X98774271Y-88857144D01*
X98774271Y-88857144D02*
X98774271Y-89142858D01*
X98774271Y-89142858D02*
X98702842Y-89285715D01*
X98702842Y-89285715D02*
X98559985Y-89357144D01*
X98559985Y-89357144D02*
X98417128Y-89357144D01*
X98417128Y-89357144D02*
X98274271Y-88642858D01*
X97845700Y-91785715D02*
X97774271Y-91642857D01*
X97774271Y-91642857D02*
X97774271Y-91357143D01*
X97774271Y-91357143D02*
X97845700Y-91214286D01*
X97845700Y-91214286D02*
X97917128Y-91142857D01*
X97917128Y-91142857D02*
X98059985Y-91071429D01*
X98059985Y-91071429D02*
X98488557Y-91071429D01*
X98488557Y-91071429D02*
X98631414Y-91142857D01*
X98631414Y-91142857D02*
X98702842Y-91214286D01*
X98702842Y-91214286D02*
X98774271Y-91357143D01*
X98774271Y-91357143D02*
X98774271Y-91642857D01*
X98774271Y-91642857D02*
X98702842Y-91785715D01*
X98774271Y-93071429D02*
X97774271Y-93071429D01*
X98774271Y-92428571D02*
X97988557Y-92428571D01*
X97988557Y-92428571D02*
X97845700Y-92500000D01*
X97845700Y-92500000D02*
X97774271Y-92642857D01*
X97774271Y-92642857D02*
X97774271Y-92857143D01*
X97774271Y-92857143D02*
X97845700Y-93000000D01*
X97845700Y-93000000D02*
X97917128Y-93071429D01*
X98774271Y-93571429D02*
X98774271Y-94142857D01*
X99274271Y-93785714D02*
X97988557Y-93785714D01*
X97988557Y-93785714D02*
X97845700Y-93857143D01*
X97845700Y-93857143D02*
X97774271Y-94000000D01*
X97774271Y-94000000D02*
X97774271Y-94142857D01*
X97774271Y-95785714D02*
X99274271Y-95785714D01*
X97774271Y-96428572D02*
X98559985Y-96428572D01*
X98559985Y-96428572D02*
X98702842Y-96357143D01*
X98702842Y-96357143D02*
X98774271Y-96214286D01*
X98774271Y-96214286D02*
X98774271Y-96000000D01*
X98774271Y-96000000D02*
X98702842Y-95857143D01*
X98702842Y-95857143D02*
X98631414Y-95785714D01*
X97845700Y-97714286D02*
X97774271Y-97571429D01*
X97774271Y-97571429D02*
X97774271Y-97285715D01*
X97774271Y-97285715D02*
X97845700Y-97142857D01*
X97845700Y-97142857D02*
X97988557Y-97071429D01*
X97988557Y-97071429D02*
X98559985Y-97071429D01*
X98559985Y-97071429D02*
X98702842Y-97142857D01*
X98702842Y-97142857D02*
X98774271Y-97285715D01*
X98774271Y-97285715D02*
X98774271Y-97571429D01*
X98774271Y-97571429D02*
X98702842Y-97714286D01*
X98702842Y-97714286D02*
X98559985Y-97785715D01*
X98559985Y-97785715D02*
X98417128Y-97785715D01*
X98417128Y-97785715D02*
X98274271Y-97071429D01*
X97774271Y-98428571D02*
X98774271Y-98428571D01*
X98488557Y-98428571D02*
X98631414Y-98500000D01*
X98631414Y-98500000D02*
X98702842Y-98571429D01*
X98702842Y-98571429D02*
X98774271Y-98714286D01*
X98774271Y-98714286D02*
X98774271Y-98857143D01*
X97845700Y-99928571D02*
X97774271Y-99785714D01*
X97774271Y-99785714D02*
X97774271Y-99500000D01*
X97774271Y-99500000D02*
X97845700Y-99357142D01*
X97845700Y-99357142D02*
X97988557Y-99285714D01*
X97988557Y-99285714D02*
X98559985Y-99285714D01*
X98559985Y-99285714D02*
X98702842Y-99357142D01*
X98702842Y-99357142D02*
X98774271Y-99500000D01*
X98774271Y-99500000D02*
X98774271Y-99785714D01*
X98774271Y-99785714D02*
X98702842Y-99928571D01*
X98702842Y-99928571D02*
X98559985Y-100000000D01*
X98559985Y-100000000D02*
X98417128Y-100000000D01*
X98417128Y-100000000D02*
X98274271Y-99285714D01*
X98345700Y-101785713D02*
X98345700Y-102928571D01*
X98774271Y-103642856D02*
X98345700Y-104785714D01*
X98345700Y-104785714D02*
X97917128Y-103642856D01*
D14*
X138524046Y-77201776D02*
X138616903Y-77232728D01*
X138616903Y-77232728D02*
X138647856Y-77263680D01*
X138647856Y-77263680D02*
X138678808Y-77325585D01*
X138678808Y-77325585D02*
X138678808Y-77418442D01*
X138678808Y-77418442D02*
X138647856Y-77480347D01*
X138647856Y-77480347D02*
X138616903Y-77511300D01*
X138616903Y-77511300D02*
X138554998Y-77542252D01*
X138554998Y-77542252D02*
X138307379Y-77542252D01*
X138307379Y-77542252D02*
X138307379Y-76892252D01*
X138307379Y-76892252D02*
X138524046Y-76892252D01*
X138524046Y-76892252D02*
X138585951Y-76923204D01*
X138585951Y-76923204D02*
X138616903Y-76954157D01*
X138616903Y-76954157D02*
X138647856Y-77016061D01*
X138647856Y-77016061D02*
X138647856Y-77077966D01*
X138647856Y-77077966D02*
X138616903Y-77139871D01*
X138616903Y-77139871D02*
X138585951Y-77170823D01*
X138585951Y-77170823D02*
X138524046Y-77201776D01*
X138524046Y-77201776D02*
X138307379Y-77201776D01*
X139081189Y-76892252D02*
X139204998Y-76892252D01*
X139204998Y-76892252D02*
X139266903Y-76923204D01*
X139266903Y-76923204D02*
X139328808Y-76985109D01*
X139328808Y-76985109D02*
X139359760Y-77108919D01*
X139359760Y-77108919D02*
X139359760Y-77325585D01*
X139359760Y-77325585D02*
X139328808Y-77449395D01*
X139328808Y-77449395D02*
X139266903Y-77511300D01*
X139266903Y-77511300D02*
X139204998Y-77542252D01*
X139204998Y-77542252D02*
X139081189Y-77542252D01*
X139081189Y-77542252D02*
X139019284Y-77511300D01*
X139019284Y-77511300D02*
X138957379Y-77449395D01*
X138957379Y-77449395D02*
X138926427Y-77325585D01*
X138926427Y-77325585D02*
X138926427Y-77108919D01*
X138926427Y-77108919D02*
X138957379Y-76985109D01*
X138957379Y-76985109D02*
X139019284Y-76923204D01*
X139019284Y-76923204D02*
X139081189Y-76892252D01*
X139762141Y-76892252D02*
X139885950Y-76892252D01*
X139885950Y-76892252D02*
X139947855Y-76923204D01*
X139947855Y-76923204D02*
X140009760Y-76985109D01*
X140009760Y-76985109D02*
X140040712Y-77108919D01*
X140040712Y-77108919D02*
X140040712Y-77325585D01*
X140040712Y-77325585D02*
X140009760Y-77449395D01*
X140009760Y-77449395D02*
X139947855Y-77511300D01*
X139947855Y-77511300D02*
X139885950Y-77542252D01*
X139885950Y-77542252D02*
X139762141Y-77542252D01*
X139762141Y-77542252D02*
X139700236Y-77511300D01*
X139700236Y-77511300D02*
X139638331Y-77449395D01*
X139638331Y-77449395D02*
X139607379Y-77325585D01*
X139607379Y-77325585D02*
X139607379Y-77108919D01*
X139607379Y-77108919D02*
X139638331Y-76985109D01*
X139638331Y-76985109D02*
X139700236Y-76923204D01*
X139700236Y-76923204D02*
X139762141Y-76892252D01*
X140226426Y-76892252D02*
X140597855Y-76892252D01*
X140412141Y-77542252D02*
X140412141Y-76892252D01*
X140783569Y-77511300D02*
X140876426Y-77542252D01*
X140876426Y-77542252D02*
X141031188Y-77542252D01*
X141031188Y-77542252D02*
X141093093Y-77511300D01*
X141093093Y-77511300D02*
X141124045Y-77480347D01*
X141124045Y-77480347D02*
X141154998Y-77418442D01*
X141154998Y-77418442D02*
X141154998Y-77356538D01*
X141154998Y-77356538D02*
X141124045Y-77294633D01*
X141124045Y-77294633D02*
X141093093Y-77263680D01*
X141093093Y-77263680D02*
X141031188Y-77232728D01*
X141031188Y-77232728D02*
X140907379Y-77201776D01*
X140907379Y-77201776D02*
X140845474Y-77170823D01*
X140845474Y-77170823D02*
X140814521Y-77139871D01*
X140814521Y-77139871D02*
X140783569Y-77077966D01*
X140783569Y-77077966D02*
X140783569Y-77016061D01*
X140783569Y-77016061D02*
X140814521Y-76954157D01*
X140814521Y-76954157D02*
X140845474Y-76923204D01*
X140845474Y-76923204D02*
X140907379Y-76892252D01*
X140907379Y-76892252D02*
X141062140Y-76892252D01*
X141062140Y-76892252D02*
X141154998Y-76923204D01*
X141433569Y-77201776D02*
X141650236Y-77201776D01*
X141743093Y-77542252D02*
X141433569Y-77542252D01*
X141433569Y-77542252D02*
X141433569Y-76892252D01*
X141433569Y-76892252D02*
X141743093Y-76892252D01*
X142331188Y-77542252D02*
X142021664Y-77542252D01*
X142021664Y-77542252D02*
X142021664Y-76892252D01*
D15*
X129321428Y-105952219D02*
X128988095Y-105476028D01*
X128750000Y-105952219D02*
X128750000Y-104952219D01*
X128750000Y-104952219D02*
X129130952Y-104952219D01*
X129130952Y-104952219D02*
X129226190Y-104999838D01*
X129226190Y-104999838D02*
X129273809Y-105047457D01*
X129273809Y-105047457D02*
X129321428Y-105142695D01*
X129321428Y-105142695D02*
X129321428Y-105285552D01*
X129321428Y-105285552D02*
X129273809Y-105380790D01*
X129273809Y-105380790D02*
X129226190Y-105428409D01*
X129226190Y-105428409D02*
X129130952Y-105476028D01*
X129130952Y-105476028D02*
X128750000Y-105476028D01*
X129750000Y-105428409D02*
X130083333Y-105428409D01*
X130226190Y-105952219D02*
X129750000Y-105952219D01*
X129750000Y-105952219D02*
X129750000Y-104952219D01*
X129750000Y-104952219D02*
X130226190Y-104952219D01*
X130511905Y-104952219D02*
X130845238Y-105952219D01*
X130845238Y-105952219D02*
X131178571Y-104952219D01*
X132797619Y-105952219D02*
X132226191Y-105952219D01*
X132511905Y-105952219D02*
X132511905Y-104952219D01*
X132511905Y-104952219D02*
X132416667Y-105095076D01*
X132416667Y-105095076D02*
X132321429Y-105190314D01*
X132321429Y-105190314D02*
X132226191Y-105237933D01*
X133559524Y-105428409D02*
X133702381Y-105476028D01*
X133702381Y-105476028D02*
X133750000Y-105523647D01*
X133750000Y-105523647D02*
X133797619Y-105618885D01*
X133797619Y-105618885D02*
X133797619Y-105761742D01*
X133797619Y-105761742D02*
X133750000Y-105856980D01*
X133750000Y-105856980D02*
X133702381Y-105904600D01*
X133702381Y-105904600D02*
X133607143Y-105952219D01*
X133607143Y-105952219D02*
X133226191Y-105952219D01*
X133226191Y-105952219D02*
X133226191Y-104952219D01*
X133226191Y-104952219D02*
X133559524Y-104952219D01*
X133559524Y-104952219D02*
X133654762Y-104999838D01*
X133654762Y-104999838D02*
X133702381Y-105047457D01*
X133702381Y-105047457D02*
X133750000Y-105142695D01*
X133750000Y-105142695D02*
X133750000Y-105237933D01*
X133750000Y-105237933D02*
X133702381Y-105333171D01*
X133702381Y-105333171D02*
X133654762Y-105380790D01*
X133654762Y-105380790D02*
X133559524Y-105428409D01*
X133559524Y-105428409D02*
X133226191Y-105428409D01*
D16*
X121778571Y-103410971D02*
X121971428Y-103468114D01*
X121971428Y-103468114D02*
X122035714Y-103525257D01*
X122035714Y-103525257D02*
X122100000Y-103639542D01*
X122100000Y-103639542D02*
X122100000Y-103810971D01*
X122100000Y-103810971D02*
X122035714Y-103925257D01*
X122035714Y-103925257D02*
X121971428Y-103982400D01*
X121971428Y-103982400D02*
X121842857Y-104039542D01*
X121842857Y-104039542D02*
X121328571Y-104039542D01*
X121328571Y-104039542D02*
X121328571Y-102839542D01*
X121328571Y-102839542D02*
X121778571Y-102839542D01*
X121778571Y-102839542D02*
X121907143Y-102896685D01*
X121907143Y-102896685D02*
X121971428Y-102953828D01*
X121971428Y-102953828D02*
X122035714Y-103068114D01*
X122035714Y-103068114D02*
X122035714Y-103182400D01*
X122035714Y-103182400D02*
X121971428Y-103296685D01*
X121971428Y-103296685D02*
X121907143Y-103353828D01*
X121907143Y-103353828D02*
X121778571Y-103410971D01*
X121778571Y-103410971D02*
X121328571Y-103410971D01*
X123257143Y-103239542D02*
X123257143Y-104039542D01*
X122678571Y-103239542D02*
X122678571Y-103868114D01*
X122678571Y-103868114D02*
X122742857Y-103982400D01*
X122742857Y-103982400D02*
X122871428Y-104039542D01*
X122871428Y-104039542D02*
X123064285Y-104039542D01*
X123064285Y-104039542D02*
X123192857Y-103982400D01*
X123192857Y-103982400D02*
X123257143Y-103925257D01*
X123835714Y-103982400D02*
X123964286Y-104039542D01*
X123964286Y-104039542D02*
X124221429Y-104039542D01*
X124221429Y-104039542D02*
X124350000Y-103982400D01*
X124350000Y-103982400D02*
X124414286Y-103868114D01*
X124414286Y-103868114D02*
X124414286Y-103810971D01*
X124414286Y-103810971D02*
X124350000Y-103696685D01*
X124350000Y-103696685D02*
X124221429Y-103639542D01*
X124221429Y-103639542D02*
X124028572Y-103639542D01*
X124028572Y-103639542D02*
X123900000Y-103582400D01*
X123900000Y-103582400D02*
X123835714Y-103468114D01*
X123835714Y-103468114D02*
X123835714Y-103410971D01*
X123835714Y-103410971D02*
X123900000Y-103296685D01*
X123900000Y-103296685D02*
X124028572Y-103239542D01*
X124028572Y-103239542D02*
X124221429Y-103239542D01*
X124221429Y-103239542D02*
X124350000Y-103296685D01*
X126021428Y-104039542D02*
X126021428Y-102839542D01*
X126021428Y-102839542D02*
X126535714Y-102839542D01*
X126535714Y-102839542D02*
X126664285Y-102896685D01*
X126664285Y-102896685D02*
X126728571Y-102953828D01*
X126728571Y-102953828D02*
X126792857Y-103068114D01*
X126792857Y-103068114D02*
X126792857Y-103239542D01*
X126792857Y-103239542D02*
X126728571Y-103353828D01*
X126728571Y-103353828D02*
X126664285Y-103410971D01*
X126664285Y-103410971D02*
X126535714Y-103468114D01*
X126535714Y-103468114D02*
X126021428Y-103468114D01*
X127371428Y-104039542D02*
X127371428Y-103239542D01*
X127371428Y-102839542D02*
X127307142Y-102896685D01*
X127307142Y-102896685D02*
X127371428Y-102953828D01*
X127371428Y-102953828D02*
X127435714Y-102896685D01*
X127435714Y-102896685D02*
X127371428Y-102839542D01*
X127371428Y-102839542D02*
X127371428Y-102953828D01*
X128014285Y-104039542D02*
X128014285Y-103239542D01*
X128014285Y-103468114D02*
X128078571Y-103353828D01*
X128078571Y-103353828D02*
X128142857Y-103296685D01*
X128142857Y-103296685D02*
X128271428Y-103239542D01*
X128271428Y-103239542D02*
X128399999Y-103239542D01*
X129428571Y-104039542D02*
X129428571Y-103410971D01*
X129428571Y-103410971D02*
X129364285Y-103296685D01*
X129364285Y-103296685D02*
X129235713Y-103239542D01*
X129235713Y-103239542D02*
X128978571Y-103239542D01*
X128978571Y-103239542D02*
X128849999Y-103296685D01*
X129428571Y-103982400D02*
X129299999Y-104039542D01*
X129299999Y-104039542D02*
X128978571Y-104039542D01*
X128978571Y-104039542D02*
X128849999Y-103982400D01*
X128849999Y-103982400D02*
X128785713Y-103868114D01*
X128785713Y-103868114D02*
X128785713Y-103753828D01*
X128785713Y-103753828D02*
X128849999Y-103639542D01*
X128849999Y-103639542D02*
X128978571Y-103582400D01*
X128978571Y-103582400D02*
X129299999Y-103582400D01*
X129299999Y-103582400D02*
X129428571Y-103525257D01*
X129878571Y-103239542D02*
X130392857Y-103239542D01*
X130071428Y-102839542D02*
X130071428Y-103868114D01*
X130071428Y-103868114D02*
X130135714Y-103982400D01*
X130135714Y-103982400D02*
X130264285Y-104039542D01*
X130264285Y-104039542D02*
X130392857Y-104039542D01*
X131357143Y-103982400D02*
X131228571Y-104039542D01*
X131228571Y-104039542D02*
X130971429Y-104039542D01*
X130971429Y-104039542D02*
X130842857Y-103982400D01*
X130842857Y-103982400D02*
X130778571Y-103868114D01*
X130778571Y-103868114D02*
X130778571Y-103410971D01*
X130778571Y-103410971D02*
X130842857Y-103296685D01*
X130842857Y-103296685D02*
X130971429Y-103239542D01*
X130971429Y-103239542D02*
X131228571Y-103239542D01*
X131228571Y-103239542D02*
X131357143Y-103296685D01*
X131357143Y-103296685D02*
X131421429Y-103410971D01*
X131421429Y-103410971D02*
X131421429Y-103525257D01*
X131421429Y-103525257D02*
X130778571Y-103639542D01*
X132900000Y-102839542D02*
X133800000Y-102839542D01*
X133800000Y-102839542D02*
X133221428Y-104039542D01*
D12*
X114303571Y-114315273D02*
X114303571Y-115208130D01*
X114303571Y-115208130D02*
X114244048Y-115386702D01*
X114244048Y-115386702D02*
X114125000Y-115505750D01*
X114125000Y-115505750D02*
X113946429Y-115565273D01*
X113946429Y-115565273D02*
X113827381Y-115565273D01*
X114898810Y-115565273D02*
X114898810Y-114731940D01*
X114898810Y-114315273D02*
X114839286Y-114374797D01*
X114839286Y-114374797D02*
X114898810Y-114434321D01*
X114898810Y-114434321D02*
X114958333Y-114374797D01*
X114958333Y-114374797D02*
X114898810Y-114315273D01*
X114898810Y-114315273D02*
X114898810Y-114434321D01*
X115494048Y-114731940D02*
X115494048Y-115565273D01*
X115494048Y-114850988D02*
X115553571Y-114791464D01*
X115553571Y-114791464D02*
X115672619Y-114731940D01*
X115672619Y-114731940D02*
X115851190Y-114731940D01*
X115851190Y-114731940D02*
X115970238Y-114791464D01*
X115970238Y-114791464D02*
X116029762Y-114910511D01*
X116029762Y-114910511D02*
X116029762Y-115565273D01*
X117398809Y-114970035D02*
X117339285Y-114910511D01*
X117339285Y-114910511D02*
X117220238Y-114850988D01*
X117220238Y-114850988D02*
X117101190Y-114850988D01*
X117101190Y-114850988D02*
X116982142Y-114910511D01*
X116982142Y-114910511D02*
X116922619Y-114970035D01*
X116922619Y-114970035D02*
X116863095Y-115089083D01*
X116863095Y-115089083D02*
X116863095Y-115208130D01*
X116863095Y-115208130D02*
X116922619Y-115327178D01*
X116922619Y-115327178D02*
X116982142Y-115386702D01*
X116982142Y-115386702D02*
X117101190Y-115446226D01*
X117101190Y-115446226D02*
X117220238Y-115446226D01*
X117220238Y-115446226D02*
X117339285Y-115386702D01*
X117339285Y-115386702D02*
X117398809Y-115327178D01*
X117398809Y-114850988D02*
X117398809Y-115327178D01*
X117398809Y-115327178D02*
X117458333Y-115386702D01*
X117458333Y-115386702D02*
X117517857Y-115386702D01*
X117517857Y-115386702D02*
X117636904Y-115327178D01*
X117636904Y-115327178D02*
X117696428Y-115208130D01*
X117696428Y-115208130D02*
X117696428Y-114910511D01*
X117696428Y-114910511D02*
X117577381Y-114731940D01*
X117577381Y-114731940D02*
X117398809Y-114612892D01*
X117398809Y-114612892D02*
X117160714Y-114553369D01*
X117160714Y-114553369D02*
X116922619Y-114612892D01*
X116922619Y-114612892D02*
X116744047Y-114731940D01*
X116744047Y-114731940D02*
X116625000Y-114910511D01*
X116625000Y-114910511D02*
X116565476Y-115148607D01*
X116565476Y-115148607D02*
X116625000Y-115386702D01*
X116625000Y-115386702D02*
X116744047Y-115565273D01*
X116744047Y-115565273D02*
X116922619Y-115684321D01*
X116922619Y-115684321D02*
X117160714Y-115743845D01*
X117160714Y-115743845D02*
X117398809Y-115684321D01*
X117398809Y-115684321D02*
X117577381Y-115565273D01*
X118648809Y-114910511D02*
X118232143Y-114910511D01*
X118232143Y-115565273D02*
X118232143Y-114315273D01*
X118232143Y-114315273D02*
X118827381Y-114315273D01*
X119482143Y-115565273D02*
X119363095Y-115505750D01*
X119363095Y-115505750D02*
X119303572Y-115386702D01*
X119303572Y-115386702D02*
X119303572Y-114315273D01*
X119839286Y-114731940D02*
X120136905Y-115565273D01*
X120434524Y-114731940D02*
X120136905Y-115565273D01*
X120136905Y-115565273D02*
X120017857Y-115862892D01*
X120017857Y-115862892D02*
X119958334Y-115922416D01*
X119958334Y-115922416D02*
X119839286Y-115981940D01*
X121505953Y-115565273D02*
X120910715Y-115565273D01*
X120910715Y-115565273D02*
X120910715Y-114315273D01*
X121922620Y-115565273D02*
X121922620Y-114731940D01*
X121922620Y-114315273D02*
X121863096Y-114374797D01*
X121863096Y-114374797D02*
X121922620Y-114434321D01*
X121922620Y-114434321D02*
X121982143Y-114374797D01*
X121982143Y-114374797D02*
X121922620Y-114315273D01*
X121922620Y-114315273D02*
X121922620Y-114434321D01*
X122517858Y-114731940D02*
X122517858Y-115565273D01*
X122517858Y-114850988D02*
X122577381Y-114791464D01*
X122577381Y-114791464D02*
X122696429Y-114731940D01*
X122696429Y-114731940D02*
X122875000Y-114731940D01*
X122875000Y-114731940D02*
X122994048Y-114791464D01*
X122994048Y-114791464D02*
X123053572Y-114910511D01*
X123053572Y-114910511D02*
X123053572Y-115565273D01*
D17*
X117454761Y-60539866D02*
X116845238Y-60539866D01*
X117149999Y-60235104D02*
X117149999Y-60844628D01*
X142345238Y-119660133D02*
X142954762Y-119660133D01*
X142650000Y-119964895D02*
X142650000Y-119355371D01*
X100339866Y-102545238D02*
X100339866Y-103154762D01*
X100035104Y-102850000D02*
X100644628Y-102850000D01*
X150454761Y-60539866D02*
X149845238Y-60539866D01*
X150149999Y-60235104D02*
X150149999Y-60844628D01*
X159460133Y-77654761D02*
X159460133Y-77045238D01*
X159764895Y-77349999D02*
X159155371Y-77349999D01*
X109345238Y-119660133D02*
X109954762Y-119660133D01*
X109650000Y-119964895D02*
X109650000Y-119355371D01*
X100339866Y-69545238D02*
X100339866Y-70154762D01*
X100035104Y-69850000D02*
X100644628Y-69850000D01*
X100339866Y-86045238D02*
X100339866Y-86654762D01*
X100035104Y-86350000D02*
X100644628Y-86350000D01*
D18*
X145067593Y-71750000D02*
X145567593Y-71750000D01*
X145567593Y-71750000D02*
X145667593Y-71783333D01*
X145667593Y-71783333D02*
X145734260Y-71850000D01*
X145734260Y-71850000D02*
X145767593Y-71950000D01*
X145767593Y-71950000D02*
X145767593Y-72016667D01*
X145134260Y-71450000D02*
X145100926Y-71416667D01*
X145100926Y-71416667D02*
X145067593Y-71350000D01*
X145067593Y-71350000D02*
X145067593Y-71183334D01*
X145067593Y-71183334D02*
X145100926Y-71116667D01*
X145100926Y-71116667D02*
X145134260Y-71083334D01*
X145134260Y-71083334D02*
X145200926Y-71050000D01*
X145200926Y-71050000D02*
X145267593Y-71050000D01*
X145267593Y-71050000D02*
X145367593Y-71083334D01*
X145367593Y-71083334D02*
X145767593Y-71483334D01*
X145767593Y-71483334D02*
X145767593Y-71050000D01*
X145067593Y-70616667D02*
X145067593Y-70550000D01*
X145067593Y-70550000D02*
X145100926Y-70483333D01*
X145100926Y-70483333D02*
X145134260Y-70450000D01*
X145134260Y-70450000D02*
X145200926Y-70416667D01*
X145200926Y-70416667D02*
X145334260Y-70383333D01*
X145334260Y-70383333D02*
X145500926Y-70383333D01*
X145500926Y-70383333D02*
X145634260Y-70416667D01*
X145634260Y-70416667D02*
X145700926Y-70450000D01*
X145700926Y-70450000D02*
X145734260Y-70483333D01*
X145734260Y-70483333D02*
X145767593Y-70550000D01*
X145767593Y-70550000D02*
X145767593Y-70616667D01*
X145767593Y-70616667D02*
X145734260Y-70683333D01*
X145734260Y-70683333D02*
X145700926Y-70716667D01*
X145700926Y-70716667D02*
X145634260Y-70750000D01*
X145634260Y-70750000D02*
X145500926Y-70783333D01*
X145500926Y-70783333D02*
X145334260Y-70783333D01*
X145334260Y-70783333D02*
X145200926Y-70750000D01*
X145200926Y-70750000D02*
X145134260Y-70716667D01*
X145134260Y-70716667D02*
X145100926Y-70683333D01*
X145100926Y-70683333D02*
X145067593Y-70616667D01*
X145767593Y-69716666D02*
X145767593Y-70116666D01*
X145767593Y-69916666D02*
X145067593Y-69916666D01*
X145067593Y-69916666D02*
X145167593Y-69983333D01*
X145167593Y-69983333D02*
X145234260Y-70050000D01*
X145234260Y-70050000D02*
X145267593Y-70116666D01*
X129049999Y-117617593D02*
X129049999Y-118117593D01*
X129049999Y-118117593D02*
X129016666Y-118217593D01*
X129016666Y-118217593D02*
X128949999Y-118284260D01*
X128949999Y-118284260D02*
X128849999Y-118317593D01*
X128849999Y-118317593D02*
X128783333Y-118317593D01*
X129316666Y-117617593D02*
X129749999Y-117617593D01*
X129749999Y-117617593D02*
X129516666Y-117884260D01*
X129516666Y-117884260D02*
X129616666Y-117884260D01*
X129616666Y-117884260D02*
X129683332Y-117917593D01*
X129683332Y-117917593D02*
X129716666Y-117950926D01*
X129716666Y-117950926D02*
X129749999Y-118017593D01*
X129749999Y-118017593D02*
X129749999Y-118184260D01*
X129749999Y-118184260D02*
X129716666Y-118250926D01*
X129716666Y-118250926D02*
X129683332Y-118284260D01*
X129683332Y-118284260D02*
X129616666Y-118317593D01*
X129616666Y-118317593D02*
X129416666Y-118317593D01*
X129416666Y-118317593D02*
X129349999Y-118284260D01*
X129349999Y-118284260D02*
X129316666Y-118250926D01*
X130183333Y-117617593D02*
X130249999Y-117617593D01*
X130249999Y-117617593D02*
X130316666Y-117650926D01*
X130316666Y-117650926D02*
X130349999Y-117684260D01*
X130349999Y-117684260D02*
X130383333Y-117750926D01*
X130383333Y-117750926D02*
X130416666Y-117884260D01*
X130416666Y-117884260D02*
X130416666Y-118050926D01*
X130416666Y-118050926D02*
X130383333Y-118184260D01*
X130383333Y-118184260D02*
X130349999Y-118250926D01*
X130349999Y-118250926D02*
X130316666Y-118284260D01*
X130316666Y-118284260D02*
X130249999Y-118317593D01*
X130249999Y-118317593D02*
X130183333Y-118317593D01*
X130183333Y-118317593D02*
X130116666Y-118284260D01*
X130116666Y-118284260D02*
X130083333Y-118250926D01*
X130083333Y-118250926D02*
X130049999Y-118184260D01*
X130049999Y-118184260D02*
X130016666Y-118050926D01*
X130016666Y-118050926D02*
X130016666Y-117884260D01*
X130016666Y-117884260D02*
X130049999Y-117750926D01*
X130049999Y-117750926D02*
X130083333Y-117684260D01*
X130083333Y-117684260D02*
X130116666Y-117650926D01*
X130116666Y-117650926D02*
X130183333Y-117617593D01*
X130683333Y-117684260D02*
X130716666Y-117650926D01*
X130716666Y-117650926D02*
X130783333Y-117617593D01*
X130783333Y-117617593D02*
X130950000Y-117617593D01*
X130950000Y-117617593D02*
X131016666Y-117650926D01*
X131016666Y-117650926D02*
X131050000Y-117684260D01*
X131050000Y-117684260D02*
X131083333Y-117750926D01*
X131083333Y-117750926D02*
X131083333Y-117817593D01*
X131083333Y-117817593D02*
X131050000Y-117917593D01*
X131050000Y-117917593D02*
X130650000Y-118317593D01*
X130650000Y-118317593D02*
X131083333Y-118317593D01*
D17*
X159460133Y-110654761D02*
X159460133Y-110045238D01*
X159764895Y-110349999D02*
X159155371Y-110349999D01*
D18*
X123917593Y-65500000D02*
X124417593Y-65500000D01*
X124417593Y-65500000D02*
X124517593Y-65533333D01*
X124517593Y-65533333D02*
X124584260Y-65600000D01*
X124584260Y-65600000D02*
X124617593Y-65700000D01*
X124617593Y-65700000D02*
X124617593Y-65766667D01*
X123984260Y-65200000D02*
X123950926Y-65166667D01*
X123950926Y-65166667D02*
X123917593Y-65100000D01*
X123917593Y-65100000D02*
X123917593Y-64933334D01*
X123917593Y-64933334D02*
X123950926Y-64866667D01*
X123950926Y-64866667D02*
X123984260Y-64833334D01*
X123984260Y-64833334D02*
X124050926Y-64800000D01*
X124050926Y-64800000D02*
X124117593Y-64800000D01*
X124117593Y-64800000D02*
X124217593Y-64833334D01*
X124217593Y-64833334D02*
X124617593Y-65233334D01*
X124617593Y-65233334D02*
X124617593Y-64800000D01*
X123917593Y-64366667D02*
X123917593Y-64300000D01*
X123917593Y-64300000D02*
X123950926Y-64233333D01*
X123950926Y-64233333D02*
X123984260Y-64200000D01*
X123984260Y-64200000D02*
X124050926Y-64166667D01*
X124050926Y-64166667D02*
X124184260Y-64133333D01*
X124184260Y-64133333D02*
X124350926Y-64133333D01*
X124350926Y-64133333D02*
X124484260Y-64166667D01*
X124484260Y-64166667D02*
X124550926Y-64200000D01*
X124550926Y-64200000D02*
X124584260Y-64233333D01*
X124584260Y-64233333D02*
X124617593Y-64300000D01*
X124617593Y-64300000D02*
X124617593Y-64366667D01*
X124617593Y-64366667D02*
X124584260Y-64433333D01*
X124584260Y-64433333D02*
X124550926Y-64466667D01*
X124550926Y-64466667D02*
X124484260Y-64500000D01*
X124484260Y-64500000D02*
X124350926Y-64533333D01*
X124350926Y-64533333D02*
X124184260Y-64533333D01*
X124184260Y-64533333D02*
X124050926Y-64500000D01*
X124050926Y-64500000D02*
X123984260Y-64466667D01*
X123984260Y-64466667D02*
X123950926Y-64433333D01*
X123950926Y-64433333D02*
X123917593Y-64366667D01*
X123984260Y-63866666D02*
X123950926Y-63833333D01*
X123950926Y-63833333D02*
X123917593Y-63766666D01*
X123917593Y-63766666D02*
X123917593Y-63600000D01*
X123917593Y-63600000D02*
X123950926Y-63533333D01*
X123950926Y-63533333D02*
X123984260Y-63500000D01*
X123984260Y-63500000D02*
X124050926Y-63466666D01*
X124050926Y-63466666D02*
X124117593Y-63466666D01*
X124117593Y-63466666D02*
X124217593Y-63500000D01*
X124217593Y-63500000D02*
X124617593Y-63900000D01*
X124617593Y-63900000D02*
X124617593Y-63466666D01*
D17*
X159460133Y-94154761D02*
X159460133Y-93545238D01*
X159764895Y-93849999D02*
X159155371Y-93849999D01*
D18*
X141890000Y-74607836D02*
X141890000Y-74392164D01*
X142610000Y-74607836D02*
X142610000Y-74392164D01*
X115448000Y-60576000D02*
X116448000Y-60576000D01*
X144352000Y-119624000D02*
X143352000Y-119624000D01*
X100376000Y-104552000D02*
X100376000Y-103552000D01*
X148448000Y-60576000D02*
X149448000Y-60576000D01*
X159424000Y-75648000D02*
X159424000Y-76648000D01*
X111352000Y-119624000D02*
X110352000Y-119624000D01*
X100376000Y-71552000D02*
X100376000Y-70552000D01*
X100376000Y-88052000D02*
X100376000Y-87052000D01*
X138890000Y-82857836D02*
X138890000Y-82642164D01*
X139610000Y-82857836D02*
X139610000Y-82642164D01*
X138392164Y-86640000D02*
X138607836Y-86640000D01*
X138392164Y-87360000D02*
X138607836Y-87360000D01*
X104590000Y-88550000D02*
X104590000Y-89950000D01*
X106910000Y-89950000D02*
X106910000Y-88050000D01*
X113590000Y-88550000D02*
X113590000Y-89950000D01*
X115910000Y-89950000D02*
X115910000Y-88050000D01*
X104590000Y-98550000D02*
X104590000Y-99950000D01*
X106910000Y-99950000D02*
X106910000Y-98050000D01*
X110590000Y-98550000D02*
X110590000Y-99950000D01*
X112910000Y-99950000D02*
X112910000Y-98050000D01*
X136258578Y-68540000D02*
X135741422Y-68540000D01*
X136258578Y-69960000D02*
X135741422Y-69960000D01*
X157792164Y-77540000D02*
X158007836Y-77540000D01*
X157792164Y-78260000D02*
X158007836Y-78260000D01*
X102057836Y-78340000D02*
X101842164Y-78340000D01*
X102057836Y-79060000D02*
X101842164Y-79060000D01*
X135390000Y-62107836D02*
X135390000Y-61892164D01*
X136110000Y-62107836D02*
X136110000Y-61892164D01*
X102107836Y-68640000D02*
X101892164Y-68640000D01*
X102107836Y-69360000D02*
X101892164Y-69360000D01*
X102007836Y-85240000D02*
X101792164Y-85240000D01*
X102007836Y-85960000D02*
X101792164Y-85960000D01*
X102007836Y-94890000D02*
X101792164Y-94890000D01*
X102007836Y-95610000D02*
X101792164Y-95610000D01*
X150390000Y-62357836D02*
X150390000Y-62142164D01*
X151110000Y-62357836D02*
X151110000Y-62142164D01*
X122890000Y-62107836D02*
X122890000Y-61892164D01*
X123610000Y-62107836D02*
X123610000Y-61892164D01*
X140120000Y-82903641D02*
X140120000Y-82596359D01*
X140880000Y-82903641D02*
X140880000Y-82596359D01*
X132140000Y-74592164D02*
X132140000Y-74807836D01*
X132860000Y-74592164D02*
X132860000Y-74807836D01*
X135390000Y-66892164D02*
X135390000Y-67107836D01*
X136110000Y-66892164D02*
X136110000Y-67107836D01*
X136640000Y-66892164D02*
X136640000Y-67107836D01*
X137360000Y-66892164D02*
X137360000Y-67107836D01*
X123857836Y-85540000D02*
X123642164Y-85540000D01*
X123857836Y-86260000D02*
X123642164Y-86260000D01*
X118250000Y-86320000D02*
X117750000Y-86320000D01*
X118250000Y-88680000D02*
X117750000Y-88680000D01*
X144727064Y-95265000D02*
X144272936Y-95265000D01*
X144727064Y-96735000D02*
X144272936Y-96735000D01*
X118250000Y-90070000D02*
X117750000Y-90070000D01*
X118250000Y-92430000D02*
X117750000Y-92430000D01*
X124000000Y-72975000D02*
X124000000Y-73235000D01*
X124000000Y-73235000D02*
X122350000Y-73235000D01*
X124000000Y-78425000D02*
X124000000Y-78165000D01*
X126750000Y-72975000D02*
X124000000Y-72975000D01*
X126750000Y-72975000D02*
X129500000Y-72975000D01*
X126750000Y-78425000D02*
X124000000Y-78425000D01*
X126750000Y-78425000D02*
X129500000Y-78425000D01*
X129500000Y-72975000D02*
X129500000Y-73235000D01*
X129500000Y-78425000D02*
X129500000Y-78165000D01*
X141890000Y-118142164D02*
X141890000Y-118357836D01*
X142610000Y-118142164D02*
X142610000Y-118357836D01*
X102007836Y-101840000D02*
X101792164Y-101840000D01*
X102007836Y-102560000D02*
X101792164Y-102560000D01*
X139857836Y-115972000D02*
X139642164Y-115972000D01*
X139857836Y-116692000D02*
X139642164Y-116692000D01*
X121011836Y-115972000D02*
X120796164Y-115972000D01*
X121011836Y-116692000D02*
X120796164Y-116692000D01*
X108640000Y-117892164D02*
X108640000Y-118107836D01*
X109360000Y-117892164D02*
X109360000Y-118107836D01*
X138890000Y-67107836D02*
X138890000Y-66892164D01*
X139610000Y-67107836D02*
X139610000Y-66892164D01*
X146680000Y-69520000D02*
X148010000Y-69520000D01*
X146680000Y-70850000D02*
X146680000Y-69520000D01*
X149280000Y-69520000D02*
X154420000Y-69520000D01*
X149280000Y-72180000D02*
X149280000Y-69520000D01*
X149280000Y-72180000D02*
X154420000Y-72180000D01*
X154420000Y-72180000D02*
X154420000Y-69520000D01*
X157892164Y-110640000D02*
X158107836Y-110640000D01*
X157892164Y-111360000D02*
X158107836Y-111360000D01*
X124290000Y-115035000D02*
X125340000Y-115035000D01*
X124290000Y-117535000D02*
X124290000Y-115035000D01*
X125340000Y-115035000D02*
X125340000Y-114045000D01*
X125460000Y-119505000D02*
X134340000Y-119505000D01*
X135510000Y-115035000D02*
X134460000Y-115035000D01*
X135510000Y-117535000D02*
X135510000Y-115035000D01*
X150390000Y-87860000D02*
X150390000Y-87635000D01*
X151115000Y-83140000D02*
X150690000Y-83140000D01*
X151115000Y-87860000D02*
X150390000Y-87860000D01*
X152385000Y-83140000D02*
X153110000Y-83140000D01*
X152385000Y-87860000D02*
X153110000Y-87860000D01*
X153110000Y-83140000D02*
X153110000Y-83365000D01*
X153110000Y-87860000D02*
X153110000Y-87635000D01*
X150390000Y-83140000D02*
X150150000Y-82810000D01*
X150630000Y-82810000D01*
X150390000Y-83140000D01*
G36*
X150390000Y-83140000D02*
G01*
X150150000Y-82810000D01*
X150630000Y-82810000D01*
X150390000Y-83140000D01*
G37*
X135000000Y-94600000D02*
X135000000Y-97900000D01*
X135000000Y-97900000D02*
X139000000Y-97900000D01*
X138050000Y-79180000D02*
X138050000Y-80320000D01*
X138050000Y-81330000D02*
X138050001Y-81450000D01*
X138050001Y-78050000D02*
X138050000Y-78170000D01*
X138050001Y-81450000D02*
X142449999Y-81450000D01*
X142449999Y-78050000D02*
X138050001Y-78050000D01*
X142449999Y-81450000D02*
X142450000Y-81330000D01*
X142450000Y-78170000D02*
X142449999Y-78050000D01*
X142450000Y-80320000D02*
X142450000Y-79180000D01*
X157892164Y-95140000D02*
X158107836Y-95140000D01*
X157892164Y-95860000D02*
X158107836Y-95860000D01*
X110870000Y-82403641D02*
X110870000Y-82096359D01*
X111630000Y-82403641D02*
X111630000Y-82096359D01*
X105653641Y-78120000D02*
X105346359Y-78120000D01*
X105653641Y-78880000D02*
X105346359Y-78880000D01*
X112153641Y-73870000D02*
X111846359Y-73870000D01*
X112153641Y-74630000D02*
X111846359Y-74630000D01*
X105653641Y-72620000D02*
X105346359Y-72620000D01*
X105653641Y-73380000D02*
X105346359Y-73380000D01*
X105653641Y-73870000D02*
X105346359Y-73870000D01*
X105653641Y-74630000D02*
X105346359Y-74630000D01*
X111107836Y-64640000D02*
X110892164Y-64640000D01*
X111107836Y-65360000D02*
X110892164Y-65360000D01*
X120427064Y-64290000D02*
X116072936Y-64290000D01*
X120427064Y-67710000D02*
X116072936Y-67710000D01*
X105346359Y-75120000D02*
X105653641Y-75120000D01*
X105346359Y-75880000D02*
X105653641Y-75880000D01*
X117140000Y-62107836D02*
X117140000Y-61892164D01*
X117860000Y-62107836D02*
X117860000Y-61892164D01*
X104850000Y-81600000D02*
X104850000Y-82900000D01*
X106650000Y-81600000D02*
X106650000Y-82900000D01*
D19*
X105315000Y-83500000D02*
G75*
G02*
X105165000Y-83500000I-75000J0D01*
G01*
X105165000Y-83500000D02*
G75*
G02*
X105315000Y-83500000I75000J0D01*
G01*
D18*
X113620000Y-76403641D02*
X113620000Y-76096359D01*
X114380000Y-76403641D02*
X114380000Y-76096359D01*
X111107836Y-70140000D02*
X110892164Y-70140000D01*
X111107836Y-70860000D02*
X110892164Y-70860000D01*
X108890000Y-66850000D02*
X108890000Y-68650000D01*
X112110000Y-68650000D02*
X112110000Y-66200000D01*
X108050000Y-74910000D02*
X109950000Y-74910000D01*
X109450000Y-72590000D02*
X108050000Y-72590000D01*
X108050000Y-83410000D02*
X109950000Y-83410000D01*
X109450000Y-81090000D02*
X108050000Y-81090000D01*
X107600000Y-79400000D02*
X107600000Y-80600000D01*
X109450000Y-79400000D02*
X107600000Y-79400000D01*
X109450000Y-80600000D02*
X107600000Y-80600000D01*
X147465000Y-93000000D02*
X147465000Y-90800000D01*
X147465000Y-93000000D02*
X147465000Y-96600000D01*
X155535000Y-93000000D02*
X155535000Y-90800000D01*
X155535000Y-93000000D02*
X155535000Y-95200000D01*
X107590000Y-98550000D02*
X107590000Y-99950000D01*
X109910000Y-99950000D02*
X109910000Y-98050000D01*
X118250000Y-82570000D02*
X117750000Y-82570000D01*
X118250000Y-84930000D02*
X117750000Y-84930000D01*
X153357836Y-81140000D02*
X153142164Y-81140000D01*
X153357836Y-81860000D02*
X153142164Y-81860000D01*
X110590000Y-88550000D02*
X110590000Y-89950000D01*
X112910000Y-89950000D02*
X112910000Y-88050000D01*
X124000000Y-82570000D02*
X123500000Y-82570000D01*
X124000000Y-84930000D02*
X123500000Y-84930000D01*
X121000000Y-86320000D02*
X120500000Y-86320000D01*
X121000000Y-88680000D02*
X120500000Y-88680000D01*
X107590000Y-88550000D02*
X107590000Y-89950000D01*
X109910000Y-89950000D02*
X109910000Y-88050000D01*
X121000000Y-90070000D02*
X120500000Y-90070000D01*
X121000000Y-92430000D02*
X120500000Y-92430000D01*
X113590000Y-98550000D02*
X113590000Y-99950000D01*
X115910000Y-99950000D02*
X115910000Y-98050000D01*
X159424000Y-108648000D02*
X159424000Y-109648000D01*
D20*
X125430000Y-58900000D02*
X134370000Y-58900000D01*
X125430000Y-60130000D02*
X125430000Y-58900000D01*
X125430000Y-64310000D02*
X125430000Y-62870000D01*
X134370000Y-58900000D02*
X134370000Y-60130000D01*
X134370000Y-64310000D02*
X134370000Y-62870000D01*
D15*
X133400000Y-67900000D02*
G75*
G02*
X133200000Y-67900000I-100000J0D01*
G01*
X133200000Y-67900000D02*
G75*
G02*
X133400000Y-67900000I100000J0D01*
G01*
D21*
X157100000Y-96375000D02*
X158800000Y-96375000D01*
X157100000Y-100325000D02*
X157100000Y-96375000D01*
X157100000Y-100325000D02*
X158800000Y-100325000D01*
X158150000Y-97300000D02*
X158800000Y-96750000D01*
X158150000Y-99400000D02*
X158150000Y-97300000D01*
X158150000Y-99400000D02*
X158800000Y-99950000D01*
X158800000Y-100325000D02*
X158800000Y-96375000D01*
X137525000Y-117300000D02*
X137525000Y-119000000D01*
X137525000Y-117300000D02*
X141475000Y-117300000D01*
X137525000Y-119000000D02*
X141475000Y-119000000D01*
X138450000Y-118350000D02*
X137900000Y-119000000D01*
X138450000Y-118350000D02*
X140550000Y-118350000D01*
X140550000Y-118350000D02*
X141100000Y-119000000D01*
X141475000Y-117300000D02*
X141475000Y-119000000D01*
X118325000Y-117300000D02*
X118325000Y-119000000D01*
X118325000Y-117300000D02*
X122275000Y-117300000D01*
X118325000Y-119000000D02*
X122275000Y-119000000D01*
X119250000Y-118350000D02*
X118700000Y-119000000D01*
X119250000Y-118350000D02*
X121350000Y-118350000D01*
X121350000Y-118350000D02*
X121900000Y-119000000D01*
X122275000Y-117300000D02*
X122275000Y-119000000D01*
X101000000Y-96375000D02*
X101000000Y-100325000D01*
X101650000Y-97300000D02*
X101000000Y-96750000D01*
X101650000Y-97300000D02*
X101650000Y-99400000D01*
X101650000Y-99400000D02*
X101000000Y-99950000D01*
X102700000Y-96375000D02*
X101000000Y-96375000D01*
X102700000Y-96375000D02*
X102700000Y-100325000D01*
X102700000Y-100325000D02*
X101000000Y-100325000D01*
X101000000Y-79875000D02*
X101000000Y-83825000D01*
X101650000Y-80800000D02*
X101000000Y-80250000D01*
X101650000Y-80800000D02*
X101650000Y-82900000D01*
X101650000Y-82900000D02*
X101000000Y-83450000D01*
X102700000Y-79875000D02*
X101000000Y-79875000D01*
X102700000Y-79875000D02*
X102700000Y-83825000D01*
X102700000Y-83825000D02*
X101000000Y-83825000D01*
X118325000Y-62900000D02*
X118325000Y-61200000D01*
X119250000Y-61850000D02*
X118700000Y-61200000D01*
X121350000Y-61850000D02*
X119250000Y-61850000D01*
X121350000Y-61850000D02*
X121900000Y-61200000D01*
X122275000Y-61200000D02*
X118325000Y-61200000D01*
X122275000Y-62900000D02*
X118325000Y-62900000D01*
X122275000Y-62900000D02*
X122275000Y-61200000D01*
X137525000Y-62900000D02*
X137525000Y-61200000D01*
X138450000Y-61850000D02*
X137900000Y-61200000D01*
X140550000Y-61850000D02*
X138450000Y-61850000D01*
X140550000Y-61850000D02*
X141100000Y-61200000D01*
X141475000Y-61200000D02*
X137525000Y-61200000D01*
X141475000Y-62900000D02*
X137525000Y-62900000D01*
X141475000Y-62900000D02*
X141475000Y-61200000D01*
D18*
X113400000Y-78050000D02*
X113400000Y-79900000D01*
X113400000Y-79900000D02*
X114600000Y-79900000D01*
X114600000Y-78050000D02*
X114600000Y-79900000D01*
X111100000Y-76900000D02*
X111100000Y-75600000D01*
X112900000Y-76900000D02*
X112900000Y-75600000D01*
D19*
X112585000Y-75000000D02*
G75*
G02*
X112435000Y-75000000I-75000J0D01*
G01*
X112435000Y-75000000D02*
G75*
G02*
X112585000Y-75000000I75000J0D01*
G01*
D18*
X140550000Y-64870000D02*
X141690000Y-64870000D01*
X141690000Y-64640000D02*
X141690000Y-64870000D01*
X141690000Y-64640000D02*
X144410000Y-64640000D01*
X141690000Y-69360000D02*
X141690000Y-69130000D01*
X144410000Y-64640000D02*
X144410000Y-65950000D01*
X144410000Y-68050000D02*
X144410000Y-69360000D01*
X144410000Y-69360000D02*
X141690000Y-69360000D01*
X108857836Y-70140000D02*
X108642164Y-70140000D01*
X108857836Y-70860000D02*
X108642164Y-70860000D01*
X111400000Y-78050000D02*
X111400000Y-79900000D01*
X111400000Y-79900000D02*
X112600000Y-79900000D01*
X112600000Y-78050000D02*
X112600000Y-79900000D01*
X107850000Y-78860000D02*
X110300000Y-78860000D01*
X109650000Y-75640000D02*
X107850000Y-75640000D01*
X117350000Y-71860000D02*
X119150000Y-71860000D01*
X119150000Y-68640000D02*
X116700000Y-68640000D01*
X157892164Y-94140000D02*
X158107836Y-94140000D01*
X157892164Y-94860000D02*
X158107836Y-94860000D01*
X159424000Y-92148000D02*
X159424000Y-93148000D01*
X140698000Y-94150000D02*
X140698000Y-93180000D01*
X140698000Y-94150000D02*
X141770000Y-94150000D01*
X140890000Y-85640000D02*
X141770000Y-85640000D01*
X140890000Y-93860000D02*
X140890000Y-85640000D01*
X140890000Y-93860000D02*
X141770000Y-93860000D01*
X146230000Y-85640000D02*
X147110000Y-85640000D01*
X146230000Y-93860000D02*
X147110000Y-93860000D01*
X147110000Y-93860000D02*
X147110000Y-85640000D01*
X154120000Y-83653641D02*
X154120000Y-83346359D01*
X154880000Y-83653641D02*
X154880000Y-83346359D01*
X119765000Y-108522936D02*
X119765000Y-108977064D01*
X121235000Y-108522936D02*
X121235000Y-108977064D01*
X105846359Y-108870000D02*
X106153641Y-108870000D01*
X105846359Y-109630000D02*
X106153641Y-109630000D01*
X143100000Y-103900000D02*
X143100000Y-102600000D01*
X144900000Y-103900000D02*
X144900000Y-102600000D01*
D19*
X144585000Y-102000000D02*
G75*
G02*
X144435000Y-102000000I-75000J0D01*
G01*
X144435000Y-102000000D02*
G75*
G02*
X144585000Y-102000000I75000J0D01*
G01*
D18*
X105892164Y-110140000D02*
X106107836Y-110140000D01*
X105892164Y-110860000D02*
X106107836Y-110860000D01*
D21*
X157100000Y-79875000D02*
X158800000Y-79875000D01*
X157100000Y-83825000D02*
X157100000Y-79875000D01*
X157100000Y-83825000D02*
X158800000Y-83825000D01*
X158150000Y-80800000D02*
X158800000Y-80250000D01*
X158150000Y-82900000D02*
X158150000Y-80800000D01*
X158150000Y-82900000D02*
X158800000Y-83450000D01*
X158800000Y-83825000D02*
X158800000Y-79875000D01*
D18*
X105846359Y-106370000D02*
X106153641Y-106370000D01*
X105846359Y-107130000D02*
X106153641Y-107130000D01*
X150357836Y-79640000D02*
X150142164Y-79640000D01*
X150357836Y-80360000D02*
X150142164Y-80360000D01*
X139890000Y-84892164D02*
X139890000Y-85107836D01*
X140610000Y-84892164D02*
X140610000Y-85107836D01*
X155596000Y-81172164D02*
X155596000Y-81387836D01*
X156316000Y-81172164D02*
X156316000Y-81387836D01*
X127357836Y-80440000D02*
X127142164Y-80440000D01*
X127357836Y-81160000D02*
X127142164Y-81160000D01*
X149000000Y-105070000D02*
X148500000Y-105070000D01*
X149000000Y-107430000D02*
X148500000Y-107430000D01*
X140870000Y-73653641D02*
X140870000Y-73346359D01*
X141630000Y-73653641D02*
X141630000Y-73346359D01*
X136100000Y-101150000D02*
X136100000Y-99850000D01*
X137900000Y-101150000D02*
X137900000Y-99850000D01*
D19*
X137585000Y-99250000D02*
G75*
G02*
X137435000Y-99250000I-75000J0D01*
G01*
X137435000Y-99250000D02*
G75*
G02*
X137585000Y-99250000I75000J0D01*
G01*
D18*
X131620000Y-95403641D02*
X131620000Y-95096359D01*
X132380000Y-95403641D02*
X132380000Y-95096359D01*
X151250000Y-76900000D02*
X149250000Y-76900000D01*
X151250000Y-79100000D02*
X149250000Y-79100000D01*
X151590000Y-79370000D02*
X151590000Y-79090000D01*
X151870000Y-79090000D01*
X151590000Y-79370000D01*
G36*
X151590000Y-79370000D02*
G01*
X151590000Y-79090000D01*
X151870000Y-79090000D01*
X151590000Y-79370000D01*
G37*
X118707836Y-80040000D02*
X118492164Y-80040000D01*
X118707836Y-80760000D02*
X118492164Y-80760000D01*
X136890000Y-75392164D02*
X136890000Y-75607836D01*
X137610000Y-75392164D02*
X137610000Y-75607836D01*
X147390000Y-74607836D02*
X147390000Y-74392164D01*
X148110000Y-74607836D02*
X148110000Y-74392164D01*
X152850000Y-103900000D02*
X152850000Y-102600000D01*
X154650000Y-103900000D02*
X154650000Y-102600000D01*
D19*
X154335000Y-102000000D02*
G75*
G02*
X154185000Y-102000000I-75000J0D01*
G01*
X154185000Y-102000000D02*
G75*
G02*
X154335000Y-102000000I75000J0D01*
G01*
D18*
X125919190Y-101428307D02*
X126071693Y-101580810D01*
X126428307Y-100919190D02*
X126580810Y-101071693D01*
X141890000Y-100607836D02*
X141890000Y-100392164D01*
X142610000Y-100607836D02*
X142610000Y-100392164D01*
X145500000Y-111570000D02*
X146000000Y-111570000D01*
X145500000Y-113930000D02*
X146000000Y-113930000D01*
X133765000Y-108522936D02*
X133765000Y-108977064D01*
X135235000Y-108522936D02*
X135235000Y-108977064D01*
X127071693Y-100580810D02*
X126919190Y-100428307D01*
X127580810Y-100071693D02*
X127428307Y-99919190D01*
X142620000Y-82903641D02*
X142620000Y-82596359D01*
X143380000Y-82903641D02*
X143380000Y-82596359D01*
D13*
X125697146Y-99045495D02*
X126227476Y-98515165D01*
D18*
X145850000Y-103900000D02*
X145850000Y-102600000D01*
X147650000Y-103900000D02*
X147650000Y-102600000D01*
D19*
X147335000Y-102000000D02*
G75*
G02*
X147185000Y-102000000I-75000J0D01*
G01*
X147185000Y-102000000D02*
G75*
G02*
X147335000Y-102000000I75000J0D01*
G01*
D18*
X151140000Y-74392164D02*
X151140000Y-74607836D01*
X151860000Y-74392164D02*
X151860000Y-74607836D01*
X146000000Y-108570000D02*
X145500000Y-108570000D01*
X146000000Y-110930000D02*
X145500000Y-110930000D01*
X149870000Y-74653641D02*
X149870000Y-74346359D01*
X150630000Y-74653641D02*
X150630000Y-74346359D01*
X139994229Y-76524342D02*
X139778557Y-76524342D01*
X139994229Y-75804342D02*
X139778557Y-75804342D01*
X136100000Y-103900000D02*
X136100000Y-102600000D01*
X137900000Y-103900000D02*
X137900000Y-102600000D01*
D19*
X137585000Y-102000000D02*
G75*
G02*
X137435000Y-102000000I-75000J0D01*
G01*
X137435000Y-102000000D02*
G75*
G02*
X137585000Y-102000000I75000J0D01*
G01*
D18*
X123120000Y-69846359D02*
X123120000Y-70153641D01*
X123880000Y-69846359D02*
X123880000Y-70153641D01*
X116990000Y-110860000D02*
X116990000Y-107100000D01*
X116990000Y-110860000D02*
X119010000Y-110860000D01*
X119010000Y-110860000D02*
X119010000Y-107100000D01*
X114000000Y-111570000D02*
X114500000Y-111570000D01*
X114000000Y-113930000D02*
X114500000Y-113930000D01*
X131427710Y-71181802D02*
X132424731Y-70184781D01*
X133075269Y-72815219D02*
X134065219Y-71825269D01*
X131201436Y-71478787D02*
X130798385Y-71415147D01*
X131137797Y-71075736D01*
X131201436Y-71478787D01*
G36*
X131201436Y-71478787D02*
G01*
X130798385Y-71415147D01*
X131137797Y-71075736D01*
X131201436Y-71478787D01*
G37*
X123857836Y-88040000D02*
X123642164Y-88040000D01*
X123857836Y-88760000D02*
X123642164Y-88760000D01*
X148620000Y-74653641D02*
X148620000Y-74346359D01*
X149380000Y-74653641D02*
X149380000Y-74346359D01*
X138765000Y-108522936D02*
X138765000Y-108977064D01*
X140235000Y-108522936D02*
X140235000Y-108977064D01*
X126571693Y-94919190D02*
X126419190Y-95071693D01*
X127080810Y-95428307D02*
X126928307Y-95580810D01*
X127015000Y-108522936D02*
X127015000Y-108977064D01*
X128485000Y-108522936D02*
X128485000Y-108977064D01*
X143100000Y-101150000D02*
X143100000Y-99850000D01*
X144900000Y-101150000D02*
X144900000Y-99850000D01*
D19*
X144585000Y-99250000D02*
G75*
G02*
X144435000Y-99250000I-75000J0D01*
G01*
X144435000Y-99250000D02*
G75*
G02*
X144585000Y-99250000I75000J0D01*
G01*
D18*
X115640000Y-74640000D02*
X115640000Y-75115000D01*
X115640000Y-78860000D02*
X115640000Y-78385000D01*
X116115000Y-74640000D02*
X115640000Y-74640000D01*
X116115000Y-78860000D02*
X115640000Y-78860000D01*
X119385000Y-74640000D02*
X119860000Y-74640000D01*
X119385000Y-78860000D02*
X119560000Y-78860000D01*
X119860000Y-74640000D02*
X119860000Y-75115000D01*
X119860000Y-78385000D02*
X119860000Y-78620000D01*
X120100000Y-79190000D02*
X119620000Y-79190000D01*
X119860000Y-78860000D01*
X120100000Y-79190000D01*
G36*
X120100000Y-79190000D02*
G01*
X119620000Y-79190000D01*
X119860000Y-78860000D01*
X120100000Y-79190000D01*
G37*
X148500000Y-99400000D02*
X150500000Y-99400000D01*
X148500000Y-101600000D02*
X150500000Y-101600000D01*
X148160000Y-99410000D02*
X147880000Y-99410000D01*
X148160000Y-99130000D01*
X148160000Y-99410000D01*
G36*
X148160000Y-99410000D02*
G01*
X147880000Y-99410000D01*
X148160000Y-99130000D01*
X148160000Y-99410000D01*
G37*
X129265000Y-108522936D02*
X129265000Y-108977064D01*
X130735000Y-108522936D02*
X130735000Y-108977064D01*
X114500000Y-108570000D02*
X114000000Y-108570000D01*
X114500000Y-110930000D02*
X114000000Y-110930000D01*
X145850000Y-101150000D02*
X145850000Y-99850000D01*
X147650000Y-101150000D02*
X147650000Y-99850000D01*
D19*
X147335000Y-99250000D02*
G75*
G02*
X147185000Y-99250000I-75000J0D01*
G01*
X147185000Y-99250000D02*
G75*
G02*
X147335000Y-99250000I75000J0D01*
G01*
D18*
X132070000Y-99500000D02*
X132070000Y-100000000D01*
X134430000Y-99500000D02*
X134430000Y-100000000D01*
X138750000Y-99400000D02*
X140750000Y-99400000D01*
X138750000Y-101600000D02*
X140750000Y-101600000D01*
X138410000Y-99410000D02*
X138130000Y-99410000D01*
X138410000Y-99130000D01*
X138410000Y-99410000D01*
G36*
X138410000Y-99410000D02*
G01*
X138130000Y-99410000D01*
X138410000Y-99130000D01*
X138410000Y-99410000D01*
G37*
X138750000Y-102150000D02*
X140750000Y-102150000D01*
X138750000Y-104350000D02*
X140750000Y-104350000D01*
X138410000Y-102160000D02*
X138130000Y-102160000D01*
X138410000Y-101880000D01*
X138410000Y-102160000D01*
G36*
X138410000Y-102160000D02*
G01*
X138130000Y-102160000D01*
X138410000Y-101880000D01*
X138410000Y-102160000D01*
G37*
X137107836Y-106140000D02*
X136892164Y-106140000D01*
X137107836Y-106860000D02*
X136892164Y-106860000D01*
X108820000Y-114750000D02*
X108820000Y-115250000D01*
X111180000Y-114750000D02*
X111180000Y-115250000D01*
X148850000Y-83870000D02*
X148350000Y-83870000D01*
X148850000Y-86230000D02*
X148350000Y-86230000D01*
X135040000Y-71392164D02*
X135040000Y-71607836D01*
X135760000Y-71392164D02*
X135760000Y-71607836D01*
X126050000Y-92900000D02*
X126050000Y-91950000D01*
X127000000Y-82600000D02*
X125810000Y-82600000D01*
X127000000Y-92900000D02*
X126050000Y-92900000D01*
X135400000Y-82600000D02*
X136350000Y-82600000D01*
X135400000Y-92900000D02*
X136350000Y-92900000D01*
X136350000Y-82600000D02*
X136350000Y-83550000D01*
X136350000Y-92900000D02*
X136350000Y-91950000D01*
X140935689Y-75651682D02*
X140935689Y-75344400D01*
X141695689Y-75651682D02*
X141695689Y-75344400D01*
X135840000Y-109460000D02*
X135840000Y-108050000D01*
X138160000Y-109450000D02*
X138160000Y-108050000D01*
X135890000Y-109830000D02*
X135560000Y-110070000D01*
X135560000Y-109590000D01*
X135890000Y-109830000D01*
G36*
X135890000Y-109830000D02*
G01*
X135560000Y-110070000D01*
X135560000Y-109590000D01*
X135890000Y-109830000D01*
G37*
X153096359Y-79620000D02*
X153403641Y-79620000D01*
X153096359Y-80380000D02*
X153403641Y-80380000D01*
X138653641Y-85620000D02*
X138346359Y-85620000D01*
X138653641Y-86380000D02*
X138346359Y-86380000D01*
X124090000Y-109460000D02*
X124090000Y-108050000D01*
X126410000Y-109450000D02*
X126410000Y-108050000D01*
X124140000Y-109830000D02*
X123810000Y-110070000D01*
X123810000Y-109590000D01*
X124140000Y-109830000D01*
G36*
X124140000Y-109830000D02*
G01*
X123810000Y-110070000D01*
X123810000Y-109590000D01*
X124140000Y-109830000D01*
G37*
X128890000Y-71392164D02*
X128890000Y-71607836D01*
X129610000Y-71392164D02*
X129610000Y-71607836D01*
X148820000Y-115250000D02*
X148820000Y-114750000D01*
X151180000Y-115250000D02*
X151180000Y-114750000D01*
X148500000Y-102150000D02*
X150500000Y-102150000D01*
X148500000Y-104350000D02*
X150500000Y-104350000D01*
X148160000Y-102160000D02*
X147880000Y-102160000D01*
X148160000Y-101880000D01*
X148160000Y-102160000D01*
G36*
X148160000Y-102160000D02*
G01*
X147880000Y-102160000D01*
X148160000Y-101880000D01*
X148160000Y-102160000D01*
G37*
X150096359Y-81120000D02*
X150403641Y-81120000D01*
X150096359Y-81880000D02*
X150403641Y-81880000D01*
X107890000Y-108640000D02*
X108365000Y-108640000D01*
X107890000Y-109115000D02*
X107890000Y-108640000D01*
X107890000Y-112385000D02*
X107890000Y-112560000D01*
X108365000Y-112860000D02*
X108130000Y-112860000D01*
X112110000Y-108640000D02*
X111635000Y-108640000D01*
X112110000Y-109115000D02*
X112110000Y-108640000D01*
X112110000Y-112385000D02*
X112110000Y-112860000D01*
X112110000Y-112860000D02*
X111635000Y-112860000D01*
X107890000Y-112860000D02*
X107560000Y-113100000D01*
X107560000Y-112620000D01*
X107890000Y-112860000D01*
G36*
X107890000Y-112860000D02*
G01*
X107560000Y-113100000D01*
X107560000Y-112620000D01*
X107890000Y-112860000D01*
G37*
X122015000Y-108522936D02*
X122015000Y-108977064D01*
X123485000Y-108522936D02*
X123485000Y-108977064D01*
X152850000Y-101150000D02*
X152850000Y-99850000D01*
X154650000Y-101150000D02*
X154650000Y-99850000D01*
D19*
X154335000Y-99250000D02*
G75*
G02*
X154185000Y-99250000I-75000J0D01*
G01*
X154185000Y-99250000D02*
G75*
G02*
X154335000Y-99250000I75000J0D01*
G01*
D18*
X111500000Y-105070000D02*
X111000000Y-105070000D01*
X111500000Y-107430000D02*
X111000000Y-107430000D01*
X152850000Y-77100000D02*
X154150000Y-77100000D01*
X152850000Y-78900000D02*
X154150000Y-78900000D01*
D19*
X154825000Y-78510000D02*
G75*
G02*
X154675000Y-78510000I-75000J0D01*
G01*
X154675000Y-78510000D02*
G75*
G02*
X154825000Y-78510000I75000J0D01*
G01*
D18*
X136370000Y-80096359D02*
X136370000Y-80403641D01*
X137130000Y-80096359D02*
X137130000Y-80403641D01*
X112150000Y-81250000D02*
X112150000Y-83250000D01*
X114350000Y-81250000D02*
X114350000Y-83250000D01*
X114620000Y-80910000D02*
X114340000Y-80910000D01*
X114340000Y-80630000D01*
X114620000Y-80910000D01*
G36*
X114620000Y-80910000D02*
G01*
X114340000Y-80910000D01*
X114340000Y-80630000D01*
X114620000Y-80910000D01*
G37*
X105846359Y-107620000D02*
X106153641Y-107620000D01*
X105846359Y-108380000D02*
X106153641Y-108380000D01*
X154107836Y-109640000D02*
X153892164Y-109640000D01*
X154107836Y-110360000D02*
X153892164Y-110360000D01*
X145100000Y-73600000D02*
X146400000Y-73600000D01*
X145100000Y-75400000D02*
X146400000Y-75400000D01*
D19*
X147075000Y-75010000D02*
G75*
G02*
X146925000Y-75010000I-75000J0D01*
G01*
X146925000Y-75010000D02*
G75*
G02*
X147075000Y-75010000I75000J0D01*
G01*
D18*
X129070000Y-99500000D02*
X129070000Y-100000000D01*
X131430000Y-99500000D02*
X131430000Y-100000000D01*
X141890000Y-103357836D02*
X141890000Y-103142164D01*
X142610000Y-103357836D02*
X142610000Y-103142164D01*
X141015000Y-108522936D02*
X141015000Y-108977064D01*
X142485000Y-108522936D02*
X142485000Y-108977064D01*
X151640000Y-100607836D02*
X151640000Y-100392164D01*
X152360000Y-100607836D02*
X152360000Y-100392164D01*
X143370000Y-74653641D02*
X143370000Y-74346359D01*
X144130000Y-74653641D02*
X144130000Y-74346359D01*
X141390000Y-82642164D02*
X141390000Y-82857836D01*
X142110000Y-82642164D02*
X142110000Y-82857836D01*
X140600000Y-94850000D02*
X141900000Y-94850000D01*
X140600000Y-96650000D02*
X141900000Y-96650000D01*
D19*
X142575000Y-96260000D02*
G75*
G02*
X142425000Y-96260000I-75000J0D01*
G01*
X142425000Y-96260000D02*
G75*
G02*
X142575000Y-96260000I75000J0D01*
G01*
D18*
X152850000Y-73600000D02*
X154150000Y-73600000D01*
X152850000Y-75400000D02*
X154150000Y-75400000D01*
D19*
X154825000Y-75010000D02*
G75*
G02*
X154675000Y-75010000I-75000J0D01*
G01*
X154675000Y-75010000D02*
G75*
G02*
X154825000Y-75010000I75000J0D01*
G01*
D18*
X140250000Y-73290000D02*
X138250000Y-73290000D01*
X140250000Y-75510000D02*
X138250000Y-75510000D01*
X140490000Y-75690000D02*
X140490000Y-75410000D01*
X140770000Y-75410000D01*
X140490000Y-75690000D01*
G36*
X140490000Y-75690000D02*
G01*
X140490000Y-75410000D01*
X140770000Y-75410000D01*
X140490000Y-75690000D01*
G37*
X135390000Y-80357836D02*
X135390000Y-80142164D01*
X136110000Y-80357836D02*
X136110000Y-80142164D01*
X125357836Y-106140000D02*
X125142164Y-106140000D01*
X125357836Y-106860000D02*
X125142164Y-106860000D01*
X147890000Y-108640000D02*
X148365000Y-108640000D01*
X147890000Y-109115000D02*
X147890000Y-108640000D01*
X147890000Y-112385000D02*
X147890000Y-112860000D01*
X147890000Y-112860000D02*
X148365000Y-112860000D01*
X151635000Y-108640000D02*
X151870000Y-108640000D01*
X152110000Y-109115000D02*
X152110000Y-108940000D01*
X152110000Y-112385000D02*
X152110000Y-112860000D01*
X152110000Y-112860000D02*
X151635000Y-112860000D01*
X152440000Y-108880000D02*
X152110000Y-108640000D01*
X152440000Y-108400000D01*
X152440000Y-108880000D01*
G36*
X152440000Y-108880000D02*
G01*
X152110000Y-108640000D01*
X152440000Y-108400000D01*
X152440000Y-108880000D01*
G37*
X131515000Y-108522936D02*
X131515000Y-108977064D01*
X132985000Y-108522936D02*
X132985000Y-108977064D01*
X105892164Y-111240000D02*
X106107836Y-111240000D01*
X105892164Y-111960000D02*
X106107836Y-111960000D01*
X142642164Y-84140000D02*
X142857836Y-84140000D01*
X142642164Y-84860000D02*
X142857836Y-84860000D01*
X132140000Y-80357836D02*
X132140000Y-80142164D01*
X132860000Y-80357836D02*
X132860000Y-80142164D01*
X154107836Y-110890000D02*
X153892164Y-110890000D01*
X154107836Y-111610000D02*
X153892164Y-111610000D01*
X139890000Y-87107836D02*
X139890000Y-86892164D01*
X140610000Y-87107836D02*
X140610000Y-86892164D01*
X138653641Y-84620000D02*
X138346359Y-84620000D01*
X138653641Y-85380000D02*
X138346359Y-85380000D01*
X151640000Y-103357836D02*
X151640000Y-103142164D01*
X152360000Y-103357836D02*
X152360000Y-103142164D01*
X114000000Y-105070000D02*
X114500000Y-105070000D01*
X114000000Y-107430000D02*
X114500000Y-107430000D01*
X124750000Y-72360000D02*
X127750000Y-72360000D01*
X126250000Y-70140000D02*
X127750000Y-70140000D01*
X124950000Y-70105676D02*
X124710000Y-69775676D01*
X125190000Y-69775676D01*
X124950000Y-70105676D01*
G36*
X124950000Y-70105676D02*
G01*
X124710000Y-69775676D01*
X125190000Y-69775676D01*
X124950000Y-70105676D01*
G37*
X114890000Y-82357836D02*
X114890000Y-82142164D01*
X115610000Y-82357836D02*
X115610000Y-82142164D01*
X138392164Y-91390000D02*
X138607836Y-91390000D01*
X138392164Y-92110000D02*
X138607836Y-92110000D01*
X146000000Y-105070000D02*
X145500000Y-105070000D01*
X146000000Y-107430000D02*
X145500000Y-107430000D01*
%LPC*%
D22*
X142250000Y-74980000D03*
X142250000Y-74020000D03*
D23*
X115950000Y-61350000D03*
X115950000Y-62850000D03*
D24*
X110850000Y-62850000D03*
D23*
X110850000Y-61350000D03*
X143850000Y-118850000D03*
X143850000Y-117350000D03*
D25*
X148950000Y-117350000D03*
D23*
X148950000Y-118850000D03*
D26*
X101150000Y-104050000D03*
X102650000Y-104050000D03*
D27*
X102650000Y-109150000D03*
D26*
X101150000Y-109150000D03*
D23*
X148950000Y-61350000D03*
X148950000Y-62850000D03*
D24*
X143850000Y-62850000D03*
D23*
X143850000Y-61350000D03*
D26*
X158650000Y-76150000D03*
X157150000Y-76150000D03*
D28*
X157150000Y-71050000D03*
D26*
X158650000Y-71050000D03*
D23*
X110850000Y-118850000D03*
X110850000Y-117350000D03*
D25*
X115950000Y-117350000D03*
D23*
X115950000Y-118850000D03*
D26*
X101150000Y-71050000D03*
X102650000Y-71050000D03*
D27*
X102650000Y-76150000D03*
D26*
X101150000Y-76150000D03*
X101150000Y-87550000D03*
X102650000Y-87550000D03*
D27*
X102650000Y-92650000D03*
D26*
X101150000Y-92650000D03*
D29*
X141515000Y-70250000D03*
X142485000Y-70250000D03*
X111765000Y-96750000D03*
X112735000Y-96750000D03*
X105265000Y-96750000D03*
X106235000Y-96750000D03*
D30*
X112235000Y-101750000D03*
X111265000Y-101750000D03*
X106235000Y-91750000D03*
X105265000Y-91750000D03*
X148985000Y-88250000D03*
X148015000Y-88250000D03*
D29*
X114765000Y-96750000D03*
X115735000Y-96750000D03*
X108265000Y-96750000D03*
X109235000Y-96750000D03*
D31*
X138000000Y-83235000D03*
X138000000Y-82265000D03*
D22*
X139250000Y-83230000D03*
X139250000Y-82270000D03*
D31*
X131500000Y-80735000D03*
X131500000Y-79765000D03*
D32*
X124142947Y-91157053D03*
X123457053Y-91842947D03*
D33*
X155900000Y-116100000D03*
D29*
X138015000Y-88000000D03*
X138985000Y-88000000D03*
D33*
X155900000Y-64100000D03*
D31*
X133000000Y-95735000D03*
X133000000Y-94765000D03*
D34*
X138020000Y-87000000D03*
X138980000Y-87000000D03*
D33*
X103900000Y-64100000D03*
X103900000Y-116100000D03*
D35*
X106400000Y-88300000D03*
X105750000Y-88300000D03*
X105100000Y-88300000D03*
X105100000Y-90200000D03*
X105750000Y-90200000D03*
X106400000Y-90200000D03*
X115400000Y-88300000D03*
X114750000Y-88300000D03*
X114100000Y-88300000D03*
X114100000Y-90200000D03*
X114750000Y-90200000D03*
X115400000Y-90200000D03*
X106400000Y-98300000D03*
X105750000Y-98300000D03*
X105100000Y-98300000D03*
X105100000Y-100200000D03*
X105750000Y-100200000D03*
X106400000Y-100200000D03*
X112400000Y-98300000D03*
X111750000Y-98300000D03*
X111100000Y-98300000D03*
X111100000Y-100200000D03*
X111750000Y-100200000D03*
X112400000Y-100200000D03*
D31*
X133500000Y-80735000D03*
X133500000Y-79765000D03*
X134500000Y-80735000D03*
X134500000Y-79765000D03*
X137000000Y-65265000D03*
X137000000Y-64295000D03*
D36*
X136937500Y-69250000D03*
X135062500Y-69250000D03*
D34*
X157420000Y-77900000D03*
X158380000Y-77900000D03*
D37*
X102430000Y-78700000D03*
X101470000Y-78700000D03*
D22*
X135750000Y-62480000D03*
X135750000Y-61520000D03*
D37*
X102480000Y-69000000D03*
X101520000Y-69000000D03*
X102380000Y-85600000D03*
X101420000Y-85600000D03*
X102380000Y-95250000D03*
X101420000Y-95250000D03*
D22*
X150750000Y-62730000D03*
X150750000Y-61770000D03*
X123250000Y-62480000D03*
X123250000Y-61520000D03*
D38*
X134000000Y-94765000D03*
X134000000Y-95735000D03*
D39*
X140500000Y-83260000D03*
X140500000Y-82240000D03*
D40*
X132500000Y-74220000D03*
X132500000Y-75180000D03*
X135750000Y-66520000D03*
X135750000Y-67480000D03*
X137000000Y-66520000D03*
X137000000Y-67480000D03*
D37*
X124230000Y-85900000D03*
X123270000Y-85900000D03*
D41*
X117500000Y-86750000D03*
D42*
X117500000Y-87250000D03*
X117500000Y-87750000D03*
D41*
X117500000Y-88250000D03*
X118500000Y-88250000D03*
D42*
X118500000Y-87750000D03*
X118500000Y-87250000D03*
D41*
X118500000Y-86750000D03*
D43*
X145412500Y-96000000D03*
X143587500Y-96000000D03*
D41*
X117500000Y-90500000D03*
D42*
X117500000Y-91000000D03*
X117500000Y-91500000D03*
D41*
X117500000Y-92000000D03*
X118500000Y-92000000D03*
D42*
X118500000Y-91500000D03*
X118500000Y-91000000D03*
D41*
X118500000Y-90500000D03*
D44*
X123150000Y-73795000D03*
X123150000Y-75065000D03*
X123150000Y-76335000D03*
X123150000Y-77605000D03*
X130350000Y-77605000D03*
X130350000Y-76335000D03*
X130350000Y-75065000D03*
X130350000Y-73795000D03*
D45*
X158600000Y-68050000D03*
X101050000Y-112300000D03*
D40*
X142250000Y-117770000D03*
X142250000Y-118730000D03*
D37*
X102380000Y-102200000D03*
X101420000Y-102200000D03*
X140230000Y-116332000D03*
X139270000Y-116332000D03*
X121384000Y-116332000D03*
X120424000Y-116332000D03*
D40*
X109000000Y-117520000D03*
X109000000Y-118480000D03*
D22*
X139250000Y-67480000D03*
X139250000Y-66520000D03*
D46*
X148010000Y-70850000D03*
D47*
X150550000Y-70850000D03*
X153090000Y-70850000D03*
D45*
X108000000Y-61750000D03*
X158500000Y-85250000D03*
X151750000Y-118500000D03*
D34*
X157520000Y-111000000D03*
X158480000Y-111000000D03*
D31*
X135750000Y-65265000D03*
X135750000Y-64295000D03*
D48*
X125900000Y-114820000D03*
X126900000Y-114820000D03*
X127900000Y-114820000D03*
X128900000Y-114820000D03*
X129900000Y-114820000D03*
X130900000Y-114820000D03*
X131900000Y-114820000D03*
X132900000Y-114820000D03*
X133900000Y-114820000D03*
D49*
X124600000Y-118695000D03*
X135200000Y-118695000D03*
D50*
X151500000Y-83312500D03*
D51*
X150562500Y-83750000D03*
X150562500Y-84250000D03*
X150562500Y-84750000D03*
X150562500Y-85250000D03*
X150562500Y-85750000D03*
X150562500Y-86250000D03*
X150562500Y-86750000D03*
X150562500Y-87250000D03*
D50*
X151500000Y-87687500D03*
X152000000Y-87687500D03*
D51*
X152937500Y-87250000D03*
X152937500Y-86750000D03*
X152937500Y-86250000D03*
X152937500Y-85750000D03*
X152937500Y-85250000D03*
X152937500Y-84750000D03*
X152937500Y-84250000D03*
X152937500Y-83750000D03*
D50*
X152000000Y-83312500D03*
D52*
X151750000Y-85500000D03*
D53*
X135900000Y-97100000D03*
X138100000Y-97100000D03*
X138100000Y-95400000D03*
X135900000Y-95400000D03*
D38*
X147750000Y-77515000D03*
X147750000Y-78485000D03*
X129750000Y-94765000D03*
X129750000Y-95735000D03*
X130750000Y-94765000D03*
X130750000Y-95735000D03*
D54*
X142325000Y-80825000D03*
X138175000Y-80825000D03*
X142325000Y-78675000D03*
X138175000Y-78675000D03*
D34*
X157520000Y-95500000D03*
X158480000Y-95500000D03*
D38*
X121000000Y-69515000D03*
X121000000Y-70485000D03*
D31*
X122250000Y-70485000D03*
X122250000Y-69515000D03*
X108000000Y-69235000D03*
X108000000Y-68265000D03*
D39*
X111250000Y-82760000D03*
X111250000Y-81740000D03*
D55*
X106010000Y-78500000D03*
X104990000Y-78500000D03*
D29*
X105015000Y-79750000D03*
X105985000Y-79750000D03*
D31*
X104000000Y-82735000D03*
X104000000Y-81765000D03*
D55*
X112510000Y-74250000D03*
X111490000Y-74250000D03*
X106010000Y-73000000D03*
X104990000Y-73000000D03*
X106010000Y-74250000D03*
X104990000Y-74250000D03*
D37*
X111480000Y-65000000D03*
X110520000Y-65000000D03*
D31*
X106750000Y-69235000D03*
X106750000Y-68265000D03*
D30*
X115485000Y-73000000D03*
X114515000Y-73000000D03*
D56*
X121300000Y-66000000D03*
X115200000Y-66000000D03*
D30*
X115485000Y-69250000D03*
X114515000Y-69250000D03*
X115485000Y-70500000D03*
X114515000Y-70500000D03*
D29*
X111515000Y-73000000D03*
X112485000Y-73000000D03*
D30*
X105985000Y-77250000D03*
X105015000Y-77250000D03*
X115485000Y-71750000D03*
X114515000Y-71750000D03*
D57*
X104990000Y-75500000D03*
X106010000Y-75500000D03*
D22*
X117500000Y-62480000D03*
X117500000Y-61520000D03*
D58*
X105250000Y-82895000D03*
X106250000Y-82895000D03*
X105750000Y-81605000D03*
D39*
X114000000Y-76760000D03*
X114000000Y-75740000D03*
D37*
X111480000Y-70500000D03*
X110520000Y-70500000D03*
D38*
X108000000Y-66265000D03*
X108000000Y-67235000D03*
D59*
X111450000Y-66650000D03*
X110500000Y-66650000D03*
X109550000Y-66650000D03*
X109550000Y-68850000D03*
X111450000Y-68850000D03*
D60*
X109700000Y-74400000D03*
X109700000Y-73750000D03*
X109700000Y-73100000D03*
X107800000Y-73100000D03*
X107800000Y-73750000D03*
X107800000Y-74400000D03*
X109700000Y-82900000D03*
X109700000Y-82250000D03*
X109700000Y-81600000D03*
X107800000Y-81600000D03*
X107800000Y-82250000D03*
X107800000Y-82900000D03*
D61*
X108050000Y-80000000D03*
X109450000Y-80000000D03*
D62*
X147925000Y-95862500D03*
X148575000Y-95862500D03*
X149225000Y-95862500D03*
X149875000Y-95862500D03*
X150525000Y-95862500D03*
X151175000Y-95862500D03*
X151825000Y-95862500D03*
X152475000Y-95862500D03*
X153125000Y-95862500D03*
X153775000Y-95862500D03*
X154425000Y-95862500D03*
X155075000Y-95862500D03*
X155075000Y-90137500D03*
X154425000Y-90137500D03*
X153775000Y-90137500D03*
X153125000Y-90137500D03*
X152475000Y-90137500D03*
X151825000Y-90137500D03*
X151175000Y-90137500D03*
X150525000Y-90137500D03*
X149875000Y-90137500D03*
X149225000Y-90137500D03*
X148575000Y-90137500D03*
X147925000Y-90137500D03*
D35*
X109400000Y-98300000D03*
X108750000Y-98300000D03*
X108100000Y-98300000D03*
X108100000Y-100200000D03*
X108750000Y-100200000D03*
X109400000Y-100200000D03*
D30*
X106235000Y-101750000D03*
X105265000Y-101750000D03*
X109235000Y-101750000D03*
X108265000Y-101750000D03*
D41*
X117500000Y-83000000D03*
D42*
X117500000Y-83500000D03*
X117500000Y-84000000D03*
D41*
X117500000Y-84500000D03*
X118500000Y-84500000D03*
D42*
X118500000Y-84000000D03*
X118500000Y-83500000D03*
D41*
X118500000Y-83000000D03*
D37*
X153730000Y-81500000D03*
X152770000Y-81500000D03*
D35*
X112400000Y-88300000D03*
X111750000Y-88300000D03*
X111100000Y-88300000D03*
X111100000Y-90200000D03*
X111750000Y-90200000D03*
X112400000Y-90200000D03*
D41*
X123250000Y-83000000D03*
D42*
X123250000Y-83500000D03*
X123250000Y-84000000D03*
D41*
X123250000Y-84500000D03*
X124250000Y-84500000D03*
D42*
X124250000Y-84000000D03*
X124250000Y-83500000D03*
D41*
X124250000Y-83000000D03*
X120250000Y-86750000D03*
D42*
X120250000Y-87250000D03*
X120250000Y-87750000D03*
D41*
X120250000Y-88250000D03*
X121250000Y-88250000D03*
D42*
X121250000Y-87750000D03*
X121250000Y-87250000D03*
D41*
X121250000Y-86750000D03*
D35*
X109400000Y-88300000D03*
X108750000Y-88300000D03*
X108100000Y-88300000D03*
X108100000Y-90200000D03*
X108750000Y-90200000D03*
X109400000Y-90200000D03*
D30*
X112235000Y-91750000D03*
X111265000Y-91750000D03*
D29*
X114265000Y-86750000D03*
X115235000Y-86750000D03*
X105265000Y-86750000D03*
X106235000Y-86750000D03*
X108265000Y-86750000D03*
X109235000Y-86750000D03*
D30*
X109235000Y-91750000D03*
X108265000Y-91750000D03*
D29*
X111265000Y-86750000D03*
X112235000Y-86750000D03*
D41*
X120250000Y-90500000D03*
D42*
X120250000Y-91000000D03*
X120250000Y-91500000D03*
D41*
X120250000Y-92000000D03*
X121250000Y-92000000D03*
D42*
X121250000Y-91500000D03*
X121250000Y-91000000D03*
D41*
X121250000Y-90500000D03*
D35*
X115400000Y-98300000D03*
X114750000Y-98300000D03*
X114100000Y-98300000D03*
X114100000Y-100200000D03*
X114750000Y-100200000D03*
X115400000Y-100200000D03*
D26*
X158650000Y-109150000D03*
X157150000Y-109150000D03*
D28*
X157150000Y-104050000D03*
D26*
X158650000Y-104050000D03*
D63*
X132790000Y-65150000D03*
X127010000Y-65150000D03*
D64*
X133150000Y-66595000D03*
X132350000Y-66595000D03*
D65*
X131150000Y-66595000D03*
X130150000Y-66595000D03*
X129650000Y-66595000D03*
X128650000Y-66595000D03*
D64*
X126650000Y-66595000D03*
X127450000Y-66595000D03*
D65*
X128150000Y-66595000D03*
X129150000Y-66595000D03*
X130650000Y-66595000D03*
X131650000Y-66595000D03*
D66*
X134220000Y-65680000D03*
X125580000Y-65680000D03*
X134220000Y-61500000D03*
X125580000Y-61500000D03*
D30*
X115235000Y-101750000D03*
X114265000Y-101750000D03*
D67*
X157575000Y-97075000D03*
D68*
X157575000Y-97925000D03*
X157575000Y-98775000D03*
D67*
X157575000Y-99625000D03*
D69*
X140775000Y-117775000D03*
D70*
X139925000Y-117775000D03*
X139075000Y-117775000D03*
D69*
X138225000Y-117775000D03*
X121575000Y-117775000D03*
D70*
X120725000Y-117775000D03*
X119875000Y-117775000D03*
D69*
X119025000Y-117775000D03*
D71*
X102225000Y-99625000D03*
D68*
X102225000Y-98775000D03*
X102225000Y-97925000D03*
D71*
X102225000Y-97075000D03*
X102225000Y-83125000D03*
D68*
X102225000Y-82275000D03*
X102225000Y-81425000D03*
D71*
X102225000Y-80575000D03*
D72*
X119025000Y-62425000D03*
D70*
X119875000Y-62425000D03*
X120725000Y-62425000D03*
D72*
X121575000Y-62425000D03*
X138225000Y-62425000D03*
D70*
X139075000Y-62425000D03*
X139925000Y-62425000D03*
D72*
X140775000Y-62425000D03*
D30*
X115235000Y-91750000D03*
X114265000Y-91750000D03*
D73*
X114000000Y-79450000D03*
X114000000Y-78050000D03*
D74*
X112500000Y-75605000D03*
X111500000Y-75605000D03*
X112000000Y-76895000D03*
D75*
X141100000Y-65500000D03*
D76*
X141187500Y-67000000D03*
D75*
X141100000Y-68500000D03*
D37*
X109230000Y-70500000D03*
X108270000Y-70500000D03*
D30*
X109235000Y-71750000D03*
X108265000Y-71750000D03*
D73*
X112000000Y-79450000D03*
X112000000Y-78050000D03*
D77*
X109850000Y-78200000D03*
X109850000Y-77250000D03*
X109850000Y-76300000D03*
X107650000Y-76300000D03*
X107650000Y-78200000D03*
X117150000Y-69300000D03*
X117150000Y-70250000D03*
X117150000Y-71200000D03*
X119350000Y-71200000D03*
X119350000Y-69300000D03*
D38*
X146500000Y-77515000D03*
X146500000Y-78485000D03*
D34*
X157520000Y-94500000D03*
X158480000Y-94500000D03*
D26*
X158650000Y-92650000D03*
X157150000Y-92650000D03*
D28*
X157150000Y-87550000D03*
D26*
X158650000Y-87550000D03*
D78*
X142095000Y-93600000D03*
X143365000Y-93600000D03*
X144635000Y-93600000D03*
X145905000Y-93600000D03*
X145905000Y-85900000D03*
X144635000Y-85900000D03*
X143365000Y-85900000D03*
X142095000Y-85900000D03*
D39*
X154500000Y-84010000D03*
X154500000Y-82990000D03*
D79*
X120500000Y-107750000D03*
X120500000Y-109750000D03*
D57*
X105490000Y-109250000D03*
X106510000Y-109250000D03*
D74*
X144500000Y-102605000D03*
X143500000Y-102605000D03*
X144000000Y-103895000D03*
D34*
X105520000Y-110500000D03*
X106480000Y-110500000D03*
D67*
X157575000Y-80575000D03*
D68*
X157575000Y-81425000D03*
X157575000Y-82275000D03*
D67*
X157575000Y-83125000D03*
D57*
X105490000Y-106750000D03*
X106510000Y-106750000D03*
D37*
X150730000Y-80000000D03*
X149770000Y-80000000D03*
D40*
X140250000Y-84520000D03*
X140250000Y-85480000D03*
X155956000Y-80800000D03*
X155956000Y-81760000D03*
D37*
X127730000Y-80800000D03*
X126770000Y-80800000D03*
D80*
X148250000Y-105500000D03*
D81*
X148250000Y-106000000D03*
X148250000Y-106500000D03*
D80*
X148250000Y-107000000D03*
X149250000Y-107000000D03*
D81*
X149250000Y-106500000D03*
X149250000Y-106000000D03*
D80*
X149250000Y-105500000D03*
D39*
X141250000Y-74010000D03*
X141250000Y-72990000D03*
D74*
X137500000Y-99855000D03*
X136500000Y-99855000D03*
X137000000Y-101145000D03*
D39*
X132000000Y-95760000D03*
X132000000Y-94740000D03*
D81*
X151150000Y-78750000D03*
X151150000Y-78250000D03*
X151150000Y-77750000D03*
X151150000Y-77250000D03*
X149350000Y-77250000D03*
X149350000Y-77750000D03*
X149350000Y-78250000D03*
X149350000Y-78750000D03*
D82*
X150250000Y-78000000D03*
D37*
X119080000Y-80400000D03*
X118120000Y-80400000D03*
D40*
X137250000Y-75020000D03*
X137250000Y-75980000D03*
D22*
X147750000Y-74980000D03*
X147750000Y-74020000D03*
D74*
X154250000Y-102605000D03*
X153250000Y-102605000D03*
X153750000Y-103895000D03*
D83*
X125910589Y-100910589D03*
X126589411Y-101589411D03*
D22*
X142250000Y-100980000D03*
X142250000Y-100020000D03*
D80*
X146250000Y-113500000D03*
D81*
X146250000Y-113000000D03*
X146250000Y-112500000D03*
D80*
X146250000Y-112000000D03*
X145250000Y-112000000D03*
D81*
X145250000Y-112500000D03*
X145250000Y-113000000D03*
D80*
X145250000Y-113500000D03*
D79*
X134500000Y-107750000D03*
X134500000Y-109750000D03*
D84*
X127589411Y-100589411D03*
X126910589Y-99910589D03*
D39*
X143000000Y-83260000D03*
X143000000Y-82240000D03*
D85*
X125025394Y-99434404D03*
D86*
X125378947Y-98303033D03*
X125025394Y-97949480D03*
X124671841Y-97595926D03*
X124318287Y-97242373D03*
X123964734Y-96888819D03*
X123611181Y-96535266D03*
X123257627Y-96181713D03*
X122904074Y-95828159D03*
X122550520Y-95474606D03*
X122196967Y-95121053D03*
D85*
X121065596Y-95474606D03*
X120004936Y-96535266D03*
D86*
X119651383Y-97666637D03*
X120004936Y-98020190D03*
X120358489Y-98373744D03*
X120712043Y-98727297D03*
X121065596Y-99080851D03*
X121419149Y-99434404D03*
X121772703Y-99787957D03*
X122126256Y-100141511D03*
X122479810Y-100495064D03*
X122833363Y-100848617D03*
D85*
X123964734Y-100495064D03*
D87*
X122515165Y-97984835D03*
D74*
X147250000Y-102605000D03*
X146250000Y-102605000D03*
X146750000Y-103895000D03*
D40*
X151500000Y-74020000D03*
X151500000Y-74980000D03*
D80*
X145250000Y-109000000D03*
D81*
X145250000Y-109500000D03*
X145250000Y-110000000D03*
D80*
X145250000Y-110500000D03*
X146250000Y-110500000D03*
D81*
X146250000Y-110000000D03*
X146250000Y-109500000D03*
D80*
X146250000Y-109000000D03*
D39*
X150250000Y-75010000D03*
X150250000Y-73990000D03*
D37*
X140366393Y-76164342D03*
X139406393Y-76164342D03*
D74*
X137500000Y-102605000D03*
X136500000Y-102605000D03*
X137000000Y-103895000D03*
D88*
X123500000Y-69490000D03*
X123500000Y-70510000D03*
D89*
X118000000Y-109950000D03*
X118000000Y-107050000D03*
D80*
X114750000Y-113500000D03*
D81*
X114750000Y-113000000D03*
X114750000Y-112500000D03*
D80*
X114750000Y-112000000D03*
X113750000Y-112000000D03*
D81*
X113750000Y-112500000D03*
X113750000Y-113000000D03*
D80*
X113750000Y-113500000D03*
D90*
X131618629Y-71712132D03*
X132078249Y-72171751D03*
X132537868Y-72631371D03*
X133881371Y-71287868D03*
X133421751Y-70828249D03*
X132962132Y-70368629D03*
D37*
X124230000Y-88400000D03*
X123270000Y-88400000D03*
D39*
X149000000Y-75010000D03*
X149000000Y-73990000D03*
D79*
X139500000Y-107750000D03*
X139500000Y-109750000D03*
D91*
X127089411Y-94910589D03*
X126410589Y-95589411D03*
D79*
X127750000Y-107750000D03*
X127750000Y-109750000D03*
D74*
X144500000Y-99855000D03*
X143500000Y-99855000D03*
X144000000Y-101145000D03*
D92*
X119712500Y-78000000D03*
X119712500Y-77500000D03*
X119712500Y-77000000D03*
X119712500Y-76500000D03*
X119712500Y-76000000D03*
X119712500Y-75500000D03*
D93*
X119000000Y-74787500D03*
X118500000Y-74787500D03*
X118000000Y-74787500D03*
X117500000Y-74787500D03*
X117000000Y-74787500D03*
X116500000Y-74787500D03*
D92*
X115787500Y-75500000D03*
X115787500Y-76000000D03*
X115787500Y-76500000D03*
X115787500Y-77000000D03*
X115787500Y-77500000D03*
X115787500Y-78000000D03*
D93*
X116500000Y-78712500D03*
X117000000Y-78712500D03*
X117500000Y-78712500D03*
X118000000Y-78712500D03*
X118500000Y-78712500D03*
X119000000Y-78712500D03*
D94*
X117750000Y-76750000D03*
D81*
X148600000Y-99750000D03*
X148600000Y-100250000D03*
X148600000Y-100750000D03*
X148600000Y-101250000D03*
X150400000Y-101250000D03*
X150400000Y-100750000D03*
X150400000Y-100250000D03*
X150400000Y-99750000D03*
D82*
X149500000Y-100500000D03*
D79*
X130000000Y-107750000D03*
X130000000Y-109750000D03*
D80*
X113750000Y-109000000D03*
D81*
X113750000Y-109500000D03*
X113750000Y-110000000D03*
D80*
X113750000Y-110500000D03*
X114750000Y-110500000D03*
D81*
X114750000Y-110000000D03*
X114750000Y-109500000D03*
D80*
X114750000Y-109000000D03*
D74*
X147250000Y-99855000D03*
X146250000Y-99855000D03*
X146750000Y-101145000D03*
D95*
X132500000Y-100250000D03*
D96*
X133000000Y-100250000D03*
X133500000Y-100250000D03*
D95*
X134000000Y-100250000D03*
X134000000Y-99250000D03*
D96*
X133500000Y-99250000D03*
X133000000Y-99250000D03*
D95*
X132500000Y-99250000D03*
D81*
X138850000Y-99750000D03*
X138850000Y-100250000D03*
X138850000Y-100750000D03*
X138850000Y-101250000D03*
X140650000Y-101250000D03*
X140650000Y-100750000D03*
X140650000Y-100250000D03*
X140650000Y-99750000D03*
D82*
X139750000Y-100500000D03*
D81*
X138850000Y-102500000D03*
X138850000Y-103000000D03*
X138850000Y-103500000D03*
X138850000Y-104000000D03*
X140650000Y-104000000D03*
X140650000Y-103500000D03*
X140650000Y-103000000D03*
X140650000Y-102500000D03*
D82*
X139750000Y-103250000D03*
D37*
X137480000Y-106500000D03*
X136520000Y-106500000D03*
D95*
X109250000Y-115500000D03*
D96*
X109750000Y-115500000D03*
X110250000Y-115500000D03*
D95*
X110750000Y-115500000D03*
X110750000Y-114500000D03*
D96*
X110250000Y-114500000D03*
X109750000Y-114500000D03*
D95*
X109250000Y-114500000D03*
D80*
X148100000Y-84300000D03*
D81*
X148100000Y-84800000D03*
X148100000Y-85300000D03*
D80*
X148100000Y-85800000D03*
X149100000Y-85800000D03*
D81*
X149100000Y-85300000D03*
X149100000Y-84800000D03*
D80*
X149100000Y-84300000D03*
D40*
X135400000Y-71020000D03*
X135400000Y-71980000D03*
D97*
X126303500Y-83950000D03*
X126303500Y-84350000D03*
X126303500Y-84750000D03*
X126303500Y-85150000D03*
X126303500Y-85550000D03*
X126303500Y-85950000D03*
X126303500Y-86350000D03*
X126303500Y-86750000D03*
X126303500Y-87150000D03*
X126303500Y-87550000D03*
X126303500Y-87950000D03*
X126303500Y-88350000D03*
X126303500Y-88750000D03*
X126303500Y-89150000D03*
X126303500Y-89550000D03*
X126303500Y-89950000D03*
X126303500Y-90350000D03*
X126303500Y-90750000D03*
X126303500Y-91150000D03*
X126303500Y-91550000D03*
D98*
X127400000Y-92646500D03*
X127800000Y-92646500D03*
X128200000Y-92646500D03*
X128600000Y-92646500D03*
X129000000Y-92646500D03*
X129400000Y-92646500D03*
X129800000Y-92646500D03*
X130200000Y-92646500D03*
X130600000Y-92646500D03*
X131000000Y-92646500D03*
X131400000Y-92646500D03*
X131800000Y-92646500D03*
X132200000Y-92646500D03*
X132600000Y-92646500D03*
X133000000Y-92646500D03*
X133400000Y-92646500D03*
X133800000Y-92646500D03*
X134200000Y-92646500D03*
X134600000Y-92646500D03*
X135000000Y-92646500D03*
D97*
X136096500Y-91550000D03*
X136096500Y-91150000D03*
X136096500Y-90750000D03*
X136096500Y-90350000D03*
X136096500Y-89950000D03*
X136096500Y-89550000D03*
X136096500Y-89150000D03*
X136096500Y-88750000D03*
X136096500Y-88350000D03*
X136096500Y-87950000D03*
X136096500Y-87550000D03*
X136096500Y-87150000D03*
X136096500Y-86750000D03*
X136096500Y-86350000D03*
X136096500Y-85950000D03*
X136096500Y-85550000D03*
X136096500Y-85150000D03*
X136096500Y-84750000D03*
X136096500Y-84350000D03*
X136096500Y-83950000D03*
D98*
X135000000Y-82853500D03*
X134600000Y-82853500D03*
X134200000Y-82853500D03*
X133800000Y-82853500D03*
X133400000Y-82853500D03*
X133000000Y-82853500D03*
X132600000Y-82853500D03*
X132200000Y-82853500D03*
X131800000Y-82853500D03*
X131400000Y-82853500D03*
X131000000Y-82853500D03*
X130600000Y-82853500D03*
X130200000Y-82853500D03*
X129800000Y-82853500D03*
X129400000Y-82853500D03*
X129000000Y-82853500D03*
X128600000Y-82853500D03*
X128200000Y-82853500D03*
X127800000Y-82853500D03*
X127400000Y-82853500D03*
D99*
X130066667Y-86616667D03*
D100*
X130066667Y-86616667D03*
D99*
X130066667Y-87750000D03*
D100*
X130066667Y-87750000D03*
D99*
X130066667Y-88883333D03*
D100*
X130066667Y-88883333D03*
D99*
X131200000Y-86616667D03*
D100*
X131200000Y-86616667D03*
D99*
X131200000Y-87750000D03*
D100*
X131200000Y-87750000D03*
D99*
X131200000Y-88883333D03*
D100*
X131200000Y-88883333D03*
D99*
X132333333Y-86616667D03*
D100*
X132333333Y-86616667D03*
D99*
X132333333Y-87750000D03*
D100*
X132333333Y-87750000D03*
D99*
X132333333Y-88883333D03*
D100*
X132333333Y-88883333D03*
D39*
X141315689Y-76008041D03*
X141315689Y-74988041D03*
D101*
X136350000Y-109700000D03*
X137000000Y-109700000D03*
X137650000Y-109700000D03*
X137650000Y-107800000D03*
X137000000Y-107800000D03*
X136350000Y-107800000D03*
D57*
X152740000Y-80000000D03*
X153760000Y-80000000D03*
D55*
X139010000Y-86000000D03*
X137990000Y-86000000D03*
D101*
X124600000Y-109700000D03*
X125250000Y-109700000D03*
X125900000Y-109700000D03*
X125900000Y-107800000D03*
X125250000Y-107800000D03*
X124600000Y-107800000D03*
D40*
X129250000Y-71020000D03*
X129250000Y-71980000D03*
D95*
X150750000Y-114500000D03*
D96*
X150250000Y-114500000D03*
X149750000Y-114500000D03*
D95*
X149250000Y-114500000D03*
X149250000Y-115500000D03*
D96*
X149750000Y-115500000D03*
X150250000Y-115500000D03*
D95*
X150750000Y-115500000D03*
D81*
X148600000Y-102500000D03*
X148600000Y-103000000D03*
X148600000Y-103500000D03*
X148600000Y-104000000D03*
X150400000Y-104000000D03*
X150400000Y-103500000D03*
X150400000Y-103000000D03*
X150400000Y-102500000D03*
D82*
X149500000Y-103250000D03*
D57*
X149740000Y-81500000D03*
X150760000Y-81500000D03*
D102*
X108750000Y-112725000D03*
X109250000Y-112725000D03*
X109750000Y-112725000D03*
X110250000Y-112725000D03*
X110750000Y-112725000D03*
X111250000Y-112725000D03*
D103*
X111975000Y-112000000D03*
X111975000Y-111500000D03*
X111975000Y-111000000D03*
X111975000Y-110500000D03*
X111975000Y-110000000D03*
X111975000Y-109500000D03*
D102*
X111250000Y-108775000D03*
X110750000Y-108775000D03*
X110250000Y-108775000D03*
X109750000Y-108775000D03*
X109250000Y-108775000D03*
X108750000Y-108775000D03*
D103*
X108025000Y-109500000D03*
X108025000Y-110000000D03*
X108025000Y-110500000D03*
X108025000Y-111000000D03*
X108025000Y-111500000D03*
X108025000Y-112000000D03*
D104*
X110000000Y-110750000D03*
D79*
X122750000Y-107750000D03*
X122750000Y-109750000D03*
D74*
X154250000Y-99855000D03*
X153250000Y-99855000D03*
X153750000Y-101145000D03*
D80*
X110750000Y-105500000D03*
D81*
X110750000Y-106000000D03*
X110750000Y-106500000D03*
D80*
X110750000Y-107000000D03*
X111750000Y-107000000D03*
D81*
X111750000Y-106500000D03*
X111750000Y-106000000D03*
D80*
X111750000Y-105500000D03*
D105*
X154145000Y-78500000D03*
X154145000Y-77500000D03*
X152855000Y-78000000D03*
D88*
X136750000Y-79740000D03*
X136750000Y-80760000D03*
D96*
X114000000Y-81350000D03*
X113500000Y-81350000D03*
X113000000Y-81350000D03*
X112500000Y-81350000D03*
X112500000Y-83150000D03*
X113000000Y-83150000D03*
X113500000Y-83150000D03*
X114000000Y-83150000D03*
D106*
X113250000Y-82250000D03*
D57*
X105490000Y-108000000D03*
X106510000Y-108000000D03*
D37*
X154480000Y-110000000D03*
X153520000Y-110000000D03*
D105*
X146395000Y-75000000D03*
X146395000Y-74000000D03*
X145105000Y-74500000D03*
D95*
X129500000Y-100250000D03*
D96*
X130000000Y-100250000D03*
X130500000Y-100250000D03*
D95*
X131000000Y-100250000D03*
X131000000Y-99250000D03*
D96*
X130500000Y-99250000D03*
X130000000Y-99250000D03*
D95*
X129500000Y-99250000D03*
D22*
X142250000Y-103730000D03*
X142250000Y-102770000D03*
D79*
X141750000Y-107750000D03*
X141750000Y-109750000D03*
D22*
X152000000Y-100980000D03*
X152000000Y-100020000D03*
D39*
X143750000Y-75010000D03*
X143750000Y-73990000D03*
D40*
X141750000Y-82270000D03*
X141750000Y-83230000D03*
D105*
X141895000Y-96250000D03*
X141895000Y-95250000D03*
X140605000Y-95750000D03*
X154145000Y-75000000D03*
X154145000Y-74000000D03*
X152855000Y-74500000D03*
D107*
X140137500Y-75050000D03*
X140137500Y-74400000D03*
X140137500Y-73750000D03*
X138362500Y-73750000D03*
X138362500Y-74400000D03*
X138362500Y-75050000D03*
D108*
X139250000Y-74400000D03*
D22*
X135750000Y-80730000D03*
X135750000Y-79770000D03*
D37*
X125730000Y-106500000D03*
X124770000Y-106500000D03*
D109*
X151250000Y-108775000D03*
X150750000Y-108775000D03*
X150250000Y-108775000D03*
X149750000Y-108775000D03*
X149250000Y-108775000D03*
X148750000Y-108775000D03*
D110*
X148025000Y-109500000D03*
X148025000Y-110000000D03*
X148025000Y-110500000D03*
X148025000Y-111000000D03*
X148025000Y-111500000D03*
X148025000Y-112000000D03*
D109*
X148750000Y-112725000D03*
X149250000Y-112725000D03*
X149750000Y-112725000D03*
X150250000Y-112725000D03*
X150750000Y-112725000D03*
X151250000Y-112725000D03*
D110*
X151975000Y-112000000D03*
X151975000Y-111500000D03*
X151975000Y-111000000D03*
X151975000Y-110500000D03*
X151975000Y-110000000D03*
X151975000Y-109500000D03*
D104*
X150000000Y-110750000D03*
D79*
X132250000Y-107750000D03*
X132250000Y-109750000D03*
D34*
X105520000Y-111600000D03*
X106480000Y-111600000D03*
X142270000Y-84500000D03*
X143230000Y-84500000D03*
D22*
X132500000Y-80730000D03*
X132500000Y-79770000D03*
D37*
X154480000Y-111250000D03*
X153520000Y-111250000D03*
D22*
X140250000Y-87480000D03*
X140250000Y-86520000D03*
D55*
X139010000Y-85000000D03*
X137990000Y-85000000D03*
D22*
X152000000Y-103730000D03*
X152000000Y-102770000D03*
D80*
X114750000Y-107000000D03*
D81*
X114750000Y-106500000D03*
X114750000Y-106000000D03*
D80*
X114750000Y-105500000D03*
X113750000Y-105500000D03*
D81*
X113750000Y-106000000D03*
X113750000Y-106500000D03*
D80*
X113750000Y-107000000D03*
D111*
X124962500Y-70500000D03*
X124962500Y-71000000D03*
X124962500Y-71500000D03*
X124962500Y-72000000D03*
X127537500Y-72000000D03*
X127537500Y-71500000D03*
X127537500Y-71000000D03*
X127537500Y-70500000D03*
D112*
X126250000Y-71250000D03*
D22*
X115250000Y-82730000D03*
X115250000Y-81770000D03*
D34*
X138020000Y-91750000D03*
X138980000Y-91750000D03*
D80*
X145250000Y-105500000D03*
D81*
X145250000Y-106000000D03*
X145250000Y-106500000D03*
D80*
X145250000Y-107000000D03*
X146250000Y-107000000D03*
D81*
X146250000Y-106500000D03*
X146250000Y-106000000D03*
D80*
X146250000Y-105500000D03*
D46*
X118470000Y-112220000D03*
D47*
X121010000Y-112220000D03*
X123550000Y-112220000D03*
X126090000Y-112220000D03*
X128630000Y-112220000D03*
X131170000Y-112220000D03*
X133710000Y-112220000D03*
X136250000Y-112220000D03*
X138790000Y-112220000D03*
X141330000Y-112220000D03*
%LPD*%
M02*
