G04 #@! TF.GenerationSoftware,KiCad,Pcbnew,(5.1.10)-1*
G04 #@! TF.CreationDate,2022-01-17T23:31:42+08:00*
G04 #@! TF.ProjectId,programming_pin_mount.v1.0,70726f67-7261-46d6-9d69-6e675f70696e,rev?*
G04 #@! TF.SameCoordinates,Original*
G04 #@! TF.FileFunction,Legend,Top*
G04 #@! TF.FilePolarity,Positive*
%FSLAX46Y46*%
G04 Gerber Fmt 4.6, Leading zero omitted, Abs format (unit mm)*
G04 Created by KiCad (PCBNEW (5.1.10)-1) date 2022-01-17 23:31:42*
%MOMM*%
%LPD*%
G01*
G04 APERTURE LIST*
%ADD10C,0.120000*%
G04 APERTURE END LIST*
D10*
X146110000Y-101770000D02*
X138370000Y-101770000D01*
X138370000Y-101770000D02*
X138370000Y-104430000D01*
X138370000Y-104430000D02*
X146110000Y-104430000D01*
X146110000Y-104430000D02*
X146110000Y-101770000D01*
X145160000Y-104430000D02*
X145160000Y-110430000D01*
X145160000Y-110430000D02*
X144400000Y-110430000D01*
X144400000Y-110430000D02*
X144400000Y-104430000D01*
X145100000Y-104430000D02*
X145100000Y-110430000D01*
X144980000Y-104430000D02*
X144980000Y-110430000D01*
X144860000Y-104430000D02*
X144860000Y-110430000D01*
X144740000Y-104430000D02*
X144740000Y-110430000D01*
X144620000Y-104430000D02*
X144620000Y-110430000D01*
X144500000Y-104430000D02*
X144500000Y-110430000D01*
X145160000Y-101440000D02*
X145160000Y-101770000D01*
X144400000Y-101440000D02*
X144400000Y-101770000D01*
X143510000Y-101770000D02*
X143510000Y-104430000D01*
X142620000Y-104430000D02*
X142620000Y-110430000D01*
X142620000Y-110430000D02*
X141860000Y-110430000D01*
X141860000Y-110430000D02*
X141860000Y-104430000D01*
X142620000Y-101372929D02*
X142620000Y-101770000D01*
X141860000Y-101372929D02*
X141860000Y-101770000D01*
X140970000Y-101770000D02*
X140970000Y-104430000D01*
X140080000Y-104430000D02*
X140080000Y-110430000D01*
X140080000Y-110430000D02*
X139320000Y-110430000D01*
X139320000Y-110430000D02*
X139320000Y-104430000D01*
X140080000Y-101372929D02*
X140080000Y-101770000D01*
X139320000Y-101372929D02*
X139320000Y-101770000D01*
X144780000Y-99060000D02*
X146050000Y-99060000D01*
X146050000Y-99060000D02*
X146050000Y-100330000D01*
X139005000Y-95935000D02*
X140395000Y-95935000D01*
X139005000Y-95935000D02*
X139005000Y-95810000D01*
X140395000Y-95935000D02*
X140395000Y-95810000D01*
X139005000Y-95935000D02*
X139091724Y-95935000D01*
X140308276Y-95935000D02*
X140395000Y-95935000D01*
X139005000Y-95250000D02*
X139005000Y-94565000D01*
X139005000Y-94565000D02*
X139700000Y-94565000D01*
X141545000Y-95935000D02*
X142935000Y-95935000D01*
X141545000Y-95935000D02*
X141545000Y-95810000D01*
X142935000Y-95935000D02*
X142935000Y-95810000D01*
X141545000Y-95935000D02*
X141631724Y-95935000D01*
X142848276Y-95935000D02*
X142935000Y-95935000D01*
X141545000Y-95250000D02*
X141545000Y-94565000D01*
X141545000Y-94565000D02*
X142240000Y-94565000D01*
X144085000Y-95935000D02*
X145475000Y-95935000D01*
X144085000Y-95935000D02*
X144085000Y-95810000D01*
X145475000Y-95935000D02*
X145475000Y-95810000D01*
X144085000Y-95935000D02*
X144171724Y-95935000D01*
X145388276Y-95935000D02*
X145475000Y-95935000D01*
X144085000Y-95250000D02*
X144085000Y-94565000D01*
X144085000Y-94565000D02*
X144780000Y-94565000D01*
M02*
