G04 #@! TF.GenerationSoftware,KiCad,Pcbnew,8.0.6*
G04 #@! TF.CreationDate,2024-11-01T16:37:01+01:00*
G04 #@! TF.ProjectId,7-REV0,372d5245-5630-42e6-9b69-6361645f7063,rev?*
G04 #@! TF.SameCoordinates,Original*
G04 #@! TF.FileFunction,Legend,Bot*
G04 #@! TF.FilePolarity,Positive*
%FSLAX46Y46*%
G04 Gerber Fmt 4.6, Leading zero omitted, Abs format (unit mm)*
G04 Created by KiCad (PCBNEW 8.0.6) date 2024-11-01 16:37:01*
%MOMM*%
%LPD*%
G01*
G04 APERTURE LIST*
%ADD10C,0.212500*%
%ADD11C,0.250000*%
%ADD12C,0.400000*%
%ADD13C,0.375000*%
%ADD14C,0.150000*%
%ADD15C,0.120000*%
%ADD16C,0.085000*%
%ADD17C,0.010000*%
%ADD18C,0.203200*%
%ADD19C,3.200000*%
%ADD20R,1.700000X1.700000*%
%ADD21O,1.700000X1.700000*%
%ADD22C,0.700000*%
%ADD23O,1.050000X2.100000*%
%ADD24C,0.600000*%
%ADD25R,0.700000X1.250000*%
%ADD26R,2.550000X0.600000*%
G04 APERTURE END LIST*
D10*
X137603364Y-108439089D02*
X137726048Y-108475582D01*
X137726048Y-108475582D02*
X137782421Y-108465642D01*
X137782421Y-108465642D02*
X137862009Y-108422546D01*
X137862009Y-108422546D02*
X137931658Y-108323077D01*
X137931658Y-108323077D02*
X137944934Y-108233549D01*
X137944934Y-108233549D02*
X137934994Y-108177176D01*
X137934994Y-108177176D02*
X137891898Y-108097588D01*
X137891898Y-108097588D02*
X137626649Y-107911858D01*
X137626649Y-107911858D02*
X137139109Y-108608138D01*
X137139109Y-108608138D02*
X137371202Y-108770651D01*
X137371202Y-108770651D02*
X137460730Y-108783927D01*
X137460730Y-108783927D02*
X137517103Y-108773987D01*
X137517103Y-108773987D02*
X137596691Y-108730891D01*
X137596691Y-108730891D02*
X137643124Y-108664579D01*
X137643124Y-108664579D02*
X137656400Y-108575050D01*
X137656400Y-108575050D02*
X137646460Y-108518678D01*
X137646460Y-108518678D02*
X137603364Y-108439089D01*
X137603364Y-108439089D02*
X137371271Y-108276576D01*
X138322928Y-108399398D02*
X137835388Y-109095678D01*
X137835388Y-109095678D02*
X138100637Y-109281407D01*
X138100637Y-109281407D02*
X138190166Y-109294683D01*
X138190166Y-109294683D02*
X138246538Y-109284743D01*
X138246538Y-109284743D02*
X138326127Y-109241647D01*
X138326127Y-109241647D02*
X138395775Y-109142179D01*
X138395775Y-109142179D02*
X138409051Y-109052650D01*
X138409051Y-109052650D02*
X138399112Y-108996278D01*
X138399112Y-108996278D02*
X138356015Y-108916689D01*
X138356015Y-108916689D02*
X138090766Y-108730960D01*
X139019207Y-108886938D02*
X138531667Y-109583217D01*
X138995854Y-109908244D02*
X139128478Y-110001109D01*
X139128478Y-110001109D02*
X139218007Y-110014385D01*
X139218007Y-110014385D02*
X139330751Y-109994505D01*
X139330751Y-109994505D02*
X139456772Y-109885097D01*
X139456772Y-109885097D02*
X139619286Y-109653004D01*
X139619286Y-109653004D02*
X139678994Y-109497163D01*
X139678994Y-109497163D02*
X139659114Y-109384418D01*
X139659114Y-109384418D02*
X139616018Y-109304830D01*
X139616018Y-109304830D02*
X139483394Y-109211965D01*
X139483394Y-109211965D02*
X139393865Y-109198689D01*
X139393865Y-109198689D02*
X139281120Y-109218569D01*
X139281120Y-109218569D02*
X139155099Y-109327977D01*
X139155099Y-109327977D02*
X138992586Y-109560070D01*
X138992586Y-109560070D02*
X138932878Y-109715911D01*
X138932878Y-109715911D02*
X138952757Y-109828656D01*
X138952757Y-109828656D02*
X138995854Y-109908244D01*
X139526352Y-110279703D02*
X139990538Y-110604730D01*
X139990538Y-110604730D02*
X140179673Y-109699505D01*
X127413364Y-108439089D02*
X127536048Y-108475582D01*
X127536048Y-108475582D02*
X127592421Y-108465642D01*
X127592421Y-108465642D02*
X127672009Y-108422546D01*
X127672009Y-108422546D02*
X127741658Y-108323077D01*
X127741658Y-108323077D02*
X127754934Y-108233549D01*
X127754934Y-108233549D02*
X127744994Y-108177176D01*
X127744994Y-108177176D02*
X127701898Y-108097588D01*
X127701898Y-108097588D02*
X127436649Y-107911858D01*
X127436649Y-107911858D02*
X126949109Y-108608138D01*
X126949109Y-108608138D02*
X127181202Y-108770651D01*
X127181202Y-108770651D02*
X127270730Y-108783927D01*
X127270730Y-108783927D02*
X127327103Y-108773987D01*
X127327103Y-108773987D02*
X127406691Y-108730891D01*
X127406691Y-108730891D02*
X127453124Y-108664579D01*
X127453124Y-108664579D02*
X127466400Y-108575050D01*
X127466400Y-108575050D02*
X127456460Y-108518678D01*
X127456460Y-108518678D02*
X127413364Y-108439089D01*
X127413364Y-108439089D02*
X127181271Y-108276576D01*
X128132928Y-108399398D02*
X127645388Y-109095678D01*
X127645388Y-109095678D02*
X127910637Y-109281407D01*
X127910637Y-109281407D02*
X128000166Y-109294683D01*
X128000166Y-109294683D02*
X128056538Y-109284743D01*
X128056538Y-109284743D02*
X128136127Y-109241647D01*
X128136127Y-109241647D02*
X128205775Y-109142179D01*
X128205775Y-109142179D02*
X128219051Y-109052650D01*
X128219051Y-109052650D02*
X128209112Y-108996278D01*
X128209112Y-108996278D02*
X128166015Y-108916689D01*
X128166015Y-108916689D02*
X127900766Y-108730960D01*
X128829207Y-108886938D02*
X128341667Y-109583217D01*
X128805854Y-109908244D02*
X128938478Y-110001109D01*
X128938478Y-110001109D02*
X129028007Y-110014385D01*
X129028007Y-110014385D02*
X129140751Y-109994505D01*
X129140751Y-109994505D02*
X129266772Y-109885097D01*
X129266772Y-109885097D02*
X129429286Y-109653004D01*
X129429286Y-109653004D02*
X129488994Y-109497163D01*
X129488994Y-109497163D02*
X129469114Y-109384418D01*
X129469114Y-109384418D02*
X129426018Y-109304830D01*
X129426018Y-109304830D02*
X129293394Y-109211965D01*
X129293394Y-109211965D02*
X129203865Y-109198689D01*
X129203865Y-109198689D02*
X129091120Y-109218569D01*
X129091120Y-109218569D02*
X128965099Y-109327977D01*
X128965099Y-109327977D02*
X128802586Y-109560070D01*
X128802586Y-109560070D02*
X128742878Y-109715911D01*
X128742878Y-109715911D02*
X128762757Y-109828656D01*
X128762757Y-109828656D02*
X128805854Y-109908244D01*
X129336352Y-110279703D02*
X129767382Y-110581514D01*
X129767382Y-110581514D02*
X129721018Y-110153751D01*
X129721018Y-110153751D02*
X129820487Y-110223400D01*
X129820487Y-110223400D02*
X129910015Y-110236676D01*
X129910015Y-110236676D02*
X129966388Y-110226736D01*
X129966388Y-110226736D02*
X130045976Y-110183640D01*
X130045976Y-110183640D02*
X130162057Y-110017859D01*
X130162057Y-110017859D02*
X130175333Y-109928330D01*
X130175333Y-109928330D02*
X130165393Y-109871958D01*
X130165393Y-109871958D02*
X130122297Y-109792370D01*
X130122297Y-109792370D02*
X129923360Y-109653072D01*
X129923360Y-109653072D02*
X129833832Y-109639796D01*
X129833832Y-109639796D02*
X129777459Y-109649736D01*
X116804890Y-108674219D02*
X117524523Y-108140453D01*
X117524523Y-108140453D02*
X117269076Y-108999245D01*
X117633794Y-109254623D02*
X117766418Y-109347488D01*
X117766418Y-109347488D02*
X117855947Y-109360764D01*
X117855947Y-109360764D02*
X117968691Y-109340884D01*
X117968691Y-109340884D02*
X118094712Y-109231476D01*
X118094712Y-109231476D02*
X118257226Y-108999383D01*
X118257226Y-108999383D02*
X118316934Y-108843542D01*
X118316934Y-108843542D02*
X118297054Y-108730797D01*
X118297054Y-108730797D02*
X118253958Y-108651209D01*
X118253958Y-108651209D02*
X118121333Y-108558344D01*
X118121333Y-108558344D02*
X118031805Y-108545068D01*
X118031805Y-108545068D02*
X117919060Y-108564948D01*
X117919060Y-108564948D02*
X117793039Y-108674356D01*
X117793039Y-108674356D02*
X117630526Y-108906449D01*
X117630526Y-108906449D02*
X117570817Y-109062290D01*
X117570817Y-109062290D02*
X117590697Y-109175035D01*
X117590697Y-109175035D02*
X117633794Y-109254623D01*
X118230604Y-109672515D02*
X118625279Y-109108860D01*
X118625279Y-109108860D02*
X118704868Y-109065764D01*
X118704868Y-109065764D02*
X118761240Y-109055824D01*
X118761240Y-109055824D02*
X118850769Y-109069100D01*
X118850769Y-109069100D02*
X118983393Y-109161965D01*
X118983393Y-109161965D02*
X119026489Y-109241553D01*
X119026489Y-109241553D02*
X119036429Y-109297926D01*
X119036429Y-109297926D02*
X119023153Y-109387454D01*
X119023153Y-109387454D02*
X118628478Y-109951109D01*
X118860571Y-110113622D02*
X119258445Y-110392216D01*
X119547048Y-109556640D02*
X119059508Y-110252919D01*
X124903364Y-108489089D02*
X125026048Y-108525582D01*
X125026048Y-108525582D02*
X125082421Y-108515642D01*
X125082421Y-108515642D02*
X125162009Y-108472546D01*
X125162009Y-108472546D02*
X125231658Y-108373077D01*
X125231658Y-108373077D02*
X125244934Y-108283549D01*
X125244934Y-108283549D02*
X125234994Y-108227176D01*
X125234994Y-108227176D02*
X125191898Y-108147588D01*
X125191898Y-108147588D02*
X124926649Y-107961858D01*
X124926649Y-107961858D02*
X124439109Y-108658138D01*
X124439109Y-108658138D02*
X124671202Y-108820651D01*
X124671202Y-108820651D02*
X124760730Y-108833927D01*
X124760730Y-108833927D02*
X124817103Y-108823987D01*
X124817103Y-108823987D02*
X124896691Y-108780891D01*
X124896691Y-108780891D02*
X124943124Y-108714579D01*
X124943124Y-108714579D02*
X124956400Y-108625050D01*
X124956400Y-108625050D02*
X124946460Y-108568678D01*
X124946460Y-108568678D02*
X124903364Y-108489089D01*
X124903364Y-108489089D02*
X124671271Y-108326576D01*
X125622928Y-108449398D02*
X125135388Y-109145678D01*
X125135388Y-109145678D02*
X125400637Y-109331407D01*
X125400637Y-109331407D02*
X125490166Y-109344683D01*
X125490166Y-109344683D02*
X125546538Y-109334743D01*
X125546538Y-109334743D02*
X125626127Y-109291647D01*
X125626127Y-109291647D02*
X125695775Y-109192179D01*
X125695775Y-109192179D02*
X125709051Y-109102650D01*
X125709051Y-109102650D02*
X125699112Y-109046278D01*
X125699112Y-109046278D02*
X125656015Y-108966689D01*
X125656015Y-108966689D02*
X125390766Y-108780960D01*
X126319207Y-108936938D02*
X125831667Y-109633217D01*
X126295854Y-109958244D02*
X126428478Y-110051109D01*
X126428478Y-110051109D02*
X126518007Y-110064385D01*
X126518007Y-110064385D02*
X126630751Y-110044505D01*
X126630751Y-110044505D02*
X126756772Y-109935097D01*
X126756772Y-109935097D02*
X126919286Y-109703004D01*
X126919286Y-109703004D02*
X126978994Y-109547163D01*
X126978994Y-109547163D02*
X126959114Y-109434418D01*
X126959114Y-109434418D02*
X126916018Y-109354830D01*
X126916018Y-109354830D02*
X126783394Y-109261965D01*
X126783394Y-109261965D02*
X126693865Y-109248689D01*
X126693865Y-109248689D02*
X126581120Y-109268569D01*
X126581120Y-109268569D02*
X126455099Y-109377977D01*
X126455099Y-109377977D02*
X126292586Y-109610070D01*
X126292586Y-109610070D02*
X126232878Y-109765911D01*
X126232878Y-109765911D02*
X126252757Y-109878656D01*
X126252757Y-109878656D02*
X126295854Y-109958244D01*
X126905940Y-110286607D02*
X126915880Y-110342979D01*
X126915880Y-110342979D02*
X126958976Y-110422568D01*
X126958976Y-110422568D02*
X127124757Y-110538649D01*
X127124757Y-110538649D02*
X127214286Y-110551925D01*
X127214286Y-110551925D02*
X127270658Y-110541985D01*
X127270658Y-110541985D02*
X127350247Y-110498889D01*
X127350247Y-110498889D02*
X127396679Y-110432577D01*
X127396679Y-110432577D02*
X127433171Y-110309892D01*
X127433171Y-110309892D02*
X127313892Y-109633424D01*
X127313892Y-109633424D02*
X127744922Y-109935234D01*
X135053364Y-108439089D02*
X135176048Y-108475582D01*
X135176048Y-108475582D02*
X135232421Y-108465642D01*
X135232421Y-108465642D02*
X135312009Y-108422546D01*
X135312009Y-108422546D02*
X135381658Y-108323077D01*
X135381658Y-108323077D02*
X135394934Y-108233549D01*
X135394934Y-108233549D02*
X135384994Y-108177176D01*
X135384994Y-108177176D02*
X135341898Y-108097588D01*
X135341898Y-108097588D02*
X135076649Y-107911858D01*
X135076649Y-107911858D02*
X134589109Y-108608138D01*
X134589109Y-108608138D02*
X134821202Y-108770651D01*
X134821202Y-108770651D02*
X134910730Y-108783927D01*
X134910730Y-108783927D02*
X134967103Y-108773987D01*
X134967103Y-108773987D02*
X135046691Y-108730891D01*
X135046691Y-108730891D02*
X135093124Y-108664579D01*
X135093124Y-108664579D02*
X135106400Y-108575050D01*
X135106400Y-108575050D02*
X135096460Y-108518678D01*
X135096460Y-108518678D02*
X135053364Y-108439089D01*
X135053364Y-108439089D02*
X134821271Y-108276576D01*
X135772928Y-108399398D02*
X135285388Y-109095678D01*
X135285388Y-109095678D02*
X135550637Y-109281407D01*
X135550637Y-109281407D02*
X135640166Y-109294683D01*
X135640166Y-109294683D02*
X135696538Y-109284743D01*
X135696538Y-109284743D02*
X135776127Y-109241647D01*
X135776127Y-109241647D02*
X135845775Y-109142179D01*
X135845775Y-109142179D02*
X135859051Y-109052650D01*
X135859051Y-109052650D02*
X135849112Y-108996278D01*
X135849112Y-108996278D02*
X135806015Y-108916689D01*
X135806015Y-108916689D02*
X135540766Y-108730960D01*
X136469207Y-108886938D02*
X135981667Y-109583217D01*
X136445854Y-109908244D02*
X136578478Y-110001109D01*
X136578478Y-110001109D02*
X136668007Y-110014385D01*
X136668007Y-110014385D02*
X136780751Y-109994505D01*
X136780751Y-109994505D02*
X136906772Y-109885097D01*
X136906772Y-109885097D02*
X137069286Y-109653004D01*
X137069286Y-109653004D02*
X137128994Y-109497163D01*
X137128994Y-109497163D02*
X137109114Y-109384418D01*
X137109114Y-109384418D02*
X137066018Y-109304830D01*
X137066018Y-109304830D02*
X136933394Y-109211965D01*
X136933394Y-109211965D02*
X136843865Y-109198689D01*
X136843865Y-109198689D02*
X136731120Y-109218569D01*
X136731120Y-109218569D02*
X136605099Y-109327977D01*
X136605099Y-109327977D02*
X136442586Y-109560070D01*
X136442586Y-109560070D02*
X136382878Y-109715911D01*
X136382878Y-109715911D02*
X136402757Y-109828656D01*
X136402757Y-109828656D02*
X136445854Y-109908244D01*
X137341070Y-110535081D02*
X137208445Y-110442216D01*
X137208445Y-110442216D02*
X137165349Y-110362628D01*
X137165349Y-110362628D02*
X137155409Y-110306256D01*
X137155409Y-110306256D02*
X137158745Y-110160355D01*
X137158745Y-110160355D02*
X137218454Y-110004514D01*
X137218454Y-110004514D02*
X137404183Y-109739265D01*
X137404183Y-109739265D02*
X137483772Y-109696169D01*
X137483772Y-109696169D02*
X137540144Y-109686229D01*
X137540144Y-109686229D02*
X137629673Y-109699505D01*
X137629673Y-109699505D02*
X137762297Y-109792370D01*
X137762297Y-109792370D02*
X137805393Y-109871958D01*
X137805393Y-109871958D02*
X137815333Y-109928330D01*
X137815333Y-109928330D02*
X137802057Y-110017859D01*
X137802057Y-110017859D02*
X137685976Y-110183640D01*
X137685976Y-110183640D02*
X137606388Y-110226736D01*
X137606388Y-110226736D02*
X137550015Y-110236676D01*
X137550015Y-110236676D02*
X137460487Y-110223400D01*
X137460487Y-110223400D02*
X137327862Y-110130535D01*
X137327862Y-110130535D02*
X137284766Y-110050946D01*
X137284766Y-110050946D02*
X137274826Y-109994574D01*
X137274826Y-109994574D02*
X137288102Y-109905045D01*
X122353364Y-108439089D02*
X122476048Y-108475582D01*
X122476048Y-108475582D02*
X122532421Y-108465642D01*
X122532421Y-108465642D02*
X122612009Y-108422546D01*
X122612009Y-108422546D02*
X122681658Y-108323077D01*
X122681658Y-108323077D02*
X122694934Y-108233549D01*
X122694934Y-108233549D02*
X122684994Y-108177176D01*
X122684994Y-108177176D02*
X122641898Y-108097588D01*
X122641898Y-108097588D02*
X122376649Y-107911858D01*
X122376649Y-107911858D02*
X121889109Y-108608138D01*
X121889109Y-108608138D02*
X122121202Y-108770651D01*
X122121202Y-108770651D02*
X122210730Y-108783927D01*
X122210730Y-108783927D02*
X122267103Y-108773987D01*
X122267103Y-108773987D02*
X122346691Y-108730891D01*
X122346691Y-108730891D02*
X122393124Y-108664579D01*
X122393124Y-108664579D02*
X122406400Y-108575050D01*
X122406400Y-108575050D02*
X122396460Y-108518678D01*
X122396460Y-108518678D02*
X122353364Y-108439089D01*
X122353364Y-108439089D02*
X122121271Y-108276576D01*
X123072928Y-108399398D02*
X122585388Y-109095678D01*
X122585388Y-109095678D02*
X122850637Y-109281407D01*
X122850637Y-109281407D02*
X122940166Y-109294683D01*
X122940166Y-109294683D02*
X122996538Y-109284743D01*
X122996538Y-109284743D02*
X123076127Y-109241647D01*
X123076127Y-109241647D02*
X123145775Y-109142179D01*
X123145775Y-109142179D02*
X123159051Y-109052650D01*
X123159051Y-109052650D02*
X123149112Y-108996278D01*
X123149112Y-108996278D02*
X123106015Y-108916689D01*
X123106015Y-108916689D02*
X122840766Y-108730960D01*
X123769207Y-108886938D02*
X123281667Y-109583217D01*
X123745854Y-109908244D02*
X123878478Y-110001109D01*
X123878478Y-110001109D02*
X123968007Y-110014385D01*
X123968007Y-110014385D02*
X124080751Y-109994505D01*
X124080751Y-109994505D02*
X124206772Y-109885097D01*
X124206772Y-109885097D02*
X124369286Y-109653004D01*
X124369286Y-109653004D02*
X124428994Y-109497163D01*
X124428994Y-109497163D02*
X124409114Y-109384418D01*
X124409114Y-109384418D02*
X124366018Y-109304830D01*
X124366018Y-109304830D02*
X124233394Y-109211965D01*
X124233394Y-109211965D02*
X124143865Y-109198689D01*
X124143865Y-109198689D02*
X124031120Y-109218569D01*
X124031120Y-109218569D02*
X123905099Y-109327977D01*
X123905099Y-109327977D02*
X123742586Y-109560070D01*
X123742586Y-109560070D02*
X123682878Y-109715911D01*
X123682878Y-109715911D02*
X123702757Y-109828656D01*
X123702757Y-109828656D02*
X123745854Y-109908244D01*
X125194922Y-109885234D02*
X124797048Y-109606640D01*
X124995985Y-109745937D02*
X124508445Y-110442216D01*
X124508445Y-110442216D02*
X124511781Y-110296316D01*
X124511781Y-110296316D02*
X124491901Y-110183571D01*
X124491901Y-110183571D02*
X124448805Y-110103982D01*
X119803364Y-108389089D02*
X119926048Y-108425582D01*
X119926048Y-108425582D02*
X119982421Y-108415642D01*
X119982421Y-108415642D02*
X120062009Y-108372546D01*
X120062009Y-108372546D02*
X120131658Y-108273077D01*
X120131658Y-108273077D02*
X120144934Y-108183549D01*
X120144934Y-108183549D02*
X120134994Y-108127176D01*
X120134994Y-108127176D02*
X120091898Y-108047588D01*
X120091898Y-108047588D02*
X119826649Y-107861858D01*
X119826649Y-107861858D02*
X119339109Y-108558138D01*
X119339109Y-108558138D02*
X119571202Y-108720651D01*
X119571202Y-108720651D02*
X119660730Y-108733927D01*
X119660730Y-108733927D02*
X119717103Y-108723987D01*
X119717103Y-108723987D02*
X119796691Y-108680891D01*
X119796691Y-108680891D02*
X119843124Y-108614579D01*
X119843124Y-108614579D02*
X119856400Y-108525050D01*
X119856400Y-108525050D02*
X119846460Y-108468678D01*
X119846460Y-108468678D02*
X119803364Y-108389089D01*
X119803364Y-108389089D02*
X119571271Y-108226576D01*
X120522928Y-108349398D02*
X120035388Y-109045678D01*
X120035388Y-109045678D02*
X120300637Y-109231407D01*
X120300637Y-109231407D02*
X120390166Y-109244683D01*
X120390166Y-109244683D02*
X120446538Y-109234743D01*
X120446538Y-109234743D02*
X120526127Y-109191647D01*
X120526127Y-109191647D02*
X120595775Y-109092179D01*
X120595775Y-109092179D02*
X120609051Y-109002650D01*
X120609051Y-109002650D02*
X120599112Y-108946278D01*
X120599112Y-108946278D02*
X120556015Y-108866689D01*
X120556015Y-108866689D02*
X120290766Y-108680960D01*
X121219207Y-108836938D02*
X120731667Y-109533217D01*
X121195854Y-109858244D02*
X121328478Y-109951109D01*
X121328478Y-109951109D02*
X121418007Y-109964385D01*
X121418007Y-109964385D02*
X121530751Y-109944505D01*
X121530751Y-109944505D02*
X121656772Y-109835097D01*
X121656772Y-109835097D02*
X121819286Y-109603004D01*
X121819286Y-109603004D02*
X121878994Y-109447163D01*
X121878994Y-109447163D02*
X121859114Y-109334418D01*
X121859114Y-109334418D02*
X121816018Y-109254830D01*
X121816018Y-109254830D02*
X121683394Y-109161965D01*
X121683394Y-109161965D02*
X121593865Y-109148689D01*
X121593865Y-109148689D02*
X121481120Y-109168569D01*
X121481120Y-109168569D02*
X121355099Y-109277977D01*
X121355099Y-109277977D02*
X121192586Y-109510070D01*
X121192586Y-109510070D02*
X121132878Y-109665911D01*
X121132878Y-109665911D02*
X121152757Y-109778656D01*
X121152757Y-109778656D02*
X121195854Y-109858244D01*
X121925289Y-110369000D02*
X121991601Y-110415433D01*
X121991601Y-110415433D02*
X122081130Y-110428709D01*
X122081130Y-110428709D02*
X122137502Y-110418769D01*
X122137502Y-110418769D02*
X122217090Y-110375673D01*
X122217090Y-110375673D02*
X122343111Y-110266264D01*
X122343111Y-110266264D02*
X122459192Y-110100484D01*
X122459192Y-110100484D02*
X122518901Y-109944643D01*
X122518901Y-109944643D02*
X122532177Y-109855114D01*
X122532177Y-109855114D02*
X122522237Y-109798742D01*
X122522237Y-109798742D02*
X122479141Y-109719153D01*
X122479141Y-109719153D02*
X122412829Y-109672721D01*
X122412829Y-109672721D02*
X122323300Y-109659445D01*
X122323300Y-109659445D02*
X122266928Y-109669385D01*
X122266928Y-109669385D02*
X122187339Y-109712481D01*
X122187339Y-109712481D02*
X122061318Y-109821889D01*
X122061318Y-109821889D02*
X121945238Y-109987670D01*
X121945238Y-109987670D02*
X121885529Y-110143511D01*
X121885529Y-110143511D02*
X121872253Y-110233039D01*
X121872253Y-110233039D02*
X121882193Y-110289412D01*
X121882193Y-110289412D02*
X121925289Y-110369000D01*
X132503364Y-108439089D02*
X132626048Y-108475582D01*
X132626048Y-108475582D02*
X132682421Y-108465642D01*
X132682421Y-108465642D02*
X132762009Y-108422546D01*
X132762009Y-108422546D02*
X132831658Y-108323077D01*
X132831658Y-108323077D02*
X132844934Y-108233549D01*
X132844934Y-108233549D02*
X132834994Y-108177176D01*
X132834994Y-108177176D02*
X132791898Y-108097588D01*
X132791898Y-108097588D02*
X132526649Y-107911858D01*
X132526649Y-107911858D02*
X132039109Y-108608138D01*
X132039109Y-108608138D02*
X132271202Y-108770651D01*
X132271202Y-108770651D02*
X132360730Y-108783927D01*
X132360730Y-108783927D02*
X132417103Y-108773987D01*
X132417103Y-108773987D02*
X132496691Y-108730891D01*
X132496691Y-108730891D02*
X132543124Y-108664579D01*
X132543124Y-108664579D02*
X132556400Y-108575050D01*
X132556400Y-108575050D02*
X132546460Y-108518678D01*
X132546460Y-108518678D02*
X132503364Y-108439089D01*
X132503364Y-108439089D02*
X132271271Y-108276576D01*
X133222928Y-108399398D02*
X132735388Y-109095678D01*
X132735388Y-109095678D02*
X133000637Y-109281407D01*
X133000637Y-109281407D02*
X133090166Y-109294683D01*
X133090166Y-109294683D02*
X133146538Y-109284743D01*
X133146538Y-109284743D02*
X133226127Y-109241647D01*
X133226127Y-109241647D02*
X133295775Y-109142179D01*
X133295775Y-109142179D02*
X133309051Y-109052650D01*
X133309051Y-109052650D02*
X133299112Y-108996278D01*
X133299112Y-108996278D02*
X133256015Y-108916689D01*
X133256015Y-108916689D02*
X132990766Y-108730960D01*
X133919207Y-108886938D02*
X133431667Y-109583217D01*
X133895854Y-109908244D02*
X134028478Y-110001109D01*
X134028478Y-110001109D02*
X134118007Y-110014385D01*
X134118007Y-110014385D02*
X134230751Y-109994505D01*
X134230751Y-109994505D02*
X134356772Y-109885097D01*
X134356772Y-109885097D02*
X134519286Y-109653004D01*
X134519286Y-109653004D02*
X134578994Y-109497163D01*
X134578994Y-109497163D02*
X134559114Y-109384418D01*
X134559114Y-109384418D02*
X134516018Y-109304830D01*
X134516018Y-109304830D02*
X134383394Y-109211965D01*
X134383394Y-109211965D02*
X134293865Y-109198689D01*
X134293865Y-109198689D02*
X134181120Y-109218569D01*
X134181120Y-109218569D02*
X134055099Y-109327977D01*
X134055099Y-109327977D02*
X133892586Y-109560070D01*
X133892586Y-109560070D02*
X133832878Y-109715911D01*
X133832878Y-109715911D02*
X133852757Y-109828656D01*
X133852757Y-109828656D02*
X133895854Y-109908244D01*
X134824226Y-110558297D02*
X134492664Y-110326135D01*
X134492664Y-110326135D02*
X134691670Y-109971358D01*
X134691670Y-109971358D02*
X134701610Y-110027730D01*
X134701610Y-110027730D02*
X134744706Y-110107319D01*
X134744706Y-110107319D02*
X134910487Y-110223400D01*
X134910487Y-110223400D02*
X135000015Y-110236676D01*
X135000015Y-110236676D02*
X135056388Y-110226736D01*
X135056388Y-110226736D02*
X135135976Y-110183640D01*
X135135976Y-110183640D02*
X135252057Y-110017859D01*
X135252057Y-110017859D02*
X135265333Y-109928330D01*
X135265333Y-109928330D02*
X135255393Y-109871958D01*
X135255393Y-109871958D02*
X135212297Y-109792370D01*
X135212297Y-109792370D02*
X135046516Y-109676289D01*
X135046516Y-109676289D02*
X134956988Y-109663012D01*
X134956988Y-109663012D02*
X134900616Y-109672952D01*
D11*
X140387512Y-109274828D02*
X140282184Y-109259209D01*
X140282184Y-109259209D02*
X140165162Y-109177269D01*
X140165162Y-109177269D02*
X140075454Y-109056322D01*
X140075454Y-109056322D02*
X140052066Y-108923682D01*
X140052066Y-108923682D02*
X140067685Y-108818354D01*
X140067685Y-108818354D02*
X140137930Y-108635012D01*
X140137930Y-108635012D02*
X140219870Y-108517990D01*
X140219870Y-108517990D02*
X140368130Y-108389274D01*
X140368130Y-108389274D02*
X140461763Y-108338573D01*
X140461763Y-108338573D02*
X140594404Y-108315185D01*
X140594404Y-108315185D02*
X140738739Y-108358117D01*
X140738739Y-108358117D02*
X140816753Y-108412743D01*
X140816753Y-108412743D02*
X140906462Y-108533690D01*
X140906462Y-108533690D02*
X140918156Y-108600010D01*
X140918156Y-108600010D02*
X140726964Y-108873061D01*
X140726964Y-108873061D02*
X140570935Y-108763808D01*
X141323847Y-108767814D02*
X140750271Y-109586967D01*
X140750271Y-109586967D02*
X141791934Y-109095572D01*
X141791934Y-109095572D02*
X141218358Y-109914724D01*
X142182007Y-109368704D02*
X141608430Y-110187856D01*
X141608430Y-110187856D02*
X141803466Y-110324422D01*
X141803466Y-110324422D02*
X141947801Y-110367354D01*
X141947801Y-110367354D02*
X142080442Y-110343966D01*
X142080442Y-110343966D02*
X142174076Y-110293265D01*
X142174076Y-110293265D02*
X142322336Y-110164549D01*
X142322336Y-110164549D02*
X142404275Y-110047527D01*
X142404275Y-110047527D02*
X142474520Y-109864185D01*
X142474520Y-109864185D02*
X142490140Y-109758857D01*
X142490140Y-109758857D02*
X142466751Y-109626217D01*
X142466751Y-109626217D02*
X142377043Y-109505270D01*
X142377043Y-109505270D02*
X142182007Y-109368704D01*
X112811428Y-114865273D02*
X113228094Y-114270035D01*
X113525713Y-114865273D02*
X113525713Y-113615273D01*
X113525713Y-113615273D02*
X113049523Y-113615273D01*
X113049523Y-113615273D02*
X112930475Y-113674797D01*
X112930475Y-113674797D02*
X112870952Y-113734321D01*
X112870952Y-113734321D02*
X112811428Y-113853369D01*
X112811428Y-113853369D02*
X112811428Y-114031940D01*
X112811428Y-114031940D02*
X112870952Y-114150988D01*
X112870952Y-114150988D02*
X112930475Y-114210511D01*
X112930475Y-114210511D02*
X113049523Y-114270035D01*
X113049523Y-114270035D02*
X113525713Y-114270035D01*
X112275713Y-114210511D02*
X111859047Y-114210511D01*
X111680475Y-114865273D02*
X112275713Y-114865273D01*
X112275713Y-114865273D02*
X112275713Y-113615273D01*
X112275713Y-113615273D02*
X111680475Y-113615273D01*
X111323333Y-113615273D02*
X110906666Y-114865273D01*
X110906666Y-114865273D02*
X110490000Y-113615273D01*
X108882856Y-113615273D02*
X108763809Y-113615273D01*
X108763809Y-113615273D02*
X108644761Y-113674797D01*
X108644761Y-113674797D02*
X108585237Y-113734321D01*
X108585237Y-113734321D02*
X108525713Y-113853369D01*
X108525713Y-113853369D02*
X108466190Y-114091464D01*
X108466190Y-114091464D02*
X108466190Y-114389083D01*
X108466190Y-114389083D02*
X108525713Y-114627178D01*
X108525713Y-114627178D02*
X108585237Y-114746226D01*
X108585237Y-114746226D02*
X108644761Y-114805750D01*
X108644761Y-114805750D02*
X108763809Y-114865273D01*
X108763809Y-114865273D02*
X108882856Y-114865273D01*
X108882856Y-114865273D02*
X109001904Y-114805750D01*
X109001904Y-114805750D02*
X109061428Y-114746226D01*
X109061428Y-114746226D02*
X109120951Y-114627178D01*
X109120951Y-114627178D02*
X109180475Y-114389083D01*
X109180475Y-114389083D02*
X109180475Y-114091464D01*
X109180475Y-114091464D02*
X109120951Y-113853369D01*
X109120951Y-113853369D02*
X109061428Y-113734321D01*
X109061428Y-113734321D02*
X109001904Y-113674797D01*
X109001904Y-113674797D02*
X108882856Y-113615273D01*
X107989999Y-114508130D02*
X107394761Y-114508130D01*
X108109047Y-114865273D02*
X107692380Y-113615273D01*
X107692380Y-113615273D02*
X107275714Y-114865273D01*
D10*
X129953364Y-108439089D02*
X130076048Y-108475582D01*
X130076048Y-108475582D02*
X130132421Y-108465642D01*
X130132421Y-108465642D02*
X130212009Y-108422546D01*
X130212009Y-108422546D02*
X130281658Y-108323077D01*
X130281658Y-108323077D02*
X130294934Y-108233549D01*
X130294934Y-108233549D02*
X130284994Y-108177176D01*
X130284994Y-108177176D02*
X130241898Y-108097588D01*
X130241898Y-108097588D02*
X129976649Y-107911858D01*
X129976649Y-107911858D02*
X129489109Y-108608138D01*
X129489109Y-108608138D02*
X129721202Y-108770651D01*
X129721202Y-108770651D02*
X129810730Y-108783927D01*
X129810730Y-108783927D02*
X129867103Y-108773987D01*
X129867103Y-108773987D02*
X129946691Y-108730891D01*
X129946691Y-108730891D02*
X129993124Y-108664579D01*
X129993124Y-108664579D02*
X130006400Y-108575050D01*
X130006400Y-108575050D02*
X129996460Y-108518678D01*
X129996460Y-108518678D02*
X129953364Y-108439089D01*
X129953364Y-108439089D02*
X129721271Y-108276576D01*
X130672928Y-108399398D02*
X130185388Y-109095678D01*
X130185388Y-109095678D02*
X130450637Y-109281407D01*
X130450637Y-109281407D02*
X130540166Y-109294683D01*
X130540166Y-109294683D02*
X130596538Y-109284743D01*
X130596538Y-109284743D02*
X130676127Y-109241647D01*
X130676127Y-109241647D02*
X130745775Y-109142179D01*
X130745775Y-109142179D02*
X130759051Y-109052650D01*
X130759051Y-109052650D02*
X130749112Y-108996278D01*
X130749112Y-108996278D02*
X130706015Y-108916689D01*
X130706015Y-108916689D02*
X130440766Y-108730960D01*
X131369207Y-108886938D02*
X130881667Y-109583217D01*
X131345854Y-109908244D02*
X131478478Y-110001109D01*
X131478478Y-110001109D02*
X131568007Y-110014385D01*
X131568007Y-110014385D02*
X131680751Y-109994505D01*
X131680751Y-109994505D02*
X131806772Y-109885097D01*
X131806772Y-109885097D02*
X131969286Y-109653004D01*
X131969286Y-109653004D02*
X132028994Y-109497163D01*
X132028994Y-109497163D02*
X132009114Y-109384418D01*
X132009114Y-109384418D02*
X131966018Y-109304830D01*
X131966018Y-109304830D02*
X131833394Y-109211965D01*
X131833394Y-109211965D02*
X131743865Y-109198689D01*
X131743865Y-109198689D02*
X131631120Y-109218569D01*
X131631120Y-109218569D02*
X131505099Y-109327977D01*
X131505099Y-109327977D02*
X131342586Y-109560070D01*
X131342586Y-109560070D02*
X131282878Y-109715911D01*
X131282878Y-109715911D02*
X131302757Y-109828656D01*
X131302757Y-109828656D02*
X131345854Y-109908244D01*
X132403583Y-110302988D02*
X132728610Y-109838802D01*
X132052073Y-110452156D02*
X132234535Y-109838733D01*
X132234535Y-109838733D02*
X132665565Y-110140544D01*
D11*
X113624761Y-112325273D02*
X113624761Y-111075273D01*
X113624761Y-111075273D02*
X112910476Y-112325273D01*
X112910476Y-112325273D02*
X112910476Y-111075273D01*
X112077142Y-111075273D02*
X111839047Y-111075273D01*
X111839047Y-111075273D02*
X111719999Y-111134797D01*
X111719999Y-111134797D02*
X111600952Y-111253845D01*
X111600952Y-111253845D02*
X111541428Y-111491940D01*
X111541428Y-111491940D02*
X111541428Y-111908607D01*
X111541428Y-111908607D02*
X111600952Y-112146702D01*
X111600952Y-112146702D02*
X111719999Y-112265750D01*
X111719999Y-112265750D02*
X111839047Y-112325273D01*
X111839047Y-112325273D02*
X112077142Y-112325273D01*
X112077142Y-112325273D02*
X112196190Y-112265750D01*
X112196190Y-112265750D02*
X112315237Y-112146702D01*
X112315237Y-112146702D02*
X112374761Y-111908607D01*
X112374761Y-111908607D02*
X112374761Y-111491940D01*
X112374761Y-111491940D02*
X112315237Y-111253845D01*
X112315237Y-111253845D02*
X112196190Y-111134797D01*
X112196190Y-111134797D02*
X112077142Y-111075273D01*
X111184285Y-111075273D02*
X110767618Y-112325273D01*
X110767618Y-112325273D02*
X110350952Y-111075273D01*
X109041427Y-111194321D02*
X108981903Y-111134797D01*
X108981903Y-111134797D02*
X108862856Y-111075273D01*
X108862856Y-111075273D02*
X108565237Y-111075273D01*
X108565237Y-111075273D02*
X108446189Y-111134797D01*
X108446189Y-111134797D02*
X108386665Y-111194321D01*
X108386665Y-111194321D02*
X108327142Y-111313369D01*
X108327142Y-111313369D02*
X108327142Y-111432416D01*
X108327142Y-111432416D02*
X108386665Y-111610988D01*
X108386665Y-111610988D02*
X109100951Y-112325273D01*
X109100951Y-112325273D02*
X108327142Y-112325273D01*
X107553332Y-111075273D02*
X107434285Y-111075273D01*
X107434285Y-111075273D02*
X107315237Y-111134797D01*
X107315237Y-111134797D02*
X107255713Y-111194321D01*
X107255713Y-111194321D02*
X107196189Y-111313369D01*
X107196189Y-111313369D02*
X107136666Y-111551464D01*
X107136666Y-111551464D02*
X107136666Y-111849083D01*
X107136666Y-111849083D02*
X107196189Y-112087178D01*
X107196189Y-112087178D02*
X107255713Y-112206226D01*
X107255713Y-112206226D02*
X107315237Y-112265750D01*
X107315237Y-112265750D02*
X107434285Y-112325273D01*
X107434285Y-112325273D02*
X107553332Y-112325273D01*
X107553332Y-112325273D02*
X107672380Y-112265750D01*
X107672380Y-112265750D02*
X107731904Y-112206226D01*
X107731904Y-112206226D02*
X107791427Y-112087178D01*
X107791427Y-112087178D02*
X107850951Y-111849083D01*
X107850951Y-111849083D02*
X107850951Y-111551464D01*
X107850951Y-111551464D02*
X107791427Y-111313369D01*
X107791427Y-111313369D02*
X107731904Y-111194321D01*
X107731904Y-111194321D02*
X107672380Y-111134797D01*
X107672380Y-111134797D02*
X107553332Y-111075273D01*
X106660475Y-111194321D02*
X106600951Y-111134797D01*
X106600951Y-111134797D02*
X106481904Y-111075273D01*
X106481904Y-111075273D02*
X106184285Y-111075273D01*
X106184285Y-111075273D02*
X106065237Y-111134797D01*
X106065237Y-111134797D02*
X106005713Y-111194321D01*
X106005713Y-111194321D02*
X105946190Y-111313369D01*
X105946190Y-111313369D02*
X105946190Y-111432416D01*
X105946190Y-111432416D02*
X106005713Y-111610988D01*
X106005713Y-111610988D02*
X106719999Y-112325273D01*
X106719999Y-112325273D02*
X105946190Y-112325273D01*
X104874761Y-111491940D02*
X104874761Y-112325273D01*
X105172380Y-111015750D02*
X105469999Y-111908607D01*
X105469999Y-111908607D02*
X104696190Y-111908607D01*
D12*
X102688784Y-93250000D02*
X100938784Y-93250000D01*
X100938784Y-93250000D02*
X100938784Y-93935714D01*
X100938784Y-93935714D02*
X101022117Y-94107143D01*
X101022117Y-94107143D02*
X101105451Y-94192857D01*
X101105451Y-94192857D02*
X101272117Y-94278571D01*
X101272117Y-94278571D02*
X101522117Y-94278571D01*
X101522117Y-94278571D02*
X101688784Y-94192857D01*
X101688784Y-94192857D02*
X101772117Y-94107143D01*
X101772117Y-94107143D02*
X101855451Y-93935714D01*
X101855451Y-93935714D02*
X101855451Y-93250000D01*
X102688784Y-95050000D02*
X101522117Y-95050000D01*
X100938784Y-95050000D02*
X101022117Y-94964286D01*
X101022117Y-94964286D02*
X101105451Y-95050000D01*
X101105451Y-95050000D02*
X101022117Y-95135714D01*
X101022117Y-95135714D02*
X100938784Y-95050000D01*
X100938784Y-95050000D02*
X101105451Y-95050000D01*
X102688784Y-95907143D02*
X101522117Y-95907143D01*
X101855451Y-95907143D02*
X101688784Y-95992857D01*
X101688784Y-95992857D02*
X101605451Y-96078572D01*
X101605451Y-96078572D02*
X101522117Y-96250000D01*
X101522117Y-96250000D02*
X101522117Y-96421429D01*
X102688784Y-97792858D02*
X101772117Y-97792858D01*
X101772117Y-97792858D02*
X101605451Y-97707143D01*
X101605451Y-97707143D02*
X101522117Y-97535715D01*
X101522117Y-97535715D02*
X101522117Y-97192858D01*
X101522117Y-97192858D02*
X101605451Y-97021429D01*
X102605451Y-97792858D02*
X102688784Y-97621429D01*
X102688784Y-97621429D02*
X102688784Y-97192858D01*
X102688784Y-97192858D02*
X102605451Y-97021429D01*
X102605451Y-97021429D02*
X102438784Y-96935715D01*
X102438784Y-96935715D02*
X102272117Y-96935715D01*
X102272117Y-96935715D02*
X102105451Y-97021429D01*
X102105451Y-97021429D02*
X102022117Y-97192858D01*
X102022117Y-97192858D02*
X102022117Y-97621429D01*
X102022117Y-97621429D02*
X101938784Y-97792858D01*
X101522117Y-98392857D02*
X101522117Y-99078571D01*
X100938784Y-98650000D02*
X102438784Y-98650000D01*
X102438784Y-98650000D02*
X102605451Y-98735714D01*
X102605451Y-98735714D02*
X102688784Y-98907143D01*
X102688784Y-98907143D02*
X102688784Y-99078571D01*
X102605451Y-100364285D02*
X102688784Y-100192857D01*
X102688784Y-100192857D02*
X102688784Y-99850000D01*
X102688784Y-99850000D02*
X102605451Y-99678571D01*
X102605451Y-99678571D02*
X102438784Y-99592857D01*
X102438784Y-99592857D02*
X101772117Y-99592857D01*
X101772117Y-99592857D02*
X101605451Y-99678571D01*
X101605451Y-99678571D02*
X101522117Y-99850000D01*
X101522117Y-99850000D02*
X101522117Y-100192857D01*
X101522117Y-100192857D02*
X101605451Y-100364285D01*
X101605451Y-100364285D02*
X101772117Y-100450000D01*
X101772117Y-100450000D02*
X101938784Y-100450000D01*
X101938784Y-100450000D02*
X102105451Y-99592857D01*
X100938784Y-102421428D02*
X100938784Y-103621428D01*
X100938784Y-103621428D02*
X102688784Y-102850000D01*
D13*
X101723417Y-80228571D02*
X101806751Y-80514285D01*
X101806751Y-80514285D02*
X101890084Y-80609523D01*
X101890084Y-80609523D02*
X102056751Y-80704761D01*
X102056751Y-80704761D02*
X102306751Y-80704761D01*
X102306751Y-80704761D02*
X102473417Y-80609523D01*
X102473417Y-80609523D02*
X102556751Y-80514285D01*
X102556751Y-80514285D02*
X102640084Y-80323809D01*
X102640084Y-80323809D02*
X102640084Y-79561904D01*
X102640084Y-79561904D02*
X100890084Y-79561904D01*
X100890084Y-79561904D02*
X100890084Y-80228571D01*
X100890084Y-80228571D02*
X100973417Y-80419047D01*
X100973417Y-80419047D02*
X101056751Y-80514285D01*
X101056751Y-80514285D02*
X101223417Y-80609523D01*
X101223417Y-80609523D02*
X101390084Y-80609523D01*
X101390084Y-80609523D02*
X101556751Y-80514285D01*
X101556751Y-80514285D02*
X101640084Y-80419047D01*
X101640084Y-80419047D02*
X101723417Y-80228571D01*
X101723417Y-80228571D02*
X101723417Y-79561904D01*
X101473417Y-82419047D02*
X102640084Y-82419047D01*
X101473417Y-81561904D02*
X102390084Y-81561904D01*
X102390084Y-81561904D02*
X102556751Y-81657142D01*
X102556751Y-81657142D02*
X102640084Y-81847618D01*
X102640084Y-81847618D02*
X102640084Y-82133333D01*
X102640084Y-82133333D02*
X102556751Y-82323809D01*
X102556751Y-82323809D02*
X102473417Y-82419047D01*
X102556751Y-83276190D02*
X102640084Y-83466666D01*
X102640084Y-83466666D02*
X102640084Y-83847618D01*
X102640084Y-83847618D02*
X102556751Y-84038095D01*
X102556751Y-84038095D02*
X102390084Y-84133333D01*
X102390084Y-84133333D02*
X102306751Y-84133333D01*
X102306751Y-84133333D02*
X102140084Y-84038095D01*
X102140084Y-84038095D02*
X102056751Y-83847618D01*
X102056751Y-83847618D02*
X102056751Y-83561904D01*
X102056751Y-83561904D02*
X101973417Y-83371428D01*
X101973417Y-83371428D02*
X101806751Y-83276190D01*
X101806751Y-83276190D02*
X101723417Y-83276190D01*
X101723417Y-83276190D02*
X101556751Y-83371428D01*
X101556751Y-83371428D02*
X101473417Y-83561904D01*
X101473417Y-83561904D02*
X101473417Y-83847618D01*
X101473417Y-83847618D02*
X101556751Y-84038095D01*
D14*
X139163220Y-115693819D02*
X139163220Y-114693819D01*
X138734649Y-115693819D02*
X138734649Y-115170009D01*
X138734649Y-115170009D02*
X138782268Y-115074771D01*
X138782268Y-115074771D02*
X138877506Y-115027152D01*
X138877506Y-115027152D02*
X139020363Y-115027152D01*
X139020363Y-115027152D02*
X139115601Y-115074771D01*
X139115601Y-115074771D02*
X139163220Y-115122390D01*
X138401315Y-115027152D02*
X138020363Y-115027152D01*
X138258458Y-114693819D02*
X138258458Y-115550961D01*
X138258458Y-115550961D02*
X138210839Y-115646200D01*
X138210839Y-115646200D02*
X138115601Y-115693819D01*
X138115601Y-115693819D02*
X138020363Y-115693819D01*
X137829886Y-115027152D02*
X137448934Y-115027152D01*
X137687029Y-114693819D02*
X137687029Y-115550961D01*
X137687029Y-115550961D02*
X137639410Y-115646200D01*
X137639410Y-115646200D02*
X137544172Y-115693819D01*
X137544172Y-115693819D02*
X137448934Y-115693819D01*
X137115600Y-115027152D02*
X137115600Y-116027152D01*
X137115600Y-115074771D02*
X137020362Y-115027152D01*
X137020362Y-115027152D02*
X136829886Y-115027152D01*
X136829886Y-115027152D02*
X136734648Y-115074771D01*
X136734648Y-115074771D02*
X136687029Y-115122390D01*
X136687029Y-115122390D02*
X136639410Y-115217628D01*
X136639410Y-115217628D02*
X136639410Y-115503342D01*
X136639410Y-115503342D02*
X136687029Y-115598580D01*
X136687029Y-115598580D02*
X136734648Y-115646200D01*
X136734648Y-115646200D02*
X136829886Y-115693819D01*
X136829886Y-115693819D02*
X137020362Y-115693819D01*
X137020362Y-115693819D02*
X137115600Y-115646200D01*
X136210838Y-115598580D02*
X136163219Y-115646200D01*
X136163219Y-115646200D02*
X136210838Y-115693819D01*
X136210838Y-115693819D02*
X136258457Y-115646200D01*
X136258457Y-115646200D02*
X136210838Y-115598580D01*
X136210838Y-115598580D02*
X136210838Y-115693819D01*
X136210838Y-115074771D02*
X136163219Y-115122390D01*
X136163219Y-115122390D02*
X136210838Y-115170009D01*
X136210838Y-115170009D02*
X136258457Y-115122390D01*
X136258457Y-115122390D02*
X136210838Y-115074771D01*
X136210838Y-115074771D02*
X136210838Y-115170009D01*
X135020363Y-114646200D02*
X135877505Y-115931914D01*
X133972744Y-114646200D02*
X134829886Y-115931914D01*
X133639410Y-115693819D02*
X133639410Y-114693819D01*
X133639410Y-115074771D02*
X133544172Y-115027152D01*
X133544172Y-115027152D02*
X133353696Y-115027152D01*
X133353696Y-115027152D02*
X133258458Y-115074771D01*
X133258458Y-115074771D02*
X133210839Y-115122390D01*
X133210839Y-115122390D02*
X133163220Y-115217628D01*
X133163220Y-115217628D02*
X133163220Y-115503342D01*
X133163220Y-115503342D02*
X133210839Y-115598580D01*
X133210839Y-115598580D02*
X133258458Y-115646200D01*
X133258458Y-115646200D02*
X133353696Y-115693819D01*
X133353696Y-115693819D02*
X133544172Y-115693819D01*
X133544172Y-115693819D02*
X133639410Y-115646200D01*
X132306077Y-115027152D02*
X132306077Y-115693819D01*
X132734648Y-115027152D02*
X132734648Y-115550961D01*
X132734648Y-115550961D02*
X132687029Y-115646200D01*
X132687029Y-115646200D02*
X132591791Y-115693819D01*
X132591791Y-115693819D02*
X132448934Y-115693819D01*
X132448934Y-115693819D02*
X132353696Y-115646200D01*
X132353696Y-115646200D02*
X132306077Y-115598580D01*
X131877505Y-115646200D02*
X131782267Y-115693819D01*
X131782267Y-115693819D02*
X131591791Y-115693819D01*
X131591791Y-115693819D02*
X131496553Y-115646200D01*
X131496553Y-115646200D02*
X131448934Y-115550961D01*
X131448934Y-115550961D02*
X131448934Y-115503342D01*
X131448934Y-115503342D02*
X131496553Y-115408104D01*
X131496553Y-115408104D02*
X131591791Y-115360485D01*
X131591791Y-115360485D02*
X131734648Y-115360485D01*
X131734648Y-115360485D02*
X131829886Y-115312866D01*
X131829886Y-115312866D02*
X131877505Y-115217628D01*
X131877505Y-115217628D02*
X131877505Y-115170009D01*
X131877505Y-115170009D02*
X131829886Y-115074771D01*
X131829886Y-115074771D02*
X131734648Y-115027152D01*
X131734648Y-115027152D02*
X131591791Y-115027152D01*
X131591791Y-115027152D02*
X131496553Y-115074771D01*
X131020362Y-115027152D02*
X131020362Y-116027152D01*
X131020362Y-115074771D02*
X130925124Y-115027152D01*
X130925124Y-115027152D02*
X130734648Y-115027152D01*
X130734648Y-115027152D02*
X130639410Y-115074771D01*
X130639410Y-115074771D02*
X130591791Y-115122390D01*
X130591791Y-115122390D02*
X130544172Y-115217628D01*
X130544172Y-115217628D02*
X130544172Y-115503342D01*
X130544172Y-115503342D02*
X130591791Y-115598580D01*
X130591791Y-115598580D02*
X130639410Y-115646200D01*
X130639410Y-115646200D02*
X130734648Y-115693819D01*
X130734648Y-115693819D02*
X130925124Y-115693819D01*
X130925124Y-115693819D02*
X131020362Y-115646200D01*
X130115600Y-115693819D02*
X130115600Y-115027152D01*
X130115600Y-114693819D02*
X130163219Y-114741438D01*
X130163219Y-114741438D02*
X130115600Y-114789057D01*
X130115600Y-114789057D02*
X130067981Y-114741438D01*
X130067981Y-114741438D02*
X130115600Y-114693819D01*
X130115600Y-114693819D02*
X130115600Y-114789057D01*
X129639410Y-115693819D02*
X129639410Y-115027152D01*
X129639410Y-115217628D02*
X129591791Y-115122390D01*
X129591791Y-115122390D02*
X129544172Y-115074771D01*
X129544172Y-115074771D02*
X129448934Y-115027152D01*
X129448934Y-115027152D02*
X129353696Y-115027152D01*
X128591791Y-115693819D02*
X128591791Y-115170009D01*
X128591791Y-115170009D02*
X128639410Y-115074771D01*
X128639410Y-115074771D02*
X128734648Y-115027152D01*
X128734648Y-115027152D02*
X128925124Y-115027152D01*
X128925124Y-115027152D02*
X129020362Y-115074771D01*
X128591791Y-115646200D02*
X128687029Y-115693819D01*
X128687029Y-115693819D02*
X128925124Y-115693819D01*
X128925124Y-115693819D02*
X129020362Y-115646200D01*
X129020362Y-115646200D02*
X129067981Y-115550961D01*
X129067981Y-115550961D02*
X129067981Y-115455723D01*
X129067981Y-115455723D02*
X129020362Y-115360485D01*
X129020362Y-115360485D02*
X128925124Y-115312866D01*
X128925124Y-115312866D02*
X128687029Y-115312866D01*
X128687029Y-115312866D02*
X128591791Y-115265247D01*
X128258457Y-115027152D02*
X127877505Y-115027152D01*
X128115600Y-114693819D02*
X128115600Y-115550961D01*
X128115600Y-115550961D02*
X128067981Y-115646200D01*
X128067981Y-115646200D02*
X127972743Y-115693819D01*
X127972743Y-115693819D02*
X127877505Y-115693819D01*
X127163219Y-115646200D02*
X127258457Y-115693819D01*
X127258457Y-115693819D02*
X127448933Y-115693819D01*
X127448933Y-115693819D02*
X127544171Y-115646200D01*
X127544171Y-115646200D02*
X127591790Y-115550961D01*
X127591790Y-115550961D02*
X127591790Y-115170009D01*
X127591790Y-115170009D02*
X127544171Y-115074771D01*
X127544171Y-115074771D02*
X127448933Y-115027152D01*
X127448933Y-115027152D02*
X127258457Y-115027152D01*
X127258457Y-115027152D02*
X127163219Y-115074771D01*
X127163219Y-115074771D02*
X127115600Y-115170009D01*
X127115600Y-115170009D02*
X127115600Y-115265247D01*
X127115600Y-115265247D02*
X127591790Y-115360485D01*
X126687028Y-115598580D02*
X126639409Y-115646200D01*
X126639409Y-115646200D02*
X126687028Y-115693819D01*
X126687028Y-115693819D02*
X126734647Y-115646200D01*
X126734647Y-115646200D02*
X126687028Y-115598580D01*
X126687028Y-115598580D02*
X126687028Y-115693819D01*
X125782267Y-115646200D02*
X125877505Y-115693819D01*
X125877505Y-115693819D02*
X126067981Y-115693819D01*
X126067981Y-115693819D02*
X126163219Y-115646200D01*
X126163219Y-115646200D02*
X126210838Y-115598580D01*
X126210838Y-115598580D02*
X126258457Y-115503342D01*
X126258457Y-115503342D02*
X126258457Y-115217628D01*
X126258457Y-115217628D02*
X126210838Y-115122390D01*
X126210838Y-115122390D02*
X126163219Y-115074771D01*
X126163219Y-115074771D02*
X126067981Y-115027152D01*
X126067981Y-115027152D02*
X125877505Y-115027152D01*
X125877505Y-115027152D02*
X125782267Y-115074771D01*
X125210838Y-115693819D02*
X125306076Y-115646200D01*
X125306076Y-115646200D02*
X125353695Y-115598580D01*
X125353695Y-115598580D02*
X125401314Y-115503342D01*
X125401314Y-115503342D02*
X125401314Y-115217628D01*
X125401314Y-115217628D02*
X125353695Y-115122390D01*
X125353695Y-115122390D02*
X125306076Y-115074771D01*
X125306076Y-115074771D02*
X125210838Y-115027152D01*
X125210838Y-115027152D02*
X125067981Y-115027152D01*
X125067981Y-115027152D02*
X124972743Y-115074771D01*
X124972743Y-115074771D02*
X124925124Y-115122390D01*
X124925124Y-115122390D02*
X124877505Y-115217628D01*
X124877505Y-115217628D02*
X124877505Y-115503342D01*
X124877505Y-115503342D02*
X124925124Y-115598580D01*
X124925124Y-115598580D02*
X124972743Y-115646200D01*
X124972743Y-115646200D02*
X125067981Y-115693819D01*
X125067981Y-115693819D02*
X125210838Y-115693819D01*
X124448933Y-115693819D02*
X124448933Y-115027152D01*
X124448933Y-115122390D02*
X124401314Y-115074771D01*
X124401314Y-115074771D02*
X124306076Y-115027152D01*
X124306076Y-115027152D02*
X124163219Y-115027152D01*
X124163219Y-115027152D02*
X124067981Y-115074771D01*
X124067981Y-115074771D02*
X124020362Y-115170009D01*
X124020362Y-115170009D02*
X124020362Y-115693819D01*
X124020362Y-115170009D02*
X123972743Y-115074771D01*
X123972743Y-115074771D02*
X123877505Y-115027152D01*
X123877505Y-115027152D02*
X123734648Y-115027152D01*
X123734648Y-115027152D02*
X123639409Y-115074771D01*
X123639409Y-115074771D02*
X123591790Y-115170009D01*
X123591790Y-115170009D02*
X123591790Y-115693819D01*
X139163220Y-119369819D02*
X139163220Y-118369819D01*
X138734649Y-119369819D02*
X138734649Y-118846009D01*
X138734649Y-118846009D02*
X138782268Y-118750771D01*
X138782268Y-118750771D02*
X138877506Y-118703152D01*
X138877506Y-118703152D02*
X139020363Y-118703152D01*
X139020363Y-118703152D02*
X139115601Y-118750771D01*
X139115601Y-118750771D02*
X139163220Y-118798390D01*
X138401315Y-118703152D02*
X138020363Y-118703152D01*
X138258458Y-118369819D02*
X138258458Y-119226961D01*
X138258458Y-119226961D02*
X138210839Y-119322200D01*
X138210839Y-119322200D02*
X138115601Y-119369819D01*
X138115601Y-119369819D02*
X138020363Y-119369819D01*
X137829886Y-118703152D02*
X137448934Y-118703152D01*
X137687029Y-118369819D02*
X137687029Y-119226961D01*
X137687029Y-119226961D02*
X137639410Y-119322200D01*
X137639410Y-119322200D02*
X137544172Y-119369819D01*
X137544172Y-119369819D02*
X137448934Y-119369819D01*
X137115600Y-118703152D02*
X137115600Y-119703152D01*
X137115600Y-118750771D02*
X137020362Y-118703152D01*
X137020362Y-118703152D02*
X136829886Y-118703152D01*
X136829886Y-118703152D02*
X136734648Y-118750771D01*
X136734648Y-118750771D02*
X136687029Y-118798390D01*
X136687029Y-118798390D02*
X136639410Y-118893628D01*
X136639410Y-118893628D02*
X136639410Y-119179342D01*
X136639410Y-119179342D02*
X136687029Y-119274580D01*
X136687029Y-119274580D02*
X136734648Y-119322200D01*
X136734648Y-119322200D02*
X136829886Y-119369819D01*
X136829886Y-119369819D02*
X137020362Y-119369819D01*
X137020362Y-119369819D02*
X137115600Y-119322200D01*
X136210838Y-119274580D02*
X136163219Y-119322200D01*
X136163219Y-119322200D02*
X136210838Y-119369819D01*
X136210838Y-119369819D02*
X136258457Y-119322200D01*
X136258457Y-119322200D02*
X136210838Y-119274580D01*
X136210838Y-119274580D02*
X136210838Y-119369819D01*
X136210838Y-118750771D02*
X136163219Y-118798390D01*
X136163219Y-118798390D02*
X136210838Y-118846009D01*
X136210838Y-118846009D02*
X136258457Y-118798390D01*
X136258457Y-118798390D02*
X136210838Y-118750771D01*
X136210838Y-118750771D02*
X136210838Y-118846009D01*
X135020363Y-118322200D02*
X135877505Y-119607914D01*
X133972744Y-118322200D02*
X134829886Y-119607914D01*
X133782267Y-118703152D02*
X133401315Y-118703152D01*
X133639410Y-119369819D02*
X133639410Y-118512676D01*
X133639410Y-118512676D02*
X133591791Y-118417438D01*
X133591791Y-118417438D02*
X133496553Y-118369819D01*
X133496553Y-118369819D02*
X133401315Y-118369819D01*
X132925124Y-119369819D02*
X133020362Y-119322200D01*
X133020362Y-119322200D02*
X133067981Y-119226961D01*
X133067981Y-119226961D02*
X133067981Y-118369819D01*
X132639409Y-118703152D02*
X132401314Y-119369819D01*
X132163219Y-118703152D02*
X132401314Y-119369819D01*
X132401314Y-119369819D02*
X132496552Y-119607914D01*
X132496552Y-119607914D02*
X132544171Y-119655533D01*
X132544171Y-119655533D02*
X132639409Y-119703152D01*
X131639409Y-119369819D02*
X131734647Y-119322200D01*
X131734647Y-119322200D02*
X131782266Y-119226961D01*
X131782266Y-119226961D02*
X131782266Y-118369819D01*
X131258456Y-119369819D02*
X131258456Y-118703152D01*
X131258456Y-118369819D02*
X131306075Y-118417438D01*
X131306075Y-118417438D02*
X131258456Y-118465057D01*
X131258456Y-118465057D02*
X131210837Y-118417438D01*
X131210837Y-118417438D02*
X131258456Y-118369819D01*
X131258456Y-118369819D02*
X131258456Y-118465057D01*
X130782266Y-118703152D02*
X130782266Y-119369819D01*
X130782266Y-118798390D02*
X130734647Y-118750771D01*
X130734647Y-118750771D02*
X130639409Y-118703152D01*
X130639409Y-118703152D02*
X130496552Y-118703152D01*
X130496552Y-118703152D02*
X130401314Y-118750771D01*
X130401314Y-118750771D02*
X130353695Y-118846009D01*
X130353695Y-118846009D02*
X130353695Y-119369819D01*
X129877504Y-119274580D02*
X129829885Y-119322200D01*
X129829885Y-119322200D02*
X129877504Y-119369819D01*
X129877504Y-119369819D02*
X129925123Y-119322200D01*
X129925123Y-119322200D02*
X129877504Y-119274580D01*
X129877504Y-119274580D02*
X129877504Y-119369819D01*
X128972743Y-119322200D02*
X129067981Y-119369819D01*
X129067981Y-119369819D02*
X129258457Y-119369819D01*
X129258457Y-119369819D02*
X129353695Y-119322200D01*
X129353695Y-119322200D02*
X129401314Y-119274580D01*
X129401314Y-119274580D02*
X129448933Y-119179342D01*
X129448933Y-119179342D02*
X129448933Y-118893628D01*
X129448933Y-118893628D02*
X129401314Y-118798390D01*
X129401314Y-118798390D02*
X129353695Y-118750771D01*
X129353695Y-118750771D02*
X129258457Y-118703152D01*
X129258457Y-118703152D02*
X129067981Y-118703152D01*
X129067981Y-118703152D02*
X128972743Y-118750771D01*
X128401314Y-119369819D02*
X128496552Y-119322200D01*
X128496552Y-119322200D02*
X128544171Y-119274580D01*
X128544171Y-119274580D02*
X128591790Y-119179342D01*
X128591790Y-119179342D02*
X128591790Y-118893628D01*
X128591790Y-118893628D02*
X128544171Y-118798390D01*
X128544171Y-118798390D02*
X128496552Y-118750771D01*
X128496552Y-118750771D02*
X128401314Y-118703152D01*
X128401314Y-118703152D02*
X128258457Y-118703152D01*
X128258457Y-118703152D02*
X128163219Y-118750771D01*
X128163219Y-118750771D02*
X128115600Y-118798390D01*
X128115600Y-118798390D02*
X128067981Y-118893628D01*
X128067981Y-118893628D02*
X128067981Y-119179342D01*
X128067981Y-119179342D02*
X128115600Y-119274580D01*
X128115600Y-119274580D02*
X128163219Y-119322200D01*
X128163219Y-119322200D02*
X128258457Y-119369819D01*
X128258457Y-119369819D02*
X128401314Y-119369819D01*
D12*
X154117795Y-68734438D02*
X154784462Y-67782057D01*
X155260652Y-68734438D02*
X155260652Y-66734438D01*
X155260652Y-66734438D02*
X154498747Y-66734438D01*
X154498747Y-66734438D02*
X154308271Y-66829676D01*
X154308271Y-66829676D02*
X154213033Y-66924914D01*
X154213033Y-66924914D02*
X154117795Y-67115390D01*
X154117795Y-67115390D02*
X154117795Y-67401104D01*
X154117795Y-67401104D02*
X154213033Y-67591580D01*
X154213033Y-67591580D02*
X154308271Y-67686819D01*
X154308271Y-67686819D02*
X154498747Y-67782057D01*
X154498747Y-67782057D02*
X155260652Y-67782057D01*
X152974938Y-68734438D02*
X153165414Y-68639200D01*
X153165414Y-68639200D02*
X153260652Y-68543961D01*
X153260652Y-68543961D02*
X153355890Y-68353485D01*
X153355890Y-68353485D02*
X153355890Y-67782057D01*
X153355890Y-67782057D02*
X153260652Y-67591580D01*
X153260652Y-67591580D02*
X153165414Y-67496342D01*
X153165414Y-67496342D02*
X152974938Y-67401104D01*
X152974938Y-67401104D02*
X152689223Y-67401104D01*
X152689223Y-67401104D02*
X152498747Y-67496342D01*
X152498747Y-67496342D02*
X152403509Y-67591580D01*
X152403509Y-67591580D02*
X152308271Y-67782057D01*
X152308271Y-67782057D02*
X152308271Y-68353485D01*
X152308271Y-68353485D02*
X152403509Y-68543961D01*
X152403509Y-68543961D02*
X152498747Y-68639200D01*
X152498747Y-68639200D02*
X152689223Y-68734438D01*
X152689223Y-68734438D02*
X152974938Y-68734438D01*
X151451128Y-68734438D02*
X151451128Y-66734438D01*
X151451128Y-67686819D02*
X150308271Y-67686819D01*
X150308271Y-68734438D02*
X150308271Y-66734438D01*
X149451128Y-68639200D02*
X149165414Y-68734438D01*
X149165414Y-68734438D02*
X148689223Y-68734438D01*
X148689223Y-68734438D02*
X148498747Y-68639200D01*
X148498747Y-68639200D02*
X148403509Y-68543961D01*
X148403509Y-68543961D02*
X148308271Y-68353485D01*
X148308271Y-68353485D02*
X148308271Y-68163009D01*
X148308271Y-68163009D02*
X148403509Y-67972533D01*
X148403509Y-67972533D02*
X148498747Y-67877295D01*
X148498747Y-67877295D02*
X148689223Y-67782057D01*
X148689223Y-67782057D02*
X149070176Y-67686819D01*
X149070176Y-67686819D02*
X149260652Y-67591580D01*
X149260652Y-67591580D02*
X149355890Y-67496342D01*
X149355890Y-67496342D02*
X149451128Y-67305866D01*
X149451128Y-67305866D02*
X149451128Y-67115390D01*
X149451128Y-67115390D02*
X149355890Y-66924914D01*
X149355890Y-66924914D02*
X149260652Y-66829676D01*
X149260652Y-66829676D02*
X149070176Y-66734438D01*
X149070176Y-66734438D02*
X148593985Y-66734438D01*
X148593985Y-66734438D02*
X148308271Y-66829676D01*
D14*
X139363220Y-117725819D02*
X139363220Y-116725819D01*
X138934649Y-117725819D02*
X138934649Y-117202009D01*
X138934649Y-117202009D02*
X138982268Y-117106771D01*
X138982268Y-117106771D02*
X139077506Y-117059152D01*
X139077506Y-117059152D02*
X139220363Y-117059152D01*
X139220363Y-117059152D02*
X139315601Y-117106771D01*
X139315601Y-117106771D02*
X139363220Y-117154390D01*
X138601315Y-117059152D02*
X138220363Y-117059152D01*
X138458458Y-116725819D02*
X138458458Y-117582961D01*
X138458458Y-117582961D02*
X138410839Y-117678200D01*
X138410839Y-117678200D02*
X138315601Y-117725819D01*
X138315601Y-117725819D02*
X138220363Y-117725819D01*
X138029886Y-117059152D02*
X137648934Y-117059152D01*
X137887029Y-116725819D02*
X137887029Y-117582961D01*
X137887029Y-117582961D02*
X137839410Y-117678200D01*
X137839410Y-117678200D02*
X137744172Y-117725819D01*
X137744172Y-117725819D02*
X137648934Y-117725819D01*
X137315600Y-117059152D02*
X137315600Y-118059152D01*
X137315600Y-117106771D02*
X137220362Y-117059152D01*
X137220362Y-117059152D02*
X137029886Y-117059152D01*
X137029886Y-117059152D02*
X136934648Y-117106771D01*
X136934648Y-117106771D02*
X136887029Y-117154390D01*
X136887029Y-117154390D02*
X136839410Y-117249628D01*
X136839410Y-117249628D02*
X136839410Y-117535342D01*
X136839410Y-117535342D02*
X136887029Y-117630580D01*
X136887029Y-117630580D02*
X136934648Y-117678200D01*
X136934648Y-117678200D02*
X137029886Y-117725819D01*
X137029886Y-117725819D02*
X137220362Y-117725819D01*
X137220362Y-117725819D02*
X137315600Y-117678200D01*
X136410838Y-117630580D02*
X136363219Y-117678200D01*
X136363219Y-117678200D02*
X136410838Y-117725819D01*
X136410838Y-117725819D02*
X136458457Y-117678200D01*
X136458457Y-117678200D02*
X136410838Y-117630580D01*
X136410838Y-117630580D02*
X136410838Y-117725819D01*
X136410838Y-117106771D02*
X136363219Y-117154390D01*
X136363219Y-117154390D02*
X136410838Y-117202009D01*
X136410838Y-117202009D02*
X136458457Y-117154390D01*
X136458457Y-117154390D02*
X136410838Y-117106771D01*
X136410838Y-117106771D02*
X136410838Y-117202009D01*
X135220363Y-116678200D02*
X136077505Y-117963914D01*
X134172744Y-116678200D02*
X135029886Y-117963914D01*
X133887029Y-117678200D02*
X133791791Y-117725819D01*
X133791791Y-117725819D02*
X133601315Y-117725819D01*
X133601315Y-117725819D02*
X133506077Y-117678200D01*
X133506077Y-117678200D02*
X133458458Y-117582961D01*
X133458458Y-117582961D02*
X133458458Y-117535342D01*
X133458458Y-117535342D02*
X133506077Y-117440104D01*
X133506077Y-117440104D02*
X133601315Y-117392485D01*
X133601315Y-117392485D02*
X133744172Y-117392485D01*
X133744172Y-117392485D02*
X133839410Y-117344866D01*
X133839410Y-117344866D02*
X133887029Y-117249628D01*
X133887029Y-117249628D02*
X133887029Y-117202009D01*
X133887029Y-117202009D02*
X133839410Y-117106771D01*
X133839410Y-117106771D02*
X133744172Y-117059152D01*
X133744172Y-117059152D02*
X133601315Y-117059152D01*
X133601315Y-117059152D02*
X133506077Y-117106771D01*
X133029886Y-117725819D02*
X133029886Y-117059152D01*
X133029886Y-117154390D02*
X132982267Y-117106771D01*
X132982267Y-117106771D02*
X132887029Y-117059152D01*
X132887029Y-117059152D02*
X132744172Y-117059152D01*
X132744172Y-117059152D02*
X132648934Y-117106771D01*
X132648934Y-117106771D02*
X132601315Y-117202009D01*
X132601315Y-117202009D02*
X132601315Y-117725819D01*
X132601315Y-117202009D02*
X132553696Y-117106771D01*
X132553696Y-117106771D02*
X132458458Y-117059152D01*
X132458458Y-117059152D02*
X132315601Y-117059152D01*
X132315601Y-117059152D02*
X132220362Y-117106771D01*
X132220362Y-117106771D02*
X132172743Y-117202009D01*
X132172743Y-117202009D02*
X132172743Y-117725819D01*
X131267982Y-117725819D02*
X131267982Y-116725819D01*
X131267982Y-117678200D02*
X131363220Y-117725819D01*
X131363220Y-117725819D02*
X131553696Y-117725819D01*
X131553696Y-117725819D02*
X131648934Y-117678200D01*
X131648934Y-117678200D02*
X131696553Y-117630580D01*
X131696553Y-117630580D02*
X131744172Y-117535342D01*
X131744172Y-117535342D02*
X131744172Y-117249628D01*
X131744172Y-117249628D02*
X131696553Y-117154390D01*
X131696553Y-117154390D02*
X131648934Y-117106771D01*
X131648934Y-117106771D02*
X131553696Y-117059152D01*
X131553696Y-117059152D02*
X131363220Y-117059152D01*
X131363220Y-117059152D02*
X131267982Y-117106771D01*
X130791791Y-117059152D02*
X130791791Y-118059152D01*
X130791791Y-117106771D02*
X130696553Y-117059152D01*
X130696553Y-117059152D02*
X130506077Y-117059152D01*
X130506077Y-117059152D02*
X130410839Y-117106771D01*
X130410839Y-117106771D02*
X130363220Y-117154390D01*
X130363220Y-117154390D02*
X130315601Y-117249628D01*
X130315601Y-117249628D02*
X130315601Y-117535342D01*
X130315601Y-117535342D02*
X130363220Y-117630580D01*
X130363220Y-117630580D02*
X130410839Y-117678200D01*
X130410839Y-117678200D02*
X130506077Y-117725819D01*
X130506077Y-117725819D02*
X130696553Y-117725819D01*
X130696553Y-117725819D02*
X130791791Y-117678200D01*
X129887029Y-117725819D02*
X129887029Y-117059152D01*
X129887029Y-117249628D02*
X129839410Y-117154390D01*
X129839410Y-117154390D02*
X129791791Y-117106771D01*
X129791791Y-117106771D02*
X129696553Y-117059152D01*
X129696553Y-117059152D02*
X129601315Y-117059152D01*
X128839410Y-117059152D02*
X128839410Y-117725819D01*
X129267981Y-117059152D02*
X129267981Y-117582961D01*
X129267981Y-117582961D02*
X129220362Y-117678200D01*
X129220362Y-117678200D02*
X129125124Y-117725819D01*
X129125124Y-117725819D02*
X128982267Y-117725819D01*
X128982267Y-117725819D02*
X128887029Y-117678200D01*
X128887029Y-117678200D02*
X128839410Y-117630580D01*
X128506076Y-117059152D02*
X128125124Y-117059152D01*
X128363219Y-116725819D02*
X128363219Y-117582961D01*
X128363219Y-117582961D02*
X128315600Y-117678200D01*
X128315600Y-117678200D02*
X128220362Y-117725819D01*
X128220362Y-117725819D02*
X128125124Y-117725819D01*
X127839409Y-117678200D02*
X127744171Y-117725819D01*
X127744171Y-117725819D02*
X127553695Y-117725819D01*
X127553695Y-117725819D02*
X127458457Y-117678200D01*
X127458457Y-117678200D02*
X127410838Y-117582961D01*
X127410838Y-117582961D02*
X127410838Y-117535342D01*
X127410838Y-117535342D02*
X127458457Y-117440104D01*
X127458457Y-117440104D02*
X127553695Y-117392485D01*
X127553695Y-117392485D02*
X127696552Y-117392485D01*
X127696552Y-117392485D02*
X127791790Y-117344866D01*
X127791790Y-117344866D02*
X127839409Y-117249628D01*
X127839409Y-117249628D02*
X127839409Y-117202009D01*
X127839409Y-117202009D02*
X127791790Y-117106771D01*
X127791790Y-117106771D02*
X127696552Y-117059152D01*
X127696552Y-117059152D02*
X127553695Y-117059152D01*
X127553695Y-117059152D02*
X127458457Y-117106771D01*
X126601314Y-117678200D02*
X126696552Y-117725819D01*
X126696552Y-117725819D02*
X126887028Y-117725819D01*
X126887028Y-117725819D02*
X126982266Y-117678200D01*
X126982266Y-117678200D02*
X127029885Y-117582961D01*
X127029885Y-117582961D02*
X127029885Y-117202009D01*
X127029885Y-117202009D02*
X126982266Y-117106771D01*
X126982266Y-117106771D02*
X126887028Y-117059152D01*
X126887028Y-117059152D02*
X126696552Y-117059152D01*
X126696552Y-117059152D02*
X126601314Y-117106771D01*
X126601314Y-117106771D02*
X126553695Y-117202009D01*
X126553695Y-117202009D02*
X126553695Y-117297247D01*
X126553695Y-117297247D02*
X127029885Y-117392485D01*
X126125123Y-117725819D02*
X126125123Y-117059152D01*
X126125123Y-117249628D02*
X126077504Y-117154390D01*
X126077504Y-117154390D02*
X126029885Y-117106771D01*
X126029885Y-117106771D02*
X125934647Y-117059152D01*
X125934647Y-117059152D02*
X125839409Y-117059152D01*
X125506075Y-117630580D02*
X125458456Y-117678200D01*
X125458456Y-117678200D02*
X125506075Y-117725819D01*
X125506075Y-117725819D02*
X125553694Y-117678200D01*
X125553694Y-117678200D02*
X125506075Y-117630580D01*
X125506075Y-117630580D02*
X125506075Y-117725819D01*
X124601314Y-117678200D02*
X124696552Y-117725819D01*
X124696552Y-117725819D02*
X124887028Y-117725819D01*
X124887028Y-117725819D02*
X124982266Y-117678200D01*
X124982266Y-117678200D02*
X125029885Y-117630580D01*
X125029885Y-117630580D02*
X125077504Y-117535342D01*
X125077504Y-117535342D02*
X125077504Y-117249628D01*
X125077504Y-117249628D02*
X125029885Y-117154390D01*
X125029885Y-117154390D02*
X124982266Y-117106771D01*
X124982266Y-117106771D02*
X124887028Y-117059152D01*
X124887028Y-117059152D02*
X124696552Y-117059152D01*
X124696552Y-117059152D02*
X124601314Y-117106771D01*
X124029885Y-117725819D02*
X124125123Y-117678200D01*
X124125123Y-117678200D02*
X124172742Y-117630580D01*
X124172742Y-117630580D02*
X124220361Y-117535342D01*
X124220361Y-117535342D02*
X124220361Y-117249628D01*
X124220361Y-117249628D02*
X124172742Y-117154390D01*
X124172742Y-117154390D02*
X124125123Y-117106771D01*
X124125123Y-117106771D02*
X124029885Y-117059152D01*
X124029885Y-117059152D02*
X123887028Y-117059152D01*
X123887028Y-117059152D02*
X123791790Y-117106771D01*
X123791790Y-117106771D02*
X123744171Y-117154390D01*
X123744171Y-117154390D02*
X123696552Y-117249628D01*
X123696552Y-117249628D02*
X123696552Y-117535342D01*
X123696552Y-117535342D02*
X123744171Y-117630580D01*
X123744171Y-117630580D02*
X123791790Y-117678200D01*
X123791790Y-117678200D02*
X123887028Y-117725819D01*
X123887028Y-117725819D02*
X124029885Y-117725819D01*
X123267980Y-117725819D02*
X123267980Y-117059152D01*
X123267980Y-117154390D02*
X123220361Y-117106771D01*
X123220361Y-117106771D02*
X123125123Y-117059152D01*
X123125123Y-117059152D02*
X122982266Y-117059152D01*
X122982266Y-117059152D02*
X122887028Y-117106771D01*
X122887028Y-117106771D02*
X122839409Y-117202009D01*
X122839409Y-117202009D02*
X122839409Y-117725819D01*
X122839409Y-117202009D02*
X122791790Y-117106771D01*
X122791790Y-117106771D02*
X122696552Y-117059152D01*
X122696552Y-117059152D02*
X122553695Y-117059152D01*
X122553695Y-117059152D02*
X122458456Y-117106771D01*
X122458456Y-117106771D02*
X122410837Y-117202009D01*
X122410837Y-117202009D02*
X122410837Y-117725819D01*
X115566033Y-111319999D02*
X116066033Y-111319999D01*
X116066033Y-111319999D02*
X116166033Y-111286666D01*
X116166033Y-111286666D02*
X116232700Y-111219999D01*
X116232700Y-111219999D02*
X116266033Y-111119999D01*
X116266033Y-111119999D02*
X116266033Y-111053333D01*
X115566033Y-111586666D02*
X115566033Y-112019999D01*
X115566033Y-112019999D02*
X115832700Y-111786666D01*
X115832700Y-111786666D02*
X115832700Y-111886666D01*
X115832700Y-111886666D02*
X115866033Y-111953332D01*
X115866033Y-111953332D02*
X115899366Y-111986666D01*
X115899366Y-111986666D02*
X115966033Y-112019999D01*
X115966033Y-112019999D02*
X116132700Y-112019999D01*
X116132700Y-112019999D02*
X116199366Y-111986666D01*
X116199366Y-111986666D02*
X116232700Y-111953332D01*
X116232700Y-111953332D02*
X116266033Y-111886666D01*
X116266033Y-111886666D02*
X116266033Y-111686666D01*
X116266033Y-111686666D02*
X116232700Y-111619999D01*
X116232700Y-111619999D02*
X116199366Y-111586666D01*
X115566033Y-112453333D02*
X115566033Y-112519999D01*
X115566033Y-112519999D02*
X115599366Y-112586666D01*
X115599366Y-112586666D02*
X115632700Y-112619999D01*
X115632700Y-112619999D02*
X115699366Y-112653333D01*
X115699366Y-112653333D02*
X115832700Y-112686666D01*
X115832700Y-112686666D02*
X115999366Y-112686666D01*
X115999366Y-112686666D02*
X116132700Y-112653333D01*
X116132700Y-112653333D02*
X116199366Y-112619999D01*
X116199366Y-112619999D02*
X116232700Y-112586666D01*
X116232700Y-112586666D02*
X116266033Y-112519999D01*
X116266033Y-112519999D02*
X116266033Y-112453333D01*
X116266033Y-112453333D02*
X116232700Y-112386666D01*
X116232700Y-112386666D02*
X116199366Y-112353333D01*
X116199366Y-112353333D02*
X116132700Y-112319999D01*
X116132700Y-112319999D02*
X115999366Y-112286666D01*
X115999366Y-112286666D02*
X115832700Y-112286666D01*
X115832700Y-112286666D02*
X115699366Y-112319999D01*
X115699366Y-112319999D02*
X115632700Y-112353333D01*
X115632700Y-112353333D02*
X115599366Y-112386666D01*
X115599366Y-112386666D02*
X115566033Y-112453333D01*
X116266033Y-113353333D02*
X116266033Y-112953333D01*
X116266033Y-113153333D02*
X115566033Y-113153333D01*
X115566033Y-113153333D02*
X115666033Y-113086666D01*
X115666033Y-113086666D02*
X115732700Y-113020000D01*
X115732700Y-113020000D02*
X115766033Y-112953333D01*
X131500000Y-63932700D02*
X131400000Y-63966033D01*
X131400000Y-63966033D02*
X131233334Y-63966033D01*
X131233334Y-63966033D02*
X131166667Y-63932700D01*
X131166667Y-63932700D02*
X131133334Y-63899366D01*
X131133334Y-63899366D02*
X131100000Y-63832700D01*
X131100000Y-63832700D02*
X131100000Y-63766033D01*
X131100000Y-63766033D02*
X131133334Y-63699366D01*
X131133334Y-63699366D02*
X131166667Y-63666033D01*
X131166667Y-63666033D02*
X131233334Y-63632700D01*
X131233334Y-63632700D02*
X131366667Y-63599366D01*
X131366667Y-63599366D02*
X131433334Y-63566033D01*
X131433334Y-63566033D02*
X131466667Y-63532700D01*
X131466667Y-63532700D02*
X131500000Y-63466033D01*
X131500000Y-63466033D02*
X131500000Y-63399366D01*
X131500000Y-63399366D02*
X131466667Y-63332700D01*
X131466667Y-63332700D02*
X131433334Y-63299366D01*
X131433334Y-63299366D02*
X131366667Y-63266033D01*
X131366667Y-63266033D02*
X131200000Y-63266033D01*
X131200000Y-63266033D02*
X131100000Y-63299366D01*
X130866667Y-63266033D02*
X130700000Y-63966033D01*
X130700000Y-63966033D02*
X130566667Y-63466033D01*
X130566667Y-63466033D02*
X130433333Y-63966033D01*
X130433333Y-63966033D02*
X130266667Y-63266033D01*
X129633333Y-63966033D02*
X130033333Y-63966033D01*
X129833333Y-63966033D02*
X129833333Y-63266033D01*
X129833333Y-63266033D02*
X129900000Y-63366033D01*
X129900000Y-63366033D02*
X129966667Y-63432700D01*
X129966667Y-63432700D02*
X130033333Y-63466033D01*
X129200000Y-63266033D02*
X129133333Y-63266033D01*
X129133333Y-63266033D02*
X129066666Y-63299366D01*
X129066666Y-63299366D02*
X129033333Y-63332700D01*
X129033333Y-63332700D02*
X129000000Y-63399366D01*
X129000000Y-63399366D02*
X128966666Y-63532700D01*
X128966666Y-63532700D02*
X128966666Y-63699366D01*
X128966666Y-63699366D02*
X129000000Y-63832700D01*
X129000000Y-63832700D02*
X129033333Y-63899366D01*
X129033333Y-63899366D02*
X129066666Y-63932700D01*
X129066666Y-63932700D02*
X129133333Y-63966033D01*
X129133333Y-63966033D02*
X129200000Y-63966033D01*
X129200000Y-63966033D02*
X129266666Y-63932700D01*
X129266666Y-63932700D02*
X129300000Y-63899366D01*
X129300000Y-63899366D02*
X129333333Y-63832700D01*
X129333333Y-63832700D02*
X129366666Y-63699366D01*
X129366666Y-63699366D02*
X129366666Y-63532700D01*
X129366666Y-63532700D02*
X129333333Y-63399366D01*
X129333333Y-63399366D02*
X129300000Y-63332700D01*
X129300000Y-63332700D02*
X129266666Y-63299366D01*
X129266666Y-63299366D02*
X129200000Y-63266033D01*
X128699999Y-63332700D02*
X128666666Y-63299366D01*
X128666666Y-63299366D02*
X128599999Y-63266033D01*
X128599999Y-63266033D02*
X128433333Y-63266033D01*
X128433333Y-63266033D02*
X128366666Y-63299366D01*
X128366666Y-63299366D02*
X128333333Y-63332700D01*
X128333333Y-63332700D02*
X128299999Y-63399366D01*
X128299999Y-63399366D02*
X128299999Y-63466033D01*
X128299999Y-63466033D02*
X128333333Y-63566033D01*
X128333333Y-63566033D02*
X128733333Y-63966033D01*
X128733333Y-63966033D02*
X128299999Y-63966033D01*
X156116033Y-72566666D02*
X156116033Y-72233332D01*
X156116033Y-72233332D02*
X155416033Y-72233332D01*
X156049366Y-73199999D02*
X156082700Y-73166666D01*
X156082700Y-73166666D02*
X156116033Y-73066666D01*
X156116033Y-73066666D02*
X156116033Y-72999999D01*
X156116033Y-72999999D02*
X156082700Y-72899999D01*
X156082700Y-72899999D02*
X156016033Y-72833333D01*
X156016033Y-72833333D02*
X155949366Y-72799999D01*
X155949366Y-72799999D02*
X155816033Y-72766666D01*
X155816033Y-72766666D02*
X155716033Y-72766666D01*
X155716033Y-72766666D02*
X155582700Y-72799999D01*
X155582700Y-72799999D02*
X155516033Y-72833333D01*
X155516033Y-72833333D02*
X155449366Y-72899999D01*
X155449366Y-72899999D02*
X155416033Y-72999999D01*
X155416033Y-72999999D02*
X155416033Y-73066666D01*
X155416033Y-73066666D02*
X155449366Y-73166666D01*
X155449366Y-73166666D02*
X155482700Y-73199999D01*
X156116033Y-73499999D02*
X155416033Y-73499999D01*
X155416033Y-73499999D02*
X155416033Y-73666666D01*
X155416033Y-73666666D02*
X155449366Y-73766666D01*
X155449366Y-73766666D02*
X155516033Y-73833333D01*
X155516033Y-73833333D02*
X155582700Y-73866666D01*
X155582700Y-73866666D02*
X155716033Y-73899999D01*
X155716033Y-73899999D02*
X155816033Y-73899999D01*
X155816033Y-73899999D02*
X155949366Y-73866666D01*
X155949366Y-73866666D02*
X156016033Y-73833333D01*
X156016033Y-73833333D02*
X156082700Y-73766666D01*
X156082700Y-73766666D02*
X156116033Y-73666666D01*
X156116033Y-73666666D02*
X156116033Y-73499999D01*
X155482700Y-74166666D02*
X155449366Y-74199999D01*
X155449366Y-74199999D02*
X155416033Y-74266666D01*
X155416033Y-74266666D02*
X155416033Y-74433333D01*
X155416033Y-74433333D02*
X155449366Y-74499999D01*
X155449366Y-74499999D02*
X155482700Y-74533333D01*
X155482700Y-74533333D02*
X155549366Y-74566666D01*
X155549366Y-74566666D02*
X155616033Y-74566666D01*
X155616033Y-74566666D02*
X155716033Y-74533333D01*
X155716033Y-74533333D02*
X156116033Y-74133333D01*
X156116033Y-74133333D02*
X156116033Y-74566666D01*
X155416033Y-75000000D02*
X155416033Y-75066666D01*
X155416033Y-75066666D02*
X155449366Y-75133333D01*
X155449366Y-75133333D02*
X155482700Y-75166666D01*
X155482700Y-75166666D02*
X155549366Y-75200000D01*
X155549366Y-75200000D02*
X155682700Y-75233333D01*
X155682700Y-75233333D02*
X155849366Y-75233333D01*
X155849366Y-75233333D02*
X155982700Y-75200000D01*
X155982700Y-75200000D02*
X156049366Y-75166666D01*
X156049366Y-75166666D02*
X156082700Y-75133333D01*
X156082700Y-75133333D02*
X156116033Y-75066666D01*
X156116033Y-75066666D02*
X156116033Y-75000000D01*
X156116033Y-75000000D02*
X156082700Y-74933333D01*
X156082700Y-74933333D02*
X156049366Y-74900000D01*
X156049366Y-74900000D02*
X155982700Y-74866666D01*
X155982700Y-74866666D02*
X155849366Y-74833333D01*
X155849366Y-74833333D02*
X155682700Y-74833333D01*
X155682700Y-74833333D02*
X155549366Y-74866666D01*
X155549366Y-74866666D02*
X155482700Y-74900000D01*
X155482700Y-74900000D02*
X155449366Y-74933333D01*
X155449366Y-74933333D02*
X155416033Y-75000000D01*
X156116033Y-75900000D02*
X156116033Y-75500000D01*
X156116033Y-75700000D02*
X155416033Y-75700000D01*
X155416033Y-75700000D02*
X155516033Y-75633333D01*
X155516033Y-75633333D02*
X155582700Y-75566667D01*
X155582700Y-75566667D02*
X155616033Y-75500000D01*
D15*
X117140000Y-110890000D02*
X117140000Y-112220000D01*
X118470000Y-110890000D02*
X117140000Y-110890000D01*
X119740000Y-110890000D02*
X119740000Y-113550000D01*
X119740000Y-110890000D02*
X142660000Y-110890000D01*
X119740000Y-113550000D02*
X142660000Y-113550000D01*
X142660000Y-110890000D02*
X142660000Y-113550000D01*
X128220000Y-68680000D02*
X128220000Y-65320000D01*
D16*
X128350000Y-68550000D02*
X128350000Y-65450000D01*
X131450000Y-65450000D02*
X128350000Y-65450000D01*
X131450000Y-68550000D02*
X128350000Y-68550000D01*
X131450000Y-68550000D02*
X131450000Y-65450000D01*
D15*
X131580000Y-65320000D02*
X128220000Y-65320000D01*
X131580000Y-68680000D02*
X128220000Y-68680000D01*
X131580000Y-68680000D02*
X131580000Y-65320000D01*
X130800000Y-67000000D02*
G75*
G02*
X129000000Y-67000000I-900000J0D01*
G01*
X129000000Y-67000000D02*
G75*
G02*
X130800000Y-67000000I900000J0D01*
G01*
D17*
X116344586Y-65983044D02*
X116645905Y-66023935D01*
X116929325Y-66103053D01*
X117195756Y-66220759D01*
X117446108Y-66377411D01*
X117681293Y-66573369D01*
X117686226Y-66578050D01*
X117901357Y-66809490D01*
X118077463Y-67057311D01*
X118214503Y-67321423D01*
X118312438Y-67601733D01*
X118371228Y-67898150D01*
X118390833Y-68210583D01*
X118384854Y-68383497D01*
X118343273Y-68687828D01*
X118262383Y-68976919D01*
X118142557Y-69249827D01*
X117984167Y-69505607D01*
X117787583Y-69743313D01*
X117651902Y-69876382D01*
X117410260Y-70067557D01*
X117147844Y-70221858D01*
X116864461Y-70339393D01*
X116559917Y-70420269D01*
X116532169Y-70424283D01*
X116455128Y-70430132D01*
X116351503Y-70434011D01*
X116231377Y-70435601D01*
X116104833Y-70434585D01*
X115959253Y-70430660D01*
X115842210Y-70424361D01*
X115747701Y-70414740D01*
X115665717Y-70400769D01*
X115586250Y-70381424D01*
X115518527Y-70360901D01*
X115362686Y-70303108D01*
X115197603Y-70230384D01*
X115039535Y-70150158D01*
X114904736Y-70069864D01*
X114863652Y-70041092D01*
X114764222Y-69962331D01*
X114657041Y-69867837D01*
X114552720Y-69767605D01*
X114461874Y-69671631D01*
X114395115Y-69589909D01*
X114326384Y-69494203D01*
X114665461Y-69241730D01*
X115004537Y-68989257D01*
X115189560Y-69173454D01*
X115324059Y-69294742D01*
X115511853Y-69423307D01*
X115710498Y-69512862D01*
X115924346Y-69565248D01*
X116157750Y-69582301D01*
X116202054Y-69581599D01*
X116436315Y-69554037D01*
X116657808Y-69488587D01*
X116862827Y-69388293D01*
X117047663Y-69256201D01*
X117208608Y-69095356D01*
X117341954Y-68908806D01*
X117443993Y-68699594D01*
X117511017Y-68470767D01*
X117516363Y-68443257D01*
X117539718Y-68226538D01*
X117526422Y-68017475D01*
X117475424Y-67808710D01*
X117385674Y-67592886D01*
X117335826Y-67500800D01*
X117201439Y-67312036D01*
X117040979Y-67152163D01*
X116858940Y-67022715D01*
X116659813Y-66925227D01*
X116448090Y-66861233D01*
X116228264Y-66832268D01*
X116004826Y-66839866D01*
X115782268Y-66885564D01*
X115565083Y-66970894D01*
X115422606Y-67050214D01*
X115253877Y-67175562D01*
X115104510Y-67328937D01*
X115015839Y-67434122D01*
X114951795Y-67389062D01*
X114932103Y-67374961D01*
X114876556Y-67334481D01*
X114798955Y-67277456D01*
X114706723Y-67209348D01*
X114607286Y-67135620D01*
X114512603Y-67064637D01*
X114434692Y-67003999D01*
X114383416Y-66960167D01*
X114354540Y-66929133D01*
X114343830Y-66906893D01*
X114347051Y-66889440D01*
X114373942Y-66850757D01*
X114427711Y-66787364D01*
X114499035Y-66710442D01*
X114580371Y-66627650D01*
X114664171Y-66546646D01*
X114742890Y-66475087D01*
X114808983Y-66420633D01*
X114830602Y-66404747D01*
X114921399Y-66343884D01*
X115026364Y-66279945D01*
X115126901Y-66224410D01*
X115241618Y-66168204D01*
X115462721Y-66079294D01*
X115682258Y-66019792D01*
X115913153Y-65986622D01*
X116168333Y-65976712D01*
X116344586Y-65983044D01*
G36*
X116344586Y-65983044D02*
G01*
X116645905Y-66023935D01*
X116929325Y-66103053D01*
X117195756Y-66220759D01*
X117446108Y-66377411D01*
X117681293Y-66573369D01*
X117686226Y-66578050D01*
X117901357Y-66809490D01*
X118077463Y-67057311D01*
X118214503Y-67321423D01*
X118312438Y-67601733D01*
X118371228Y-67898150D01*
X118390833Y-68210583D01*
X118384854Y-68383497D01*
X118343273Y-68687828D01*
X118262383Y-68976919D01*
X118142557Y-69249827D01*
X117984167Y-69505607D01*
X117787583Y-69743313D01*
X117651902Y-69876382D01*
X117410260Y-70067557D01*
X117147844Y-70221858D01*
X116864461Y-70339393D01*
X116559917Y-70420269D01*
X116532169Y-70424283D01*
X116455128Y-70430132D01*
X116351503Y-70434011D01*
X116231377Y-70435601D01*
X116104833Y-70434585D01*
X115959253Y-70430660D01*
X115842210Y-70424361D01*
X115747701Y-70414740D01*
X115665717Y-70400769D01*
X115586250Y-70381424D01*
X115518527Y-70360901D01*
X115362686Y-70303108D01*
X115197603Y-70230384D01*
X115039535Y-70150158D01*
X114904736Y-70069864D01*
X114863652Y-70041092D01*
X114764222Y-69962331D01*
X114657041Y-69867837D01*
X114552720Y-69767605D01*
X114461874Y-69671631D01*
X114395115Y-69589909D01*
X114326384Y-69494203D01*
X114665461Y-69241730D01*
X115004537Y-68989257D01*
X115189560Y-69173454D01*
X115324059Y-69294742D01*
X115511853Y-69423307D01*
X115710498Y-69512862D01*
X115924346Y-69565248D01*
X116157750Y-69582301D01*
X116202054Y-69581599D01*
X116436315Y-69554037D01*
X116657808Y-69488587D01*
X116862827Y-69388293D01*
X117047663Y-69256201D01*
X117208608Y-69095356D01*
X117341954Y-68908806D01*
X117443993Y-68699594D01*
X117511017Y-68470767D01*
X117516363Y-68443257D01*
X117539718Y-68226538D01*
X117526422Y-68017475D01*
X117475424Y-67808710D01*
X117385674Y-67592886D01*
X117335826Y-67500800D01*
X117201439Y-67312036D01*
X117040979Y-67152163D01*
X116858940Y-67022715D01*
X116659813Y-66925227D01*
X116448090Y-66861233D01*
X116228264Y-66832268D01*
X116004826Y-66839866D01*
X115782268Y-66885564D01*
X115565083Y-66970894D01*
X115422606Y-67050214D01*
X115253877Y-67175562D01*
X115104510Y-67328937D01*
X115015839Y-67434122D01*
X114951795Y-67389062D01*
X114932103Y-67374961D01*
X114876556Y-67334481D01*
X114798955Y-67277456D01*
X114706723Y-67209348D01*
X114607286Y-67135620D01*
X114512603Y-67064637D01*
X114434692Y-67003999D01*
X114383416Y-66960167D01*
X114354540Y-66929133D01*
X114343830Y-66906893D01*
X114347051Y-66889440D01*
X114373942Y-66850757D01*
X114427711Y-66787364D01*
X114499035Y-66710442D01*
X114580371Y-66627650D01*
X114664171Y-66546646D01*
X114742890Y-66475087D01*
X114808983Y-66420633D01*
X114830602Y-66404747D01*
X114921399Y-66343884D01*
X115026364Y-66279945D01*
X115126901Y-66224410D01*
X115241618Y-66168204D01*
X115462721Y-66079294D01*
X115682258Y-66019792D01*
X115913153Y-65986622D01*
X116168333Y-65976712D01*
X116344586Y-65983044D01*
G37*
X122264333Y-68212347D02*
X122264280Y-68513343D01*
X122264048Y-68907015D01*
X122263639Y-69287563D01*
X122263064Y-69652901D01*
X122262332Y-70000944D01*
X122261451Y-70329603D01*
X122260433Y-70636794D01*
X122259287Y-70920428D01*
X122258021Y-71178421D01*
X122256645Y-71408686D01*
X122255170Y-71609136D01*
X122253604Y-71777684D01*
X122251958Y-71912245D01*
X122250239Y-72010732D01*
X122248459Y-72071059D01*
X122246627Y-72091138D01*
X122241511Y-72088122D01*
X122207325Y-72064678D01*
X122146407Y-72021366D01*
X122063936Y-71961911D01*
X121965088Y-71890038D01*
X121855044Y-71809471D01*
X121481167Y-71534860D01*
X121481167Y-68644500D01*
X120023261Y-68644500D01*
X120009236Y-68745041D01*
X119943253Y-69093709D01*
X119832896Y-69469998D01*
X119685172Y-69835259D01*
X119502506Y-70184902D01*
X119287319Y-70514336D01*
X119042036Y-70818972D01*
X118769078Y-71094220D01*
X118721312Y-71136812D01*
X118403572Y-71388376D01*
X118065141Y-71603275D01*
X117705366Y-71781838D01*
X117323595Y-71924397D01*
X116919175Y-72031282D01*
X116902273Y-72034783D01*
X116750276Y-72058607D01*
X116569038Y-72076371D01*
X116369811Y-72087790D01*
X116163843Y-72092577D01*
X115962385Y-72090448D01*
X115776687Y-72081117D01*
X115618000Y-72064299D01*
X115595072Y-72060890D01*
X115191133Y-71979795D01*
X114807896Y-71861814D01*
X114444887Y-71706716D01*
X114101633Y-71514270D01*
X113777664Y-71284245D01*
X113472505Y-71016412D01*
X113461529Y-71005727D01*
X113372781Y-70916344D01*
X113284037Y-70822309D01*
X113200272Y-70729400D01*
X113126460Y-70643393D01*
X113067577Y-70570067D01*
X113028599Y-70515199D01*
X113014500Y-70484566D01*
X113021409Y-70474914D01*
X113056478Y-70442939D01*
X113115553Y-70394455D01*
X113192272Y-70334205D01*
X113280272Y-70266934D01*
X113373190Y-70197388D01*
X113464665Y-70130312D01*
X113548334Y-70070451D01*
X113617835Y-70022550D01*
X113666805Y-69991354D01*
X113688881Y-69981608D01*
X113707122Y-69998206D01*
X113746751Y-70041306D01*
X113801422Y-70104050D01*
X113865128Y-70179689D01*
X113905634Y-70227324D01*
X114137385Y-70462189D01*
X114399267Y-70671426D01*
X114686361Y-70852234D01*
X114993751Y-71001812D01*
X115316520Y-71117360D01*
X115649750Y-71196077D01*
X115654484Y-71196904D01*
X115841018Y-71220295D01*
X116051585Y-71231907D01*
X116270012Y-71231742D01*
X116480125Y-71219799D01*
X116665750Y-71196077D01*
X116907795Y-71143476D01*
X117244263Y-71035358D01*
X117561705Y-70891531D01*
X117857866Y-70714238D01*
X118130495Y-70505725D01*
X118377340Y-70268236D01*
X118596147Y-70004015D01*
X118784665Y-69715307D01*
X118940641Y-69404356D01*
X119061822Y-69073406D01*
X119145956Y-68724703D01*
X119164215Y-68592212D01*
X119177187Y-68414902D01*
X119181875Y-68222713D01*
X119178274Y-68029743D01*
X119166382Y-67850090D01*
X119146196Y-67697851D01*
X119117400Y-67557124D01*
X119017945Y-67211617D01*
X118882479Y-66886062D01*
X118712906Y-66582402D01*
X118511125Y-66302577D01*
X118279041Y-66048527D01*
X118018553Y-65822195D01*
X117731566Y-65625520D01*
X117419979Y-65460443D01*
X117085696Y-65328907D01*
X116730619Y-65232850D01*
X116716164Y-65229864D01*
X116555099Y-65205599D01*
X116368101Y-65190451D01*
X116168600Y-65184538D01*
X115970023Y-65187976D01*
X115785797Y-65200878D01*
X115629351Y-65223362D01*
X115464084Y-65260140D01*
X115119881Y-65365924D01*
X114796011Y-65507938D01*
X114489064Y-65687808D01*
X114195628Y-65907163D01*
X114175879Y-65923895D01*
X114080160Y-66011402D01*
X113979412Y-66112110D01*
X113883041Y-66215965D01*
X113800455Y-66312916D01*
X113741060Y-66392910D01*
X113713233Y-66427249D01*
X113688511Y-66443166D01*
X113677899Y-66438809D01*
X113637533Y-66413622D01*
X113574470Y-66370160D01*
X113495058Y-66313192D01*
X113405643Y-66247485D01*
X113312571Y-66177808D01*
X113222190Y-66108930D01*
X113140846Y-66045618D01*
X113074885Y-65992642D01*
X113030654Y-65954769D01*
X113014500Y-65936768D01*
X113014715Y-65934547D01*
X113032076Y-65900618D01*
X113073732Y-65843150D01*
X113134713Y-65767915D01*
X113210050Y-65680686D01*
X113294774Y-65587234D01*
X113383916Y-65493333D01*
X113472505Y-65404754D01*
X113608146Y-65278939D01*
X113922739Y-65027036D01*
X114255124Y-64813507D01*
X114604934Y-64638499D01*
X114971799Y-64502160D01*
X115355352Y-64404637D01*
X115755225Y-64346076D01*
X116171050Y-64326624D01*
X116423623Y-64333399D01*
X116786424Y-64369874D01*
X117132875Y-64439482D01*
X117470983Y-64543975D01*
X117808750Y-64685106D01*
X118089401Y-64831652D01*
X118421794Y-65046713D01*
X118729077Y-65293355D01*
X119009252Y-65568863D01*
X119260324Y-65870524D01*
X119480294Y-66195624D01*
X119667168Y-66541448D01*
X119818947Y-66905282D01*
X119933636Y-67284412D01*
X120009236Y-67676125D01*
X120023261Y-67776666D01*
X121481167Y-67776666D01*
X121481167Y-65258278D01*
X120556704Y-65252764D01*
X119632242Y-65247250D01*
X119307871Y-64796584D01*
X119225948Y-64682448D01*
X119147327Y-64572250D01*
X119080524Y-64477918D01*
X119028787Y-64404061D01*
X118995363Y-64355288D01*
X118983500Y-64336209D01*
X118984600Y-64335852D01*
X119014457Y-64334333D01*
X119082693Y-64332892D01*
X119186088Y-64331549D01*
X119321423Y-64330324D01*
X119485479Y-64329235D01*
X119675038Y-64328301D01*
X119886880Y-64327541D01*
X120117787Y-64326975D01*
X120364539Y-64326622D01*
X120623917Y-64326500D01*
X122264333Y-64326500D01*
X122264333Y-68212347D01*
G36*
X122264333Y-68212347D02*
G01*
X122264280Y-68513343D01*
X122264048Y-68907015D01*
X122263639Y-69287563D01*
X122263064Y-69652901D01*
X122262332Y-70000944D01*
X122261451Y-70329603D01*
X122260433Y-70636794D01*
X122259287Y-70920428D01*
X122258021Y-71178421D01*
X122256645Y-71408686D01*
X122255170Y-71609136D01*
X122253604Y-71777684D01*
X122251958Y-71912245D01*
X122250239Y-72010732D01*
X122248459Y-72071059D01*
X122246627Y-72091138D01*
X122241511Y-72088122D01*
X122207325Y-72064678D01*
X122146407Y-72021366D01*
X122063936Y-71961911D01*
X121965088Y-71890038D01*
X121855044Y-71809471D01*
X121481167Y-71534860D01*
X121481167Y-68644500D01*
X120023261Y-68644500D01*
X120009236Y-68745041D01*
X119943253Y-69093709D01*
X119832896Y-69469998D01*
X119685172Y-69835259D01*
X119502506Y-70184902D01*
X119287319Y-70514336D01*
X119042036Y-70818972D01*
X118769078Y-71094220D01*
X118721312Y-71136812D01*
X118403572Y-71388376D01*
X118065141Y-71603275D01*
X117705366Y-71781838D01*
X117323595Y-71924397D01*
X116919175Y-72031282D01*
X116902273Y-72034783D01*
X116750276Y-72058607D01*
X116569038Y-72076371D01*
X116369811Y-72087790D01*
X116163843Y-72092577D01*
X115962385Y-72090448D01*
X115776687Y-72081117D01*
X115618000Y-72064299D01*
X115595072Y-72060890D01*
X115191133Y-71979795D01*
X114807896Y-71861814D01*
X114444887Y-71706716D01*
X114101633Y-71514270D01*
X113777664Y-71284245D01*
X113472505Y-71016412D01*
X113461529Y-71005727D01*
X113372781Y-70916344D01*
X113284037Y-70822309D01*
X113200272Y-70729400D01*
X113126460Y-70643393D01*
X113067577Y-70570067D01*
X113028599Y-70515199D01*
X113014500Y-70484566D01*
X113021409Y-70474914D01*
X113056478Y-70442939D01*
X113115553Y-70394455D01*
X113192272Y-70334205D01*
X113280272Y-70266934D01*
X113373190Y-70197388D01*
X113464665Y-70130312D01*
X113548334Y-70070451D01*
X113617835Y-70022550D01*
X113666805Y-69991354D01*
X113688881Y-69981608D01*
X113707122Y-69998206D01*
X113746751Y-70041306D01*
X113801422Y-70104050D01*
X113865128Y-70179689D01*
X113905634Y-70227324D01*
X114137385Y-70462189D01*
X114399267Y-70671426D01*
X114686361Y-70852234D01*
X114993751Y-71001812D01*
X115316520Y-71117360D01*
X115649750Y-71196077D01*
X115654484Y-71196904D01*
X115841018Y-71220295D01*
X116051585Y-71231907D01*
X116270012Y-71231742D01*
X116480125Y-71219799D01*
X116665750Y-71196077D01*
X116907795Y-71143476D01*
X117244263Y-71035358D01*
X117561705Y-70891531D01*
X117857866Y-70714238D01*
X118130495Y-70505725D01*
X118377340Y-70268236D01*
X118596147Y-70004015D01*
X118784665Y-69715307D01*
X118940641Y-69404356D01*
X119061822Y-69073406D01*
X119145956Y-68724703D01*
X119164215Y-68592212D01*
X119177187Y-68414902D01*
X119181875Y-68222713D01*
X119178274Y-68029743D01*
X119166382Y-67850090D01*
X119146196Y-67697851D01*
X119117400Y-67557124D01*
X119017945Y-67211617D01*
X118882479Y-66886062D01*
X118712906Y-66582402D01*
X118511125Y-66302577D01*
X118279041Y-66048527D01*
X118018553Y-65822195D01*
X117731566Y-65625520D01*
X117419979Y-65460443D01*
X117085696Y-65328907D01*
X116730619Y-65232850D01*
X116716164Y-65229864D01*
X116555099Y-65205599D01*
X116368101Y-65190451D01*
X116168600Y-65184538D01*
X115970023Y-65187976D01*
X115785797Y-65200878D01*
X115629351Y-65223362D01*
X115464084Y-65260140D01*
X115119881Y-65365924D01*
X114796011Y-65507938D01*
X114489064Y-65687808D01*
X114195628Y-65907163D01*
X114175879Y-65923895D01*
X114080160Y-66011402D01*
X113979412Y-66112110D01*
X113883041Y-66215965D01*
X113800455Y-66312916D01*
X113741060Y-66392910D01*
X113713233Y-66427249D01*
X113688511Y-66443166D01*
X113677899Y-66438809D01*
X113637533Y-66413622D01*
X113574470Y-66370160D01*
X113495058Y-66313192D01*
X113405643Y-66247485D01*
X113312571Y-66177808D01*
X113222190Y-66108930D01*
X113140846Y-66045618D01*
X113074885Y-65992642D01*
X113030654Y-65954769D01*
X113014500Y-65936768D01*
X113014715Y-65934547D01*
X113032076Y-65900618D01*
X113073732Y-65843150D01*
X113134713Y-65767915D01*
X113210050Y-65680686D01*
X113294774Y-65587234D01*
X113383916Y-65493333D01*
X113472505Y-65404754D01*
X113608146Y-65278939D01*
X113922739Y-65027036D01*
X114255124Y-64813507D01*
X114604934Y-64638499D01*
X114971799Y-64502160D01*
X115355352Y-64404637D01*
X115755225Y-64346076D01*
X116171050Y-64326624D01*
X116423623Y-64333399D01*
X116786424Y-64369874D01*
X117132875Y-64439482D01*
X117470983Y-64543975D01*
X117808750Y-64685106D01*
X118089401Y-64831652D01*
X118421794Y-65046713D01*
X118729077Y-65293355D01*
X119009252Y-65568863D01*
X119260324Y-65870524D01*
X119480294Y-66195624D01*
X119667168Y-66541448D01*
X119818947Y-66905282D01*
X119933636Y-67284412D01*
X120009236Y-67676125D01*
X120023261Y-67776666D01*
X121481167Y-67776666D01*
X121481167Y-65258278D01*
X120556704Y-65252764D01*
X119632242Y-65247250D01*
X119307871Y-64796584D01*
X119225948Y-64682448D01*
X119147327Y-64572250D01*
X119080524Y-64477918D01*
X119028787Y-64404061D01*
X118995363Y-64355288D01*
X118983500Y-64336209D01*
X118984600Y-64335852D01*
X119014457Y-64334333D01*
X119082693Y-64332892D01*
X119186088Y-64331549D01*
X119321423Y-64330324D01*
X119485479Y-64329235D01*
X119675038Y-64328301D01*
X119886880Y-64327541D01*
X120117787Y-64326975D01*
X120364539Y-64326622D01*
X120623917Y-64326500D01*
X122264333Y-64326500D01*
X122264333Y-68212347D01*
G37*
X142620433Y-64007211D02*
X142737864Y-64009596D01*
X142853024Y-64013302D01*
X142959435Y-64018225D01*
X143050621Y-64024263D01*
X143120104Y-64031311D01*
X143372751Y-64072926D01*
X143735170Y-64161526D01*
X144084959Y-64281782D01*
X144420311Y-64432636D01*
X144739419Y-64613032D01*
X145040477Y-64821913D01*
X145321677Y-65058222D01*
X145581213Y-65320902D01*
X145817277Y-65608896D01*
X145921651Y-65755609D01*
X146116938Y-66074223D01*
X146280769Y-66408007D01*
X146412805Y-66756124D01*
X146512706Y-67117734D01*
X146580132Y-67492000D01*
X146585165Y-67534529D01*
X146594925Y-67658391D01*
X146601191Y-67803834D01*
X146603965Y-67961450D01*
X146603246Y-68121833D01*
X146599034Y-68275577D01*
X146591329Y-68413273D01*
X146580132Y-68525517D01*
X146562630Y-68643146D01*
X146485649Y-69009500D01*
X146377269Y-69362630D01*
X146238800Y-69700952D01*
X146071553Y-70022883D01*
X145876840Y-70326838D01*
X145655970Y-70611235D01*
X145410254Y-70874489D01*
X145141003Y-71115017D01*
X144849528Y-71331236D01*
X144537139Y-71521562D01*
X144205147Y-71684411D01*
X143854862Y-71818200D01*
X143747498Y-71851476D01*
X143578544Y-71897048D01*
X143403141Y-71937598D01*
X143234180Y-71970217D01*
X143084552Y-71991997D01*
X143083879Y-71992073D01*
X143023835Y-71996952D01*
X142941066Y-72001099D01*
X142841985Y-72004454D01*
X142733009Y-72006951D01*
X142620552Y-72008529D01*
X142511029Y-72009123D01*
X142410856Y-72008672D01*
X142326448Y-72007110D01*
X142264220Y-72004377D01*
X142230586Y-72000407D01*
X142191173Y-71989844D01*
X142191173Y-70775640D01*
X142554655Y-70776061D01*
X142627674Y-70775859D01*
X142793865Y-70772322D01*
X142937073Y-70763497D01*
X143065828Y-70748200D01*
X143188658Y-70725247D01*
X143314095Y-70693453D01*
X143450666Y-70651633D01*
X143693630Y-70560003D01*
X143969124Y-70423081D01*
X144225395Y-70258607D01*
X144460739Y-70068527D01*
X144673449Y-69854784D01*
X144861820Y-69619326D01*
X145024146Y-69364097D01*
X145158722Y-69091043D01*
X145263842Y-68802109D01*
X145337800Y-68499241D01*
X145339439Y-68490239D01*
X145355287Y-68371515D01*
X145365836Y-68230185D01*
X145371077Y-68075786D01*
X145371000Y-67917858D01*
X145365596Y-67765938D01*
X145354855Y-67629564D01*
X145338768Y-67518275D01*
X145312075Y-67395701D01*
X145221956Y-67091897D01*
X145101165Y-66803501D01*
X144950602Y-66532220D01*
X144771165Y-66279761D01*
X144563755Y-66047831D01*
X144485262Y-65971962D01*
X144283467Y-65801039D01*
X144068109Y-65653598D01*
X143829035Y-65522377D01*
X143728788Y-65474752D01*
X143486953Y-65376669D01*
X143247830Y-65305478D01*
X143003607Y-65259540D01*
X142746476Y-65237216D01*
X142468626Y-65236867D01*
X142191173Y-65246495D01*
X142191173Y-64027672D01*
X142230586Y-64017109D01*
X142257530Y-64012949D01*
X142319278Y-64009016D01*
X142404663Y-64006817D01*
X142507207Y-64006250D01*
X142620433Y-64007211D01*
G36*
X142620433Y-64007211D02*
G01*
X142737864Y-64009596D01*
X142853024Y-64013302D01*
X142959435Y-64018225D01*
X143050621Y-64024263D01*
X143120104Y-64031311D01*
X143372751Y-64072926D01*
X143735170Y-64161526D01*
X144084959Y-64281782D01*
X144420311Y-64432636D01*
X144739419Y-64613032D01*
X145040477Y-64821913D01*
X145321677Y-65058222D01*
X145581213Y-65320902D01*
X145817277Y-65608896D01*
X145921651Y-65755609D01*
X146116938Y-66074223D01*
X146280769Y-66408007D01*
X146412805Y-66756124D01*
X146512706Y-67117734D01*
X146580132Y-67492000D01*
X146585165Y-67534529D01*
X146594925Y-67658391D01*
X146601191Y-67803834D01*
X146603965Y-67961450D01*
X146603246Y-68121833D01*
X146599034Y-68275577D01*
X146591329Y-68413273D01*
X146580132Y-68525517D01*
X146562630Y-68643146D01*
X146485649Y-69009500D01*
X146377269Y-69362630D01*
X146238800Y-69700952D01*
X146071553Y-70022883D01*
X145876840Y-70326838D01*
X145655970Y-70611235D01*
X145410254Y-70874489D01*
X145141003Y-71115017D01*
X144849528Y-71331236D01*
X144537139Y-71521562D01*
X144205147Y-71684411D01*
X143854862Y-71818200D01*
X143747498Y-71851476D01*
X143578544Y-71897048D01*
X143403141Y-71937598D01*
X143234180Y-71970217D01*
X143084552Y-71991997D01*
X143083879Y-71992073D01*
X143023835Y-71996952D01*
X142941066Y-72001099D01*
X142841985Y-72004454D01*
X142733009Y-72006951D01*
X142620552Y-72008529D01*
X142511029Y-72009123D01*
X142410856Y-72008672D01*
X142326448Y-72007110D01*
X142264220Y-72004377D01*
X142230586Y-72000407D01*
X142191173Y-71989844D01*
X142191173Y-70775640D01*
X142554655Y-70776061D01*
X142627674Y-70775859D01*
X142793865Y-70772322D01*
X142937073Y-70763497D01*
X143065828Y-70748200D01*
X143188658Y-70725247D01*
X143314095Y-70693453D01*
X143450666Y-70651633D01*
X143693630Y-70560003D01*
X143969124Y-70423081D01*
X144225395Y-70258607D01*
X144460739Y-70068527D01*
X144673449Y-69854784D01*
X144861820Y-69619326D01*
X145024146Y-69364097D01*
X145158722Y-69091043D01*
X145263842Y-68802109D01*
X145337800Y-68499241D01*
X145339439Y-68490239D01*
X145355287Y-68371515D01*
X145365836Y-68230185D01*
X145371077Y-68075786D01*
X145371000Y-67917858D01*
X145365596Y-67765938D01*
X145354855Y-67629564D01*
X145338768Y-67518275D01*
X145312075Y-67395701D01*
X145221956Y-67091897D01*
X145101165Y-66803501D01*
X144950602Y-66532220D01*
X144771165Y-66279761D01*
X144563755Y-66047831D01*
X144485262Y-65971962D01*
X144283467Y-65801039D01*
X144068109Y-65653598D01*
X143829035Y-65522377D01*
X143728788Y-65474752D01*
X143486953Y-65376669D01*
X143247830Y-65305478D01*
X143003607Y-65259540D01*
X142746476Y-65237216D01*
X142468626Y-65236867D01*
X142191173Y-65246495D01*
X142191173Y-64027672D01*
X142230586Y-64017109D01*
X142257530Y-64012949D01*
X142319278Y-64009016D01*
X142404663Y-64006817D01*
X142507207Y-64006250D01*
X142620433Y-64007211D01*
G37*
X135766724Y-64006410D02*
X135914401Y-64007682D01*
X136090911Y-64013493D01*
X136249628Y-64024913D01*
X136400342Y-64042935D01*
X136552843Y-64068552D01*
X136716918Y-64102757D01*
X136849742Y-64135195D01*
X137189661Y-64242522D01*
X137520815Y-64381816D01*
X137839965Y-64551051D01*
X138143870Y-64748201D01*
X138429289Y-64971241D01*
X138692981Y-65218147D01*
X138931706Y-65486891D01*
X138936234Y-65492513D01*
X139150079Y-65786275D01*
X139336723Y-66101024D01*
X139495262Y-66434616D01*
X139624791Y-66784910D01*
X139724407Y-67149763D01*
X139793203Y-67527034D01*
X139801207Y-67603754D01*
X139808056Y-67718354D01*
X139812223Y-67851598D01*
X139813712Y-67994715D01*
X139812524Y-68138933D01*
X139808663Y-68275481D01*
X139802130Y-68395588D01*
X139792929Y-68490482D01*
X139789559Y-68515295D01*
X139721662Y-68883323D01*
X139621955Y-69242747D01*
X139491774Y-69590408D01*
X139332450Y-69923149D01*
X139145316Y-70237810D01*
X138931706Y-70531232D01*
X138883313Y-70589827D01*
X138706130Y-70783315D01*
X138506083Y-70974584D01*
X138291854Y-71156143D01*
X138072124Y-71320497D01*
X137855574Y-71460152D01*
X137781684Y-71502435D01*
X137499396Y-71644643D01*
X137200486Y-71767548D01*
X136893337Y-71868305D01*
X136586335Y-71944069D01*
X136287862Y-71991997D01*
X136278506Y-71992972D01*
X136214328Y-71997548D01*
X136124315Y-72001711D01*
X136016089Y-72005208D01*
X135897271Y-72007781D01*
X135775483Y-72009175D01*
X135394483Y-72011448D01*
X135394483Y-70776420D01*
X135775483Y-70776451D01*
X135869152Y-70776273D01*
X135982619Y-70775088D01*
X136073040Y-70772351D01*
X136147552Y-70767552D01*
X136213296Y-70760183D01*
X136277412Y-70749735D01*
X136347038Y-70735697D01*
X136354587Y-70734072D01*
X136663795Y-70649874D01*
X136956493Y-70535227D01*
X137231360Y-70391021D01*
X137487075Y-70218148D01*
X137722318Y-70017496D01*
X137935767Y-69789958D01*
X138126101Y-69536423D01*
X138138623Y-69517418D01*
X138213273Y-69392423D01*
X138287792Y-69249843D01*
X138358099Y-69098873D01*
X138420113Y-68948705D01*
X138469752Y-68808533D01*
X138502935Y-68687551D01*
X138515336Y-68630620D01*
X136182759Y-68630620D01*
X136182759Y-67386896D01*
X138515336Y-67386896D01*
X138502935Y-67329965D01*
X138494866Y-67296073D01*
X138458483Y-67175709D01*
X138407759Y-67038281D01*
X138346644Y-66892844D01*
X138279088Y-66748452D01*
X138209041Y-66614160D01*
X138140452Y-66499022D01*
X138107827Y-66449936D01*
X137922104Y-66207687D01*
X137710776Y-65987864D01*
X137476178Y-65792059D01*
X137220644Y-65621860D01*
X136946507Y-65478857D01*
X136656101Y-65364640D01*
X136351761Y-65280798D01*
X136306873Y-65271360D01*
X136245037Y-65260370D01*
X136182155Y-65252408D01*
X136111431Y-65247004D01*
X136026068Y-65243685D01*
X135919270Y-65241980D01*
X135784240Y-65241417D01*
X135394480Y-65241034D01*
X135394482Y-64623551D01*
X135394483Y-64006069D01*
X135766724Y-64006410D01*
G36*
X135766724Y-64006410D02*
G01*
X135914401Y-64007682D01*
X136090911Y-64013493D01*
X136249628Y-64024913D01*
X136400342Y-64042935D01*
X136552843Y-64068552D01*
X136716918Y-64102757D01*
X136849742Y-64135195D01*
X137189661Y-64242522D01*
X137520815Y-64381816D01*
X137839965Y-64551051D01*
X138143870Y-64748201D01*
X138429289Y-64971241D01*
X138692981Y-65218147D01*
X138931706Y-65486891D01*
X138936234Y-65492513D01*
X139150079Y-65786275D01*
X139336723Y-66101024D01*
X139495262Y-66434616D01*
X139624791Y-66784910D01*
X139724407Y-67149763D01*
X139793203Y-67527034D01*
X139801207Y-67603754D01*
X139808056Y-67718354D01*
X139812223Y-67851598D01*
X139813712Y-67994715D01*
X139812524Y-68138933D01*
X139808663Y-68275481D01*
X139802130Y-68395588D01*
X139792929Y-68490482D01*
X139789559Y-68515295D01*
X139721662Y-68883323D01*
X139621955Y-69242747D01*
X139491774Y-69590408D01*
X139332450Y-69923149D01*
X139145316Y-70237810D01*
X138931706Y-70531232D01*
X138883313Y-70589827D01*
X138706130Y-70783315D01*
X138506083Y-70974584D01*
X138291854Y-71156143D01*
X138072124Y-71320497D01*
X137855574Y-71460152D01*
X137781684Y-71502435D01*
X137499396Y-71644643D01*
X137200486Y-71767548D01*
X136893337Y-71868305D01*
X136586335Y-71944069D01*
X136287862Y-71991997D01*
X136278506Y-71992972D01*
X136214328Y-71997548D01*
X136124315Y-72001711D01*
X136016089Y-72005208D01*
X135897271Y-72007781D01*
X135775483Y-72009175D01*
X135394483Y-72011448D01*
X135394483Y-70776420D01*
X135775483Y-70776451D01*
X135869152Y-70776273D01*
X135982619Y-70775088D01*
X136073040Y-70772351D01*
X136147552Y-70767552D01*
X136213296Y-70760183D01*
X136277412Y-70749735D01*
X136347038Y-70735697D01*
X136354587Y-70734072D01*
X136663795Y-70649874D01*
X136956493Y-70535227D01*
X137231360Y-70391021D01*
X137487075Y-70218148D01*
X137722318Y-70017496D01*
X137935767Y-69789958D01*
X138126101Y-69536423D01*
X138138623Y-69517418D01*
X138213273Y-69392423D01*
X138287792Y-69249843D01*
X138358099Y-69098873D01*
X138420113Y-68948705D01*
X138469752Y-68808533D01*
X138502935Y-68687551D01*
X138515336Y-68630620D01*
X136182759Y-68630620D01*
X136182759Y-67386896D01*
X138515336Y-67386896D01*
X138502935Y-67329965D01*
X138494866Y-67296073D01*
X138458483Y-67175709D01*
X138407759Y-67038281D01*
X138346644Y-66892844D01*
X138279088Y-66748452D01*
X138209041Y-66614160D01*
X138140452Y-66499022D01*
X138107827Y-66449936D01*
X137922104Y-66207687D01*
X137710776Y-65987864D01*
X137476178Y-65792059D01*
X137220644Y-65621860D01*
X136946507Y-65478857D01*
X136656101Y-65364640D01*
X136351761Y-65280798D01*
X136306873Y-65271360D01*
X136245037Y-65260370D01*
X136182155Y-65252408D01*
X136111431Y-65247004D01*
X136026068Y-65243685D01*
X135919270Y-65241980D01*
X135784240Y-65241417D01*
X135394480Y-65241034D01*
X135394482Y-64623551D01*
X135394483Y-64006069D01*
X135766724Y-64006410D01*
G37*
D18*
X106000000Y-72800000D02*
X106000000Y-107400000D01*
X137000000Y-86400000D02*
X137000000Y-87148000D01*
X137000000Y-96852000D02*
X137000000Y-97600000D01*
X139000000Y-86400000D02*
X137000000Y-86400000D01*
X139000000Y-97600000D02*
X137000000Y-97600000D01*
X153800000Y-72800000D02*
X106000000Y-72800000D01*
X153800000Y-72800000D02*
X153800000Y-107400000D01*
X153800000Y-79555000D02*
X154800000Y-79555000D01*
X153800000Y-100645000D02*
X154800000Y-100645000D01*
X153800000Y-107400000D02*
X106000000Y-107400000D01*
X154800000Y-79555000D02*
X154800000Y-100645000D01*
%LPC*%
D19*
X155900000Y-116100000D03*
X155900000Y-64100000D03*
X103900000Y-64100000D03*
X103900000Y-116100000D03*
D20*
X148010000Y-70850000D03*
D21*
X150550000Y-70850000D03*
X153090000Y-70850000D03*
D22*
X132790000Y-65150000D03*
X127010000Y-65150000D03*
D23*
X134220000Y-65680000D03*
X125580000Y-65680000D03*
X134220000Y-61500000D03*
X125580000Y-61500000D03*
D24*
X130066667Y-86616667D03*
X130066667Y-87750000D03*
X130066667Y-88883333D03*
X131200000Y-86616667D03*
X131200000Y-87750000D03*
X131200000Y-88883333D03*
X132333333Y-86616667D03*
X132333333Y-87750000D03*
X132333333Y-88883333D03*
D20*
X118470000Y-112220000D03*
D21*
X121010000Y-112220000D03*
X123550000Y-112220000D03*
X126090000Y-112220000D03*
X128630000Y-112220000D03*
X131170000Y-112220000D03*
X133710000Y-112220000D03*
X136250000Y-112220000D03*
X138790000Y-112220000D03*
X141330000Y-112220000D03*
D25*
X130900000Y-68880000D03*
X130900000Y-65120000D03*
X128900000Y-68880000D03*
X128900000Y-65120000D03*
D26*
X137725000Y-96400000D03*
X137725000Y-95600000D03*
X137725000Y-94800000D03*
X137725000Y-94000000D03*
X137725000Y-93200000D03*
X137725000Y-92400000D03*
X137725000Y-91600000D03*
X137725000Y-90800000D03*
X137725000Y-90000000D03*
X137725000Y-89200000D03*
X137725000Y-88400000D03*
X137725000Y-87600000D03*
%LPD*%
M02*
