%TF.GenerationSoftware,KiCad,Pcbnew,8.0.6*%
%TF.CreationDate,2024-11-01T16:37:06+01:00*%
%TF.ProjectId,7-REV0,372d5245-5630-42e6-9b69-6361645f7063,rev?*%
%TF.SameCoordinates,Original*%
%TF.FileFunction,Drillmap*%
%TF.FilePolarity,Positive*%
%FSLAX45Y45*%
G04 Gerber Fmt 4.5, Leading zero omitted, Abs format (unit mm)*
G04 Created by KiCad (PCBNEW 8.0.6) date 2024-11-01 16:37:06*
%MOMM*%
%LPD*%
G01*
G04 APERTURE LIST*
%ADD10C,0.050000*%
%ADD11C,0.120000*%
%ADD12C,0.200000*%
%ADD13C,0.100000*%
%ADD14C,0.320000*%
G04 APERTURE END LIST*
D10*
X10390000Y-12010000D02*
G75*
G02*
X9990000Y-11610000I0J400000D01*
G01*
X15690000Y-11610000D02*
G75*
G02*
X15490000Y-11610000I-100000J0D01*
G01*
X15490000Y-11610000D02*
G75*
G02*
X15690000Y-11610000I100000J0D01*
G01*
X10490000Y-6410000D02*
G75*
G02*
X10290000Y-6410000I-100000J0D01*
G01*
X10290000Y-6410000D02*
G75*
G02*
X10490000Y-6410000I100000J0D01*
G01*
X10490000Y-11610000D02*
G75*
G02*
X10290000Y-11610000I-100000J0D01*
G01*
X10290000Y-11610000D02*
G75*
G02*
X10490000Y-11610000I100000J0D01*
G01*
X15990000Y-11610000D02*
G75*
G02*
X15590000Y-12010000I-400000J0D01*
G01*
X10390000Y-12010000D02*
X15590000Y-12010000D01*
X15690000Y-6410000D02*
G75*
G02*
X15490000Y-6410000I-100000J0D01*
G01*
X15490000Y-6410000D02*
G75*
G02*
X15690000Y-6410000I100000J0D01*
G01*
X9990000Y-6410000D02*
X9990000Y-11610000D01*
X15990000Y-11610000D02*
X15990000Y-6410000D01*
X15590000Y-6010000D02*
G75*
G02*
X15990000Y-6410000I0J-400000D01*
G01*
X9990000Y-6410000D02*
G75*
G02*
X10390000Y-6010000I400000J0D01*
G01*
X10390000Y-6010000D02*
X15590000Y-6010000D01*
D11*
X11170000Y-6303431D02*
X11170000Y-6116569D01*
X11226569Y-6060000D02*
X11453431Y-6060000D01*
X11453431Y-6360000D02*
X11226569Y-6360000D01*
X11510000Y-6116569D02*
X11510000Y-6303431D01*
X11170000Y-6116569D02*
G75*
G02*
X11226569Y-6060000I28284J28284D01*
G01*
X11226569Y-6360000D02*
G75*
G02*
X11170000Y-6303431I-28284J28284D01*
G01*
X11453431Y-6060000D02*
G75*
G02*
X11510000Y-6116569I28284J-28284D01*
G01*
X11510000Y-6303431D02*
G75*
G02*
X11453431Y-6360000I-28284J-28284D01*
G01*
X14470000Y-11903431D02*
X14470000Y-11716569D01*
X14526569Y-11660000D02*
X14753431Y-11660000D01*
X14753431Y-11960000D02*
X14526569Y-11960000D01*
X14810000Y-11716569D02*
X14810000Y-11903431D01*
X14470000Y-11716569D02*
G75*
G02*
X14526569Y-11660000I28284J28284D01*
G01*
X14526569Y-11960000D02*
G75*
G02*
X14470000Y-11903431I-28284J28284D01*
G01*
X14753431Y-11660000D02*
G75*
G02*
X14810000Y-11716569I28284J-28284D01*
G01*
X14810000Y-11903431D02*
G75*
G02*
X14753431Y-11960000I-28284J-28284D01*
G01*
X10040000Y-10773431D02*
X10040000Y-10546569D01*
X10096569Y-10490000D02*
X10283431Y-10490000D01*
X10283431Y-10830000D02*
X10096569Y-10830000D01*
X10340000Y-10546569D02*
X10340000Y-10773431D01*
X10040000Y-10546569D02*
G75*
G02*
X10096569Y-10490000I28284J28284D01*
G01*
X10096569Y-10830000D02*
G75*
G02*
X10040000Y-10773431I-28284J28284D01*
G01*
X10283431Y-10490000D02*
G75*
G02*
X10340000Y-10546569I28284J-28284D01*
G01*
X10340000Y-10773431D02*
G75*
G02*
X10283431Y-10830000I-28284J-28284D01*
G01*
X14470000Y-6303431D02*
X14470000Y-6116569D01*
X14526569Y-6060000D02*
X14753431Y-6060000D01*
X14753431Y-6360000D02*
X14526569Y-6360000D01*
X14810000Y-6116569D02*
X14810000Y-6303431D01*
X14470000Y-6116569D02*
G75*
G02*
X14526569Y-6060000I28284J28284D01*
G01*
X14526569Y-6360000D02*
G75*
G02*
X14470000Y-6303431I-28284J28284D01*
G01*
X14753431Y-6060000D02*
G75*
G02*
X14810000Y-6116569I28284J-28284D01*
G01*
X14810000Y-6303431D02*
G75*
G02*
X14753431Y-6360000I-28284J-28284D01*
G01*
X15640000Y-7473431D02*
X15640000Y-7246569D01*
X15696569Y-7190000D02*
X15883431Y-7190000D01*
X15883431Y-7530000D02*
X15696569Y-7530000D01*
X15940000Y-7246569D02*
X15940000Y-7473431D01*
X15640000Y-7246569D02*
G75*
G02*
X15696569Y-7190000I28284J28284D01*
G01*
X15696569Y-7530000D02*
G75*
G02*
X15640000Y-7473431I-28284J28284D01*
G01*
X15883431Y-7190000D02*
G75*
G02*
X15940000Y-7246569I28284J-28284D01*
G01*
X15940000Y-7473431D02*
G75*
G02*
X15883431Y-7530000I-28284J-28284D01*
G01*
X11170000Y-11903431D02*
X11170000Y-11716569D01*
X11226569Y-11660000D02*
X11453431Y-11660000D01*
X11453431Y-11960000D02*
X11226569Y-11960000D01*
X11510000Y-11716569D02*
X11510000Y-11903431D01*
X11170000Y-11716569D02*
G75*
G02*
X11226569Y-11660000I28284J28284D01*
G01*
X11226569Y-11960000D02*
G75*
G02*
X11170000Y-11903431I-28284J28284D01*
G01*
X11453431Y-11660000D02*
G75*
G02*
X11510000Y-11716569I28284J-28284D01*
G01*
X11510000Y-11903431D02*
G75*
G02*
X11453431Y-11960000I-28284J-28284D01*
G01*
X10040000Y-7473431D02*
X10040000Y-7246569D01*
X10096569Y-7190000D02*
X10283431Y-7190000D01*
X10283431Y-7530000D02*
X10096569Y-7530000D01*
X10340000Y-7246569D02*
X10340000Y-7473431D01*
X10040000Y-7246569D02*
G75*
G02*
X10096569Y-7190000I28284J28284D01*
G01*
X10096569Y-7530000D02*
G75*
G02*
X10040000Y-7473431I-28284J28284D01*
G01*
X10283431Y-7190000D02*
G75*
G02*
X10340000Y-7246569I28284J-28284D01*
G01*
X10340000Y-7473431D02*
G75*
G02*
X10283431Y-7530000I-28284J-28284D01*
G01*
X10040000Y-9123431D02*
X10040000Y-8896569D01*
X10096569Y-8840000D02*
X10283431Y-8840000D01*
X10283431Y-9180000D02*
X10096569Y-9180000D01*
X10340000Y-8896569D02*
X10340000Y-9123431D01*
X10040000Y-8896569D02*
G75*
G02*
X10096569Y-8840000I28284J28284D01*
G01*
X10096569Y-9180000D02*
G75*
G02*
X10040000Y-9123431I-28284J28284D01*
G01*
X10283431Y-8840000D02*
G75*
G02*
X10340000Y-8896569I28284J-28284D01*
G01*
X10340000Y-9123431D02*
G75*
G02*
X10283431Y-9180000I-28284J-28284D01*
G01*
X15640000Y-10773431D02*
X15640000Y-10546569D01*
X15696569Y-10490000D02*
X15883431Y-10490000D01*
X15883431Y-10830000D02*
X15696569Y-10830000D01*
X15940000Y-10546569D02*
X15940000Y-10773431D01*
X15640000Y-10546569D02*
G75*
G02*
X15696569Y-10490000I28284J28284D01*
G01*
X15696569Y-10830000D02*
G75*
G02*
X15640000Y-10773431I-28284J28284D01*
G01*
X15883431Y-10490000D02*
G75*
G02*
X15940000Y-10546569I28284J-28284D01*
G01*
X15940000Y-10773431D02*
G75*
G02*
X15883431Y-10830000I-28284J-28284D01*
G01*
X15640000Y-9123431D02*
X15640000Y-8896569D01*
X15696569Y-8840000D02*
X15883431Y-8840000D01*
X15883431Y-9180000D02*
X15696569Y-9180000D01*
X15940000Y-8896569D02*
X15940000Y-9123431D01*
X15640000Y-8896569D02*
G75*
G02*
X15696569Y-8840000I28284J28284D01*
G01*
X15696569Y-9180000D02*
G75*
G02*
X15640000Y-9123431I-28284J28284D01*
G01*
X15883431Y-8840000D02*
G75*
G02*
X15940000Y-8896569I28284J-28284D01*
G01*
X15940000Y-9123431D02*
G75*
G02*
X15883431Y-9180000I-28284J-28284D01*
G01*
D12*
D13*
X12666000Y-6480000D02*
X12736000Y-6550000D01*
X12736000Y-6480000D02*
X12666000Y-6550000D01*
X13244000Y-6480000D02*
X13314000Y-6550000D01*
X13314000Y-6480000D02*
X13244000Y-6550000D01*
D14*
X10550000Y-6410000D02*
G75*
G02*
X10230000Y-6410000I-160000J0D01*
G01*
X10230000Y-6410000D02*
G75*
G02*
X10550000Y-6410000I160000J0D01*
G01*
X10550000Y-11610000D02*
G75*
G02*
X10230000Y-11610000I-160000J0D01*
G01*
X10230000Y-11610000D02*
G75*
G02*
X10550000Y-11610000I160000J0D01*
G01*
X15750000Y-6410000D02*
G75*
G02*
X15430000Y-6410000I-160000J0D01*
G01*
X15430000Y-6410000D02*
G75*
G02*
X15750000Y-6410000I160000J0D01*
G01*
X15750000Y-11610000D02*
G75*
G02*
X15430000Y-11610000I-160000J0D01*
G01*
X15430000Y-11610000D02*
G75*
G02*
X15750000Y-11610000I160000J0D01*
G01*
D12*
X10248277Y-12323984D02*
X10248277Y-12123984D01*
X10248277Y-12123984D02*
X10295896Y-12123984D01*
X10295896Y-12123984D02*
X10324467Y-12133508D01*
X10324467Y-12133508D02*
X10343515Y-12152555D01*
X10343515Y-12152555D02*
X10353039Y-12171603D01*
X10353039Y-12171603D02*
X10362563Y-12209698D01*
X10362563Y-12209698D02*
X10362563Y-12238269D01*
X10362563Y-12238269D02*
X10353039Y-12276365D01*
X10353039Y-12276365D02*
X10343515Y-12295412D01*
X10343515Y-12295412D02*
X10324467Y-12314460D01*
X10324467Y-12314460D02*
X10295896Y-12323984D01*
X10295896Y-12323984D02*
X10248277Y-12323984D01*
X10448277Y-12323984D02*
X10448277Y-12190650D01*
X10448277Y-12228746D02*
X10457801Y-12209698D01*
X10457801Y-12209698D02*
X10467324Y-12200174D01*
X10467324Y-12200174D02*
X10486372Y-12190650D01*
X10486372Y-12190650D02*
X10505420Y-12190650D01*
X10572086Y-12323984D02*
X10572086Y-12190650D01*
X10572086Y-12123984D02*
X10562563Y-12133508D01*
X10562563Y-12133508D02*
X10572086Y-12143031D01*
X10572086Y-12143031D02*
X10581610Y-12133508D01*
X10581610Y-12133508D02*
X10572086Y-12123984D01*
X10572086Y-12123984D02*
X10572086Y-12143031D01*
X10695896Y-12323984D02*
X10676848Y-12314460D01*
X10676848Y-12314460D02*
X10667324Y-12295412D01*
X10667324Y-12295412D02*
X10667324Y-12123984D01*
X10800658Y-12323984D02*
X10781610Y-12314460D01*
X10781610Y-12314460D02*
X10772086Y-12295412D01*
X10772086Y-12295412D02*
X10772086Y-12123984D01*
X11029229Y-12323984D02*
X11029229Y-12123984D01*
X11029229Y-12123984D02*
X11095896Y-12266841D01*
X11095896Y-12266841D02*
X11162563Y-12123984D01*
X11162563Y-12123984D02*
X11162563Y-12323984D01*
X11343515Y-12323984D02*
X11343515Y-12219222D01*
X11343515Y-12219222D02*
X11333991Y-12200174D01*
X11333991Y-12200174D02*
X11314943Y-12190650D01*
X11314943Y-12190650D02*
X11276848Y-12190650D01*
X11276848Y-12190650D02*
X11257801Y-12200174D01*
X11343515Y-12314460D02*
X11324467Y-12323984D01*
X11324467Y-12323984D02*
X11276848Y-12323984D01*
X11276848Y-12323984D02*
X11257801Y-12314460D01*
X11257801Y-12314460D02*
X11248277Y-12295412D01*
X11248277Y-12295412D02*
X11248277Y-12276365D01*
X11248277Y-12276365D02*
X11257801Y-12257317D01*
X11257801Y-12257317D02*
X11276848Y-12247793D01*
X11276848Y-12247793D02*
X11324467Y-12247793D01*
X11324467Y-12247793D02*
X11343515Y-12238269D01*
X11438753Y-12190650D02*
X11438753Y-12390650D01*
X11438753Y-12200174D02*
X11457801Y-12190650D01*
X11457801Y-12190650D02*
X11495896Y-12190650D01*
X11495896Y-12190650D02*
X11514943Y-12200174D01*
X11514943Y-12200174D02*
X11524467Y-12209698D01*
X11524467Y-12209698D02*
X11533991Y-12228746D01*
X11533991Y-12228746D02*
X11533991Y-12285888D01*
X11533991Y-12285888D02*
X11524467Y-12304936D01*
X11524467Y-12304936D02*
X11514943Y-12314460D01*
X11514943Y-12314460D02*
X11495896Y-12323984D01*
X11495896Y-12323984D02*
X11457801Y-12323984D01*
X11457801Y-12323984D02*
X11438753Y-12314460D01*
X11619705Y-12304936D02*
X11629229Y-12314460D01*
X11629229Y-12314460D02*
X11619705Y-12323984D01*
X11619705Y-12323984D02*
X11610182Y-12314460D01*
X11610182Y-12314460D02*
X11619705Y-12304936D01*
X11619705Y-12304936D02*
X11619705Y-12323984D01*
X11619705Y-12200174D02*
X11629229Y-12209698D01*
X11629229Y-12209698D02*
X11619705Y-12219222D01*
X11619705Y-12219222D02*
X11610182Y-12209698D01*
X11610182Y-12209698D02*
X11619705Y-12200174D01*
X11619705Y-12200174D02*
X11619705Y-12219222D01*
D13*
X9917500Y-12617500D02*
X9987500Y-12687500D01*
X9987500Y-12617500D02*
X9917500Y-12687500D01*
D12*
X10286372Y-12543984D02*
X10305420Y-12543984D01*
X10305420Y-12543984D02*
X10324467Y-12553508D01*
X10324467Y-12553508D02*
X10333991Y-12563031D01*
X10333991Y-12563031D02*
X10343515Y-12582079D01*
X10343515Y-12582079D02*
X10353039Y-12620174D01*
X10353039Y-12620174D02*
X10353039Y-12667793D01*
X10353039Y-12667793D02*
X10343515Y-12705888D01*
X10343515Y-12705888D02*
X10333991Y-12724936D01*
X10333991Y-12724936D02*
X10324467Y-12734460D01*
X10324467Y-12734460D02*
X10305420Y-12743984D01*
X10305420Y-12743984D02*
X10286372Y-12743984D01*
X10286372Y-12743984D02*
X10267324Y-12734460D01*
X10267324Y-12734460D02*
X10257801Y-12724936D01*
X10257801Y-12724936D02*
X10248277Y-12705888D01*
X10248277Y-12705888D02*
X10238753Y-12667793D01*
X10238753Y-12667793D02*
X10238753Y-12620174D01*
X10238753Y-12620174D02*
X10248277Y-12582079D01*
X10248277Y-12582079D02*
X10257801Y-12563031D01*
X10257801Y-12563031D02*
X10267324Y-12553508D01*
X10267324Y-12553508D02*
X10286372Y-12543984D01*
X10438753Y-12724936D02*
X10448277Y-12734460D01*
X10448277Y-12734460D02*
X10438753Y-12743984D01*
X10438753Y-12743984D02*
X10429229Y-12734460D01*
X10429229Y-12734460D02*
X10438753Y-12724936D01*
X10438753Y-12724936D02*
X10438753Y-12743984D01*
X10514944Y-12543984D02*
X10648277Y-12543984D01*
X10648277Y-12543984D02*
X10562563Y-12743984D01*
X10762563Y-12543984D02*
X10781610Y-12543984D01*
X10781610Y-12543984D02*
X10800658Y-12553508D01*
X10800658Y-12553508D02*
X10810182Y-12563031D01*
X10810182Y-12563031D02*
X10819705Y-12582079D01*
X10819705Y-12582079D02*
X10829229Y-12620174D01*
X10829229Y-12620174D02*
X10829229Y-12667793D01*
X10829229Y-12667793D02*
X10819705Y-12705888D01*
X10819705Y-12705888D02*
X10810182Y-12724936D01*
X10810182Y-12724936D02*
X10800658Y-12734460D01*
X10800658Y-12734460D02*
X10781610Y-12743984D01*
X10781610Y-12743984D02*
X10762563Y-12743984D01*
X10762563Y-12743984D02*
X10743515Y-12734460D01*
X10743515Y-12734460D02*
X10733991Y-12724936D01*
X10733991Y-12724936D02*
X10724467Y-12705888D01*
X10724467Y-12705888D02*
X10714944Y-12667793D01*
X10714944Y-12667793D02*
X10714944Y-12620174D01*
X10714944Y-12620174D02*
X10724467Y-12582079D01*
X10724467Y-12582079D02*
X10733991Y-12563031D01*
X10733991Y-12563031D02*
X10743515Y-12553508D01*
X10743515Y-12553508D02*
X10762563Y-12543984D01*
X10953039Y-12543984D02*
X10972086Y-12543984D01*
X10972086Y-12543984D02*
X10991134Y-12553508D01*
X10991134Y-12553508D02*
X11000658Y-12563031D01*
X11000658Y-12563031D02*
X11010182Y-12582079D01*
X11010182Y-12582079D02*
X11019705Y-12620174D01*
X11019705Y-12620174D02*
X11019705Y-12667793D01*
X11019705Y-12667793D02*
X11010182Y-12705888D01*
X11010182Y-12705888D02*
X11000658Y-12724936D01*
X11000658Y-12724936D02*
X10991134Y-12734460D01*
X10991134Y-12734460D02*
X10972086Y-12743984D01*
X10972086Y-12743984D02*
X10953039Y-12743984D01*
X10953039Y-12743984D02*
X10933991Y-12734460D01*
X10933991Y-12734460D02*
X10924467Y-12724936D01*
X10924467Y-12724936D02*
X10914944Y-12705888D01*
X10914944Y-12705888D02*
X10905420Y-12667793D01*
X10905420Y-12667793D02*
X10905420Y-12620174D01*
X10905420Y-12620174D02*
X10914944Y-12582079D01*
X10914944Y-12582079D02*
X10924467Y-12563031D01*
X10924467Y-12563031D02*
X10933991Y-12553508D01*
X10933991Y-12553508D02*
X10953039Y-12543984D01*
X11105420Y-12743984D02*
X11105420Y-12610650D01*
X11105420Y-12629698D02*
X11114944Y-12620174D01*
X11114944Y-12620174D02*
X11133991Y-12610650D01*
X11133991Y-12610650D02*
X11162563Y-12610650D01*
X11162563Y-12610650D02*
X11181610Y-12620174D01*
X11181610Y-12620174D02*
X11191134Y-12639222D01*
X11191134Y-12639222D02*
X11191134Y-12743984D01*
X11191134Y-12639222D02*
X11200658Y-12620174D01*
X11200658Y-12620174D02*
X11219705Y-12610650D01*
X11219705Y-12610650D02*
X11248277Y-12610650D01*
X11248277Y-12610650D02*
X11267324Y-12620174D01*
X11267324Y-12620174D02*
X11276848Y-12639222D01*
X11276848Y-12639222D02*
X11276848Y-12743984D01*
X11372086Y-12743984D02*
X11372086Y-12610650D01*
X11372086Y-12629698D02*
X11381610Y-12620174D01*
X11381610Y-12620174D02*
X11400658Y-12610650D01*
X11400658Y-12610650D02*
X11429229Y-12610650D01*
X11429229Y-12610650D02*
X11448277Y-12620174D01*
X11448277Y-12620174D02*
X11457801Y-12639222D01*
X11457801Y-12639222D02*
X11457801Y-12743984D01*
X11457801Y-12639222D02*
X11467324Y-12620174D01*
X11467324Y-12620174D02*
X11486372Y-12610650D01*
X11486372Y-12610650D02*
X11514943Y-12610650D01*
X11514943Y-12610650D02*
X11533991Y-12620174D01*
X11533991Y-12620174D02*
X11543515Y-12639222D01*
X11543515Y-12639222D02*
X11543515Y-12743984D01*
X11933991Y-12534460D02*
X11762563Y-12791603D01*
X12191134Y-12543984D02*
X12210182Y-12543984D01*
X12210182Y-12543984D02*
X12229229Y-12553508D01*
X12229229Y-12553508D02*
X12238753Y-12563031D01*
X12238753Y-12563031D02*
X12248277Y-12582079D01*
X12248277Y-12582079D02*
X12257801Y-12620174D01*
X12257801Y-12620174D02*
X12257801Y-12667793D01*
X12257801Y-12667793D02*
X12248277Y-12705888D01*
X12248277Y-12705888D02*
X12238753Y-12724936D01*
X12238753Y-12724936D02*
X12229229Y-12734460D01*
X12229229Y-12734460D02*
X12210182Y-12743984D01*
X12210182Y-12743984D02*
X12191134Y-12743984D01*
X12191134Y-12743984D02*
X12172086Y-12734460D01*
X12172086Y-12734460D02*
X12162563Y-12724936D01*
X12162563Y-12724936D02*
X12153039Y-12705888D01*
X12153039Y-12705888D02*
X12143515Y-12667793D01*
X12143515Y-12667793D02*
X12143515Y-12620174D01*
X12143515Y-12620174D02*
X12153039Y-12582079D01*
X12153039Y-12582079D02*
X12162563Y-12563031D01*
X12162563Y-12563031D02*
X12172086Y-12553508D01*
X12172086Y-12553508D02*
X12191134Y-12543984D01*
X12343515Y-12724936D02*
X12353039Y-12734460D01*
X12353039Y-12734460D02*
X12343515Y-12743984D01*
X12343515Y-12743984D02*
X12333991Y-12734460D01*
X12333991Y-12734460D02*
X12343515Y-12724936D01*
X12343515Y-12724936D02*
X12343515Y-12743984D01*
X12476848Y-12543984D02*
X12495896Y-12543984D01*
X12495896Y-12543984D02*
X12514944Y-12553508D01*
X12514944Y-12553508D02*
X12524467Y-12563031D01*
X12524467Y-12563031D02*
X12533991Y-12582079D01*
X12533991Y-12582079D02*
X12543515Y-12620174D01*
X12543515Y-12620174D02*
X12543515Y-12667793D01*
X12543515Y-12667793D02*
X12533991Y-12705888D01*
X12533991Y-12705888D02*
X12524467Y-12724936D01*
X12524467Y-12724936D02*
X12514944Y-12734460D01*
X12514944Y-12734460D02*
X12495896Y-12743984D01*
X12495896Y-12743984D02*
X12476848Y-12743984D01*
X12476848Y-12743984D02*
X12457801Y-12734460D01*
X12457801Y-12734460D02*
X12448277Y-12724936D01*
X12448277Y-12724936D02*
X12438753Y-12705888D01*
X12438753Y-12705888D02*
X12429229Y-12667793D01*
X12429229Y-12667793D02*
X12429229Y-12620174D01*
X12429229Y-12620174D02*
X12438753Y-12582079D01*
X12438753Y-12582079D02*
X12448277Y-12563031D01*
X12448277Y-12563031D02*
X12457801Y-12553508D01*
X12457801Y-12553508D02*
X12476848Y-12543984D01*
X12619706Y-12563031D02*
X12629229Y-12553508D01*
X12629229Y-12553508D02*
X12648277Y-12543984D01*
X12648277Y-12543984D02*
X12695896Y-12543984D01*
X12695896Y-12543984D02*
X12714944Y-12553508D01*
X12714944Y-12553508D02*
X12724467Y-12563031D01*
X12724467Y-12563031D02*
X12733991Y-12582079D01*
X12733991Y-12582079D02*
X12733991Y-12601127D01*
X12733991Y-12601127D02*
X12724467Y-12629698D01*
X12724467Y-12629698D02*
X12610182Y-12743984D01*
X12610182Y-12743984D02*
X12733991Y-12743984D01*
X12800658Y-12543984D02*
X12933991Y-12543984D01*
X12933991Y-12543984D02*
X12848277Y-12743984D01*
X13095896Y-12543984D02*
X13057801Y-12543984D01*
X13057801Y-12543984D02*
X13038753Y-12553508D01*
X13038753Y-12553508D02*
X13029229Y-12563031D01*
X13029229Y-12563031D02*
X13010182Y-12591603D01*
X13010182Y-12591603D02*
X13000658Y-12629698D01*
X13000658Y-12629698D02*
X13000658Y-12705888D01*
X13000658Y-12705888D02*
X13010182Y-12724936D01*
X13010182Y-12724936D02*
X13019706Y-12734460D01*
X13019706Y-12734460D02*
X13038753Y-12743984D01*
X13038753Y-12743984D02*
X13076848Y-12743984D01*
X13076848Y-12743984D02*
X13095896Y-12734460D01*
X13095896Y-12734460D02*
X13105420Y-12724936D01*
X13105420Y-12724936D02*
X13114944Y-12705888D01*
X13114944Y-12705888D02*
X13114944Y-12658269D01*
X13114944Y-12658269D02*
X13105420Y-12639222D01*
X13105420Y-12639222D02*
X13095896Y-12629698D01*
X13095896Y-12629698D02*
X13076848Y-12620174D01*
X13076848Y-12620174D02*
X13038753Y-12620174D01*
X13038753Y-12620174D02*
X13019706Y-12629698D01*
X13019706Y-12629698D02*
X13010182Y-12639222D01*
X13010182Y-12639222D02*
X13000658Y-12658269D01*
X13191134Y-12543984D02*
X13191134Y-12582079D01*
X13267325Y-12543984D02*
X13267325Y-12582079D01*
X13562563Y-12820174D02*
X13553039Y-12810650D01*
X13553039Y-12810650D02*
X13533991Y-12782079D01*
X13533991Y-12782079D02*
X13524468Y-12763031D01*
X13524468Y-12763031D02*
X13514944Y-12734460D01*
X13514944Y-12734460D02*
X13505420Y-12686841D01*
X13505420Y-12686841D02*
X13505420Y-12648746D01*
X13505420Y-12648746D02*
X13514944Y-12601127D01*
X13514944Y-12601127D02*
X13524468Y-12572555D01*
X13524468Y-12572555D02*
X13533991Y-12553508D01*
X13533991Y-12553508D02*
X13553039Y-12524936D01*
X13553039Y-12524936D02*
X13562563Y-12515412D01*
X13629229Y-12563031D02*
X13638753Y-12553508D01*
X13638753Y-12553508D02*
X13657801Y-12543984D01*
X13657801Y-12543984D02*
X13705420Y-12543984D01*
X13705420Y-12543984D02*
X13724468Y-12553508D01*
X13724468Y-12553508D02*
X13733991Y-12563031D01*
X13733991Y-12563031D02*
X13743515Y-12582079D01*
X13743515Y-12582079D02*
X13743515Y-12601127D01*
X13743515Y-12601127D02*
X13733991Y-12629698D01*
X13733991Y-12629698D02*
X13619706Y-12743984D01*
X13619706Y-12743984D02*
X13743515Y-12743984D01*
X13981610Y-12743984D02*
X13981610Y-12543984D01*
X14067325Y-12743984D02*
X14067325Y-12639222D01*
X14067325Y-12639222D02*
X14057801Y-12620174D01*
X14057801Y-12620174D02*
X14038753Y-12610650D01*
X14038753Y-12610650D02*
X14010182Y-12610650D01*
X14010182Y-12610650D02*
X13991134Y-12620174D01*
X13991134Y-12620174D02*
X13981610Y-12629698D01*
X14191134Y-12743984D02*
X14172087Y-12734460D01*
X14172087Y-12734460D02*
X14162563Y-12724936D01*
X14162563Y-12724936D02*
X14153039Y-12705888D01*
X14153039Y-12705888D02*
X14153039Y-12648746D01*
X14153039Y-12648746D02*
X14162563Y-12629698D01*
X14162563Y-12629698D02*
X14172087Y-12620174D01*
X14172087Y-12620174D02*
X14191134Y-12610650D01*
X14191134Y-12610650D02*
X14219706Y-12610650D01*
X14219706Y-12610650D02*
X14238753Y-12620174D01*
X14238753Y-12620174D02*
X14248277Y-12629698D01*
X14248277Y-12629698D02*
X14257801Y-12648746D01*
X14257801Y-12648746D02*
X14257801Y-12705888D01*
X14257801Y-12705888D02*
X14248277Y-12724936D01*
X14248277Y-12724936D02*
X14238753Y-12734460D01*
X14238753Y-12734460D02*
X14219706Y-12743984D01*
X14219706Y-12743984D02*
X14191134Y-12743984D01*
X14372087Y-12743984D02*
X14353039Y-12734460D01*
X14353039Y-12734460D02*
X14343515Y-12715412D01*
X14343515Y-12715412D02*
X14343515Y-12543984D01*
X14524468Y-12734460D02*
X14505420Y-12743984D01*
X14505420Y-12743984D02*
X14467325Y-12743984D01*
X14467325Y-12743984D02*
X14448277Y-12734460D01*
X14448277Y-12734460D02*
X14438753Y-12715412D01*
X14438753Y-12715412D02*
X14438753Y-12639222D01*
X14438753Y-12639222D02*
X14448277Y-12620174D01*
X14448277Y-12620174D02*
X14467325Y-12610650D01*
X14467325Y-12610650D02*
X14505420Y-12610650D01*
X14505420Y-12610650D02*
X14524468Y-12620174D01*
X14524468Y-12620174D02*
X14533991Y-12639222D01*
X14533991Y-12639222D02*
X14533991Y-12658269D01*
X14533991Y-12658269D02*
X14438753Y-12677317D01*
X14610182Y-12734460D02*
X14629230Y-12743984D01*
X14629230Y-12743984D02*
X14667325Y-12743984D01*
X14667325Y-12743984D02*
X14686372Y-12734460D01*
X14686372Y-12734460D02*
X14695896Y-12715412D01*
X14695896Y-12715412D02*
X14695896Y-12705888D01*
X14695896Y-12705888D02*
X14686372Y-12686841D01*
X14686372Y-12686841D02*
X14667325Y-12677317D01*
X14667325Y-12677317D02*
X14638753Y-12677317D01*
X14638753Y-12677317D02*
X14619706Y-12667793D01*
X14619706Y-12667793D02*
X14610182Y-12648746D01*
X14610182Y-12648746D02*
X14610182Y-12639222D01*
X14610182Y-12639222D02*
X14619706Y-12620174D01*
X14619706Y-12620174D02*
X14638753Y-12610650D01*
X14638753Y-12610650D02*
X14667325Y-12610650D01*
X14667325Y-12610650D02*
X14686372Y-12620174D01*
X14762563Y-12820174D02*
X14772087Y-12810650D01*
X14772087Y-12810650D02*
X14791134Y-12782079D01*
X14791134Y-12782079D02*
X14800658Y-12763031D01*
X14800658Y-12763031D02*
X14810182Y-12734460D01*
X14810182Y-12734460D02*
X14819706Y-12686841D01*
X14819706Y-12686841D02*
X14819706Y-12648746D01*
X14819706Y-12648746D02*
X14810182Y-12601127D01*
X14810182Y-12601127D02*
X14800658Y-12572555D01*
X14800658Y-12572555D02*
X14791134Y-12553508D01*
X14791134Y-12553508D02*
X14772087Y-12524936D01*
X14772087Y-12524936D02*
X14762563Y-12515412D01*
X15124468Y-12820174D02*
X15114944Y-12810650D01*
X15114944Y-12810650D02*
X15095896Y-12782079D01*
X15095896Y-12782079D02*
X15086372Y-12763031D01*
X15086372Y-12763031D02*
X15076849Y-12734460D01*
X15076849Y-12734460D02*
X15067325Y-12686841D01*
X15067325Y-12686841D02*
X15067325Y-12648746D01*
X15067325Y-12648746D02*
X15076849Y-12601127D01*
X15076849Y-12601127D02*
X15086372Y-12572555D01*
X15086372Y-12572555D02*
X15095896Y-12553508D01*
X15095896Y-12553508D02*
X15114944Y-12524936D01*
X15114944Y-12524936D02*
X15124468Y-12515412D01*
X15200658Y-12610650D02*
X15200658Y-12743984D01*
X15200658Y-12629698D02*
X15210182Y-12620174D01*
X15210182Y-12620174D02*
X15229230Y-12610650D01*
X15229230Y-12610650D02*
X15257801Y-12610650D01*
X15257801Y-12610650D02*
X15276849Y-12620174D01*
X15276849Y-12620174D02*
X15286372Y-12639222D01*
X15286372Y-12639222D02*
X15286372Y-12743984D01*
X15410182Y-12743984D02*
X15391134Y-12734460D01*
X15391134Y-12734460D02*
X15381611Y-12724936D01*
X15381611Y-12724936D02*
X15372087Y-12705888D01*
X15372087Y-12705888D02*
X15372087Y-12648746D01*
X15372087Y-12648746D02*
X15381611Y-12629698D01*
X15381611Y-12629698D02*
X15391134Y-12620174D01*
X15391134Y-12620174D02*
X15410182Y-12610650D01*
X15410182Y-12610650D02*
X15438753Y-12610650D01*
X15438753Y-12610650D02*
X15457801Y-12620174D01*
X15457801Y-12620174D02*
X15467325Y-12629698D01*
X15467325Y-12629698D02*
X15476849Y-12648746D01*
X15476849Y-12648746D02*
X15476849Y-12705888D01*
X15476849Y-12705888D02*
X15467325Y-12724936D01*
X15467325Y-12724936D02*
X15457801Y-12734460D01*
X15457801Y-12734460D02*
X15438753Y-12743984D01*
X15438753Y-12743984D02*
X15410182Y-12743984D01*
X15533992Y-12610650D02*
X15610182Y-12610650D01*
X15562563Y-12543984D02*
X15562563Y-12715412D01*
X15562563Y-12715412D02*
X15572087Y-12734460D01*
X15572087Y-12734460D02*
X15591134Y-12743984D01*
X15591134Y-12743984D02*
X15610182Y-12743984D01*
X15829230Y-12610650D02*
X15829230Y-12810650D01*
X15829230Y-12620174D02*
X15848277Y-12610650D01*
X15848277Y-12610650D02*
X15886373Y-12610650D01*
X15886373Y-12610650D02*
X15905420Y-12620174D01*
X15905420Y-12620174D02*
X15914944Y-12629698D01*
X15914944Y-12629698D02*
X15924468Y-12648746D01*
X15924468Y-12648746D02*
X15924468Y-12705888D01*
X15924468Y-12705888D02*
X15914944Y-12724936D01*
X15914944Y-12724936D02*
X15905420Y-12734460D01*
X15905420Y-12734460D02*
X15886373Y-12743984D01*
X15886373Y-12743984D02*
X15848277Y-12743984D01*
X15848277Y-12743984D02*
X15829230Y-12734460D01*
X16038753Y-12743984D02*
X16019706Y-12734460D01*
X16019706Y-12734460D02*
X16010182Y-12715412D01*
X16010182Y-12715412D02*
X16010182Y-12543984D01*
X16200658Y-12743984D02*
X16200658Y-12639222D01*
X16200658Y-12639222D02*
X16191134Y-12620174D01*
X16191134Y-12620174D02*
X16172087Y-12610650D01*
X16172087Y-12610650D02*
X16133992Y-12610650D01*
X16133992Y-12610650D02*
X16114944Y-12620174D01*
X16200658Y-12734460D02*
X16181611Y-12743984D01*
X16181611Y-12743984D02*
X16133992Y-12743984D01*
X16133992Y-12743984D02*
X16114944Y-12734460D01*
X16114944Y-12734460D02*
X16105420Y-12715412D01*
X16105420Y-12715412D02*
X16105420Y-12696365D01*
X16105420Y-12696365D02*
X16114944Y-12677317D01*
X16114944Y-12677317D02*
X16133992Y-12667793D01*
X16133992Y-12667793D02*
X16181611Y-12667793D01*
X16181611Y-12667793D02*
X16200658Y-12658269D01*
X16267325Y-12610650D02*
X16343515Y-12610650D01*
X16295896Y-12543984D02*
X16295896Y-12715412D01*
X16295896Y-12715412D02*
X16305420Y-12734460D01*
X16305420Y-12734460D02*
X16324468Y-12743984D01*
X16324468Y-12743984D02*
X16343515Y-12743984D01*
X16486373Y-12734460D02*
X16467325Y-12743984D01*
X16467325Y-12743984D02*
X16429230Y-12743984D01*
X16429230Y-12743984D02*
X16410182Y-12734460D01*
X16410182Y-12734460D02*
X16400658Y-12715412D01*
X16400658Y-12715412D02*
X16400658Y-12639222D01*
X16400658Y-12639222D02*
X16410182Y-12620174D01*
X16410182Y-12620174D02*
X16429230Y-12610650D01*
X16429230Y-12610650D02*
X16467325Y-12610650D01*
X16467325Y-12610650D02*
X16486373Y-12620174D01*
X16486373Y-12620174D02*
X16495896Y-12639222D01*
X16495896Y-12639222D02*
X16495896Y-12658269D01*
X16495896Y-12658269D02*
X16400658Y-12677317D01*
X16667325Y-12743984D02*
X16667325Y-12543984D01*
X16667325Y-12734460D02*
X16648277Y-12743984D01*
X16648277Y-12743984D02*
X16610182Y-12743984D01*
X16610182Y-12743984D02*
X16591134Y-12734460D01*
X16591134Y-12734460D02*
X16581611Y-12724936D01*
X16581611Y-12724936D02*
X16572087Y-12705888D01*
X16572087Y-12705888D02*
X16572087Y-12648746D01*
X16572087Y-12648746D02*
X16581611Y-12629698D01*
X16581611Y-12629698D02*
X16591134Y-12620174D01*
X16591134Y-12620174D02*
X16610182Y-12610650D01*
X16610182Y-12610650D02*
X16648277Y-12610650D01*
X16648277Y-12610650D02*
X16667325Y-12620174D01*
X16743515Y-12820174D02*
X16753039Y-12810650D01*
X16753039Y-12810650D02*
X16772087Y-12782079D01*
X16772087Y-12782079D02*
X16781611Y-12763031D01*
X16781611Y-12763031D02*
X16791135Y-12734460D01*
X16791135Y-12734460D02*
X16800658Y-12686841D01*
X16800658Y-12686841D02*
X16800658Y-12648746D01*
X16800658Y-12648746D02*
X16791135Y-12601127D01*
X16791135Y-12601127D02*
X16781611Y-12572555D01*
X16781611Y-12572555D02*
X16772087Y-12553508D01*
X16772087Y-12553508D02*
X16753039Y-12524936D01*
X16753039Y-12524936D02*
X16743515Y-12515412D01*
X9987500Y-12916500D02*
G75*
G02*
X9787500Y-12916500I-100000J0D01*
G01*
X9787500Y-12916500D02*
G75*
G02*
X9987500Y-12916500I100000J0D01*
G01*
X10229229Y-12807984D02*
X10353039Y-12807984D01*
X10353039Y-12807984D02*
X10286372Y-12884174D01*
X10286372Y-12884174D02*
X10314944Y-12884174D01*
X10314944Y-12884174D02*
X10333991Y-12893698D01*
X10333991Y-12893698D02*
X10343515Y-12903222D01*
X10343515Y-12903222D02*
X10353039Y-12922269D01*
X10353039Y-12922269D02*
X10353039Y-12969888D01*
X10353039Y-12969888D02*
X10343515Y-12988936D01*
X10343515Y-12988936D02*
X10333991Y-12998460D01*
X10333991Y-12998460D02*
X10314944Y-13007984D01*
X10314944Y-13007984D02*
X10257801Y-13007984D01*
X10257801Y-13007984D02*
X10238753Y-12998460D01*
X10238753Y-12998460D02*
X10229229Y-12988936D01*
X10438753Y-12988936D02*
X10448277Y-12998460D01*
X10448277Y-12998460D02*
X10438753Y-13007984D01*
X10438753Y-13007984D02*
X10429229Y-12998460D01*
X10429229Y-12998460D02*
X10438753Y-12988936D01*
X10438753Y-12988936D02*
X10438753Y-13007984D01*
X10524467Y-12827031D02*
X10533991Y-12817508D01*
X10533991Y-12817508D02*
X10553039Y-12807984D01*
X10553039Y-12807984D02*
X10600658Y-12807984D01*
X10600658Y-12807984D02*
X10619705Y-12817508D01*
X10619705Y-12817508D02*
X10629229Y-12827031D01*
X10629229Y-12827031D02*
X10638753Y-12846079D01*
X10638753Y-12846079D02*
X10638753Y-12865127D01*
X10638753Y-12865127D02*
X10629229Y-12893698D01*
X10629229Y-12893698D02*
X10514944Y-13007984D01*
X10514944Y-13007984D02*
X10638753Y-13007984D01*
X10762563Y-12807984D02*
X10781610Y-12807984D01*
X10781610Y-12807984D02*
X10800658Y-12817508D01*
X10800658Y-12817508D02*
X10810182Y-12827031D01*
X10810182Y-12827031D02*
X10819705Y-12846079D01*
X10819705Y-12846079D02*
X10829229Y-12884174D01*
X10829229Y-12884174D02*
X10829229Y-12931793D01*
X10829229Y-12931793D02*
X10819705Y-12969888D01*
X10819705Y-12969888D02*
X10810182Y-12988936D01*
X10810182Y-12988936D02*
X10800658Y-12998460D01*
X10800658Y-12998460D02*
X10781610Y-13007984D01*
X10781610Y-13007984D02*
X10762563Y-13007984D01*
X10762563Y-13007984D02*
X10743515Y-12998460D01*
X10743515Y-12998460D02*
X10733991Y-12988936D01*
X10733991Y-12988936D02*
X10724467Y-12969888D01*
X10724467Y-12969888D02*
X10714944Y-12931793D01*
X10714944Y-12931793D02*
X10714944Y-12884174D01*
X10714944Y-12884174D02*
X10724467Y-12846079D01*
X10724467Y-12846079D02*
X10733991Y-12827031D01*
X10733991Y-12827031D02*
X10743515Y-12817508D01*
X10743515Y-12817508D02*
X10762563Y-12807984D01*
X10953039Y-12807984D02*
X10972086Y-12807984D01*
X10972086Y-12807984D02*
X10991134Y-12817508D01*
X10991134Y-12817508D02*
X11000658Y-12827031D01*
X11000658Y-12827031D02*
X11010182Y-12846079D01*
X11010182Y-12846079D02*
X11019705Y-12884174D01*
X11019705Y-12884174D02*
X11019705Y-12931793D01*
X11019705Y-12931793D02*
X11010182Y-12969888D01*
X11010182Y-12969888D02*
X11000658Y-12988936D01*
X11000658Y-12988936D02*
X10991134Y-12998460D01*
X10991134Y-12998460D02*
X10972086Y-13007984D01*
X10972086Y-13007984D02*
X10953039Y-13007984D01*
X10953039Y-13007984D02*
X10933991Y-12998460D01*
X10933991Y-12998460D02*
X10924467Y-12988936D01*
X10924467Y-12988936D02*
X10914944Y-12969888D01*
X10914944Y-12969888D02*
X10905420Y-12931793D01*
X10905420Y-12931793D02*
X10905420Y-12884174D01*
X10905420Y-12884174D02*
X10914944Y-12846079D01*
X10914944Y-12846079D02*
X10924467Y-12827031D01*
X10924467Y-12827031D02*
X10933991Y-12817508D01*
X10933991Y-12817508D02*
X10953039Y-12807984D01*
X11105420Y-13007984D02*
X11105420Y-12874650D01*
X11105420Y-12893698D02*
X11114944Y-12884174D01*
X11114944Y-12884174D02*
X11133991Y-12874650D01*
X11133991Y-12874650D02*
X11162563Y-12874650D01*
X11162563Y-12874650D02*
X11181610Y-12884174D01*
X11181610Y-12884174D02*
X11191134Y-12903222D01*
X11191134Y-12903222D02*
X11191134Y-13007984D01*
X11191134Y-12903222D02*
X11200658Y-12884174D01*
X11200658Y-12884174D02*
X11219705Y-12874650D01*
X11219705Y-12874650D02*
X11248277Y-12874650D01*
X11248277Y-12874650D02*
X11267324Y-12884174D01*
X11267324Y-12884174D02*
X11276848Y-12903222D01*
X11276848Y-12903222D02*
X11276848Y-13007984D01*
X11372086Y-13007984D02*
X11372086Y-12874650D01*
X11372086Y-12893698D02*
X11381610Y-12884174D01*
X11381610Y-12884174D02*
X11400658Y-12874650D01*
X11400658Y-12874650D02*
X11429229Y-12874650D01*
X11429229Y-12874650D02*
X11448277Y-12884174D01*
X11448277Y-12884174D02*
X11457801Y-12903222D01*
X11457801Y-12903222D02*
X11457801Y-13007984D01*
X11457801Y-12903222D02*
X11467324Y-12884174D01*
X11467324Y-12884174D02*
X11486372Y-12874650D01*
X11486372Y-12874650D02*
X11514943Y-12874650D01*
X11514943Y-12874650D02*
X11533991Y-12884174D01*
X11533991Y-12884174D02*
X11543515Y-12903222D01*
X11543515Y-12903222D02*
X11543515Y-13007984D01*
X11933991Y-12798460D02*
X11762563Y-13055603D01*
X12191134Y-12807984D02*
X12210182Y-12807984D01*
X12210182Y-12807984D02*
X12229229Y-12817508D01*
X12229229Y-12817508D02*
X12238753Y-12827031D01*
X12238753Y-12827031D02*
X12248277Y-12846079D01*
X12248277Y-12846079D02*
X12257801Y-12884174D01*
X12257801Y-12884174D02*
X12257801Y-12931793D01*
X12257801Y-12931793D02*
X12248277Y-12969888D01*
X12248277Y-12969888D02*
X12238753Y-12988936D01*
X12238753Y-12988936D02*
X12229229Y-12998460D01*
X12229229Y-12998460D02*
X12210182Y-13007984D01*
X12210182Y-13007984D02*
X12191134Y-13007984D01*
X12191134Y-13007984D02*
X12172086Y-12998460D01*
X12172086Y-12998460D02*
X12162563Y-12988936D01*
X12162563Y-12988936D02*
X12153039Y-12969888D01*
X12153039Y-12969888D02*
X12143515Y-12931793D01*
X12143515Y-12931793D02*
X12143515Y-12884174D01*
X12143515Y-12884174D02*
X12153039Y-12846079D01*
X12153039Y-12846079D02*
X12162563Y-12827031D01*
X12162563Y-12827031D02*
X12172086Y-12817508D01*
X12172086Y-12817508D02*
X12191134Y-12807984D01*
X12343515Y-12988936D02*
X12353039Y-12998460D01*
X12353039Y-12998460D02*
X12343515Y-13007984D01*
X12343515Y-13007984D02*
X12333991Y-12998460D01*
X12333991Y-12998460D02*
X12343515Y-12988936D01*
X12343515Y-12988936D02*
X12343515Y-13007984D01*
X12543515Y-13007984D02*
X12429229Y-13007984D01*
X12486372Y-13007984D02*
X12486372Y-12807984D01*
X12486372Y-12807984D02*
X12467325Y-12836555D01*
X12467325Y-12836555D02*
X12448277Y-12855603D01*
X12448277Y-12855603D02*
X12429229Y-12865127D01*
X12619706Y-12827031D02*
X12629229Y-12817508D01*
X12629229Y-12817508D02*
X12648277Y-12807984D01*
X12648277Y-12807984D02*
X12695896Y-12807984D01*
X12695896Y-12807984D02*
X12714944Y-12817508D01*
X12714944Y-12817508D02*
X12724467Y-12827031D01*
X12724467Y-12827031D02*
X12733991Y-12846079D01*
X12733991Y-12846079D02*
X12733991Y-12865127D01*
X12733991Y-12865127D02*
X12724467Y-12893698D01*
X12724467Y-12893698D02*
X12610182Y-13007984D01*
X12610182Y-13007984D02*
X12733991Y-13007984D01*
X12905420Y-12807984D02*
X12867325Y-12807984D01*
X12867325Y-12807984D02*
X12848277Y-12817508D01*
X12848277Y-12817508D02*
X12838753Y-12827031D01*
X12838753Y-12827031D02*
X12819706Y-12855603D01*
X12819706Y-12855603D02*
X12810182Y-12893698D01*
X12810182Y-12893698D02*
X12810182Y-12969888D01*
X12810182Y-12969888D02*
X12819706Y-12988936D01*
X12819706Y-12988936D02*
X12829229Y-12998460D01*
X12829229Y-12998460D02*
X12848277Y-13007984D01*
X12848277Y-13007984D02*
X12886372Y-13007984D01*
X12886372Y-13007984D02*
X12905420Y-12998460D01*
X12905420Y-12998460D02*
X12914944Y-12988936D01*
X12914944Y-12988936D02*
X12924467Y-12969888D01*
X12924467Y-12969888D02*
X12924467Y-12922269D01*
X12924467Y-12922269D02*
X12914944Y-12903222D01*
X12914944Y-12903222D02*
X12905420Y-12893698D01*
X12905420Y-12893698D02*
X12886372Y-12884174D01*
X12886372Y-12884174D02*
X12848277Y-12884174D01*
X12848277Y-12884174D02*
X12829229Y-12893698D01*
X12829229Y-12893698D02*
X12819706Y-12903222D01*
X12819706Y-12903222D02*
X12810182Y-12922269D01*
X13048277Y-12807984D02*
X13067325Y-12807984D01*
X13067325Y-12807984D02*
X13086372Y-12817508D01*
X13086372Y-12817508D02*
X13095896Y-12827031D01*
X13095896Y-12827031D02*
X13105420Y-12846079D01*
X13105420Y-12846079D02*
X13114944Y-12884174D01*
X13114944Y-12884174D02*
X13114944Y-12931793D01*
X13114944Y-12931793D02*
X13105420Y-12969888D01*
X13105420Y-12969888D02*
X13095896Y-12988936D01*
X13095896Y-12988936D02*
X13086372Y-12998460D01*
X13086372Y-12998460D02*
X13067325Y-13007984D01*
X13067325Y-13007984D02*
X13048277Y-13007984D01*
X13048277Y-13007984D02*
X13029229Y-12998460D01*
X13029229Y-12998460D02*
X13019706Y-12988936D01*
X13019706Y-12988936D02*
X13010182Y-12969888D01*
X13010182Y-12969888D02*
X13000658Y-12931793D01*
X13000658Y-12931793D02*
X13000658Y-12884174D01*
X13000658Y-12884174D02*
X13010182Y-12846079D01*
X13010182Y-12846079D02*
X13019706Y-12827031D01*
X13019706Y-12827031D02*
X13029229Y-12817508D01*
X13029229Y-12817508D02*
X13048277Y-12807984D01*
X13191134Y-12807984D02*
X13191134Y-12846079D01*
X13267325Y-12807984D02*
X13267325Y-12846079D01*
X13562563Y-13084174D02*
X13553039Y-13074650D01*
X13553039Y-13074650D02*
X13533991Y-13046079D01*
X13533991Y-13046079D02*
X13524468Y-13027031D01*
X13524468Y-13027031D02*
X13514944Y-12998460D01*
X13514944Y-12998460D02*
X13505420Y-12950841D01*
X13505420Y-12950841D02*
X13505420Y-12912746D01*
X13505420Y-12912746D02*
X13514944Y-12865127D01*
X13514944Y-12865127D02*
X13524468Y-12836555D01*
X13524468Y-12836555D02*
X13533991Y-12817508D01*
X13533991Y-12817508D02*
X13553039Y-12788936D01*
X13553039Y-12788936D02*
X13562563Y-12779412D01*
X13724468Y-12874650D02*
X13724468Y-13007984D01*
X13676848Y-12798460D02*
X13629229Y-12941317D01*
X13629229Y-12941317D02*
X13753039Y-12941317D01*
X13981610Y-13007984D02*
X13981610Y-12807984D01*
X14067325Y-13007984D02*
X14067325Y-12903222D01*
X14067325Y-12903222D02*
X14057801Y-12884174D01*
X14057801Y-12884174D02*
X14038753Y-12874650D01*
X14038753Y-12874650D02*
X14010182Y-12874650D01*
X14010182Y-12874650D02*
X13991134Y-12884174D01*
X13991134Y-12884174D02*
X13981610Y-12893698D01*
X14191134Y-13007984D02*
X14172087Y-12998460D01*
X14172087Y-12998460D02*
X14162563Y-12988936D01*
X14162563Y-12988936D02*
X14153039Y-12969888D01*
X14153039Y-12969888D02*
X14153039Y-12912746D01*
X14153039Y-12912746D02*
X14162563Y-12893698D01*
X14162563Y-12893698D02*
X14172087Y-12884174D01*
X14172087Y-12884174D02*
X14191134Y-12874650D01*
X14191134Y-12874650D02*
X14219706Y-12874650D01*
X14219706Y-12874650D02*
X14238753Y-12884174D01*
X14238753Y-12884174D02*
X14248277Y-12893698D01*
X14248277Y-12893698D02*
X14257801Y-12912746D01*
X14257801Y-12912746D02*
X14257801Y-12969888D01*
X14257801Y-12969888D02*
X14248277Y-12988936D01*
X14248277Y-12988936D02*
X14238753Y-12998460D01*
X14238753Y-12998460D02*
X14219706Y-13007984D01*
X14219706Y-13007984D02*
X14191134Y-13007984D01*
X14372087Y-13007984D02*
X14353039Y-12998460D01*
X14353039Y-12998460D02*
X14343515Y-12979412D01*
X14343515Y-12979412D02*
X14343515Y-12807984D01*
X14524468Y-12998460D02*
X14505420Y-13007984D01*
X14505420Y-13007984D02*
X14467325Y-13007984D01*
X14467325Y-13007984D02*
X14448277Y-12998460D01*
X14448277Y-12998460D02*
X14438753Y-12979412D01*
X14438753Y-12979412D02*
X14438753Y-12903222D01*
X14438753Y-12903222D02*
X14448277Y-12884174D01*
X14448277Y-12884174D02*
X14467325Y-12874650D01*
X14467325Y-12874650D02*
X14505420Y-12874650D01*
X14505420Y-12874650D02*
X14524468Y-12884174D01*
X14524468Y-12884174D02*
X14533991Y-12903222D01*
X14533991Y-12903222D02*
X14533991Y-12922269D01*
X14533991Y-12922269D02*
X14438753Y-12941317D01*
X14610182Y-12998460D02*
X14629230Y-13007984D01*
X14629230Y-13007984D02*
X14667325Y-13007984D01*
X14667325Y-13007984D02*
X14686372Y-12998460D01*
X14686372Y-12998460D02*
X14695896Y-12979412D01*
X14695896Y-12979412D02*
X14695896Y-12969888D01*
X14695896Y-12969888D02*
X14686372Y-12950841D01*
X14686372Y-12950841D02*
X14667325Y-12941317D01*
X14667325Y-12941317D02*
X14638753Y-12941317D01*
X14638753Y-12941317D02*
X14619706Y-12931793D01*
X14619706Y-12931793D02*
X14610182Y-12912746D01*
X14610182Y-12912746D02*
X14610182Y-12903222D01*
X14610182Y-12903222D02*
X14619706Y-12884174D01*
X14619706Y-12884174D02*
X14638753Y-12874650D01*
X14638753Y-12874650D02*
X14667325Y-12874650D01*
X14667325Y-12874650D02*
X14686372Y-12884174D01*
X14762563Y-13084174D02*
X14772087Y-13074650D01*
X14772087Y-13074650D02*
X14791134Y-13046079D01*
X14791134Y-13046079D02*
X14800658Y-13027031D01*
X14800658Y-13027031D02*
X14810182Y-12998460D01*
X14810182Y-12998460D02*
X14819706Y-12950841D01*
X14819706Y-12950841D02*
X14819706Y-12912746D01*
X14819706Y-12912746D02*
X14810182Y-12865127D01*
X14810182Y-12865127D02*
X14800658Y-12836555D01*
X14800658Y-12836555D02*
X14791134Y-12817508D01*
X14791134Y-12817508D02*
X14772087Y-12788936D01*
X14772087Y-12788936D02*
X14762563Y-12779412D01*
X15124468Y-13084174D02*
X15114944Y-13074650D01*
X15114944Y-13074650D02*
X15095896Y-13046079D01*
X15095896Y-13046079D02*
X15086372Y-13027031D01*
X15086372Y-13027031D02*
X15076849Y-12998460D01*
X15076849Y-12998460D02*
X15067325Y-12950841D01*
X15067325Y-12950841D02*
X15067325Y-12912746D01*
X15067325Y-12912746D02*
X15076849Y-12865127D01*
X15076849Y-12865127D02*
X15086372Y-12836555D01*
X15086372Y-12836555D02*
X15095896Y-12817508D01*
X15095896Y-12817508D02*
X15114944Y-12788936D01*
X15114944Y-12788936D02*
X15124468Y-12779412D01*
X15200658Y-12874650D02*
X15200658Y-13007984D01*
X15200658Y-12893698D02*
X15210182Y-12884174D01*
X15210182Y-12884174D02*
X15229230Y-12874650D01*
X15229230Y-12874650D02*
X15257801Y-12874650D01*
X15257801Y-12874650D02*
X15276849Y-12884174D01*
X15276849Y-12884174D02*
X15286372Y-12903222D01*
X15286372Y-12903222D02*
X15286372Y-13007984D01*
X15410182Y-13007984D02*
X15391134Y-12998460D01*
X15391134Y-12998460D02*
X15381611Y-12988936D01*
X15381611Y-12988936D02*
X15372087Y-12969888D01*
X15372087Y-12969888D02*
X15372087Y-12912746D01*
X15372087Y-12912746D02*
X15381611Y-12893698D01*
X15381611Y-12893698D02*
X15391134Y-12884174D01*
X15391134Y-12884174D02*
X15410182Y-12874650D01*
X15410182Y-12874650D02*
X15438753Y-12874650D01*
X15438753Y-12874650D02*
X15457801Y-12884174D01*
X15457801Y-12884174D02*
X15467325Y-12893698D01*
X15467325Y-12893698D02*
X15476849Y-12912746D01*
X15476849Y-12912746D02*
X15476849Y-12969888D01*
X15476849Y-12969888D02*
X15467325Y-12988936D01*
X15467325Y-12988936D02*
X15457801Y-12998460D01*
X15457801Y-12998460D02*
X15438753Y-13007984D01*
X15438753Y-13007984D02*
X15410182Y-13007984D01*
X15533992Y-12874650D02*
X15610182Y-12874650D01*
X15562563Y-12807984D02*
X15562563Y-12979412D01*
X15562563Y-12979412D02*
X15572087Y-12998460D01*
X15572087Y-12998460D02*
X15591134Y-13007984D01*
X15591134Y-13007984D02*
X15610182Y-13007984D01*
X15829230Y-12874650D02*
X15829230Y-13074650D01*
X15829230Y-12884174D02*
X15848277Y-12874650D01*
X15848277Y-12874650D02*
X15886373Y-12874650D01*
X15886373Y-12874650D02*
X15905420Y-12884174D01*
X15905420Y-12884174D02*
X15914944Y-12893698D01*
X15914944Y-12893698D02*
X15924468Y-12912746D01*
X15924468Y-12912746D02*
X15924468Y-12969888D01*
X15924468Y-12969888D02*
X15914944Y-12988936D01*
X15914944Y-12988936D02*
X15905420Y-12998460D01*
X15905420Y-12998460D02*
X15886373Y-13007984D01*
X15886373Y-13007984D02*
X15848277Y-13007984D01*
X15848277Y-13007984D02*
X15829230Y-12998460D01*
X16038753Y-13007984D02*
X16019706Y-12998460D01*
X16019706Y-12998460D02*
X16010182Y-12979412D01*
X16010182Y-12979412D02*
X16010182Y-12807984D01*
X16200658Y-13007984D02*
X16200658Y-12903222D01*
X16200658Y-12903222D02*
X16191134Y-12884174D01*
X16191134Y-12884174D02*
X16172087Y-12874650D01*
X16172087Y-12874650D02*
X16133992Y-12874650D01*
X16133992Y-12874650D02*
X16114944Y-12884174D01*
X16200658Y-12998460D02*
X16181611Y-13007984D01*
X16181611Y-13007984D02*
X16133992Y-13007984D01*
X16133992Y-13007984D02*
X16114944Y-12998460D01*
X16114944Y-12998460D02*
X16105420Y-12979412D01*
X16105420Y-12979412D02*
X16105420Y-12960365D01*
X16105420Y-12960365D02*
X16114944Y-12941317D01*
X16114944Y-12941317D02*
X16133992Y-12931793D01*
X16133992Y-12931793D02*
X16181611Y-12931793D01*
X16181611Y-12931793D02*
X16200658Y-12922269D01*
X16267325Y-12874650D02*
X16343515Y-12874650D01*
X16295896Y-12807984D02*
X16295896Y-12979412D01*
X16295896Y-12979412D02*
X16305420Y-12998460D01*
X16305420Y-12998460D02*
X16324468Y-13007984D01*
X16324468Y-13007984D02*
X16343515Y-13007984D01*
X16486373Y-12998460D02*
X16467325Y-13007984D01*
X16467325Y-13007984D02*
X16429230Y-13007984D01*
X16429230Y-13007984D02*
X16410182Y-12998460D01*
X16410182Y-12998460D02*
X16400658Y-12979412D01*
X16400658Y-12979412D02*
X16400658Y-12903222D01*
X16400658Y-12903222D02*
X16410182Y-12884174D01*
X16410182Y-12884174D02*
X16429230Y-12874650D01*
X16429230Y-12874650D02*
X16467325Y-12874650D01*
X16467325Y-12874650D02*
X16486373Y-12884174D01*
X16486373Y-12884174D02*
X16495896Y-12903222D01*
X16495896Y-12903222D02*
X16495896Y-12922269D01*
X16495896Y-12922269D02*
X16400658Y-12941317D01*
X16667325Y-13007984D02*
X16667325Y-12807984D01*
X16667325Y-12998460D02*
X16648277Y-13007984D01*
X16648277Y-13007984D02*
X16610182Y-13007984D01*
X16610182Y-13007984D02*
X16591134Y-12998460D01*
X16591134Y-12998460D02*
X16581611Y-12988936D01*
X16581611Y-12988936D02*
X16572087Y-12969888D01*
X16572087Y-12969888D02*
X16572087Y-12912746D01*
X16572087Y-12912746D02*
X16581611Y-12893698D01*
X16581611Y-12893698D02*
X16591134Y-12884174D01*
X16591134Y-12884174D02*
X16610182Y-12874650D01*
X16610182Y-12874650D02*
X16648277Y-12874650D01*
X16648277Y-12874650D02*
X16667325Y-12884174D01*
X16743515Y-13084174D02*
X16753039Y-13074650D01*
X16753039Y-13074650D02*
X16772087Y-13046079D01*
X16772087Y-13046079D02*
X16781611Y-13027031D01*
X16781611Y-13027031D02*
X16791135Y-12998460D01*
X16791135Y-12998460D02*
X16800658Y-12950841D01*
X16800658Y-12950841D02*
X16800658Y-12912746D01*
X16800658Y-12912746D02*
X16791135Y-12865127D01*
X16791135Y-12865127D02*
X16781611Y-12836555D01*
X16781611Y-12836555D02*
X16772087Y-12817508D01*
X16772087Y-12817508D02*
X16753039Y-12788936D01*
X16753039Y-12788936D02*
X16743515Y-12779412D01*
M02*
