M48
; DRILL file {KiCad 8.0.7} date 2025-03-27T17:00:38+0100
; FORMAT={-:-/ absolute / inch / decimal}
; #@! TF.CreationDate,2025-03-27T17:00:38+01:00
; #@! TF.GenerationSoftware,Kicad,Pcbnew,8.0.7
; #@! TF.FileFunction,Plated,1,4,PTH
FMAT,2
INCH
; #@! TA.AperFunction,Plated,PTH,ViaDrill
T1C0.0118
; #@! TA.AperFunction,Plated,PTH,ViaDrill
T2C0.0138
; #@! TA.AperFunction,Plated,PTH,ComponentDrill
T3C0.0138
; #@! TA.AperFunction,Plated,PTH,ComponentDrill
T4C0.0256
; #@! TA.AperFunction,Plated,PTH,ComponentDrill
T5C0.0394
%
G90
G05
T1
X3.9862Y-3.9862
X3.9961Y-3.3268
X4.0Y-3.0709
X4.002Y-3.7106
X4.0197Y-3.6772
X4.0256Y-3.2972
X4.0256Y-3.9567
X4.0315Y-3.1299
X4.0433Y-4.0
X4.0453Y-3.7795
X4.0551Y-2.7264
X4.0551Y-3.3858
X4.0551Y-4.3425
X4.061Y-3.0571
X4.0984Y-3.189
X4.1024Y-2.7126
X4.1102Y-3.0433
X4.1142Y-3.1063
X4.1181Y-4.3543
X4.1181Y-4.3937
X4.1358Y-3.2087
X4.1437Y-3.3858
X4.1443Y-3.7795
X4.1443Y-4.0354
X4.1457Y-3.5787
X4.1516Y-3.5118
X4.1575Y-3.0118
X4.1575Y-3.6457
X4.1614Y-3.185
X4.1683Y-4.1585
X4.1825Y-3.3858
X4.1825Y-4.0354
X4.1831Y-3.2972
X4.189Y-3.2087
X4.1998Y-3.6417
X4.2028Y-3.3268
X4.2047Y-4.4252
X4.2106Y-3.185
X4.2146Y-2.8543
X4.2165Y-2.7677
X4.2165Y-4.2028
X4.2185Y-4.3169
X4.2224Y-2.6181
X4.2224Y-3.2972
X4.2264Y-3.7343
X4.2323Y-3.563
X4.2323Y-4.5748
X4.2343Y-3.4882
X4.2421Y-3.3268
X4.2421Y-3.435
X4.2441Y-3.0433
X4.2461Y-3.185
X4.252Y-4.2913
X4.2559Y-4.4724
X4.2598Y-4.2323
X4.2618Y-3.2972
X4.2618Y-3.6417
X4.2624Y-3.7795
X4.2624Y-4.0354
X4.2677Y-2.5669
X4.2677Y-4.6063
X4.2756Y-4.5315
X4.2776Y-3.0039
X4.2815Y-2.6693
X4.2927Y-3.3858
X4.2992Y-3.752
X4.3006Y-3.7795
X4.3006Y-4.0354
X4.3012Y-3.6417
X4.3071Y-2.5315
X4.3071Y-2.5669
X4.315Y-2.6693
X4.3228Y-2.4921
X4.3386Y-2.7992
X4.3445Y-2.9331
X4.3504Y-2.5866
X4.3504Y-2.6693
X4.3504Y-3.5531
X4.3504Y-3.6122
X4.3512Y-2.5315
X4.3512Y-2.7441
X4.3583Y-3.4587
X4.3661Y-2.9764
X4.3799Y-4.0354
X4.3805Y-3.3898
X4.3819Y-2.8268
X4.3898Y-3.1772
X4.3996Y-3.7795
X4.4055Y-2.811
X4.4173Y-3.3898
X4.4187Y-4.0354
X4.4291Y-2.7953
X4.4291Y-2.8268
X4.4291Y-4.1693
X4.4291Y-4.2205
X4.439Y-3.7795
X4.4409Y-3.6122
X4.4488Y-3.128
X4.4488Y-4.1969
X4.4488Y-4.3701
X4.4488Y-4.4921
X4.4587Y-3.0315
X4.4606Y-3.2913
X4.4685Y-3.5531
X4.4724Y-3.4744
X4.4724Y-3.6102
X4.4803Y-3.3976
X4.4882Y-3.1811
X4.5079Y-3.9862
X4.5197Y-3.7756
X4.5197Y-4.378
X4.5236Y-3.1929
X4.5236Y-3.5827
X4.5276Y-4.2362
X4.5394Y-3.2835
X4.5433Y-4.4764
X4.5512Y-3.0945
X4.5512Y-4.3583
X4.5512Y-4.4449
X4.5551Y-3.3976
X4.5551Y-3.7795
X4.5571Y-4.2224
X4.5591Y-4.3228
X4.5669Y-4.1929
X4.5685Y-4.1602
X4.5709Y-3.5236
X4.5709Y-3.9803
X4.5748Y-3.1614
X4.5965Y-3.9508
X4.5984Y-3.1378
X4.5984Y-3.4764
X4.6024Y-3.5827
X4.6063Y-3.6575
X4.6063Y-4.6378
X4.6142Y-3.1732
X4.6142Y-3.3386
X4.622Y-3.685
X4.626Y-2.874
X4.626Y-4.1732
X4.6319Y-3.9429
X4.6457Y-2.4803
X4.6457Y-3.1299
X4.6535Y-4.6496
X4.6555Y-2.4016
X4.6555Y-2.8937
X4.6555Y-4.0256
X4.6555Y-4.1437
X4.6654Y-3.5039
X4.6654Y-4.1732
X4.6673Y-3.935
X4.6693Y-3.378
X4.689Y-2.5118
X4.689Y-3.685
X4.6949Y-3.4547
X4.6949Y-3.8091
X4.6949Y-4.0256
X4.6949Y-4.1142
X4.6949Y-4.1929
X4.7008Y-3.4134
X4.7047Y-2.4114
X4.7047Y-3.9213
X4.7087Y-2.9094
X4.7126Y-3.1496
X4.7126Y-4.5354
X4.7165Y-3.3819
X4.7165Y-3.6654
X4.7205Y-2.937
X4.7343Y-4.0256
X4.7343Y-4.0846
X4.7362Y-3.1063
X4.7441Y-3.3622
X4.7441Y-3.7697
X4.7559Y-2.9488
X4.7559Y-2.9803
X4.7559Y-3.0118
X4.7559Y-3.0433
X4.7598Y-3.0827
X4.7638Y-4.1732
X4.7657Y-2.8366
X4.7677Y-3.3819
X4.7933Y-3.7303
X4.8071Y-3.5236
X4.811Y-4.5079
X4.813Y-2.8051
X4.815Y-2.4567
X4.8189Y-2.5433
X4.8189Y-2.5906
X4.8189Y-2.6378
X4.8228Y-4.5984
X4.8307Y-3.3268
X4.8327Y-3.4803
X4.8327Y-4.1732
X4.8346Y-3.4016
X4.8543Y-4.6457
X4.8622Y-2.815
X4.8622Y-3.6457
X4.8661Y-2.5433
X4.8661Y-2.5906
X4.8661Y-2.6378
X4.878Y-4.1811
X4.8819Y-2.4213
X4.8819Y-2.4606
X4.8819Y-3.4016
X4.8976Y-3.622
X4.9016Y-2.6083
X4.9055Y-2.5433
X4.9075Y-3.061
X4.9114Y-2.6457
X4.9198Y-2.8642
X4.9291Y-3.6063
X4.939Y-3.5728
X4.9409Y-3.9921
X4.9449Y-4.3543
X4.9528Y-3.752
X4.9567Y-3.1791
X4.9685Y-3.6378
X4.9705Y-3.878
X4.9724Y-3.7283
X4.9764Y-4.1929
X4.9843Y-2.685
X4.9843Y-2.7126
X4.9921Y-2.9409
X4.9921Y-3.1181
X5.0Y-4.0157
X5.0079Y-3.9764
X5.0157Y-2.6732
X5.0157Y-2.7047
X5.0197Y-3.9075
X5.0236Y-3.122
X5.0295Y-4.1969
X5.0433Y-2.5236
X5.0433Y-3.1457
X5.0768Y-3.8602
X5.0787Y-3.9921
X5.0827Y-3.7992
X5.0827Y-4.0276
X5.0866Y-3.8307
X5.0906Y-2.8701
X5.1181Y-2.7756
X5.1181Y-4.1929
X5.124Y-3.8287
X5.1302Y-3.791
X5.1339Y-2.8189
X5.1339Y-2.8583
X5.1496Y-4.0236
X5.1654Y-3.8465
X5.1732Y-3.9921
X5.1772Y-2.8622
X5.189Y-3.8661
X5.1949Y-2.8937
X5.1969Y-3.126
X5.1988Y-4.1437
X5.2047Y-4.0
X5.2087Y-2.6772
X5.2087Y-2.7087
X5.2165Y-2.9882
X5.2244Y-3.8661
X5.2283Y-3.2008
X5.2283Y-3.2992
X5.2283Y-4.1142
X5.2323Y-4.0276
X5.2402Y-2.689
X5.2402Y-2.7205
X5.252Y-3.3307
X5.2559Y-3.874
X5.2559Y-4.2815
X5.2618Y-4.0846
X5.2638Y-3.3012
X5.2638Y-3.5945
X5.2638Y-4.0276
X5.2795Y-3.3819
X5.2795Y-3.6969
X5.2835Y-3.3504
X5.2835Y-3.5236
X5.2913Y-3.8701
X5.2953Y-2.6457
X5.2953Y-4.2087
X5.2992Y-3.2992
X5.2992Y-3.5748
X5.2992Y-3.7165
X5.2992Y-3.7677
X5.2992Y-4.5157
X5.3022Y-3.4085
X5.311Y-4.5394
X5.3189Y-3.5236
X5.3228Y-3.4724
X5.3248Y-2.5984
X5.3307Y-2.8583
X5.3307Y-4.5157
X5.3425Y-3.1142
X5.3425Y-3.6339
X5.3425Y-3.6614
X5.3465Y-4.2087
X5.3701Y-2.5906
X5.374Y-4.1024
X5.3819Y-2.4331
X5.3819Y-3.1142
X5.3898Y-3.9488
X5.3917Y-4.6457
X5.3937Y-4.0039
X5.3937Y-4.3406
X5.4035Y-3.0217
X5.4035Y-3.3366
X5.4134Y-3.4154
X5.4252Y-4.0197
X5.4331Y-2.5748
X5.4331Y-3.9272
X5.4331Y-4.1043
X5.4409Y-4.2087
X5.4429Y-4.5945
X5.4488Y-2.9843
X5.4528Y-4.0059
X5.4626Y-2.5394
X5.4626Y-3.0315
X5.4724Y-2.5906
X5.4724Y-3.8268
X5.4764Y-2.4213
X5.4823Y-3.2087
X5.4843Y-2.7559
X5.4882Y-3.0315
X5.4882Y-3.3228
X5.4882Y-4.2087
X5.4921Y-3.4252
X5.4921Y-3.7638
X5.4961Y-3.4567
X5.5Y-2.7264
X5.5Y-2.7854
X5.5Y-3.6102
X5.502Y-2.874
X5.502Y-3.8268
X5.5089Y-4.6732
X5.5118Y-2.5354
X5.5118Y-2.5906
X5.5118Y-3.4803
X5.5118Y-3.5531
X5.5118Y-3.6378
X5.5118Y-4.0118
X5.5157Y-2.7559
X5.5217Y-3.7894
X5.5315Y-2.7264
X5.5315Y-2.8642
X5.5315Y-3.0315
X5.5315Y-3.8268
X5.5394Y-2.7854
X5.5413Y-3.7323
X5.5433Y-3.6181
X5.5472Y-3.3976
X5.5472Y-3.4744
X5.5512Y-2.5354
X5.5512Y-3.0413
X5.5512Y-3.3425
X5.5571Y-4.1299
X5.561Y-2.7264
X5.563Y-3.9646
X5.563Y-4.0748
X5.5669Y-3.7559
X5.5709Y-4.5965
X5.5709Y-4.6949
X5.5758Y-3.3219
X5.5807Y-3.0315
X5.5827Y-2.4213
X5.5984Y-2.8858
X5.5984Y-4.1299
X5.6063Y-2.4724
X5.6102Y-2.9921
X5.6102Y-3.0315
X5.6102Y-3.5236
X5.6102Y-3.7598
X5.6142Y-2.7323
X5.6142Y-2.7953
X5.6142Y-3.5591
X5.6181Y-3.8189
X5.6299Y-3.9764
X5.6299Y-4.0846
X5.6368Y-3.7372
X5.6378Y-2.7638
X5.6496Y-2.5689
X5.6535Y-3.6457
X5.6575Y-4.0591
X5.6575Y-4.2953
X5.6575Y-4.4055
X5.6594Y-2.8839
X5.6594Y-3.2008
X5.6594Y-3.9469
X5.6693Y-3.2382
X5.6693Y-3.3268
X5.6772Y-4.4488
X5.6811Y-3.4213
X5.6811Y-3.8819
X5.6811Y-4.3268
X5.687Y-3.2697
X5.687Y-4.3642
X5.689Y-3.1772
X5.6949Y-3.9547
X5.6969Y-4.4764
X5.6988Y-4.0551
X5.7008Y-3.6417
X5.7205Y-3.4843
X5.7283Y-3.1535
X5.7283Y-3.9272
X5.7402Y-3.0591
X5.7441Y-3.6496
X5.748Y-2.5689
X5.7559Y-3.1299
X5.7638Y-2.8858
X5.7638Y-3.2756
X5.7638Y-4.0
X5.7638Y-4.3819
X5.7677Y-3.748
X5.7677Y-3.7756
X5.7677Y-3.8031
X5.7677Y-4.2559
X5.7717Y-3.685
X5.7795Y-2.6378
X5.7795Y-3.4547
X5.7874Y-4.1693
X5.7953Y-3.9528
X5.7972Y-4.0157
X5.8071Y-4.1969
X5.8091Y-3.3583
X5.8189Y-2.8858
X5.8189Y-3.4488
X5.8228Y-3.9409
X5.8268Y-2.5689
X5.8268Y-4.0512
X5.8268Y-4.1043
X5.8366Y-3.9961
X5.8504Y-3.878
X5.8543Y-3.0354
X5.878Y-2.6378
X5.8819Y-3.6024
X5.8858Y-3.4154
X5.8858Y-4.5787
X5.8878Y-3.8799
X5.8898Y-3.2382
X5.8898Y-3.4685
X5.8937Y-3.1732
X5.9016Y-3.6496
X5.9094Y-4.6102
X5.9154Y-2.5689
X5.9173Y-4.5748
X5.9252Y-3.8543
X5.9291Y-2.8898
X5.9409Y-4.0059
X5.9449Y-3.1732
X5.9449Y-3.4646
X5.9488Y-3.9646
X5.9488Y-4.0748
X5.9528Y-3.8976
X5.9567Y-4.5472
X5.9606Y-2.6378
X5.9646Y-3.4961
X5.9646Y-4.1024
X5.9685Y-2.4724
X5.9685Y-4.4606
X5.9724Y-2.4173
X5.9744Y-3.1102
X5.9764Y-3.0354
X5.9764Y-3.5984
X5.9764Y-3.8268
X5.9843Y-4.4291
X5.9921Y-2.9567
X6.002Y-3.4921
X6.0039Y-3.8976
X6.0059Y-3.187
X6.0079Y-3.9756
X6.0138Y-4.1831
X6.0138Y-4.2224
X6.0197Y-4.4016
X6.0315Y-3.9528
X6.0433Y-4.252
X6.0472Y-4.0197
X6.0512Y-4.4055
X6.0541Y-3.7106
X6.0669Y-2.8898
X6.0709Y-3.3386
X6.0728Y-3.0217
X6.0728Y-3.2087
X6.0728Y-4.2224
X6.0797Y-3.7303
X6.0827Y-3.1594
X6.0866Y-3.3661
X6.0925Y-3.0906
X6.1024Y-3.8307
X6.1063Y-3.9331
X6.1063Y-4.0
X6.1063Y-4.3307
X6.1063Y-4.3819
X6.1181Y-3.7244
X6.1417Y-3.1535
X6.1417Y-3.248
X6.1417Y-3.2835
X6.1535Y-2.7953
X6.1575Y-3.4449
X6.1575Y-3.8031
X6.1772Y-3.7205
X6.1772Y-3.7598
X6.1772Y-4.3976
X6.1969Y-3.0945
X6.2047Y-3.9488
X6.2047Y-4.0512
X6.2323Y-3.1024
X6.2402Y-4.4016
X6.2677Y-3.7205
X6.2677Y-3.7598
T2
X4.6339Y-4.6024
X5.378Y-3.2323
X5.5285Y-3.1821
T3
X5.1207Y-3.4101
X5.1207Y-3.4547
X5.1207Y-3.4993
X5.1654Y-3.4101
X5.1654Y-3.4547
X5.1654Y-3.4993
X5.21Y-3.4101
X5.21Y-3.4547
X5.21Y-3.4993
T5
X4.6642Y-4.4181
X4.7642Y-4.4181
X4.8642Y-4.4181
X4.9642Y-4.4181
X5.0642Y-4.4181
X5.1642Y-4.4181
X5.2642Y-4.4181
X5.3642Y-4.4181
X5.4642Y-4.4181
X5.5642Y-4.4181
X5.8272Y-2.7894
X5.9272Y-2.7894
X6.0272Y-2.7894
T4
G00X4.9441Y-2.4331
M15
G01X4.9441Y-2.4094
M16
G05
G00X4.9441Y-2.6075
M15
G01X4.9441Y-2.5642
M16
G05
G00X5.2843Y-2.4331
M15
G01X5.2843Y-2.4094
M16
G05
G00X5.2843Y-2.6075
M15
G01X5.2843Y-2.5642
M16
G05
M30
