%TF.GenerationSoftware,KiCad,Pcbnew,8.0.3*%
%TF.CreationDate,2024-07-18T13:22:45+02:00*%
%TF.ProjectId,vpp-maker-rev6-ian,7670702d-6d61-46b6-9572-2d726576362d,rev?*%
%TF.SameCoordinates,Original*%
%TF.FileFunction,Drillmap*%
%TF.FilePolarity,Positive*%
%FSLAX45Y45*%
G04 Gerber Fmt 4.5, Leading zero omitted, Abs format (unit mm)*
G04 Created by KiCad (PCBNEW 8.0.3) date 2024-07-18 13:22:45*
%MOMM*%
%LPD*%
G01*
G04 APERTURE LIST*
%ADD10C,0.100000*%
%ADD11C,0.200000*%
G04 APERTURE END LIST*
D10*
X13800000Y-6900000D02*
X16250000Y-6900000D01*
X13800000Y-10500000D02*
X16250000Y-10500000D01*
X16350000Y-10400000D02*
X16350000Y-7000000D01*
X13700000Y-7000000D02*
X13700000Y-10400000D01*
X16350000Y-10400000D02*
G75*
G02*
X16250000Y-10500000I-100000J0D01*
G01*
X16250000Y-6900000D02*
G75*
G02*
X16350000Y-7000000I0J-100000D01*
G01*
X13800000Y-10500000D02*
G75*
G02*
X13700000Y-10400000I0J100000D01*
G01*
X13700000Y-7000000D02*
G75*
G02*
X13800000Y-6900000I100000J0D01*
G01*
D11*
D10*
X13830000Y-10030000D02*
X13870000Y-10070000D01*
X13870000Y-10030000D02*
X13830000Y-10070000D01*
X13955000Y-10255000D02*
X13995000Y-10295000D01*
X13995000Y-10255000D02*
X13955000Y-10295000D01*
X14230000Y-10030000D02*
X14270000Y-10070000D01*
X14270000Y-10030000D02*
X14230000Y-10070000D01*
X14338980Y-7877007D02*
X14378980Y-7917007D01*
X14378980Y-7877007D02*
X14338980Y-7917007D01*
X14430000Y-8480000D02*
X14470000Y-8520000D01*
X14470000Y-8480000D02*
X14430000Y-8520000D01*
X14430000Y-8880000D02*
X14470000Y-8920000D01*
X14470000Y-8880000D02*
X14430000Y-8920000D01*
X14430000Y-9230000D02*
X14470000Y-9270000D01*
X14470000Y-9230000D02*
X14430000Y-9270000D01*
X14430000Y-9455000D02*
X14470000Y-9495000D01*
X14470000Y-9455000D02*
X14430000Y-9495000D01*
X14430000Y-9830000D02*
X14470000Y-9870000D01*
X14470000Y-9830000D02*
X14430000Y-9870000D01*
X14480000Y-8080000D02*
X14520000Y-8120000D01*
X14520000Y-8080000D02*
X14480000Y-8120000D01*
X14480000Y-8330000D02*
X14520000Y-8370000D01*
X14520000Y-8330000D02*
X14480000Y-8370000D01*
X14480000Y-8730000D02*
X14520000Y-8770000D01*
X14520000Y-8730000D02*
X14480000Y-8770000D01*
X14557915Y-8888823D02*
X14597915Y-8928823D01*
X14597915Y-8888823D02*
X14557915Y-8928823D01*
X14580000Y-8330000D02*
X14620000Y-8370000D01*
X14620000Y-8330000D02*
X14580000Y-8370000D01*
X14630000Y-7180000D02*
X14670000Y-7220000D01*
X14670000Y-7180000D02*
X14630000Y-7220000D01*
X14694928Y-7944362D02*
X14734928Y-7984362D01*
X14734928Y-7944362D02*
X14694928Y-7984362D01*
X14701103Y-8203428D02*
X14741103Y-8243428D01*
X14741103Y-8203428D02*
X14701103Y-8243428D01*
X14705774Y-8484139D02*
X14745774Y-8524139D01*
X14745774Y-8484139D02*
X14705774Y-8524139D01*
X14760288Y-8890732D02*
X14800288Y-8930732D01*
X14800288Y-8890732D02*
X14760288Y-8930732D01*
X14828800Y-9817809D02*
X14868800Y-9857809D01*
X14868800Y-9817809D02*
X14828800Y-9857809D01*
X14910000Y-8630000D02*
X14950000Y-8670000D01*
X14950000Y-8630000D02*
X14910000Y-8670000D01*
X15045273Y-9822725D02*
X15085273Y-9862725D01*
X15085273Y-9822725D02*
X15045273Y-9862725D01*
X15130000Y-9230000D02*
X15170000Y-9270000D01*
X15170000Y-9230000D02*
X15130000Y-9270000D01*
X15480000Y-7630000D02*
X15520000Y-7670000D01*
X15520000Y-7630000D02*
X15480000Y-7670000D01*
X15480000Y-8180000D02*
X15520000Y-8220000D01*
X15520000Y-8180000D02*
X15480000Y-8220000D01*
X15480000Y-8480000D02*
X15520000Y-8520000D01*
X15520000Y-8480000D02*
X15480000Y-8520000D01*
X15480000Y-8730000D02*
X15520000Y-8770000D01*
X15520000Y-8730000D02*
X15480000Y-8770000D01*
X15584835Y-9663165D02*
X15624835Y-9703165D01*
X15624835Y-9663165D02*
X15584835Y-9703165D01*
X15760956Y-9667461D02*
X15800956Y-9707461D01*
X15800956Y-9667461D02*
X15760956Y-9707461D01*
X15765252Y-9800626D02*
X15805252Y-9840626D01*
X15805252Y-9800626D02*
X15765252Y-9840626D01*
X15780000Y-8180000D02*
X15820000Y-8220000D01*
X15820000Y-8180000D02*
X15780000Y-8220000D01*
X15780000Y-8480000D02*
X15820000Y-8520000D01*
X15820000Y-8480000D02*
X15780000Y-8520000D01*
X15780000Y-8730000D02*
X15820000Y-8770000D01*
X15820000Y-8730000D02*
X15780000Y-8770000D01*
X16030000Y-10180000D02*
X16070000Y-10220000D01*
X16070000Y-10180000D02*
X16030000Y-10220000D01*
X13890000Y-7555000D02*
G75*
G02*
X13790000Y-7555000I-50000J0D01*
G01*
X13790000Y-7555000D02*
G75*
G02*
X13890000Y-7555000I50000J0D01*
G01*
X13890000Y-7809000D02*
G75*
G02*
X13790000Y-7809000I-50000J0D01*
G01*
X13790000Y-7809000D02*
G75*
G02*
X13890000Y-7809000I50000J0D01*
G01*
X13890000Y-8063000D02*
G75*
G02*
X13790000Y-8063000I-50000J0D01*
G01*
X13790000Y-8063000D02*
G75*
G02*
X13890000Y-8063000I50000J0D01*
G01*
X13890000Y-8317000D02*
G75*
G02*
X13790000Y-8317000I-50000J0D01*
G01*
X13790000Y-8317000D02*
G75*
G02*
X13890000Y-8317000I50000J0D01*
G01*
X13890000Y-8571000D02*
G75*
G02*
X13790000Y-8571000I-50000J0D01*
G01*
X13790000Y-8571000D02*
G75*
G02*
X13890000Y-8571000I50000J0D01*
G01*
X13890000Y-8825000D02*
G75*
G02*
X13790000Y-8825000I-50000J0D01*
G01*
X13790000Y-8825000D02*
G75*
G02*
X13890000Y-8825000I50000J0D01*
G01*
X13890000Y-9079000D02*
G75*
G02*
X13790000Y-9079000I-50000J0D01*
G01*
X13790000Y-9079000D02*
G75*
G02*
X13890000Y-9079000I50000J0D01*
G01*
X13890000Y-9333000D02*
G75*
G02*
X13790000Y-9333000I-50000J0D01*
G01*
X13790000Y-9333000D02*
G75*
G02*
X13890000Y-9333000I50000J0D01*
G01*
X13890000Y-9587000D02*
G75*
G02*
X13790000Y-9587000I-50000J0D01*
G01*
X13790000Y-9587000D02*
G75*
G02*
X13890000Y-9587000I50000J0D01*
G01*
X13890000Y-9841000D02*
G75*
G02*
X13790000Y-9841000I-50000J0D01*
G01*
X13790000Y-9841000D02*
G75*
G02*
X13890000Y-9841000I50000J0D01*
G01*
X14275000Y-7557500D02*
G75*
G02*
X14175000Y-7557500I-50000J0D01*
G01*
X14175000Y-7557500D02*
G75*
G02*
X14275000Y-7557500I50000J0D01*
G01*
X14275000Y-7811500D02*
G75*
G02*
X14175000Y-7811500I-50000J0D01*
G01*
X14175000Y-7811500D02*
G75*
G02*
X14275000Y-7811500I50000J0D01*
G01*
X14275000Y-8065500D02*
G75*
G02*
X14175000Y-8065500I-50000J0D01*
G01*
X14175000Y-8065500D02*
G75*
G02*
X14275000Y-8065500I50000J0D01*
G01*
X14275000Y-8319500D02*
G75*
G02*
X14175000Y-8319500I-50000J0D01*
G01*
X14175000Y-8319500D02*
G75*
G02*
X14275000Y-8319500I50000J0D01*
G01*
X14275000Y-8573500D02*
G75*
G02*
X14175000Y-8573500I-50000J0D01*
G01*
X14175000Y-8573500D02*
G75*
G02*
X14275000Y-8573500I50000J0D01*
G01*
X14275000Y-8827500D02*
G75*
G02*
X14175000Y-8827500I-50000J0D01*
G01*
X14175000Y-8827500D02*
G75*
G02*
X14275000Y-8827500I50000J0D01*
G01*
X14275000Y-9081500D02*
G75*
G02*
X14175000Y-9081500I-50000J0D01*
G01*
X14175000Y-9081500D02*
G75*
G02*
X14275000Y-9081500I50000J0D01*
G01*
X14275000Y-9335500D02*
G75*
G02*
X14175000Y-9335500I-50000J0D01*
G01*
X14175000Y-9335500D02*
G75*
G02*
X14275000Y-9335500I50000J0D01*
G01*
X14275000Y-9589500D02*
G75*
G02*
X14175000Y-9589500I-50000J0D01*
G01*
X14175000Y-9589500D02*
G75*
G02*
X14275000Y-9589500I50000J0D01*
G01*
X14275000Y-9843500D02*
G75*
G02*
X14175000Y-9843500I-50000J0D01*
G01*
X14175000Y-9843500D02*
G75*
G02*
X14275000Y-9843500I50000J0D01*
G01*
X16237500Y-7812500D02*
G75*
G02*
X16137500Y-7812500I-50000J0D01*
G01*
X16137500Y-7812500D02*
G75*
G02*
X16237500Y-7812500I50000J0D01*
G01*
X16237500Y-8066500D02*
G75*
G02*
X16137500Y-8066500I-50000J0D01*
G01*
X16137500Y-8066500D02*
G75*
G02*
X16237500Y-8066500I50000J0D01*
G01*
X16237500Y-8320500D02*
G75*
G02*
X16137500Y-8320500I-50000J0D01*
G01*
X16137500Y-8320500D02*
G75*
G02*
X16237500Y-8320500I50000J0D01*
G01*
X16237500Y-8574500D02*
G75*
G02*
X16137500Y-8574500I-50000J0D01*
G01*
X16137500Y-8574500D02*
G75*
G02*
X16237500Y-8574500I50000J0D01*
G01*
X16237500Y-8828500D02*
G75*
G02*
X16137500Y-8828500I-50000J0D01*
G01*
X16137500Y-8828500D02*
G75*
G02*
X16237500Y-8828500I50000J0D01*
G01*
X16237500Y-9082500D02*
G75*
G02*
X16137500Y-9082500I-50000J0D01*
G01*
X16137500Y-9082500D02*
G75*
G02*
X16237500Y-9082500I50000J0D01*
G01*
X16237500Y-9336500D02*
G75*
G02*
X16137500Y-9336500I-50000J0D01*
G01*
X16137500Y-9336500D02*
G75*
G02*
X16237500Y-9336500I50000J0D01*
G01*
X16237500Y-9590500D02*
G75*
G02*
X16137500Y-9590500I-50000J0D01*
G01*
X16137500Y-9590500D02*
G75*
G02*
X16237500Y-9590500I50000J0D01*
G01*
D11*
X13955777Y-10816484D02*
X13955777Y-10616484D01*
X13955777Y-10616484D02*
X14003396Y-10616484D01*
X14003396Y-10616484D02*
X14031967Y-10626008D01*
X14031967Y-10626008D02*
X14051015Y-10645055D01*
X14051015Y-10645055D02*
X14060539Y-10664103D01*
X14060539Y-10664103D02*
X14070062Y-10702198D01*
X14070062Y-10702198D02*
X14070062Y-10730770D01*
X14070062Y-10730770D02*
X14060539Y-10768865D01*
X14060539Y-10768865D02*
X14051015Y-10787912D01*
X14051015Y-10787912D02*
X14031967Y-10806960D01*
X14031967Y-10806960D02*
X14003396Y-10816484D01*
X14003396Y-10816484D02*
X13955777Y-10816484D01*
X14155777Y-10816484D02*
X14155777Y-10683150D01*
X14155777Y-10721246D02*
X14165301Y-10702198D01*
X14165301Y-10702198D02*
X14174824Y-10692674D01*
X14174824Y-10692674D02*
X14193872Y-10683150D01*
X14193872Y-10683150D02*
X14212920Y-10683150D01*
X14279586Y-10816484D02*
X14279586Y-10683150D01*
X14279586Y-10616484D02*
X14270062Y-10626008D01*
X14270062Y-10626008D02*
X14279586Y-10635531D01*
X14279586Y-10635531D02*
X14289110Y-10626008D01*
X14289110Y-10626008D02*
X14279586Y-10616484D01*
X14279586Y-10616484D02*
X14279586Y-10635531D01*
X14403396Y-10816484D02*
X14384348Y-10806960D01*
X14384348Y-10806960D02*
X14374824Y-10787912D01*
X14374824Y-10787912D02*
X14374824Y-10616484D01*
X14508158Y-10816484D02*
X14489110Y-10806960D01*
X14489110Y-10806960D02*
X14479586Y-10787912D01*
X14479586Y-10787912D02*
X14479586Y-10616484D01*
X14736729Y-10816484D02*
X14736729Y-10616484D01*
X14736729Y-10616484D02*
X14803396Y-10759341D01*
X14803396Y-10759341D02*
X14870062Y-10616484D01*
X14870062Y-10616484D02*
X14870062Y-10816484D01*
X15051015Y-10816484D02*
X15051015Y-10711722D01*
X15051015Y-10711722D02*
X15041491Y-10692674D01*
X15041491Y-10692674D02*
X15022443Y-10683150D01*
X15022443Y-10683150D02*
X14984348Y-10683150D01*
X14984348Y-10683150D02*
X14965301Y-10692674D01*
X15051015Y-10806960D02*
X15031967Y-10816484D01*
X15031967Y-10816484D02*
X14984348Y-10816484D01*
X14984348Y-10816484D02*
X14965301Y-10806960D01*
X14965301Y-10806960D02*
X14955777Y-10787912D01*
X14955777Y-10787912D02*
X14955777Y-10768865D01*
X14955777Y-10768865D02*
X14965301Y-10749817D01*
X14965301Y-10749817D02*
X14984348Y-10740293D01*
X14984348Y-10740293D02*
X15031967Y-10740293D01*
X15031967Y-10740293D02*
X15051015Y-10730770D01*
X15146253Y-10683150D02*
X15146253Y-10883150D01*
X15146253Y-10692674D02*
X15165301Y-10683150D01*
X15165301Y-10683150D02*
X15203396Y-10683150D01*
X15203396Y-10683150D02*
X15222443Y-10692674D01*
X15222443Y-10692674D02*
X15231967Y-10702198D01*
X15231967Y-10702198D02*
X15241491Y-10721246D01*
X15241491Y-10721246D02*
X15241491Y-10778389D01*
X15241491Y-10778389D02*
X15231967Y-10797436D01*
X15231967Y-10797436D02*
X15222443Y-10806960D01*
X15222443Y-10806960D02*
X15203396Y-10816484D01*
X15203396Y-10816484D02*
X15165301Y-10816484D01*
X15165301Y-10816484D02*
X15146253Y-10806960D01*
X15327205Y-10797436D02*
X15336729Y-10806960D01*
X15336729Y-10806960D02*
X15327205Y-10816484D01*
X15327205Y-10816484D02*
X15317682Y-10806960D01*
X15317682Y-10806960D02*
X15327205Y-10797436D01*
X15327205Y-10797436D02*
X15327205Y-10816484D01*
X15327205Y-10692674D02*
X15336729Y-10702198D01*
X15336729Y-10702198D02*
X15327205Y-10711722D01*
X15327205Y-10711722D02*
X15317682Y-10702198D01*
X15317682Y-10702198D02*
X15327205Y-10692674D01*
X15327205Y-10692674D02*
X15327205Y-10711722D01*
D10*
X13655000Y-11125000D02*
X13695000Y-11165000D01*
X13695000Y-11125000D02*
X13655000Y-11165000D01*
D11*
X13993872Y-11036484D02*
X14012920Y-11036484D01*
X14012920Y-11036484D02*
X14031967Y-11046008D01*
X14031967Y-11046008D02*
X14041491Y-11055531D01*
X14041491Y-11055531D02*
X14051015Y-11074579D01*
X14051015Y-11074579D02*
X14060539Y-11112674D01*
X14060539Y-11112674D02*
X14060539Y-11160293D01*
X14060539Y-11160293D02*
X14051015Y-11198388D01*
X14051015Y-11198388D02*
X14041491Y-11217436D01*
X14041491Y-11217436D02*
X14031967Y-11226960D01*
X14031967Y-11226960D02*
X14012920Y-11236484D01*
X14012920Y-11236484D02*
X13993872Y-11236484D01*
X13993872Y-11236484D02*
X13974824Y-11226960D01*
X13974824Y-11226960D02*
X13965301Y-11217436D01*
X13965301Y-11217436D02*
X13955777Y-11198388D01*
X13955777Y-11198388D02*
X13946253Y-11160293D01*
X13946253Y-11160293D02*
X13946253Y-11112674D01*
X13946253Y-11112674D02*
X13955777Y-11074579D01*
X13955777Y-11074579D02*
X13965301Y-11055531D01*
X13965301Y-11055531D02*
X13974824Y-11046008D01*
X13974824Y-11046008D02*
X13993872Y-11036484D01*
X14146253Y-11217436D02*
X14155777Y-11226960D01*
X14155777Y-11226960D02*
X14146253Y-11236484D01*
X14146253Y-11236484D02*
X14136729Y-11226960D01*
X14136729Y-11226960D02*
X14146253Y-11217436D01*
X14146253Y-11217436D02*
X14146253Y-11236484D01*
X14327205Y-11103150D02*
X14327205Y-11236484D01*
X14279586Y-11026960D02*
X14231967Y-11169817D01*
X14231967Y-11169817D02*
X14355777Y-11169817D01*
X14470062Y-11036484D02*
X14489110Y-11036484D01*
X14489110Y-11036484D02*
X14508158Y-11046008D01*
X14508158Y-11046008D02*
X14517682Y-11055531D01*
X14517682Y-11055531D02*
X14527205Y-11074579D01*
X14527205Y-11074579D02*
X14536729Y-11112674D01*
X14536729Y-11112674D02*
X14536729Y-11160293D01*
X14536729Y-11160293D02*
X14527205Y-11198388D01*
X14527205Y-11198388D02*
X14517682Y-11217436D01*
X14517682Y-11217436D02*
X14508158Y-11226960D01*
X14508158Y-11226960D02*
X14489110Y-11236484D01*
X14489110Y-11236484D02*
X14470062Y-11236484D01*
X14470062Y-11236484D02*
X14451015Y-11226960D01*
X14451015Y-11226960D02*
X14441491Y-11217436D01*
X14441491Y-11217436D02*
X14431967Y-11198388D01*
X14431967Y-11198388D02*
X14422443Y-11160293D01*
X14422443Y-11160293D02*
X14422443Y-11112674D01*
X14422443Y-11112674D02*
X14431967Y-11074579D01*
X14431967Y-11074579D02*
X14441491Y-11055531D01*
X14441491Y-11055531D02*
X14451015Y-11046008D01*
X14451015Y-11046008D02*
X14470062Y-11036484D01*
X14660539Y-11036484D02*
X14679586Y-11036484D01*
X14679586Y-11036484D02*
X14698634Y-11046008D01*
X14698634Y-11046008D02*
X14708158Y-11055531D01*
X14708158Y-11055531D02*
X14717682Y-11074579D01*
X14717682Y-11074579D02*
X14727205Y-11112674D01*
X14727205Y-11112674D02*
X14727205Y-11160293D01*
X14727205Y-11160293D02*
X14717682Y-11198388D01*
X14717682Y-11198388D02*
X14708158Y-11217436D01*
X14708158Y-11217436D02*
X14698634Y-11226960D01*
X14698634Y-11226960D02*
X14679586Y-11236484D01*
X14679586Y-11236484D02*
X14660539Y-11236484D01*
X14660539Y-11236484D02*
X14641491Y-11226960D01*
X14641491Y-11226960D02*
X14631967Y-11217436D01*
X14631967Y-11217436D02*
X14622443Y-11198388D01*
X14622443Y-11198388D02*
X14612920Y-11160293D01*
X14612920Y-11160293D02*
X14612920Y-11112674D01*
X14612920Y-11112674D02*
X14622443Y-11074579D01*
X14622443Y-11074579D02*
X14631967Y-11055531D01*
X14631967Y-11055531D02*
X14641491Y-11046008D01*
X14641491Y-11046008D02*
X14660539Y-11036484D01*
X14812920Y-11236484D02*
X14812920Y-11103150D01*
X14812920Y-11122198D02*
X14822443Y-11112674D01*
X14822443Y-11112674D02*
X14841491Y-11103150D01*
X14841491Y-11103150D02*
X14870063Y-11103150D01*
X14870063Y-11103150D02*
X14889110Y-11112674D01*
X14889110Y-11112674D02*
X14898634Y-11131722D01*
X14898634Y-11131722D02*
X14898634Y-11236484D01*
X14898634Y-11131722D02*
X14908158Y-11112674D01*
X14908158Y-11112674D02*
X14927205Y-11103150D01*
X14927205Y-11103150D02*
X14955777Y-11103150D01*
X14955777Y-11103150D02*
X14974824Y-11112674D01*
X14974824Y-11112674D02*
X14984348Y-11131722D01*
X14984348Y-11131722D02*
X14984348Y-11236484D01*
X15079586Y-11236484D02*
X15079586Y-11103150D01*
X15079586Y-11122198D02*
X15089110Y-11112674D01*
X15089110Y-11112674D02*
X15108158Y-11103150D01*
X15108158Y-11103150D02*
X15136729Y-11103150D01*
X15136729Y-11103150D02*
X15155777Y-11112674D01*
X15155777Y-11112674D02*
X15165301Y-11131722D01*
X15165301Y-11131722D02*
X15165301Y-11236484D01*
X15165301Y-11131722D02*
X15174824Y-11112674D01*
X15174824Y-11112674D02*
X15193872Y-11103150D01*
X15193872Y-11103150D02*
X15222443Y-11103150D01*
X15222443Y-11103150D02*
X15241491Y-11112674D01*
X15241491Y-11112674D02*
X15251015Y-11131722D01*
X15251015Y-11131722D02*
X15251015Y-11236484D01*
X15641491Y-11026960D02*
X15470063Y-11284103D01*
X15898634Y-11036484D02*
X15917682Y-11036484D01*
X15917682Y-11036484D02*
X15936729Y-11046008D01*
X15936729Y-11046008D02*
X15946253Y-11055531D01*
X15946253Y-11055531D02*
X15955777Y-11074579D01*
X15955777Y-11074579D02*
X15965301Y-11112674D01*
X15965301Y-11112674D02*
X15965301Y-11160293D01*
X15965301Y-11160293D02*
X15955777Y-11198388D01*
X15955777Y-11198388D02*
X15946253Y-11217436D01*
X15946253Y-11217436D02*
X15936729Y-11226960D01*
X15936729Y-11226960D02*
X15917682Y-11236484D01*
X15917682Y-11236484D02*
X15898634Y-11236484D01*
X15898634Y-11236484D02*
X15879586Y-11226960D01*
X15879586Y-11226960D02*
X15870063Y-11217436D01*
X15870063Y-11217436D02*
X15860539Y-11198388D01*
X15860539Y-11198388D02*
X15851015Y-11160293D01*
X15851015Y-11160293D02*
X15851015Y-11112674D01*
X15851015Y-11112674D02*
X15860539Y-11074579D01*
X15860539Y-11074579D02*
X15870063Y-11055531D01*
X15870063Y-11055531D02*
X15879586Y-11046008D01*
X15879586Y-11046008D02*
X15898634Y-11036484D01*
X16051015Y-11217436D02*
X16060539Y-11226960D01*
X16060539Y-11226960D02*
X16051015Y-11236484D01*
X16051015Y-11236484D02*
X16041491Y-11226960D01*
X16041491Y-11226960D02*
X16051015Y-11217436D01*
X16051015Y-11217436D02*
X16051015Y-11236484D01*
X16184348Y-11036484D02*
X16203396Y-11036484D01*
X16203396Y-11036484D02*
X16222444Y-11046008D01*
X16222444Y-11046008D02*
X16231967Y-11055531D01*
X16231967Y-11055531D02*
X16241491Y-11074579D01*
X16241491Y-11074579D02*
X16251015Y-11112674D01*
X16251015Y-11112674D02*
X16251015Y-11160293D01*
X16251015Y-11160293D02*
X16241491Y-11198388D01*
X16241491Y-11198388D02*
X16231967Y-11217436D01*
X16231967Y-11217436D02*
X16222444Y-11226960D01*
X16222444Y-11226960D02*
X16203396Y-11236484D01*
X16203396Y-11236484D02*
X16184348Y-11236484D01*
X16184348Y-11236484D02*
X16165301Y-11226960D01*
X16165301Y-11226960D02*
X16155777Y-11217436D01*
X16155777Y-11217436D02*
X16146253Y-11198388D01*
X16146253Y-11198388D02*
X16136729Y-11160293D01*
X16136729Y-11160293D02*
X16136729Y-11112674D01*
X16136729Y-11112674D02*
X16146253Y-11074579D01*
X16146253Y-11074579D02*
X16155777Y-11055531D01*
X16155777Y-11055531D02*
X16165301Y-11046008D01*
X16165301Y-11046008D02*
X16184348Y-11036484D01*
X16441491Y-11236484D02*
X16327206Y-11236484D01*
X16384348Y-11236484D02*
X16384348Y-11036484D01*
X16384348Y-11036484D02*
X16365301Y-11065055D01*
X16365301Y-11065055D02*
X16346253Y-11084103D01*
X16346253Y-11084103D02*
X16327206Y-11093627D01*
X16622444Y-11036484D02*
X16527206Y-11036484D01*
X16527206Y-11036484D02*
X16517682Y-11131722D01*
X16517682Y-11131722D02*
X16527206Y-11122198D01*
X16527206Y-11122198D02*
X16546253Y-11112674D01*
X16546253Y-11112674D02*
X16593872Y-11112674D01*
X16593872Y-11112674D02*
X16612920Y-11122198D01*
X16612920Y-11122198D02*
X16622444Y-11131722D01*
X16622444Y-11131722D02*
X16631967Y-11150770D01*
X16631967Y-11150770D02*
X16631967Y-11198388D01*
X16631967Y-11198388D02*
X16622444Y-11217436D01*
X16622444Y-11217436D02*
X16612920Y-11226960D01*
X16612920Y-11226960D02*
X16593872Y-11236484D01*
X16593872Y-11236484D02*
X16546253Y-11236484D01*
X16546253Y-11236484D02*
X16527206Y-11226960D01*
X16527206Y-11226960D02*
X16517682Y-11217436D01*
X16698634Y-11036484D02*
X16831968Y-11036484D01*
X16831968Y-11036484D02*
X16746253Y-11236484D01*
X16898634Y-11036484D02*
X16898634Y-11074579D01*
X16974825Y-11036484D02*
X16974825Y-11074579D01*
X17270063Y-11312674D02*
X17260539Y-11303150D01*
X17260539Y-11303150D02*
X17241491Y-11274579D01*
X17241491Y-11274579D02*
X17231968Y-11255531D01*
X17231968Y-11255531D02*
X17222444Y-11226960D01*
X17222444Y-11226960D02*
X17212920Y-11179341D01*
X17212920Y-11179341D02*
X17212920Y-11141246D01*
X17212920Y-11141246D02*
X17222444Y-11093627D01*
X17222444Y-11093627D02*
X17231968Y-11065055D01*
X17231968Y-11065055D02*
X17241491Y-11046008D01*
X17241491Y-11046008D02*
X17260539Y-11017436D01*
X17260539Y-11017436D02*
X17270063Y-11007912D01*
X17327206Y-11036484D02*
X17451015Y-11036484D01*
X17451015Y-11036484D02*
X17384349Y-11112674D01*
X17384349Y-11112674D02*
X17412920Y-11112674D01*
X17412920Y-11112674D02*
X17431968Y-11122198D01*
X17431968Y-11122198D02*
X17441491Y-11131722D01*
X17441491Y-11131722D02*
X17451015Y-11150770D01*
X17451015Y-11150770D02*
X17451015Y-11198388D01*
X17451015Y-11198388D02*
X17441491Y-11217436D01*
X17441491Y-11217436D02*
X17431968Y-11226960D01*
X17431968Y-11226960D02*
X17412920Y-11236484D01*
X17412920Y-11236484D02*
X17355777Y-11236484D01*
X17355777Y-11236484D02*
X17336730Y-11226960D01*
X17336730Y-11226960D02*
X17327206Y-11217436D01*
X17622444Y-11103150D02*
X17622444Y-11236484D01*
X17574825Y-11026960D02*
X17527206Y-11169817D01*
X17527206Y-11169817D02*
X17651015Y-11169817D01*
X17879587Y-11236484D02*
X17879587Y-11036484D01*
X17965301Y-11236484D02*
X17965301Y-11131722D01*
X17965301Y-11131722D02*
X17955777Y-11112674D01*
X17955777Y-11112674D02*
X17936730Y-11103150D01*
X17936730Y-11103150D02*
X17908158Y-11103150D01*
X17908158Y-11103150D02*
X17889111Y-11112674D01*
X17889111Y-11112674D02*
X17879587Y-11122198D01*
X18089111Y-11236484D02*
X18070063Y-11226960D01*
X18070063Y-11226960D02*
X18060539Y-11217436D01*
X18060539Y-11217436D02*
X18051015Y-11198388D01*
X18051015Y-11198388D02*
X18051015Y-11141246D01*
X18051015Y-11141246D02*
X18060539Y-11122198D01*
X18060539Y-11122198D02*
X18070063Y-11112674D01*
X18070063Y-11112674D02*
X18089111Y-11103150D01*
X18089111Y-11103150D02*
X18117682Y-11103150D01*
X18117682Y-11103150D02*
X18136730Y-11112674D01*
X18136730Y-11112674D02*
X18146253Y-11122198D01*
X18146253Y-11122198D02*
X18155777Y-11141246D01*
X18155777Y-11141246D02*
X18155777Y-11198388D01*
X18155777Y-11198388D02*
X18146253Y-11217436D01*
X18146253Y-11217436D02*
X18136730Y-11226960D01*
X18136730Y-11226960D02*
X18117682Y-11236484D01*
X18117682Y-11236484D02*
X18089111Y-11236484D01*
X18270063Y-11236484D02*
X18251015Y-11226960D01*
X18251015Y-11226960D02*
X18241492Y-11207912D01*
X18241492Y-11207912D02*
X18241492Y-11036484D01*
X18422444Y-11226960D02*
X18403396Y-11236484D01*
X18403396Y-11236484D02*
X18365301Y-11236484D01*
X18365301Y-11236484D02*
X18346253Y-11226960D01*
X18346253Y-11226960D02*
X18336730Y-11207912D01*
X18336730Y-11207912D02*
X18336730Y-11131722D01*
X18336730Y-11131722D02*
X18346253Y-11112674D01*
X18346253Y-11112674D02*
X18365301Y-11103150D01*
X18365301Y-11103150D02*
X18403396Y-11103150D01*
X18403396Y-11103150D02*
X18422444Y-11112674D01*
X18422444Y-11112674D02*
X18431968Y-11131722D01*
X18431968Y-11131722D02*
X18431968Y-11150770D01*
X18431968Y-11150770D02*
X18336730Y-11169817D01*
X18508158Y-11226960D02*
X18527206Y-11236484D01*
X18527206Y-11236484D02*
X18565301Y-11236484D01*
X18565301Y-11236484D02*
X18584349Y-11226960D01*
X18584349Y-11226960D02*
X18593873Y-11207912D01*
X18593873Y-11207912D02*
X18593873Y-11198388D01*
X18593873Y-11198388D02*
X18584349Y-11179341D01*
X18584349Y-11179341D02*
X18565301Y-11169817D01*
X18565301Y-11169817D02*
X18536730Y-11169817D01*
X18536730Y-11169817D02*
X18517682Y-11160293D01*
X18517682Y-11160293D02*
X18508158Y-11141246D01*
X18508158Y-11141246D02*
X18508158Y-11131722D01*
X18508158Y-11131722D02*
X18517682Y-11112674D01*
X18517682Y-11112674D02*
X18536730Y-11103150D01*
X18536730Y-11103150D02*
X18565301Y-11103150D01*
X18565301Y-11103150D02*
X18584349Y-11112674D01*
X18660539Y-11312674D02*
X18670063Y-11303150D01*
X18670063Y-11303150D02*
X18689111Y-11274579D01*
X18689111Y-11274579D02*
X18698634Y-11255531D01*
X18698634Y-11255531D02*
X18708158Y-11226960D01*
X18708158Y-11226960D02*
X18717682Y-11179341D01*
X18717682Y-11179341D02*
X18717682Y-11141246D01*
X18717682Y-11141246D02*
X18708158Y-11093627D01*
X18708158Y-11093627D02*
X18698634Y-11065055D01*
X18698634Y-11065055D02*
X18689111Y-11046008D01*
X18689111Y-11046008D02*
X18670063Y-11017436D01*
X18670063Y-11017436D02*
X18660539Y-11007912D01*
D10*
X13695000Y-11409000D02*
G75*
G02*
X13595000Y-11409000I-50000J0D01*
G01*
X13595000Y-11409000D02*
G75*
G02*
X13695000Y-11409000I50000J0D01*
G01*
D11*
X14060539Y-11500484D02*
X13946253Y-11500484D01*
X14003396Y-11500484D02*
X14003396Y-11300484D01*
X14003396Y-11300484D02*
X13984348Y-11329055D01*
X13984348Y-11329055D02*
X13965301Y-11348103D01*
X13965301Y-11348103D02*
X13946253Y-11357627D01*
X14146253Y-11481436D02*
X14155777Y-11490960D01*
X14155777Y-11490960D02*
X14146253Y-11500484D01*
X14146253Y-11500484D02*
X14136729Y-11490960D01*
X14136729Y-11490960D02*
X14146253Y-11481436D01*
X14146253Y-11481436D02*
X14146253Y-11500484D01*
X14279586Y-11300484D02*
X14298634Y-11300484D01*
X14298634Y-11300484D02*
X14317682Y-11310008D01*
X14317682Y-11310008D02*
X14327205Y-11319531D01*
X14327205Y-11319531D02*
X14336729Y-11338579D01*
X14336729Y-11338579D02*
X14346253Y-11376674D01*
X14346253Y-11376674D02*
X14346253Y-11424293D01*
X14346253Y-11424293D02*
X14336729Y-11462388D01*
X14336729Y-11462388D02*
X14327205Y-11481436D01*
X14327205Y-11481436D02*
X14317682Y-11490960D01*
X14317682Y-11490960D02*
X14298634Y-11500484D01*
X14298634Y-11500484D02*
X14279586Y-11500484D01*
X14279586Y-11500484D02*
X14260539Y-11490960D01*
X14260539Y-11490960D02*
X14251015Y-11481436D01*
X14251015Y-11481436D02*
X14241491Y-11462388D01*
X14241491Y-11462388D02*
X14231967Y-11424293D01*
X14231967Y-11424293D02*
X14231967Y-11376674D01*
X14231967Y-11376674D02*
X14241491Y-11338579D01*
X14241491Y-11338579D02*
X14251015Y-11319531D01*
X14251015Y-11319531D02*
X14260539Y-11310008D01*
X14260539Y-11310008D02*
X14279586Y-11300484D01*
X14470062Y-11300484D02*
X14489110Y-11300484D01*
X14489110Y-11300484D02*
X14508158Y-11310008D01*
X14508158Y-11310008D02*
X14517682Y-11319531D01*
X14517682Y-11319531D02*
X14527205Y-11338579D01*
X14527205Y-11338579D02*
X14536729Y-11376674D01*
X14536729Y-11376674D02*
X14536729Y-11424293D01*
X14536729Y-11424293D02*
X14527205Y-11462388D01*
X14527205Y-11462388D02*
X14517682Y-11481436D01*
X14517682Y-11481436D02*
X14508158Y-11490960D01*
X14508158Y-11490960D02*
X14489110Y-11500484D01*
X14489110Y-11500484D02*
X14470062Y-11500484D01*
X14470062Y-11500484D02*
X14451015Y-11490960D01*
X14451015Y-11490960D02*
X14441491Y-11481436D01*
X14441491Y-11481436D02*
X14431967Y-11462388D01*
X14431967Y-11462388D02*
X14422443Y-11424293D01*
X14422443Y-11424293D02*
X14422443Y-11376674D01*
X14422443Y-11376674D02*
X14431967Y-11338579D01*
X14431967Y-11338579D02*
X14441491Y-11319531D01*
X14441491Y-11319531D02*
X14451015Y-11310008D01*
X14451015Y-11310008D02*
X14470062Y-11300484D01*
X14660539Y-11300484D02*
X14679586Y-11300484D01*
X14679586Y-11300484D02*
X14698634Y-11310008D01*
X14698634Y-11310008D02*
X14708158Y-11319531D01*
X14708158Y-11319531D02*
X14717682Y-11338579D01*
X14717682Y-11338579D02*
X14727205Y-11376674D01*
X14727205Y-11376674D02*
X14727205Y-11424293D01*
X14727205Y-11424293D02*
X14717682Y-11462388D01*
X14717682Y-11462388D02*
X14708158Y-11481436D01*
X14708158Y-11481436D02*
X14698634Y-11490960D01*
X14698634Y-11490960D02*
X14679586Y-11500484D01*
X14679586Y-11500484D02*
X14660539Y-11500484D01*
X14660539Y-11500484D02*
X14641491Y-11490960D01*
X14641491Y-11490960D02*
X14631967Y-11481436D01*
X14631967Y-11481436D02*
X14622443Y-11462388D01*
X14622443Y-11462388D02*
X14612920Y-11424293D01*
X14612920Y-11424293D02*
X14612920Y-11376674D01*
X14612920Y-11376674D02*
X14622443Y-11338579D01*
X14622443Y-11338579D02*
X14631967Y-11319531D01*
X14631967Y-11319531D02*
X14641491Y-11310008D01*
X14641491Y-11310008D02*
X14660539Y-11300484D01*
X14812920Y-11500484D02*
X14812920Y-11367150D01*
X14812920Y-11386198D02*
X14822443Y-11376674D01*
X14822443Y-11376674D02*
X14841491Y-11367150D01*
X14841491Y-11367150D02*
X14870063Y-11367150D01*
X14870063Y-11367150D02*
X14889110Y-11376674D01*
X14889110Y-11376674D02*
X14898634Y-11395722D01*
X14898634Y-11395722D02*
X14898634Y-11500484D01*
X14898634Y-11395722D02*
X14908158Y-11376674D01*
X14908158Y-11376674D02*
X14927205Y-11367150D01*
X14927205Y-11367150D02*
X14955777Y-11367150D01*
X14955777Y-11367150D02*
X14974824Y-11376674D01*
X14974824Y-11376674D02*
X14984348Y-11395722D01*
X14984348Y-11395722D02*
X14984348Y-11500484D01*
X15079586Y-11500484D02*
X15079586Y-11367150D01*
X15079586Y-11386198D02*
X15089110Y-11376674D01*
X15089110Y-11376674D02*
X15108158Y-11367150D01*
X15108158Y-11367150D02*
X15136729Y-11367150D01*
X15136729Y-11367150D02*
X15155777Y-11376674D01*
X15155777Y-11376674D02*
X15165301Y-11395722D01*
X15165301Y-11395722D02*
X15165301Y-11500484D01*
X15165301Y-11395722D02*
X15174824Y-11376674D01*
X15174824Y-11376674D02*
X15193872Y-11367150D01*
X15193872Y-11367150D02*
X15222443Y-11367150D01*
X15222443Y-11367150D02*
X15241491Y-11376674D01*
X15241491Y-11376674D02*
X15251015Y-11395722D01*
X15251015Y-11395722D02*
X15251015Y-11500484D01*
X15641491Y-11290960D02*
X15470063Y-11548103D01*
X15898634Y-11300484D02*
X15917682Y-11300484D01*
X15917682Y-11300484D02*
X15936729Y-11310008D01*
X15936729Y-11310008D02*
X15946253Y-11319531D01*
X15946253Y-11319531D02*
X15955777Y-11338579D01*
X15955777Y-11338579D02*
X15965301Y-11376674D01*
X15965301Y-11376674D02*
X15965301Y-11424293D01*
X15965301Y-11424293D02*
X15955777Y-11462388D01*
X15955777Y-11462388D02*
X15946253Y-11481436D01*
X15946253Y-11481436D02*
X15936729Y-11490960D01*
X15936729Y-11490960D02*
X15917682Y-11500484D01*
X15917682Y-11500484D02*
X15898634Y-11500484D01*
X15898634Y-11500484D02*
X15879586Y-11490960D01*
X15879586Y-11490960D02*
X15870063Y-11481436D01*
X15870063Y-11481436D02*
X15860539Y-11462388D01*
X15860539Y-11462388D02*
X15851015Y-11424293D01*
X15851015Y-11424293D02*
X15851015Y-11376674D01*
X15851015Y-11376674D02*
X15860539Y-11338579D01*
X15860539Y-11338579D02*
X15870063Y-11319531D01*
X15870063Y-11319531D02*
X15879586Y-11310008D01*
X15879586Y-11310008D02*
X15898634Y-11300484D01*
X16051015Y-11481436D02*
X16060539Y-11490960D01*
X16060539Y-11490960D02*
X16051015Y-11500484D01*
X16051015Y-11500484D02*
X16041491Y-11490960D01*
X16041491Y-11490960D02*
X16051015Y-11481436D01*
X16051015Y-11481436D02*
X16051015Y-11500484D01*
X16184348Y-11300484D02*
X16203396Y-11300484D01*
X16203396Y-11300484D02*
X16222444Y-11310008D01*
X16222444Y-11310008D02*
X16231967Y-11319531D01*
X16231967Y-11319531D02*
X16241491Y-11338579D01*
X16241491Y-11338579D02*
X16251015Y-11376674D01*
X16251015Y-11376674D02*
X16251015Y-11424293D01*
X16251015Y-11424293D02*
X16241491Y-11462388D01*
X16241491Y-11462388D02*
X16231967Y-11481436D01*
X16231967Y-11481436D02*
X16222444Y-11490960D01*
X16222444Y-11490960D02*
X16203396Y-11500484D01*
X16203396Y-11500484D02*
X16184348Y-11500484D01*
X16184348Y-11500484D02*
X16165301Y-11490960D01*
X16165301Y-11490960D02*
X16155777Y-11481436D01*
X16155777Y-11481436D02*
X16146253Y-11462388D01*
X16146253Y-11462388D02*
X16136729Y-11424293D01*
X16136729Y-11424293D02*
X16136729Y-11376674D01*
X16136729Y-11376674D02*
X16146253Y-11338579D01*
X16146253Y-11338579D02*
X16155777Y-11319531D01*
X16155777Y-11319531D02*
X16165301Y-11310008D01*
X16165301Y-11310008D02*
X16184348Y-11300484D01*
X16317682Y-11300484D02*
X16441491Y-11300484D01*
X16441491Y-11300484D02*
X16374825Y-11376674D01*
X16374825Y-11376674D02*
X16403396Y-11376674D01*
X16403396Y-11376674D02*
X16422444Y-11386198D01*
X16422444Y-11386198D02*
X16431967Y-11395722D01*
X16431967Y-11395722D02*
X16441491Y-11414769D01*
X16441491Y-11414769D02*
X16441491Y-11462388D01*
X16441491Y-11462388D02*
X16431967Y-11481436D01*
X16431967Y-11481436D02*
X16422444Y-11490960D01*
X16422444Y-11490960D02*
X16403396Y-11500484D01*
X16403396Y-11500484D02*
X16346253Y-11500484D01*
X16346253Y-11500484D02*
X16327206Y-11490960D01*
X16327206Y-11490960D02*
X16317682Y-11481436D01*
X16536729Y-11500484D02*
X16574825Y-11500484D01*
X16574825Y-11500484D02*
X16593872Y-11490960D01*
X16593872Y-11490960D02*
X16603396Y-11481436D01*
X16603396Y-11481436D02*
X16622444Y-11452865D01*
X16622444Y-11452865D02*
X16631967Y-11414769D01*
X16631967Y-11414769D02*
X16631967Y-11338579D01*
X16631967Y-11338579D02*
X16622444Y-11319531D01*
X16622444Y-11319531D02*
X16612920Y-11310008D01*
X16612920Y-11310008D02*
X16593872Y-11300484D01*
X16593872Y-11300484D02*
X16555777Y-11300484D01*
X16555777Y-11300484D02*
X16536729Y-11310008D01*
X16536729Y-11310008D02*
X16527206Y-11319531D01*
X16527206Y-11319531D02*
X16517682Y-11338579D01*
X16517682Y-11338579D02*
X16517682Y-11386198D01*
X16517682Y-11386198D02*
X16527206Y-11405246D01*
X16527206Y-11405246D02*
X16536729Y-11414769D01*
X16536729Y-11414769D02*
X16555777Y-11424293D01*
X16555777Y-11424293D02*
X16593872Y-11424293D01*
X16593872Y-11424293D02*
X16612920Y-11414769D01*
X16612920Y-11414769D02*
X16622444Y-11405246D01*
X16622444Y-11405246D02*
X16631967Y-11386198D01*
X16803396Y-11367150D02*
X16803396Y-11500484D01*
X16755777Y-11290960D02*
X16708158Y-11433817D01*
X16708158Y-11433817D02*
X16831968Y-11433817D01*
X16898634Y-11300484D02*
X16898634Y-11338579D01*
X16974825Y-11300484D02*
X16974825Y-11338579D01*
X17270063Y-11576674D02*
X17260539Y-11567150D01*
X17260539Y-11567150D02*
X17241491Y-11538579D01*
X17241491Y-11538579D02*
X17231968Y-11519531D01*
X17231968Y-11519531D02*
X17222444Y-11490960D01*
X17222444Y-11490960D02*
X17212920Y-11443341D01*
X17212920Y-11443341D02*
X17212920Y-11405246D01*
X17212920Y-11405246D02*
X17222444Y-11357627D01*
X17222444Y-11357627D02*
X17231968Y-11329055D01*
X17231968Y-11329055D02*
X17241491Y-11310008D01*
X17241491Y-11310008D02*
X17260539Y-11281436D01*
X17260539Y-11281436D02*
X17270063Y-11271912D01*
X17336730Y-11319531D02*
X17346253Y-11310008D01*
X17346253Y-11310008D02*
X17365301Y-11300484D01*
X17365301Y-11300484D02*
X17412920Y-11300484D01*
X17412920Y-11300484D02*
X17431968Y-11310008D01*
X17431968Y-11310008D02*
X17441491Y-11319531D01*
X17441491Y-11319531D02*
X17451015Y-11338579D01*
X17451015Y-11338579D02*
X17451015Y-11357627D01*
X17451015Y-11357627D02*
X17441491Y-11386198D01*
X17441491Y-11386198D02*
X17327206Y-11500484D01*
X17327206Y-11500484D02*
X17451015Y-11500484D01*
X17565301Y-11386198D02*
X17546253Y-11376674D01*
X17546253Y-11376674D02*
X17536730Y-11367150D01*
X17536730Y-11367150D02*
X17527206Y-11348103D01*
X17527206Y-11348103D02*
X17527206Y-11338579D01*
X17527206Y-11338579D02*
X17536730Y-11319531D01*
X17536730Y-11319531D02*
X17546253Y-11310008D01*
X17546253Y-11310008D02*
X17565301Y-11300484D01*
X17565301Y-11300484D02*
X17603396Y-11300484D01*
X17603396Y-11300484D02*
X17622444Y-11310008D01*
X17622444Y-11310008D02*
X17631968Y-11319531D01*
X17631968Y-11319531D02*
X17641491Y-11338579D01*
X17641491Y-11338579D02*
X17641491Y-11348103D01*
X17641491Y-11348103D02*
X17631968Y-11367150D01*
X17631968Y-11367150D02*
X17622444Y-11376674D01*
X17622444Y-11376674D02*
X17603396Y-11386198D01*
X17603396Y-11386198D02*
X17565301Y-11386198D01*
X17565301Y-11386198D02*
X17546253Y-11395722D01*
X17546253Y-11395722D02*
X17536730Y-11405246D01*
X17536730Y-11405246D02*
X17527206Y-11424293D01*
X17527206Y-11424293D02*
X17527206Y-11462388D01*
X17527206Y-11462388D02*
X17536730Y-11481436D01*
X17536730Y-11481436D02*
X17546253Y-11490960D01*
X17546253Y-11490960D02*
X17565301Y-11500484D01*
X17565301Y-11500484D02*
X17603396Y-11500484D01*
X17603396Y-11500484D02*
X17622444Y-11490960D01*
X17622444Y-11490960D02*
X17631968Y-11481436D01*
X17631968Y-11481436D02*
X17641491Y-11462388D01*
X17641491Y-11462388D02*
X17641491Y-11424293D01*
X17641491Y-11424293D02*
X17631968Y-11405246D01*
X17631968Y-11405246D02*
X17622444Y-11395722D01*
X17622444Y-11395722D02*
X17603396Y-11386198D01*
X17879587Y-11500484D02*
X17879587Y-11300484D01*
X17965301Y-11500484D02*
X17965301Y-11395722D01*
X17965301Y-11395722D02*
X17955777Y-11376674D01*
X17955777Y-11376674D02*
X17936730Y-11367150D01*
X17936730Y-11367150D02*
X17908158Y-11367150D01*
X17908158Y-11367150D02*
X17889111Y-11376674D01*
X17889111Y-11376674D02*
X17879587Y-11386198D01*
X18089111Y-11500484D02*
X18070063Y-11490960D01*
X18070063Y-11490960D02*
X18060539Y-11481436D01*
X18060539Y-11481436D02*
X18051015Y-11462388D01*
X18051015Y-11462388D02*
X18051015Y-11405246D01*
X18051015Y-11405246D02*
X18060539Y-11386198D01*
X18060539Y-11386198D02*
X18070063Y-11376674D01*
X18070063Y-11376674D02*
X18089111Y-11367150D01*
X18089111Y-11367150D02*
X18117682Y-11367150D01*
X18117682Y-11367150D02*
X18136730Y-11376674D01*
X18136730Y-11376674D02*
X18146253Y-11386198D01*
X18146253Y-11386198D02*
X18155777Y-11405246D01*
X18155777Y-11405246D02*
X18155777Y-11462388D01*
X18155777Y-11462388D02*
X18146253Y-11481436D01*
X18146253Y-11481436D02*
X18136730Y-11490960D01*
X18136730Y-11490960D02*
X18117682Y-11500484D01*
X18117682Y-11500484D02*
X18089111Y-11500484D01*
X18270063Y-11500484D02*
X18251015Y-11490960D01*
X18251015Y-11490960D02*
X18241492Y-11471912D01*
X18241492Y-11471912D02*
X18241492Y-11300484D01*
X18422444Y-11490960D02*
X18403396Y-11500484D01*
X18403396Y-11500484D02*
X18365301Y-11500484D01*
X18365301Y-11500484D02*
X18346253Y-11490960D01*
X18346253Y-11490960D02*
X18336730Y-11471912D01*
X18336730Y-11471912D02*
X18336730Y-11395722D01*
X18336730Y-11395722D02*
X18346253Y-11376674D01*
X18346253Y-11376674D02*
X18365301Y-11367150D01*
X18365301Y-11367150D02*
X18403396Y-11367150D01*
X18403396Y-11367150D02*
X18422444Y-11376674D01*
X18422444Y-11376674D02*
X18431968Y-11395722D01*
X18431968Y-11395722D02*
X18431968Y-11414769D01*
X18431968Y-11414769D02*
X18336730Y-11433817D01*
X18508158Y-11490960D02*
X18527206Y-11500484D01*
X18527206Y-11500484D02*
X18565301Y-11500484D01*
X18565301Y-11500484D02*
X18584349Y-11490960D01*
X18584349Y-11490960D02*
X18593873Y-11471912D01*
X18593873Y-11471912D02*
X18593873Y-11462388D01*
X18593873Y-11462388D02*
X18584349Y-11443341D01*
X18584349Y-11443341D02*
X18565301Y-11433817D01*
X18565301Y-11433817D02*
X18536730Y-11433817D01*
X18536730Y-11433817D02*
X18517682Y-11424293D01*
X18517682Y-11424293D02*
X18508158Y-11405246D01*
X18508158Y-11405246D02*
X18508158Y-11395722D01*
X18508158Y-11395722D02*
X18517682Y-11376674D01*
X18517682Y-11376674D02*
X18536730Y-11367150D01*
X18536730Y-11367150D02*
X18565301Y-11367150D01*
X18565301Y-11367150D02*
X18584349Y-11376674D01*
X18660539Y-11576674D02*
X18670063Y-11567150D01*
X18670063Y-11567150D02*
X18689111Y-11538579D01*
X18689111Y-11538579D02*
X18698634Y-11519531D01*
X18698634Y-11519531D02*
X18708158Y-11490960D01*
X18708158Y-11490960D02*
X18717682Y-11443341D01*
X18717682Y-11443341D02*
X18717682Y-11405246D01*
X18717682Y-11405246D02*
X18708158Y-11357627D01*
X18708158Y-11357627D02*
X18698634Y-11329055D01*
X18698634Y-11329055D02*
X18689111Y-11310008D01*
X18689111Y-11310008D02*
X18670063Y-11281436D01*
X18670063Y-11281436D02*
X18660539Y-11271912D01*
M02*
