M48
; DRILL file {KiCad 8.0.3} date 2024-07-18T13:22:44+0200
; FORMAT={-:-/ absolute / inch / decimal}
; #@! TF.CreationDate,2024-07-18T13:22:44+02:00
; #@! TF.GenerationSoftware,Kicad,Pcbnew,8.0.3
; #@! TF.FileFunction,Plated,1,2,PTH
FMAT,2
INCH
; #@! TA.AperFunction,Plated,PTH,ViaDrill
T1C0.0157
; #@! TA.AperFunction,Plated,PTH,ComponentDrill
T2C0.0394
%
G90
G05
T1
X5.4528Y-3.9567
X5.502Y-4.0453
X5.6102Y-3.9567
X5.6531Y-3.1091
X5.689Y-3.3465
X5.689Y-3.5039
X5.689Y-3.6417
X5.689Y-3.7303
X5.689Y-3.878
X5.7087Y-3.189
X5.7087Y-3.2874
X5.7087Y-3.4449
X5.7393Y-3.5074
X5.748Y-3.2874
X5.7677Y-2.8346
X5.7933Y-3.1356
X5.7957Y-3.2376
X5.7975Y-3.3481
X5.819Y-3.5082
X5.846Y-3.8732
X5.878Y-3.4055
X5.9312Y-3.8751
X5.9646Y-3.6417
X6.1024Y-3.0118
X6.1024Y-3.2283
X6.1024Y-3.3465
X6.1024Y-3.4449
X6.1436Y-3.8123
X6.213Y-3.814
X6.2147Y-3.8664
X6.2205Y-3.2283
X6.2205Y-3.3465
X6.2205Y-3.4449
X6.3189Y-4.0157
T2
X5.4488Y-2.9744
X5.4488Y-3.0744
X5.4488Y-3.1744
X5.4488Y-3.2744
X5.4488Y-3.3744
X5.4488Y-3.4744
X5.4488Y-3.5744
X5.4488Y-3.6744
X5.4488Y-3.7744
X5.4488Y-3.8744
X5.6004Y-2.9754
X5.6004Y-3.0754
X5.6004Y-3.1754
X5.6004Y-3.2754
X5.6004Y-3.3754
X5.6004Y-3.4754
X5.6004Y-3.5754
X5.6004Y-3.6754
X5.6004Y-3.7754
X5.6004Y-3.8754
X6.373Y-3.0758
X6.373Y-3.1758
X6.373Y-3.2758
X6.373Y-3.3758
X6.373Y-3.4758
X6.373Y-3.5758
X6.373Y-3.6758
X6.373Y-3.7758
M30
