M48
; DRILL file {KiCad (5.1.10)-1} date 09/12/23 17:10:15
; FORMAT={2:4/ absolute / inch / suppress leading zeros}
; #@! TF.CreationDate,2023-09-12T17:10:15+08:00
; #@! TF.GenerationSoftware,Kicad,Pcbnew,(5.1.10)-1
FMAT,2
INCH,TZ
T1C0.0138
T2C0.0256
T3C0.0394
T4C0.0276
T5C0.0394
T6C0.1260
%
G90
G05
T1
X39823Y-27264
X39921Y-33346
X39921Y-37087
X39921Y-39843
X39941Y-30591
X40315Y-26890
X40354Y-33346
X40354Y-37087
X40354Y-39843
X40394Y-30551
X40433Y-43583
X40669Y-44114
X40945Y-27480
X41535Y-37028
X41555Y-42126
X41575Y-41004
X41614Y-32067
X41614Y-38933
X41654Y-27756
X41831Y-41240
X41906Y-40087
X41929Y-42126
X42106Y-29606
X42177Y-43701
X42264Y-42126
X42280Y-30272
X42339Y-40508
X42343Y-24705
X42421Y-31791
X42500Y-42913
X42559Y-46299
X42579Y-39646
X42697Y-41240
X42736Y-32441
X42756Y-42126
X42776Y-37067
X42874Y-39409
X42913Y-33661
X43051Y-41240
X43071Y-29272
X43091Y-46811
X43110Y-39646
X43110Y-42126
X43169Y-25177
X43169Y-45630
X43248Y-44449
X43346Y-27441
X43378Y-43701
X43406Y-39311
X43425Y-31929
X43445Y-42126
X43622Y-29390
X43622Y-38583
X43622Y-39665
X43701Y-25295
X43701Y-42933
X43705Y-40803
X43898Y-41181
X43957Y-38583
X43957Y-39665
X43957Y-42126
X43957Y-45551
X44055Y-30748
X44232Y-42933
X44232Y-43307
X44252Y-37264
X44252Y-41240
X44291Y-39665
X44291Y-34331
X44291Y-38583
X44311Y-42126
X44331Y-30039
X44409Y-35354
X44409Y-44173
X44409Y-44646
X44547Y-31575
X44626Y-38583
X44626Y-39665
X44646Y-42126
X44665Y-26614
X44665Y-27028
X44665Y-43976
X44665Y-44449
X44724Y-35748
X44866Y-40610
X44902Y-30098
X45000Y-42106
X45059Y-43327
X45098Y-32244
X45118Y-41201
X45181Y-25961
X45197Y-35827
X45236Y-39764
X45315Y-30118
X45335Y-42106
X45362Y-27898
X45413Y-41063
X45472Y-30531
X45531Y-33957
X45551Y-25295
X45571Y-26614
X45669Y-42106
X45709Y-28614
X45720Y-37878
X45728Y-28248
X45728Y-28996
X45728Y-31594
X45768Y-45591
X45772Y-40413
X45787Y-39488
X45787Y-42933
X45866Y-25197
X45906Y-29606
X45906Y-43248
X46043Y-37402
X46083Y-40217
X46083Y-41417
X46102Y-42421
X46220Y-25984
X46240Y-46201
X46339Y-46654
X46343Y-38118
X46417Y-40217
X46417Y-43484
X46457Y-42500
X46496Y-34862
X46654Y-31594
X46654Y-33228
X46693Y-30295
X46713Y-24154
X46732Y-42244
X46752Y-40217
X46752Y-43484
X46850Y-34528
X46988Y-37382
X46988Y-42480
X47087Y-40197
X47106Y-30295
X47126Y-43425
X47189Y-34472
X47264Y-32421
X47264Y-33268
X47274Y-33740
X47402Y-41398
X47402Y-42146
X47461Y-32087
X47480Y-27638
X47520Y-45787
X47524Y-36768
X47579Y-30098
X47598Y-26122
X47638Y-29724
X47697Y-39764
X47717Y-37303
X47717Y-39272
X47717Y-41161
X47717Y-42059
X47756Y-32323
X47831Y-36059
X47992Y-25000
X48012Y-39469
X48031Y-41988
X48051Y-33150
X48051Y-37323
X48248Y-35866
X48346Y-39114
X48346Y-42047
X48362Y-36193
X48370Y-35547
X48370Y-40953
X48386Y-39724
X48406Y-37323
X48445Y-24587
X48445Y-28091
X48445Y-33484
X48524Y-29626
X48618Y-45094
X48701Y-46260
X48717Y-40945
X48760Y-30098
X48760Y-32067
X48760Y-39350
X48780Y-37283
X48819Y-26063
X48839Y-32630
X48898Y-24803
X48917Y-41417
X48937Y-33524
X48996Y-34902
X49016Y-36811
X49016Y-38169
X49055Y-32283
X49067Y-32921
X49114Y-35433
X49154Y-29724
X49173Y-27008
X49173Y-33740
X49291Y-42264
X49331Y-31142
X49449Y-39823
X49488Y-39205
X49508Y-34902
X49528Y-35728
X49547Y-46240
X49567Y-29724
X49567Y-30906
X49646Y-27913
X49646Y-33602
X49685Y-37402
X49685Y-41122
X49744Y-44724
X49783Y-46949
X49793Y-39301
X49803Y-40315
X49882Y-34783
X49941Y-29094
X49941Y-29724
X49941Y-32579
X49953Y-30858
X49961Y-33839
X49984Y-45537
X50000Y-37165
X50020Y-34469
X50039Y-27067
X50049Y-37884
X50059Y-46240
X50157Y-40315
X50177Y-34094
X50276Y-32933
X50305Y-36988
X50315Y-39232
X50315Y-46949
X50335Y-27756
X50432Y-32453
X50492Y-40315
X50492Y-44685
X50512Y-33150
X50551Y-25118
X50561Y-38159
X50571Y-37480
X50571Y-46240
X50630Y-30276
X50630Y-34528
X50709Y-41122
X50787Y-32098
X50787Y-32808
X50787Y-33406
X50827Y-29094
X50827Y-40315
X50846Y-46949
X50953Y-30244
X51083Y-40945
X51122Y-25079
X51142Y-29094
X51142Y-31743
X51142Y-32453
X51142Y-33163
X51142Y-33583
X51142Y-44587
X51142Y-46240
X51201Y-38146
X51240Y-31260
X51311Y-39307
X51398Y-33386
X51417Y-46949
X51429Y-30228
X51457Y-29094
X51476Y-37972
X51497Y-32098
X51497Y-32808
X51594Y-34449
X51594Y-39154
X51614Y-36516
X51693Y-33209
X51713Y-46240
X51791Y-40315
X51843Y-29102
X51852Y-32453
X51933Y-45537
X51949Y-46949
X52004Y-30449
X52008Y-32953
X52047Y-41575
X52067Y-34488
X52126Y-27067
X52165Y-44469
X52244Y-46240
X52295Y-40319
X52303Y-27618
X52303Y-28858
X52480Y-46949
X52500Y-32461
X52520Y-30394
X52539Y-39201
X52630Y-38213
X52717Y-46240
X52795Y-28819
X52795Y-29705
X52835Y-26516
X52835Y-42126
X52933Y-27835
X53051Y-31378
X53051Y-34154
X53071Y-45020
X53130Y-32657
X53150Y-45531
X53169Y-43756
X53228Y-40965
X53287Y-42146
X53333Y-39868
X53346Y-26516
X53425Y-30394
X53453Y-39213
X53465Y-24803
X53465Y-26024
X53465Y-32520
X53524Y-27835
X53543Y-31654
X53681Y-41673
X53760Y-46850
X53819Y-25059
X53819Y-31417
X53898Y-45866
X53917Y-26634
X53937Y-26063
X54016Y-41791
X54055Y-42146
X54094Y-33051
X54094Y-33386
X54138Y-43752
X54154Y-29311
X54163Y-28888
X54193Y-31831
X54232Y-40846
X54370Y-31063
X54449Y-31496
X54469Y-26614
X54567Y-40846
X54705Y-34134
X54724Y-24094
X54724Y-39657
X54744Y-46811
X54803Y-44724
X54823Y-29173
X54941Y-30157
X54961Y-42146
X55059Y-35886
X55079Y-25472
X55079Y-25906
X55079Y-27343
X55079Y-27913
X55118Y-32638
X55118Y-33071
X55138Y-35394
X55138Y-43760
X55197Y-34646
X55236Y-34213
X55276Y-43445
X55295Y-40157
X55315Y-45748
X55433Y-38799
X55472Y-37589
X55531Y-27835
X55551Y-28366
X55571Y-36319
X55571Y-47028
X55591Y-30354
X55630Y-40138
X55630Y-42303
X55630Y-43307
X55768Y-31240
X55807Y-30098
X55886Y-27835
X55925Y-40906
X55945Y-24370
X55965Y-40138
X56043Y-28957
X56063Y-46772
X56102Y-29646
X56142Y-30512
X56197Y-33776
X56220Y-27835
X56240Y-42402
X56260Y-40276
X56319Y-32795
X56339Y-43051
X56417Y-38740
X56476Y-43346
X56496Y-45787
X56555Y-40157
X56575Y-33661
X56594Y-41063
X56654Y-25118
X56673Y-42126
X56681Y-40591
X56693Y-36575
X56724Y-35705
X56732Y-34831
X56732Y-37244
X56736Y-36909
X56740Y-36256
X56811Y-30059
X56858Y-31071
X56870Y-41240
X56870Y-42776
X56949Y-28937
X56969Y-37776
X57047Y-27874
X57047Y-28307
X57106Y-25472
X57106Y-25906
X57185Y-42106
X57236Y-43669
X57264Y-39921
X57441Y-27874
X57441Y-28307
X57579Y-42913
X57598Y-44252
X57598Y-44724
X57657Y-34390
X57720Y-36303
X57728Y-35957
X57795Y-31594
X57815Y-32736
X57815Y-40689
X57815Y-41024
X57815Y-42126
X57835Y-35138
X57870Y-39571
X57913Y-38839
X57933Y-26201
X57933Y-26614
X57953Y-43957
X57953Y-44449
X58071Y-41240
X58071Y-42776
X58150Y-42087
X58248Y-39606
X58366Y-37382
X58441Y-43669
X58445Y-45118
X58484Y-39980
X58681Y-40512
X58720Y-29193
X58740Y-38583
X58740Y-39646
X58760Y-42913
X58780Y-26063
X58780Y-45657
X58937Y-41240
X58957Y-42126
X59075Y-39646
X59094Y-38583
X59114Y-25335
X59154Y-34862
X59272Y-41240
X59272Y-42067
X59272Y-42776
X59291Y-24154
X59469Y-38583
X59469Y-39646
X59606Y-42126
X59638Y-43669
X59803Y-38583
X59803Y-39646
X59862Y-24646
X59921Y-37087
X60059Y-40374
X60067Y-33067
X60114Y-44390
X60118Y-39094
X60118Y-41260
X60157Y-42126
X60232Y-38571
X60307Y-40815
X60315Y-31535
X60433Y-43484
X60472Y-41260
X60472Y-42776
X60492Y-42087
X60531Y-29429
X60827Y-42106
X61260Y-42362
X61280Y-43504
X61457Y-26752
X61457Y-38386
X61496Y-39528
X61535Y-40236
X61555Y-32283
X61614Y-34646
X61614Y-36004
X61752Y-44055
X61850Y-27362
X61890Y-31063
X62362Y-31063
X62402Y-35807
X62441Y-33898
X62461Y-43543
X62500Y-38130
T3
X46642Y-44181
X47642Y-44181
X48642Y-44181
X49642Y-44181
X50642Y-44181
X51642Y-44181
X52642Y-44181
X53642Y-44181
X54642Y-44181
X55642Y-44181
X58272Y-27894
X59272Y-27894
X60272Y-27894
T4
X50004Y-25650
X52280Y-25650
T5
X61472Y-33622
X61472Y-36772
T6
X40906Y-25236
X40906Y-45709
X61378Y-25236
X61378Y-45709
T2
G00X49441Y-24331
M15
G01X49441Y-24094
M16
G05
G00X49441Y-26075
M15
G01X49441Y-25642
M16
G05
G00X52843Y-24331
M15
G01X52843Y-24094
M16
G05
G00X52843Y-26075
M15
G01X52843Y-25642
M16
G05
T0
M30
