G04 #@! TF.GenerationSoftware,KiCad,Pcbnew,(5.1.10)-1*
G04 #@! TF.CreationDate,2023-09-12T17:10:13+08:00*
G04 #@! TF.ProjectId,BusPirate-5-rev8,42757350-6972-4617-9465-2d352d726576,rev?*
G04 #@! TF.SameCoordinates,Original*
G04 #@! TF.FileFunction,Legend,Bot*
G04 #@! TF.FilePolarity,Positive*
%FSLAX46Y46*%
G04 Gerber Fmt 4.6, Leading zero omitted, Abs format (unit mm)*
G04 Created by KiCad (PCBNEW (5.1.10)-1) date 2023-09-12 17:10:13*
%MOMM*%
%LPD*%
G01*
G04 APERTURE LIST*
%ADD10C,0.400000*%
%ADD11C,0.212500*%
%ADD12C,0.250000*%
%ADD13C,0.187500*%
%ADD14C,0.375000*%
%ADD15C,0.010000*%
%ADD16C,0.120000*%
%ADD17C,0.085000*%
%ADD18C,0.203200*%
%ADD19C,0.150000*%
G04 APERTURE END LIST*
D10*
X102691666Y-93250000D02*
X100941666Y-93250000D01*
X100941666Y-93935714D01*
X101025000Y-94107142D01*
X101108333Y-94192857D01*
X101275000Y-94278571D01*
X101525000Y-94278571D01*
X101691666Y-94192857D01*
X101775000Y-94107142D01*
X101858333Y-93935714D01*
X101858333Y-93250000D01*
X102691666Y-95050000D02*
X101525000Y-95050000D01*
X100941666Y-95050000D02*
X101025000Y-94964285D01*
X101108333Y-95050000D01*
X101025000Y-95135714D01*
X100941666Y-95050000D01*
X101108333Y-95050000D01*
X102691666Y-95907142D02*
X101525000Y-95907142D01*
X101858333Y-95907142D02*
X101691666Y-95992857D01*
X101608333Y-96078571D01*
X101525000Y-96250000D01*
X101525000Y-96421428D01*
X102691666Y-97792857D02*
X101775000Y-97792857D01*
X101608333Y-97707142D01*
X101525000Y-97535714D01*
X101525000Y-97192857D01*
X101608333Y-97021428D01*
X102608333Y-97792857D02*
X102691666Y-97621428D01*
X102691666Y-97192857D01*
X102608333Y-97021428D01*
X102441666Y-96935714D01*
X102275000Y-96935714D01*
X102108333Y-97021428D01*
X102025000Y-97192857D01*
X102025000Y-97621428D01*
X101941666Y-97792857D01*
X101525000Y-98392857D02*
X101525000Y-99078571D01*
X100941666Y-98650000D02*
X102441666Y-98650000D01*
X102608333Y-98735714D01*
X102691666Y-98907142D01*
X102691666Y-99078571D01*
X102608333Y-100364285D02*
X102691666Y-100192857D01*
X102691666Y-99850000D01*
X102608333Y-99678571D01*
X102441666Y-99592857D01*
X101775000Y-99592857D01*
X101608333Y-99678571D01*
X101525000Y-99850000D01*
X101525000Y-100192857D01*
X101608333Y-100364285D01*
X101775000Y-100450000D01*
X101941666Y-100450000D01*
X102108333Y-99592857D01*
X100941666Y-103450000D02*
X100941666Y-102592857D01*
X101775000Y-102507142D01*
X101691666Y-102592857D01*
X101608333Y-102764285D01*
X101608333Y-103192857D01*
X101691666Y-103364285D01*
X101775000Y-103450000D01*
X101941666Y-103535714D01*
X102358333Y-103535714D01*
X102525000Y-103450000D01*
X102608333Y-103364285D01*
X102691666Y-103192857D01*
X102691666Y-102764285D01*
X102608333Y-102592857D01*
X102525000Y-102507142D01*
D11*
X135054710Y-108637167D02*
X135177394Y-108673660D01*
X135233767Y-108663720D01*
X135313355Y-108620623D01*
X135383004Y-108521155D01*
X135396280Y-108431626D01*
X135386340Y-108375254D01*
X135343244Y-108295666D01*
X135077995Y-108109936D01*
X134590455Y-108806215D01*
X134822548Y-108968729D01*
X134912076Y-108982005D01*
X134968449Y-108972065D01*
X135048037Y-108928969D01*
X135094470Y-108862656D01*
X135107746Y-108773128D01*
X135097806Y-108716756D01*
X135054710Y-108637167D01*
X134822617Y-108474654D01*
X135774274Y-108597476D02*
X135286734Y-109293755D01*
X135551983Y-109479485D01*
X135641512Y-109492761D01*
X135697884Y-109482821D01*
X135777473Y-109439725D01*
X135847121Y-109340256D01*
X135860397Y-109250728D01*
X135850458Y-109194356D01*
X135807361Y-109114767D01*
X135542112Y-108929038D01*
X136470553Y-109085016D02*
X135983013Y-109781295D01*
X136447199Y-110106322D02*
X136579824Y-110199187D01*
X136669353Y-110212463D01*
X136782097Y-110192583D01*
X136908118Y-110083175D01*
X137070632Y-109851081D01*
X137130340Y-109695241D01*
X137110460Y-109582496D01*
X137067364Y-109502907D01*
X136934739Y-109410043D01*
X136845211Y-109396766D01*
X136732466Y-109416646D01*
X136606445Y-109526055D01*
X136443932Y-109758148D01*
X136384223Y-109913989D01*
X136404103Y-110026733D01*
X136447199Y-110106322D01*
X137342416Y-110733159D02*
X137209791Y-110640294D01*
X137166695Y-110560706D01*
X137156755Y-110504333D01*
X137160091Y-110358433D01*
X137219800Y-110202592D01*
X137405529Y-109937343D01*
X137485118Y-109894246D01*
X137541490Y-109884306D01*
X137631019Y-109897583D01*
X137763643Y-109990447D01*
X137806739Y-110070036D01*
X137816679Y-110126408D01*
X137803403Y-110215937D01*
X137687322Y-110381718D01*
X137607734Y-110424814D01*
X137551361Y-110434754D01*
X137461833Y-110421477D01*
X137329208Y-110328613D01*
X137286112Y-110249024D01*
X137276172Y-110192652D01*
X137289448Y-110103123D01*
D12*
X111735714Y-109715476D02*
X112152380Y-109120238D01*
X112450000Y-109715476D02*
X112450000Y-108465476D01*
X111973809Y-108465476D01*
X111854761Y-108525000D01*
X111795238Y-108584523D01*
X111735714Y-108703571D01*
X111735714Y-108882142D01*
X111795238Y-109001190D01*
X111854761Y-109060714D01*
X111973809Y-109120238D01*
X112450000Y-109120238D01*
X111200000Y-109060714D02*
X110783333Y-109060714D01*
X110604761Y-109715476D02*
X111200000Y-109715476D01*
X111200000Y-108465476D01*
X110604761Y-108465476D01*
X110247619Y-108465476D02*
X109830952Y-109715476D01*
X109414285Y-108465476D01*
X107866666Y-109001190D02*
X107985714Y-108941666D01*
X108045238Y-108882142D01*
X108104761Y-108763095D01*
X108104761Y-108703571D01*
X108045238Y-108584523D01*
X107985714Y-108525000D01*
X107866666Y-108465476D01*
X107628571Y-108465476D01*
X107509523Y-108525000D01*
X107450000Y-108584523D01*
X107390476Y-108703571D01*
X107390476Y-108763095D01*
X107450000Y-108882142D01*
X107509523Y-108941666D01*
X107628571Y-109001190D01*
X107866666Y-109001190D01*
X107985714Y-109060714D01*
X108045238Y-109120238D01*
X108104761Y-109239285D01*
X108104761Y-109477380D01*
X108045238Y-109596428D01*
X107985714Y-109655952D01*
X107866666Y-109715476D01*
X107628571Y-109715476D01*
X107509523Y-109655952D01*
X107450000Y-109596428D01*
X107390476Y-109477380D01*
X107390476Y-109239285D01*
X107450000Y-109120238D01*
X107509523Y-109060714D01*
X107628571Y-109001190D01*
D11*
X119804710Y-108587167D02*
X119927394Y-108623660D01*
X119983767Y-108613720D01*
X120063355Y-108570623D01*
X120133004Y-108471155D01*
X120146280Y-108381626D01*
X120136340Y-108325254D01*
X120093244Y-108245666D01*
X119827995Y-108059936D01*
X119340455Y-108756215D01*
X119572548Y-108918729D01*
X119662076Y-108932005D01*
X119718449Y-108922065D01*
X119798037Y-108878969D01*
X119844470Y-108812656D01*
X119857746Y-108723128D01*
X119847806Y-108666756D01*
X119804710Y-108587167D01*
X119572617Y-108424654D01*
X120524274Y-108547476D02*
X120036734Y-109243755D01*
X120301983Y-109429485D01*
X120391512Y-109442761D01*
X120447884Y-109432821D01*
X120527473Y-109389725D01*
X120597121Y-109290256D01*
X120610397Y-109200728D01*
X120600458Y-109144356D01*
X120557361Y-109064767D01*
X120292112Y-108879038D01*
X121220553Y-109035016D02*
X120733013Y-109731295D01*
X121197199Y-110056322D02*
X121329824Y-110149187D01*
X121419353Y-110162463D01*
X121532097Y-110142583D01*
X121658118Y-110033175D01*
X121820632Y-109801081D01*
X121880340Y-109645241D01*
X121860460Y-109532496D01*
X121817364Y-109452907D01*
X121684739Y-109360043D01*
X121595211Y-109346766D01*
X121482466Y-109366646D01*
X121356445Y-109476055D01*
X121193932Y-109708148D01*
X121134223Y-109863989D01*
X121154103Y-109976733D01*
X121197199Y-110056322D01*
X121926635Y-110567078D02*
X121992947Y-110613510D01*
X122082476Y-110626787D01*
X122138848Y-110616847D01*
X122218437Y-110573751D01*
X122344457Y-110464342D01*
X122460538Y-110298561D01*
X122520247Y-110142721D01*
X122533523Y-110053192D01*
X122523583Y-109996820D01*
X122480487Y-109917231D01*
X122414175Y-109870799D01*
X122324646Y-109857523D01*
X122268274Y-109867463D01*
X122188685Y-109910559D01*
X122062665Y-110019967D01*
X121946584Y-110185748D01*
X121886875Y-110341589D01*
X121873599Y-110431117D01*
X121883539Y-110487490D01*
X121926635Y-110567078D01*
X122354710Y-108637167D02*
X122477394Y-108673660D01*
X122533767Y-108663720D01*
X122613355Y-108620623D01*
X122683004Y-108521155D01*
X122696280Y-108431626D01*
X122686340Y-108375254D01*
X122643244Y-108295666D01*
X122377995Y-108109936D01*
X121890455Y-108806215D01*
X122122548Y-108968729D01*
X122212076Y-108982005D01*
X122268449Y-108972065D01*
X122348037Y-108928969D01*
X122394470Y-108862656D01*
X122407746Y-108773128D01*
X122397806Y-108716756D01*
X122354710Y-108637167D01*
X122122617Y-108474654D01*
X123074274Y-108597476D02*
X122586734Y-109293755D01*
X122851983Y-109479485D01*
X122941512Y-109492761D01*
X122997884Y-109482821D01*
X123077473Y-109439725D01*
X123147121Y-109340256D01*
X123160397Y-109250728D01*
X123150458Y-109194356D01*
X123107361Y-109114767D01*
X122842112Y-108929038D01*
X123770553Y-109085016D02*
X123283013Y-109781295D01*
X123747199Y-110106322D02*
X123879824Y-110199187D01*
X123969353Y-110212463D01*
X124082097Y-110192583D01*
X124208118Y-110083175D01*
X124370632Y-109851081D01*
X124430340Y-109695241D01*
X124410460Y-109582496D01*
X124367364Y-109502907D01*
X124234739Y-109410043D01*
X124145211Y-109396766D01*
X124032466Y-109416646D01*
X123906445Y-109526055D01*
X123743932Y-109758148D01*
X123684223Y-109913989D01*
X123704103Y-110026733D01*
X123747199Y-110106322D01*
X125196268Y-110083312D02*
X124798394Y-109804718D01*
X124997331Y-109944015D02*
X124509791Y-110640294D01*
X124513127Y-110494393D01*
X124493247Y-110381649D01*
X124450151Y-110302060D01*
X124904710Y-108687167D02*
X125027394Y-108723660D01*
X125083767Y-108713720D01*
X125163355Y-108670623D01*
X125233004Y-108571155D01*
X125246280Y-108481626D01*
X125236340Y-108425254D01*
X125193244Y-108345666D01*
X124927995Y-108159936D01*
X124440455Y-108856215D01*
X124672548Y-109018729D01*
X124762076Y-109032005D01*
X124818449Y-109022065D01*
X124898037Y-108978969D01*
X124944470Y-108912656D01*
X124957746Y-108823128D01*
X124947806Y-108766756D01*
X124904710Y-108687167D01*
X124672617Y-108524654D01*
X125624274Y-108647476D02*
X125136734Y-109343755D01*
X125401983Y-109529485D01*
X125491512Y-109542761D01*
X125547884Y-109532821D01*
X125627473Y-109489725D01*
X125697121Y-109390256D01*
X125710397Y-109300728D01*
X125700458Y-109244356D01*
X125657361Y-109164767D01*
X125392112Y-108979038D01*
X126320553Y-109135016D02*
X125833013Y-109831295D01*
X126297199Y-110156322D02*
X126429824Y-110249187D01*
X126519353Y-110262463D01*
X126632097Y-110242583D01*
X126758118Y-110133175D01*
X126920632Y-109901081D01*
X126980340Y-109745241D01*
X126960460Y-109632496D01*
X126917364Y-109552907D01*
X126784739Y-109460043D01*
X126695211Y-109446766D01*
X126582466Y-109466646D01*
X126456445Y-109576055D01*
X126293932Y-109808148D01*
X126234223Y-109963989D01*
X126254103Y-110076733D01*
X126297199Y-110156322D01*
X126907286Y-110484685D02*
X126917226Y-110541057D01*
X126960323Y-110620646D01*
X127126103Y-110736727D01*
X127215632Y-110750003D01*
X127272004Y-110740063D01*
X127351593Y-110696967D01*
X127398025Y-110630654D01*
X127434518Y-110507970D01*
X127315238Y-109831502D01*
X127746268Y-110133312D01*
X127414710Y-108637167D02*
X127537394Y-108673660D01*
X127593767Y-108663720D01*
X127673355Y-108620623D01*
X127743004Y-108521155D01*
X127756280Y-108431626D01*
X127746340Y-108375254D01*
X127703244Y-108295666D01*
X127437995Y-108109936D01*
X126950455Y-108806215D01*
X127182548Y-108968729D01*
X127272076Y-108982005D01*
X127328449Y-108972065D01*
X127408037Y-108928969D01*
X127454470Y-108862656D01*
X127467746Y-108773128D01*
X127457806Y-108716756D01*
X127414710Y-108637167D01*
X127182617Y-108474654D01*
X128134274Y-108597476D02*
X127646734Y-109293755D01*
X127911983Y-109479485D01*
X128001512Y-109492761D01*
X128057884Y-109482821D01*
X128137473Y-109439725D01*
X128207121Y-109340256D01*
X128220397Y-109250728D01*
X128210458Y-109194356D01*
X128167361Y-109114767D01*
X127902112Y-108929038D01*
X128830553Y-109085016D02*
X128343013Y-109781295D01*
X128807199Y-110106322D02*
X128939824Y-110199187D01*
X129029353Y-110212463D01*
X129142097Y-110192583D01*
X129268118Y-110083175D01*
X129430632Y-109851081D01*
X129490340Y-109695241D01*
X129470460Y-109582496D01*
X129427364Y-109502907D01*
X129294739Y-109410043D01*
X129205211Y-109396766D01*
X129092466Y-109416646D01*
X128966445Y-109526055D01*
X128803932Y-109758148D01*
X128744223Y-109913989D01*
X128764103Y-110026733D01*
X128807199Y-110106322D01*
X129337698Y-110477781D02*
X129768728Y-110779591D01*
X129722364Y-110351829D01*
X129821833Y-110421477D01*
X129911361Y-110434754D01*
X129967734Y-110424814D01*
X130047322Y-110381718D01*
X130163403Y-110215937D01*
X130176679Y-110126408D01*
X130166739Y-110070036D01*
X130123643Y-109990447D01*
X129924706Y-109851150D01*
X129835178Y-109837874D01*
X129778806Y-109847814D01*
X129954710Y-108637167D02*
X130077394Y-108673660D01*
X130133767Y-108663720D01*
X130213355Y-108620623D01*
X130283004Y-108521155D01*
X130296280Y-108431626D01*
X130286340Y-108375254D01*
X130243244Y-108295666D01*
X129977995Y-108109936D01*
X129490455Y-108806215D01*
X129722548Y-108968729D01*
X129812076Y-108982005D01*
X129868449Y-108972065D01*
X129948037Y-108928969D01*
X129994470Y-108862656D01*
X130007746Y-108773128D01*
X129997806Y-108716756D01*
X129954710Y-108637167D01*
X129722617Y-108474654D01*
X130674274Y-108597476D02*
X130186734Y-109293755D01*
X130451983Y-109479485D01*
X130541512Y-109492761D01*
X130597884Y-109482821D01*
X130677473Y-109439725D01*
X130747121Y-109340256D01*
X130760397Y-109250728D01*
X130750458Y-109194356D01*
X130707361Y-109114767D01*
X130442112Y-108929038D01*
X131370553Y-109085016D02*
X130883013Y-109781295D01*
X131347199Y-110106322D02*
X131479824Y-110199187D01*
X131569353Y-110212463D01*
X131682097Y-110192583D01*
X131808118Y-110083175D01*
X131970632Y-109851081D01*
X132030340Y-109695241D01*
X132010460Y-109582496D01*
X131967364Y-109502907D01*
X131834739Y-109410043D01*
X131745211Y-109396766D01*
X131632466Y-109416646D01*
X131506445Y-109526055D01*
X131343932Y-109758148D01*
X131284223Y-109913989D01*
X131304103Y-110026733D01*
X131347199Y-110106322D01*
X132404929Y-110501066D02*
X132729956Y-110036880D01*
X132053419Y-110650234D02*
X132235881Y-110036811D01*
X132666911Y-110338621D01*
X132504710Y-108637167D02*
X132627394Y-108673660D01*
X132683767Y-108663720D01*
X132763355Y-108620623D01*
X132833004Y-108521155D01*
X132846280Y-108431626D01*
X132836340Y-108375254D01*
X132793244Y-108295666D01*
X132527995Y-108109936D01*
X132040455Y-108806215D01*
X132272548Y-108968729D01*
X132362076Y-108982005D01*
X132418449Y-108972065D01*
X132498037Y-108928969D01*
X132544470Y-108862656D01*
X132557746Y-108773128D01*
X132547806Y-108716756D01*
X132504710Y-108637167D01*
X132272617Y-108474654D01*
X133224274Y-108597476D02*
X132736734Y-109293755D01*
X133001983Y-109479485D01*
X133091512Y-109492761D01*
X133147884Y-109482821D01*
X133227473Y-109439725D01*
X133297121Y-109340256D01*
X133310397Y-109250728D01*
X133300458Y-109194356D01*
X133257361Y-109114767D01*
X132992112Y-108929038D01*
X133920553Y-109085016D02*
X133433013Y-109781295D01*
X133897199Y-110106322D02*
X134029824Y-110199187D01*
X134119353Y-110212463D01*
X134232097Y-110192583D01*
X134358118Y-110083175D01*
X134520632Y-109851081D01*
X134580340Y-109695241D01*
X134560460Y-109582496D01*
X134517364Y-109502907D01*
X134384739Y-109410043D01*
X134295211Y-109396766D01*
X134182466Y-109416646D01*
X134056445Y-109526055D01*
X133893932Y-109758148D01*
X133834223Y-109913989D01*
X133854103Y-110026733D01*
X133897199Y-110106322D01*
X134825572Y-110756375D02*
X134494010Y-110524213D01*
X134693016Y-110169436D01*
X134702956Y-110225808D01*
X134746052Y-110305396D01*
X134911833Y-110421477D01*
X135001361Y-110434754D01*
X135057734Y-110424814D01*
X135137322Y-110381718D01*
X135253403Y-110215937D01*
X135266679Y-110126408D01*
X135256739Y-110070036D01*
X135213643Y-109990447D01*
X135047863Y-109874366D01*
X134958334Y-109861090D01*
X134901962Y-109871030D01*
X137604710Y-108637167D02*
X137727394Y-108673660D01*
X137783767Y-108663720D01*
X137863355Y-108620623D01*
X137933004Y-108521155D01*
X137946280Y-108431626D01*
X137936340Y-108375254D01*
X137893244Y-108295666D01*
X137627995Y-108109936D01*
X137140455Y-108806215D01*
X137372548Y-108968729D01*
X137462076Y-108982005D01*
X137518449Y-108972065D01*
X137598037Y-108928969D01*
X137644470Y-108862656D01*
X137657746Y-108773128D01*
X137647806Y-108716756D01*
X137604710Y-108637167D01*
X137372617Y-108474654D01*
X138324274Y-108597476D02*
X137836734Y-109293755D01*
X138101983Y-109479485D01*
X138191512Y-109492761D01*
X138247884Y-109482821D01*
X138327473Y-109439725D01*
X138397121Y-109340256D01*
X138410397Y-109250728D01*
X138400458Y-109194356D01*
X138357361Y-109114767D01*
X138092112Y-108929038D01*
X139020553Y-109085016D02*
X138533013Y-109781295D01*
X138997199Y-110106322D02*
X139129824Y-110199187D01*
X139219353Y-110212463D01*
X139332097Y-110192583D01*
X139458118Y-110083175D01*
X139620632Y-109851081D01*
X139680340Y-109695241D01*
X139660460Y-109582496D01*
X139617364Y-109502907D01*
X139484739Y-109410043D01*
X139395211Y-109396766D01*
X139282466Y-109416646D01*
X139156445Y-109526055D01*
X138993932Y-109758148D01*
X138934223Y-109913989D01*
X138954103Y-110026733D01*
X138997199Y-110106322D01*
X139527698Y-110477781D02*
X139991884Y-110802808D01*
X140181019Y-109897583D01*
X116806236Y-108872296D02*
X117525869Y-108338530D01*
X117270422Y-109197323D01*
X117635139Y-109452701D02*
X117767764Y-109545566D01*
X117857293Y-109558842D01*
X117970037Y-109538962D01*
X118096058Y-109429554D01*
X118258572Y-109197461D01*
X118318280Y-109041620D01*
X118298400Y-108928875D01*
X118255304Y-108849287D01*
X118122679Y-108756422D01*
X118033151Y-108743146D01*
X117920406Y-108763025D01*
X117794385Y-108872434D01*
X117631872Y-109104527D01*
X117572163Y-109260368D01*
X117592043Y-109373112D01*
X117635139Y-109452701D01*
X118231950Y-109870592D02*
X118626625Y-109306938D01*
X118706214Y-109263842D01*
X118762586Y-109253902D01*
X118852115Y-109267178D01*
X118984739Y-109360043D01*
X119027836Y-109439631D01*
X119037776Y-109496004D01*
X119024499Y-109585532D01*
X118629824Y-110149187D01*
X118861917Y-110311700D02*
X119259791Y-110590294D01*
X119548394Y-109754718D02*
X119060854Y-110450997D01*
D12*
X140389095Y-109472565D02*
X140283768Y-109456946D01*
X140166746Y-109375006D01*
X140077038Y-109254060D01*
X140053649Y-109121419D01*
X140069268Y-109016091D01*
X140139514Y-108832749D01*
X140221453Y-108715727D01*
X140369713Y-108587012D01*
X140463347Y-108536310D01*
X140595988Y-108512922D01*
X140740323Y-108555854D01*
X140818337Y-108610481D01*
X140908046Y-108731427D01*
X140919740Y-108797748D01*
X140728547Y-109070798D01*
X140572519Y-108961546D01*
X141325431Y-108965552D02*
X140751855Y-109784704D01*
X141793518Y-109293310D01*
X141219942Y-110112462D01*
X142183590Y-109566441D02*
X141610014Y-110385593D01*
X141805050Y-110522159D01*
X141949385Y-110565091D01*
X142082026Y-110541703D01*
X142175659Y-110491002D01*
X142323919Y-110362286D01*
X142405859Y-110245264D01*
X142476104Y-110061922D01*
X142491723Y-109956595D01*
X142468335Y-109823954D01*
X142378627Y-109703007D01*
X142183590Y-109566441D01*
X114384523Y-111358333D02*
X113789285Y-111358333D01*
X114503571Y-111715476D02*
X114086904Y-110465476D01*
X113670238Y-111715476D01*
X113253571Y-110465476D02*
X113253571Y-111477380D01*
X113194047Y-111596428D01*
X113134523Y-111655952D01*
X113015476Y-111715476D01*
X112777380Y-111715476D01*
X112658333Y-111655952D01*
X112598809Y-111596428D01*
X112539285Y-111477380D01*
X112539285Y-110465476D01*
X111289285Y-110525000D02*
X111408333Y-110465476D01*
X111586904Y-110465476D01*
X111765476Y-110525000D01*
X111884523Y-110644047D01*
X111944047Y-110763095D01*
X112003571Y-111001190D01*
X112003571Y-111179761D01*
X111944047Y-111417857D01*
X111884523Y-111536904D01*
X111765476Y-111655952D01*
X111586904Y-111715476D01*
X111467857Y-111715476D01*
X111289285Y-111655952D01*
X111229761Y-111596428D01*
X111229761Y-111179761D01*
X111467857Y-111179761D01*
X109801190Y-110584523D02*
X109741666Y-110525000D01*
X109622619Y-110465476D01*
X109325000Y-110465476D01*
X109205952Y-110525000D01*
X109146428Y-110584523D01*
X109086904Y-110703571D01*
X109086904Y-110822619D01*
X109146428Y-111001190D01*
X109860714Y-111715476D01*
X109086904Y-111715476D01*
X108313095Y-110465476D02*
X108194047Y-110465476D01*
X108075000Y-110525000D01*
X108015476Y-110584523D01*
X107955952Y-110703571D01*
X107896428Y-110941666D01*
X107896428Y-111239285D01*
X107955952Y-111477380D01*
X108015476Y-111596428D01*
X108075000Y-111655952D01*
X108194047Y-111715476D01*
X108313095Y-111715476D01*
X108432142Y-111655952D01*
X108491666Y-111596428D01*
X108551190Y-111477380D01*
X108610714Y-111239285D01*
X108610714Y-110941666D01*
X108551190Y-110703571D01*
X108491666Y-110584523D01*
X108432142Y-110525000D01*
X108313095Y-110465476D01*
X107420238Y-110584523D02*
X107360714Y-110525000D01*
X107241666Y-110465476D01*
X106944047Y-110465476D01*
X106825000Y-110525000D01*
X106765476Y-110584523D01*
X106705952Y-110703571D01*
X106705952Y-110822619D01*
X106765476Y-111001190D01*
X107479761Y-111715476D01*
X106705952Y-111715476D01*
X106289285Y-110465476D02*
X105515476Y-110465476D01*
X105932142Y-110941666D01*
X105753571Y-110941666D01*
X105634523Y-111001190D01*
X105575000Y-111060714D01*
X105515476Y-111179761D01*
X105515476Y-111477380D01*
X105575000Y-111596428D01*
X105634523Y-111655952D01*
X105753571Y-111715476D01*
X106110714Y-111715476D01*
X106229761Y-111655952D01*
X106289285Y-111596428D01*
D13*
X159689285Y-78778571D02*
X158939285Y-78778571D01*
X159689285Y-79421428D02*
X159296428Y-79421428D01*
X159225000Y-79350000D01*
X159189285Y-79207142D01*
X159189285Y-78992857D01*
X159225000Y-78850000D01*
X159260714Y-78778571D01*
X159189285Y-79921428D02*
X159189285Y-80492857D01*
X158939285Y-80135714D02*
X159582142Y-80135714D01*
X159653571Y-80207142D01*
X159689285Y-80350000D01*
X159689285Y-80492857D01*
X159189285Y-80778571D02*
X159189285Y-81350000D01*
X158939285Y-80992857D02*
X159582142Y-80992857D01*
X159653571Y-81064285D01*
X159689285Y-81207142D01*
X159689285Y-81350000D01*
X159189285Y-81850000D02*
X159939285Y-81850000D01*
X159225000Y-81850000D02*
X159189285Y-81992857D01*
X159189285Y-82278571D01*
X159225000Y-82421428D01*
X159260714Y-82492857D01*
X159332142Y-82564285D01*
X159546428Y-82564285D01*
X159617857Y-82492857D01*
X159653571Y-82421428D01*
X159689285Y-82278571D01*
X159689285Y-81992857D01*
X159653571Y-81850000D01*
X159653571Y-83135714D02*
X159689285Y-83278571D01*
X159689285Y-83564285D01*
X159653571Y-83707142D01*
X159582142Y-83778571D01*
X159546428Y-83778571D01*
X159475000Y-83707142D01*
X159439285Y-83564285D01*
X159439285Y-83350000D01*
X159403571Y-83207142D01*
X159332142Y-83135714D01*
X159296428Y-83135714D01*
X159225000Y-83207142D01*
X159189285Y-83350000D01*
X159189285Y-83564285D01*
X159225000Y-83707142D01*
X159617857Y-84421428D02*
X159653571Y-84492857D01*
X159689285Y-84421428D01*
X159653571Y-84350000D01*
X159617857Y-84421428D01*
X159689285Y-84421428D01*
X159225000Y-84421428D02*
X159260714Y-84492857D01*
X159296428Y-84421428D01*
X159260714Y-84350000D01*
X159225000Y-84421428D01*
X159296428Y-84421428D01*
X158903571Y-86207142D02*
X159867857Y-84921428D01*
X158903571Y-87778571D02*
X159867857Y-86492857D01*
X159653571Y-88207142D02*
X159689285Y-88350000D01*
X159689285Y-88635714D01*
X159653571Y-88778571D01*
X159582142Y-88850000D01*
X159546428Y-88850000D01*
X159475000Y-88778571D01*
X159439285Y-88635714D01*
X159439285Y-88421428D01*
X159403571Y-88278571D01*
X159332142Y-88207142D01*
X159296428Y-88207142D01*
X159225000Y-88278571D01*
X159189285Y-88421428D01*
X159189285Y-88635714D01*
X159225000Y-88778571D01*
X159689285Y-89492857D02*
X159189285Y-89492857D01*
X159260714Y-89492857D02*
X159225000Y-89564285D01*
X159189285Y-89707142D01*
X159189285Y-89921428D01*
X159225000Y-90064285D01*
X159296428Y-90135714D01*
X159689285Y-90135714D01*
X159296428Y-90135714D02*
X159225000Y-90207142D01*
X159189285Y-90350000D01*
X159189285Y-90564285D01*
X159225000Y-90707142D01*
X159296428Y-90778571D01*
X159689285Y-90778571D01*
X159689285Y-92135714D02*
X158939285Y-92135714D01*
X159653571Y-92135714D02*
X159689285Y-91992857D01*
X159689285Y-91707142D01*
X159653571Y-91564285D01*
X159617857Y-91492857D01*
X159546428Y-91421428D01*
X159332142Y-91421428D01*
X159260714Y-91492857D01*
X159225000Y-91564285D01*
X159189285Y-91707142D01*
X159189285Y-91992857D01*
X159225000Y-92135714D01*
X159189285Y-92850000D02*
X159939285Y-92850000D01*
X159225000Y-92850000D02*
X159189285Y-92992857D01*
X159189285Y-93278571D01*
X159225000Y-93421428D01*
X159260714Y-93492857D01*
X159332142Y-93564285D01*
X159546428Y-93564285D01*
X159617857Y-93492857D01*
X159653571Y-93421428D01*
X159689285Y-93278571D01*
X159689285Y-92992857D01*
X159653571Y-92850000D01*
X159689285Y-94207142D02*
X159189285Y-94207142D01*
X159332142Y-94207142D02*
X159260714Y-94278571D01*
X159225000Y-94350000D01*
X159189285Y-94492857D01*
X159189285Y-94635714D01*
X159189285Y-95778571D02*
X159689285Y-95778571D01*
X159189285Y-95135714D02*
X159582142Y-95135714D01*
X159653571Y-95207142D01*
X159689285Y-95350000D01*
X159689285Y-95564285D01*
X159653571Y-95707142D01*
X159617857Y-95778571D01*
X159189285Y-96278571D02*
X159189285Y-96850000D01*
X158939285Y-96492857D02*
X159582142Y-96492857D01*
X159653571Y-96564285D01*
X159689285Y-96707142D01*
X159689285Y-96850000D01*
X159653571Y-97278571D02*
X159689285Y-97421428D01*
X159689285Y-97707142D01*
X159653571Y-97850000D01*
X159582142Y-97921428D01*
X159546428Y-97921428D01*
X159475000Y-97850000D01*
X159439285Y-97707142D01*
X159439285Y-97492857D01*
X159403571Y-97350000D01*
X159332142Y-97278571D01*
X159296428Y-97278571D01*
X159225000Y-97350000D01*
X159189285Y-97492857D01*
X159189285Y-97707142D01*
X159225000Y-97850000D01*
X159653571Y-99135714D02*
X159689285Y-98992857D01*
X159689285Y-98707142D01*
X159653571Y-98564285D01*
X159582142Y-98492857D01*
X159296428Y-98492857D01*
X159225000Y-98564285D01*
X159189285Y-98707142D01*
X159189285Y-98992857D01*
X159225000Y-99135714D01*
X159296428Y-99207142D01*
X159367857Y-99207142D01*
X159439285Y-98492857D01*
X159689285Y-99850000D02*
X159189285Y-99850000D01*
X159332142Y-99850000D02*
X159260714Y-99921428D01*
X159225000Y-99992857D01*
X159189285Y-100135714D01*
X159189285Y-100278571D01*
X159617857Y-100778571D02*
X159653571Y-100850000D01*
X159689285Y-100778571D01*
X159653571Y-100707142D01*
X159617857Y-100778571D01*
X159689285Y-100778571D01*
X159189285Y-101492857D02*
X159689285Y-101492857D01*
X159260714Y-101492857D02*
X159225000Y-101564285D01*
X159189285Y-101707142D01*
X159189285Y-101921428D01*
X159225000Y-102064285D01*
X159296428Y-102135714D01*
X159689285Y-102135714D01*
X159689285Y-103064285D02*
X159653571Y-102921428D01*
X159582142Y-102850000D01*
X158939285Y-102850000D01*
X158489285Y-80335238D02*
X157739285Y-80335238D01*
X158489285Y-80840952D02*
X158096428Y-80840952D01*
X158025000Y-80784761D01*
X157989285Y-80672380D01*
X157989285Y-80503809D01*
X158025000Y-80391428D01*
X158060714Y-80335238D01*
X157989285Y-81234285D02*
X157989285Y-81683809D01*
X157739285Y-81402857D02*
X158382142Y-81402857D01*
X158453571Y-81459047D01*
X158489285Y-81571428D01*
X158489285Y-81683809D01*
X157989285Y-81908571D02*
X157989285Y-82358095D01*
X157739285Y-82077142D02*
X158382142Y-82077142D01*
X158453571Y-82133333D01*
X158489285Y-82245714D01*
X158489285Y-82358095D01*
X157989285Y-82751428D02*
X158739285Y-82751428D01*
X158025000Y-82751428D02*
X157989285Y-82863809D01*
X157989285Y-83088571D01*
X158025000Y-83200952D01*
X158060714Y-83257142D01*
X158132142Y-83313333D01*
X158346428Y-83313333D01*
X158417857Y-83257142D01*
X158453571Y-83200952D01*
X158489285Y-83088571D01*
X158489285Y-82863809D01*
X158453571Y-82751428D01*
X158453571Y-83762857D02*
X158489285Y-83875238D01*
X158489285Y-84100000D01*
X158453571Y-84212380D01*
X158382142Y-84268571D01*
X158346428Y-84268571D01*
X158275000Y-84212380D01*
X158239285Y-84100000D01*
X158239285Y-83931428D01*
X158203571Y-83819047D01*
X158132142Y-83762857D01*
X158096428Y-83762857D01*
X158025000Y-83819047D01*
X157989285Y-83931428D01*
X157989285Y-84100000D01*
X158025000Y-84212380D01*
X158417857Y-84774285D02*
X158453571Y-84830476D01*
X158489285Y-84774285D01*
X158453571Y-84718095D01*
X158417857Y-84774285D01*
X158489285Y-84774285D01*
X158025000Y-84774285D02*
X158060714Y-84830476D01*
X158096428Y-84774285D01*
X158060714Y-84718095D01*
X158025000Y-84774285D01*
X158096428Y-84774285D01*
X157703571Y-86179047D02*
X158667857Y-85167619D01*
X157703571Y-87415238D02*
X158667857Y-86403809D01*
X158489285Y-87808571D02*
X157739285Y-87808571D01*
X158025000Y-87808571D02*
X157989285Y-87920952D01*
X157989285Y-88145714D01*
X158025000Y-88258095D01*
X158060714Y-88314285D01*
X158132142Y-88370476D01*
X158346428Y-88370476D01*
X158417857Y-88314285D01*
X158453571Y-88258095D01*
X158489285Y-88145714D01*
X158489285Y-87920952D01*
X158453571Y-87808571D01*
X157989285Y-89381904D02*
X158489285Y-89381904D01*
X157989285Y-88876190D02*
X158382142Y-88876190D01*
X158453571Y-88932380D01*
X158489285Y-89044761D01*
X158489285Y-89213333D01*
X158453571Y-89325714D01*
X158417857Y-89381904D01*
X158453571Y-89887619D02*
X158489285Y-90000000D01*
X158489285Y-90224761D01*
X158453571Y-90337142D01*
X158382142Y-90393333D01*
X158346428Y-90393333D01*
X158275000Y-90337142D01*
X158239285Y-90224761D01*
X158239285Y-90056190D01*
X158203571Y-89943809D01*
X158132142Y-89887619D01*
X158096428Y-89887619D01*
X158025000Y-89943809D01*
X157989285Y-90056190D01*
X157989285Y-90224761D01*
X158025000Y-90337142D01*
X157989285Y-90899047D02*
X158739285Y-90899047D01*
X158025000Y-90899047D02*
X157989285Y-91011428D01*
X157989285Y-91236190D01*
X158025000Y-91348571D01*
X158060714Y-91404761D01*
X158132142Y-91460952D01*
X158346428Y-91460952D01*
X158417857Y-91404761D01*
X158453571Y-91348571D01*
X158489285Y-91236190D01*
X158489285Y-91011428D01*
X158453571Y-90899047D01*
X158489285Y-91966666D02*
X157989285Y-91966666D01*
X157739285Y-91966666D02*
X157775000Y-91910476D01*
X157810714Y-91966666D01*
X157775000Y-92022857D01*
X157739285Y-91966666D01*
X157810714Y-91966666D01*
X158489285Y-92528571D02*
X157989285Y-92528571D01*
X158132142Y-92528571D02*
X158060714Y-92584761D01*
X158025000Y-92640952D01*
X157989285Y-92753333D01*
X157989285Y-92865714D01*
X158489285Y-93764761D02*
X158096428Y-93764761D01*
X158025000Y-93708571D01*
X157989285Y-93596190D01*
X157989285Y-93371428D01*
X158025000Y-93259047D01*
X158453571Y-93764761D02*
X158489285Y-93652380D01*
X158489285Y-93371428D01*
X158453571Y-93259047D01*
X158382142Y-93202857D01*
X158310714Y-93202857D01*
X158239285Y-93259047D01*
X158203571Y-93371428D01*
X158203571Y-93652380D01*
X158167857Y-93764761D01*
X157989285Y-94158095D02*
X157989285Y-94607619D01*
X157739285Y-94326666D02*
X158382142Y-94326666D01*
X158453571Y-94382857D01*
X158489285Y-94495238D01*
X158489285Y-94607619D01*
X158453571Y-95450476D02*
X158489285Y-95338095D01*
X158489285Y-95113333D01*
X158453571Y-95000952D01*
X158382142Y-94944761D01*
X158096428Y-94944761D01*
X158025000Y-95000952D01*
X157989285Y-95113333D01*
X157989285Y-95338095D01*
X158025000Y-95450476D01*
X158096428Y-95506666D01*
X158167857Y-95506666D01*
X158239285Y-94944761D01*
X158417857Y-96012380D02*
X158453571Y-96068571D01*
X158489285Y-96012380D01*
X158453571Y-95956190D01*
X158417857Y-96012380D01*
X158489285Y-96012380D01*
X158453571Y-97080000D02*
X158489285Y-96967619D01*
X158489285Y-96742857D01*
X158453571Y-96630476D01*
X158417857Y-96574285D01*
X158346428Y-96518095D01*
X158132142Y-96518095D01*
X158060714Y-96574285D01*
X158025000Y-96630476D01*
X157989285Y-96742857D01*
X157989285Y-96967619D01*
X158025000Y-97080000D01*
X158489285Y-97754285D02*
X158453571Y-97641904D01*
X158417857Y-97585714D01*
X158346428Y-97529523D01*
X158132142Y-97529523D01*
X158060714Y-97585714D01*
X158025000Y-97641904D01*
X157989285Y-97754285D01*
X157989285Y-97922857D01*
X158025000Y-98035238D01*
X158060714Y-98091428D01*
X158132142Y-98147619D01*
X158346428Y-98147619D01*
X158417857Y-98091428D01*
X158453571Y-98035238D01*
X158489285Y-97922857D01*
X158489285Y-97754285D01*
X158489285Y-98653333D02*
X157989285Y-98653333D01*
X158060714Y-98653333D02*
X158025000Y-98709523D01*
X157989285Y-98821904D01*
X157989285Y-98990476D01*
X158025000Y-99102857D01*
X158096428Y-99159047D01*
X158489285Y-99159047D01*
X158096428Y-99159047D02*
X158025000Y-99215238D01*
X157989285Y-99327619D01*
X157989285Y-99496190D01*
X158025000Y-99608571D01*
X158096428Y-99664761D01*
X158489285Y-99664761D01*
D14*
X101725000Y-80228571D02*
X101808333Y-80514285D01*
X101891666Y-80609523D01*
X102058333Y-80704761D01*
X102308333Y-80704761D01*
X102475000Y-80609523D01*
X102558333Y-80514285D01*
X102641666Y-80323809D01*
X102641666Y-79561904D01*
X100891666Y-79561904D01*
X100891666Y-80228571D01*
X100975000Y-80419047D01*
X101058333Y-80514285D01*
X101225000Y-80609523D01*
X101391666Y-80609523D01*
X101558333Y-80514285D01*
X101641666Y-80419047D01*
X101725000Y-80228571D01*
X101725000Y-79561904D01*
X101475000Y-82419047D02*
X102641666Y-82419047D01*
X101475000Y-81561904D02*
X102391666Y-81561904D01*
X102558333Y-81657142D01*
X102641666Y-81847619D01*
X102641666Y-82133333D01*
X102558333Y-82323809D01*
X102475000Y-82419047D01*
X102558333Y-83276190D02*
X102641666Y-83466666D01*
X102641666Y-83847619D01*
X102558333Y-84038095D01*
X102391666Y-84133333D01*
X102308333Y-84133333D01*
X102141666Y-84038095D01*
X102058333Y-83847619D01*
X102058333Y-83561904D01*
X101975000Y-83371428D01*
X101808333Y-83276190D01*
X101725000Y-83276190D01*
X101558333Y-83371428D01*
X101475000Y-83561904D01*
X101475000Y-83847619D01*
X101558333Y-84038095D01*
D15*
G36*
X120364539Y-64326622D02*
G01*
X120117787Y-64326975D01*
X119886880Y-64327541D01*
X119675038Y-64328301D01*
X119485479Y-64329235D01*
X119321423Y-64330324D01*
X119186088Y-64331549D01*
X119082693Y-64332892D01*
X119014457Y-64334333D01*
X118984600Y-64335852D01*
X118983500Y-64336209D01*
X118995363Y-64355288D01*
X119028787Y-64404061D01*
X119080524Y-64477918D01*
X119147327Y-64572250D01*
X119225948Y-64682448D01*
X119307871Y-64796584D01*
X119632242Y-65247250D01*
X120556704Y-65252764D01*
X121481167Y-65258278D01*
X121481167Y-67776666D01*
X120023261Y-67776666D01*
X120009236Y-67676125D01*
X119933636Y-67284412D01*
X119818947Y-66905282D01*
X119667168Y-66541448D01*
X119480294Y-66195624D01*
X119260324Y-65870524D01*
X119009252Y-65568863D01*
X118729077Y-65293355D01*
X118421794Y-65046713D01*
X118089401Y-64831652D01*
X117808750Y-64685106D01*
X117470983Y-64543975D01*
X117132875Y-64439482D01*
X116786424Y-64369874D01*
X116423623Y-64333399D01*
X116171050Y-64326624D01*
X115755225Y-64346076D01*
X115355352Y-64404637D01*
X114971799Y-64502160D01*
X114604934Y-64638499D01*
X114255124Y-64813507D01*
X113922739Y-65027036D01*
X113608146Y-65278939D01*
X113472505Y-65404754D01*
X113383916Y-65493333D01*
X113294774Y-65587234D01*
X113210050Y-65680686D01*
X113134713Y-65767915D01*
X113073732Y-65843150D01*
X113032076Y-65900618D01*
X113014715Y-65934547D01*
X113014500Y-65936768D01*
X113030654Y-65954769D01*
X113074885Y-65992642D01*
X113140846Y-66045618D01*
X113222190Y-66108930D01*
X113312571Y-66177808D01*
X113405643Y-66247485D01*
X113495058Y-66313192D01*
X113574470Y-66370160D01*
X113637533Y-66413622D01*
X113677899Y-66438809D01*
X113688511Y-66443166D01*
X113713233Y-66427249D01*
X113741060Y-66392910D01*
X113800455Y-66312916D01*
X113883041Y-66215965D01*
X113979412Y-66112110D01*
X114080160Y-66011402D01*
X114175879Y-65923895D01*
X114195628Y-65907163D01*
X114489064Y-65687808D01*
X114796011Y-65507938D01*
X115119881Y-65365924D01*
X115464084Y-65260140D01*
X115629351Y-65223362D01*
X115785797Y-65200878D01*
X115970023Y-65187976D01*
X116168600Y-65184538D01*
X116368101Y-65190451D01*
X116555099Y-65205599D01*
X116716164Y-65229864D01*
X116730619Y-65232850D01*
X117085696Y-65328907D01*
X117419979Y-65460443D01*
X117731566Y-65625520D01*
X118018553Y-65822195D01*
X118279041Y-66048527D01*
X118511125Y-66302577D01*
X118712906Y-66582402D01*
X118882479Y-66886062D01*
X119017945Y-67211617D01*
X119117400Y-67557124D01*
X119146196Y-67697851D01*
X119166382Y-67850090D01*
X119178274Y-68029743D01*
X119181875Y-68222713D01*
X119177187Y-68414902D01*
X119164215Y-68592212D01*
X119145956Y-68724703D01*
X119061822Y-69073406D01*
X118940641Y-69404356D01*
X118784665Y-69715307D01*
X118596147Y-70004015D01*
X118377340Y-70268236D01*
X118130495Y-70505725D01*
X117857866Y-70714238D01*
X117561705Y-70891531D01*
X117244263Y-71035358D01*
X116907795Y-71143476D01*
X116665750Y-71196077D01*
X116480125Y-71219799D01*
X116270012Y-71231742D01*
X116051585Y-71231907D01*
X115841018Y-71220295D01*
X115654484Y-71196904D01*
X115649750Y-71196077D01*
X115316520Y-71117360D01*
X114993751Y-71001812D01*
X114686361Y-70852234D01*
X114399267Y-70671426D01*
X114137385Y-70462189D01*
X113905634Y-70227324D01*
X113865128Y-70179689D01*
X113801422Y-70104050D01*
X113746751Y-70041306D01*
X113707122Y-69998206D01*
X113688881Y-69981608D01*
X113666805Y-69991354D01*
X113617835Y-70022550D01*
X113548334Y-70070451D01*
X113464665Y-70130312D01*
X113373190Y-70197388D01*
X113280272Y-70266934D01*
X113192272Y-70334205D01*
X113115553Y-70394455D01*
X113056478Y-70442939D01*
X113021409Y-70474914D01*
X113014500Y-70484566D01*
X113028599Y-70515199D01*
X113067577Y-70570067D01*
X113126460Y-70643393D01*
X113200272Y-70729400D01*
X113284037Y-70822309D01*
X113372781Y-70916344D01*
X113461529Y-71005727D01*
X113472505Y-71016412D01*
X113777664Y-71284245D01*
X114101633Y-71514270D01*
X114444887Y-71706716D01*
X114807896Y-71861814D01*
X115191133Y-71979795D01*
X115595072Y-72060890D01*
X115618000Y-72064299D01*
X115776687Y-72081117D01*
X115962385Y-72090448D01*
X116163843Y-72092577D01*
X116369811Y-72087790D01*
X116569038Y-72076371D01*
X116750276Y-72058607D01*
X116902273Y-72034783D01*
X116919175Y-72031282D01*
X117323595Y-71924397D01*
X117705366Y-71781838D01*
X118065141Y-71603275D01*
X118403572Y-71388376D01*
X118721312Y-71136812D01*
X118769078Y-71094220D01*
X119042036Y-70818972D01*
X119287319Y-70514336D01*
X119502506Y-70184902D01*
X119685172Y-69835259D01*
X119832896Y-69469998D01*
X119943253Y-69093709D01*
X120009236Y-68745041D01*
X120023261Y-68644500D01*
X121481167Y-68644500D01*
X121481167Y-71534860D01*
X121855044Y-71809471D01*
X121965088Y-71890038D01*
X122063936Y-71961911D01*
X122146407Y-72021366D01*
X122207325Y-72064678D01*
X122241511Y-72088122D01*
X122246627Y-72091138D01*
X122248459Y-72071059D01*
X122250239Y-72010732D01*
X122251958Y-71912245D01*
X122253604Y-71777684D01*
X122255170Y-71609136D01*
X122256645Y-71408686D01*
X122258021Y-71178421D01*
X122259287Y-70920428D01*
X122260433Y-70636794D01*
X122261451Y-70329603D01*
X122262332Y-70000944D01*
X122263064Y-69652901D01*
X122263639Y-69287563D01*
X122264048Y-68907015D01*
X122264280Y-68513343D01*
X122264333Y-68212347D01*
X122264333Y-64326500D01*
X120623917Y-64326500D01*
X120364539Y-64326622D01*
G37*
X120364539Y-64326622D02*
X120117787Y-64326975D01*
X119886880Y-64327541D01*
X119675038Y-64328301D01*
X119485479Y-64329235D01*
X119321423Y-64330324D01*
X119186088Y-64331549D01*
X119082693Y-64332892D01*
X119014457Y-64334333D01*
X118984600Y-64335852D01*
X118983500Y-64336209D01*
X118995363Y-64355288D01*
X119028787Y-64404061D01*
X119080524Y-64477918D01*
X119147327Y-64572250D01*
X119225948Y-64682448D01*
X119307871Y-64796584D01*
X119632242Y-65247250D01*
X120556704Y-65252764D01*
X121481167Y-65258278D01*
X121481167Y-67776666D01*
X120023261Y-67776666D01*
X120009236Y-67676125D01*
X119933636Y-67284412D01*
X119818947Y-66905282D01*
X119667168Y-66541448D01*
X119480294Y-66195624D01*
X119260324Y-65870524D01*
X119009252Y-65568863D01*
X118729077Y-65293355D01*
X118421794Y-65046713D01*
X118089401Y-64831652D01*
X117808750Y-64685106D01*
X117470983Y-64543975D01*
X117132875Y-64439482D01*
X116786424Y-64369874D01*
X116423623Y-64333399D01*
X116171050Y-64326624D01*
X115755225Y-64346076D01*
X115355352Y-64404637D01*
X114971799Y-64502160D01*
X114604934Y-64638499D01*
X114255124Y-64813507D01*
X113922739Y-65027036D01*
X113608146Y-65278939D01*
X113472505Y-65404754D01*
X113383916Y-65493333D01*
X113294774Y-65587234D01*
X113210050Y-65680686D01*
X113134713Y-65767915D01*
X113073732Y-65843150D01*
X113032076Y-65900618D01*
X113014715Y-65934547D01*
X113014500Y-65936768D01*
X113030654Y-65954769D01*
X113074885Y-65992642D01*
X113140846Y-66045618D01*
X113222190Y-66108930D01*
X113312571Y-66177808D01*
X113405643Y-66247485D01*
X113495058Y-66313192D01*
X113574470Y-66370160D01*
X113637533Y-66413622D01*
X113677899Y-66438809D01*
X113688511Y-66443166D01*
X113713233Y-66427249D01*
X113741060Y-66392910D01*
X113800455Y-66312916D01*
X113883041Y-66215965D01*
X113979412Y-66112110D01*
X114080160Y-66011402D01*
X114175879Y-65923895D01*
X114195628Y-65907163D01*
X114489064Y-65687808D01*
X114796011Y-65507938D01*
X115119881Y-65365924D01*
X115464084Y-65260140D01*
X115629351Y-65223362D01*
X115785797Y-65200878D01*
X115970023Y-65187976D01*
X116168600Y-65184538D01*
X116368101Y-65190451D01*
X116555099Y-65205599D01*
X116716164Y-65229864D01*
X116730619Y-65232850D01*
X117085696Y-65328907D01*
X117419979Y-65460443D01*
X117731566Y-65625520D01*
X118018553Y-65822195D01*
X118279041Y-66048527D01*
X118511125Y-66302577D01*
X118712906Y-66582402D01*
X118882479Y-66886062D01*
X119017945Y-67211617D01*
X119117400Y-67557124D01*
X119146196Y-67697851D01*
X119166382Y-67850090D01*
X119178274Y-68029743D01*
X119181875Y-68222713D01*
X119177187Y-68414902D01*
X119164215Y-68592212D01*
X119145956Y-68724703D01*
X119061822Y-69073406D01*
X118940641Y-69404356D01*
X118784665Y-69715307D01*
X118596147Y-70004015D01*
X118377340Y-70268236D01*
X118130495Y-70505725D01*
X117857866Y-70714238D01*
X117561705Y-70891531D01*
X117244263Y-71035358D01*
X116907795Y-71143476D01*
X116665750Y-71196077D01*
X116480125Y-71219799D01*
X116270012Y-71231742D01*
X116051585Y-71231907D01*
X115841018Y-71220295D01*
X115654484Y-71196904D01*
X115649750Y-71196077D01*
X115316520Y-71117360D01*
X114993751Y-71001812D01*
X114686361Y-70852234D01*
X114399267Y-70671426D01*
X114137385Y-70462189D01*
X113905634Y-70227324D01*
X113865128Y-70179689D01*
X113801422Y-70104050D01*
X113746751Y-70041306D01*
X113707122Y-69998206D01*
X113688881Y-69981608D01*
X113666805Y-69991354D01*
X113617835Y-70022550D01*
X113548334Y-70070451D01*
X113464665Y-70130312D01*
X113373190Y-70197388D01*
X113280272Y-70266934D01*
X113192272Y-70334205D01*
X113115553Y-70394455D01*
X113056478Y-70442939D01*
X113021409Y-70474914D01*
X113014500Y-70484566D01*
X113028599Y-70515199D01*
X113067577Y-70570067D01*
X113126460Y-70643393D01*
X113200272Y-70729400D01*
X113284037Y-70822309D01*
X113372781Y-70916344D01*
X113461529Y-71005727D01*
X113472505Y-71016412D01*
X113777664Y-71284245D01*
X114101633Y-71514270D01*
X114444887Y-71706716D01*
X114807896Y-71861814D01*
X115191133Y-71979795D01*
X115595072Y-72060890D01*
X115618000Y-72064299D01*
X115776687Y-72081117D01*
X115962385Y-72090448D01*
X116163843Y-72092577D01*
X116369811Y-72087790D01*
X116569038Y-72076371D01*
X116750276Y-72058607D01*
X116902273Y-72034783D01*
X116919175Y-72031282D01*
X117323595Y-71924397D01*
X117705366Y-71781838D01*
X118065141Y-71603275D01*
X118403572Y-71388376D01*
X118721312Y-71136812D01*
X118769078Y-71094220D01*
X119042036Y-70818972D01*
X119287319Y-70514336D01*
X119502506Y-70184902D01*
X119685172Y-69835259D01*
X119832896Y-69469998D01*
X119943253Y-69093709D01*
X120009236Y-68745041D01*
X120023261Y-68644500D01*
X121481167Y-68644500D01*
X121481167Y-71534860D01*
X121855044Y-71809471D01*
X121965088Y-71890038D01*
X122063936Y-71961911D01*
X122146407Y-72021366D01*
X122207325Y-72064678D01*
X122241511Y-72088122D01*
X122246627Y-72091138D01*
X122248459Y-72071059D01*
X122250239Y-72010732D01*
X122251958Y-71912245D01*
X122253604Y-71777684D01*
X122255170Y-71609136D01*
X122256645Y-71408686D01*
X122258021Y-71178421D01*
X122259287Y-70920428D01*
X122260433Y-70636794D01*
X122261451Y-70329603D01*
X122262332Y-70000944D01*
X122263064Y-69652901D01*
X122263639Y-69287563D01*
X122264048Y-68907015D01*
X122264280Y-68513343D01*
X122264333Y-68212347D01*
X122264333Y-64326500D01*
X120623917Y-64326500D01*
X120364539Y-64326622D01*
G36*
X115913153Y-65986622D02*
G01*
X115682258Y-66019792D01*
X115462721Y-66079294D01*
X115241618Y-66168204D01*
X115126901Y-66224410D01*
X115026364Y-66279945D01*
X114921399Y-66343884D01*
X114830602Y-66404747D01*
X114808983Y-66420633D01*
X114742890Y-66475087D01*
X114664171Y-66546646D01*
X114580371Y-66627650D01*
X114499035Y-66710442D01*
X114427711Y-66787364D01*
X114373942Y-66850757D01*
X114347051Y-66889440D01*
X114343830Y-66906893D01*
X114354540Y-66929133D01*
X114383416Y-66960167D01*
X114434692Y-67003999D01*
X114512603Y-67064637D01*
X114607286Y-67135620D01*
X114706723Y-67209348D01*
X114798955Y-67277456D01*
X114876556Y-67334481D01*
X114932103Y-67374961D01*
X114951795Y-67389062D01*
X115015839Y-67434122D01*
X115104510Y-67328937D01*
X115253877Y-67175562D01*
X115422606Y-67050214D01*
X115565083Y-66970894D01*
X115782268Y-66885564D01*
X116004826Y-66839866D01*
X116228264Y-66832268D01*
X116448090Y-66861233D01*
X116659813Y-66925227D01*
X116858940Y-67022715D01*
X117040979Y-67152163D01*
X117201439Y-67312036D01*
X117335826Y-67500800D01*
X117385674Y-67592886D01*
X117475424Y-67808710D01*
X117526422Y-68017475D01*
X117539718Y-68226538D01*
X117516363Y-68443257D01*
X117511017Y-68470767D01*
X117443993Y-68699594D01*
X117341954Y-68908806D01*
X117208608Y-69095356D01*
X117047663Y-69256201D01*
X116862827Y-69388293D01*
X116657808Y-69488587D01*
X116436315Y-69554037D01*
X116202054Y-69581599D01*
X116157750Y-69582301D01*
X115924346Y-69565248D01*
X115710498Y-69512862D01*
X115511853Y-69423307D01*
X115324059Y-69294742D01*
X115189560Y-69173454D01*
X115004537Y-68989257D01*
X114665461Y-69241730D01*
X114326384Y-69494203D01*
X114395115Y-69589909D01*
X114461874Y-69671631D01*
X114552720Y-69767605D01*
X114657041Y-69867837D01*
X114764222Y-69962331D01*
X114863652Y-70041092D01*
X114904736Y-70069864D01*
X115039535Y-70150158D01*
X115197603Y-70230384D01*
X115362686Y-70303108D01*
X115518527Y-70360901D01*
X115586250Y-70381424D01*
X115665717Y-70400769D01*
X115747701Y-70414740D01*
X115842210Y-70424361D01*
X115959253Y-70430660D01*
X116104833Y-70434585D01*
X116231377Y-70435601D01*
X116351503Y-70434011D01*
X116455128Y-70430132D01*
X116532169Y-70424283D01*
X116559917Y-70420269D01*
X116864461Y-70339393D01*
X117147844Y-70221858D01*
X117410260Y-70067557D01*
X117651902Y-69876382D01*
X117787583Y-69743313D01*
X117984167Y-69505607D01*
X118142557Y-69249827D01*
X118262383Y-68976919D01*
X118343273Y-68687828D01*
X118384854Y-68383497D01*
X118390833Y-68210583D01*
X118371228Y-67898150D01*
X118312438Y-67601733D01*
X118214503Y-67321423D01*
X118077463Y-67057311D01*
X117901357Y-66809490D01*
X117686226Y-66578050D01*
X117681293Y-66573369D01*
X117446108Y-66377411D01*
X117195756Y-66220759D01*
X116929325Y-66103053D01*
X116645905Y-66023935D01*
X116344586Y-65983044D01*
X116168333Y-65976712D01*
X115913153Y-65986622D01*
G37*
X115913153Y-65986622D02*
X115682258Y-66019792D01*
X115462721Y-66079294D01*
X115241618Y-66168204D01*
X115126901Y-66224410D01*
X115026364Y-66279945D01*
X114921399Y-66343884D01*
X114830602Y-66404747D01*
X114808983Y-66420633D01*
X114742890Y-66475087D01*
X114664171Y-66546646D01*
X114580371Y-66627650D01*
X114499035Y-66710442D01*
X114427711Y-66787364D01*
X114373942Y-66850757D01*
X114347051Y-66889440D01*
X114343830Y-66906893D01*
X114354540Y-66929133D01*
X114383416Y-66960167D01*
X114434692Y-67003999D01*
X114512603Y-67064637D01*
X114607286Y-67135620D01*
X114706723Y-67209348D01*
X114798955Y-67277456D01*
X114876556Y-67334481D01*
X114932103Y-67374961D01*
X114951795Y-67389062D01*
X115015839Y-67434122D01*
X115104510Y-67328937D01*
X115253877Y-67175562D01*
X115422606Y-67050214D01*
X115565083Y-66970894D01*
X115782268Y-66885564D01*
X116004826Y-66839866D01*
X116228264Y-66832268D01*
X116448090Y-66861233D01*
X116659813Y-66925227D01*
X116858940Y-67022715D01*
X117040979Y-67152163D01*
X117201439Y-67312036D01*
X117335826Y-67500800D01*
X117385674Y-67592886D01*
X117475424Y-67808710D01*
X117526422Y-68017475D01*
X117539718Y-68226538D01*
X117516363Y-68443257D01*
X117511017Y-68470767D01*
X117443993Y-68699594D01*
X117341954Y-68908806D01*
X117208608Y-69095356D01*
X117047663Y-69256201D01*
X116862827Y-69388293D01*
X116657808Y-69488587D01*
X116436315Y-69554037D01*
X116202054Y-69581599D01*
X116157750Y-69582301D01*
X115924346Y-69565248D01*
X115710498Y-69512862D01*
X115511853Y-69423307D01*
X115324059Y-69294742D01*
X115189560Y-69173454D01*
X115004537Y-68989257D01*
X114665461Y-69241730D01*
X114326384Y-69494203D01*
X114395115Y-69589909D01*
X114461874Y-69671631D01*
X114552720Y-69767605D01*
X114657041Y-69867837D01*
X114764222Y-69962331D01*
X114863652Y-70041092D01*
X114904736Y-70069864D01*
X115039535Y-70150158D01*
X115197603Y-70230384D01*
X115362686Y-70303108D01*
X115518527Y-70360901D01*
X115586250Y-70381424D01*
X115665717Y-70400769D01*
X115747701Y-70414740D01*
X115842210Y-70424361D01*
X115959253Y-70430660D01*
X116104833Y-70434585D01*
X116231377Y-70435601D01*
X116351503Y-70434011D01*
X116455128Y-70430132D01*
X116532169Y-70424283D01*
X116559917Y-70420269D01*
X116864461Y-70339393D01*
X117147844Y-70221858D01*
X117410260Y-70067557D01*
X117651902Y-69876382D01*
X117787583Y-69743313D01*
X117984167Y-69505607D01*
X118142557Y-69249827D01*
X118262383Y-68976919D01*
X118343273Y-68687828D01*
X118384854Y-68383497D01*
X118390833Y-68210583D01*
X118371228Y-67898150D01*
X118312438Y-67601733D01*
X118214503Y-67321423D01*
X118077463Y-67057311D01*
X117901357Y-66809490D01*
X117686226Y-66578050D01*
X117681293Y-66573369D01*
X117446108Y-66377411D01*
X117195756Y-66220759D01*
X116929325Y-66103053D01*
X116645905Y-66023935D01*
X116344586Y-65983044D01*
X116168333Y-65976712D01*
X115913153Y-65986622D01*
D16*
X131580000Y-68680000D02*
X131580000Y-65320000D01*
X128220000Y-68680000D02*
X128220000Y-65320000D01*
X131580000Y-68680000D02*
X128220000Y-68680000D01*
X131580000Y-65320000D02*
X128220000Y-65320000D01*
D17*
X131450000Y-68550000D02*
X131450000Y-65450000D01*
X128350000Y-68550000D02*
X128350000Y-65450000D01*
X131450000Y-68550000D02*
X128350000Y-68550000D01*
X131450000Y-65450000D02*
X128350000Y-65450000D01*
D16*
X130800000Y-67000000D02*
G75*
G03*
X130800000Y-67000000I-900000J0D01*
G01*
D18*
X139000000Y-86400000D02*
X137000000Y-86400000D01*
X153800000Y-72800000D02*
X153800000Y-107400000D01*
X106000000Y-72800000D02*
X106000000Y-107400000D01*
X137000000Y-86400000D02*
X137000000Y-87148000D01*
X137000000Y-96852000D02*
X137000000Y-97600000D01*
X139000000Y-97600000D02*
X137000000Y-97600000D01*
X153800000Y-72800000D02*
X106000000Y-72800000D01*
X153800000Y-107400000D02*
X106000000Y-107400000D01*
X153800000Y-79555000D02*
X154800000Y-79555000D01*
X153800000Y-100645000D02*
X154800000Y-100645000D01*
X154800000Y-79555000D02*
X154800000Y-100645000D01*
D16*
X142660000Y-110890000D02*
X142660000Y-113550000D01*
X119740000Y-110890000D02*
X142660000Y-110890000D01*
X119740000Y-113550000D02*
X142660000Y-113550000D01*
X119740000Y-110890000D02*
X119740000Y-113550000D01*
X118470000Y-110890000D02*
X117140000Y-110890000D01*
X117140000Y-110890000D02*
X117140000Y-112220000D01*
D19*
X132185714Y-64054761D02*
X132042857Y-64102380D01*
X131804761Y-64102380D01*
X131709523Y-64054761D01*
X131661904Y-64007142D01*
X131614285Y-63911904D01*
X131614285Y-63816666D01*
X131661904Y-63721428D01*
X131709523Y-63673809D01*
X131804761Y-63626190D01*
X131995238Y-63578571D01*
X132090476Y-63530952D01*
X132138095Y-63483333D01*
X132185714Y-63388095D01*
X132185714Y-63292857D01*
X132138095Y-63197619D01*
X132090476Y-63150000D01*
X131995238Y-63102380D01*
X131757142Y-63102380D01*
X131614285Y-63150000D01*
X131280952Y-63102380D02*
X131042857Y-64102380D01*
X130852380Y-63388095D01*
X130661904Y-64102380D01*
X130423809Y-63102380D01*
X129519047Y-64102380D02*
X130090476Y-64102380D01*
X129804761Y-64102380D02*
X129804761Y-63102380D01*
X129900000Y-63245238D01*
X129995238Y-63340476D01*
X130090476Y-63388095D01*
X128900000Y-63102380D02*
X128804761Y-63102380D01*
X128709523Y-63150000D01*
X128661904Y-63197619D01*
X128614285Y-63292857D01*
X128566666Y-63483333D01*
X128566666Y-63721428D01*
X128614285Y-63911904D01*
X128661904Y-64007142D01*
X128709523Y-64054761D01*
X128804761Y-64102380D01*
X128900000Y-64102380D01*
X128995238Y-64054761D01*
X129042857Y-64007142D01*
X129090476Y-63911904D01*
X129138095Y-63721428D01*
X129138095Y-63483333D01*
X129090476Y-63292857D01*
X129042857Y-63197619D01*
X128995238Y-63150000D01*
X128900000Y-63102380D01*
X128185714Y-63197619D02*
X128138095Y-63150000D01*
X128042857Y-63102380D01*
X127804761Y-63102380D01*
X127709523Y-63150000D01*
X127661904Y-63197619D01*
X127614285Y-63292857D01*
X127614285Y-63388095D01*
X127661904Y-63530952D01*
X128233333Y-64102380D01*
X127614285Y-64102380D01*
X110669047Y-72302380D02*
X111145238Y-72302380D01*
X111145238Y-71302380D01*
X109764285Y-72207142D02*
X109811904Y-72254761D01*
X109954761Y-72302380D01*
X110050000Y-72302380D01*
X110192857Y-72254761D01*
X110288095Y-72159523D01*
X110335714Y-72064285D01*
X110383333Y-71873809D01*
X110383333Y-71730952D01*
X110335714Y-71540476D01*
X110288095Y-71445238D01*
X110192857Y-71350000D01*
X110050000Y-71302380D01*
X109954761Y-71302380D01*
X109811904Y-71350000D01*
X109764285Y-71397619D01*
X109335714Y-72302380D02*
X109335714Y-71302380D01*
X109097619Y-71302380D01*
X108954761Y-71350000D01*
X108859523Y-71445238D01*
X108811904Y-71540476D01*
X108764285Y-71730952D01*
X108764285Y-71873809D01*
X108811904Y-72064285D01*
X108859523Y-72159523D01*
X108954761Y-72254761D01*
X109097619Y-72302380D01*
X109335714Y-72302380D01*
X108383333Y-71397619D02*
X108335714Y-71350000D01*
X108240476Y-71302380D01*
X108002380Y-71302380D01*
X107907142Y-71350000D01*
X107859523Y-71397619D01*
X107811904Y-71492857D01*
X107811904Y-71588095D01*
X107859523Y-71730952D01*
X108430952Y-72302380D01*
X107811904Y-72302380D01*
X107192857Y-71302380D02*
X107097619Y-71302380D01*
X107002380Y-71350000D01*
X106954761Y-71397619D01*
X106907142Y-71492857D01*
X106859523Y-71683333D01*
X106859523Y-71921428D01*
X106907142Y-72111904D01*
X106954761Y-72207142D01*
X107002380Y-72254761D01*
X107097619Y-72302380D01*
X107192857Y-72302380D01*
X107288095Y-72254761D01*
X107335714Y-72207142D01*
X107383333Y-72111904D01*
X107430952Y-71921428D01*
X107430952Y-71683333D01*
X107383333Y-71492857D01*
X107335714Y-71397619D01*
X107288095Y-71350000D01*
X107192857Y-71302380D01*
X105907142Y-72302380D02*
X106478571Y-72302380D01*
X106192857Y-72302380D02*
X106192857Y-71302380D01*
X106288095Y-71445238D01*
X106383333Y-71540476D01*
X106478571Y-71588095D01*
X115402380Y-110934285D02*
X116116666Y-110934285D01*
X116259523Y-110886666D01*
X116354761Y-110791428D01*
X116402380Y-110648571D01*
X116402380Y-110553333D01*
X115402380Y-111315238D02*
X115402380Y-111934285D01*
X115783333Y-111600952D01*
X115783333Y-111743809D01*
X115830952Y-111839047D01*
X115878571Y-111886666D01*
X115973809Y-111934285D01*
X116211904Y-111934285D01*
X116307142Y-111886666D01*
X116354761Y-111839047D01*
X116402380Y-111743809D01*
X116402380Y-111458095D01*
X116354761Y-111362857D01*
X116307142Y-111315238D01*
X115402380Y-112553333D02*
X115402380Y-112648571D01*
X115450000Y-112743809D01*
X115497619Y-112791428D01*
X115592857Y-112839047D01*
X115783333Y-112886666D01*
X116021428Y-112886666D01*
X116211904Y-112839047D01*
X116307142Y-112791428D01*
X116354761Y-112743809D01*
X116402380Y-112648571D01*
X116402380Y-112553333D01*
X116354761Y-112458095D01*
X116307142Y-112410476D01*
X116211904Y-112362857D01*
X116021428Y-112315238D01*
X115783333Y-112315238D01*
X115592857Y-112362857D01*
X115497619Y-112410476D01*
X115450000Y-112458095D01*
X115402380Y-112553333D01*
X116402380Y-113839047D02*
X116402380Y-113267619D01*
X116402380Y-113553333D02*
X115402380Y-113553333D01*
X115545238Y-113458095D01*
X115640476Y-113362857D01*
X115688095Y-113267619D01*
M02*
