G04 #@! TF.GenerationSoftware,KiCad,Pcbnew,8.0.3*
G04 #@! TF.CreationDate,2024-07-18T13:22:42+02:00*
G04 #@! TF.ProjectId,vpp-maker-rev6-ian,7670702d-6d61-46b6-9572-2d726576362d,rev?*
G04 #@! TF.SameCoordinates,Original*
G04 #@! TF.FileFunction,Legend,Top*
G04 #@! TF.FilePolarity,Positive*
%FSLAX46Y46*%
G04 Gerber Fmt 4.6, Leading zero omitted, Abs format (unit mm)*
G04 Created by KiCad (PCBNEW 8.0.3) date 2024-07-18 13:22:42*
%MOMM*%
%LPD*%
G01*
G04 APERTURE LIST*
G04 Aperture macros list*
%AMRoundRect*
0 Rectangle with rounded corners*
0 $1 Rounding radius*
0 $2 $3 $4 $5 $6 $7 $8 $9 X,Y pos of 4 corners*
0 Add a 4 corners polygon primitive as box body*
4,1,4,$2,$3,$4,$5,$6,$7,$8,$9,$2,$3,0*
0 Add four circle primitives for the rounded corners*
1,1,$1+$1,$2,$3*
1,1,$1+$1,$4,$5*
1,1,$1+$1,$6,$7*
1,1,$1+$1,$8,$9*
0 Add four rect primitives between the rounded corners*
20,1,$1+$1,$2,$3,$4,$5,0*
20,1,$1+$1,$4,$5,$6,$7,0*
20,1,$1+$1,$6,$7,$8,$9,0*
20,1,$1+$1,$8,$9,$2,$3,0*%
G04 Aperture macros list end*
%ADD10C,0.150000*%
%ADD11C,0.200000*%
%ADD12C,0.120000*%
%ADD13C,0.152000*%
%ADD14RoundRect,0.150000X0.150000X-0.587500X0.150000X0.587500X-0.150000X0.587500X-0.150000X-0.587500X0*%
%ADD15RoundRect,0.150000X-0.150000X0.587500X-0.150000X-0.587500X0.150000X-0.587500X0.150000X0.587500X0*%
%ADD16RoundRect,0.243750X0.243750X0.456250X-0.243750X0.456250X-0.243750X-0.456250X0.243750X-0.456250X0*%
%ADD17RoundRect,0.250000X-0.475000X0.337500X-0.475000X-0.337500X0.475000X-0.337500X0.475000X0.337500X0*%
%ADD18RoundRect,0.225000X0.225000X0.375000X-0.225000X0.375000X-0.225000X-0.375000X0.225000X-0.375000X0*%
%ADD19RoundRect,0.250000X0.450000X-0.262500X0.450000X0.262500X-0.450000X0.262500X-0.450000X-0.262500X0*%
%ADD20R,1.700000X1.700000*%
%ADD21O,1.700000X1.700000*%
%ADD22RoundRect,0.250000X-0.450000X0.262500X-0.450000X-0.262500X0.450000X-0.262500X0.450000X0.262500X0*%
%ADD23RoundRect,0.250000X0.262500X0.450000X-0.262500X0.450000X-0.262500X-0.450000X0.262500X-0.450000X0*%
%ADD24RoundRect,0.250000X-0.425000X0.450000X-0.425000X-0.450000X0.425000X-0.450000X0.425000X0.450000X0*%
%ADD25RoundRect,0.250000X-0.262500X-0.450000X0.262500X-0.450000X0.262500X0.450000X-0.262500X0.450000X0*%
%ADD26RoundRect,0.250000X0.787500X1.025000X-0.787500X1.025000X-0.787500X-1.025000X0.787500X-1.025000X0*%
%ADD27RoundRect,0.150000X-0.587500X-0.150000X0.587500X-0.150000X0.587500X0.150000X-0.587500X0.150000X0*%
%ADD28R,5.500000X2.150000*%
%ADD29RoundRect,0.225000X-0.375000X0.225000X-0.375000X-0.225000X0.375000X-0.225000X0.375000X0.225000X0*%
G04 APERTURE END LIST*
D10*
X154408207Y-80159819D02*
X154741540Y-81159819D01*
X154741540Y-81159819D02*
X155074873Y-80159819D01*
X155408207Y-81159819D02*
X155408207Y-80159819D01*
X155408207Y-80159819D02*
X155789159Y-80159819D01*
X155789159Y-80159819D02*
X155884397Y-80207438D01*
X155884397Y-80207438D02*
X155932016Y-80255057D01*
X155932016Y-80255057D02*
X155979635Y-80350295D01*
X155979635Y-80350295D02*
X155979635Y-80493152D01*
X155979635Y-80493152D02*
X155932016Y-80588390D01*
X155932016Y-80588390D02*
X155884397Y-80636009D01*
X155884397Y-80636009D02*
X155789159Y-80683628D01*
X155789159Y-80683628D02*
X155408207Y-80683628D01*
X156408207Y-81159819D02*
X156408207Y-80159819D01*
X156408207Y-80159819D02*
X156789159Y-80159819D01*
X156789159Y-80159819D02*
X156884397Y-80207438D01*
X156884397Y-80207438D02*
X156932016Y-80255057D01*
X156932016Y-80255057D02*
X156979635Y-80350295D01*
X156979635Y-80350295D02*
X156979635Y-80493152D01*
X156979635Y-80493152D02*
X156932016Y-80588390D01*
X156932016Y-80588390D02*
X156884397Y-80636009D01*
X156884397Y-80636009D02*
X156789159Y-80683628D01*
X156789159Y-80683628D02*
X156408207Y-80683628D01*
X157170112Y-81255057D02*
X157932016Y-81255057D01*
X158027255Y-80159819D02*
X158598683Y-80159819D01*
X158312969Y-81159819D02*
X158312969Y-80159819D01*
X159455826Y-80207438D02*
X159360588Y-80159819D01*
X159360588Y-80159819D02*
X159217731Y-80159819D01*
X159217731Y-80159819D02*
X159074874Y-80207438D01*
X159074874Y-80207438D02*
X158979636Y-80302676D01*
X158979636Y-80302676D02*
X158932017Y-80397914D01*
X158932017Y-80397914D02*
X158884398Y-80588390D01*
X158884398Y-80588390D02*
X158884398Y-80731247D01*
X158884398Y-80731247D02*
X158932017Y-80921723D01*
X158932017Y-80921723D02*
X158979636Y-81016961D01*
X158979636Y-81016961D02*
X159074874Y-81112200D01*
X159074874Y-81112200D02*
X159217731Y-81159819D01*
X159217731Y-81159819D02*
X159312969Y-81159819D01*
X159312969Y-81159819D02*
X159455826Y-81112200D01*
X159455826Y-81112200D02*
X159503445Y-81064580D01*
X159503445Y-81064580D02*
X159503445Y-80731247D01*
X159503445Y-80731247D02*
X159312969Y-80731247D01*
X159789160Y-80159819D02*
X160360588Y-80159819D01*
X160074874Y-81159819D02*
X160074874Y-80159819D01*
X158170112Y-85287438D02*
X158074874Y-85239819D01*
X158074874Y-85239819D02*
X157932017Y-85239819D01*
X157932017Y-85239819D02*
X157789160Y-85287438D01*
X157789160Y-85287438D02*
X157693922Y-85382676D01*
X157693922Y-85382676D02*
X157646303Y-85477914D01*
X157646303Y-85477914D02*
X157598684Y-85668390D01*
X157598684Y-85668390D02*
X157598684Y-85811247D01*
X157598684Y-85811247D02*
X157646303Y-86001723D01*
X157646303Y-86001723D02*
X157693922Y-86096961D01*
X157693922Y-86096961D02*
X157789160Y-86192200D01*
X157789160Y-86192200D02*
X157932017Y-86239819D01*
X157932017Y-86239819D02*
X158027255Y-86239819D01*
X158027255Y-86239819D02*
X158170112Y-86192200D01*
X158170112Y-86192200D02*
X158217731Y-86144580D01*
X158217731Y-86144580D02*
X158217731Y-85811247D01*
X158217731Y-85811247D02*
X158027255Y-85811247D01*
X158646303Y-86239819D02*
X158646303Y-85239819D01*
X158646303Y-85239819D02*
X159217731Y-86239819D01*
X159217731Y-86239819D02*
X159217731Y-85239819D01*
X159693922Y-86239819D02*
X159693922Y-85239819D01*
X159693922Y-85239819D02*
X159932017Y-85239819D01*
X159932017Y-85239819D02*
X160074874Y-85287438D01*
X160074874Y-85287438D02*
X160170112Y-85382676D01*
X160170112Y-85382676D02*
X160217731Y-85477914D01*
X160217731Y-85477914D02*
X160265350Y-85668390D01*
X160265350Y-85668390D02*
X160265350Y-85811247D01*
X160265350Y-85811247D02*
X160217731Y-86001723D01*
X160217731Y-86001723D02*
X160170112Y-86096961D01*
X160170112Y-86096961D02*
X160074874Y-86192200D01*
X160074874Y-86192200D02*
X159932017Y-86239819D01*
X159932017Y-86239819D02*
X159693922Y-86239819D01*
X158217732Y-88779819D02*
X158217732Y-87779819D01*
X158884398Y-87779819D02*
X159074874Y-87779819D01*
X159074874Y-87779819D02*
X159170112Y-87827438D01*
X159170112Y-87827438D02*
X159265350Y-87922676D01*
X159265350Y-87922676D02*
X159312969Y-88113152D01*
X159312969Y-88113152D02*
X159312969Y-88446485D01*
X159312969Y-88446485D02*
X159265350Y-88636961D01*
X159265350Y-88636961D02*
X159170112Y-88732200D01*
X159170112Y-88732200D02*
X159074874Y-88779819D01*
X159074874Y-88779819D02*
X158884398Y-88779819D01*
X158884398Y-88779819D02*
X158789160Y-88732200D01*
X158789160Y-88732200D02*
X158693922Y-88636961D01*
X158693922Y-88636961D02*
X158646303Y-88446485D01*
X158646303Y-88446485D02*
X158646303Y-88113152D01*
X158646303Y-88113152D02*
X158693922Y-87922676D01*
X158693922Y-87922676D02*
X158789160Y-87827438D01*
X158789160Y-87827438D02*
X158884398Y-87779819D01*
X160170112Y-88113152D02*
X160170112Y-88779819D01*
X159932017Y-87732200D02*
X159693922Y-88446485D01*
X159693922Y-88446485D02*
X160312969Y-88446485D01*
X158217732Y-93859819D02*
X158217732Y-92859819D01*
X158884398Y-92859819D02*
X159074874Y-92859819D01*
X159074874Y-92859819D02*
X159170112Y-92907438D01*
X159170112Y-92907438D02*
X159265350Y-93002676D01*
X159265350Y-93002676D02*
X159312969Y-93193152D01*
X159312969Y-93193152D02*
X159312969Y-93526485D01*
X159312969Y-93526485D02*
X159265350Y-93716961D01*
X159265350Y-93716961D02*
X159170112Y-93812200D01*
X159170112Y-93812200D02*
X159074874Y-93859819D01*
X159074874Y-93859819D02*
X158884398Y-93859819D01*
X158884398Y-93859819D02*
X158789160Y-93812200D01*
X158789160Y-93812200D02*
X158693922Y-93716961D01*
X158693922Y-93716961D02*
X158646303Y-93526485D01*
X158646303Y-93526485D02*
X158646303Y-93193152D01*
X158646303Y-93193152D02*
X158693922Y-93002676D01*
X158693922Y-93002676D02*
X158789160Y-92907438D01*
X158789160Y-92907438D02*
X158884398Y-92859819D01*
X160170112Y-92859819D02*
X159979636Y-92859819D01*
X159979636Y-92859819D02*
X159884398Y-92907438D01*
X159884398Y-92907438D02*
X159836779Y-92955057D01*
X159836779Y-92955057D02*
X159741541Y-93097914D01*
X159741541Y-93097914D02*
X159693922Y-93288390D01*
X159693922Y-93288390D02*
X159693922Y-93669342D01*
X159693922Y-93669342D02*
X159741541Y-93764580D01*
X159741541Y-93764580D02*
X159789160Y-93812200D01*
X159789160Y-93812200D02*
X159884398Y-93859819D01*
X159884398Y-93859819D02*
X160074874Y-93859819D01*
X160074874Y-93859819D02*
X160170112Y-93812200D01*
X160170112Y-93812200D02*
X160217731Y-93764580D01*
X160217731Y-93764580D02*
X160265350Y-93669342D01*
X160265350Y-93669342D02*
X160265350Y-93431247D01*
X160265350Y-93431247D02*
X160217731Y-93336009D01*
X160217731Y-93336009D02*
X160170112Y-93288390D01*
X160170112Y-93288390D02*
X160074874Y-93240771D01*
X160074874Y-93240771D02*
X159884398Y-93240771D01*
X159884398Y-93240771D02*
X159789160Y-93288390D01*
X159789160Y-93288390D02*
X159741541Y-93336009D01*
X159741541Y-93336009D02*
X159693922Y-93431247D01*
D11*
G36*
X150427316Y-69994453D02*
G01*
X150453093Y-70019115D01*
X150484210Y-70079046D01*
X150485344Y-70174893D01*
X150456722Y-70234388D01*
X150432064Y-70260161D01*
X150372421Y-70291129D01*
X150252167Y-70291705D01*
X150248457Y-70291051D01*
X150245353Y-70291738D01*
X150111446Y-70292380D01*
X150110833Y-69966747D01*
X150367169Y-69965517D01*
X150427316Y-69994453D01*
G37*
G36*
X148284459Y-69994453D02*
G01*
X148310236Y-70019115D01*
X148341353Y-70079046D01*
X148342487Y-70174893D01*
X148313865Y-70234388D01*
X148289207Y-70260161D01*
X148229564Y-70291129D01*
X147968589Y-70292380D01*
X147967976Y-69966747D01*
X148224312Y-69965517D01*
X148284459Y-69994453D01*
G37*
G36*
X150795069Y-71078307D02*
G01*
X147658562Y-71078307D01*
X147658562Y-69867219D01*
X147769673Y-69867219D01*
X147771594Y-70886728D01*
X147786526Y-70922776D01*
X147814116Y-70950366D01*
X147850164Y-70965298D01*
X147889182Y-70965298D01*
X147925230Y-70950366D01*
X147952820Y-70922776D01*
X147967752Y-70886728D01*
X147969673Y-70867219D01*
X147968963Y-70490551D01*
X148235212Y-70489274D01*
X148238118Y-70490243D01*
X148252942Y-70489189D01*
X148270134Y-70489107D01*
X148273454Y-70487731D01*
X148277038Y-70487477D01*
X148295346Y-70480471D01*
X148390375Y-70431130D01*
X148401420Y-70426556D01*
X148405266Y-70423399D01*
X148407174Y-70422409D01*
X148408903Y-70420414D01*
X148416574Y-70414120D01*
X148464507Y-70364017D01*
X148472482Y-70357102D01*
X148475093Y-70352952D01*
X148476629Y-70351348D01*
X148477639Y-70348907D01*
X148482925Y-70340511D01*
X148522863Y-70257493D01*
X148524248Y-70256109D01*
X148528700Y-70245359D01*
X148537550Y-70226965D01*
X148537804Y-70223381D01*
X148539180Y-70220061D01*
X148541101Y-70200552D01*
X148539584Y-70072395D01*
X148540316Y-70070202D01*
X148539407Y-70057419D01*
X148539180Y-70038186D01*
X148537804Y-70034865D01*
X148537550Y-70031282D01*
X148530544Y-70012973D01*
X148481201Y-69917939D01*
X148476629Y-69906899D01*
X148473473Y-69903053D01*
X148472482Y-69901145D01*
X148470484Y-69899412D01*
X148464192Y-69891746D01*
X148442463Y-69870958D01*
X148674504Y-69870958D01*
X148677154Y-69890381D01*
X148916021Y-70885519D01*
X148917876Y-70899476D01*
X148920430Y-70903888D01*
X148921637Y-70908915D01*
X148930152Y-70920681D01*
X148937425Y-70933244D01*
X148941502Y-70936364D01*
X148944512Y-70940524D01*
X148956874Y-70948131D01*
X148968408Y-70956960D01*
X148973371Y-70958283D01*
X148977742Y-70960973D01*
X148992076Y-70963271D01*
X149006109Y-70967013D01*
X149011197Y-70966336D01*
X149016269Y-70967150D01*
X149030403Y-70963784D01*
X149044787Y-70961873D01*
X149049227Y-70959302D01*
X149054226Y-70958112D01*
X149065992Y-70949596D01*
X149078555Y-70942324D01*
X149081675Y-70938246D01*
X149085835Y-70935237D01*
X149093442Y-70922874D01*
X149102271Y-70911341D01*
X149104970Y-70904140D01*
X149106284Y-70902007D01*
X149106667Y-70899616D01*
X149109154Y-70892985D01*
X149203010Y-70537407D01*
X149297524Y-70888264D01*
X149299728Y-70902007D01*
X149302393Y-70906338D01*
X149303741Y-70911341D01*
X149312569Y-70922874D01*
X149320177Y-70935237D01*
X149324336Y-70938246D01*
X149327457Y-70942324D01*
X149340021Y-70949598D01*
X149351786Y-70958112D01*
X149356781Y-70959301D01*
X149361225Y-70961874D01*
X149375614Y-70963785D01*
X149389743Y-70967150D01*
X149394814Y-70966336D01*
X149399903Y-70967013D01*
X149413935Y-70963271D01*
X149428270Y-70960973D01*
X149432640Y-70958283D01*
X149437604Y-70956960D01*
X149449137Y-70948131D01*
X149461500Y-70940524D01*
X149464509Y-70936364D01*
X149468587Y-70933244D01*
X149475862Y-70920677D01*
X149484375Y-70908915D01*
X149486879Y-70901649D01*
X149488137Y-70899477D01*
X149488456Y-70897073D01*
X149490763Y-70890381D01*
X149731509Y-69870958D01*
X149730910Y-69867219D01*
X149912530Y-69867219D01*
X149914451Y-70886728D01*
X149929383Y-70922776D01*
X149956973Y-70950366D01*
X149993021Y-70965298D01*
X150032039Y-70965298D01*
X150068087Y-70950366D01*
X150095677Y-70922776D01*
X150110609Y-70886728D01*
X150112530Y-70867219D01*
X150111820Y-70490551D01*
X150198135Y-70490137D01*
X150514796Y-70939446D01*
X150547701Y-70960415D01*
X150586126Y-70967196D01*
X150624220Y-70958756D01*
X150656185Y-70936381D01*
X150677154Y-70903476D01*
X150683935Y-70865052D01*
X150675495Y-70826957D01*
X150665881Y-70809873D01*
X150434678Y-70481819D01*
X150438203Y-70480471D01*
X150533232Y-70431130D01*
X150544277Y-70426556D01*
X150548123Y-70423399D01*
X150550031Y-70422409D01*
X150551760Y-70420414D01*
X150559431Y-70414120D01*
X150607364Y-70364017D01*
X150615339Y-70357102D01*
X150617950Y-70352952D01*
X150619486Y-70351348D01*
X150620496Y-70348907D01*
X150625782Y-70340511D01*
X150665720Y-70257493D01*
X150667105Y-70256109D01*
X150671557Y-70245359D01*
X150680407Y-70226965D01*
X150680661Y-70223381D01*
X150682037Y-70220061D01*
X150683958Y-70200552D01*
X150682441Y-70072395D01*
X150683173Y-70070202D01*
X150682264Y-70057419D01*
X150682037Y-70038186D01*
X150680661Y-70034865D01*
X150680407Y-70031282D01*
X150673401Y-70012973D01*
X150624058Y-69917939D01*
X150619486Y-69906899D01*
X150616330Y-69903053D01*
X150615339Y-69901145D01*
X150613341Y-69899412D01*
X150607049Y-69891746D01*
X150556948Y-69843814D01*
X150550031Y-69835838D01*
X150545881Y-69833225D01*
X150544277Y-69831691D01*
X150541837Y-69830680D01*
X150533441Y-69825395D01*
X150450423Y-69785456D01*
X150449039Y-69784072D01*
X150438289Y-69779619D01*
X150419895Y-69770770D01*
X150416311Y-69770515D01*
X150412991Y-69769140D01*
X150393482Y-69767219D01*
X149993021Y-69769140D01*
X149956973Y-69784072D01*
X149929383Y-69811662D01*
X149914451Y-69847710D01*
X149912530Y-69867219D01*
X149730910Y-69867219D01*
X149725332Y-69832432D01*
X149704883Y-69799201D01*
X149673274Y-69776326D01*
X149635317Y-69767289D01*
X149596790Y-69773465D01*
X149563560Y-69793914D01*
X149540685Y-69825523D01*
X149534297Y-69844057D01*
X149388142Y-70462939D01*
X149299333Y-70133260D01*
X149297661Y-70120675D01*
X149294447Y-70115125D01*
X149292747Y-70108811D01*
X149284722Y-70098328D01*
X149278111Y-70086908D01*
X149272967Y-70082971D01*
X149269031Y-70077828D01*
X149257613Y-70071218D01*
X149247128Y-70063192D01*
X149240864Y-70061521D01*
X149235263Y-70058279D01*
X149222185Y-70056541D01*
X149209427Y-70053139D01*
X149203005Y-70053992D01*
X149196585Y-70053139D01*
X149183831Y-70056539D01*
X149170749Y-70058278D01*
X149165144Y-70061522D01*
X149158884Y-70063192D01*
X149148400Y-70071216D01*
X149136981Y-70077828D01*
X149133044Y-70082971D01*
X149127901Y-70086908D01*
X149121291Y-70098325D01*
X149113265Y-70108811D01*
X149109669Y-70118399D01*
X149108352Y-70120676D01*
X149108097Y-70122594D01*
X149106383Y-70127166D01*
X149018055Y-70461795D01*
X148865328Y-69825523D01*
X148842453Y-69793914D01*
X148809223Y-69773465D01*
X148770696Y-69767288D01*
X148732739Y-69776326D01*
X148701130Y-69799201D01*
X148680681Y-69832431D01*
X148674504Y-69870958D01*
X148442463Y-69870958D01*
X148414091Y-69843814D01*
X148407174Y-69835838D01*
X148403024Y-69833225D01*
X148401420Y-69831691D01*
X148398980Y-69830680D01*
X148390584Y-69825395D01*
X148307566Y-69785456D01*
X148306182Y-69784072D01*
X148295432Y-69779619D01*
X148277038Y-69770770D01*
X148273454Y-69770515D01*
X148270134Y-69769140D01*
X148250625Y-69767219D01*
X147850164Y-69769140D01*
X147814116Y-69784072D01*
X147786526Y-69811662D01*
X147771594Y-69847710D01*
X147769673Y-69867219D01*
X147658562Y-69867219D01*
X147658562Y-69656108D01*
X150795069Y-69656108D01*
X150795069Y-71078307D01*
G37*
D10*
X154408207Y-82699819D02*
X154741540Y-83699819D01*
X154741540Y-83699819D02*
X155074873Y-82699819D01*
X155979635Y-83604580D02*
X155932016Y-83652200D01*
X155932016Y-83652200D02*
X155789159Y-83699819D01*
X155789159Y-83699819D02*
X155693921Y-83699819D01*
X155693921Y-83699819D02*
X155551064Y-83652200D01*
X155551064Y-83652200D02*
X155455826Y-83556961D01*
X155455826Y-83556961D02*
X155408207Y-83461723D01*
X155408207Y-83461723D02*
X155360588Y-83271247D01*
X155360588Y-83271247D02*
X155360588Y-83128390D01*
X155360588Y-83128390D02*
X155408207Y-82937914D01*
X155408207Y-82937914D02*
X155455826Y-82842676D01*
X155455826Y-82842676D02*
X155551064Y-82747438D01*
X155551064Y-82747438D02*
X155693921Y-82699819D01*
X155693921Y-82699819D02*
X155789159Y-82699819D01*
X155789159Y-82699819D02*
X155932016Y-82747438D01*
X155932016Y-82747438D02*
X155979635Y-82795057D01*
X156979635Y-83604580D02*
X156932016Y-83652200D01*
X156932016Y-83652200D02*
X156789159Y-83699819D01*
X156789159Y-83699819D02*
X156693921Y-83699819D01*
X156693921Y-83699819D02*
X156551064Y-83652200D01*
X156551064Y-83652200D02*
X156455826Y-83556961D01*
X156455826Y-83556961D02*
X156408207Y-83461723D01*
X156408207Y-83461723D02*
X156360588Y-83271247D01*
X156360588Y-83271247D02*
X156360588Y-83128390D01*
X156360588Y-83128390D02*
X156408207Y-82937914D01*
X156408207Y-82937914D02*
X156455826Y-82842676D01*
X156455826Y-82842676D02*
X156551064Y-82747438D01*
X156551064Y-82747438D02*
X156693921Y-82699819D01*
X156693921Y-82699819D02*
X156789159Y-82699819D01*
X156789159Y-82699819D02*
X156932016Y-82747438D01*
X156932016Y-82747438D02*
X156979635Y-82795057D01*
X157170112Y-83795057D02*
X157932016Y-83795057D01*
X158027255Y-82699819D02*
X158598683Y-82699819D01*
X158312969Y-83699819D02*
X158312969Y-82699819D01*
X159455826Y-82747438D02*
X159360588Y-82699819D01*
X159360588Y-82699819D02*
X159217731Y-82699819D01*
X159217731Y-82699819D02*
X159074874Y-82747438D01*
X159074874Y-82747438D02*
X158979636Y-82842676D01*
X158979636Y-82842676D02*
X158932017Y-82937914D01*
X158932017Y-82937914D02*
X158884398Y-83128390D01*
X158884398Y-83128390D02*
X158884398Y-83271247D01*
X158884398Y-83271247D02*
X158932017Y-83461723D01*
X158932017Y-83461723D02*
X158979636Y-83556961D01*
X158979636Y-83556961D02*
X159074874Y-83652200D01*
X159074874Y-83652200D02*
X159217731Y-83699819D01*
X159217731Y-83699819D02*
X159312969Y-83699819D01*
X159312969Y-83699819D02*
X159455826Y-83652200D01*
X159455826Y-83652200D02*
X159503445Y-83604580D01*
X159503445Y-83604580D02*
X159503445Y-83271247D01*
X159503445Y-83271247D02*
X159312969Y-83271247D01*
X159789160Y-82699819D02*
X160360588Y-82699819D01*
X160074874Y-83699819D02*
X160074874Y-82699819D01*
X158217732Y-91319819D02*
X158217732Y-90319819D01*
X158884398Y-90319819D02*
X159074874Y-90319819D01*
X159074874Y-90319819D02*
X159170112Y-90367438D01*
X159170112Y-90367438D02*
X159265350Y-90462676D01*
X159265350Y-90462676D02*
X159312969Y-90653152D01*
X159312969Y-90653152D02*
X159312969Y-90986485D01*
X159312969Y-90986485D02*
X159265350Y-91176961D01*
X159265350Y-91176961D02*
X159170112Y-91272200D01*
X159170112Y-91272200D02*
X159074874Y-91319819D01*
X159074874Y-91319819D02*
X158884398Y-91319819D01*
X158884398Y-91319819D02*
X158789160Y-91272200D01*
X158789160Y-91272200D02*
X158693922Y-91176961D01*
X158693922Y-91176961D02*
X158646303Y-90986485D01*
X158646303Y-90986485D02*
X158646303Y-90653152D01*
X158646303Y-90653152D02*
X158693922Y-90462676D01*
X158693922Y-90462676D02*
X158789160Y-90367438D01*
X158789160Y-90367438D02*
X158884398Y-90319819D01*
X160217731Y-90319819D02*
X159741541Y-90319819D01*
X159741541Y-90319819D02*
X159693922Y-90796009D01*
X159693922Y-90796009D02*
X159741541Y-90748390D01*
X159741541Y-90748390D02*
X159836779Y-90700771D01*
X159836779Y-90700771D02*
X160074874Y-90700771D01*
X160074874Y-90700771D02*
X160170112Y-90748390D01*
X160170112Y-90748390D02*
X160217731Y-90796009D01*
X160217731Y-90796009D02*
X160265350Y-90891247D01*
X160265350Y-90891247D02*
X160265350Y-91129342D01*
X160265350Y-91129342D02*
X160217731Y-91224580D01*
X160217731Y-91224580D02*
X160170112Y-91272200D01*
X160170112Y-91272200D02*
X160074874Y-91319819D01*
X160074874Y-91319819D02*
X159836779Y-91319819D01*
X159836779Y-91319819D02*
X159741541Y-91272200D01*
X159741541Y-91272200D02*
X159693922Y-91224580D01*
X158217732Y-96399819D02*
X158217732Y-95399819D01*
X158884398Y-95399819D02*
X159074874Y-95399819D01*
X159074874Y-95399819D02*
X159170112Y-95447438D01*
X159170112Y-95447438D02*
X159265350Y-95542676D01*
X159265350Y-95542676D02*
X159312969Y-95733152D01*
X159312969Y-95733152D02*
X159312969Y-96066485D01*
X159312969Y-96066485D02*
X159265350Y-96256961D01*
X159265350Y-96256961D02*
X159170112Y-96352200D01*
X159170112Y-96352200D02*
X159074874Y-96399819D01*
X159074874Y-96399819D02*
X158884398Y-96399819D01*
X158884398Y-96399819D02*
X158789160Y-96352200D01*
X158789160Y-96352200D02*
X158693922Y-96256961D01*
X158693922Y-96256961D02*
X158646303Y-96066485D01*
X158646303Y-96066485D02*
X158646303Y-95733152D01*
X158646303Y-95733152D02*
X158693922Y-95542676D01*
X158693922Y-95542676D02*
X158789160Y-95447438D01*
X158789160Y-95447438D02*
X158884398Y-95399819D01*
X159646303Y-95399819D02*
X160312969Y-95399819D01*
X160312969Y-95399819D02*
X159884398Y-96399819D01*
X157693922Y-77619819D02*
X158027255Y-78619819D01*
X158027255Y-78619819D02*
X158360588Y-77619819D01*
X158693922Y-78619819D02*
X158693922Y-77619819D01*
X158693922Y-77619819D02*
X159074874Y-77619819D01*
X159074874Y-77619819D02*
X159170112Y-77667438D01*
X159170112Y-77667438D02*
X159217731Y-77715057D01*
X159217731Y-77715057D02*
X159265350Y-77810295D01*
X159265350Y-77810295D02*
X159265350Y-77953152D01*
X159265350Y-77953152D02*
X159217731Y-78048390D01*
X159217731Y-78048390D02*
X159170112Y-78096009D01*
X159170112Y-78096009D02*
X159074874Y-78143628D01*
X159074874Y-78143628D02*
X158693922Y-78143628D01*
X159693922Y-78619819D02*
X159693922Y-77619819D01*
X159693922Y-77619819D02*
X160074874Y-77619819D01*
X160074874Y-77619819D02*
X160170112Y-77667438D01*
X160170112Y-77667438D02*
X160217731Y-77715057D01*
X160217731Y-77715057D02*
X160265350Y-77810295D01*
X160265350Y-77810295D02*
X160265350Y-77953152D01*
X160265350Y-77953152D02*
X160217731Y-78048390D01*
X160217731Y-78048390D02*
X160170112Y-78096009D01*
X160170112Y-78096009D02*
X160074874Y-78143628D01*
X160074874Y-78143628D02*
X159693922Y-78143628D01*
X146438485Y-97576190D02*
X146400390Y-97652380D01*
X146400390Y-97652380D02*
X146324200Y-97728571D01*
X146324200Y-97728571D02*
X146209914Y-97842857D01*
X146209914Y-97842857D02*
X146171819Y-97919047D01*
X146171819Y-97919047D02*
X146171819Y-97995238D01*
X146362295Y-97957142D02*
X146324200Y-98033333D01*
X146324200Y-98033333D02*
X146248009Y-98109523D01*
X146248009Y-98109523D02*
X146095628Y-98147619D01*
X146095628Y-98147619D02*
X145828961Y-98147619D01*
X145828961Y-98147619D02*
X145676580Y-98109523D01*
X145676580Y-98109523D02*
X145600390Y-98033333D01*
X145600390Y-98033333D02*
X145562295Y-97957142D01*
X145562295Y-97957142D02*
X145562295Y-97804761D01*
X145562295Y-97804761D02*
X145600390Y-97728571D01*
X145600390Y-97728571D02*
X145676580Y-97652380D01*
X145676580Y-97652380D02*
X145828961Y-97614285D01*
X145828961Y-97614285D02*
X146095628Y-97614285D01*
X146095628Y-97614285D02*
X146248009Y-97652380D01*
X146248009Y-97652380D02*
X146324200Y-97728571D01*
X146324200Y-97728571D02*
X146362295Y-97804761D01*
X146362295Y-97804761D02*
X146362295Y-97957142D01*
X145562295Y-97347619D02*
X145562295Y-96852381D01*
X145562295Y-96852381D02*
X145867057Y-97119047D01*
X145867057Y-97119047D02*
X145867057Y-97004762D01*
X145867057Y-97004762D02*
X145905152Y-96928571D01*
X145905152Y-96928571D02*
X145943247Y-96890476D01*
X145943247Y-96890476D02*
X146019438Y-96852381D01*
X146019438Y-96852381D02*
X146209914Y-96852381D01*
X146209914Y-96852381D02*
X146286104Y-96890476D01*
X146286104Y-96890476D02*
X146324200Y-96928571D01*
X146324200Y-96928571D02*
X146362295Y-97004762D01*
X146362295Y-97004762D02*
X146362295Y-97233333D01*
X146362295Y-97233333D02*
X146324200Y-97309524D01*
X146324200Y-97309524D02*
X146286104Y-97347619D01*
X149215263Y-83627802D02*
X149215263Y-82827802D01*
X149215263Y-82827802D02*
X149405739Y-82827802D01*
X149405739Y-82827802D02*
X149520025Y-82865897D01*
X149520025Y-82865897D02*
X149596215Y-82942087D01*
X149596215Y-82942087D02*
X149634310Y-83018278D01*
X149634310Y-83018278D02*
X149672406Y-83170659D01*
X149672406Y-83170659D02*
X149672406Y-83284945D01*
X149672406Y-83284945D02*
X149634310Y-83437326D01*
X149634310Y-83437326D02*
X149596215Y-83513516D01*
X149596215Y-83513516D02*
X149520025Y-83589707D01*
X149520025Y-83589707D02*
X149405739Y-83627802D01*
X149405739Y-83627802D02*
X149215263Y-83627802D01*
X149977167Y-82903992D02*
X150015263Y-82865897D01*
X150015263Y-82865897D02*
X150091453Y-82827802D01*
X150091453Y-82827802D02*
X150281929Y-82827802D01*
X150281929Y-82827802D02*
X150358120Y-82865897D01*
X150358120Y-82865897D02*
X150396215Y-82903992D01*
X150396215Y-82903992D02*
X150434310Y-82980183D01*
X150434310Y-82980183D02*
X150434310Y-83056373D01*
X150434310Y-83056373D02*
X150396215Y-83170659D01*
X150396215Y-83170659D02*
X149939072Y-83627802D01*
X149939072Y-83627802D02*
X150434310Y-83627802D01*
X142909524Y-72862295D02*
X142909524Y-72062295D01*
X142909524Y-72062295D02*
X143100000Y-72062295D01*
X143100000Y-72062295D02*
X143214286Y-72100390D01*
X143214286Y-72100390D02*
X143290476Y-72176580D01*
X143290476Y-72176580D02*
X143328571Y-72252771D01*
X143328571Y-72252771D02*
X143366667Y-72405152D01*
X143366667Y-72405152D02*
X143366667Y-72519438D01*
X143366667Y-72519438D02*
X143328571Y-72671819D01*
X143328571Y-72671819D02*
X143290476Y-72748009D01*
X143290476Y-72748009D02*
X143214286Y-72824200D01*
X143214286Y-72824200D02*
X143100000Y-72862295D01*
X143100000Y-72862295D02*
X142909524Y-72862295D01*
X144128571Y-72862295D02*
X143671428Y-72862295D01*
X143900000Y-72862295D02*
X143900000Y-72062295D01*
X143900000Y-72062295D02*
X143823809Y-72176580D01*
X143823809Y-72176580D02*
X143747619Y-72252771D01*
X143747619Y-72252771D02*
X143671428Y-72290866D01*
X145306635Y-74892778D02*
X145344731Y-74930874D01*
X145344731Y-74930874D02*
X145382826Y-75045159D01*
X145382826Y-75045159D02*
X145382826Y-75121350D01*
X145382826Y-75121350D02*
X145344731Y-75235636D01*
X145344731Y-75235636D02*
X145268540Y-75311826D01*
X145268540Y-75311826D02*
X145192350Y-75349921D01*
X145192350Y-75349921D02*
X145039969Y-75388017D01*
X145039969Y-75388017D02*
X144925683Y-75388017D01*
X144925683Y-75388017D02*
X144773302Y-75349921D01*
X144773302Y-75349921D02*
X144697111Y-75311826D01*
X144697111Y-75311826D02*
X144620921Y-75235636D01*
X144620921Y-75235636D02*
X144582826Y-75121350D01*
X144582826Y-75121350D02*
X144582826Y-75045159D01*
X144582826Y-75045159D02*
X144620921Y-74930874D01*
X144620921Y-74930874D02*
X144659016Y-74892778D01*
X145382826Y-74130874D02*
X145382826Y-74588017D01*
X145382826Y-74359445D02*
X144582826Y-74359445D01*
X144582826Y-74359445D02*
X144697111Y-74435636D01*
X144697111Y-74435636D02*
X144773302Y-74511826D01*
X144773302Y-74511826D02*
X144811397Y-74588017D01*
X144582826Y-73864207D02*
X144582826Y-73368969D01*
X144582826Y-73368969D02*
X144887588Y-73635635D01*
X144887588Y-73635635D02*
X144887588Y-73521350D01*
X144887588Y-73521350D02*
X144925683Y-73445159D01*
X144925683Y-73445159D02*
X144963778Y-73407064D01*
X144963778Y-73407064D02*
X145039969Y-73368969D01*
X145039969Y-73368969D02*
X145230445Y-73368969D01*
X145230445Y-73368969D02*
X145306635Y-73407064D01*
X145306635Y-73407064D02*
X145344731Y-73445159D01*
X145344731Y-73445159D02*
X145382826Y-73521350D01*
X145382826Y-73521350D02*
X145382826Y-73749921D01*
X145382826Y-73749921D02*
X145344731Y-73826112D01*
X145344731Y-73826112D02*
X145306635Y-73864207D01*
X145012295Y-85590475D02*
X144212295Y-85590475D01*
X144212295Y-85590475D02*
X144212295Y-85399999D01*
X144212295Y-85399999D02*
X144250390Y-85285713D01*
X144250390Y-85285713D02*
X144326580Y-85209523D01*
X144326580Y-85209523D02*
X144402771Y-85171428D01*
X144402771Y-85171428D02*
X144555152Y-85133332D01*
X144555152Y-85133332D02*
X144669438Y-85133332D01*
X144669438Y-85133332D02*
X144821819Y-85171428D01*
X144821819Y-85171428D02*
X144898009Y-85209523D01*
X144898009Y-85209523D02*
X144974200Y-85285713D01*
X144974200Y-85285713D02*
X145012295Y-85399999D01*
X145012295Y-85399999D02*
X145012295Y-85590475D01*
X144478961Y-84447618D02*
X145012295Y-84447618D01*
X144174200Y-84638094D02*
X144745628Y-84828571D01*
X144745628Y-84828571D02*
X144745628Y-84333332D01*
X157862295Y-101514285D02*
X157481342Y-101780952D01*
X157862295Y-101971428D02*
X157062295Y-101971428D01*
X157062295Y-101971428D02*
X157062295Y-101666666D01*
X157062295Y-101666666D02*
X157100390Y-101590476D01*
X157100390Y-101590476D02*
X157138485Y-101552381D01*
X157138485Y-101552381D02*
X157214676Y-101514285D01*
X157214676Y-101514285D02*
X157328961Y-101514285D01*
X157328961Y-101514285D02*
X157405152Y-101552381D01*
X157405152Y-101552381D02*
X157443247Y-101590476D01*
X157443247Y-101590476D02*
X157481342Y-101666666D01*
X157481342Y-101666666D02*
X157481342Y-101971428D01*
X157138485Y-101209524D02*
X157100390Y-101171428D01*
X157100390Y-101171428D02*
X157062295Y-101095238D01*
X157062295Y-101095238D02*
X157062295Y-100904762D01*
X157062295Y-100904762D02*
X157100390Y-100828571D01*
X157100390Y-100828571D02*
X157138485Y-100790476D01*
X157138485Y-100790476D02*
X157214676Y-100752381D01*
X157214676Y-100752381D02*
X157290866Y-100752381D01*
X157290866Y-100752381D02*
X157405152Y-100790476D01*
X157405152Y-100790476D02*
X157862295Y-101247619D01*
X157862295Y-101247619D02*
X157862295Y-100752381D01*
X157405152Y-100295238D02*
X157367057Y-100371428D01*
X157367057Y-100371428D02*
X157328961Y-100409523D01*
X157328961Y-100409523D02*
X157252771Y-100447619D01*
X157252771Y-100447619D02*
X157214676Y-100447619D01*
X157214676Y-100447619D02*
X157138485Y-100409523D01*
X157138485Y-100409523D02*
X157100390Y-100371428D01*
X157100390Y-100371428D02*
X157062295Y-100295238D01*
X157062295Y-100295238D02*
X157062295Y-100142857D01*
X157062295Y-100142857D02*
X157100390Y-100066666D01*
X157100390Y-100066666D02*
X157138485Y-100028571D01*
X157138485Y-100028571D02*
X157214676Y-99990476D01*
X157214676Y-99990476D02*
X157252771Y-99990476D01*
X157252771Y-99990476D02*
X157328961Y-100028571D01*
X157328961Y-100028571D02*
X157367057Y-100066666D01*
X157367057Y-100066666D02*
X157405152Y-100142857D01*
X157405152Y-100142857D02*
X157405152Y-100295238D01*
X157405152Y-100295238D02*
X157443247Y-100371428D01*
X157443247Y-100371428D02*
X157481342Y-100409523D01*
X157481342Y-100409523D02*
X157557533Y-100447619D01*
X157557533Y-100447619D02*
X157709914Y-100447619D01*
X157709914Y-100447619D02*
X157786104Y-100409523D01*
X157786104Y-100409523D02*
X157824200Y-100371428D01*
X157824200Y-100371428D02*
X157862295Y-100295238D01*
X157862295Y-100295238D02*
X157862295Y-100142857D01*
X157862295Y-100142857D02*
X157824200Y-100066666D01*
X157824200Y-100066666D02*
X157786104Y-100028571D01*
X157786104Y-100028571D02*
X157709914Y-99990476D01*
X157709914Y-99990476D02*
X157557533Y-99990476D01*
X157557533Y-99990476D02*
X157481342Y-100028571D01*
X157481342Y-100028571D02*
X157443247Y-100066666D01*
X157443247Y-100066666D02*
X157405152Y-100142857D01*
X138195891Y-99956688D02*
X138195891Y-100528116D01*
X138195891Y-100528116D02*
X138157796Y-100642402D01*
X138157796Y-100642402D02*
X138081605Y-100718593D01*
X138081605Y-100718593D02*
X137967320Y-100756688D01*
X137967320Y-100756688D02*
X137891129Y-100756688D01*
X138995891Y-100756688D02*
X138538748Y-100756688D01*
X138767320Y-100756688D02*
X138767320Y-99956688D01*
X138767320Y-99956688D02*
X138691129Y-100070973D01*
X138691129Y-100070973D02*
X138614939Y-100147164D01*
X138614939Y-100147164D02*
X138538748Y-100185259D01*
X151181477Y-97418233D02*
X151143382Y-97494423D01*
X151143382Y-97494423D02*
X151067192Y-97570614D01*
X151067192Y-97570614D02*
X150952906Y-97684900D01*
X150952906Y-97684900D02*
X150914811Y-97761090D01*
X150914811Y-97761090D02*
X150914811Y-97837281D01*
X151105287Y-97799185D02*
X151067192Y-97875376D01*
X151067192Y-97875376D02*
X150991001Y-97951566D01*
X150991001Y-97951566D02*
X150838620Y-97989662D01*
X150838620Y-97989662D02*
X150571953Y-97989662D01*
X150571953Y-97989662D02*
X150419572Y-97951566D01*
X150419572Y-97951566D02*
X150343382Y-97875376D01*
X150343382Y-97875376D02*
X150305287Y-97799185D01*
X150305287Y-97799185D02*
X150305287Y-97646804D01*
X150305287Y-97646804D02*
X150343382Y-97570614D01*
X150343382Y-97570614D02*
X150419572Y-97494423D01*
X150419572Y-97494423D02*
X150571953Y-97456328D01*
X150571953Y-97456328D02*
X150838620Y-97456328D01*
X150838620Y-97456328D02*
X150991001Y-97494423D01*
X150991001Y-97494423D02*
X151067192Y-97570614D01*
X151067192Y-97570614D02*
X151105287Y-97646804D01*
X151105287Y-97646804D02*
X151105287Y-97799185D01*
X151105287Y-96694424D02*
X151105287Y-97151567D01*
X151105287Y-96922995D02*
X150305287Y-96922995D01*
X150305287Y-96922995D02*
X150419572Y-96999186D01*
X150419572Y-96999186D02*
X150495763Y-97075376D01*
X150495763Y-97075376D02*
X150533858Y-97151567D01*
X149398214Y-104274795D02*
X149131547Y-103893842D01*
X148941071Y-104274795D02*
X148941071Y-103474795D01*
X148941071Y-103474795D02*
X149245833Y-103474795D01*
X149245833Y-103474795D02*
X149322023Y-103512890D01*
X149322023Y-103512890D02*
X149360118Y-103550985D01*
X149360118Y-103550985D02*
X149398214Y-103627176D01*
X149398214Y-103627176D02*
X149398214Y-103741461D01*
X149398214Y-103741461D02*
X149360118Y-103817652D01*
X149360118Y-103817652D02*
X149322023Y-103855747D01*
X149322023Y-103855747D02*
X149245833Y-103893842D01*
X149245833Y-103893842D02*
X148941071Y-103893842D01*
X149702975Y-103550985D02*
X149741071Y-103512890D01*
X149741071Y-103512890D02*
X149817261Y-103474795D01*
X149817261Y-103474795D02*
X150007737Y-103474795D01*
X150007737Y-103474795D02*
X150083928Y-103512890D01*
X150083928Y-103512890D02*
X150122023Y-103550985D01*
X150122023Y-103550985D02*
X150160118Y-103627176D01*
X150160118Y-103627176D02*
X150160118Y-103703366D01*
X150160118Y-103703366D02*
X150122023Y-103817652D01*
X150122023Y-103817652D02*
X149664880Y-104274795D01*
X149664880Y-104274795D02*
X150160118Y-104274795D01*
X150541071Y-104274795D02*
X150693452Y-104274795D01*
X150693452Y-104274795D02*
X150769642Y-104236700D01*
X150769642Y-104236700D02*
X150807738Y-104198604D01*
X150807738Y-104198604D02*
X150883928Y-104084319D01*
X150883928Y-104084319D02*
X150922023Y-103931938D01*
X150922023Y-103931938D02*
X150922023Y-103627176D01*
X150922023Y-103627176D02*
X150883928Y-103550985D01*
X150883928Y-103550985D02*
X150845833Y-103512890D01*
X150845833Y-103512890D02*
X150769642Y-103474795D01*
X150769642Y-103474795D02*
X150617261Y-103474795D01*
X150617261Y-103474795D02*
X150541071Y-103512890D01*
X150541071Y-103512890D02*
X150502976Y-103550985D01*
X150502976Y-103550985D02*
X150464880Y-103627176D01*
X150464880Y-103627176D02*
X150464880Y-103817652D01*
X150464880Y-103817652D02*
X150502976Y-103893842D01*
X150502976Y-103893842D02*
X150541071Y-103931938D01*
X150541071Y-103931938D02*
X150617261Y-103970033D01*
X150617261Y-103970033D02*
X150769642Y-103970033D01*
X150769642Y-103970033D02*
X150845833Y-103931938D01*
X150845833Y-103931938D02*
X150883928Y-103893842D01*
X150883928Y-103893842D02*
X150922023Y-103817652D01*
X145612295Y-88014285D02*
X145231342Y-88280952D01*
X145612295Y-88471428D02*
X144812295Y-88471428D01*
X144812295Y-88471428D02*
X144812295Y-88166666D01*
X144812295Y-88166666D02*
X144850390Y-88090476D01*
X144850390Y-88090476D02*
X144888485Y-88052381D01*
X144888485Y-88052381D02*
X144964676Y-88014285D01*
X144964676Y-88014285D02*
X145078961Y-88014285D01*
X145078961Y-88014285D02*
X145155152Y-88052381D01*
X145155152Y-88052381D02*
X145193247Y-88090476D01*
X145193247Y-88090476D02*
X145231342Y-88166666D01*
X145231342Y-88166666D02*
X145231342Y-88471428D01*
X144888485Y-87709524D02*
X144850390Y-87671428D01*
X144850390Y-87671428D02*
X144812295Y-87595238D01*
X144812295Y-87595238D02*
X144812295Y-87404762D01*
X144812295Y-87404762D02*
X144850390Y-87328571D01*
X144850390Y-87328571D02*
X144888485Y-87290476D01*
X144888485Y-87290476D02*
X144964676Y-87252381D01*
X144964676Y-87252381D02*
X145040866Y-87252381D01*
X145040866Y-87252381D02*
X145155152Y-87290476D01*
X145155152Y-87290476D02*
X145612295Y-87747619D01*
X145612295Y-87747619D02*
X145612295Y-87252381D01*
X145078961Y-86566666D02*
X145612295Y-86566666D01*
X144774200Y-86757142D02*
X145345628Y-86947619D01*
X145345628Y-86947619D02*
X145345628Y-86452380D01*
X147730268Y-73800933D02*
X147768364Y-73839029D01*
X147768364Y-73839029D02*
X147806459Y-73953314D01*
X147806459Y-73953314D02*
X147806459Y-74029505D01*
X147806459Y-74029505D02*
X147768364Y-74143791D01*
X147768364Y-74143791D02*
X147692173Y-74219981D01*
X147692173Y-74219981D02*
X147615983Y-74258076D01*
X147615983Y-74258076D02*
X147463602Y-74296172D01*
X147463602Y-74296172D02*
X147349316Y-74296172D01*
X147349316Y-74296172D02*
X147196935Y-74258076D01*
X147196935Y-74258076D02*
X147120744Y-74219981D01*
X147120744Y-74219981D02*
X147044554Y-74143791D01*
X147044554Y-74143791D02*
X147006459Y-74029505D01*
X147006459Y-74029505D02*
X147006459Y-73953314D01*
X147006459Y-73953314D02*
X147044554Y-73839029D01*
X147044554Y-73839029D02*
X147082649Y-73800933D01*
X147806459Y-73039029D02*
X147806459Y-73496172D01*
X147806459Y-73267600D02*
X147006459Y-73267600D01*
X147006459Y-73267600D02*
X147120744Y-73343791D01*
X147120744Y-73343791D02*
X147196935Y-73419981D01*
X147196935Y-73419981D02*
X147235030Y-73496172D01*
X147273125Y-72353314D02*
X147806459Y-72353314D01*
X146968364Y-72543790D02*
X147539792Y-72734267D01*
X147539792Y-72734267D02*
X147539792Y-72239028D01*
X155412127Y-93895526D02*
X155145460Y-93514573D01*
X154954984Y-93895526D02*
X154954984Y-93095526D01*
X154954984Y-93095526D02*
X155259746Y-93095526D01*
X155259746Y-93095526D02*
X155335936Y-93133621D01*
X155335936Y-93133621D02*
X155374031Y-93171716D01*
X155374031Y-93171716D02*
X155412127Y-93247907D01*
X155412127Y-93247907D02*
X155412127Y-93362192D01*
X155412127Y-93362192D02*
X155374031Y-93438383D01*
X155374031Y-93438383D02*
X155335936Y-93476478D01*
X155335936Y-93476478D02*
X155259746Y-93514573D01*
X155259746Y-93514573D02*
X154954984Y-93514573D01*
X155716888Y-93171716D02*
X155754984Y-93133621D01*
X155754984Y-93133621D02*
X155831174Y-93095526D01*
X155831174Y-93095526D02*
X156021650Y-93095526D01*
X156021650Y-93095526D02*
X156097841Y-93133621D01*
X156097841Y-93133621D02*
X156135936Y-93171716D01*
X156135936Y-93171716D02*
X156174031Y-93247907D01*
X156174031Y-93247907D02*
X156174031Y-93324097D01*
X156174031Y-93324097D02*
X156135936Y-93438383D01*
X156135936Y-93438383D02*
X155678793Y-93895526D01*
X155678793Y-93895526D02*
X156174031Y-93895526D01*
X156440698Y-93095526D02*
X156935936Y-93095526D01*
X156935936Y-93095526D02*
X156669270Y-93400288D01*
X156669270Y-93400288D02*
X156783555Y-93400288D01*
X156783555Y-93400288D02*
X156859746Y-93438383D01*
X156859746Y-93438383D02*
X156897841Y-93476478D01*
X156897841Y-93476478D02*
X156935936Y-93552669D01*
X156935936Y-93552669D02*
X156935936Y-93743145D01*
X156935936Y-93743145D02*
X156897841Y-93819335D01*
X156897841Y-93819335D02*
X156859746Y-93857431D01*
X156859746Y-93857431D02*
X156783555Y-93895526D01*
X156783555Y-93895526D02*
X156554984Y-93895526D01*
X156554984Y-93895526D02*
X156478793Y-93857431D01*
X156478793Y-93857431D02*
X156440698Y-93819335D01*
X155536104Y-91514285D02*
X155574200Y-91552381D01*
X155574200Y-91552381D02*
X155612295Y-91666666D01*
X155612295Y-91666666D02*
X155612295Y-91742857D01*
X155612295Y-91742857D02*
X155574200Y-91857143D01*
X155574200Y-91857143D02*
X155498009Y-91933333D01*
X155498009Y-91933333D02*
X155421819Y-91971428D01*
X155421819Y-91971428D02*
X155269438Y-92009524D01*
X155269438Y-92009524D02*
X155155152Y-92009524D01*
X155155152Y-92009524D02*
X155002771Y-91971428D01*
X155002771Y-91971428D02*
X154926580Y-91933333D01*
X154926580Y-91933333D02*
X154850390Y-91857143D01*
X154850390Y-91857143D02*
X154812295Y-91742857D01*
X154812295Y-91742857D02*
X154812295Y-91666666D01*
X154812295Y-91666666D02*
X154850390Y-91552381D01*
X154850390Y-91552381D02*
X154888485Y-91514285D01*
X155612295Y-90752381D02*
X155612295Y-91209524D01*
X155612295Y-90980952D02*
X154812295Y-90980952D01*
X154812295Y-90980952D02*
X154926580Y-91057143D01*
X154926580Y-91057143D02*
X155002771Y-91133333D01*
X155002771Y-91133333D02*
X155040866Y-91209524D01*
X154812295Y-90028571D02*
X154812295Y-90409523D01*
X154812295Y-90409523D02*
X155193247Y-90447619D01*
X155193247Y-90447619D02*
X155155152Y-90409523D01*
X155155152Y-90409523D02*
X155117057Y-90333333D01*
X155117057Y-90333333D02*
X155117057Y-90142857D01*
X155117057Y-90142857D02*
X155155152Y-90066666D01*
X155155152Y-90066666D02*
X155193247Y-90028571D01*
X155193247Y-90028571D02*
X155269438Y-89990476D01*
X155269438Y-89990476D02*
X155459914Y-89990476D01*
X155459914Y-89990476D02*
X155536104Y-90028571D01*
X155536104Y-90028571D02*
X155574200Y-90066666D01*
X155574200Y-90066666D02*
X155612295Y-90142857D01*
X155612295Y-90142857D02*
X155612295Y-90333333D01*
X155612295Y-90333333D02*
X155574200Y-90409523D01*
X155574200Y-90409523D02*
X155536104Y-90447619D01*
X152923809Y-104438485D02*
X152847619Y-104400390D01*
X152847619Y-104400390D02*
X152771428Y-104324200D01*
X152771428Y-104324200D02*
X152657142Y-104209914D01*
X152657142Y-104209914D02*
X152580952Y-104171819D01*
X152580952Y-104171819D02*
X152504761Y-104171819D01*
X152542857Y-104362295D02*
X152466666Y-104324200D01*
X152466666Y-104324200D02*
X152390476Y-104248009D01*
X152390476Y-104248009D02*
X152352380Y-104095628D01*
X152352380Y-104095628D02*
X152352380Y-103828961D01*
X152352380Y-103828961D02*
X152390476Y-103676580D01*
X152390476Y-103676580D02*
X152466666Y-103600390D01*
X152466666Y-103600390D02*
X152542857Y-103562295D01*
X152542857Y-103562295D02*
X152695238Y-103562295D01*
X152695238Y-103562295D02*
X152771428Y-103600390D01*
X152771428Y-103600390D02*
X152847619Y-103676580D01*
X152847619Y-103676580D02*
X152885714Y-103828961D01*
X152885714Y-103828961D02*
X152885714Y-104095628D01*
X152885714Y-104095628D02*
X152847619Y-104248009D01*
X152847619Y-104248009D02*
X152771428Y-104324200D01*
X152771428Y-104324200D02*
X152695238Y-104362295D01*
X152695238Y-104362295D02*
X152542857Y-104362295D01*
X153190475Y-103638485D02*
X153228571Y-103600390D01*
X153228571Y-103600390D02*
X153304761Y-103562295D01*
X153304761Y-103562295D02*
X153495237Y-103562295D01*
X153495237Y-103562295D02*
X153571428Y-103600390D01*
X153571428Y-103600390D02*
X153609523Y-103638485D01*
X153609523Y-103638485D02*
X153647618Y-103714676D01*
X153647618Y-103714676D02*
X153647618Y-103790866D01*
X153647618Y-103790866D02*
X153609523Y-103905152D01*
X153609523Y-103905152D02*
X153152380Y-104362295D01*
X153152380Y-104362295D02*
X153647618Y-104362295D01*
X161733333Y-75312295D02*
X161733333Y-75883723D01*
X161733333Y-75883723D02*
X161695238Y-75998009D01*
X161695238Y-75998009D02*
X161619047Y-76074200D01*
X161619047Y-76074200D02*
X161504762Y-76112295D01*
X161504762Y-76112295D02*
X161428571Y-76112295D01*
X162457143Y-75578961D02*
X162457143Y-76112295D01*
X162266667Y-75274200D02*
X162076190Y-75845628D01*
X162076190Y-75845628D02*
X162571429Y-75845628D01*
X147711678Y-83591219D02*
X147635488Y-83553124D01*
X147635488Y-83553124D02*
X147559297Y-83476934D01*
X147559297Y-83476934D02*
X147445011Y-83362648D01*
X147445011Y-83362648D02*
X147368821Y-83324553D01*
X147368821Y-83324553D02*
X147292630Y-83324553D01*
X147330726Y-83515029D02*
X147254535Y-83476934D01*
X147254535Y-83476934D02*
X147178345Y-83400743D01*
X147178345Y-83400743D02*
X147140249Y-83248362D01*
X147140249Y-83248362D02*
X147140249Y-82981695D01*
X147140249Y-82981695D02*
X147178345Y-82829314D01*
X147178345Y-82829314D02*
X147254535Y-82753124D01*
X147254535Y-82753124D02*
X147330726Y-82715029D01*
X147330726Y-82715029D02*
X147483107Y-82715029D01*
X147483107Y-82715029D02*
X147559297Y-82753124D01*
X147559297Y-82753124D02*
X147635488Y-82829314D01*
X147635488Y-82829314D02*
X147673583Y-82981695D01*
X147673583Y-82981695D02*
X147673583Y-83248362D01*
X147673583Y-83248362D02*
X147635488Y-83400743D01*
X147635488Y-83400743D02*
X147559297Y-83476934D01*
X147559297Y-83476934D02*
X147483107Y-83515029D01*
X147483107Y-83515029D02*
X147330726Y-83515029D01*
X148359297Y-82981695D02*
X148359297Y-83515029D01*
X148168821Y-82676934D02*
X147978344Y-83248362D01*
X147978344Y-83248362D02*
X148473583Y-83248362D01*
X147954818Y-79666666D02*
X147954818Y-80142856D01*
X147954818Y-80142856D02*
X146954818Y-80142856D01*
X147954818Y-78809523D02*
X147954818Y-79380951D01*
X147954818Y-79095237D02*
X146954818Y-79095237D01*
X146954818Y-79095237D02*
X147097675Y-79190475D01*
X147097675Y-79190475D02*
X147192913Y-79285713D01*
X147192913Y-79285713D02*
X147240532Y-79380951D01*
X153985714Y-87862295D02*
X153719047Y-87481342D01*
X153528571Y-87862295D02*
X153528571Y-87062295D01*
X153528571Y-87062295D02*
X153833333Y-87062295D01*
X153833333Y-87062295D02*
X153909523Y-87100390D01*
X153909523Y-87100390D02*
X153947618Y-87138485D01*
X153947618Y-87138485D02*
X153985714Y-87214676D01*
X153985714Y-87214676D02*
X153985714Y-87328961D01*
X153985714Y-87328961D02*
X153947618Y-87405152D01*
X153947618Y-87405152D02*
X153909523Y-87443247D01*
X153909523Y-87443247D02*
X153833333Y-87481342D01*
X153833333Y-87481342D02*
X153528571Y-87481342D01*
X154290475Y-87138485D02*
X154328571Y-87100390D01*
X154328571Y-87100390D02*
X154404761Y-87062295D01*
X154404761Y-87062295D02*
X154595237Y-87062295D01*
X154595237Y-87062295D02*
X154671428Y-87100390D01*
X154671428Y-87100390D02*
X154709523Y-87138485D01*
X154709523Y-87138485D02*
X154747618Y-87214676D01*
X154747618Y-87214676D02*
X154747618Y-87290866D01*
X154747618Y-87290866D02*
X154709523Y-87405152D01*
X154709523Y-87405152D02*
X154252380Y-87862295D01*
X154252380Y-87862295D02*
X154747618Y-87862295D01*
X155052380Y-87138485D02*
X155090476Y-87100390D01*
X155090476Y-87100390D02*
X155166666Y-87062295D01*
X155166666Y-87062295D02*
X155357142Y-87062295D01*
X155357142Y-87062295D02*
X155433333Y-87100390D01*
X155433333Y-87100390D02*
X155471428Y-87138485D01*
X155471428Y-87138485D02*
X155509523Y-87214676D01*
X155509523Y-87214676D02*
X155509523Y-87290866D01*
X155509523Y-87290866D02*
X155471428Y-87405152D01*
X155471428Y-87405152D02*
X155014285Y-87862295D01*
X155014285Y-87862295D02*
X155509523Y-87862295D01*
X140866667Y-72862295D02*
X140600000Y-72481342D01*
X140409524Y-72862295D02*
X140409524Y-72062295D01*
X140409524Y-72062295D02*
X140714286Y-72062295D01*
X140714286Y-72062295D02*
X140790476Y-72100390D01*
X140790476Y-72100390D02*
X140828571Y-72138485D01*
X140828571Y-72138485D02*
X140866667Y-72214676D01*
X140866667Y-72214676D02*
X140866667Y-72328961D01*
X140866667Y-72328961D02*
X140828571Y-72405152D01*
X140828571Y-72405152D02*
X140790476Y-72443247D01*
X140790476Y-72443247D02*
X140714286Y-72481342D01*
X140714286Y-72481342D02*
X140409524Y-72481342D01*
X141628571Y-72862295D02*
X141171428Y-72862295D01*
X141400000Y-72862295D02*
X141400000Y-72062295D01*
X141400000Y-72062295D02*
X141323809Y-72176580D01*
X141323809Y-72176580D02*
X141247619Y-72252771D01*
X141247619Y-72252771D02*
X141171428Y-72290866D01*
X158150157Y-98848924D02*
X157350157Y-98848924D01*
X157350157Y-98848924D02*
X157350157Y-98658448D01*
X157350157Y-98658448D02*
X157388252Y-98544162D01*
X157388252Y-98544162D02*
X157464442Y-98467972D01*
X157464442Y-98467972D02*
X157540633Y-98429877D01*
X157540633Y-98429877D02*
X157693014Y-98391781D01*
X157693014Y-98391781D02*
X157807300Y-98391781D01*
X157807300Y-98391781D02*
X157959681Y-98429877D01*
X157959681Y-98429877D02*
X158035871Y-98467972D01*
X158035871Y-98467972D02*
X158112062Y-98544162D01*
X158112062Y-98544162D02*
X158150157Y-98658448D01*
X158150157Y-98658448D02*
X158150157Y-98848924D01*
X157350157Y-98125115D02*
X157350157Y-97629877D01*
X157350157Y-97629877D02*
X157654919Y-97896543D01*
X157654919Y-97896543D02*
X157654919Y-97782258D01*
X157654919Y-97782258D02*
X157693014Y-97706067D01*
X157693014Y-97706067D02*
X157731109Y-97667972D01*
X157731109Y-97667972D02*
X157807300Y-97629877D01*
X157807300Y-97629877D02*
X157997776Y-97629877D01*
X157997776Y-97629877D02*
X158073966Y-97667972D01*
X158073966Y-97667972D02*
X158112062Y-97706067D01*
X158112062Y-97706067D02*
X158150157Y-97782258D01*
X158150157Y-97782258D02*
X158150157Y-98010829D01*
X158150157Y-98010829D02*
X158112062Y-98087020D01*
X158112062Y-98087020D02*
X158073966Y-98125115D01*
X147612295Y-95014285D02*
X147231342Y-95280952D01*
X147612295Y-95471428D02*
X146812295Y-95471428D01*
X146812295Y-95471428D02*
X146812295Y-95166666D01*
X146812295Y-95166666D02*
X146850390Y-95090476D01*
X146850390Y-95090476D02*
X146888485Y-95052381D01*
X146888485Y-95052381D02*
X146964676Y-95014285D01*
X146964676Y-95014285D02*
X147078961Y-95014285D01*
X147078961Y-95014285D02*
X147155152Y-95052381D01*
X147155152Y-95052381D02*
X147193247Y-95090476D01*
X147193247Y-95090476D02*
X147231342Y-95166666D01*
X147231342Y-95166666D02*
X147231342Y-95471428D01*
X146888485Y-94709524D02*
X146850390Y-94671428D01*
X146850390Y-94671428D02*
X146812295Y-94595238D01*
X146812295Y-94595238D02*
X146812295Y-94404762D01*
X146812295Y-94404762D02*
X146850390Y-94328571D01*
X146850390Y-94328571D02*
X146888485Y-94290476D01*
X146888485Y-94290476D02*
X146964676Y-94252381D01*
X146964676Y-94252381D02*
X147040866Y-94252381D01*
X147040866Y-94252381D02*
X147155152Y-94290476D01*
X147155152Y-94290476D02*
X147612295Y-94747619D01*
X147612295Y-94747619D02*
X147612295Y-94252381D01*
X146812295Y-93528571D02*
X146812295Y-93909523D01*
X146812295Y-93909523D02*
X147193247Y-93947619D01*
X147193247Y-93947619D02*
X147155152Y-93909523D01*
X147155152Y-93909523D02*
X147117057Y-93833333D01*
X147117057Y-93833333D02*
X147117057Y-93642857D01*
X147117057Y-93642857D02*
X147155152Y-93566666D01*
X147155152Y-93566666D02*
X147193247Y-93528571D01*
X147193247Y-93528571D02*
X147269438Y-93490476D01*
X147269438Y-93490476D02*
X147459914Y-93490476D01*
X147459914Y-93490476D02*
X147536104Y-93528571D01*
X147536104Y-93528571D02*
X147574200Y-93566666D01*
X147574200Y-93566666D02*
X147612295Y-93642857D01*
X147612295Y-93642857D02*
X147612295Y-93833333D01*
X147612295Y-93833333D02*
X147574200Y-93909523D01*
X147574200Y-93909523D02*
X147536104Y-93947619D01*
X145485714Y-102862295D02*
X145219047Y-102481342D01*
X145028571Y-102862295D02*
X145028571Y-102062295D01*
X145028571Y-102062295D02*
X145333333Y-102062295D01*
X145333333Y-102062295D02*
X145409523Y-102100390D01*
X145409523Y-102100390D02*
X145447618Y-102138485D01*
X145447618Y-102138485D02*
X145485714Y-102214676D01*
X145485714Y-102214676D02*
X145485714Y-102328961D01*
X145485714Y-102328961D02*
X145447618Y-102405152D01*
X145447618Y-102405152D02*
X145409523Y-102443247D01*
X145409523Y-102443247D02*
X145333333Y-102481342D01*
X145333333Y-102481342D02*
X145028571Y-102481342D01*
X145790475Y-102138485D02*
X145828571Y-102100390D01*
X145828571Y-102100390D02*
X145904761Y-102062295D01*
X145904761Y-102062295D02*
X146095237Y-102062295D01*
X146095237Y-102062295D02*
X146171428Y-102100390D01*
X146171428Y-102100390D02*
X146209523Y-102138485D01*
X146209523Y-102138485D02*
X146247618Y-102214676D01*
X146247618Y-102214676D02*
X146247618Y-102290866D01*
X146247618Y-102290866D02*
X146209523Y-102405152D01*
X146209523Y-102405152D02*
X145752380Y-102862295D01*
X145752380Y-102862295D02*
X146247618Y-102862295D01*
X146514285Y-102062295D02*
X147047619Y-102062295D01*
X147047619Y-102062295D02*
X146704761Y-102862295D01*
D12*
X146940000Y-97500000D02*
X146940000Y-96850000D01*
X146940000Y-97500000D02*
X146940000Y-99175000D01*
X150060000Y-97500000D02*
X150060000Y-96850000D01*
X150060000Y-97500000D02*
X150060000Y-98150000D01*
X150890000Y-84500000D02*
X150890000Y-83850000D01*
X150890000Y-84500000D02*
X150890000Y-85150000D01*
X154010000Y-84500000D02*
X154010000Y-82825000D01*
X154010000Y-84500000D02*
X154010000Y-85150000D01*
X144500000Y-71460000D02*
X147185000Y-71460000D01*
X147185000Y-69540000D02*
X144500000Y-69540000D01*
X147185000Y-71460000D02*
X147185000Y-69540000D01*
X144324864Y-77238748D02*
X144324864Y-77761252D01*
X145794864Y-77238748D02*
X145794864Y-77761252D01*
X150010000Y-84000000D02*
X146000000Y-84000000D01*
X150010000Y-86000000D02*
X146000000Y-86000000D01*
X150010000Y-86000000D02*
X150010000Y-84000000D01*
X155265000Y-101139564D02*
X155265000Y-100685436D01*
X156735000Y-101139564D02*
X156735000Y-100685436D01*
X128310000Y-74220000D02*
X128310000Y-99740000D01*
X128310000Y-74220000D02*
X136940000Y-74220000D01*
X128310000Y-74340000D02*
X136940000Y-74340000D01*
X128310000Y-74458095D02*
X136940000Y-74458095D01*
X128310000Y-74576190D02*
X136940000Y-74576190D01*
X128310000Y-74694285D02*
X136940000Y-74694285D01*
X128310000Y-74812380D02*
X136940000Y-74812380D01*
X128310000Y-74930475D02*
X136940000Y-74930475D01*
X128310000Y-75048570D02*
X136940000Y-75048570D01*
X128310000Y-75166665D02*
X136940000Y-75166665D01*
X128310000Y-75284760D02*
X136940000Y-75284760D01*
X128310000Y-75402855D02*
X136940000Y-75402855D01*
X128310000Y-75520950D02*
X136940000Y-75520950D01*
X128310000Y-75639045D02*
X136940000Y-75639045D01*
X128310000Y-75757140D02*
X136940000Y-75757140D01*
X128310000Y-75875235D02*
X136940000Y-75875235D01*
X128310000Y-75993330D02*
X136940000Y-75993330D01*
X128310000Y-76111425D02*
X136940000Y-76111425D01*
X128310000Y-76229520D02*
X136940000Y-76229520D01*
X128310000Y-76347615D02*
X136940000Y-76347615D01*
X128310000Y-76465710D02*
X136940000Y-76465710D01*
X128310000Y-76583805D02*
X136940000Y-76583805D01*
X128310000Y-76701900D02*
X136940000Y-76701900D01*
X128310000Y-76820000D02*
X136940000Y-76820000D01*
X128310000Y-79360000D02*
X136940000Y-79360000D01*
X128310000Y-81900000D02*
X136940000Y-81900000D01*
X128310000Y-84440000D02*
X136940000Y-84440000D01*
X128310000Y-86980000D02*
X136940000Y-86980000D01*
X128310000Y-89520000D02*
X136940000Y-89520000D01*
X128310000Y-92060000D02*
X136940000Y-92060000D01*
X128310000Y-94600000D02*
X136940000Y-94600000D01*
X128310000Y-97140000D02*
X136940000Y-97140000D01*
X128310000Y-99740000D02*
X136940000Y-99740000D01*
X136940000Y-74220000D02*
X136940000Y-99740000D01*
X136940000Y-75190000D02*
X137290000Y-75190000D01*
X136940000Y-75910000D02*
X137290000Y-75910000D01*
X136940000Y-77730000D02*
X137350000Y-77730000D01*
X136940000Y-78450000D02*
X137350000Y-78450000D01*
X136940000Y-80270000D02*
X137350000Y-80270000D01*
X136940000Y-80990000D02*
X137350000Y-80990000D01*
X136940000Y-82810000D02*
X137350000Y-82810000D01*
X136940000Y-83530000D02*
X137350000Y-83530000D01*
X136940000Y-85350000D02*
X137350000Y-85350000D01*
X136940000Y-86070000D02*
X137350000Y-86070000D01*
X136940000Y-87890000D02*
X137350000Y-87890000D01*
X136940000Y-88610000D02*
X137350000Y-88610000D01*
X136940000Y-90430000D02*
X137350000Y-90430000D01*
X136940000Y-91150000D02*
X137350000Y-91150000D01*
X136940000Y-92970000D02*
X137350000Y-92970000D01*
X136940000Y-93690000D02*
X137350000Y-93690000D01*
X136940000Y-95510000D02*
X137350000Y-95510000D01*
X136940000Y-96230000D02*
X137350000Y-96230000D01*
X136940000Y-98050000D02*
X137350000Y-98050000D01*
X136940000Y-98770000D02*
X137350000Y-98770000D01*
X138400000Y-74220000D02*
X139510000Y-74220000D01*
X139510000Y-74220000D02*
X139510000Y-75550000D01*
X151440000Y-97562500D02*
X151440000Y-96912500D01*
X151440000Y-97562500D02*
X151440000Y-99237500D01*
X154560000Y-97562500D02*
X154560000Y-96912500D01*
X154560000Y-97562500D02*
X154560000Y-98212500D01*
X149177500Y-101185436D02*
X149177500Y-101639564D01*
X150647500Y-101185436D02*
X150647500Y-101639564D01*
X147727064Y-86765000D02*
X147272936Y-86765000D01*
X147727064Y-88235000D02*
X147272936Y-88235000D01*
X146167685Y-74827256D02*
X146167685Y-78737256D01*
X148037685Y-74827256D02*
X146167685Y-74827256D01*
X148037685Y-78737256D02*
X148037685Y-74827256D01*
X152772936Y-93765000D02*
X153227064Y-93765000D01*
X152772936Y-95235000D02*
X153227064Y-95235000D01*
X146350000Y-93260000D02*
X154410000Y-93260000D01*
X154410000Y-88740000D02*
X146350000Y-88740000D01*
X154410000Y-93260000D02*
X154410000Y-88740000D01*
X153000000Y-99940000D02*
X151325000Y-99940000D01*
X153000000Y-99940000D02*
X153650000Y-99940000D01*
X153000000Y-103060000D02*
X152350000Y-103060000D01*
X153000000Y-103060000D02*
X153650000Y-103060000D01*
X140920000Y-74245000D02*
X142250000Y-74245000D01*
X140920000Y-75575000D02*
X140920000Y-74245000D01*
X140920000Y-76845000D02*
X140920000Y-99765000D01*
X140920000Y-76845000D02*
X143580000Y-76845000D01*
X140920000Y-99765000D02*
X143580000Y-99765000D01*
X143580000Y-76845000D02*
X143580000Y-99765000D01*
X160605000Y-76855000D02*
X161875000Y-76855000D01*
X160605000Y-78125000D02*
X160605000Y-76855000D01*
X162917929Y-80285000D02*
X163315000Y-80285000D01*
X162917929Y-81045000D02*
X163315000Y-81045000D01*
X162917929Y-82825000D02*
X163315000Y-82825000D01*
X162917929Y-83585000D02*
X163315000Y-83585000D01*
X162917929Y-85365000D02*
X163315000Y-85365000D01*
X162917929Y-86125000D02*
X163315000Y-86125000D01*
X162917929Y-87905000D02*
X163315000Y-87905000D01*
X162917929Y-88665000D02*
X163315000Y-88665000D01*
X162917929Y-90445000D02*
X163315000Y-90445000D01*
X162917929Y-91205000D02*
X163315000Y-91205000D01*
X162917929Y-92985000D02*
X163315000Y-92985000D01*
X162917929Y-93745000D02*
X163315000Y-93745000D01*
X162917929Y-95525000D02*
X163315000Y-95525000D01*
X162917929Y-96285000D02*
X163315000Y-96285000D01*
X162985000Y-77745000D02*
X163315000Y-77745000D01*
X162985000Y-78505000D02*
X163315000Y-78505000D01*
X163315000Y-76795000D02*
X163315000Y-97235000D01*
X163315000Y-79395000D02*
X165975000Y-79395000D01*
X163315000Y-81935000D02*
X165975000Y-81935000D01*
X163315000Y-84475000D02*
X165975000Y-84475000D01*
X163315000Y-87015000D02*
X165975000Y-87015000D01*
X163315000Y-89555000D02*
X165975000Y-89555000D01*
X163315000Y-92095000D02*
X165975000Y-92095000D01*
X163315000Y-94635000D02*
X165975000Y-94635000D01*
X163315000Y-97235000D02*
X165975000Y-97235000D01*
X165975000Y-76795000D02*
X163315000Y-76795000D01*
X165975000Y-77745000D02*
X171975000Y-77745000D01*
X165975000Y-77805000D02*
X171975000Y-77805000D01*
X165975000Y-77925000D02*
X171975000Y-77925000D01*
X165975000Y-78045000D02*
X171975000Y-78045000D01*
X165975000Y-78165000D02*
X171975000Y-78165000D01*
X165975000Y-78285000D02*
X171975000Y-78285000D01*
X165975000Y-78405000D02*
X171975000Y-78405000D01*
X165975000Y-80285000D02*
X171975000Y-80285000D01*
X165975000Y-82825000D02*
X171975000Y-82825000D01*
X165975000Y-85365000D02*
X171975000Y-85365000D01*
X165975000Y-87905000D02*
X171975000Y-87905000D01*
X165975000Y-90445000D02*
X171975000Y-90445000D01*
X165975000Y-92985000D02*
X171975000Y-92985000D01*
X165975000Y-95525000D02*
X171975000Y-95525000D01*
X165975000Y-97235000D02*
X165975000Y-76795000D01*
X171975000Y-77745000D02*
X171975000Y-78505000D01*
X171975000Y-78505000D02*
X165975000Y-78505000D01*
X171975000Y-80285000D02*
X171975000Y-81045000D01*
X171975000Y-81045000D02*
X165975000Y-81045000D01*
X171975000Y-82825000D02*
X171975000Y-83585000D01*
X171975000Y-83585000D02*
X165975000Y-83585000D01*
X171975000Y-85365000D02*
X171975000Y-86125000D01*
X171975000Y-86125000D02*
X165975000Y-86125000D01*
X171975000Y-87905000D02*
X171975000Y-88665000D01*
X171975000Y-88665000D02*
X165975000Y-88665000D01*
X171975000Y-90445000D02*
X171975000Y-91205000D01*
X171975000Y-91205000D02*
X165975000Y-91205000D01*
X171975000Y-92985000D02*
X171975000Y-93745000D01*
X171975000Y-93745000D02*
X165975000Y-93745000D01*
X171975000Y-95525000D02*
X171975000Y-96285000D01*
X171975000Y-96285000D02*
X165975000Y-96285000D01*
X146250028Y-79622666D02*
X145600028Y-79622666D01*
X146250028Y-79622666D02*
X146900028Y-79622666D01*
X146250028Y-82742666D02*
X145600028Y-82742666D01*
X146250028Y-82742666D02*
X146900028Y-82742666D01*
X145087528Y-79672666D02*
X144847528Y-79342666D01*
X145327528Y-79342666D01*
X145087528Y-79672666D01*
G36*
X145087528Y-79672666D02*
G01*
X144847528Y-79342666D01*
X145327528Y-79342666D01*
X145087528Y-79672666D01*
G37*
D13*
X148328999Y-76498000D02*
X148328999Y-76498000D01*
X148328999Y-82650000D02*
X148328999Y-76498000D01*
X154170999Y-76498000D02*
X154170999Y-76498000D01*
X154170999Y-82650000D02*
X154170999Y-76498000D01*
D12*
X151727064Y-86765000D02*
X151272936Y-86765000D01*
X151727064Y-88235000D02*
X151272936Y-88235000D01*
X141522936Y-69765000D02*
X141977064Y-69765000D01*
X141522936Y-71235000D02*
X141977064Y-71235000D01*
X155000000Y-94140000D02*
X155000000Y-98150000D01*
X157000000Y-94140000D02*
X155000000Y-94140000D01*
X157000000Y-94140000D02*
X157000000Y-98150000D01*
X149272936Y-93765000D02*
X149727064Y-93765000D01*
X149272936Y-95235000D02*
X149727064Y-95235000D01*
X146227064Y-99765000D02*
X145772936Y-99765000D01*
X146227064Y-101235000D02*
X145772936Y-101235000D01*
%LPC*%
D14*
X147550000Y-98437500D03*
X149450000Y-98437500D03*
X148500000Y-96562500D03*
D15*
X153400000Y-83562500D03*
X151500000Y-83562500D03*
X152450000Y-85437500D03*
D16*
X146437500Y-70500000D03*
X144562500Y-70500000D03*
D17*
X145059864Y-76462500D03*
X145059864Y-78537500D03*
D18*
X149300000Y-85000000D03*
X146000000Y-85000000D03*
D19*
X156000000Y-101825000D03*
X156000000Y-100000000D03*
D20*
X138400000Y-75550000D03*
D21*
X138400000Y-78090000D03*
X138400000Y-80630000D03*
X138400000Y-83170000D03*
X138400000Y-85710000D03*
X138400000Y-88250000D03*
X138400000Y-90790000D03*
X138400000Y-93330000D03*
X138400000Y-95870000D03*
X138400000Y-98410000D03*
D14*
X152050000Y-98500000D03*
X153950000Y-98500000D03*
X153000000Y-96625000D03*
D22*
X149912500Y-100500000D03*
X149912500Y-102325000D03*
D23*
X148412500Y-87500000D03*
X146587500Y-87500000D03*
D24*
X147102685Y-75787256D03*
X147102685Y-78487256D03*
D25*
X152087500Y-94500000D03*
X153912500Y-94500000D03*
D26*
X153112500Y-91000000D03*
X146887500Y-91000000D03*
D27*
X152062500Y-100550000D03*
X152062500Y-102450000D03*
X153937500Y-101500000D03*
D20*
X142250000Y-75575000D03*
D21*
X142250000Y-78115000D03*
X142250000Y-80655000D03*
X142250000Y-83195000D03*
X142250000Y-85735000D03*
X142250000Y-88275000D03*
X142250000Y-90815000D03*
X142250000Y-93355000D03*
X142250000Y-95895000D03*
X142250000Y-98435000D03*
D20*
X161875000Y-78125000D03*
D21*
X161875000Y-80665000D03*
X161875000Y-83205000D03*
X161875000Y-85745000D03*
X161875000Y-88285000D03*
X161875000Y-90825000D03*
X161875000Y-93365000D03*
X161875000Y-95905000D03*
D27*
X145312528Y-80232666D03*
X145312528Y-82132666D03*
X147187528Y-81182666D03*
D28*
X151249999Y-77575000D03*
X151249999Y-81425000D03*
D23*
X152412500Y-87500000D03*
X150587500Y-87500000D03*
D25*
X140837500Y-70500000D03*
X142662500Y-70500000D03*
D29*
X156000000Y-94850000D03*
X156000000Y-98150000D03*
D25*
X148587500Y-94500000D03*
X150412500Y-94500000D03*
D23*
X146912500Y-100500000D03*
X145087500Y-100500000D03*
%LPD*%
M02*
