G04 #@! TF.GenerationSoftware,KiCad,Pcbnew,8.0.3*
G04 #@! TF.CreationDate,2024-07-18T13:22:42+02:00*
G04 #@! TF.ProjectId,vpp-maker-rev6-ian,7670702d-6d61-46b6-9572-2d726576362d,rev?*
G04 #@! TF.SameCoordinates,Original*
G04 #@! TF.FileFunction,Copper,L1,Top*
G04 #@! TF.FilePolarity,Positive*
%FSLAX46Y46*%
G04 Gerber Fmt 4.6, Leading zero omitted, Abs format (unit mm)*
G04 Created by KiCad (PCBNEW 8.0.3) date 2024-07-18 13:22:42*
%MOMM*%
%LPD*%
G01*
G04 APERTURE LIST*
G04 Aperture macros list*
%AMRoundRect*
0 Rectangle with rounded corners*
0 $1 Rounding radius*
0 $2 $3 $4 $5 $6 $7 $8 $9 X,Y pos of 4 corners*
0 Add a 4 corners polygon primitive as box body*
4,1,4,$2,$3,$4,$5,$6,$7,$8,$9,$2,$3,0*
0 Add four circle primitives for the rounded corners*
1,1,$1+$1,$2,$3*
1,1,$1+$1,$4,$5*
1,1,$1+$1,$6,$7*
1,1,$1+$1,$8,$9*
0 Add four rect primitives between the rounded corners*
20,1,$1+$1,$2,$3,$4,$5,0*
20,1,$1+$1,$4,$5,$6,$7,0*
20,1,$1+$1,$6,$7,$8,$9,0*
20,1,$1+$1,$8,$9,$2,$3,0*%
G04 Aperture macros list end*
G04 #@! TA.AperFunction,SMDPad,CuDef*
%ADD10RoundRect,0.150000X0.150000X-0.587500X0.150000X0.587500X-0.150000X0.587500X-0.150000X-0.587500X0*%
G04 #@! TD*
G04 #@! TA.AperFunction,SMDPad,CuDef*
%ADD11RoundRect,0.150000X-0.150000X0.587500X-0.150000X-0.587500X0.150000X-0.587500X0.150000X0.587500X0*%
G04 #@! TD*
G04 #@! TA.AperFunction,SMDPad,CuDef*
%ADD12RoundRect,0.243750X0.243750X0.456250X-0.243750X0.456250X-0.243750X-0.456250X0.243750X-0.456250X0*%
G04 #@! TD*
G04 #@! TA.AperFunction,SMDPad,CuDef*
%ADD13RoundRect,0.250000X-0.475000X0.337500X-0.475000X-0.337500X0.475000X-0.337500X0.475000X0.337500X0*%
G04 #@! TD*
G04 #@! TA.AperFunction,SMDPad,CuDef*
%ADD14RoundRect,0.225000X0.225000X0.375000X-0.225000X0.375000X-0.225000X-0.375000X0.225000X-0.375000X0*%
G04 #@! TD*
G04 #@! TA.AperFunction,SMDPad,CuDef*
%ADD15RoundRect,0.250000X0.450000X-0.262500X0.450000X0.262500X-0.450000X0.262500X-0.450000X-0.262500X0*%
G04 #@! TD*
G04 #@! TA.AperFunction,ComponentPad*
%ADD16R,1.700000X1.700000*%
G04 #@! TD*
G04 #@! TA.AperFunction,ComponentPad*
%ADD17O,1.700000X1.700000*%
G04 #@! TD*
G04 #@! TA.AperFunction,SMDPad,CuDef*
%ADD18RoundRect,0.250000X-0.450000X0.262500X-0.450000X-0.262500X0.450000X-0.262500X0.450000X0.262500X0*%
G04 #@! TD*
G04 #@! TA.AperFunction,SMDPad,CuDef*
%ADD19RoundRect,0.250000X0.262500X0.450000X-0.262500X0.450000X-0.262500X-0.450000X0.262500X-0.450000X0*%
G04 #@! TD*
G04 #@! TA.AperFunction,SMDPad,CuDef*
%ADD20RoundRect,0.250000X-0.425000X0.450000X-0.425000X-0.450000X0.425000X-0.450000X0.425000X0.450000X0*%
G04 #@! TD*
G04 #@! TA.AperFunction,SMDPad,CuDef*
%ADD21RoundRect,0.250000X-0.262500X-0.450000X0.262500X-0.450000X0.262500X0.450000X-0.262500X0.450000X0*%
G04 #@! TD*
G04 #@! TA.AperFunction,SMDPad,CuDef*
%ADD22RoundRect,0.250000X0.787500X1.025000X-0.787500X1.025000X-0.787500X-1.025000X0.787500X-1.025000X0*%
G04 #@! TD*
G04 #@! TA.AperFunction,SMDPad,CuDef*
%ADD23RoundRect,0.150000X-0.587500X-0.150000X0.587500X-0.150000X0.587500X0.150000X-0.587500X0.150000X0*%
G04 #@! TD*
G04 #@! TA.AperFunction,SMDPad,CuDef*
%ADD24R,5.500000X2.150000*%
G04 #@! TD*
G04 #@! TA.AperFunction,SMDPad,CuDef*
%ADD25RoundRect,0.225000X-0.375000X0.225000X-0.375000X-0.225000X0.375000X-0.225000X0.375000X0.225000X0*%
G04 #@! TD*
G04 #@! TA.AperFunction,ViaPad*
%ADD26C,0.800000*%
G04 #@! TD*
G04 #@! TA.AperFunction,Conductor*
%ADD27C,0.609600*%
G04 #@! TD*
G04 #@! TA.AperFunction,Conductor*
%ADD28C,0.250000*%
G04 #@! TD*
G04 #@! TA.AperFunction,Conductor*
%ADD29C,0.406400*%
G04 #@! TD*
G04 APERTURE END LIST*
D10*
X147550000Y-98437500D03*
X149450000Y-98437500D03*
X148500000Y-96562500D03*
D11*
X153400000Y-83562500D03*
X151500000Y-83562500D03*
X152450000Y-85437500D03*
D12*
X146437500Y-70500000D03*
X144562500Y-70500000D03*
D13*
X145059864Y-76462500D03*
X145059864Y-78537500D03*
D14*
X149300000Y-85000000D03*
X146000000Y-85000000D03*
D15*
X156000000Y-101825000D03*
X156000000Y-100000000D03*
D16*
X138400000Y-75550000D03*
D17*
X138400000Y-78090000D03*
X138400000Y-80630000D03*
X138400000Y-83170000D03*
X138400000Y-85710000D03*
X138400000Y-88250000D03*
X138400000Y-90790000D03*
X138400000Y-93330000D03*
X138400000Y-95870000D03*
X138400000Y-98410000D03*
D10*
X152050000Y-98500000D03*
X153950000Y-98500000D03*
X153000000Y-96625000D03*
D18*
X149912500Y-100500000D03*
X149912500Y-102325000D03*
D19*
X148412500Y-87500000D03*
X146587500Y-87500000D03*
D20*
X147102685Y-75787256D03*
X147102685Y-78487256D03*
D21*
X152087500Y-94500000D03*
X153912500Y-94500000D03*
D22*
X153112500Y-91000000D03*
X146887500Y-91000000D03*
D23*
X152062500Y-100550000D03*
X152062500Y-102450000D03*
X153937500Y-101500000D03*
D16*
X142250000Y-75575000D03*
D17*
X142250000Y-78115000D03*
X142250000Y-80655000D03*
X142250000Y-83195000D03*
X142250000Y-85735000D03*
X142250000Y-88275000D03*
X142250000Y-90815000D03*
X142250000Y-93355000D03*
X142250000Y-95895000D03*
X142250000Y-98435000D03*
D16*
X161875000Y-78125000D03*
D17*
X161875000Y-80665000D03*
X161875000Y-83205000D03*
X161875000Y-85745000D03*
X161875000Y-88285000D03*
X161875000Y-90825000D03*
X161875000Y-93365000D03*
X161875000Y-95905000D03*
D23*
X145312528Y-80232666D03*
X145312528Y-82132666D03*
X147187528Y-81182666D03*
D24*
X151249999Y-77575000D03*
X151249999Y-81425000D03*
D19*
X152412500Y-87500000D03*
X150587500Y-87500000D03*
D21*
X140837500Y-70500000D03*
X142662500Y-70500000D03*
D25*
X156000000Y-94850000D03*
X156000000Y-98150000D03*
D21*
X148587500Y-94500000D03*
X150412500Y-94500000D03*
D19*
X146912500Y-100500000D03*
X145087500Y-100500000D03*
D26*
X158000000Y-85000000D03*
X147802879Y-89107323D03*
X158000000Y-87500000D03*
X142500000Y-100500000D03*
X144500000Y-92500000D03*
X148487999Y-98378086D03*
X144500000Y-85000000D03*
X145000000Y-83500000D03*
X155000000Y-76500000D03*
X147211033Y-82234280D03*
X155000000Y-85000000D03*
X139750000Y-102750000D03*
X157852521Y-98206260D03*
X157809565Y-96874608D03*
X138500000Y-100500000D03*
X160500000Y-102000000D03*
X156048347Y-96831652D03*
X155000000Y-82000000D03*
X145000000Y-87500000D03*
X144500000Y-98500000D03*
X150652734Y-98427246D03*
X146500000Y-72000000D03*
X143589797Y-78970067D03*
X151500000Y-92500000D03*
X146000000Y-83500000D03*
X144500000Y-94750000D03*
X147149276Y-79643619D03*
X158000000Y-82000000D03*
X147257739Y-85041391D03*
X155000000Y-87500000D03*
X144500000Y-89000000D03*
X145779149Y-89088231D03*
X149300000Y-86500000D03*
X145000000Y-81000000D03*
D27*
X146464941Y-76500000D02*
X147815429Y-76500000D01*
X146427441Y-76462500D02*
X146464941Y-76500000D01*
X150174999Y-76500000D02*
X151249999Y-77575000D01*
X147815429Y-76500000D02*
X150174999Y-76500000D01*
X147102685Y-75787256D02*
X147815429Y-76500000D01*
X146427441Y-76462500D02*
X147102685Y-75787256D01*
X145059864Y-76462500D02*
X146427441Y-76462500D01*
X144172364Y-75575000D02*
X145059864Y-76462500D01*
X142250000Y-75575000D02*
X144172364Y-75575000D01*
D28*
X142662500Y-70500000D02*
X144562500Y-70500000D01*
X138400000Y-72100000D02*
X140000000Y-70500000D01*
X140000000Y-70500000D02*
X140837500Y-70500000D01*
X138400000Y-75550000D02*
X138400000Y-72100000D01*
D27*
X150075000Y-77575000D02*
X151249999Y-77575000D01*
X147075122Y-75584007D02*
X147158521Y-75500608D01*
X144500000Y-94750000D02*
X144500000Y-92500000D01*
X142250000Y-98435000D02*
X144500000Y-96185000D01*
X144500000Y-96185000D02*
X144500000Y-94750000D01*
X144500000Y-92500000D02*
X144500000Y-89000000D01*
X144500000Y-89000000D02*
X144500000Y-84000000D01*
D29*
X157875000Y-78125000D02*
X156000000Y-80000000D01*
X153950000Y-98500000D02*
X153950000Y-94537500D01*
D28*
X152450000Y-87462500D02*
X152412500Y-87500000D01*
D29*
X161875000Y-78125000D02*
X157875000Y-78125000D01*
X153950000Y-94537500D02*
X153912500Y-94500000D01*
X154262500Y-94850000D02*
X153912500Y-94500000D01*
X152412500Y-90300000D02*
X153112500Y-91000000D01*
X153912500Y-94500000D02*
X153912500Y-91800000D01*
X156000000Y-80000000D02*
X156000000Y-94850000D01*
X152412500Y-87500000D02*
X152412500Y-84975000D01*
X152412500Y-84975000D02*
X152450000Y-84937500D01*
X153912500Y-91800000D02*
X153112500Y-91000000D01*
X152412500Y-87500000D02*
X152412500Y-90300000D01*
X156000000Y-94850000D02*
X154262500Y-94850000D01*
D28*
X142500000Y-101750000D02*
X144250000Y-101750000D01*
X144250000Y-101750000D02*
X145087500Y-100912500D01*
X142250000Y-80655000D02*
X140500000Y-82405000D01*
X140500000Y-99750000D02*
X142500000Y-101750000D01*
X140500000Y-82405000D02*
X140500000Y-99750000D01*
X145087500Y-100912500D02*
X145087500Y-100500000D01*
X141825000Y-102325000D02*
X149912500Y-102325000D01*
X139750000Y-100250000D02*
X141825000Y-102325000D01*
X138400000Y-78090000D02*
X139750000Y-79440000D01*
X139750000Y-79440000D02*
X139750000Y-100250000D01*
X149300000Y-87300000D02*
X149500000Y-87500000D01*
X149500000Y-87500000D02*
X150587500Y-87500000D01*
X149300000Y-86500000D02*
X149300000Y-87300000D01*
X149300000Y-85000000D02*
X149300000Y-86500000D01*
X148412500Y-87500000D02*
X149500000Y-87500000D01*
X145500000Y-80420138D02*
X145312528Y-80232666D01*
X145000000Y-81000000D02*
X145000000Y-80545194D01*
X145000000Y-80545194D02*
X145312528Y-80232666D01*
X145212334Y-80232666D02*
X145312528Y-80232666D01*
D29*
X153926000Y-100000000D02*
X156000000Y-100000000D01*
X153000000Y-99074000D02*
X153926000Y-100000000D01*
X160000000Y-99500000D02*
X160000000Y-81500000D01*
X160000000Y-81500000D02*
X160835000Y-80665000D01*
X160835000Y-80665000D02*
X161875000Y-80665000D01*
X156000000Y-100000000D02*
X159500000Y-100000000D01*
X153000000Y-96625000D02*
X153000000Y-99074000D01*
X159500000Y-100000000D02*
X160000000Y-99500000D01*
X153400000Y-81400000D02*
X153000000Y-81000000D01*
X147187528Y-81182666D02*
X150892334Y-81182666D01*
X153400000Y-83562500D02*
X153400000Y-81400000D01*
X150412500Y-94500000D02*
X152087500Y-94500000D01*
X152087500Y-94500000D02*
X152087500Y-98462500D01*
X152087500Y-98462500D02*
X152050000Y-98500000D01*
D28*
X149912500Y-100500000D02*
X151784371Y-100500000D01*
D29*
X155458787Y-101283787D02*
X156000000Y-101825000D01*
X153825584Y-101283787D02*
X155458787Y-101283787D01*
D28*
X146912500Y-100500000D02*
X146912500Y-100087500D01*
X146912500Y-100087500D02*
X147550000Y-99450000D01*
X147550000Y-99450000D02*
X147550000Y-98437500D01*
D29*
X148500000Y-94587500D02*
X148587500Y-94500000D01*
X148500000Y-96562500D02*
X148500000Y-94587500D01*
G04 #@! TA.AperFunction,Conductor*
G36*
X162506061Y-69251097D02*
G01*
X162516635Y-69252138D01*
X162634069Y-69263704D01*
X162657897Y-69268443D01*
X162775140Y-69304008D01*
X162797589Y-69313308D01*
X162856123Y-69344595D01*
X162905630Y-69371057D01*
X162925840Y-69384561D01*
X163020535Y-69462274D01*
X163037725Y-69479464D01*
X163115438Y-69574159D01*
X163128942Y-69594369D01*
X163186690Y-69702407D01*
X163195992Y-69724864D01*
X163230044Y-69837117D01*
X163231554Y-69842093D01*
X163236296Y-69865935D01*
X163248903Y-69993938D01*
X163249500Y-70006092D01*
X163249500Y-85484691D01*
X163229815Y-85551730D01*
X163177011Y-85597485D01*
X163107853Y-85607429D01*
X163044297Y-85578404D01*
X163006523Y-85519626D01*
X163006234Y-85518625D01*
X162951941Y-85327803D01*
X162951933Y-85327783D01*
X162856940Y-85137010D01*
X162728499Y-84966928D01*
X162570999Y-84823348D01*
X162570997Y-84823346D01*
X162389798Y-84711153D01*
X162389789Y-84711149D01*
X162191063Y-84634163D01*
X162191058Y-84634162D01*
X162125000Y-84621813D01*
X162125000Y-85311988D01*
X162067993Y-85279075D01*
X161940826Y-85245000D01*
X161809174Y-85245000D01*
X161682007Y-85279075D01*
X161625000Y-85311988D01*
X161625000Y-84621813D01*
X161558941Y-84634162D01*
X161558936Y-84634163D01*
X161360210Y-84711149D01*
X161360201Y-84711153D01*
X161179002Y-84823346D01*
X161179000Y-84823348D01*
X161021500Y-84966928D01*
X160893061Y-85137008D01*
X160798067Y-85327781D01*
X160798062Y-85327794D01*
X160750487Y-85494999D01*
X160750488Y-85495000D01*
X161441988Y-85495000D01*
X161409075Y-85552007D01*
X161375000Y-85679174D01*
X161375000Y-85810826D01*
X161409075Y-85937993D01*
X161441988Y-85995000D01*
X160750488Y-85995000D01*
X160798062Y-86162205D01*
X160798067Y-86162218D01*
X160893061Y-86352991D01*
X161021500Y-86523071D01*
X161179000Y-86666651D01*
X161179002Y-86666653D01*
X161360201Y-86778846D01*
X161360207Y-86778849D01*
X161558941Y-86855838D01*
X161625000Y-86868186D01*
X161625000Y-86178012D01*
X161682007Y-86210925D01*
X161809174Y-86245000D01*
X161940826Y-86245000D01*
X162067993Y-86210925D01*
X162125000Y-86178012D01*
X162125000Y-86868185D01*
X162191058Y-86855838D01*
X162389792Y-86778849D01*
X162389798Y-86778846D01*
X162570997Y-86666653D01*
X162570999Y-86666651D01*
X162728499Y-86523071D01*
X162856940Y-86352989D01*
X162951933Y-86162216D01*
X162951937Y-86162206D01*
X163006233Y-85971374D01*
X163043513Y-85912281D01*
X163106822Y-85882723D01*
X163176062Y-85892085D01*
X163229248Y-85937394D01*
X163249496Y-86004266D01*
X163249500Y-86005308D01*
X163249500Y-103993907D01*
X163248903Y-104006061D01*
X163236296Y-104134064D01*
X163231554Y-104157906D01*
X163195993Y-104275134D01*
X163186690Y-104297592D01*
X163128942Y-104405630D01*
X163115438Y-104425840D01*
X163037725Y-104520535D01*
X163020535Y-104537725D01*
X162925840Y-104615438D01*
X162905630Y-104628942D01*
X162797592Y-104686690D01*
X162775134Y-104695993D01*
X162657906Y-104731554D01*
X162634064Y-104736296D01*
X162506062Y-104748903D01*
X162493908Y-104749500D01*
X138006092Y-104749500D01*
X137993938Y-104748903D01*
X137865935Y-104736296D01*
X137842095Y-104731554D01*
X137724864Y-104695992D01*
X137702407Y-104686690D01*
X137594369Y-104628942D01*
X137574159Y-104615438D01*
X137479464Y-104537725D01*
X137462274Y-104520535D01*
X137384561Y-104425840D01*
X137371057Y-104405630D01*
X137313309Y-104297592D01*
X137304008Y-104275140D01*
X137268443Y-104157897D01*
X137263704Y-104134069D01*
X137251097Y-104006060D01*
X137250500Y-103993907D01*
X137250500Y-99166069D01*
X137270185Y-99099030D01*
X137322989Y-99053275D01*
X137392147Y-99043331D01*
X137455703Y-99072356D01*
X137473454Y-99091342D01*
X137546500Y-99188071D01*
X137704000Y-99331651D01*
X137704002Y-99331653D01*
X137885201Y-99443846D01*
X137885207Y-99443849D01*
X138083941Y-99520838D01*
X138150000Y-99533186D01*
X138150000Y-98843012D01*
X138207007Y-98875925D01*
X138334174Y-98910000D01*
X138465826Y-98910000D01*
X138592993Y-98875925D01*
X138650000Y-98843012D01*
X138650000Y-99533185D01*
X138716058Y-99520838D01*
X138914792Y-99443849D01*
X138914798Y-99443846D01*
X139095995Y-99331654D01*
X139216961Y-99221379D01*
X139279765Y-99190762D01*
X139349152Y-99198959D01*
X139403093Y-99243369D01*
X139424461Y-99309891D01*
X139424500Y-99313016D01*
X139424500Y-100292852D01*
X139446682Y-100375640D01*
X139450356Y-100382003D01*
X139489535Y-100449862D01*
X141625138Y-102585465D01*
X141699361Y-102628318D01*
X141782147Y-102650500D01*
X141867853Y-102650500D01*
X148919278Y-102650500D01*
X148986317Y-102670185D01*
X149032072Y-102722989D01*
X149036319Y-102733544D01*
X149059707Y-102800382D01*
X149140350Y-102909650D01*
X149249618Y-102990293D01*
X149292345Y-103005244D01*
X149377799Y-103035146D01*
X149408230Y-103038000D01*
X149408234Y-103038000D01*
X150416770Y-103038000D01*
X150447199Y-103035146D01*
X150447201Y-103035146D01*
X150511290Y-103012719D01*
X150575382Y-102990293D01*
X150684650Y-102909650D01*
X150765293Y-102800382D01*
X150792374Y-102722989D01*
X150810146Y-102672201D01*
X150810146Y-102672199D01*
X150813000Y-102641769D01*
X150813000Y-102008230D01*
X150810146Y-101977800D01*
X150810146Y-101977798D01*
X150776506Y-101881663D01*
X150765293Y-101849618D01*
X150684650Y-101740350D01*
X150575382Y-101659707D01*
X150575380Y-101659706D01*
X150447200Y-101614853D01*
X150416770Y-101612000D01*
X150416766Y-101612000D01*
X149408234Y-101612000D01*
X149408230Y-101612000D01*
X149377800Y-101614853D01*
X149377798Y-101614853D01*
X149249619Y-101659706D01*
X149249617Y-101659707D01*
X149140350Y-101740350D01*
X149059707Y-101849617D01*
X149036319Y-101916456D01*
X148995597Y-101973232D01*
X148930644Y-101998978D01*
X148919278Y-101999500D01*
X144760189Y-101999500D01*
X144693150Y-101979815D01*
X144647395Y-101927011D01*
X144637451Y-101857853D01*
X144666476Y-101794297D01*
X144672508Y-101787819D01*
X145023508Y-101436819D01*
X145084831Y-101403334D01*
X145111189Y-101400500D01*
X145404270Y-101400500D01*
X145434699Y-101397646D01*
X145434701Y-101397646D01*
X145498790Y-101375219D01*
X145562882Y-101352793D01*
X145672150Y-101272150D01*
X145752793Y-101162882D01*
X145777485Y-101092315D01*
X145797646Y-101034701D01*
X145797646Y-101034699D01*
X145800500Y-101004269D01*
X145800500Y-99995730D01*
X146199500Y-99995730D01*
X146199500Y-101004269D01*
X146202353Y-101034699D01*
X146202353Y-101034701D01*
X146246096Y-101159707D01*
X146247207Y-101162882D01*
X146327850Y-101272150D01*
X146437118Y-101352793D01*
X146479845Y-101367744D01*
X146565299Y-101397646D01*
X146595730Y-101400500D01*
X146595734Y-101400500D01*
X147229270Y-101400500D01*
X147259699Y-101397646D01*
X147259701Y-101397646D01*
X147323790Y-101375219D01*
X147387882Y-101352793D01*
X147497150Y-101272150D01*
X147577793Y-101162882D01*
X147602485Y-101092315D01*
X147622646Y-101034701D01*
X147622646Y-101034699D01*
X147625500Y-101004269D01*
X147625500Y-100183230D01*
X149012000Y-100183230D01*
X149012000Y-100816769D01*
X149014853Y-100847199D01*
X149014853Y-100847201D01*
X149059706Y-100975380D01*
X149059707Y-100975382D01*
X149140350Y-101084650D01*
X149249618Y-101165293D01*
X149292345Y-101180244D01*
X149377799Y-101210146D01*
X149408230Y-101213000D01*
X149408234Y-101213000D01*
X150416770Y-101213000D01*
X150447199Y-101210146D01*
X150447201Y-101210146D01*
X150520974Y-101184331D01*
X150575382Y-101165293D01*
X150684650Y-101084650D01*
X150765293Y-100975382D01*
X150788681Y-100908544D01*
X150829403Y-100851768D01*
X150894356Y-100826022D01*
X150905722Y-100825500D01*
X151068807Y-100825500D01*
X151135846Y-100845185D01*
X151180207Y-100895039D01*
X151185802Y-100906484D01*
X151268514Y-100989196D01*
X151268515Y-100989196D01*
X151268517Y-100989198D01*
X151373607Y-101040573D01*
X151407673Y-101045536D01*
X151441739Y-101050500D01*
X151441740Y-101050500D01*
X152683261Y-101050500D01*
X152705971Y-101047191D01*
X152751393Y-101040573D01*
X152856483Y-100989198D01*
X152939198Y-100906483D01*
X152990573Y-100801393D01*
X153000500Y-100733260D01*
X153000500Y-100366740D01*
X152990573Y-100298607D01*
X152939198Y-100193517D01*
X152939196Y-100193515D01*
X152939196Y-100193514D01*
X152856485Y-100110803D01*
X152751391Y-100059426D01*
X152683261Y-100049500D01*
X152683260Y-100049500D01*
X151441740Y-100049500D01*
X151441739Y-100049500D01*
X151373608Y-100059426D01*
X151268514Y-100110803D01*
X151241137Y-100138181D01*
X151179814Y-100171666D01*
X151153456Y-100174500D01*
X150905722Y-100174500D01*
X150838683Y-100154815D01*
X150792928Y-100102011D01*
X150788681Y-100091456D01*
X150777473Y-100059426D01*
X150765293Y-100024618D01*
X150684650Y-99915350D01*
X150575382Y-99834707D01*
X150575380Y-99834706D01*
X150447200Y-99789853D01*
X150416770Y-99787000D01*
X150416766Y-99787000D01*
X149408234Y-99787000D01*
X149408230Y-99787000D01*
X149377800Y-99789853D01*
X149377798Y-99789853D01*
X149249619Y-99834706D01*
X149249617Y-99834707D01*
X149140350Y-99915350D01*
X149059707Y-100024617D01*
X149059706Y-100024619D01*
X149014853Y-100152798D01*
X149014853Y-100152800D01*
X149012000Y-100183230D01*
X147625500Y-100183230D01*
X147625500Y-99995730D01*
X147622646Y-99965301D01*
X147615299Y-99944304D01*
X147611736Y-99874525D01*
X147644657Y-99815668D01*
X147810465Y-99649862D01*
X147853318Y-99575639D01*
X147875500Y-99492853D01*
X147875500Y-99407147D01*
X147875500Y-99396543D01*
X147895185Y-99329504D01*
X147911814Y-99308866D01*
X147989198Y-99231483D01*
X148040573Y-99126393D01*
X148050500Y-99058260D01*
X148050500Y-97816740D01*
X148049679Y-97811108D01*
X148040573Y-97748608D01*
X148019752Y-97706017D01*
X147989198Y-97643517D01*
X147989196Y-97643515D01*
X147989196Y-97643514D01*
X147906485Y-97560803D01*
X147801391Y-97509426D01*
X147733261Y-97499500D01*
X147733260Y-97499500D01*
X147366740Y-97499500D01*
X147366739Y-97499500D01*
X147298608Y-97509426D01*
X147193514Y-97560803D01*
X147110803Y-97643514D01*
X147059426Y-97748608D01*
X147049500Y-97816739D01*
X147049500Y-99058260D01*
X147059426Y-99126391D01*
X147059427Y-99126393D01*
X147109990Y-99229823D01*
X147110803Y-99231485D01*
X147121814Y-99242496D01*
X147155299Y-99303819D01*
X147150315Y-99373511D01*
X147121816Y-99417856D01*
X146976490Y-99563182D01*
X146915170Y-99596666D01*
X146888811Y-99599500D01*
X146595730Y-99599500D01*
X146565300Y-99602353D01*
X146565298Y-99602353D01*
X146437119Y-99647206D01*
X146437117Y-99647207D01*
X146327850Y-99727850D01*
X146247207Y-99837117D01*
X146247206Y-99837119D01*
X146202353Y-99965298D01*
X146202353Y-99965300D01*
X146199500Y-99995730D01*
X145800500Y-99995730D01*
X145797646Y-99965300D01*
X145797646Y-99965298D01*
X145752793Y-99837119D01*
X145752792Y-99837117D01*
X145672150Y-99727850D01*
X145562882Y-99647207D01*
X145562880Y-99647206D01*
X145434700Y-99602353D01*
X145404270Y-99599500D01*
X145404266Y-99599500D01*
X144770734Y-99599500D01*
X144770730Y-99599500D01*
X144740300Y-99602353D01*
X144740298Y-99602353D01*
X144612119Y-99647206D01*
X144612117Y-99647207D01*
X144502850Y-99727850D01*
X144422207Y-99837117D01*
X144422206Y-99837119D01*
X144377353Y-99965298D01*
X144377353Y-99965300D01*
X144374500Y-99995730D01*
X144374500Y-101004269D01*
X144377353Y-101034694D01*
X144377353Y-101034698D01*
X144384701Y-101055696D01*
X144388262Y-101125475D01*
X144355340Y-101184331D01*
X144151490Y-101388182D01*
X144090170Y-101421666D01*
X144063811Y-101424500D01*
X142686189Y-101424500D01*
X142619150Y-101404815D01*
X142598508Y-101388181D01*
X140861819Y-99651492D01*
X140828334Y-99590169D01*
X140825500Y-99563811D01*
X140825500Y-98184999D01*
X141125487Y-98184999D01*
X141125488Y-98185000D01*
X141816988Y-98185000D01*
X141784075Y-98242007D01*
X141750000Y-98369174D01*
X141750000Y-98500826D01*
X141784075Y-98627993D01*
X141816988Y-98685000D01*
X141125488Y-98685000D01*
X141173062Y-98852205D01*
X141173067Y-98852218D01*
X141268061Y-99042991D01*
X141396500Y-99213071D01*
X141554000Y-99356651D01*
X141554002Y-99356653D01*
X141735201Y-99468846D01*
X141735207Y-99468849D01*
X141933941Y-99545838D01*
X142000000Y-99558186D01*
X142000000Y-98868012D01*
X142057007Y-98900925D01*
X142184174Y-98935000D01*
X142315826Y-98935000D01*
X142442993Y-98900925D01*
X142500000Y-98868012D01*
X142500000Y-99558185D01*
X142566058Y-99545838D01*
X142764792Y-99468849D01*
X142764798Y-99468846D01*
X142945997Y-99356653D01*
X142945999Y-99356651D01*
X143103499Y-99213071D01*
X143231938Y-99042991D01*
X143326932Y-98852218D01*
X143326937Y-98852205D01*
X143374512Y-98685000D01*
X142683012Y-98685000D01*
X142715925Y-98627993D01*
X142750000Y-98500826D01*
X142750000Y-98369174D01*
X142715925Y-98242007D01*
X142683012Y-98185000D01*
X143374512Y-98185000D01*
X143374512Y-98184999D01*
X143326937Y-98017794D01*
X143326932Y-98017781D01*
X143231938Y-97827008D01*
X143103499Y-97656928D01*
X142945999Y-97513348D01*
X142945997Y-97513346D01*
X142764798Y-97401153D01*
X142764789Y-97401149D01*
X142566063Y-97324163D01*
X142566058Y-97324162D01*
X142500000Y-97311813D01*
X142500000Y-98001988D01*
X142442993Y-97969075D01*
X142315826Y-97935000D01*
X142184174Y-97935000D01*
X142057007Y-97969075D01*
X142000000Y-98001988D01*
X142000000Y-97311813D01*
X141933941Y-97324162D01*
X141933936Y-97324163D01*
X141735210Y-97401149D01*
X141735201Y-97401153D01*
X141554002Y-97513346D01*
X141554000Y-97513348D01*
X141396500Y-97656928D01*
X141268061Y-97827008D01*
X141173067Y-98017781D01*
X141173062Y-98017794D01*
X141125487Y-98184999D01*
X140825500Y-98184999D01*
X140825500Y-95895000D01*
X141194417Y-95895000D01*
X141214699Y-96100932D01*
X141217733Y-96110934D01*
X141274768Y-96298954D01*
X141372315Y-96481450D01*
X141391021Y-96504243D01*
X141503589Y-96641410D01*
X141600209Y-96720702D01*
X141663550Y-96772685D01*
X141846046Y-96870232D01*
X142044066Y-96930300D01*
X142044065Y-96930300D01*
X142062529Y-96932118D01*
X142250000Y-96950583D01*
X142455934Y-96930300D01*
X142653954Y-96870232D01*
X142836450Y-96772685D01*
X142996410Y-96641410D01*
X143127685Y-96481450D01*
X143225232Y-96298954D01*
X143285300Y-96100934D01*
X143305583Y-95895000D01*
X143285300Y-95689066D01*
X143225232Y-95491046D01*
X143127685Y-95308550D01*
X143062138Y-95228680D01*
X142996410Y-95148589D01*
X142857635Y-95034701D01*
X142836450Y-95017315D01*
X142653954Y-94919768D01*
X142455934Y-94859700D01*
X142455932Y-94859699D01*
X142455934Y-94859699D01*
X142250000Y-94839417D01*
X142044067Y-94859699D01*
X141846043Y-94919769D01*
X141787211Y-94951216D01*
X141663550Y-95017315D01*
X141663548Y-95017316D01*
X141663547Y-95017317D01*
X141503589Y-95148589D01*
X141381758Y-95297043D01*
X141372315Y-95308550D01*
X141345032Y-95359593D01*
X141274769Y-95491043D01*
X141274768Y-95491045D01*
X141274768Y-95491046D01*
X141271735Y-95501046D01*
X141214699Y-95689067D01*
X141194417Y-95895000D01*
X140825500Y-95895000D01*
X140825500Y-93355000D01*
X141194417Y-93355000D01*
X141214699Y-93560932D01*
X141239968Y-93644231D01*
X141274768Y-93758954D01*
X141372315Y-93941450D01*
X141391888Y-93965300D01*
X141503589Y-94101410D01*
X141533632Y-94126065D01*
X141663550Y-94232685D01*
X141846046Y-94330232D01*
X142044066Y-94390300D01*
X142044065Y-94390300D01*
X142062529Y-94392118D01*
X142250000Y-94410583D01*
X142455934Y-94390300D01*
X142653954Y-94330232D01*
X142836450Y-94232685D01*
X142996410Y-94101410D01*
X143083139Y-93995730D01*
X147874500Y-93995730D01*
X147874500Y-95004269D01*
X147877353Y-95034699D01*
X147877353Y-95034701D01*
X147920705Y-95158590D01*
X147922207Y-95162882D01*
X148002850Y-95272150D01*
X148002853Y-95272152D01*
X148002855Y-95272154D01*
X148045932Y-95303946D01*
X148088184Y-95359593D01*
X148096300Y-95403717D01*
X148096300Y-95681656D01*
X148076615Y-95748695D01*
X148062042Y-95766779D01*
X148060804Y-95768513D01*
X148009426Y-95873608D01*
X147999500Y-95941739D01*
X147999500Y-97183260D01*
X148009426Y-97251391D01*
X148060803Y-97356485D01*
X148143514Y-97439196D01*
X148143515Y-97439196D01*
X148143517Y-97439198D01*
X148248607Y-97490573D01*
X148282673Y-97495536D01*
X148316739Y-97500500D01*
X148316740Y-97500500D01*
X148683261Y-97500500D01*
X148705971Y-97497191D01*
X148751393Y-97490573D01*
X148856483Y-97439198D01*
X148939198Y-97356483D01*
X148990573Y-97251393D01*
X149000500Y-97183260D01*
X149000500Y-95941740D01*
X148990573Y-95873607D01*
X148939198Y-95768517D01*
X148939195Y-95768514D01*
X148939195Y-95768513D01*
X148933227Y-95760153D01*
X148934505Y-95759240D01*
X148906534Y-95708014D01*
X148903700Y-95681656D01*
X148903700Y-95496475D01*
X148923385Y-95429436D01*
X148976189Y-95383681D01*
X148986726Y-95379440D01*
X149062882Y-95352793D01*
X149172150Y-95272150D01*
X149252793Y-95162882D01*
X149297645Y-95034703D01*
X149297646Y-95034701D01*
X149297646Y-95034699D01*
X149300500Y-95004269D01*
X149300500Y-93995730D01*
X149699500Y-93995730D01*
X149699500Y-95004269D01*
X149702353Y-95034699D01*
X149702353Y-95034701D01*
X149745705Y-95158590D01*
X149747207Y-95162882D01*
X149827850Y-95272150D01*
X149937118Y-95352793D01*
X149963253Y-95361938D01*
X150065299Y-95397646D01*
X150095730Y-95400500D01*
X150095734Y-95400500D01*
X150729270Y-95400500D01*
X150759699Y-95397646D01*
X150759701Y-95397646D01*
X150828479Y-95373579D01*
X150887882Y-95352793D01*
X150997150Y-95272150D01*
X151077793Y-95162882D01*
X151122646Y-95034699D01*
X151124388Y-95016122D01*
X151150244Y-94951216D01*
X151207088Y-94910590D01*
X151247846Y-94903700D01*
X151252154Y-94903700D01*
X151319193Y-94923385D01*
X151364948Y-94976189D01*
X151375611Y-95016120D01*
X151376662Y-95027315D01*
X151377354Y-95034703D01*
X151420705Y-95158590D01*
X151422207Y-95162882D01*
X151502850Y-95272150D01*
X151612118Y-95352793D01*
X151612125Y-95352795D01*
X151617741Y-95355764D01*
X151667814Y-95404493D01*
X151683800Y-95465395D01*
X151683800Y-97581656D01*
X151664115Y-97648695D01*
X151647481Y-97669337D01*
X151610803Y-97706014D01*
X151559426Y-97811108D01*
X151549500Y-97879239D01*
X151549500Y-99120760D01*
X151559426Y-99188891D01*
X151610803Y-99293985D01*
X151693514Y-99376696D01*
X151693515Y-99376696D01*
X151693517Y-99376698D01*
X151798607Y-99428073D01*
X151832673Y-99433036D01*
X151866739Y-99438000D01*
X151866740Y-99438000D01*
X152233261Y-99438000D01*
X152255971Y-99434691D01*
X152301393Y-99428073D01*
X152406483Y-99376698D01*
X152483756Y-99299424D01*
X152545077Y-99265941D01*
X152614769Y-99270925D01*
X152670703Y-99312796D01*
X152675066Y-99319410D01*
X152676961Y-99321880D01*
X152759187Y-99404106D01*
X152759193Y-99404111D01*
X153598618Y-100243536D01*
X153598628Y-100243547D01*
X153602958Y-100247877D01*
X153602959Y-100247878D01*
X153678122Y-100323041D01*
X153770177Y-100376189D01*
X153770181Y-100376190D01*
X153770185Y-100376192D01*
X153791859Y-100381998D01*
X153791864Y-100381999D01*
X153791875Y-100382002D01*
X153872852Y-100403701D01*
X153872853Y-100403701D01*
X153986744Y-100403701D01*
X153986760Y-100403700D01*
X155034605Y-100403700D01*
X155101644Y-100423385D01*
X155144236Y-100469759D01*
X155147205Y-100475376D01*
X155147207Y-100475382D01*
X155227850Y-100584650D01*
X155324956Y-100656317D01*
X155367206Y-100711964D01*
X155372665Y-100781621D01*
X155339597Y-100843170D01*
X155278503Y-100877071D01*
X155251322Y-100880087D01*
X153772436Y-100880087D01*
X153669761Y-100907598D01*
X153669759Y-100907599D01*
X153669758Y-100907599D01*
X153577709Y-100960744D01*
X153577703Y-100960748D01*
X153575271Y-100963181D01*
X153572714Y-100964577D01*
X153571260Y-100965693D01*
X153571085Y-100965466D01*
X153513948Y-100996666D01*
X153487590Y-100999500D01*
X153316739Y-100999500D01*
X153248608Y-101009426D01*
X153143514Y-101060803D01*
X153060803Y-101143514D01*
X153009426Y-101248608D01*
X152999500Y-101316739D01*
X152999500Y-101683260D01*
X153009426Y-101751391D01*
X153060803Y-101856485D01*
X153143514Y-101939196D01*
X153143515Y-101939196D01*
X153143517Y-101939198D01*
X153248607Y-101990573D01*
X153282673Y-101995536D01*
X153316739Y-102000500D01*
X153316740Y-102000500D01*
X154558261Y-102000500D01*
X154580971Y-101997191D01*
X154626393Y-101990573D01*
X154731483Y-101939198D01*
X154814198Y-101856483D01*
X154847766Y-101787819D01*
X154862820Y-101757026D01*
X154909948Y-101705444D01*
X154974220Y-101687487D01*
X154975500Y-101687487D01*
X155042539Y-101707172D01*
X155088294Y-101759976D01*
X155099500Y-101811487D01*
X155099500Y-102141769D01*
X155102353Y-102172199D01*
X155102353Y-102172201D01*
X155147206Y-102300380D01*
X155147207Y-102300382D01*
X155227850Y-102409650D01*
X155337118Y-102490293D01*
X155379845Y-102505244D01*
X155465299Y-102535146D01*
X155495730Y-102538000D01*
X155495734Y-102538000D01*
X156504270Y-102538000D01*
X156534699Y-102535146D01*
X156534701Y-102535146D01*
X156598790Y-102512719D01*
X156662882Y-102490293D01*
X156772150Y-102409650D01*
X156852793Y-102300382D01*
X156875219Y-102236290D01*
X156897646Y-102172201D01*
X156897646Y-102172199D01*
X156900500Y-102141769D01*
X156900500Y-101508230D01*
X156897646Y-101477800D01*
X156897646Y-101477798D01*
X156853904Y-101352793D01*
X156852793Y-101349618D01*
X156772150Y-101240350D01*
X156662882Y-101159707D01*
X156662880Y-101159706D01*
X156534700Y-101114853D01*
X156504270Y-101112000D01*
X156504266Y-101112000D01*
X155909280Y-101112000D01*
X155842241Y-101092315D01*
X155821599Y-101075681D01*
X155788898Y-101042980D01*
X155788896Y-101042977D01*
X155706667Y-100960748D01*
X155706665Y-100960746D01*
X155678329Y-100944386D01*
X155630115Y-100893821D01*
X155616891Y-100825214D01*
X155642859Y-100760349D01*
X155699773Y-100719820D01*
X155740330Y-100713000D01*
X156504270Y-100713000D01*
X156534699Y-100710146D01*
X156534701Y-100710146D01*
X156598790Y-100687719D01*
X156662882Y-100665293D01*
X156772150Y-100584650D01*
X156852793Y-100475382D01*
X156852796Y-100475371D01*
X156855764Y-100469759D01*
X156904493Y-100419686D01*
X156965395Y-100403700D01*
X159439240Y-100403700D01*
X159439256Y-100403701D01*
X159446852Y-100403701D01*
X159553148Y-100403701D01*
X159634124Y-100382002D01*
X159634124Y-100382003D01*
X159634129Y-100382000D01*
X159655823Y-100376189D01*
X159747878Y-100323041D01*
X159823041Y-100247878D01*
X159823041Y-100247876D01*
X159833245Y-100237673D01*
X159833249Y-100237668D01*
X160237668Y-99833249D01*
X160237673Y-99833245D01*
X160247876Y-99823041D01*
X160247878Y-99823041D01*
X160323041Y-99747878D01*
X160376189Y-99655823D01*
X160384619Y-99624361D01*
X160403701Y-99553148D01*
X160403701Y-99446852D01*
X160403701Y-99439257D01*
X160403700Y-99439239D01*
X160403700Y-95905000D01*
X160819417Y-95905000D01*
X160839699Y-96110932D01*
X160839700Y-96110934D01*
X160899768Y-96308954D01*
X160997315Y-96491450D01*
X161031969Y-96533677D01*
X161128589Y-96651410D01*
X161225209Y-96730702D01*
X161288550Y-96782685D01*
X161471046Y-96880232D01*
X161669066Y-96940300D01*
X161669065Y-96940300D01*
X161687529Y-96942118D01*
X161875000Y-96960583D01*
X162080934Y-96940300D01*
X162278954Y-96880232D01*
X162461450Y-96782685D01*
X162621410Y-96651410D01*
X162752685Y-96491450D01*
X162850232Y-96308954D01*
X162910300Y-96110934D01*
X162930583Y-95905000D01*
X162910300Y-95699066D01*
X162850232Y-95501046D01*
X162752685Y-95318550D01*
X162662059Y-95208121D01*
X162621410Y-95158589D01*
X162461452Y-95027317D01*
X162461453Y-95027317D01*
X162461450Y-95027315D01*
X162278954Y-94929768D01*
X162080934Y-94869700D01*
X162080932Y-94869699D01*
X162080934Y-94869699D01*
X161875000Y-94849417D01*
X161669067Y-94869699D01*
X161471043Y-94929769D01*
X161384199Y-94976189D01*
X161288550Y-95027315D01*
X161288548Y-95027316D01*
X161288547Y-95027317D01*
X161128589Y-95158589D01*
X160997317Y-95318547D01*
X160997315Y-95318550D01*
X160972619Y-95364753D01*
X160899769Y-95501043D01*
X160839699Y-95699067D01*
X160819417Y-95905000D01*
X160403700Y-95905000D01*
X160403700Y-93365000D01*
X160819417Y-93365000D01*
X160839699Y-93570932D01*
X160862837Y-93647207D01*
X160899768Y-93768954D01*
X160997315Y-93951450D01*
X161023925Y-93983875D01*
X161128589Y-94111410D01*
X161187644Y-94159874D01*
X161288550Y-94242685D01*
X161471046Y-94340232D01*
X161669066Y-94400300D01*
X161669065Y-94400300D01*
X161687529Y-94402118D01*
X161875000Y-94420583D01*
X162080934Y-94400300D01*
X162278954Y-94340232D01*
X162461450Y-94242685D01*
X162621410Y-94111410D01*
X162752685Y-93951450D01*
X162850232Y-93768954D01*
X162910300Y-93570934D01*
X162930583Y-93365000D01*
X162910300Y-93159066D01*
X162850232Y-92961046D01*
X162752685Y-92778550D01*
X162663272Y-92669599D01*
X162621410Y-92618589D01*
X162503677Y-92521969D01*
X162461450Y-92487315D01*
X162278954Y-92389768D01*
X162080934Y-92329700D01*
X162080932Y-92329699D01*
X162080934Y-92329699D01*
X161875000Y-92309417D01*
X161669067Y-92329699D01*
X161471043Y-92389769D01*
X161360898Y-92448643D01*
X161288550Y-92487315D01*
X161288548Y-92487316D01*
X161288547Y-92487317D01*
X161128589Y-92618589D01*
X160997317Y-92778547D01*
X160899769Y-92961043D01*
X160839699Y-93159067D01*
X160819417Y-93365000D01*
X160403700Y-93365000D01*
X160403700Y-90825000D01*
X160819417Y-90825000D01*
X160839699Y-91030932D01*
X160839700Y-91030934D01*
X160899768Y-91228954D01*
X160997315Y-91411450D01*
X161031969Y-91453677D01*
X161128589Y-91571410D01*
X161225209Y-91650702D01*
X161288550Y-91702685D01*
X161471046Y-91800232D01*
X161669066Y-91860300D01*
X161669065Y-91860300D01*
X161687529Y-91862118D01*
X161875000Y-91880583D01*
X162080934Y-91860300D01*
X162278954Y-91800232D01*
X162461450Y-91702685D01*
X162621410Y-91571410D01*
X162752685Y-91411450D01*
X162850232Y-91228954D01*
X162910300Y-91030934D01*
X162930583Y-90825000D01*
X162910300Y-90619066D01*
X162850232Y-90421046D01*
X162752685Y-90238550D01*
X162663272Y-90129599D01*
X162621410Y-90078589D01*
X162461452Y-89947317D01*
X162461453Y-89947317D01*
X162461450Y-89947315D01*
X162278954Y-89849768D01*
X162080934Y-89789700D01*
X162080932Y-89789699D01*
X162080934Y-89789699D01*
X161875000Y-89769417D01*
X161669067Y-89789699D01*
X161471043Y-89849769D01*
X161360898Y-89908643D01*
X161288550Y-89947315D01*
X161288548Y-89947316D01*
X161288547Y-89947317D01*
X161128589Y-90078589D01*
X160997317Y-90238547D01*
X160899769Y-90421043D01*
X160839699Y-90619067D01*
X160819417Y-90825000D01*
X160403700Y-90825000D01*
X160403700Y-88285000D01*
X160819417Y-88285000D01*
X160839699Y-88490932D01*
X160839700Y-88490934D01*
X160899768Y-88688954D01*
X160997315Y-88871450D01*
X161031969Y-88913677D01*
X161128589Y-89031410D01*
X161225209Y-89110702D01*
X161288550Y-89162685D01*
X161471046Y-89260232D01*
X161669066Y-89320300D01*
X161669065Y-89320300D01*
X161687529Y-89322118D01*
X161875000Y-89340583D01*
X162080934Y-89320300D01*
X162278954Y-89260232D01*
X162461450Y-89162685D01*
X162621410Y-89031410D01*
X162752685Y-88871450D01*
X162850232Y-88688954D01*
X162910300Y-88490934D01*
X162930583Y-88285000D01*
X162910300Y-88079066D01*
X162850232Y-87881046D01*
X162752685Y-87698550D01*
X162663272Y-87589599D01*
X162621410Y-87538589D01*
X162461452Y-87407317D01*
X162461453Y-87407317D01*
X162461450Y-87407315D01*
X162278954Y-87309768D01*
X162080934Y-87249700D01*
X162080932Y-87249699D01*
X162080934Y-87249699D01*
X161875000Y-87229417D01*
X161669067Y-87249699D01*
X161471043Y-87309769D01*
X161360898Y-87368643D01*
X161288550Y-87407315D01*
X161288548Y-87407316D01*
X161288547Y-87407317D01*
X161128589Y-87538589D01*
X160997317Y-87698547D01*
X160899769Y-87881043D01*
X160839699Y-88079067D01*
X160819417Y-88285000D01*
X160403700Y-88285000D01*
X160403700Y-83205000D01*
X160819417Y-83205000D01*
X160839699Y-83410932D01*
X160839700Y-83410934D01*
X160899768Y-83608954D01*
X160997315Y-83791450D01*
X161031969Y-83833677D01*
X161128589Y-83951410D01*
X161225209Y-84030702D01*
X161288550Y-84082685D01*
X161471046Y-84180232D01*
X161669066Y-84240300D01*
X161669065Y-84240300D01*
X161687529Y-84242118D01*
X161875000Y-84260583D01*
X162080934Y-84240300D01*
X162278954Y-84180232D01*
X162461450Y-84082685D01*
X162621410Y-83951410D01*
X162752685Y-83791450D01*
X162850232Y-83608954D01*
X162910300Y-83410934D01*
X162930583Y-83205000D01*
X162910300Y-82999066D01*
X162850232Y-82801046D01*
X162752685Y-82618550D01*
X162671604Y-82519752D01*
X162621410Y-82458589D01*
X162461452Y-82327317D01*
X162461453Y-82327317D01*
X162461450Y-82327315D01*
X162278954Y-82229768D01*
X162080934Y-82169700D01*
X162080932Y-82169699D01*
X162080934Y-82169699D01*
X161875000Y-82149417D01*
X161669067Y-82169699D01*
X161471043Y-82229769D01*
X161378265Y-82279361D01*
X161288550Y-82327315D01*
X161288548Y-82327316D01*
X161288547Y-82327317D01*
X161128589Y-82458589D01*
X160997317Y-82618547D01*
X160899769Y-82801043D01*
X160839699Y-82999067D01*
X160819417Y-83205000D01*
X160403700Y-83205000D01*
X160403700Y-81718579D01*
X160423385Y-81651540D01*
X160440015Y-81630902D01*
X160820409Y-81250507D01*
X160881730Y-81217024D01*
X160951421Y-81222008D01*
X161003941Y-81259525D01*
X161091262Y-81365926D01*
X161128590Y-81411410D01*
X161288550Y-81542685D01*
X161471046Y-81640232D01*
X161669066Y-81700300D01*
X161669065Y-81700300D01*
X161687529Y-81702118D01*
X161875000Y-81720583D01*
X162080934Y-81700300D01*
X162278954Y-81640232D01*
X162461450Y-81542685D01*
X162621410Y-81411410D01*
X162752685Y-81251450D01*
X162850232Y-81068954D01*
X162910300Y-80870934D01*
X162930583Y-80665000D01*
X162910300Y-80459066D01*
X162850232Y-80261046D01*
X162752685Y-80078550D01*
X162672853Y-79981274D01*
X162621410Y-79918589D01*
X162503677Y-79821969D01*
X162461450Y-79787315D01*
X162278954Y-79689768D01*
X162080934Y-79629700D01*
X162080932Y-79629699D01*
X162080934Y-79629699D01*
X161875000Y-79609417D01*
X161669067Y-79629699D01*
X161471043Y-79689769D01*
X161373154Y-79742093D01*
X161288550Y-79787315D01*
X161288548Y-79787316D01*
X161288547Y-79787317D01*
X161128589Y-79918589D01*
X160997317Y-80078547D01*
X160997315Y-80078550D01*
X160934668Y-80195754D01*
X160885705Y-80245598D01*
X160825310Y-80261300D01*
X160781852Y-80261300D01*
X160679177Y-80288811D01*
X160679175Y-80288812D01*
X160679174Y-80288812D01*
X160587125Y-80341957D01*
X160587119Y-80341961D01*
X159676961Y-81252119D01*
X159676957Y-81252125D01*
X159623810Y-81344176D01*
X159623811Y-81344176D01*
X159623811Y-81344177D01*
X159623811Y-81344178D01*
X159599728Y-81434057D01*
X159596299Y-81446853D01*
X159596299Y-81563137D01*
X159596300Y-81563150D01*
X159596300Y-99281420D01*
X159576615Y-99348459D01*
X159559981Y-99369101D01*
X159369101Y-99559981D01*
X159307778Y-99593466D01*
X159281420Y-99596300D01*
X156965395Y-99596300D01*
X156898356Y-99576615D01*
X156855764Y-99530241D01*
X156852795Y-99524625D01*
X156852793Y-99524618D01*
X156772150Y-99415350D01*
X156662882Y-99334707D01*
X156662880Y-99334706D01*
X156534700Y-99289853D01*
X156504270Y-99287000D01*
X156504266Y-99287000D01*
X155495734Y-99287000D01*
X155495730Y-99287000D01*
X155465300Y-99289853D01*
X155465298Y-99289853D01*
X155337119Y-99334706D01*
X155337117Y-99334707D01*
X155227850Y-99415350D01*
X155147209Y-99524615D01*
X155144236Y-99530241D01*
X155095507Y-99580314D01*
X155034605Y-99596300D01*
X154385982Y-99596300D01*
X154318943Y-99576615D01*
X154273188Y-99523811D01*
X154263244Y-99454653D01*
X154292269Y-99391097D01*
X154299640Y-99384386D01*
X154299218Y-99383964D01*
X154389196Y-99293985D01*
X154389198Y-99293983D01*
X154440573Y-99188893D01*
X154450500Y-99120760D01*
X154450500Y-97879240D01*
X154440573Y-97811107D01*
X154389198Y-97706017D01*
X154389195Y-97706014D01*
X154389195Y-97706013D01*
X154383227Y-97697653D01*
X154384505Y-97696740D01*
X154356534Y-97645514D01*
X154353700Y-97619156D01*
X154353700Y-95440618D01*
X154373385Y-95373579D01*
X154404063Y-95340850D01*
X154489320Y-95277928D01*
X154554948Y-95253959D01*
X154562952Y-95253700D01*
X155162515Y-95253700D01*
X155229554Y-95273385D01*
X155272999Y-95321404D01*
X155276471Y-95328218D01*
X155276476Y-95328225D01*
X155371774Y-95423523D01*
X155371778Y-95423526D01*
X155371780Y-95423528D01*
X155491874Y-95484719D01*
X155491876Y-95484719D01*
X155491878Y-95484720D01*
X155591507Y-95500500D01*
X155591512Y-95500500D01*
X156408493Y-95500500D01*
X156508121Y-95484720D01*
X156508121Y-95484719D01*
X156508126Y-95484719D01*
X156628220Y-95423528D01*
X156723528Y-95328220D01*
X156784719Y-95208126D01*
X156786869Y-95194551D01*
X156800500Y-95108493D01*
X156800500Y-94591506D01*
X156784720Y-94491878D01*
X156784719Y-94491876D01*
X156784719Y-94491874D01*
X156723528Y-94371780D01*
X156723526Y-94371778D01*
X156723523Y-94371774D01*
X156628225Y-94276476D01*
X156628221Y-94276473D01*
X156628220Y-94276472D01*
X156508126Y-94215281D01*
X156508124Y-94215280D01*
X156508119Y-94215278D01*
X156498840Y-94212263D01*
X156499245Y-94211015D01*
X156445165Y-94185377D01*
X156408235Y-94126065D01*
X156403700Y-94092835D01*
X156403700Y-80218580D01*
X156423385Y-80151541D01*
X156440019Y-80130899D01*
X158005899Y-78565019D01*
X158067222Y-78531534D01*
X158093580Y-78528700D01*
X160700500Y-78528700D01*
X160767539Y-78548385D01*
X160813294Y-78601189D01*
X160824500Y-78652700D01*
X160824500Y-78994752D01*
X160836131Y-79053229D01*
X160836132Y-79053230D01*
X160880447Y-79119552D01*
X160946769Y-79163867D01*
X160946770Y-79163868D01*
X161005247Y-79175499D01*
X161005250Y-79175500D01*
X161005252Y-79175500D01*
X162744750Y-79175500D01*
X162744751Y-79175499D01*
X162759568Y-79172552D01*
X162803229Y-79163868D01*
X162803229Y-79163867D01*
X162803231Y-79163867D01*
X162869552Y-79119552D01*
X162913867Y-79053231D01*
X162913867Y-79053229D01*
X162913868Y-79053229D01*
X162925499Y-78994752D01*
X162925500Y-78994750D01*
X162925500Y-77255249D01*
X162925499Y-77255247D01*
X162913868Y-77196770D01*
X162913867Y-77196769D01*
X162869552Y-77130447D01*
X162803230Y-77086132D01*
X162803229Y-77086131D01*
X162744752Y-77074500D01*
X162744748Y-77074500D01*
X161005252Y-77074500D01*
X161005247Y-77074500D01*
X160946770Y-77086131D01*
X160946769Y-77086132D01*
X160880447Y-77130447D01*
X160836132Y-77196769D01*
X160836131Y-77196770D01*
X160824500Y-77255247D01*
X160824500Y-77597300D01*
X160804815Y-77664339D01*
X160752011Y-77710094D01*
X160700500Y-77721300D01*
X157821851Y-77721300D01*
X157772569Y-77734504D01*
X157772569Y-77734505D01*
X157719177Y-77748811D01*
X157719176Y-77748811D01*
X157719174Y-77748812D01*
X157627125Y-77801957D01*
X157627119Y-77801961D01*
X155676961Y-79752119D01*
X155676957Y-79752125D01*
X155623810Y-79844176D01*
X155623811Y-79844176D01*
X155623811Y-79844177D01*
X155623811Y-79844178D01*
X155597352Y-79942925D01*
X155596299Y-79946853D01*
X155596299Y-80063137D01*
X155596300Y-80063150D01*
X155596300Y-94092835D01*
X155576615Y-94159874D01*
X155523811Y-94205629D01*
X155492926Y-94214938D01*
X155491880Y-94215278D01*
X155371778Y-94276473D01*
X155371774Y-94276476D01*
X155276476Y-94371774D01*
X155276471Y-94371781D01*
X155272999Y-94378596D01*
X155225024Y-94429392D01*
X155162515Y-94446300D01*
X154749500Y-94446300D01*
X154682461Y-94426615D01*
X154636706Y-94373811D01*
X154625500Y-94322300D01*
X154625500Y-93995730D01*
X154622646Y-93965300D01*
X154622646Y-93965298D01*
X154589006Y-93869163D01*
X154577793Y-93837118D01*
X154497150Y-93727850D01*
X154387882Y-93647207D01*
X154387880Y-93647206D01*
X154387877Y-93647204D01*
X154382253Y-93644231D01*
X154332183Y-93595500D01*
X154316200Y-93534604D01*
X154316200Y-92220633D01*
X154323158Y-92179679D01*
X154347646Y-92109699D01*
X154350500Y-92079266D01*
X154350500Y-89920734D01*
X154349710Y-89912315D01*
X154347646Y-89890300D01*
X154347646Y-89890298D01*
X154302793Y-89762119D01*
X154302792Y-89762117D01*
X154222150Y-89652850D01*
X154112882Y-89572207D01*
X154112880Y-89572206D01*
X153984700Y-89527353D01*
X153954270Y-89524500D01*
X153954266Y-89524500D01*
X152940200Y-89524500D01*
X152873161Y-89504815D01*
X152827406Y-89452011D01*
X152816200Y-89400500D01*
X152816200Y-88465395D01*
X152835885Y-88398356D01*
X152882259Y-88355764D01*
X152887871Y-88352796D01*
X152887882Y-88352793D01*
X152997150Y-88272150D01*
X153077793Y-88162882D01*
X153107121Y-88079067D01*
X153122646Y-88034701D01*
X153122646Y-88034699D01*
X153125500Y-88004269D01*
X153125500Y-86995730D01*
X153122646Y-86965300D01*
X153122646Y-86965298D01*
X153077793Y-86837119D01*
X153077792Y-86837117D01*
X152997150Y-86727850D01*
X152887882Y-86647207D01*
X152887880Y-86647206D01*
X152887877Y-86647204D01*
X152882253Y-86644231D01*
X152832183Y-86595500D01*
X152816200Y-86534604D01*
X152816200Y-86355843D01*
X152835885Y-86288804D01*
X152852520Y-86268161D01*
X152889196Y-86231485D01*
X152889198Y-86231483D01*
X152940573Y-86126393D01*
X152950500Y-86058260D01*
X152950500Y-84816740D01*
X152940573Y-84748607D01*
X152889198Y-84643517D01*
X152889196Y-84643515D01*
X152889196Y-84643514D01*
X152806485Y-84560803D01*
X152701391Y-84509426D01*
X152633261Y-84499500D01*
X152633260Y-84499500D01*
X152266740Y-84499500D01*
X152266739Y-84499500D01*
X152198608Y-84509426D01*
X152093514Y-84560803D01*
X152010803Y-84643514D01*
X151959426Y-84748608D01*
X151949500Y-84816739D01*
X151949500Y-86058260D01*
X151959426Y-86126392D01*
X151968572Y-86145099D01*
X151996200Y-86201614D01*
X152008800Y-86256073D01*
X152008800Y-86534604D01*
X151989115Y-86601643D01*
X151942747Y-86644231D01*
X151937122Y-86647204D01*
X151827850Y-86727850D01*
X151747207Y-86837117D01*
X151747206Y-86837119D01*
X151702353Y-86965298D01*
X151702353Y-86965300D01*
X151699500Y-86995730D01*
X151699500Y-88004269D01*
X151702353Y-88034699D01*
X151702353Y-88034701D01*
X151747206Y-88162880D01*
X151747207Y-88162882D01*
X151827850Y-88272150D01*
X151937118Y-88352793D01*
X151937125Y-88352795D01*
X151942741Y-88355764D01*
X151992814Y-88404493D01*
X152008800Y-88465395D01*
X152008800Y-89603984D01*
X151989115Y-89671023D01*
X151984571Y-89677617D01*
X151922207Y-89762118D01*
X151922206Y-89762119D01*
X151877353Y-89890298D01*
X151877353Y-89890300D01*
X151874500Y-89920730D01*
X151874500Y-92079269D01*
X151877353Y-92109699D01*
X151877353Y-92109701D01*
X151916171Y-92220633D01*
X151922207Y-92237882D01*
X152002850Y-92347150D01*
X152112118Y-92427793D01*
X152154845Y-92442744D01*
X152240299Y-92472646D01*
X152270730Y-92475500D01*
X152270734Y-92475500D01*
X153384800Y-92475500D01*
X153451839Y-92495185D01*
X153497594Y-92547989D01*
X153508800Y-92599500D01*
X153508800Y-93534604D01*
X153489115Y-93601643D01*
X153442747Y-93644231D01*
X153437122Y-93647204D01*
X153327850Y-93727850D01*
X153247207Y-93837117D01*
X153247206Y-93837119D01*
X153202353Y-93965298D01*
X153202353Y-93965300D01*
X153199500Y-93995730D01*
X153199500Y-95004269D01*
X153202353Y-95034699D01*
X153202353Y-95034701D01*
X153245705Y-95158590D01*
X153247207Y-95162882D01*
X153327850Y-95272150D01*
X153437114Y-95352790D01*
X153437118Y-95352793D01*
X153437120Y-95352794D01*
X153463253Y-95361938D01*
X153520030Y-95402659D01*
X153545778Y-95467611D01*
X153546300Y-95478980D01*
X153546300Y-95642931D01*
X153526615Y-95709970D01*
X153473811Y-95755725D01*
X153404653Y-95765669D01*
X153366840Y-95750509D01*
X153365714Y-95752815D01*
X153356483Y-95748302D01*
X153251393Y-95696927D01*
X153251391Y-95696926D01*
X153183261Y-95687000D01*
X153183260Y-95687000D01*
X152816740Y-95687000D01*
X152816739Y-95687000D01*
X152748607Y-95696926D01*
X152748606Y-95696926D01*
X152669659Y-95735521D01*
X152600786Y-95747279D01*
X152536489Y-95719936D01*
X152497183Y-95662171D01*
X152491200Y-95624120D01*
X152491200Y-95465395D01*
X152510885Y-95398356D01*
X152557259Y-95355764D01*
X152562871Y-95352796D01*
X152562882Y-95352793D01*
X152672150Y-95272150D01*
X152752793Y-95162882D01*
X152797645Y-95034703D01*
X152797646Y-95034701D01*
X152797646Y-95034699D01*
X152800500Y-95004269D01*
X152800500Y-93995730D01*
X152797646Y-93965300D01*
X152797646Y-93965298D01*
X152764006Y-93869163D01*
X152752793Y-93837118D01*
X152672150Y-93727850D01*
X152562882Y-93647207D01*
X152562880Y-93647206D01*
X152434700Y-93602353D01*
X152404270Y-93599500D01*
X152404266Y-93599500D01*
X151770734Y-93599500D01*
X151770730Y-93599500D01*
X151740300Y-93602353D01*
X151740298Y-93602353D01*
X151612119Y-93647206D01*
X151612117Y-93647207D01*
X151502850Y-93727850D01*
X151422207Y-93837117D01*
X151422206Y-93837119D01*
X151377354Y-93965296D01*
X151376742Y-93971824D01*
X151375611Y-93983877D01*
X151349756Y-94048784D01*
X151292912Y-94089410D01*
X151252154Y-94096300D01*
X151247846Y-94096300D01*
X151180807Y-94076615D01*
X151135052Y-94023811D01*
X151124388Y-93983879D01*
X151122646Y-93965301D01*
X151122645Y-93965298D01*
X151122645Y-93965296D01*
X151092067Y-93877911D01*
X151077793Y-93837118D01*
X150997150Y-93727850D01*
X150887882Y-93647207D01*
X150887880Y-93647206D01*
X150759700Y-93602353D01*
X150729270Y-93599500D01*
X150729266Y-93599500D01*
X150095734Y-93599500D01*
X150095730Y-93599500D01*
X150065300Y-93602353D01*
X150065298Y-93602353D01*
X149937119Y-93647206D01*
X149937117Y-93647207D01*
X149827850Y-93727850D01*
X149747207Y-93837117D01*
X149747206Y-93837119D01*
X149702353Y-93965298D01*
X149702353Y-93965300D01*
X149699500Y-93995730D01*
X149300500Y-93995730D01*
X149297646Y-93965300D01*
X149297646Y-93965298D01*
X149264006Y-93869163D01*
X149252793Y-93837118D01*
X149172150Y-93727850D01*
X149062882Y-93647207D01*
X149062880Y-93647206D01*
X148934700Y-93602353D01*
X148904270Y-93599500D01*
X148904266Y-93599500D01*
X148270734Y-93599500D01*
X148270730Y-93599500D01*
X148240300Y-93602353D01*
X148240298Y-93602353D01*
X148112119Y-93647206D01*
X148112117Y-93647207D01*
X148002850Y-93727850D01*
X147922207Y-93837117D01*
X147922206Y-93837119D01*
X147877353Y-93965298D01*
X147877353Y-93965300D01*
X147874500Y-93995730D01*
X143083139Y-93995730D01*
X143127685Y-93941450D01*
X143225232Y-93758954D01*
X143285300Y-93560934D01*
X143305583Y-93355000D01*
X143285300Y-93149066D01*
X143225232Y-92951046D01*
X143127685Y-92768550D01*
X143062138Y-92688680D01*
X142996410Y-92608589D01*
X142858225Y-92495185D01*
X142836450Y-92477315D01*
X142653954Y-92379768D01*
X142455934Y-92319700D01*
X142455932Y-92319699D01*
X142455934Y-92319699D01*
X142250000Y-92299417D01*
X142044067Y-92319699D01*
X141846043Y-92379769D01*
X141756200Y-92427792D01*
X141663550Y-92477315D01*
X141663548Y-92477316D01*
X141663547Y-92477317D01*
X141503589Y-92608589D01*
X141381758Y-92757043D01*
X141372315Y-92768550D01*
X141366970Y-92778550D01*
X141274769Y-92951043D01*
X141274768Y-92951045D01*
X141274768Y-92951046D01*
X141271735Y-92961046D01*
X141214699Y-93149067D01*
X141194417Y-93355000D01*
X140825500Y-93355000D01*
X140825500Y-90815000D01*
X141194417Y-90815000D01*
X141214699Y-91020932D01*
X141217733Y-91030934D01*
X141274768Y-91218954D01*
X141372315Y-91401450D01*
X141391021Y-91424243D01*
X141503589Y-91561410D01*
X141600209Y-91640702D01*
X141663550Y-91692685D01*
X141846046Y-91790232D01*
X142044066Y-91850300D01*
X142044065Y-91850300D01*
X142062529Y-91852118D01*
X142250000Y-91870583D01*
X142455934Y-91850300D01*
X142653954Y-91790232D01*
X142836450Y-91692685D01*
X142996410Y-91561410D01*
X143127685Y-91401450D01*
X143225232Y-91218954D01*
X143285300Y-91020934D01*
X143305583Y-90815000D01*
X143285300Y-90609066D01*
X143225232Y-90411046D01*
X143127685Y-90228550D01*
X143062138Y-90148680D01*
X142996410Y-90068589D01*
X142878677Y-89971969D01*
X142836450Y-89937315D01*
X142653954Y-89839768D01*
X142455934Y-89779700D01*
X142455932Y-89779699D01*
X142455934Y-89779699D01*
X142250000Y-89759417D01*
X142044067Y-89779699D01*
X141846043Y-89839769D01*
X141751512Y-89890298D01*
X141663550Y-89937315D01*
X141663548Y-89937316D01*
X141663547Y-89937317D01*
X141503589Y-90068589D01*
X141381758Y-90217043D01*
X141372315Y-90228550D01*
X141366970Y-90238550D01*
X141274769Y-90411043D01*
X141274768Y-90411045D01*
X141274768Y-90411046D01*
X141271735Y-90421046D01*
X141214699Y-90609067D01*
X141194417Y-90815000D01*
X140825500Y-90815000D01*
X140825500Y-88275000D01*
X141194417Y-88275000D01*
X141214699Y-88480932D01*
X141217733Y-88490934D01*
X141274768Y-88678954D01*
X141372315Y-88861450D01*
X141391021Y-88884243D01*
X141503589Y-89021410D01*
X141600209Y-89100702D01*
X141663550Y-89152685D01*
X141846046Y-89250232D01*
X142044066Y-89310300D01*
X142044065Y-89310300D01*
X142062529Y-89312118D01*
X142250000Y-89330583D01*
X142455934Y-89310300D01*
X142653954Y-89250232D01*
X142836450Y-89152685D01*
X142996410Y-89021410D01*
X143127685Y-88861450D01*
X143225232Y-88678954D01*
X143285300Y-88480934D01*
X143305583Y-88275000D01*
X143285300Y-88069066D01*
X143225232Y-87871046D01*
X143127685Y-87688550D01*
X143062138Y-87608680D01*
X142996410Y-87528589D01*
X142878677Y-87431969D01*
X142836450Y-87397315D01*
X142653954Y-87299768D01*
X142455934Y-87239700D01*
X142455932Y-87239699D01*
X142455934Y-87239699D01*
X142250000Y-87219417D01*
X142044067Y-87239699D01*
X141846043Y-87299769D01*
X141735898Y-87358643D01*
X141663550Y-87397315D01*
X141663548Y-87397316D01*
X141663547Y-87397317D01*
X141503589Y-87528589D01*
X141381758Y-87677043D01*
X141372315Y-87688550D01*
X141366970Y-87698550D01*
X141274769Y-87871043D01*
X141274768Y-87871045D01*
X141274768Y-87871046D01*
X141271735Y-87881046D01*
X141214699Y-88069067D01*
X141194417Y-88275000D01*
X140825500Y-88275000D01*
X140825500Y-86995730D01*
X147699500Y-86995730D01*
X147699500Y-88004269D01*
X147702353Y-88034699D01*
X147702353Y-88034701D01*
X147747206Y-88162880D01*
X147747207Y-88162882D01*
X147827850Y-88272150D01*
X147937118Y-88352793D01*
X147945609Y-88355764D01*
X148065299Y-88397646D01*
X148095730Y-88400500D01*
X148095734Y-88400500D01*
X148729270Y-88400500D01*
X148759699Y-88397646D01*
X148759701Y-88397646D01*
X148823790Y-88375219D01*
X148887882Y-88352793D01*
X148997150Y-88272150D01*
X149077793Y-88162882D01*
X149107121Y-88079067D01*
X149122646Y-88034701D01*
X149122646Y-88034699D01*
X149125500Y-88004269D01*
X149125500Y-87949500D01*
X149145185Y-87882461D01*
X149197989Y-87836706D01*
X149249500Y-87825500D01*
X149449535Y-87825500D01*
X149449551Y-87825501D01*
X149457147Y-87825501D01*
X149550449Y-87825501D01*
X149550465Y-87825500D01*
X149750500Y-87825500D01*
X149817539Y-87845185D01*
X149863294Y-87897989D01*
X149874500Y-87949500D01*
X149874500Y-88004269D01*
X149877353Y-88034699D01*
X149877353Y-88034701D01*
X149922206Y-88162880D01*
X149922207Y-88162882D01*
X150002850Y-88272150D01*
X150112118Y-88352793D01*
X150120609Y-88355764D01*
X150240299Y-88397646D01*
X150270730Y-88400500D01*
X150270734Y-88400500D01*
X150904270Y-88400500D01*
X150934699Y-88397646D01*
X150934701Y-88397646D01*
X150998790Y-88375219D01*
X151062882Y-88352793D01*
X151172150Y-88272150D01*
X151252793Y-88162882D01*
X151282121Y-88079067D01*
X151297646Y-88034701D01*
X151297646Y-88034699D01*
X151300500Y-88004269D01*
X151300500Y-86995730D01*
X151297646Y-86965300D01*
X151297646Y-86965298D01*
X151252793Y-86837119D01*
X151252792Y-86837117D01*
X151172150Y-86727850D01*
X151062882Y-86647207D01*
X151062880Y-86647206D01*
X150934700Y-86602353D01*
X150904270Y-86599500D01*
X150904266Y-86599500D01*
X150270734Y-86599500D01*
X150270730Y-86599500D01*
X150240300Y-86602353D01*
X150240298Y-86602353D01*
X150112119Y-86647206D01*
X150112114Y-86647209D01*
X150096634Y-86658634D01*
X150031005Y-86682604D01*
X149962835Y-86667288D01*
X149913767Y-86617547D01*
X149899381Y-86549174D01*
X149900063Y-86542677D01*
X149902645Y-86523071D01*
X149905682Y-86500000D01*
X149904587Y-86491685D01*
X149885044Y-86343239D01*
X149885044Y-86343238D01*
X149824536Y-86197159D01*
X149728282Y-86071718D01*
X149728280Y-86071716D01*
X149728279Y-86071715D01*
X149674012Y-86030074D01*
X149632810Y-85973646D01*
X149625500Y-85931699D01*
X149625500Y-85877329D01*
X149645185Y-85810290D01*
X149693203Y-85766845D01*
X149778220Y-85723528D01*
X149873528Y-85628220D01*
X149934719Y-85508126D01*
X149938431Y-85484691D01*
X149950500Y-85408493D01*
X149950500Y-84591506D01*
X149934720Y-84491878D01*
X149934719Y-84491876D01*
X149934719Y-84491874D01*
X149873528Y-84371780D01*
X149873526Y-84371778D01*
X149873523Y-84371774D01*
X149778225Y-84276476D01*
X149778221Y-84276473D01*
X149778220Y-84276472D01*
X149658126Y-84215281D01*
X149658124Y-84215280D01*
X149658121Y-84215279D01*
X149558493Y-84199500D01*
X149558488Y-84199500D01*
X149041512Y-84199500D01*
X149041507Y-84199500D01*
X148941878Y-84215279D01*
X148941874Y-84215280D01*
X148941874Y-84215281D01*
X148872592Y-84250582D01*
X148821778Y-84276473D01*
X148821774Y-84276476D01*
X148726476Y-84371774D01*
X148726473Y-84371778D01*
X148665279Y-84491878D01*
X148649500Y-84591506D01*
X148649500Y-85408493D01*
X148665279Y-85508121D01*
X148665280Y-85508124D01*
X148665281Y-85508126D01*
X148726472Y-85628220D01*
X148726473Y-85628221D01*
X148726476Y-85628225D01*
X148821774Y-85723523D01*
X148821777Y-85723525D01*
X148821780Y-85723528D01*
X148906795Y-85766845D01*
X148957590Y-85814818D01*
X148974500Y-85877329D01*
X148974500Y-85931699D01*
X148954815Y-85998738D01*
X148925988Y-86030074D01*
X148871720Y-86071715D01*
X148775463Y-86197160D01*
X148714956Y-86343237D01*
X148714955Y-86343239D01*
X148701798Y-86443186D01*
X148696766Y-86481410D01*
X148695413Y-86491685D01*
X148667147Y-86555582D01*
X148608822Y-86594053D01*
X148572474Y-86599500D01*
X148095730Y-86599500D01*
X148065300Y-86602353D01*
X148065298Y-86602353D01*
X147937119Y-86647206D01*
X147937117Y-86647207D01*
X147827850Y-86727850D01*
X147747207Y-86837117D01*
X147747206Y-86837119D01*
X147702353Y-86965298D01*
X147702353Y-86965300D01*
X147699500Y-86995730D01*
X140825500Y-86995730D01*
X140825500Y-85735000D01*
X141194417Y-85735000D01*
X141214699Y-85940932D01*
X141232234Y-85998738D01*
X141274768Y-86138954D01*
X141372315Y-86321450D01*
X141406969Y-86363677D01*
X141503589Y-86481410D01*
X141554354Y-86523071D01*
X141663550Y-86612685D01*
X141846046Y-86710232D01*
X142044066Y-86770300D01*
X142044065Y-86770300D01*
X142062529Y-86772118D01*
X142250000Y-86790583D01*
X142455934Y-86770300D01*
X142653954Y-86710232D01*
X142836450Y-86612685D01*
X142996410Y-86481410D01*
X143127685Y-86321450D01*
X143225232Y-86138954D01*
X143285300Y-85940934D01*
X143305583Y-85735000D01*
X143285300Y-85529066D01*
X143225232Y-85331046D01*
X143127685Y-85148550D01*
X143062138Y-85068680D01*
X142996410Y-84988589D01*
X142836452Y-84857317D01*
X142836453Y-84857317D01*
X142836450Y-84857315D01*
X142653954Y-84759768D01*
X142455934Y-84699700D01*
X142455932Y-84699699D01*
X142455934Y-84699699D01*
X142250000Y-84679417D01*
X142044067Y-84699699D01*
X141846043Y-84759769D01*
X141739462Y-84816739D01*
X141663550Y-84857315D01*
X141663548Y-84857316D01*
X141663547Y-84857317D01*
X141503589Y-84988589D01*
X141372317Y-85148547D01*
X141274769Y-85331043D01*
X141214699Y-85529067D01*
X141194417Y-85735000D01*
X140825500Y-85735000D01*
X140825500Y-83195000D01*
X141194417Y-83195000D01*
X141214699Y-83400932D01*
X141217733Y-83410934D01*
X141274768Y-83598954D01*
X141372315Y-83781450D01*
X141391021Y-83804243D01*
X141503589Y-83941410D01*
X141600209Y-84020702D01*
X141663550Y-84072685D01*
X141846046Y-84170232D01*
X142044066Y-84230300D01*
X142044065Y-84230300D01*
X142062529Y-84232118D01*
X142250000Y-84250583D01*
X142455934Y-84230300D01*
X142653954Y-84170232D01*
X142836450Y-84072685D01*
X142996410Y-83941410D01*
X143127685Y-83781450D01*
X143225232Y-83598954D01*
X143285300Y-83400934D01*
X143305583Y-83195000D01*
X143285300Y-82989066D01*
X143225232Y-82791046D01*
X143127685Y-82608550D01*
X143054808Y-82519748D01*
X142996410Y-82448589D01*
X142878677Y-82351969D01*
X142836450Y-82317315D01*
X142653954Y-82219768D01*
X142455934Y-82159700D01*
X142455932Y-82159699D01*
X142455934Y-82159699D01*
X142250000Y-82139417D01*
X142044067Y-82159699D01*
X141846043Y-82219769D01*
X141735898Y-82278643D01*
X141663550Y-82317315D01*
X141663548Y-82317316D01*
X141663547Y-82317317D01*
X141503589Y-82448589D01*
X141381758Y-82597043D01*
X141372315Y-82608550D01*
X141347221Y-82655497D01*
X141274769Y-82791043D01*
X141274768Y-82791045D01*
X141274768Y-82791046D01*
X141271735Y-82801046D01*
X141214699Y-82989067D01*
X141194417Y-83195000D01*
X140825500Y-83195000D01*
X140825500Y-82591188D01*
X140845185Y-82524149D01*
X140861819Y-82503507D01*
X141250909Y-82114417D01*
X141709006Y-81656319D01*
X141770327Y-81622836D01*
X141840018Y-81627820D01*
X141844144Y-81629444D01*
X141846041Y-81630230D01*
X141846043Y-81630230D01*
X141846046Y-81630232D01*
X142044066Y-81690300D01*
X142044065Y-81690300D01*
X142062529Y-81692118D01*
X142250000Y-81710583D01*
X142455934Y-81690300D01*
X142653954Y-81630232D01*
X142836450Y-81532685D01*
X142996410Y-81401410D01*
X143127685Y-81241450D01*
X143225232Y-81058954D01*
X143285300Y-80860934D01*
X143305583Y-80655000D01*
X143285300Y-80449066D01*
X143225232Y-80251046D01*
X143127685Y-80068550D01*
X143111973Y-80049405D01*
X144374528Y-80049405D01*
X144374528Y-80415926D01*
X144384454Y-80484057D01*
X144435831Y-80589151D01*
X144436903Y-80590223D01*
X144437900Y-80592049D01*
X144441801Y-80597513D01*
X144441140Y-80597984D01*
X144470388Y-80651546D01*
X144465404Y-80721238D01*
X144463783Y-80725356D01*
X144414957Y-80843234D01*
X144414955Y-80843239D01*
X144394318Y-80999998D01*
X144394318Y-81000001D01*
X144414955Y-81156760D01*
X144414956Y-81156762D01*
X144475464Y-81302841D01*
X144571718Y-81428282D01*
X144697159Y-81524536D01*
X144843238Y-81585044D01*
X144921619Y-81595363D01*
X144999999Y-81605682D01*
X145000000Y-81605682D01*
X145000001Y-81605682D01*
X145052254Y-81598802D01*
X145156762Y-81585044D01*
X145302841Y-81524536D01*
X145428282Y-81428282D01*
X145524536Y-81302841D01*
X145585044Y-81156762D01*
X145605682Y-81000000D01*
X145605604Y-80999405D01*
X146249528Y-80999405D01*
X146249528Y-81365926D01*
X146259454Y-81434057D01*
X146259455Y-81434059D01*
X146307668Y-81532682D01*
X146310831Y-81539151D01*
X146393542Y-81621862D01*
X146393543Y-81621862D01*
X146393545Y-81621864D01*
X146498635Y-81673239D01*
X146532701Y-81678202D01*
X146566767Y-81683166D01*
X146566768Y-81683166D01*
X147808289Y-81683166D01*
X147830999Y-81679857D01*
X147876421Y-81673239D01*
X147981511Y-81621864D01*
X147981514Y-81621861D01*
X147989875Y-81615893D01*
X147990787Y-81617171D01*
X148042014Y-81589200D01*
X148068372Y-81586366D01*
X148175499Y-81586366D01*
X148242538Y-81606051D01*
X148288293Y-81658855D01*
X148299499Y-81710366D01*
X148299499Y-82519752D01*
X148311130Y-82578229D01*
X148311131Y-82578230D01*
X148355446Y-82644552D01*
X148421768Y-82688867D01*
X148421769Y-82688868D01*
X148480246Y-82700499D01*
X148480249Y-82700500D01*
X148480251Y-82700500D01*
X150895409Y-82700500D01*
X150962448Y-82720185D01*
X151008203Y-82772989D01*
X151018147Y-82842147D01*
X151011377Y-82864129D01*
X151012270Y-82864405D01*
X151009426Y-82873607D01*
X150999500Y-82941739D01*
X150999500Y-84183260D01*
X151009426Y-84251391D01*
X151060803Y-84356485D01*
X151143514Y-84439196D01*
X151143515Y-84439196D01*
X151143517Y-84439198D01*
X151248607Y-84490573D01*
X151257564Y-84491878D01*
X151316739Y-84500500D01*
X151316740Y-84500500D01*
X151683261Y-84500500D01*
X151705971Y-84497191D01*
X151751393Y-84490573D01*
X151856483Y-84439198D01*
X151939198Y-84356483D01*
X151990573Y-84251393D01*
X152000500Y-84183260D01*
X152000500Y-82941740D01*
X151998565Y-82928462D01*
X151990573Y-82873607D01*
X151987730Y-82864405D01*
X151990555Y-82863532D01*
X151981432Y-82810078D01*
X152008780Y-82745783D01*
X152066547Y-82706480D01*
X152104591Y-82700500D01*
X152795409Y-82700500D01*
X152862448Y-82720185D01*
X152908203Y-82772989D01*
X152918147Y-82842147D01*
X152911377Y-82864129D01*
X152912270Y-82864405D01*
X152909426Y-82873607D01*
X152899500Y-82941739D01*
X152899500Y-84183260D01*
X152909426Y-84251391D01*
X152960803Y-84356485D01*
X153043514Y-84439196D01*
X153043515Y-84439196D01*
X153043517Y-84439198D01*
X153148607Y-84490573D01*
X153157564Y-84491878D01*
X153216739Y-84500500D01*
X153216740Y-84500500D01*
X153583261Y-84500500D01*
X153605971Y-84497191D01*
X153651393Y-84490573D01*
X153756483Y-84439198D01*
X153839198Y-84356483D01*
X153890573Y-84251393D01*
X153900500Y-84183260D01*
X153900500Y-82941740D01*
X153898565Y-82928462D01*
X153890573Y-82873607D01*
X153887730Y-82864405D01*
X153890555Y-82863532D01*
X153881432Y-82810078D01*
X153908780Y-82745783D01*
X153966547Y-82706480D01*
X154004591Y-82700500D01*
X154019749Y-82700500D01*
X154019750Y-82700499D01*
X154037499Y-82696969D01*
X154078228Y-82688868D01*
X154078228Y-82688867D01*
X154078230Y-82688867D01*
X154144551Y-82644552D01*
X154188866Y-82578231D01*
X154188866Y-82578229D01*
X154188867Y-82578229D01*
X154198722Y-82528680D01*
X154200499Y-82519748D01*
X154200499Y-80330252D01*
X154200499Y-80330249D01*
X154200498Y-80330247D01*
X154188867Y-80271770D01*
X154188866Y-80271769D01*
X154144551Y-80205447D01*
X154078229Y-80161132D01*
X154078228Y-80161131D01*
X154019751Y-80149500D01*
X154019747Y-80149500D01*
X148480251Y-80149500D01*
X148480246Y-80149500D01*
X148421769Y-80161131D01*
X148421768Y-80161132D01*
X148355446Y-80205447D01*
X148311131Y-80271769D01*
X148311130Y-80271770D01*
X148299499Y-80330247D01*
X148299499Y-80654966D01*
X148279814Y-80722005D01*
X148227010Y-80767760D01*
X148175499Y-80778966D01*
X148068372Y-80778966D01*
X148001333Y-80759281D01*
X147983248Y-80744708D01*
X147981514Y-80743470D01*
X147981512Y-80743469D01*
X147981511Y-80743468D01*
X147876421Y-80692093D01*
X147876419Y-80692092D01*
X147808289Y-80682166D01*
X147808288Y-80682166D01*
X146566768Y-80682166D01*
X146566767Y-80682166D01*
X146498636Y-80692092D01*
X146393542Y-80743469D01*
X146310831Y-80826180D01*
X146259454Y-80931274D01*
X146249528Y-80999405D01*
X145605604Y-80999405D01*
X145589008Y-80873350D01*
X145599773Y-80804316D01*
X145646153Y-80752060D01*
X145711947Y-80733166D01*
X145933289Y-80733166D01*
X145955999Y-80729857D01*
X146001421Y-80723239D01*
X146106511Y-80671864D01*
X146189226Y-80589149D01*
X146240601Y-80484059D01*
X146250528Y-80415926D01*
X146250528Y-80049406D01*
X146240601Y-79981273D01*
X146189226Y-79876183D01*
X146189224Y-79876181D01*
X146189224Y-79876180D01*
X146106513Y-79793469D01*
X146001419Y-79742092D01*
X145933289Y-79732166D01*
X145933288Y-79732166D01*
X144691768Y-79732166D01*
X144691767Y-79732166D01*
X144623636Y-79742092D01*
X144518542Y-79793469D01*
X144435831Y-79876180D01*
X144384454Y-79981274D01*
X144374528Y-80049405D01*
X143111973Y-80049405D01*
X143056059Y-79981273D01*
X142996410Y-79908589D01*
X142856134Y-79793469D01*
X142836450Y-79777315D01*
X142653954Y-79679768D01*
X142455934Y-79619700D01*
X142455932Y-79619699D01*
X142455934Y-79619699D01*
X142250000Y-79599417D01*
X142044067Y-79619699D01*
X141846043Y-79679769D01*
X141748017Y-79732166D01*
X141663550Y-79777315D01*
X141663548Y-79777316D01*
X141663547Y-79777317D01*
X141503589Y-79908589D01*
X141372317Y-80068547D01*
X141372315Y-80068550D01*
X141333643Y-80140898D01*
X141274769Y-80251043D01*
X141274768Y-80251045D01*
X141274768Y-80251046D01*
X141271735Y-80261046D01*
X141214699Y-80449067D01*
X141194417Y-80655000D01*
X141214699Y-80860932D01*
X141274769Y-81058958D01*
X141275561Y-81060869D01*
X141275677Y-81061949D01*
X141276537Y-81064784D01*
X141275999Y-81064947D01*
X141283024Y-81130339D01*
X141251744Y-81192816D01*
X141248677Y-81195994D01*
X140287181Y-82157491D01*
X140225858Y-82190976D01*
X140156167Y-82185992D01*
X140100233Y-82144120D01*
X140075816Y-82078656D01*
X140075500Y-82069810D01*
X140075500Y-79397149D01*
X140075500Y-79397147D01*
X140053318Y-79314362D01*
X140053314Y-79314355D01*
X140010469Y-79240144D01*
X140010463Y-79240136D01*
X139401321Y-78630994D01*
X139367836Y-78569671D01*
X139372820Y-78499979D01*
X139374448Y-78495843D01*
X139375223Y-78493969D01*
X139375232Y-78493954D01*
X139435300Y-78295934D01*
X139453121Y-78115000D01*
X141194417Y-78115000D01*
X141214699Y-78320932D01*
X141214700Y-78320934D01*
X141274768Y-78518954D01*
X141372315Y-78701450D01*
X141406969Y-78743677D01*
X141503589Y-78861410D01*
X141600209Y-78940702D01*
X141663550Y-78992685D01*
X141846046Y-79090232D01*
X142044066Y-79150300D01*
X142044065Y-79150300D01*
X142062529Y-79152118D01*
X142250000Y-79170583D01*
X142455934Y-79150300D01*
X142653954Y-79090232D01*
X142836450Y-78992685D01*
X142996410Y-78861410D01*
X143127685Y-78701450D01*
X143225232Y-78518954D01*
X143285300Y-78320934D01*
X143305583Y-78115000D01*
X143285300Y-77909066D01*
X143225232Y-77711046D01*
X143127685Y-77528550D01*
X143075702Y-77465209D01*
X142996410Y-77368589D01*
X142836452Y-77237317D01*
X142836453Y-77237317D01*
X142836450Y-77237315D01*
X142653954Y-77139768D01*
X142455934Y-77079700D01*
X142455932Y-77079699D01*
X142455934Y-77079699D01*
X142250000Y-77059417D01*
X142044067Y-77079699D01*
X141846043Y-77139769D01*
X141739406Y-77196769D01*
X141663550Y-77237315D01*
X141663548Y-77237316D01*
X141663547Y-77237317D01*
X141503589Y-77368589D01*
X141372317Y-77528547D01*
X141274769Y-77711043D01*
X141214699Y-77909067D01*
X141194417Y-78115000D01*
X139453121Y-78115000D01*
X139455583Y-78090000D01*
X139435300Y-77884066D01*
X139375232Y-77686046D01*
X139277685Y-77503550D01*
X139166927Y-77368590D01*
X139146410Y-77343589D01*
X138986452Y-77212317D01*
X138986453Y-77212317D01*
X138986450Y-77212315D01*
X138803954Y-77114768D01*
X138605934Y-77054700D01*
X138605932Y-77054699D01*
X138605934Y-77054699D01*
X138400000Y-77034417D01*
X138194067Y-77054699D01*
X137996043Y-77114769D01*
X137885898Y-77173643D01*
X137813550Y-77212315D01*
X137813548Y-77212316D01*
X137813547Y-77212317D01*
X137653589Y-77343589D01*
X137522317Y-77503547D01*
X137483858Y-77575497D01*
X137434895Y-77625341D01*
X137366757Y-77640801D01*
X137301077Y-77616969D01*
X137258709Y-77561410D01*
X137250500Y-77517043D01*
X137250500Y-76673007D01*
X137270185Y-76605968D01*
X137322989Y-76560213D01*
X137392147Y-76550269D01*
X137443392Y-76569906D01*
X137471768Y-76588867D01*
X137471770Y-76588868D01*
X137530247Y-76600499D01*
X137530250Y-76600500D01*
X137530252Y-76600500D01*
X139269750Y-76600500D01*
X139269751Y-76600499D01*
X139284568Y-76597552D01*
X139328229Y-76588868D01*
X139328229Y-76588867D01*
X139328231Y-76588867D01*
X139394552Y-76544552D01*
X139438867Y-76478231D01*
X139438867Y-76478229D01*
X139438868Y-76478229D01*
X139450499Y-76419752D01*
X139450500Y-76419750D01*
X139450500Y-74705247D01*
X141199500Y-74705247D01*
X141199500Y-76444752D01*
X141211131Y-76503229D01*
X141211132Y-76503230D01*
X141255447Y-76569552D01*
X141321769Y-76613867D01*
X141321770Y-76613868D01*
X141380247Y-76625499D01*
X141380250Y-76625500D01*
X141380252Y-76625500D01*
X143119750Y-76625500D01*
X143119751Y-76625499D01*
X143134568Y-76622552D01*
X143178229Y-76613868D01*
X143178229Y-76613867D01*
X143178231Y-76613867D01*
X143244552Y-76569552D01*
X143288867Y-76503231D01*
X143288867Y-76503229D01*
X143288868Y-76503229D01*
X143300499Y-76444752D01*
X143300500Y-76444750D01*
X143300500Y-76204300D01*
X143320185Y-76137261D01*
X143372989Y-76091506D01*
X143424500Y-76080300D01*
X143911700Y-76080300D01*
X143978739Y-76099985D01*
X143999381Y-76116619D01*
X144098045Y-76215283D01*
X144131530Y-76276606D01*
X144134364Y-76302964D01*
X144134364Y-76854269D01*
X144137217Y-76884699D01*
X144137217Y-76884701D01*
X144179418Y-77005300D01*
X144182071Y-77012882D01*
X144262714Y-77122150D01*
X144371982Y-77202793D01*
X144399200Y-77212317D01*
X144500163Y-77247646D01*
X144530594Y-77250500D01*
X144530598Y-77250500D01*
X145589134Y-77250500D01*
X145619563Y-77247646D01*
X145619565Y-77247646D01*
X145683654Y-77225219D01*
X145747746Y-77202793D01*
X145857014Y-77122150D01*
X145933757Y-77018165D01*
X145989404Y-76975916D01*
X146033527Y-76967800D01*
X146242143Y-76967800D01*
X146274234Y-76972024D01*
X146398417Y-77005300D01*
X147748905Y-77005300D01*
X148175499Y-77005300D01*
X148242538Y-77024985D01*
X148288293Y-77077789D01*
X148299499Y-77129300D01*
X148299499Y-78669752D01*
X148311130Y-78728229D01*
X148311131Y-78728230D01*
X148355446Y-78794552D01*
X148421768Y-78838867D01*
X148421769Y-78838868D01*
X148480246Y-78850499D01*
X148480249Y-78850500D01*
X148480251Y-78850500D01*
X154019749Y-78850500D01*
X154019750Y-78850499D01*
X154034567Y-78847552D01*
X154078228Y-78838868D01*
X154078228Y-78838867D01*
X154078230Y-78838867D01*
X154144551Y-78794552D01*
X154188866Y-78728231D01*
X154188866Y-78728229D01*
X154188867Y-78728229D01*
X154200498Y-78669752D01*
X154200499Y-78669750D01*
X154200499Y-76480249D01*
X154200498Y-76480247D01*
X154188867Y-76421770D01*
X154188866Y-76421769D01*
X154144551Y-76355447D01*
X154078229Y-76311132D01*
X154078228Y-76311131D01*
X154019751Y-76299500D01*
X154019747Y-76299500D01*
X150740463Y-76299500D01*
X150673424Y-76279815D01*
X150652782Y-76263181D01*
X150485261Y-76095660D01*
X150485260Y-76095659D01*
X150370037Y-76029136D01*
X150370032Y-76029134D01*
X150367350Y-76028415D01*
X150367350Y-76028416D01*
X150241523Y-75994700D01*
X150241521Y-75994700D01*
X148102185Y-75994700D01*
X148035146Y-75975015D01*
X147989391Y-75922211D01*
X147978185Y-75870700D01*
X147978185Y-75282986D01*
X147975331Y-75252556D01*
X147975331Y-75252554D01*
X147930478Y-75124375D01*
X147930477Y-75124373D01*
X147849835Y-75015106D01*
X147740567Y-74934463D01*
X147740565Y-74934462D01*
X147612385Y-74889609D01*
X147581955Y-74886756D01*
X147581951Y-74886756D01*
X146623419Y-74886756D01*
X146623415Y-74886756D01*
X146592985Y-74889609D01*
X146592983Y-74889609D01*
X146464804Y-74934462D01*
X146464802Y-74934463D01*
X146355535Y-75015106D01*
X146274892Y-75124373D01*
X146274891Y-75124375D01*
X146230038Y-75252554D01*
X146230038Y-75252556D01*
X146227185Y-75282986D01*
X146227185Y-75833200D01*
X146207500Y-75900239D01*
X146154696Y-75945994D01*
X146103185Y-75957200D01*
X146033527Y-75957200D01*
X145966488Y-75937515D01*
X145933757Y-75906834D01*
X145907089Y-75870700D01*
X145857014Y-75802850D01*
X145747746Y-75722207D01*
X145747744Y-75722206D01*
X145619564Y-75677353D01*
X145589134Y-75674500D01*
X145589130Y-75674500D01*
X145037828Y-75674500D01*
X144970789Y-75654815D01*
X144950147Y-75638181D01*
X144482626Y-75170660D01*
X144482625Y-75170659D01*
X144367402Y-75104136D01*
X144367403Y-75104136D01*
X144324564Y-75092657D01*
X144238888Y-75069700D01*
X144238886Y-75069700D01*
X143424500Y-75069700D01*
X143357461Y-75050015D01*
X143311706Y-74997211D01*
X143300500Y-74945700D01*
X143300500Y-74705249D01*
X143300499Y-74705247D01*
X143288868Y-74646770D01*
X143288867Y-74646769D01*
X143244552Y-74580447D01*
X143178230Y-74536132D01*
X143178229Y-74536131D01*
X143119752Y-74524500D01*
X143119748Y-74524500D01*
X141380252Y-74524500D01*
X141380247Y-74524500D01*
X141321770Y-74536131D01*
X141321769Y-74536132D01*
X141255447Y-74580447D01*
X141211132Y-74646769D01*
X141211131Y-74646770D01*
X141199500Y-74705247D01*
X139450500Y-74705247D01*
X139450500Y-74680249D01*
X139450499Y-74680247D01*
X139438868Y-74621770D01*
X139438867Y-74621769D01*
X139394552Y-74555447D01*
X139328230Y-74511132D01*
X139328229Y-74511131D01*
X139269752Y-74499500D01*
X139269748Y-74499500D01*
X138849500Y-74499500D01*
X138782461Y-74479815D01*
X138736706Y-74427011D01*
X138725500Y-74375500D01*
X138725500Y-72286188D01*
X138745185Y-72219149D01*
X138761819Y-72198507D01*
X139060191Y-71900135D01*
X139935521Y-71024804D01*
X139996842Y-70991321D01*
X140066534Y-70996305D01*
X140122467Y-71038177D01*
X140140241Y-71071531D01*
X140172206Y-71162880D01*
X140172207Y-71162882D01*
X140252850Y-71272150D01*
X140362118Y-71352793D01*
X140404845Y-71367744D01*
X140490299Y-71397646D01*
X140520730Y-71400500D01*
X140520734Y-71400500D01*
X141154270Y-71400500D01*
X141184699Y-71397646D01*
X141184701Y-71397646D01*
X141248790Y-71375219D01*
X141312882Y-71352793D01*
X141422150Y-71272150D01*
X141502793Y-71162882D01*
X141545868Y-71039781D01*
X141547646Y-71034701D01*
X141547646Y-71034699D01*
X141550500Y-71004269D01*
X141550500Y-69995730D01*
X141949500Y-69995730D01*
X141949500Y-71004269D01*
X141952353Y-71034699D01*
X141952353Y-71034701D01*
X141997206Y-71162880D01*
X141997207Y-71162882D01*
X142077850Y-71272150D01*
X142187118Y-71352793D01*
X142229845Y-71367744D01*
X142315299Y-71397646D01*
X142345730Y-71400500D01*
X142345734Y-71400500D01*
X142979270Y-71400500D01*
X143009699Y-71397646D01*
X143009701Y-71397646D01*
X143073790Y-71375219D01*
X143137882Y-71352793D01*
X143247150Y-71272150D01*
X143327793Y-71162882D01*
X143370868Y-71039781D01*
X143372646Y-71034701D01*
X143372646Y-71034699D01*
X143375500Y-71004269D01*
X143375500Y-70949500D01*
X143395185Y-70882461D01*
X143447989Y-70836706D01*
X143499500Y-70825500D01*
X143750500Y-70825500D01*
X143817539Y-70845185D01*
X143863294Y-70897989D01*
X143874500Y-70949500D01*
X143874500Y-71009768D01*
X143877313Y-71039769D01*
X143877315Y-71039781D01*
X143921544Y-71166178D01*
X143921545Y-71166180D01*
X144001069Y-71273930D01*
X144108819Y-71353454D01*
X144108821Y-71353455D01*
X144235218Y-71397684D01*
X144235222Y-71397684D01*
X144235226Y-71397686D01*
X144250231Y-71399093D01*
X144265232Y-71400500D01*
X144265236Y-71400500D01*
X144859768Y-71400500D01*
X144873101Y-71399249D01*
X144889774Y-71397686D01*
X144889778Y-71397684D01*
X144889781Y-71397684D01*
X144960845Y-71372816D01*
X145016179Y-71353455D01*
X145123930Y-71273930D01*
X145203455Y-71166179D01*
X145247686Y-71039774D01*
X145250500Y-71009764D01*
X145250500Y-69990236D01*
X145247686Y-69960226D01*
X145247684Y-69960222D01*
X145247684Y-69960218D01*
X145203455Y-69833821D01*
X145203454Y-69833819D01*
X145123930Y-69726069D01*
X145016180Y-69646545D01*
X145016178Y-69646544D01*
X144889781Y-69602315D01*
X144889769Y-69602313D01*
X144859768Y-69599500D01*
X144859764Y-69599500D01*
X144265236Y-69599500D01*
X144265232Y-69599500D01*
X144235230Y-69602313D01*
X144235218Y-69602315D01*
X144108821Y-69646544D01*
X144108819Y-69646545D01*
X144001069Y-69726069D01*
X143921545Y-69833819D01*
X143921544Y-69833821D01*
X143877315Y-69960218D01*
X143877313Y-69960230D01*
X143874500Y-69990231D01*
X143874500Y-70050500D01*
X143854815Y-70117539D01*
X143802011Y-70163294D01*
X143750500Y-70174500D01*
X143499500Y-70174500D01*
X143432461Y-70154815D01*
X143386706Y-70102011D01*
X143375500Y-70050500D01*
X143375500Y-69995730D01*
X143372646Y-69965300D01*
X143372646Y-69965298D01*
X143327793Y-69837119D01*
X143327792Y-69837117D01*
X143247150Y-69727850D01*
X143137882Y-69647207D01*
X143137880Y-69647206D01*
X143009700Y-69602353D01*
X142979270Y-69599500D01*
X142979266Y-69599500D01*
X142345734Y-69599500D01*
X142345730Y-69599500D01*
X142315300Y-69602353D01*
X142315298Y-69602353D01*
X142187119Y-69647206D01*
X142187117Y-69647207D01*
X142077850Y-69727850D01*
X141997207Y-69837117D01*
X141997206Y-69837119D01*
X141952353Y-69965298D01*
X141952353Y-69965300D01*
X141949500Y-69995730D01*
X141550500Y-69995730D01*
X141547646Y-69965300D01*
X141547646Y-69965298D01*
X141502793Y-69837119D01*
X141502792Y-69837117D01*
X141422150Y-69727850D01*
X141312882Y-69647207D01*
X141312880Y-69647206D01*
X141184700Y-69602353D01*
X141154270Y-69599500D01*
X141154266Y-69599500D01*
X140520734Y-69599500D01*
X140520730Y-69599500D01*
X140490300Y-69602353D01*
X140490298Y-69602353D01*
X140362119Y-69647206D01*
X140362117Y-69647207D01*
X140252850Y-69727850D01*
X140172207Y-69837117D01*
X140172206Y-69837119D01*
X140127353Y-69965298D01*
X140127353Y-69965300D01*
X140124500Y-69995730D01*
X140124500Y-70050499D01*
X140104815Y-70117538D01*
X140052011Y-70163293D01*
X140000500Y-70174499D01*
X139957147Y-70174499D01*
X139901956Y-70189287D01*
X139874360Y-70196682D01*
X139855805Y-70207395D01*
X139837250Y-70218108D01*
X139800138Y-70239535D01*
X139800135Y-70239537D01*
X138139537Y-71900135D01*
X138139533Y-71900141D01*
X138096681Y-71974361D01*
X138096682Y-71974362D01*
X138074500Y-72057147D01*
X138074500Y-74375500D01*
X138054815Y-74442539D01*
X138002011Y-74488294D01*
X137950500Y-74499500D01*
X137530247Y-74499500D01*
X137471770Y-74511131D01*
X137471770Y-74511132D01*
X137443390Y-74530095D01*
X137376713Y-74550972D01*
X137309333Y-74532487D01*
X137262643Y-74480508D01*
X137250500Y-74426992D01*
X137250500Y-70006092D01*
X137251097Y-69993939D01*
X137253917Y-69965301D01*
X137263704Y-69865928D01*
X137268442Y-69842104D01*
X137304010Y-69724855D01*
X137313306Y-69702413D01*
X137371061Y-69594363D01*
X137384556Y-69574165D01*
X137462279Y-69479458D01*
X137479458Y-69462279D01*
X137574165Y-69384556D01*
X137594363Y-69371061D01*
X137702413Y-69313306D01*
X137724855Y-69304010D01*
X137842104Y-69268442D01*
X137865928Y-69263704D01*
X137984614Y-69252015D01*
X137993939Y-69251097D01*
X138006092Y-69250500D01*
X138044170Y-69250500D01*
X162455830Y-69250500D01*
X162493908Y-69250500D01*
X162506061Y-69251097D01*
G37*
G04 #@! TD.AperFunction*
G04 #@! TA.AperFunction,Conductor*
G36*
X137455703Y-96349243D02*
G01*
X137483856Y-96384500D01*
X137522315Y-96456450D01*
X137551039Y-96491450D01*
X137653589Y-96616410D01*
X137750209Y-96695702D01*
X137813550Y-96747685D01*
X137996046Y-96845232D01*
X138194066Y-96905300D01*
X138194065Y-96905300D01*
X138212529Y-96907118D01*
X138400000Y-96925583D01*
X138605934Y-96905300D01*
X138803954Y-96845232D01*
X138986450Y-96747685D01*
X139146410Y-96616410D01*
X139204646Y-96545449D01*
X139262392Y-96506114D01*
X139332237Y-96504243D01*
X139392005Y-96540430D01*
X139422721Y-96603186D01*
X139424500Y-96624113D01*
X139424500Y-97506983D01*
X139404815Y-97574022D01*
X139352011Y-97619777D01*
X139282853Y-97629721D01*
X139219297Y-97600696D01*
X139216962Y-97598620D01*
X139095999Y-97488348D01*
X139095997Y-97488346D01*
X138914798Y-97376153D01*
X138914789Y-97376149D01*
X138716063Y-97299163D01*
X138716058Y-97299162D01*
X138650000Y-97286813D01*
X138650000Y-97976988D01*
X138592993Y-97944075D01*
X138465826Y-97910000D01*
X138334174Y-97910000D01*
X138207007Y-97944075D01*
X138150000Y-97976988D01*
X138150000Y-97286813D01*
X138083941Y-97299162D01*
X138083936Y-97299163D01*
X137885210Y-97376149D01*
X137885201Y-97376153D01*
X137704002Y-97488346D01*
X137704000Y-97488348D01*
X137546500Y-97631928D01*
X137473454Y-97728657D01*
X137417344Y-97770293D01*
X137347632Y-97774984D01*
X137286451Y-97741242D01*
X137253224Y-97679778D01*
X137250500Y-97653930D01*
X137250500Y-96442956D01*
X137270185Y-96375917D01*
X137322989Y-96330162D01*
X137392147Y-96320218D01*
X137455703Y-96349243D01*
G37*
G04 #@! TD.AperFunction*
M02*
