G04 #@! TF.GenerationSoftware,KiCad,Pcbnew,8.0.3*
G04 #@! TF.CreationDate,2024-07-18T13:22:42+02:00*
G04 #@! TF.ProjectId,vpp-maker-rev6-ian,7670702d-6d61-46b6-9572-2d726576362d,rev?*
G04 #@! TF.SameCoordinates,Original*
G04 #@! TF.FileFunction,Paste,Top*
G04 #@! TF.FilePolarity,Positive*
%FSLAX46Y46*%
G04 Gerber Fmt 4.6, Leading zero omitted, Abs format (unit mm)*
G04 Created by KiCad (PCBNEW 8.0.3) date 2024-07-18 13:22:42*
%MOMM*%
%LPD*%
G01*
G04 APERTURE LIST*
G04 Aperture macros list*
%AMRoundRect*
0 Rectangle with rounded corners*
0 $1 Rounding radius*
0 $2 $3 $4 $5 $6 $7 $8 $9 X,Y pos of 4 corners*
0 Add a 4 corners polygon primitive as box body*
4,1,4,$2,$3,$4,$5,$6,$7,$8,$9,$2,$3,0*
0 Add four circle primitives for the rounded corners*
1,1,$1+$1,$2,$3*
1,1,$1+$1,$4,$5*
1,1,$1+$1,$6,$7*
1,1,$1+$1,$8,$9*
0 Add four rect primitives between the rounded corners*
20,1,$1+$1,$2,$3,$4,$5,0*
20,1,$1+$1,$4,$5,$6,$7,0*
20,1,$1+$1,$6,$7,$8,$9,0*
20,1,$1+$1,$8,$9,$2,$3,0*%
G04 Aperture macros list end*
%ADD10C,0.000000*%
%ADD11RoundRect,0.150000X0.150000X-0.587500X0.150000X0.587500X-0.150000X0.587500X-0.150000X-0.587500X0*%
%ADD12RoundRect,0.150000X-0.150000X0.587500X-0.150000X-0.587500X0.150000X-0.587500X0.150000X0.587500X0*%
%ADD13RoundRect,0.243750X0.243750X0.456250X-0.243750X0.456250X-0.243750X-0.456250X0.243750X-0.456250X0*%
%ADD14RoundRect,0.250000X-0.475000X0.337500X-0.475000X-0.337500X0.475000X-0.337500X0.475000X0.337500X0*%
%ADD15RoundRect,0.225000X0.225000X0.375000X-0.225000X0.375000X-0.225000X-0.375000X0.225000X-0.375000X0*%
%ADD16RoundRect,0.250000X0.450000X-0.262500X0.450000X0.262500X-0.450000X0.262500X-0.450000X-0.262500X0*%
%ADD17RoundRect,0.250000X-0.450000X0.262500X-0.450000X-0.262500X0.450000X-0.262500X0.450000X0.262500X0*%
%ADD18RoundRect,0.250000X0.262500X0.450000X-0.262500X0.450000X-0.262500X-0.450000X0.262500X-0.450000X0*%
%ADD19RoundRect,0.250000X-0.425000X0.450000X-0.425000X-0.450000X0.425000X-0.450000X0.425000X0.450000X0*%
%ADD20RoundRect,0.250000X-0.262500X-0.450000X0.262500X-0.450000X0.262500X0.450000X-0.262500X0.450000X0*%
%ADD21RoundRect,0.250000X0.787500X1.025000X-0.787500X1.025000X-0.787500X-1.025000X0.787500X-1.025000X0*%
%ADD22RoundRect,0.150000X-0.587500X-0.150000X0.587500X-0.150000X0.587500X0.150000X-0.587500X0.150000X0*%
%ADD23R,5.500000X2.150000*%
%ADD24RoundRect,0.225000X-0.375000X0.225000X-0.375000X-0.225000X0.375000X-0.225000X0.375000X0.225000X0*%
G04 APERTURE END LIST*
D10*
G36*
X153849999Y-78702000D02*
G01*
X148649999Y-78702000D01*
X148649999Y-76502000D01*
X153849999Y-76502000D01*
X153849999Y-78702000D01*
G37*
G36*
X153849999Y-82447000D02*
G01*
X148649999Y-82447000D01*
X148649999Y-80247000D01*
X153849999Y-80247000D01*
X153849999Y-82447000D01*
G37*
D11*
X147550000Y-98437500D03*
X149450000Y-98437500D03*
X148500000Y-96562500D03*
D12*
X153400000Y-83562500D03*
X151500000Y-83562500D03*
X152450000Y-85437500D03*
D13*
X146437500Y-70500000D03*
X144562500Y-70500000D03*
D14*
X145059864Y-76462500D03*
X145059864Y-78537500D03*
D15*
X149300000Y-85000000D03*
X146000000Y-85000000D03*
D16*
X156000000Y-101825000D03*
X156000000Y-100000000D03*
D11*
X152050000Y-98500000D03*
X153950000Y-98500000D03*
X153000000Y-96625000D03*
D17*
X149912500Y-100500000D03*
X149912500Y-102325000D03*
D18*
X148412500Y-87500000D03*
X146587500Y-87500000D03*
D19*
X147102685Y-75787256D03*
X147102685Y-78487256D03*
D20*
X152087500Y-94500000D03*
X153912500Y-94500000D03*
D21*
X153112500Y-91000000D03*
X146887500Y-91000000D03*
D22*
X152062500Y-100550000D03*
X152062500Y-102450000D03*
X153937500Y-101500000D03*
X145312528Y-80232666D03*
X145312528Y-82132666D03*
X147187528Y-81182666D03*
D23*
X151249999Y-77575000D03*
X151249999Y-81425000D03*
D18*
X152412500Y-87500000D03*
X150587500Y-87500000D03*
D20*
X140837500Y-70500000D03*
X142662500Y-70500000D03*
D24*
X156000000Y-94850000D03*
X156000000Y-98150000D03*
D20*
X148587500Y-94500000D03*
X150412500Y-94500000D03*
D18*
X146912500Y-100500000D03*
X145087500Y-100500000D03*
M02*
