G04 #@! TF.GenerationSoftware,KiCad,Pcbnew,(5.1.10)-1*
G04 #@! TF.CreationDate,2023-09-12T17:10:13+08:00*
G04 #@! TF.ProjectId,BusPirate-5-rev8,42757350-6972-4617-9465-2d352d726576,rev?*
G04 #@! TF.SameCoordinates,Original*
G04 #@! TF.FileFunction,Profile,NP*
%FSLAX46Y46*%
G04 Gerber Fmt 4.6, Leading zero omitted, Abs format (unit mm)*
G04 Created by KiCad (PCBNEW (5.1.10)-1) date 2023-09-12 17:10:13*
%MOMM*%
%LPD*%
G01*
G04 APERTURE LIST*
G04 #@! TA.AperFunction,Profile*
%ADD10C,0.050000*%
G04 #@! TD*
G04 APERTURE END LIST*
D10*
X89900000Y-116100000D02*
X89900000Y-130100000D01*
X89900000Y-64100000D02*
X89900000Y-116100000D01*
X89900000Y-50100000D02*
X89900000Y-64100000D01*
X144650000Y-119650000D02*
X144650000Y-119550000D01*
X144750000Y-119650000D02*
X144650000Y-119650000D01*
X148150000Y-119650000D02*
X148050000Y-119650000D01*
X148150000Y-119550000D02*
X148150000Y-119650000D01*
X148150000Y-116550000D02*
X148150000Y-116650000D01*
X148050000Y-116550000D02*
X148150000Y-116550000D01*
X144650000Y-116550000D02*
X144750000Y-116550000D01*
X144650000Y-116650000D02*
X144650000Y-116550000D01*
X111650000Y-119650000D02*
X111650000Y-119550000D01*
X111750000Y-119650000D02*
X111650000Y-119650000D01*
X115150000Y-119650000D02*
X115050000Y-119650000D01*
X115150000Y-119550000D02*
X115150000Y-119650000D01*
X115150000Y-116550000D02*
X115150000Y-116650000D01*
X115050000Y-116550000D02*
X115150000Y-116550000D01*
X111650000Y-116550000D02*
X111750000Y-116550000D01*
X111650000Y-116650000D02*
X111650000Y-116550000D01*
X100350000Y-108350000D02*
X100350000Y-108250000D01*
X100450000Y-108350000D02*
X100350000Y-108350000D01*
X103450000Y-108350000D02*
X103350000Y-108350000D01*
X103450000Y-108250000D02*
X103450000Y-108350000D01*
X100350000Y-104850000D02*
X100450000Y-104850000D01*
X100350000Y-104950000D02*
X100350000Y-104850000D01*
X103450000Y-104850000D02*
X103450000Y-104950000D01*
X103350000Y-104850000D02*
X103450000Y-104850000D01*
X100350000Y-91850000D02*
X100350000Y-91750000D01*
X100450000Y-91850000D02*
X100350000Y-91850000D01*
X103450000Y-91850000D02*
X103350000Y-91850000D01*
X103450000Y-91750000D02*
X103450000Y-91850000D01*
X103450000Y-88350000D02*
X103450000Y-88450000D01*
X103350000Y-88350000D02*
X103450000Y-88350000D01*
X100350000Y-88350000D02*
X100450000Y-88350000D01*
X100350000Y-88450000D02*
X100350000Y-88350000D01*
X100350000Y-75350000D02*
X100350000Y-75250000D01*
X100450000Y-75350000D02*
X100350000Y-75350000D01*
X103450000Y-75350000D02*
X103350000Y-75350000D01*
X103450000Y-75250000D02*
X103450000Y-75350000D01*
X103450000Y-71850000D02*
X103450000Y-71950000D01*
X103350000Y-71850000D02*
X103450000Y-71850000D01*
X100350000Y-71850000D02*
X100450000Y-71850000D01*
X100350000Y-71950000D02*
X100350000Y-71850000D01*
X156350000Y-104850000D02*
X156450000Y-104850000D01*
X156350000Y-104950000D02*
X156350000Y-104850000D01*
X156350000Y-108350000D02*
X156350000Y-108250000D01*
X156450000Y-108350000D02*
X156350000Y-108350000D01*
X159450000Y-108350000D02*
X159350000Y-108350000D01*
X159450000Y-108250000D02*
X159450000Y-108350000D01*
X159450000Y-104850000D02*
X159450000Y-104950000D01*
X159350000Y-104850000D02*
X159450000Y-104850000D01*
X156350000Y-75350000D02*
X156350000Y-75250000D01*
X156450000Y-75350000D02*
X156350000Y-75350000D01*
X159450000Y-75350000D02*
X159350000Y-75350000D01*
X159450000Y-75250000D02*
X159450000Y-75350000D01*
X156350000Y-71850000D02*
X156450000Y-71850000D01*
X156350000Y-71950000D02*
X156350000Y-71850000D01*
X159450000Y-71850000D02*
X159450000Y-71950000D01*
X159350000Y-71850000D02*
X159450000Y-71850000D01*
X111650000Y-63650000D02*
X111650000Y-63550000D01*
X111750000Y-63650000D02*
X111650000Y-63650000D01*
X115150000Y-63650000D02*
X115050000Y-63650000D01*
X115150000Y-63550000D02*
X115150000Y-63650000D01*
X115150000Y-60550000D02*
X115150000Y-60650000D01*
X115050000Y-60550000D02*
X115150000Y-60550000D01*
X111650000Y-60550000D02*
X111650000Y-60650000D01*
X111750000Y-60550000D02*
X111650000Y-60550000D01*
X144650000Y-63650000D02*
X144750000Y-63650000D01*
X144650000Y-63550000D02*
X144650000Y-63650000D01*
X148150000Y-63650000D02*
X148050000Y-63650000D01*
X148150000Y-63550000D02*
X148150000Y-63650000D01*
X144650000Y-60550000D02*
X144650000Y-60650000D01*
X148150000Y-60550000D02*
X148150000Y-60650000D01*
X148050000Y-60550000D02*
X148150000Y-60550000D01*
X99650000Y-125100000D02*
X160150000Y-125100000D01*
X160150000Y-50100000D02*
X160150000Y-130100000D01*
X89900000Y-130100000D02*
X169900000Y-130100000D01*
X169900000Y-116100000D02*
X169900000Y-130100000D01*
X169900000Y-50100000D02*
X169900000Y-64100000D01*
X99650000Y-55100000D02*
X160150000Y-55100000D01*
X89900000Y-50100000D02*
X169900000Y-50100000D01*
X159900000Y-116100000D02*
X160150000Y-116100000D01*
X159900000Y-64100000D02*
X160150000Y-64100000D01*
X99650000Y-116100000D02*
X99900000Y-116100000D01*
X99650000Y-64100000D02*
X99900000Y-64100000D01*
X169900000Y-64100000D02*
X169900000Y-116100000D01*
X103350000Y-108350000D02*
X100450000Y-108350000D01*
X103350000Y-104850000D02*
X100450000Y-104850000D01*
X103450000Y-104950000D02*
X103450000Y-108250000D01*
X100350000Y-104950000D02*
X100350000Y-108250000D01*
X103350000Y-91850000D02*
X100450000Y-91850000D01*
X103350000Y-88350000D02*
X100450000Y-88350000D01*
X100350000Y-88450000D02*
X100350000Y-91750000D01*
X103450000Y-88450000D02*
X103450000Y-91750000D01*
X103350000Y-75350000D02*
X100450000Y-75350000D01*
X103350000Y-71850000D02*
X100450000Y-71850000D01*
X103450000Y-71950000D02*
X103450000Y-75250000D01*
X100350000Y-71950000D02*
X100350000Y-75250000D01*
X111650000Y-116650000D02*
X111650000Y-119550000D01*
X115150000Y-116650000D02*
X115150000Y-119550000D01*
X115050000Y-116550000D02*
X111750000Y-116550000D01*
X115050000Y-119650000D02*
X111750000Y-119650000D01*
X144650000Y-116650000D02*
X144650000Y-119550000D01*
X148150000Y-116650000D02*
X148150000Y-119550000D01*
X148050000Y-116550000D02*
X144750000Y-116550000D01*
X148050000Y-119650000D02*
X144750000Y-119650000D01*
X111650000Y-60650000D02*
X111650000Y-63550000D01*
X115150000Y-60650000D02*
X115150000Y-63550000D01*
X115050000Y-63650000D02*
X111750000Y-63650000D01*
X115050000Y-60550000D02*
X111750000Y-60550000D01*
X144650000Y-60650000D02*
X144650000Y-63550000D01*
X148150000Y-60650000D02*
X148150000Y-63550000D01*
X148050000Y-60550000D02*
X144650000Y-60550000D01*
X148050000Y-63650000D02*
X144750000Y-63650000D01*
X159350000Y-108350000D02*
X156450000Y-108350000D01*
X159350000Y-104850000D02*
X156450000Y-104850000D01*
X159450000Y-104950000D02*
X159450000Y-108250000D01*
X156350000Y-104950000D02*
X156350000Y-108250000D01*
X159350000Y-75350000D02*
X156450000Y-75350000D01*
X159350000Y-71850000D02*
X156450000Y-71850000D01*
X156350000Y-71950000D02*
X156350000Y-75250000D01*
X159450000Y-71950000D02*
X159450000Y-75250000D01*
X104900000Y-64100000D02*
G75*
G03*
X104900000Y-64100000I-1000000J0D01*
G01*
X103900000Y-120100000D02*
G75*
G02*
X99900000Y-116100000I0J4000000D01*
G01*
X159900000Y-116100000D02*
G75*
G02*
X155900000Y-120100000I-4000000J0D01*
G01*
X155900000Y-60100000D02*
G75*
G02*
X159900000Y-64100000I0J-4000000D01*
G01*
X104900000Y-116100000D02*
G75*
G03*
X104900000Y-116100000I-1000000J0D01*
G01*
X156900000Y-116100000D02*
G75*
G03*
X156900000Y-116100000I-1000000J0D01*
G01*
X156900000Y-64100000D02*
G75*
G03*
X156900000Y-64100000I-1000000J0D01*
G01*
X99900000Y-64100000D02*
G75*
G02*
X103900000Y-60100000I4000000J0D01*
G01*
X99650000Y-50100000D02*
X99650000Y-130100000D01*
X103900000Y-120100000D02*
X155900000Y-120100000D01*
X155900000Y-60100000D02*
X103900000Y-60100000D01*
M02*
