G04 #@! TF.GenerationSoftware,KiCad,Pcbnew,(5.1.10)-1*
G04 #@! TF.CreationDate,2023-09-12T17:10:12+08:00*
G04 #@! TF.ProjectId,BusPirate-5-rev8,42757350-6972-4617-9465-2d352d726576,rev?*
G04 #@! TF.SameCoordinates,Original*
G04 #@! TF.FileFunction,Paste,Top*
G04 #@! TF.FilePolarity,Positive*
%FSLAX46Y46*%
G04 Gerber Fmt 4.6, Leading zero omitted, Abs format (unit mm)*
G04 Created by KiCad (PCBNEW (5.1.10)-1) date 2023-09-12 17:10:12*
%MOMM*%
%LPD*%
G01*
G04 APERTURE LIST*
%ADD10R,0.600000X1.450000*%
%ADD11R,0.300000X1.450000*%
%ADD12R,0.400000X0.500000*%
%ADD13R,0.300000X0.500000*%
%ADD14R,1.060000X0.650000*%
%ADD15R,0.450000X0.600000*%
%ADD16R,0.500000X0.400000*%
%ADD17R,0.500000X0.300000*%
%ADD18C,0.100000*%
%ADD19R,0.430000X1.150000*%
%ADD20R,1.150000X0.430000*%
%ADD21R,0.738000X0.945000*%
%ADD22R,0.945000X0.738000*%
%ADD23R,0.400000X0.650000*%
%ADD24R,1.300000X0.700000*%
%ADD25R,1.400000X1.200000*%
%ADD26R,2.000000X1.200000*%
%ADD27R,0.600000X0.450000*%
%ADD28R,0.650000X0.400000*%
%ADD29R,0.800000X0.900000*%
%ADD30R,0.900000X0.800000*%
%ADD31R,0.900000X1.300000*%
G04 APERTURE END LIST*
D10*
X126650000Y-66595000D03*
X127450000Y-66595000D03*
D11*
X128150000Y-66595000D03*
X128650000Y-66595000D03*
X129150000Y-66595000D03*
X129650000Y-66595000D03*
X131650000Y-66595000D03*
X131150000Y-66595000D03*
X130650000Y-66595000D03*
X130150000Y-66595000D03*
D10*
X132350000Y-66595000D03*
X133150000Y-66595000D03*
D12*
X122950000Y-92900000D03*
D13*
X122450000Y-92900000D03*
D12*
X121450000Y-92900000D03*
D13*
X121950000Y-92900000D03*
D12*
X122950000Y-93900000D03*
D13*
X121950000Y-93900000D03*
X122450000Y-93900000D03*
D12*
X121450000Y-93900000D03*
X127080000Y-109650000D03*
D13*
X127580000Y-109650000D03*
D12*
X128580000Y-109650000D03*
D13*
X128080000Y-109650000D03*
D12*
X127080000Y-108650000D03*
D13*
X128080000Y-108650000D03*
X127580000Y-108650000D03*
D12*
X128580000Y-108650000D03*
X129740000Y-109650000D03*
D13*
X130240000Y-109650000D03*
D12*
X131240000Y-109650000D03*
D13*
X130740000Y-109650000D03*
D12*
X129740000Y-108650000D03*
D13*
X130740000Y-108650000D03*
X130240000Y-108650000D03*
D12*
X131240000Y-108650000D03*
X142300000Y-108250000D03*
D13*
X141800000Y-108250000D03*
D12*
X140800000Y-108250000D03*
D13*
X141300000Y-108250000D03*
D12*
X142300000Y-109250000D03*
D13*
X141300000Y-109250000D03*
X141800000Y-109250000D03*
D12*
X140800000Y-109250000D03*
X119000000Y-108650000D03*
D13*
X118500000Y-108650000D03*
D12*
X117500000Y-108650000D03*
D13*
X118000000Y-108650000D03*
D12*
X119000000Y-109650000D03*
D13*
X118000000Y-109650000D03*
X118500000Y-109650000D03*
D12*
X117500000Y-109650000D03*
G36*
G01*
X111070000Y-67450000D02*
X110730000Y-67450000D01*
G75*
G02*
X110590000Y-67310000I0J140000D01*
G01*
X110590000Y-67030000D01*
G75*
G02*
X110730000Y-66890000I140000J0D01*
G01*
X111070000Y-66890000D01*
G75*
G02*
X111210000Y-67030000I0J-140000D01*
G01*
X111210000Y-67310000D01*
G75*
G02*
X111070000Y-67450000I-140000J0D01*
G01*
G37*
G36*
G01*
X111070000Y-68410000D02*
X110730000Y-68410000D01*
G75*
G02*
X110590000Y-68270000I0J140000D01*
G01*
X110590000Y-67990000D01*
G75*
G02*
X110730000Y-67850000I140000J0D01*
G01*
X111070000Y-67850000D01*
G75*
G02*
X111210000Y-67990000I0J-140000D01*
G01*
X111210000Y-68270000D01*
G75*
G02*
X111070000Y-68410000I-140000J0D01*
G01*
G37*
G36*
G01*
X143560000Y-75115000D02*
X143560000Y-75485000D01*
G75*
G02*
X143425000Y-75620000I-135000J0D01*
G01*
X143155000Y-75620000D01*
G75*
G02*
X143020000Y-75485000I0J135000D01*
G01*
X143020000Y-75115000D01*
G75*
G02*
X143155000Y-74980000I135000J0D01*
G01*
X143425000Y-74980000D01*
G75*
G02*
X143560000Y-75115000I0J-135000D01*
G01*
G37*
G36*
G01*
X144580000Y-75115000D02*
X144580000Y-75485000D01*
G75*
G02*
X144445000Y-75620000I-135000J0D01*
G01*
X144175000Y-75620000D01*
G75*
G02*
X144040000Y-75485000I0J135000D01*
G01*
X144040000Y-75115000D01*
G75*
G02*
X144175000Y-74980000I135000J0D01*
G01*
X144445000Y-74980000D01*
G75*
G02*
X144580000Y-75115000I0J-135000D01*
G01*
G37*
D14*
X138650000Y-73050000D03*
X138650000Y-74950000D03*
X136450000Y-74950000D03*
X136450000Y-74000000D03*
X136450000Y-73050000D03*
G36*
G01*
X136360000Y-76265000D02*
X136360000Y-76635000D01*
G75*
G02*
X136225000Y-76770000I-135000J0D01*
G01*
X135955000Y-76770000D01*
G75*
G02*
X135820000Y-76635000I0J135000D01*
G01*
X135820000Y-76265000D01*
G75*
G02*
X135955000Y-76130000I135000J0D01*
G01*
X136225000Y-76130000D01*
G75*
G02*
X136360000Y-76265000I0J-135000D01*
G01*
G37*
G36*
G01*
X137380000Y-76265000D02*
X137380000Y-76635000D01*
G75*
G02*
X137245000Y-76770000I-135000J0D01*
G01*
X136975000Y-76770000D01*
G75*
G02*
X136840000Y-76635000I0J135000D01*
G01*
X136840000Y-76265000D01*
G75*
G02*
X136975000Y-76130000I135000J0D01*
G01*
X137245000Y-76130000D01*
G75*
G02*
X137380000Y-76265000I0J-135000D01*
G01*
G37*
G36*
G01*
X134715000Y-75460000D02*
X135085000Y-75460000D01*
G75*
G02*
X135220000Y-75595000I0J-135000D01*
G01*
X135220000Y-75865000D01*
G75*
G02*
X135085000Y-76000000I-135000J0D01*
G01*
X134715000Y-76000000D01*
G75*
G02*
X134580000Y-75865000I0J135000D01*
G01*
X134580000Y-75595000D01*
G75*
G02*
X134715000Y-75460000I135000J0D01*
G01*
G37*
G36*
G01*
X134715000Y-74440000D02*
X135085000Y-74440000D01*
G75*
G02*
X135220000Y-74575000I0J-135000D01*
G01*
X135220000Y-74845000D01*
G75*
G02*
X135085000Y-74980000I-135000J0D01*
G01*
X134715000Y-74980000D01*
G75*
G02*
X134580000Y-74845000I0J135000D01*
G01*
X134580000Y-74575000D01*
G75*
G02*
X134715000Y-74440000I135000J0D01*
G01*
G37*
G36*
G01*
X140400000Y-75130000D02*
X140400000Y-75470000D01*
G75*
G02*
X140260000Y-75610000I-140000J0D01*
G01*
X139980000Y-75610000D01*
G75*
G02*
X139840000Y-75470000I0J140000D01*
G01*
X139840000Y-75130000D01*
G75*
G02*
X139980000Y-74990000I140000J0D01*
G01*
X140260000Y-74990000D01*
G75*
G02*
X140400000Y-75130000I0J-140000D01*
G01*
G37*
G36*
G01*
X141360000Y-75130000D02*
X141360000Y-75470000D01*
G75*
G02*
X141220000Y-75610000I-140000J0D01*
G01*
X140940000Y-75610000D01*
G75*
G02*
X140800000Y-75470000I0J140000D01*
G01*
X140800000Y-75130000D01*
G75*
G02*
X140940000Y-74990000I140000J0D01*
G01*
X141220000Y-74990000D01*
G75*
G02*
X141360000Y-75130000I0J-140000D01*
G01*
G37*
G36*
G01*
X134730000Y-73300000D02*
X135070000Y-73300000D01*
G75*
G02*
X135210000Y-73440000I0J-140000D01*
G01*
X135210000Y-73720000D01*
G75*
G02*
X135070000Y-73860000I-140000J0D01*
G01*
X134730000Y-73860000D01*
G75*
G02*
X134590000Y-73720000I0J140000D01*
G01*
X134590000Y-73440000D01*
G75*
G02*
X134730000Y-73300000I140000J0D01*
G01*
G37*
G36*
G01*
X134730000Y-72340000D02*
X135070000Y-72340000D01*
G75*
G02*
X135210000Y-72480000I0J-140000D01*
G01*
X135210000Y-72760000D01*
G75*
G02*
X135070000Y-72900000I-140000J0D01*
G01*
X134730000Y-72900000D01*
G75*
G02*
X134590000Y-72760000I0J140000D01*
G01*
X134590000Y-72480000D01*
G75*
G02*
X134730000Y-72340000I140000J0D01*
G01*
G37*
G36*
G01*
X140400000Y-73930000D02*
X140400000Y-74270000D01*
G75*
G02*
X140260000Y-74410000I-140000J0D01*
G01*
X139980000Y-74410000D01*
G75*
G02*
X139840000Y-74270000I0J140000D01*
G01*
X139840000Y-73930000D01*
G75*
G02*
X139980000Y-73790000I140000J0D01*
G01*
X140260000Y-73790000D01*
G75*
G02*
X140400000Y-73930000I0J-140000D01*
G01*
G37*
G36*
G01*
X141360000Y-73930000D02*
X141360000Y-74270000D01*
G75*
G02*
X141220000Y-74410000I-140000J0D01*
G01*
X140940000Y-74410000D01*
G75*
G02*
X140800000Y-74270000I0J140000D01*
G01*
X140800000Y-73930000D01*
G75*
G02*
X140940000Y-73790000I140000J0D01*
G01*
X141220000Y-73790000D01*
G75*
G02*
X141360000Y-73930000I0J-140000D01*
G01*
G37*
G36*
G01*
X140800000Y-73220000D02*
X140800000Y-72880000D01*
G75*
G02*
X140940000Y-72740000I140000J0D01*
G01*
X141220000Y-72740000D01*
G75*
G02*
X141360000Y-72880000I0J-140000D01*
G01*
X141360000Y-73220000D01*
G75*
G02*
X141220000Y-73360000I-140000J0D01*
G01*
X140940000Y-73360000D01*
G75*
G02*
X140800000Y-73220000I0J140000D01*
G01*
G37*
G36*
G01*
X139840000Y-73220000D02*
X139840000Y-72880000D01*
G75*
G02*
X139980000Y-72740000I140000J0D01*
G01*
X140260000Y-72740000D01*
G75*
G02*
X140400000Y-72880000I0J-140000D01*
G01*
X140400000Y-73220000D01*
G75*
G02*
X140260000Y-73360000I-140000J0D01*
G01*
X139980000Y-73360000D01*
G75*
G02*
X139840000Y-73220000I0J140000D01*
G01*
G37*
D15*
X112800000Y-93250000D03*
X112800000Y-91150000D03*
X112570000Y-79300000D03*
X112570000Y-77200000D03*
G36*
G01*
X119275000Y-97375000D02*
X119475000Y-97375000D01*
G75*
G02*
X119575000Y-97475000I0J-100000D01*
G01*
X119575000Y-98750000D01*
G75*
G02*
X119475000Y-98850000I-100000J0D01*
G01*
X119275000Y-98850000D01*
G75*
G02*
X119175000Y-98750000I0J100000D01*
G01*
X119175000Y-97475000D01*
G75*
G02*
X119275000Y-97375000I100000J0D01*
G01*
G37*
G36*
G01*
X118625000Y-97375000D02*
X118825000Y-97375000D01*
G75*
G02*
X118925000Y-97475000I0J-100000D01*
G01*
X118925000Y-98750000D01*
G75*
G02*
X118825000Y-98850000I-100000J0D01*
G01*
X118625000Y-98850000D01*
G75*
G02*
X118525000Y-98750000I0J100000D01*
G01*
X118525000Y-97475000D01*
G75*
G02*
X118625000Y-97375000I100000J0D01*
G01*
G37*
G36*
G01*
X117975000Y-97375000D02*
X118175000Y-97375000D01*
G75*
G02*
X118275000Y-97475000I0J-100000D01*
G01*
X118275000Y-98750000D01*
G75*
G02*
X118175000Y-98850000I-100000J0D01*
G01*
X117975000Y-98850000D01*
G75*
G02*
X117875000Y-98750000I0J100000D01*
G01*
X117875000Y-97475000D01*
G75*
G02*
X117975000Y-97375000I100000J0D01*
G01*
G37*
G36*
G01*
X117325000Y-97375000D02*
X117525000Y-97375000D01*
G75*
G02*
X117625000Y-97475000I0J-100000D01*
G01*
X117625000Y-98750000D01*
G75*
G02*
X117525000Y-98850000I-100000J0D01*
G01*
X117325000Y-98850000D01*
G75*
G02*
X117225000Y-98750000I0J100000D01*
G01*
X117225000Y-97475000D01*
G75*
G02*
X117325000Y-97375000I100000J0D01*
G01*
G37*
G36*
G01*
X116675000Y-97375000D02*
X116875000Y-97375000D01*
G75*
G02*
X116975000Y-97475000I0J-100000D01*
G01*
X116975000Y-98750000D01*
G75*
G02*
X116875000Y-98850000I-100000J0D01*
G01*
X116675000Y-98850000D01*
G75*
G02*
X116575000Y-98750000I0J100000D01*
G01*
X116575000Y-97475000D01*
G75*
G02*
X116675000Y-97375000I100000J0D01*
G01*
G37*
G36*
G01*
X116025000Y-97375000D02*
X116225000Y-97375000D01*
G75*
G02*
X116325000Y-97475000I0J-100000D01*
G01*
X116325000Y-98750000D01*
G75*
G02*
X116225000Y-98850000I-100000J0D01*
G01*
X116025000Y-98850000D01*
G75*
G02*
X115925000Y-98750000I0J100000D01*
G01*
X115925000Y-97475000D01*
G75*
G02*
X116025000Y-97375000I100000J0D01*
G01*
G37*
G36*
G01*
X115375000Y-97375000D02*
X115575000Y-97375000D01*
G75*
G02*
X115675000Y-97475000I0J-100000D01*
G01*
X115675000Y-98750000D01*
G75*
G02*
X115575000Y-98850000I-100000J0D01*
G01*
X115375000Y-98850000D01*
G75*
G02*
X115275000Y-98750000I0J100000D01*
G01*
X115275000Y-97475000D01*
G75*
G02*
X115375000Y-97375000I100000J0D01*
G01*
G37*
G36*
G01*
X114725000Y-97375000D02*
X114925000Y-97375000D01*
G75*
G02*
X115025000Y-97475000I0J-100000D01*
G01*
X115025000Y-98750000D01*
G75*
G02*
X114925000Y-98850000I-100000J0D01*
G01*
X114725000Y-98850000D01*
G75*
G02*
X114625000Y-98750000I0J100000D01*
G01*
X114625000Y-97475000D01*
G75*
G02*
X114725000Y-97375000I100000J0D01*
G01*
G37*
G36*
G01*
X114725000Y-91650000D02*
X114925000Y-91650000D01*
G75*
G02*
X115025000Y-91750000I0J-100000D01*
G01*
X115025000Y-93025000D01*
G75*
G02*
X114925000Y-93125000I-100000J0D01*
G01*
X114725000Y-93125000D01*
G75*
G02*
X114625000Y-93025000I0J100000D01*
G01*
X114625000Y-91750000D01*
G75*
G02*
X114725000Y-91650000I100000J0D01*
G01*
G37*
G36*
G01*
X115375000Y-91650000D02*
X115575000Y-91650000D01*
G75*
G02*
X115675000Y-91750000I0J-100000D01*
G01*
X115675000Y-93025000D01*
G75*
G02*
X115575000Y-93125000I-100000J0D01*
G01*
X115375000Y-93125000D01*
G75*
G02*
X115275000Y-93025000I0J100000D01*
G01*
X115275000Y-91750000D01*
G75*
G02*
X115375000Y-91650000I100000J0D01*
G01*
G37*
G36*
G01*
X116025000Y-91650000D02*
X116225000Y-91650000D01*
G75*
G02*
X116325000Y-91750000I0J-100000D01*
G01*
X116325000Y-93025000D01*
G75*
G02*
X116225000Y-93125000I-100000J0D01*
G01*
X116025000Y-93125000D01*
G75*
G02*
X115925000Y-93025000I0J100000D01*
G01*
X115925000Y-91750000D01*
G75*
G02*
X116025000Y-91650000I100000J0D01*
G01*
G37*
G36*
G01*
X116675000Y-91650000D02*
X116875000Y-91650000D01*
G75*
G02*
X116975000Y-91750000I0J-100000D01*
G01*
X116975000Y-93025000D01*
G75*
G02*
X116875000Y-93125000I-100000J0D01*
G01*
X116675000Y-93125000D01*
G75*
G02*
X116575000Y-93025000I0J100000D01*
G01*
X116575000Y-91750000D01*
G75*
G02*
X116675000Y-91650000I100000J0D01*
G01*
G37*
G36*
G01*
X117325000Y-91650000D02*
X117525000Y-91650000D01*
G75*
G02*
X117625000Y-91750000I0J-100000D01*
G01*
X117625000Y-93025000D01*
G75*
G02*
X117525000Y-93125000I-100000J0D01*
G01*
X117325000Y-93125000D01*
G75*
G02*
X117225000Y-93025000I0J100000D01*
G01*
X117225000Y-91750000D01*
G75*
G02*
X117325000Y-91650000I100000J0D01*
G01*
G37*
G36*
G01*
X117975000Y-91650000D02*
X118175000Y-91650000D01*
G75*
G02*
X118275000Y-91750000I0J-100000D01*
G01*
X118275000Y-93025000D01*
G75*
G02*
X118175000Y-93125000I-100000J0D01*
G01*
X117975000Y-93125000D01*
G75*
G02*
X117875000Y-93025000I0J100000D01*
G01*
X117875000Y-91750000D01*
G75*
G02*
X117975000Y-91650000I100000J0D01*
G01*
G37*
G36*
G01*
X118625000Y-91650000D02*
X118825000Y-91650000D01*
G75*
G02*
X118925000Y-91750000I0J-100000D01*
G01*
X118925000Y-93025000D01*
G75*
G02*
X118825000Y-93125000I-100000J0D01*
G01*
X118625000Y-93125000D01*
G75*
G02*
X118525000Y-93025000I0J100000D01*
G01*
X118525000Y-91750000D01*
G75*
G02*
X118625000Y-91650000I100000J0D01*
G01*
G37*
G36*
G01*
X119275000Y-91650000D02*
X119475000Y-91650000D01*
G75*
G02*
X119575000Y-91750000I0J-100000D01*
G01*
X119575000Y-93025000D01*
G75*
G02*
X119475000Y-93125000I-100000J0D01*
G01*
X119275000Y-93125000D01*
G75*
G02*
X119175000Y-93025000I0J100000D01*
G01*
X119175000Y-91750000D01*
G75*
G02*
X119275000Y-91650000I100000J0D01*
G01*
G37*
G36*
G01*
X118000000Y-67124999D02*
X118000000Y-69975001D01*
G75*
G02*
X117750001Y-70225000I-249999J0D01*
G01*
X116849999Y-70225000D01*
G75*
G02*
X116600000Y-69975001I0J249999D01*
G01*
X116600000Y-67124999D01*
G75*
G02*
X116849999Y-66875000I249999J0D01*
G01*
X117750001Y-66875000D01*
G75*
G02*
X118000000Y-67124999I0J-249999D01*
G01*
G37*
G36*
G01*
X124100000Y-67124999D02*
X124100000Y-69975001D01*
G75*
G02*
X123850001Y-70225000I-249999J0D01*
G01*
X122949999Y-70225000D01*
G75*
G02*
X122700000Y-69975001I0J249999D01*
G01*
X122700000Y-67124999D01*
G75*
G02*
X122949999Y-66875000I249999J0D01*
G01*
X123850001Y-66875000D01*
G75*
G02*
X124100000Y-67124999I0J-249999D01*
G01*
G37*
D16*
X118800000Y-106100000D03*
D17*
X118800000Y-105600000D03*
D16*
X118800000Y-104600000D03*
D17*
X118800000Y-105100000D03*
D16*
X117800000Y-106100000D03*
D17*
X117800000Y-105100000D03*
X117800000Y-105600000D03*
D16*
X117800000Y-104600000D03*
X140800000Y-104600000D03*
D17*
X140800000Y-105100000D03*
D16*
X140800000Y-106100000D03*
D17*
X140800000Y-105600000D03*
D16*
X141800000Y-104600000D03*
D17*
X141800000Y-105600000D03*
X141800000Y-105100000D03*
D16*
X141800000Y-106100000D03*
D12*
X133000000Y-96600000D03*
D13*
X132500000Y-96600000D03*
D12*
X131500000Y-96600000D03*
D13*
X132000000Y-96600000D03*
D12*
X133000000Y-97600000D03*
D13*
X132000000Y-97600000D03*
X132500000Y-97600000D03*
D12*
X131500000Y-97600000D03*
G36*
G01*
X138435000Y-101030000D02*
X138065000Y-101030000D01*
G75*
G02*
X137930000Y-100895000I0J135000D01*
G01*
X137930000Y-100625000D01*
G75*
G02*
X138065000Y-100490000I135000J0D01*
G01*
X138435000Y-100490000D01*
G75*
G02*
X138570000Y-100625000I0J-135000D01*
G01*
X138570000Y-100895000D01*
G75*
G02*
X138435000Y-101030000I-135000J0D01*
G01*
G37*
G36*
G01*
X138435000Y-100010000D02*
X138065000Y-100010000D01*
G75*
G02*
X137930000Y-99875000I0J135000D01*
G01*
X137930000Y-99605000D01*
G75*
G02*
X138065000Y-99470000I135000J0D01*
G01*
X138435000Y-99470000D01*
G75*
G02*
X138570000Y-99605000I0J-135000D01*
G01*
X138570000Y-99875000D01*
G75*
G02*
X138435000Y-100010000I-135000J0D01*
G01*
G37*
D18*
G36*
X140560000Y-61850000D02*
G01*
X140990000Y-61850000D01*
X140990000Y-63000000D01*
X140560000Y-63000000D01*
X140560000Y-61850000D01*
G37*
D19*
X139075000Y-62425000D03*
X139925000Y-62425000D03*
D18*
G36*
X138010000Y-61850000D02*
G01*
X138440000Y-61850000D01*
X138440000Y-63000000D01*
X138010000Y-63000000D01*
X138010000Y-61850000D01*
G37*
G36*
X121360000Y-61850000D02*
G01*
X121790000Y-61850000D01*
X121790000Y-63000000D01*
X121360000Y-63000000D01*
X121360000Y-61850000D01*
G37*
D19*
X119875000Y-62425000D03*
X120725000Y-62425000D03*
D18*
G36*
X118810000Y-61850000D02*
G01*
X119240000Y-61850000D01*
X119240000Y-63000000D01*
X118810000Y-63000000D01*
X118810000Y-61850000D01*
G37*
G36*
X101650000Y-80790000D02*
G01*
X101650000Y-80360000D01*
X102800000Y-80360000D01*
X102800000Y-80790000D01*
X101650000Y-80790000D01*
G37*
D20*
X102225000Y-82275000D03*
X102225000Y-81425000D03*
D18*
G36*
X101650000Y-83340000D02*
G01*
X101650000Y-82910000D01*
X102800000Y-82910000D01*
X102800000Y-83340000D01*
X101650000Y-83340000D01*
G37*
G36*
X101650000Y-97290000D02*
G01*
X101650000Y-96860000D01*
X102800000Y-96860000D01*
X102800000Y-97290000D01*
X101650000Y-97290000D01*
G37*
D20*
X102225000Y-98775000D03*
X102225000Y-97925000D03*
D18*
G36*
X101650000Y-99840000D02*
G01*
X101650000Y-99410000D01*
X102800000Y-99410000D01*
X102800000Y-99840000D01*
X101650000Y-99840000D01*
G37*
G36*
X119240000Y-118350000D02*
G01*
X118810000Y-118350000D01*
X118810000Y-117200000D01*
X119240000Y-117200000D01*
X119240000Y-118350000D01*
G37*
D19*
X120725000Y-117775000D03*
X119875000Y-117775000D03*
D18*
G36*
X121790000Y-118350000D02*
G01*
X121360000Y-118350000D01*
X121360000Y-117200000D01*
X121790000Y-117200000D01*
X121790000Y-118350000D01*
G37*
G36*
X138440000Y-118350000D02*
G01*
X138010000Y-118350000D01*
X138010000Y-117200000D01*
X138440000Y-117200000D01*
X138440000Y-118350000D01*
G37*
D19*
X139925000Y-117775000D03*
X139075000Y-117775000D03*
D18*
G36*
X140990000Y-118350000D02*
G01*
X140560000Y-118350000D01*
X140560000Y-117200000D01*
X140990000Y-117200000D01*
X140990000Y-118350000D01*
G37*
G36*
X158150000Y-101060000D02*
G01*
X158150000Y-101490000D01*
X157000000Y-101490000D01*
X157000000Y-101060000D01*
X158150000Y-101060000D01*
G37*
D20*
X157575000Y-99575000D03*
X157575000Y-100425000D03*
D18*
G36*
X158150000Y-98510000D02*
G01*
X158150000Y-98940000D01*
X157000000Y-98940000D01*
X157000000Y-98510000D01*
X158150000Y-98510000D01*
G37*
D21*
X102650000Y-109475000D03*
X101150000Y-109475000D03*
X101150000Y-103725000D03*
X102650000Y-103725000D03*
X102650000Y-92975000D03*
X101150000Y-92975000D03*
X101150000Y-87225000D03*
X102650000Y-87225000D03*
X102650000Y-76475000D03*
X101150000Y-76475000D03*
X101150000Y-70725000D03*
X102650000Y-70725000D03*
D22*
X110525000Y-62850000D03*
X110525000Y-61350000D03*
X116275000Y-61350000D03*
X116275000Y-62850000D03*
X143525000Y-62850000D03*
X143525000Y-61350000D03*
X149275000Y-61350000D03*
X149275000Y-62850000D03*
D21*
X157150000Y-70725000D03*
X158650000Y-70725000D03*
X158650000Y-76475000D03*
X157150000Y-76475000D03*
X157150000Y-103725000D03*
X158650000Y-103725000D03*
X158650000Y-109475000D03*
X157150000Y-109475000D03*
D22*
X149275000Y-117350000D03*
X149275000Y-118850000D03*
X143525000Y-118850000D03*
X143525000Y-117350000D03*
X116275000Y-117350000D03*
X116275000Y-118850000D03*
X110525000Y-118850000D03*
X110525000Y-117350000D03*
G36*
G01*
X142640000Y-94785000D02*
X142640000Y-94415000D01*
G75*
G02*
X142775000Y-94280000I135000J0D01*
G01*
X143045000Y-94280000D01*
G75*
G02*
X143180000Y-94415000I0J-135000D01*
G01*
X143180000Y-94785000D01*
G75*
G02*
X143045000Y-94920000I-135000J0D01*
G01*
X142775000Y-94920000D01*
G75*
G02*
X142640000Y-94785000I0J135000D01*
G01*
G37*
G36*
G01*
X141620000Y-94785000D02*
X141620000Y-94415000D01*
G75*
G02*
X141755000Y-94280000I135000J0D01*
G01*
X142025000Y-94280000D01*
G75*
G02*
X142160000Y-94415000I0J-135000D01*
G01*
X142160000Y-94785000D01*
G75*
G02*
X142025000Y-94920000I-135000J0D01*
G01*
X141755000Y-94920000D01*
G75*
G02*
X141620000Y-94785000I0J135000D01*
G01*
G37*
G36*
G01*
X136697500Y-100440000D02*
X137042500Y-100440000D01*
G75*
G02*
X137190000Y-100587500I0J-147500D01*
G01*
X137190000Y-100882500D01*
G75*
G02*
X137042500Y-101030000I-147500J0D01*
G01*
X136697500Y-101030000D01*
G75*
G02*
X136550000Y-100882500I0J147500D01*
G01*
X136550000Y-100587500D01*
G75*
G02*
X136697500Y-100440000I147500J0D01*
G01*
G37*
G36*
G01*
X136697500Y-99470000D02*
X137042500Y-99470000D01*
G75*
G02*
X137190000Y-99617500I0J-147500D01*
G01*
X137190000Y-99912500D01*
G75*
G02*
X137042500Y-100060000I-147500J0D01*
G01*
X136697500Y-100060000D01*
G75*
G02*
X136550000Y-99912500I0J147500D01*
G01*
X136550000Y-99617500D01*
G75*
G02*
X136697500Y-99470000I147500J0D01*
G01*
G37*
D23*
X151200000Y-107800000D03*
X149900000Y-107800000D03*
X150550000Y-105900000D03*
X150550000Y-107800000D03*
X149900000Y-105900000D03*
X151200000Y-105900000D03*
D12*
X119000000Y-100300000D03*
D13*
X118500000Y-100300000D03*
D12*
X117500000Y-100300000D03*
D13*
X118000000Y-100300000D03*
D12*
X119000000Y-101300000D03*
D13*
X118000000Y-101300000D03*
X118500000Y-101300000D03*
D12*
X117500000Y-101300000D03*
X142300000Y-99900000D03*
D13*
X141800000Y-99900000D03*
D12*
X140800000Y-99900000D03*
D13*
X141300000Y-99900000D03*
D12*
X142300000Y-100900000D03*
D13*
X141300000Y-100900000D03*
X141800000Y-100900000D03*
D12*
X140800000Y-100900000D03*
D23*
X154250000Y-105900000D03*
X152950000Y-105900000D03*
X153600000Y-107800000D03*
X153600000Y-105900000D03*
X152950000Y-107800000D03*
X154250000Y-107800000D03*
D16*
X145500000Y-113400000D03*
D17*
X145500000Y-112900000D03*
D16*
X145500000Y-111900000D03*
D17*
X145500000Y-112400000D03*
D16*
X144500000Y-113400000D03*
D17*
X144500000Y-112400000D03*
X144500000Y-112900000D03*
D16*
X144500000Y-111900000D03*
D12*
X149800000Y-102550000D03*
D13*
X150800000Y-102550000D03*
X150300000Y-102550000D03*
D12*
X151300000Y-102550000D03*
D13*
X150300000Y-101550000D03*
D12*
X149800000Y-101550000D03*
D13*
X150800000Y-101550000D03*
D12*
X151300000Y-101550000D03*
G36*
G01*
X126425000Y-101925000D02*
X126225000Y-101925000D01*
G75*
G02*
X126125000Y-101825000I0J100000D01*
G01*
X126125000Y-100550000D01*
G75*
G02*
X126225000Y-100450000I100000J0D01*
G01*
X126425000Y-100450000D01*
G75*
G02*
X126525000Y-100550000I0J-100000D01*
G01*
X126525000Y-101825000D01*
G75*
G02*
X126425000Y-101925000I-100000J0D01*
G01*
G37*
G36*
G01*
X127075000Y-101925000D02*
X126875000Y-101925000D01*
G75*
G02*
X126775000Y-101825000I0J100000D01*
G01*
X126775000Y-100550000D01*
G75*
G02*
X126875000Y-100450000I100000J0D01*
G01*
X127075000Y-100450000D01*
G75*
G02*
X127175000Y-100550000I0J-100000D01*
G01*
X127175000Y-101825000D01*
G75*
G02*
X127075000Y-101925000I-100000J0D01*
G01*
G37*
G36*
G01*
X127725000Y-101925000D02*
X127525000Y-101925000D01*
G75*
G02*
X127425000Y-101825000I0J100000D01*
G01*
X127425000Y-100550000D01*
G75*
G02*
X127525000Y-100450000I100000J0D01*
G01*
X127725000Y-100450000D01*
G75*
G02*
X127825000Y-100550000I0J-100000D01*
G01*
X127825000Y-101825000D01*
G75*
G02*
X127725000Y-101925000I-100000J0D01*
G01*
G37*
G36*
G01*
X128375000Y-101925000D02*
X128175000Y-101925000D01*
G75*
G02*
X128075000Y-101825000I0J100000D01*
G01*
X128075000Y-100550000D01*
G75*
G02*
X128175000Y-100450000I100000J0D01*
G01*
X128375000Y-100450000D01*
G75*
G02*
X128475000Y-100550000I0J-100000D01*
G01*
X128475000Y-101825000D01*
G75*
G02*
X128375000Y-101925000I-100000J0D01*
G01*
G37*
G36*
G01*
X129025000Y-101925000D02*
X128825000Y-101925000D01*
G75*
G02*
X128725000Y-101825000I0J100000D01*
G01*
X128725000Y-100550000D01*
G75*
G02*
X128825000Y-100450000I100000J0D01*
G01*
X129025000Y-100450000D01*
G75*
G02*
X129125000Y-100550000I0J-100000D01*
G01*
X129125000Y-101825000D01*
G75*
G02*
X129025000Y-101925000I-100000J0D01*
G01*
G37*
G36*
G01*
X129675000Y-101925000D02*
X129475000Y-101925000D01*
G75*
G02*
X129375000Y-101825000I0J100000D01*
G01*
X129375000Y-100550000D01*
G75*
G02*
X129475000Y-100450000I100000J0D01*
G01*
X129675000Y-100450000D01*
G75*
G02*
X129775000Y-100550000I0J-100000D01*
G01*
X129775000Y-101825000D01*
G75*
G02*
X129675000Y-101925000I-100000J0D01*
G01*
G37*
G36*
G01*
X130325000Y-101925000D02*
X130125000Y-101925000D01*
G75*
G02*
X130025000Y-101825000I0J100000D01*
G01*
X130025000Y-100550000D01*
G75*
G02*
X130125000Y-100450000I100000J0D01*
G01*
X130325000Y-100450000D01*
G75*
G02*
X130425000Y-100550000I0J-100000D01*
G01*
X130425000Y-101825000D01*
G75*
G02*
X130325000Y-101925000I-100000J0D01*
G01*
G37*
G36*
G01*
X130975000Y-101925000D02*
X130775000Y-101925000D01*
G75*
G02*
X130675000Y-101825000I0J100000D01*
G01*
X130675000Y-100550000D01*
G75*
G02*
X130775000Y-100450000I100000J0D01*
G01*
X130975000Y-100450000D01*
G75*
G02*
X131075000Y-100550000I0J-100000D01*
G01*
X131075000Y-101825000D01*
G75*
G02*
X130975000Y-101925000I-100000J0D01*
G01*
G37*
G36*
G01*
X131625000Y-101925000D02*
X131425000Y-101925000D01*
G75*
G02*
X131325000Y-101825000I0J100000D01*
G01*
X131325000Y-100550000D01*
G75*
G02*
X131425000Y-100450000I100000J0D01*
G01*
X131625000Y-100450000D01*
G75*
G02*
X131725000Y-100550000I0J-100000D01*
G01*
X131725000Y-101825000D01*
G75*
G02*
X131625000Y-101925000I-100000J0D01*
G01*
G37*
G36*
G01*
X132275000Y-101925000D02*
X132075000Y-101925000D01*
G75*
G02*
X131975000Y-101825000I0J100000D01*
G01*
X131975000Y-100550000D01*
G75*
G02*
X132075000Y-100450000I100000J0D01*
G01*
X132275000Y-100450000D01*
G75*
G02*
X132375000Y-100550000I0J-100000D01*
G01*
X132375000Y-101825000D01*
G75*
G02*
X132275000Y-101925000I-100000J0D01*
G01*
G37*
G36*
G01*
X132925000Y-101925000D02*
X132725000Y-101925000D01*
G75*
G02*
X132625000Y-101825000I0J100000D01*
G01*
X132625000Y-100550000D01*
G75*
G02*
X132725000Y-100450000I100000J0D01*
G01*
X132925000Y-100450000D01*
G75*
G02*
X133025000Y-100550000I0J-100000D01*
G01*
X133025000Y-101825000D01*
G75*
G02*
X132925000Y-101925000I-100000J0D01*
G01*
G37*
G36*
G01*
X133575000Y-101925000D02*
X133375000Y-101925000D01*
G75*
G02*
X133275000Y-101825000I0J100000D01*
G01*
X133275000Y-100550000D01*
G75*
G02*
X133375000Y-100450000I100000J0D01*
G01*
X133575000Y-100450000D01*
G75*
G02*
X133675000Y-100550000I0J-100000D01*
G01*
X133675000Y-101825000D01*
G75*
G02*
X133575000Y-101925000I-100000J0D01*
G01*
G37*
G36*
G01*
X133575000Y-107650000D02*
X133375000Y-107650000D01*
G75*
G02*
X133275000Y-107550000I0J100000D01*
G01*
X133275000Y-106275000D01*
G75*
G02*
X133375000Y-106175000I100000J0D01*
G01*
X133575000Y-106175000D01*
G75*
G02*
X133675000Y-106275000I0J-100000D01*
G01*
X133675000Y-107550000D01*
G75*
G02*
X133575000Y-107650000I-100000J0D01*
G01*
G37*
G36*
G01*
X132925000Y-107650000D02*
X132725000Y-107650000D01*
G75*
G02*
X132625000Y-107550000I0J100000D01*
G01*
X132625000Y-106275000D01*
G75*
G02*
X132725000Y-106175000I100000J0D01*
G01*
X132925000Y-106175000D01*
G75*
G02*
X133025000Y-106275000I0J-100000D01*
G01*
X133025000Y-107550000D01*
G75*
G02*
X132925000Y-107650000I-100000J0D01*
G01*
G37*
G36*
G01*
X132275000Y-107650000D02*
X132075000Y-107650000D01*
G75*
G02*
X131975000Y-107550000I0J100000D01*
G01*
X131975000Y-106275000D01*
G75*
G02*
X132075000Y-106175000I100000J0D01*
G01*
X132275000Y-106175000D01*
G75*
G02*
X132375000Y-106275000I0J-100000D01*
G01*
X132375000Y-107550000D01*
G75*
G02*
X132275000Y-107650000I-100000J0D01*
G01*
G37*
G36*
G01*
X131625000Y-107650000D02*
X131425000Y-107650000D01*
G75*
G02*
X131325000Y-107550000I0J100000D01*
G01*
X131325000Y-106275000D01*
G75*
G02*
X131425000Y-106175000I100000J0D01*
G01*
X131625000Y-106175000D01*
G75*
G02*
X131725000Y-106275000I0J-100000D01*
G01*
X131725000Y-107550000D01*
G75*
G02*
X131625000Y-107650000I-100000J0D01*
G01*
G37*
G36*
G01*
X130975000Y-107650000D02*
X130775000Y-107650000D01*
G75*
G02*
X130675000Y-107550000I0J100000D01*
G01*
X130675000Y-106275000D01*
G75*
G02*
X130775000Y-106175000I100000J0D01*
G01*
X130975000Y-106175000D01*
G75*
G02*
X131075000Y-106275000I0J-100000D01*
G01*
X131075000Y-107550000D01*
G75*
G02*
X130975000Y-107650000I-100000J0D01*
G01*
G37*
G36*
G01*
X130325000Y-107650000D02*
X130125000Y-107650000D01*
G75*
G02*
X130025000Y-107550000I0J100000D01*
G01*
X130025000Y-106275000D01*
G75*
G02*
X130125000Y-106175000I100000J0D01*
G01*
X130325000Y-106175000D01*
G75*
G02*
X130425000Y-106275000I0J-100000D01*
G01*
X130425000Y-107550000D01*
G75*
G02*
X130325000Y-107650000I-100000J0D01*
G01*
G37*
G36*
G01*
X129675000Y-107650000D02*
X129475000Y-107650000D01*
G75*
G02*
X129375000Y-107550000I0J100000D01*
G01*
X129375000Y-106275000D01*
G75*
G02*
X129475000Y-106175000I100000J0D01*
G01*
X129675000Y-106175000D01*
G75*
G02*
X129775000Y-106275000I0J-100000D01*
G01*
X129775000Y-107550000D01*
G75*
G02*
X129675000Y-107650000I-100000J0D01*
G01*
G37*
G36*
G01*
X129025000Y-107650000D02*
X128825000Y-107650000D01*
G75*
G02*
X128725000Y-107550000I0J100000D01*
G01*
X128725000Y-106275000D01*
G75*
G02*
X128825000Y-106175000I100000J0D01*
G01*
X129025000Y-106175000D01*
G75*
G02*
X129125000Y-106275000I0J-100000D01*
G01*
X129125000Y-107550000D01*
G75*
G02*
X129025000Y-107650000I-100000J0D01*
G01*
G37*
G36*
G01*
X128375000Y-107650000D02*
X128175000Y-107650000D01*
G75*
G02*
X128075000Y-107550000I0J100000D01*
G01*
X128075000Y-106275000D01*
G75*
G02*
X128175000Y-106175000I100000J0D01*
G01*
X128375000Y-106175000D01*
G75*
G02*
X128475000Y-106275000I0J-100000D01*
G01*
X128475000Y-107550000D01*
G75*
G02*
X128375000Y-107650000I-100000J0D01*
G01*
G37*
G36*
G01*
X127725000Y-107650000D02*
X127525000Y-107650000D01*
G75*
G02*
X127425000Y-107550000I0J100000D01*
G01*
X127425000Y-106275000D01*
G75*
G02*
X127525000Y-106175000I100000J0D01*
G01*
X127725000Y-106175000D01*
G75*
G02*
X127825000Y-106275000I0J-100000D01*
G01*
X127825000Y-107550000D01*
G75*
G02*
X127725000Y-107650000I-100000J0D01*
G01*
G37*
G36*
G01*
X127075000Y-107650000D02*
X126875000Y-107650000D01*
G75*
G02*
X126775000Y-107550000I0J100000D01*
G01*
X126775000Y-106275000D01*
G75*
G02*
X126875000Y-106175000I100000J0D01*
G01*
X127075000Y-106175000D01*
G75*
G02*
X127175000Y-106275000I0J-100000D01*
G01*
X127175000Y-107550000D01*
G75*
G02*
X127075000Y-107650000I-100000J0D01*
G01*
G37*
G36*
G01*
X126425000Y-107650000D02*
X126225000Y-107650000D01*
G75*
G02*
X126125000Y-107550000I0J100000D01*
G01*
X126125000Y-106275000D01*
G75*
G02*
X126225000Y-106175000I100000J0D01*
G01*
X126425000Y-106175000D01*
G75*
G02*
X126525000Y-106275000I0J-100000D01*
G01*
X126525000Y-107550000D01*
G75*
G02*
X126425000Y-107650000I-100000J0D01*
G01*
G37*
D24*
X145300000Y-86265000D03*
X145300000Y-87365000D03*
X145300000Y-88465000D03*
X145300000Y-89565000D03*
X145300000Y-90665000D03*
X145300000Y-91765000D03*
X145300000Y-92865000D03*
X145300000Y-93965000D03*
X145300000Y-95065000D03*
D25*
X146150000Y-96165000D03*
X146150000Y-81485000D03*
D26*
X155850000Y-96210000D03*
X155850000Y-80690000D03*
G36*
G01*
X154495000Y-100060000D02*
X154865000Y-100060000D01*
G75*
G02*
X155000000Y-100195000I0J-135000D01*
G01*
X155000000Y-100465000D01*
G75*
G02*
X154865000Y-100600000I-135000J0D01*
G01*
X154495000Y-100600000D01*
G75*
G02*
X154360000Y-100465000I0J135000D01*
G01*
X154360000Y-100195000D01*
G75*
G02*
X154495000Y-100060000I135000J0D01*
G01*
G37*
G36*
G01*
X154495000Y-99040000D02*
X154865000Y-99040000D01*
G75*
G02*
X155000000Y-99175000I0J-135000D01*
G01*
X155000000Y-99445000D01*
G75*
G02*
X154865000Y-99580000I-135000J0D01*
G01*
X154495000Y-99580000D01*
G75*
G02*
X154360000Y-99445000I0J135000D01*
G01*
X154360000Y-99175000D01*
G75*
G02*
X154495000Y-99040000I135000J0D01*
G01*
G37*
D27*
X108780000Y-77600000D03*
X106680000Y-77600000D03*
D28*
X106780000Y-80750000D03*
X106780000Y-79450000D03*
X108680000Y-80100000D03*
X106780000Y-80100000D03*
X108680000Y-79450000D03*
X108680000Y-80750000D03*
X111300000Y-72050000D03*
X111300000Y-73350000D03*
X109400000Y-72700000D03*
X111300000Y-72700000D03*
X109400000Y-73350000D03*
X109400000Y-72050000D03*
G36*
G01*
X111242500Y-80410000D02*
X110897500Y-80410000D01*
G75*
G02*
X110750000Y-80262500I0J147500D01*
G01*
X110750000Y-79967500D01*
G75*
G02*
X110897500Y-79820000I147500J0D01*
G01*
X111242500Y-79820000D01*
G75*
G02*
X111390000Y-79967500I0J-147500D01*
G01*
X111390000Y-80262500D01*
G75*
G02*
X111242500Y-80410000I-147500J0D01*
G01*
G37*
G36*
G01*
X111242500Y-79440000D02*
X110897500Y-79440000D01*
G75*
G02*
X110750000Y-79292500I0J147500D01*
G01*
X110750000Y-78997500D01*
G75*
G02*
X110897500Y-78850000I147500J0D01*
G01*
X111242500Y-78850000D01*
G75*
G02*
X111390000Y-78997500I0J-147500D01*
G01*
X111390000Y-79292500D01*
G75*
G02*
X111242500Y-79440000I-147500J0D01*
G01*
G37*
G36*
G01*
X110885000Y-77840000D02*
X111255000Y-77840000D01*
G75*
G02*
X111390000Y-77975000I0J-135000D01*
G01*
X111390000Y-78245000D01*
G75*
G02*
X111255000Y-78380000I-135000J0D01*
G01*
X110885000Y-78380000D01*
G75*
G02*
X110750000Y-78245000I0J135000D01*
G01*
X110750000Y-77975000D01*
G75*
G02*
X110885000Y-77840000I135000J0D01*
G01*
G37*
G36*
G01*
X110885000Y-76820000D02*
X111255000Y-76820000D01*
G75*
G02*
X111390000Y-76955000I0J-135000D01*
G01*
X111390000Y-77225000D01*
G75*
G02*
X111255000Y-77360000I-135000J0D01*
G01*
X110885000Y-77360000D01*
G75*
G02*
X110750000Y-77225000I0J135000D01*
G01*
X110750000Y-76955000D01*
G75*
G02*
X110885000Y-76820000I135000J0D01*
G01*
G37*
G36*
G01*
X112630000Y-70170000D02*
X112630000Y-69830000D01*
G75*
G02*
X112770000Y-69690000I140000J0D01*
G01*
X113050000Y-69690000D01*
G75*
G02*
X113190000Y-69830000I0J-140000D01*
G01*
X113190000Y-70170000D01*
G75*
G02*
X113050000Y-70310000I-140000J0D01*
G01*
X112770000Y-70310000D01*
G75*
G02*
X112630000Y-70170000I0J140000D01*
G01*
G37*
G36*
G01*
X111670000Y-70170000D02*
X111670000Y-69830000D01*
G75*
G02*
X111810000Y-69690000I140000J0D01*
G01*
X112090000Y-69690000D01*
G75*
G02*
X112230000Y-69830000I0J-140000D01*
G01*
X112230000Y-70170000D01*
G75*
G02*
X112090000Y-70310000I-140000J0D01*
G01*
X111810000Y-70310000D01*
G75*
G02*
X111670000Y-70170000I0J140000D01*
G01*
G37*
G36*
G01*
X109035000Y-70440000D02*
X109405000Y-70440000D01*
G75*
G02*
X109540000Y-70575000I0J-135000D01*
G01*
X109540000Y-70845000D01*
G75*
G02*
X109405000Y-70980000I-135000J0D01*
G01*
X109035000Y-70980000D01*
G75*
G02*
X108900000Y-70845000I0J135000D01*
G01*
X108900000Y-70575000D01*
G75*
G02*
X109035000Y-70440000I135000J0D01*
G01*
G37*
G36*
G01*
X109035000Y-69420000D02*
X109405000Y-69420000D01*
G75*
G02*
X109540000Y-69555000I0J-135000D01*
G01*
X109540000Y-69825000D01*
G75*
G02*
X109405000Y-69960000I-135000J0D01*
G01*
X109035000Y-69960000D01*
G75*
G02*
X108900000Y-69825000I0J135000D01*
G01*
X108900000Y-69555000D01*
G75*
G02*
X109035000Y-69420000I135000J0D01*
G01*
G37*
D14*
X112320000Y-68550000D03*
X112320000Y-66650000D03*
X114520000Y-66650000D03*
X114520000Y-67600000D03*
X114520000Y-68550000D03*
G36*
G01*
X111072500Y-66480000D02*
X110727500Y-66480000D01*
G75*
G02*
X110580000Y-66332500I0J147500D01*
G01*
X110580000Y-66037500D01*
G75*
G02*
X110727500Y-65890000I147500J0D01*
G01*
X111072500Y-65890000D01*
G75*
G02*
X111220000Y-66037500I0J-147500D01*
G01*
X111220000Y-66332500D01*
G75*
G02*
X111072500Y-66480000I-147500J0D01*
G01*
G37*
G36*
G01*
X111072500Y-65510000D02*
X110727500Y-65510000D01*
G75*
G02*
X110580000Y-65362500I0J147500D01*
G01*
X110580000Y-65067500D01*
G75*
G02*
X110727500Y-64920000I147500J0D01*
G01*
X111072500Y-64920000D01*
G75*
G02*
X111220000Y-65067500I0J-147500D01*
G01*
X111220000Y-65362500D01*
G75*
G02*
X111072500Y-65510000I-147500J0D01*
G01*
G37*
D29*
X106000000Y-72210000D03*
X106950000Y-74210000D03*
X105050000Y-74210000D03*
G36*
G01*
X112415000Y-80620000D02*
X112785000Y-80620000D01*
G75*
G02*
X112920000Y-80755000I0J-135000D01*
G01*
X112920000Y-81025000D01*
G75*
G02*
X112785000Y-81160000I-135000J0D01*
G01*
X112415000Y-81160000D01*
G75*
G02*
X112280000Y-81025000I0J135000D01*
G01*
X112280000Y-80755000D01*
G75*
G02*
X112415000Y-80620000I135000J0D01*
G01*
G37*
G36*
G01*
X112415000Y-81640000D02*
X112785000Y-81640000D01*
G75*
G02*
X112920000Y-81775000I0J-135000D01*
G01*
X112920000Y-82045000D01*
G75*
G02*
X112785000Y-82180000I-135000J0D01*
G01*
X112415000Y-82180000D01*
G75*
G02*
X112280000Y-82045000I0J135000D01*
G01*
X112280000Y-81775000D01*
G75*
G02*
X112415000Y-81640000I135000J0D01*
G01*
G37*
D30*
X116300000Y-78500000D03*
X116300000Y-76600000D03*
X114300000Y-77550000D03*
G36*
G01*
X113465000Y-80620000D02*
X113835000Y-80620000D01*
G75*
G02*
X113970000Y-80755000I0J-135000D01*
G01*
X113970000Y-81025000D01*
G75*
G02*
X113835000Y-81160000I-135000J0D01*
G01*
X113465000Y-81160000D01*
G75*
G02*
X113330000Y-81025000I0J135000D01*
G01*
X113330000Y-80755000D01*
G75*
G02*
X113465000Y-80620000I135000J0D01*
G01*
G37*
G36*
G01*
X113465000Y-81640000D02*
X113835000Y-81640000D01*
G75*
G02*
X113970000Y-81775000I0J-135000D01*
G01*
X113970000Y-82045000D01*
G75*
G02*
X113835000Y-82180000I-135000J0D01*
G01*
X113465000Y-82180000D01*
G75*
G02*
X113330000Y-82045000I0J135000D01*
G01*
X113330000Y-81775000D01*
G75*
G02*
X113465000Y-81640000I135000J0D01*
G01*
G37*
G36*
G01*
X112735000Y-74340000D02*
X112365000Y-74340000D01*
G75*
G02*
X112230000Y-74205000I0J135000D01*
G01*
X112230000Y-73935000D01*
G75*
G02*
X112365000Y-73800000I135000J0D01*
G01*
X112735000Y-73800000D01*
G75*
G02*
X112870000Y-73935000I0J-135000D01*
G01*
X112870000Y-74205000D01*
G75*
G02*
X112735000Y-74340000I-135000J0D01*
G01*
G37*
G36*
G01*
X112735000Y-73320000D02*
X112365000Y-73320000D01*
G75*
G02*
X112230000Y-73185000I0J135000D01*
G01*
X112230000Y-72915000D01*
G75*
G02*
X112365000Y-72780000I135000J0D01*
G01*
X112735000Y-72780000D01*
G75*
G02*
X112870000Y-72915000I0J-135000D01*
G01*
X112870000Y-73185000D01*
G75*
G02*
X112735000Y-73320000I-135000J0D01*
G01*
G37*
D14*
X117200000Y-71730000D03*
X117200000Y-73630000D03*
X115000000Y-73630000D03*
X115000000Y-72680000D03*
X115000000Y-71730000D03*
G36*
G01*
X155680000Y-99050000D02*
X156020000Y-99050000D01*
G75*
G02*
X156160000Y-99190000I0J-140000D01*
G01*
X156160000Y-99470000D01*
G75*
G02*
X156020000Y-99610000I-140000J0D01*
G01*
X155680000Y-99610000D01*
G75*
G02*
X155540000Y-99470000I0J140000D01*
G01*
X155540000Y-99190000D01*
G75*
G02*
X155680000Y-99050000I140000J0D01*
G01*
G37*
G36*
G01*
X155680000Y-98090000D02*
X156020000Y-98090000D01*
G75*
G02*
X156160000Y-98230000I0J-140000D01*
G01*
X156160000Y-98510000D01*
G75*
G02*
X156020000Y-98650000I-140000J0D01*
G01*
X155680000Y-98650000D01*
G75*
G02*
X155540000Y-98510000I0J140000D01*
G01*
X155540000Y-98230000D01*
G75*
G02*
X155680000Y-98090000I140000J0D01*
G01*
G37*
D31*
X141070000Y-69300000D03*
X144070000Y-69300000D03*
D18*
G36*
X143436500Y-65350000D02*
G01*
X143436500Y-68475000D01*
X143020000Y-68475000D01*
X143020000Y-69950000D01*
X142120000Y-69950000D01*
X142120000Y-68475000D01*
X141703500Y-68475000D01*
X141703500Y-65350000D01*
X143436500Y-65350000D01*
G37*
D30*
X145900000Y-100250000D03*
X145900000Y-98350000D03*
X143900000Y-99300000D03*
G36*
G01*
X125834137Y-82182512D02*
X125286129Y-81634504D01*
G75*
G02*
X125286129Y-81563794I35355J35355D01*
G01*
X125356839Y-81493084D01*
G75*
G02*
X125427549Y-81493084I35355J-35355D01*
G01*
X125975557Y-82041092D01*
G75*
G02*
X125975557Y-82111802I-35355J-35355D01*
G01*
X125904847Y-82182512D01*
G75*
G02*
X125834137Y-82182512I-35355J35355D01*
G01*
G37*
G36*
G01*
X126116980Y-81899669D02*
X125568972Y-81351661D01*
G75*
G02*
X125568972Y-81280951I35355J35355D01*
G01*
X125639682Y-81210241D01*
G75*
G02*
X125710392Y-81210241I35355J-35355D01*
G01*
X126258400Y-81758249D01*
G75*
G02*
X126258400Y-81828959I-35355J-35355D01*
G01*
X126187690Y-81899669D01*
G75*
G02*
X126116980Y-81899669I-35355J35355D01*
G01*
G37*
G36*
G01*
X126399822Y-81616827D02*
X125851814Y-81068819D01*
G75*
G02*
X125851814Y-80998109I35355J35355D01*
G01*
X125922524Y-80927399D01*
G75*
G02*
X125993234Y-80927399I35355J-35355D01*
G01*
X126541242Y-81475407D01*
G75*
G02*
X126541242Y-81546117I-35355J-35355D01*
G01*
X126470532Y-81616827D01*
G75*
G02*
X126399822Y-81616827I-35355J35355D01*
G01*
G37*
G36*
G01*
X126682665Y-81333984D02*
X126134657Y-80785976D01*
G75*
G02*
X126134657Y-80715266I35355J35355D01*
G01*
X126205367Y-80644556D01*
G75*
G02*
X126276077Y-80644556I35355J-35355D01*
G01*
X126824085Y-81192564D01*
G75*
G02*
X126824085Y-81263274I-35355J-35355D01*
G01*
X126753375Y-81333984D01*
G75*
G02*
X126682665Y-81333984I-35355J35355D01*
G01*
G37*
G36*
G01*
X126965508Y-81051141D02*
X126417500Y-80503133D01*
G75*
G02*
X126417500Y-80432423I35355J35355D01*
G01*
X126488210Y-80361713D01*
G75*
G02*
X126558920Y-80361713I35355J-35355D01*
G01*
X127106928Y-80909721D01*
G75*
G02*
X127106928Y-80980431I-35355J-35355D01*
G01*
X127036218Y-81051141D01*
G75*
G02*
X126965508Y-81051141I-35355J35355D01*
G01*
G37*
G36*
G01*
X127248350Y-80768299D02*
X126700342Y-80220291D01*
G75*
G02*
X126700342Y-80149581I35355J35355D01*
G01*
X126771052Y-80078871D01*
G75*
G02*
X126841762Y-80078871I35355J-35355D01*
G01*
X127389770Y-80626879D01*
G75*
G02*
X127389770Y-80697589I-35355J-35355D01*
G01*
X127319060Y-80768299D01*
G75*
G02*
X127248350Y-80768299I-35355J35355D01*
G01*
G37*
G36*
G01*
X127531193Y-80485456D02*
X126983185Y-79937448D01*
G75*
G02*
X126983185Y-79866738I35355J35355D01*
G01*
X127053895Y-79796028D01*
G75*
G02*
X127124605Y-79796028I35355J-35355D01*
G01*
X127672613Y-80344036D01*
G75*
G02*
X127672613Y-80414746I-35355J-35355D01*
G01*
X127601903Y-80485456D01*
G75*
G02*
X127531193Y-80485456I-35355J35355D01*
G01*
G37*
G36*
G01*
X127814036Y-80202613D02*
X127266028Y-79654605D01*
G75*
G02*
X127266028Y-79583895I35355J35355D01*
G01*
X127336738Y-79513185D01*
G75*
G02*
X127407448Y-79513185I35355J-35355D01*
G01*
X127955456Y-80061193D01*
G75*
G02*
X127955456Y-80131903I-35355J-35355D01*
G01*
X127884746Y-80202613D01*
G75*
G02*
X127814036Y-80202613I-35355J35355D01*
G01*
G37*
G36*
G01*
X128096879Y-79919770D02*
X127548871Y-79371762D01*
G75*
G02*
X127548871Y-79301052I35355J35355D01*
G01*
X127619581Y-79230342D01*
G75*
G02*
X127690291Y-79230342I35355J-35355D01*
G01*
X128238299Y-79778350D01*
G75*
G02*
X128238299Y-79849060I-35355J-35355D01*
G01*
X128167589Y-79919770D01*
G75*
G02*
X128096879Y-79919770I-35355J35355D01*
G01*
G37*
G36*
G01*
X128379721Y-79636928D02*
X127831713Y-79088920D01*
G75*
G02*
X127831713Y-79018210I35355J35355D01*
G01*
X127902423Y-78947500D01*
G75*
G02*
X127973133Y-78947500I35355J-35355D01*
G01*
X128521141Y-79495508D01*
G75*
G02*
X128521141Y-79566218I-35355J-35355D01*
G01*
X128450431Y-79636928D01*
G75*
G02*
X128379721Y-79636928I-35355J35355D01*
G01*
G37*
G36*
G01*
X128662564Y-79354085D02*
X128114556Y-78806077D01*
G75*
G02*
X128114556Y-78735367I35355J35355D01*
G01*
X128185266Y-78664657D01*
G75*
G02*
X128255976Y-78664657I35355J-35355D01*
G01*
X128803984Y-79212665D01*
G75*
G02*
X128803984Y-79283375I-35355J-35355D01*
G01*
X128733274Y-79354085D01*
G75*
G02*
X128662564Y-79354085I-35355J35355D01*
G01*
G37*
G36*
G01*
X128945407Y-79071242D02*
X128397399Y-78523234D01*
G75*
G02*
X128397399Y-78452524I35355J35355D01*
G01*
X128468109Y-78381814D01*
G75*
G02*
X128538819Y-78381814I35355J-35355D01*
G01*
X129086827Y-78929822D01*
G75*
G02*
X129086827Y-79000532I-35355J-35355D01*
G01*
X129016117Y-79071242D01*
G75*
G02*
X128945407Y-79071242I-35355J35355D01*
G01*
G37*
G36*
G01*
X129228249Y-78788400D02*
X128680241Y-78240392D01*
G75*
G02*
X128680241Y-78169682I35355J35355D01*
G01*
X128750951Y-78098972D01*
G75*
G02*
X128821661Y-78098972I35355J-35355D01*
G01*
X129369669Y-78646980D01*
G75*
G02*
X129369669Y-78717690I-35355J-35355D01*
G01*
X129298959Y-78788400D01*
G75*
G02*
X129228249Y-78788400I-35355J35355D01*
G01*
G37*
G36*
G01*
X129511092Y-78505557D02*
X128963084Y-77957549D01*
G75*
G02*
X128963084Y-77886839I35355J35355D01*
G01*
X129033794Y-77816129D01*
G75*
G02*
X129104504Y-77816129I35355J-35355D01*
G01*
X129652512Y-78364137D01*
G75*
G02*
X129652512Y-78434847I-35355J-35355D01*
G01*
X129581802Y-78505557D01*
G75*
G02*
X129511092Y-78505557I-35355J35355D01*
G01*
G37*
G36*
G01*
X130218198Y-78505557D02*
X130147488Y-78434847D01*
G75*
G02*
X130147488Y-78364137I35355J35355D01*
G01*
X130695496Y-77816129D01*
G75*
G02*
X130766206Y-77816129I35355J-35355D01*
G01*
X130836916Y-77886839D01*
G75*
G02*
X130836916Y-77957549I-35355J-35355D01*
G01*
X130288908Y-78505557D01*
G75*
G02*
X130218198Y-78505557I-35355J35355D01*
G01*
G37*
G36*
G01*
X130501041Y-78788400D02*
X130430331Y-78717690D01*
G75*
G02*
X130430331Y-78646980I35355J35355D01*
G01*
X130978339Y-78098972D01*
G75*
G02*
X131049049Y-78098972I35355J-35355D01*
G01*
X131119759Y-78169682D01*
G75*
G02*
X131119759Y-78240392I-35355J-35355D01*
G01*
X130571751Y-78788400D01*
G75*
G02*
X130501041Y-78788400I-35355J35355D01*
G01*
G37*
G36*
G01*
X130783883Y-79071242D02*
X130713173Y-79000532D01*
G75*
G02*
X130713173Y-78929822I35355J35355D01*
G01*
X131261181Y-78381814D01*
G75*
G02*
X131331891Y-78381814I35355J-35355D01*
G01*
X131402601Y-78452524D01*
G75*
G02*
X131402601Y-78523234I-35355J-35355D01*
G01*
X130854593Y-79071242D01*
G75*
G02*
X130783883Y-79071242I-35355J35355D01*
G01*
G37*
G36*
G01*
X131066726Y-79354085D02*
X130996016Y-79283375D01*
G75*
G02*
X130996016Y-79212665I35355J35355D01*
G01*
X131544024Y-78664657D01*
G75*
G02*
X131614734Y-78664657I35355J-35355D01*
G01*
X131685444Y-78735367D01*
G75*
G02*
X131685444Y-78806077I-35355J-35355D01*
G01*
X131137436Y-79354085D01*
G75*
G02*
X131066726Y-79354085I-35355J35355D01*
G01*
G37*
G36*
G01*
X131349569Y-79636928D02*
X131278859Y-79566218D01*
G75*
G02*
X131278859Y-79495508I35355J35355D01*
G01*
X131826867Y-78947500D01*
G75*
G02*
X131897577Y-78947500I35355J-35355D01*
G01*
X131968287Y-79018210D01*
G75*
G02*
X131968287Y-79088920I-35355J-35355D01*
G01*
X131420279Y-79636928D01*
G75*
G02*
X131349569Y-79636928I-35355J35355D01*
G01*
G37*
G36*
G01*
X131632411Y-79919770D02*
X131561701Y-79849060D01*
G75*
G02*
X131561701Y-79778350I35355J35355D01*
G01*
X132109709Y-79230342D01*
G75*
G02*
X132180419Y-79230342I35355J-35355D01*
G01*
X132251129Y-79301052D01*
G75*
G02*
X132251129Y-79371762I-35355J-35355D01*
G01*
X131703121Y-79919770D01*
G75*
G02*
X131632411Y-79919770I-35355J35355D01*
G01*
G37*
G36*
G01*
X131915254Y-80202613D02*
X131844544Y-80131903D01*
G75*
G02*
X131844544Y-80061193I35355J35355D01*
G01*
X132392552Y-79513185D01*
G75*
G02*
X132463262Y-79513185I35355J-35355D01*
G01*
X132533972Y-79583895D01*
G75*
G02*
X132533972Y-79654605I-35355J-35355D01*
G01*
X131985964Y-80202613D01*
G75*
G02*
X131915254Y-80202613I-35355J35355D01*
G01*
G37*
G36*
G01*
X132198097Y-80485456D02*
X132127387Y-80414746D01*
G75*
G02*
X132127387Y-80344036I35355J35355D01*
G01*
X132675395Y-79796028D01*
G75*
G02*
X132746105Y-79796028I35355J-35355D01*
G01*
X132816815Y-79866738D01*
G75*
G02*
X132816815Y-79937448I-35355J-35355D01*
G01*
X132268807Y-80485456D01*
G75*
G02*
X132198097Y-80485456I-35355J35355D01*
G01*
G37*
G36*
G01*
X132480940Y-80768299D02*
X132410230Y-80697589D01*
G75*
G02*
X132410230Y-80626879I35355J35355D01*
G01*
X132958238Y-80078871D01*
G75*
G02*
X133028948Y-80078871I35355J-35355D01*
G01*
X133099658Y-80149581D01*
G75*
G02*
X133099658Y-80220291I-35355J-35355D01*
G01*
X132551650Y-80768299D01*
G75*
G02*
X132480940Y-80768299I-35355J35355D01*
G01*
G37*
G36*
G01*
X132763782Y-81051141D02*
X132693072Y-80980431D01*
G75*
G02*
X132693072Y-80909721I35355J35355D01*
G01*
X133241080Y-80361713D01*
G75*
G02*
X133311790Y-80361713I35355J-35355D01*
G01*
X133382500Y-80432423D01*
G75*
G02*
X133382500Y-80503133I-35355J-35355D01*
G01*
X132834492Y-81051141D01*
G75*
G02*
X132763782Y-81051141I-35355J35355D01*
G01*
G37*
G36*
G01*
X133046625Y-81333984D02*
X132975915Y-81263274D01*
G75*
G02*
X132975915Y-81192564I35355J35355D01*
G01*
X133523923Y-80644556D01*
G75*
G02*
X133594633Y-80644556I35355J-35355D01*
G01*
X133665343Y-80715266D01*
G75*
G02*
X133665343Y-80785976I-35355J-35355D01*
G01*
X133117335Y-81333984D01*
G75*
G02*
X133046625Y-81333984I-35355J35355D01*
G01*
G37*
G36*
G01*
X133329468Y-81616827D02*
X133258758Y-81546117D01*
G75*
G02*
X133258758Y-81475407I35355J35355D01*
G01*
X133806766Y-80927399D01*
G75*
G02*
X133877476Y-80927399I35355J-35355D01*
G01*
X133948186Y-80998109D01*
G75*
G02*
X133948186Y-81068819I-35355J-35355D01*
G01*
X133400178Y-81616827D01*
G75*
G02*
X133329468Y-81616827I-35355J35355D01*
G01*
G37*
G36*
G01*
X133612310Y-81899669D02*
X133541600Y-81828959D01*
G75*
G02*
X133541600Y-81758249I35355J35355D01*
G01*
X134089608Y-81210241D01*
G75*
G02*
X134160318Y-81210241I35355J-35355D01*
G01*
X134231028Y-81280951D01*
G75*
G02*
X134231028Y-81351661I-35355J-35355D01*
G01*
X133683020Y-81899669D01*
G75*
G02*
X133612310Y-81899669I-35355J35355D01*
G01*
G37*
G36*
G01*
X133895153Y-82182512D02*
X133824443Y-82111802D01*
G75*
G02*
X133824443Y-82041092I35355J35355D01*
G01*
X134372451Y-81493084D01*
G75*
G02*
X134443161Y-81493084I35355J-35355D01*
G01*
X134513871Y-81563794D01*
G75*
G02*
X134513871Y-81634504I-35355J-35355D01*
G01*
X133965863Y-82182512D01*
G75*
G02*
X133895153Y-82182512I-35355J35355D01*
G01*
G37*
G36*
G01*
X134372451Y-83366916D02*
X133824443Y-82818908D01*
G75*
G02*
X133824443Y-82748198I35355J35355D01*
G01*
X133895153Y-82677488D01*
G75*
G02*
X133965863Y-82677488I35355J-35355D01*
G01*
X134513871Y-83225496D01*
G75*
G02*
X134513871Y-83296206I-35355J-35355D01*
G01*
X134443161Y-83366916D01*
G75*
G02*
X134372451Y-83366916I-35355J35355D01*
G01*
G37*
G36*
G01*
X134089608Y-83649759D02*
X133541600Y-83101751D01*
G75*
G02*
X133541600Y-83031041I35355J35355D01*
G01*
X133612310Y-82960331D01*
G75*
G02*
X133683020Y-82960331I35355J-35355D01*
G01*
X134231028Y-83508339D01*
G75*
G02*
X134231028Y-83579049I-35355J-35355D01*
G01*
X134160318Y-83649759D01*
G75*
G02*
X134089608Y-83649759I-35355J35355D01*
G01*
G37*
G36*
G01*
X133806766Y-83932601D02*
X133258758Y-83384593D01*
G75*
G02*
X133258758Y-83313883I35355J35355D01*
G01*
X133329468Y-83243173D01*
G75*
G02*
X133400178Y-83243173I35355J-35355D01*
G01*
X133948186Y-83791181D01*
G75*
G02*
X133948186Y-83861891I-35355J-35355D01*
G01*
X133877476Y-83932601D01*
G75*
G02*
X133806766Y-83932601I-35355J35355D01*
G01*
G37*
G36*
G01*
X133523923Y-84215444D02*
X132975915Y-83667436D01*
G75*
G02*
X132975915Y-83596726I35355J35355D01*
G01*
X133046625Y-83526016D01*
G75*
G02*
X133117335Y-83526016I35355J-35355D01*
G01*
X133665343Y-84074024D01*
G75*
G02*
X133665343Y-84144734I-35355J-35355D01*
G01*
X133594633Y-84215444D01*
G75*
G02*
X133523923Y-84215444I-35355J35355D01*
G01*
G37*
G36*
G01*
X133241080Y-84498287D02*
X132693072Y-83950279D01*
G75*
G02*
X132693072Y-83879569I35355J35355D01*
G01*
X132763782Y-83808859D01*
G75*
G02*
X132834492Y-83808859I35355J-35355D01*
G01*
X133382500Y-84356867D01*
G75*
G02*
X133382500Y-84427577I-35355J-35355D01*
G01*
X133311790Y-84498287D01*
G75*
G02*
X133241080Y-84498287I-35355J35355D01*
G01*
G37*
G36*
G01*
X132958238Y-84781129D02*
X132410230Y-84233121D01*
G75*
G02*
X132410230Y-84162411I35355J35355D01*
G01*
X132480940Y-84091701D01*
G75*
G02*
X132551650Y-84091701I35355J-35355D01*
G01*
X133099658Y-84639709D01*
G75*
G02*
X133099658Y-84710419I-35355J-35355D01*
G01*
X133028948Y-84781129D01*
G75*
G02*
X132958238Y-84781129I-35355J35355D01*
G01*
G37*
G36*
G01*
X132675395Y-85063972D02*
X132127387Y-84515964D01*
G75*
G02*
X132127387Y-84445254I35355J35355D01*
G01*
X132198097Y-84374544D01*
G75*
G02*
X132268807Y-84374544I35355J-35355D01*
G01*
X132816815Y-84922552D01*
G75*
G02*
X132816815Y-84993262I-35355J-35355D01*
G01*
X132746105Y-85063972D01*
G75*
G02*
X132675395Y-85063972I-35355J35355D01*
G01*
G37*
G36*
G01*
X132392552Y-85346815D02*
X131844544Y-84798807D01*
G75*
G02*
X131844544Y-84728097I35355J35355D01*
G01*
X131915254Y-84657387D01*
G75*
G02*
X131985964Y-84657387I35355J-35355D01*
G01*
X132533972Y-85205395D01*
G75*
G02*
X132533972Y-85276105I-35355J-35355D01*
G01*
X132463262Y-85346815D01*
G75*
G02*
X132392552Y-85346815I-35355J35355D01*
G01*
G37*
G36*
G01*
X132109709Y-85629658D02*
X131561701Y-85081650D01*
G75*
G02*
X131561701Y-85010940I35355J35355D01*
G01*
X131632411Y-84940230D01*
G75*
G02*
X131703121Y-84940230I35355J-35355D01*
G01*
X132251129Y-85488238D01*
G75*
G02*
X132251129Y-85558948I-35355J-35355D01*
G01*
X132180419Y-85629658D01*
G75*
G02*
X132109709Y-85629658I-35355J35355D01*
G01*
G37*
G36*
G01*
X131826867Y-85912500D02*
X131278859Y-85364492D01*
G75*
G02*
X131278859Y-85293782I35355J35355D01*
G01*
X131349569Y-85223072D01*
G75*
G02*
X131420279Y-85223072I35355J-35355D01*
G01*
X131968287Y-85771080D01*
G75*
G02*
X131968287Y-85841790I-35355J-35355D01*
G01*
X131897577Y-85912500D01*
G75*
G02*
X131826867Y-85912500I-35355J35355D01*
G01*
G37*
G36*
G01*
X131544024Y-86195343D02*
X130996016Y-85647335D01*
G75*
G02*
X130996016Y-85576625I35355J35355D01*
G01*
X131066726Y-85505915D01*
G75*
G02*
X131137436Y-85505915I35355J-35355D01*
G01*
X131685444Y-86053923D01*
G75*
G02*
X131685444Y-86124633I-35355J-35355D01*
G01*
X131614734Y-86195343D01*
G75*
G02*
X131544024Y-86195343I-35355J35355D01*
G01*
G37*
G36*
G01*
X131261181Y-86478186D02*
X130713173Y-85930178D01*
G75*
G02*
X130713173Y-85859468I35355J35355D01*
G01*
X130783883Y-85788758D01*
G75*
G02*
X130854593Y-85788758I35355J-35355D01*
G01*
X131402601Y-86336766D01*
G75*
G02*
X131402601Y-86407476I-35355J-35355D01*
G01*
X131331891Y-86478186D01*
G75*
G02*
X131261181Y-86478186I-35355J35355D01*
G01*
G37*
G36*
G01*
X130978339Y-86761028D02*
X130430331Y-86213020D01*
G75*
G02*
X130430331Y-86142310I35355J35355D01*
G01*
X130501041Y-86071600D01*
G75*
G02*
X130571751Y-86071600I35355J-35355D01*
G01*
X131119759Y-86619608D01*
G75*
G02*
X131119759Y-86690318I-35355J-35355D01*
G01*
X131049049Y-86761028D01*
G75*
G02*
X130978339Y-86761028I-35355J35355D01*
G01*
G37*
G36*
G01*
X130695496Y-87043871D02*
X130147488Y-86495863D01*
G75*
G02*
X130147488Y-86425153I35355J35355D01*
G01*
X130218198Y-86354443D01*
G75*
G02*
X130288908Y-86354443I35355J-35355D01*
G01*
X130836916Y-86902451D01*
G75*
G02*
X130836916Y-86973161I-35355J-35355D01*
G01*
X130766206Y-87043871D01*
G75*
G02*
X130695496Y-87043871I-35355J35355D01*
G01*
G37*
G36*
G01*
X129033794Y-87043871D02*
X128963084Y-86973161D01*
G75*
G02*
X128963084Y-86902451I35355J35355D01*
G01*
X129511092Y-86354443D01*
G75*
G02*
X129581802Y-86354443I35355J-35355D01*
G01*
X129652512Y-86425153D01*
G75*
G02*
X129652512Y-86495863I-35355J-35355D01*
G01*
X129104504Y-87043871D01*
G75*
G02*
X129033794Y-87043871I-35355J35355D01*
G01*
G37*
G36*
G01*
X128750951Y-86761028D02*
X128680241Y-86690318D01*
G75*
G02*
X128680241Y-86619608I35355J35355D01*
G01*
X129228249Y-86071600D01*
G75*
G02*
X129298959Y-86071600I35355J-35355D01*
G01*
X129369669Y-86142310D01*
G75*
G02*
X129369669Y-86213020I-35355J-35355D01*
G01*
X128821661Y-86761028D01*
G75*
G02*
X128750951Y-86761028I-35355J35355D01*
G01*
G37*
G36*
G01*
X128468109Y-86478186D02*
X128397399Y-86407476D01*
G75*
G02*
X128397399Y-86336766I35355J35355D01*
G01*
X128945407Y-85788758D01*
G75*
G02*
X129016117Y-85788758I35355J-35355D01*
G01*
X129086827Y-85859468D01*
G75*
G02*
X129086827Y-85930178I-35355J-35355D01*
G01*
X128538819Y-86478186D01*
G75*
G02*
X128468109Y-86478186I-35355J35355D01*
G01*
G37*
G36*
G01*
X128185266Y-86195343D02*
X128114556Y-86124633D01*
G75*
G02*
X128114556Y-86053923I35355J35355D01*
G01*
X128662564Y-85505915D01*
G75*
G02*
X128733274Y-85505915I35355J-35355D01*
G01*
X128803984Y-85576625D01*
G75*
G02*
X128803984Y-85647335I-35355J-35355D01*
G01*
X128255976Y-86195343D01*
G75*
G02*
X128185266Y-86195343I-35355J35355D01*
G01*
G37*
G36*
G01*
X127902423Y-85912500D02*
X127831713Y-85841790D01*
G75*
G02*
X127831713Y-85771080I35355J35355D01*
G01*
X128379721Y-85223072D01*
G75*
G02*
X128450431Y-85223072I35355J-35355D01*
G01*
X128521141Y-85293782D01*
G75*
G02*
X128521141Y-85364492I-35355J-35355D01*
G01*
X127973133Y-85912500D01*
G75*
G02*
X127902423Y-85912500I-35355J35355D01*
G01*
G37*
G36*
G01*
X127619581Y-85629658D02*
X127548871Y-85558948D01*
G75*
G02*
X127548871Y-85488238I35355J35355D01*
G01*
X128096879Y-84940230D01*
G75*
G02*
X128167589Y-84940230I35355J-35355D01*
G01*
X128238299Y-85010940D01*
G75*
G02*
X128238299Y-85081650I-35355J-35355D01*
G01*
X127690291Y-85629658D01*
G75*
G02*
X127619581Y-85629658I-35355J35355D01*
G01*
G37*
G36*
G01*
X127336738Y-85346815D02*
X127266028Y-85276105D01*
G75*
G02*
X127266028Y-85205395I35355J35355D01*
G01*
X127814036Y-84657387D01*
G75*
G02*
X127884746Y-84657387I35355J-35355D01*
G01*
X127955456Y-84728097D01*
G75*
G02*
X127955456Y-84798807I-35355J-35355D01*
G01*
X127407448Y-85346815D01*
G75*
G02*
X127336738Y-85346815I-35355J35355D01*
G01*
G37*
G36*
G01*
X127053895Y-85063972D02*
X126983185Y-84993262D01*
G75*
G02*
X126983185Y-84922552I35355J35355D01*
G01*
X127531193Y-84374544D01*
G75*
G02*
X127601903Y-84374544I35355J-35355D01*
G01*
X127672613Y-84445254D01*
G75*
G02*
X127672613Y-84515964I-35355J-35355D01*
G01*
X127124605Y-85063972D01*
G75*
G02*
X127053895Y-85063972I-35355J35355D01*
G01*
G37*
G36*
G01*
X126771052Y-84781129D02*
X126700342Y-84710419D01*
G75*
G02*
X126700342Y-84639709I35355J35355D01*
G01*
X127248350Y-84091701D01*
G75*
G02*
X127319060Y-84091701I35355J-35355D01*
G01*
X127389770Y-84162411D01*
G75*
G02*
X127389770Y-84233121I-35355J-35355D01*
G01*
X126841762Y-84781129D01*
G75*
G02*
X126771052Y-84781129I-35355J35355D01*
G01*
G37*
G36*
G01*
X126488210Y-84498287D02*
X126417500Y-84427577D01*
G75*
G02*
X126417500Y-84356867I35355J35355D01*
G01*
X126965508Y-83808859D01*
G75*
G02*
X127036218Y-83808859I35355J-35355D01*
G01*
X127106928Y-83879569D01*
G75*
G02*
X127106928Y-83950279I-35355J-35355D01*
G01*
X126558920Y-84498287D01*
G75*
G02*
X126488210Y-84498287I-35355J35355D01*
G01*
G37*
G36*
G01*
X126205367Y-84215444D02*
X126134657Y-84144734D01*
G75*
G02*
X126134657Y-84074024I35355J35355D01*
G01*
X126682665Y-83526016D01*
G75*
G02*
X126753375Y-83526016I35355J-35355D01*
G01*
X126824085Y-83596726D01*
G75*
G02*
X126824085Y-83667436I-35355J-35355D01*
G01*
X126276077Y-84215444D01*
G75*
G02*
X126205367Y-84215444I-35355J35355D01*
G01*
G37*
G36*
G01*
X125922524Y-83932601D02*
X125851814Y-83861891D01*
G75*
G02*
X125851814Y-83791181I35355J35355D01*
G01*
X126399822Y-83243173D01*
G75*
G02*
X126470532Y-83243173I35355J-35355D01*
G01*
X126541242Y-83313883D01*
G75*
G02*
X126541242Y-83384593I-35355J-35355D01*
G01*
X125993234Y-83932601D01*
G75*
G02*
X125922524Y-83932601I-35355J35355D01*
G01*
G37*
G36*
G01*
X125639682Y-83649759D02*
X125568972Y-83579049D01*
G75*
G02*
X125568972Y-83508339I35355J35355D01*
G01*
X126116980Y-82960331D01*
G75*
G02*
X126187690Y-82960331I35355J-35355D01*
G01*
X126258400Y-83031041D01*
G75*
G02*
X126258400Y-83101751I-35355J-35355D01*
G01*
X125710392Y-83649759D01*
G75*
G02*
X125639682Y-83649759I-35355J35355D01*
G01*
G37*
G36*
G01*
X125356839Y-83366916D02*
X125286129Y-83296206D01*
G75*
G02*
X125286129Y-83225496I35355J35355D01*
G01*
X125834137Y-82677488D01*
G75*
G02*
X125904847Y-82677488I35355J-35355D01*
G01*
X125975557Y-82748198D01*
G75*
G02*
X125975557Y-82818908I-35355J-35355D01*
G01*
X125427549Y-83366916D01*
G75*
G02*
X125356839Y-83366916I-35355J35355D01*
G01*
G37*
G36*
G01*
X130624784Y-83020034D02*
X130211527Y-82606777D01*
G75*
G02*
X130211527Y-82253223I176777J176777D01*
G01*
X130624784Y-81839966D01*
G75*
G02*
X130978338Y-81839966I176777J-176777D01*
G01*
X131391595Y-82253223D01*
G75*
G02*
X131391595Y-82606777I-176777J-176777D01*
G01*
X130978338Y-83020034D01*
G75*
G02*
X130624784Y-83020034I-176777J176777D01*
G01*
G37*
G36*
G01*
X129723223Y-82118473D02*
X129309966Y-81705216D01*
G75*
G02*
X129309966Y-81351662I176777J176777D01*
G01*
X129723223Y-80938405D01*
G75*
G02*
X130076777Y-80938405I176777J-176777D01*
G01*
X130490034Y-81351662D01*
G75*
G02*
X130490034Y-81705216I-176777J-176777D01*
G01*
X130076777Y-82118473D01*
G75*
G02*
X129723223Y-82118473I-176777J176777D01*
G01*
G37*
G36*
G01*
X129723223Y-83921595D02*
X129309966Y-83508338D01*
G75*
G02*
X129309966Y-83154784I176777J176777D01*
G01*
X129723223Y-82741527D01*
G75*
G02*
X130076777Y-82741527I176777J-176777D01*
G01*
X130490034Y-83154784D01*
G75*
G02*
X130490034Y-83508338I-176777J-176777D01*
G01*
X130076777Y-83921595D01*
G75*
G02*
X129723223Y-83921595I-176777J176777D01*
G01*
G37*
G36*
G01*
X128821662Y-83020034D02*
X128408405Y-82606777D01*
G75*
G02*
X128408405Y-82253223I176777J176777D01*
G01*
X128821662Y-81839966D01*
G75*
G02*
X129175216Y-81839966I176777J-176777D01*
G01*
X129588473Y-82253223D01*
G75*
G02*
X129588473Y-82606777I-176777J-176777D01*
G01*
X129175216Y-83020034D01*
G75*
G02*
X128821662Y-83020034I-176777J176777D01*
G01*
G37*
G36*
G01*
X141430000Y-88390000D02*
X141770000Y-88390000D01*
G75*
G02*
X141910000Y-88530000I0J-140000D01*
G01*
X141910000Y-88810000D01*
G75*
G02*
X141770000Y-88950000I-140000J0D01*
G01*
X141430000Y-88950000D01*
G75*
G02*
X141290000Y-88810000I0J140000D01*
G01*
X141290000Y-88530000D01*
G75*
G02*
X141430000Y-88390000I140000J0D01*
G01*
G37*
G36*
G01*
X141430000Y-89350000D02*
X141770000Y-89350000D01*
G75*
G02*
X141910000Y-89490000I0J-140000D01*
G01*
X141910000Y-89770000D01*
G75*
G02*
X141770000Y-89910000I-140000J0D01*
G01*
X141430000Y-89910000D01*
G75*
G02*
X141290000Y-89770000I0J140000D01*
G01*
X141290000Y-89490000D01*
G75*
G02*
X141430000Y-89350000I140000J0D01*
G01*
G37*
G36*
G01*
X143490000Y-87235000D02*
X143490000Y-86865000D01*
G75*
G02*
X143625000Y-86730000I135000J0D01*
G01*
X143895000Y-86730000D01*
G75*
G02*
X144030000Y-86865000I0J-135000D01*
G01*
X144030000Y-87235000D01*
G75*
G02*
X143895000Y-87370000I-135000J0D01*
G01*
X143625000Y-87370000D01*
G75*
G02*
X143490000Y-87235000I0J135000D01*
G01*
G37*
G36*
G01*
X142470000Y-87235000D02*
X142470000Y-86865000D01*
G75*
G02*
X142605000Y-86730000I135000J0D01*
G01*
X142875000Y-86730000D01*
G75*
G02*
X143010000Y-86865000I0J-135000D01*
G01*
X143010000Y-87235000D01*
G75*
G02*
X142875000Y-87370000I-135000J0D01*
G01*
X142605000Y-87370000D01*
G75*
G02*
X142470000Y-87235000I0J135000D01*
G01*
G37*
G36*
G01*
X142640000Y-93235000D02*
X142640000Y-92865000D01*
G75*
G02*
X142775000Y-92730000I135000J0D01*
G01*
X143045000Y-92730000D01*
G75*
G02*
X143180000Y-92865000I0J-135000D01*
G01*
X143180000Y-93235000D01*
G75*
G02*
X143045000Y-93370000I-135000J0D01*
G01*
X142775000Y-93370000D01*
G75*
G02*
X142640000Y-93235000I0J135000D01*
G01*
G37*
G36*
G01*
X141620000Y-93235000D02*
X141620000Y-92865000D01*
G75*
G02*
X141755000Y-92730000I135000J0D01*
G01*
X142025000Y-92730000D01*
G75*
G02*
X142160000Y-92865000I0J-135000D01*
G01*
X142160000Y-93235000D01*
G75*
G02*
X142025000Y-93370000I-135000J0D01*
G01*
X141755000Y-93370000D01*
G75*
G02*
X141620000Y-93235000I0J135000D01*
G01*
G37*
G36*
G01*
X142643750Y-89600000D02*
X143156250Y-89600000D01*
G75*
G02*
X143375000Y-89818750I0J-218750D01*
G01*
X143375000Y-90256250D01*
G75*
G02*
X143156250Y-90475000I-218750J0D01*
G01*
X142643750Y-90475000D01*
G75*
G02*
X142425000Y-90256250I0J218750D01*
G01*
X142425000Y-89818750D01*
G75*
G02*
X142643750Y-89600000I218750J0D01*
G01*
G37*
G36*
G01*
X142643750Y-88025000D02*
X143156250Y-88025000D01*
G75*
G02*
X143375000Y-88243750I0J-218750D01*
G01*
X143375000Y-88681250D01*
G75*
G02*
X143156250Y-88900000I-218750J0D01*
G01*
X142643750Y-88900000D01*
G75*
G02*
X142425000Y-88681250I0J218750D01*
G01*
X142425000Y-88243750D01*
G75*
G02*
X142643750Y-88025000I218750J0D01*
G01*
G37*
G36*
G01*
X130275000Y-91650000D02*
X130475000Y-91650000D01*
G75*
G02*
X130575000Y-91750000I0J-100000D01*
G01*
X130575000Y-93025000D01*
G75*
G02*
X130475000Y-93125000I-100000J0D01*
G01*
X130275000Y-93125000D01*
G75*
G02*
X130175000Y-93025000I0J100000D01*
G01*
X130175000Y-91750000D01*
G75*
G02*
X130275000Y-91650000I100000J0D01*
G01*
G37*
G36*
G01*
X129625000Y-91650000D02*
X129825000Y-91650000D01*
G75*
G02*
X129925000Y-91750000I0J-100000D01*
G01*
X129925000Y-93025000D01*
G75*
G02*
X129825000Y-93125000I-100000J0D01*
G01*
X129625000Y-93125000D01*
G75*
G02*
X129525000Y-93025000I0J100000D01*
G01*
X129525000Y-91750000D01*
G75*
G02*
X129625000Y-91650000I100000J0D01*
G01*
G37*
G36*
G01*
X128975000Y-91650000D02*
X129175000Y-91650000D01*
G75*
G02*
X129275000Y-91750000I0J-100000D01*
G01*
X129275000Y-93025000D01*
G75*
G02*
X129175000Y-93125000I-100000J0D01*
G01*
X128975000Y-93125000D01*
G75*
G02*
X128875000Y-93025000I0J100000D01*
G01*
X128875000Y-91750000D01*
G75*
G02*
X128975000Y-91650000I100000J0D01*
G01*
G37*
G36*
G01*
X128325000Y-91650000D02*
X128525000Y-91650000D01*
G75*
G02*
X128625000Y-91750000I0J-100000D01*
G01*
X128625000Y-93025000D01*
G75*
G02*
X128525000Y-93125000I-100000J0D01*
G01*
X128325000Y-93125000D01*
G75*
G02*
X128225000Y-93025000I0J100000D01*
G01*
X128225000Y-91750000D01*
G75*
G02*
X128325000Y-91650000I100000J0D01*
G01*
G37*
G36*
G01*
X127675000Y-91650000D02*
X127875000Y-91650000D01*
G75*
G02*
X127975000Y-91750000I0J-100000D01*
G01*
X127975000Y-93025000D01*
G75*
G02*
X127875000Y-93125000I-100000J0D01*
G01*
X127675000Y-93125000D01*
G75*
G02*
X127575000Y-93025000I0J100000D01*
G01*
X127575000Y-91750000D01*
G75*
G02*
X127675000Y-91650000I100000J0D01*
G01*
G37*
G36*
G01*
X127025000Y-91650000D02*
X127225000Y-91650000D01*
G75*
G02*
X127325000Y-91750000I0J-100000D01*
G01*
X127325000Y-93025000D01*
G75*
G02*
X127225000Y-93125000I-100000J0D01*
G01*
X127025000Y-93125000D01*
G75*
G02*
X126925000Y-93025000I0J100000D01*
G01*
X126925000Y-91750000D01*
G75*
G02*
X127025000Y-91650000I100000J0D01*
G01*
G37*
G36*
G01*
X126375000Y-91650000D02*
X126575000Y-91650000D01*
G75*
G02*
X126675000Y-91750000I0J-100000D01*
G01*
X126675000Y-93025000D01*
G75*
G02*
X126575000Y-93125000I-100000J0D01*
G01*
X126375000Y-93125000D01*
G75*
G02*
X126275000Y-93025000I0J100000D01*
G01*
X126275000Y-91750000D01*
G75*
G02*
X126375000Y-91650000I100000J0D01*
G01*
G37*
G36*
G01*
X125725000Y-91650000D02*
X125925000Y-91650000D01*
G75*
G02*
X126025000Y-91750000I0J-100000D01*
G01*
X126025000Y-93025000D01*
G75*
G02*
X125925000Y-93125000I-100000J0D01*
G01*
X125725000Y-93125000D01*
G75*
G02*
X125625000Y-93025000I0J100000D01*
G01*
X125625000Y-91750000D01*
G75*
G02*
X125725000Y-91650000I100000J0D01*
G01*
G37*
G36*
G01*
X125725000Y-97375000D02*
X125925000Y-97375000D01*
G75*
G02*
X126025000Y-97475000I0J-100000D01*
G01*
X126025000Y-98750000D01*
G75*
G02*
X125925000Y-98850000I-100000J0D01*
G01*
X125725000Y-98850000D01*
G75*
G02*
X125625000Y-98750000I0J100000D01*
G01*
X125625000Y-97475000D01*
G75*
G02*
X125725000Y-97375000I100000J0D01*
G01*
G37*
G36*
G01*
X126375000Y-97375000D02*
X126575000Y-97375000D01*
G75*
G02*
X126675000Y-97475000I0J-100000D01*
G01*
X126675000Y-98750000D01*
G75*
G02*
X126575000Y-98850000I-100000J0D01*
G01*
X126375000Y-98850000D01*
G75*
G02*
X126275000Y-98750000I0J100000D01*
G01*
X126275000Y-97475000D01*
G75*
G02*
X126375000Y-97375000I100000J0D01*
G01*
G37*
G36*
G01*
X127025000Y-97375000D02*
X127225000Y-97375000D01*
G75*
G02*
X127325000Y-97475000I0J-100000D01*
G01*
X127325000Y-98750000D01*
G75*
G02*
X127225000Y-98850000I-100000J0D01*
G01*
X127025000Y-98850000D01*
G75*
G02*
X126925000Y-98750000I0J100000D01*
G01*
X126925000Y-97475000D01*
G75*
G02*
X127025000Y-97375000I100000J0D01*
G01*
G37*
G36*
G01*
X127675000Y-97375000D02*
X127875000Y-97375000D01*
G75*
G02*
X127975000Y-97475000I0J-100000D01*
G01*
X127975000Y-98750000D01*
G75*
G02*
X127875000Y-98850000I-100000J0D01*
G01*
X127675000Y-98850000D01*
G75*
G02*
X127575000Y-98750000I0J100000D01*
G01*
X127575000Y-97475000D01*
G75*
G02*
X127675000Y-97375000I100000J0D01*
G01*
G37*
G36*
G01*
X128325000Y-97375000D02*
X128525000Y-97375000D01*
G75*
G02*
X128625000Y-97475000I0J-100000D01*
G01*
X128625000Y-98750000D01*
G75*
G02*
X128525000Y-98850000I-100000J0D01*
G01*
X128325000Y-98850000D01*
G75*
G02*
X128225000Y-98750000I0J100000D01*
G01*
X128225000Y-97475000D01*
G75*
G02*
X128325000Y-97375000I100000J0D01*
G01*
G37*
G36*
G01*
X128975000Y-97375000D02*
X129175000Y-97375000D01*
G75*
G02*
X129275000Y-97475000I0J-100000D01*
G01*
X129275000Y-98750000D01*
G75*
G02*
X129175000Y-98850000I-100000J0D01*
G01*
X128975000Y-98850000D01*
G75*
G02*
X128875000Y-98750000I0J100000D01*
G01*
X128875000Y-97475000D01*
G75*
G02*
X128975000Y-97375000I100000J0D01*
G01*
G37*
G36*
G01*
X129625000Y-97375000D02*
X129825000Y-97375000D01*
G75*
G02*
X129925000Y-97475000I0J-100000D01*
G01*
X129925000Y-98750000D01*
G75*
G02*
X129825000Y-98850000I-100000J0D01*
G01*
X129625000Y-98850000D01*
G75*
G02*
X129525000Y-98750000I0J100000D01*
G01*
X129525000Y-97475000D01*
G75*
G02*
X129625000Y-97375000I100000J0D01*
G01*
G37*
G36*
G01*
X130275000Y-97375000D02*
X130475000Y-97375000D01*
G75*
G02*
X130575000Y-97475000I0J-100000D01*
G01*
X130575000Y-98750000D01*
G75*
G02*
X130475000Y-98850000I-100000J0D01*
G01*
X130275000Y-98850000D01*
G75*
G02*
X130175000Y-98750000I0J100000D01*
G01*
X130175000Y-97475000D01*
G75*
G02*
X130275000Y-97375000I100000J0D01*
G01*
G37*
D23*
X145100000Y-107800000D03*
X143800000Y-107800000D03*
X144450000Y-105900000D03*
X144450000Y-107800000D03*
X143800000Y-105900000D03*
X145100000Y-105900000D03*
X109900000Y-105900000D03*
X108600000Y-105900000D03*
X109250000Y-107800000D03*
X109250000Y-105900000D03*
X108600000Y-107800000D03*
X109900000Y-107800000D03*
X148150000Y-107800000D03*
X146850000Y-107800000D03*
X147500000Y-105900000D03*
X147500000Y-107800000D03*
X146850000Y-105900000D03*
X148150000Y-105900000D03*
G36*
G01*
X120650000Y-103275000D02*
X120450000Y-103275000D01*
G75*
G02*
X120350000Y-103175000I0J100000D01*
G01*
X120350000Y-101900000D01*
G75*
G02*
X120450000Y-101800000I100000J0D01*
G01*
X120650000Y-101800000D01*
G75*
G02*
X120750000Y-101900000I0J-100000D01*
G01*
X120750000Y-103175000D01*
G75*
G02*
X120650000Y-103275000I-100000J0D01*
G01*
G37*
G36*
G01*
X121300000Y-103275000D02*
X121100000Y-103275000D01*
G75*
G02*
X121000000Y-103175000I0J100000D01*
G01*
X121000000Y-101900000D01*
G75*
G02*
X121100000Y-101800000I100000J0D01*
G01*
X121300000Y-101800000D01*
G75*
G02*
X121400000Y-101900000I0J-100000D01*
G01*
X121400000Y-103175000D01*
G75*
G02*
X121300000Y-103275000I-100000J0D01*
G01*
G37*
G36*
G01*
X121950000Y-103275000D02*
X121750000Y-103275000D01*
G75*
G02*
X121650000Y-103175000I0J100000D01*
G01*
X121650000Y-101900000D01*
G75*
G02*
X121750000Y-101800000I100000J0D01*
G01*
X121950000Y-101800000D01*
G75*
G02*
X122050000Y-101900000I0J-100000D01*
G01*
X122050000Y-103175000D01*
G75*
G02*
X121950000Y-103275000I-100000J0D01*
G01*
G37*
G36*
G01*
X122600000Y-103275000D02*
X122400000Y-103275000D01*
G75*
G02*
X122300000Y-103175000I0J100000D01*
G01*
X122300000Y-101900000D01*
G75*
G02*
X122400000Y-101800000I100000J0D01*
G01*
X122600000Y-101800000D01*
G75*
G02*
X122700000Y-101900000I0J-100000D01*
G01*
X122700000Y-103175000D01*
G75*
G02*
X122600000Y-103275000I-100000J0D01*
G01*
G37*
G36*
G01*
X123250000Y-103275000D02*
X123050000Y-103275000D01*
G75*
G02*
X122950000Y-103175000I0J100000D01*
G01*
X122950000Y-101900000D01*
G75*
G02*
X123050000Y-101800000I100000J0D01*
G01*
X123250000Y-101800000D01*
G75*
G02*
X123350000Y-101900000I0J-100000D01*
G01*
X123350000Y-103175000D01*
G75*
G02*
X123250000Y-103275000I-100000J0D01*
G01*
G37*
G36*
G01*
X123900000Y-103275000D02*
X123700000Y-103275000D01*
G75*
G02*
X123600000Y-103175000I0J100000D01*
G01*
X123600000Y-101900000D01*
G75*
G02*
X123700000Y-101800000I100000J0D01*
G01*
X123900000Y-101800000D01*
G75*
G02*
X124000000Y-101900000I0J-100000D01*
G01*
X124000000Y-103175000D01*
G75*
G02*
X123900000Y-103275000I-100000J0D01*
G01*
G37*
G36*
G01*
X124550000Y-103275000D02*
X124350000Y-103275000D01*
G75*
G02*
X124250000Y-103175000I0J100000D01*
G01*
X124250000Y-101900000D01*
G75*
G02*
X124350000Y-101800000I100000J0D01*
G01*
X124550000Y-101800000D01*
G75*
G02*
X124650000Y-101900000I0J-100000D01*
G01*
X124650000Y-103175000D01*
G75*
G02*
X124550000Y-103275000I-100000J0D01*
G01*
G37*
G36*
G01*
X124550000Y-109000000D02*
X124350000Y-109000000D01*
G75*
G02*
X124250000Y-108900000I0J100000D01*
G01*
X124250000Y-107625000D01*
G75*
G02*
X124350000Y-107525000I100000J0D01*
G01*
X124550000Y-107525000D01*
G75*
G02*
X124650000Y-107625000I0J-100000D01*
G01*
X124650000Y-108900000D01*
G75*
G02*
X124550000Y-109000000I-100000J0D01*
G01*
G37*
G36*
G01*
X123900000Y-109000000D02*
X123700000Y-109000000D01*
G75*
G02*
X123600000Y-108900000I0J100000D01*
G01*
X123600000Y-107625000D01*
G75*
G02*
X123700000Y-107525000I100000J0D01*
G01*
X123900000Y-107525000D01*
G75*
G02*
X124000000Y-107625000I0J-100000D01*
G01*
X124000000Y-108900000D01*
G75*
G02*
X123900000Y-109000000I-100000J0D01*
G01*
G37*
G36*
G01*
X123250000Y-109000000D02*
X123050000Y-109000000D01*
G75*
G02*
X122950000Y-108900000I0J100000D01*
G01*
X122950000Y-107625000D01*
G75*
G02*
X123050000Y-107525000I100000J0D01*
G01*
X123250000Y-107525000D01*
G75*
G02*
X123350000Y-107625000I0J-100000D01*
G01*
X123350000Y-108900000D01*
G75*
G02*
X123250000Y-109000000I-100000J0D01*
G01*
G37*
G36*
G01*
X122600000Y-109000000D02*
X122400000Y-109000000D01*
G75*
G02*
X122300000Y-108900000I0J100000D01*
G01*
X122300000Y-107625000D01*
G75*
G02*
X122400000Y-107525000I100000J0D01*
G01*
X122600000Y-107525000D01*
G75*
G02*
X122700000Y-107625000I0J-100000D01*
G01*
X122700000Y-108900000D01*
G75*
G02*
X122600000Y-109000000I-100000J0D01*
G01*
G37*
G36*
G01*
X121950000Y-109000000D02*
X121750000Y-109000000D01*
G75*
G02*
X121650000Y-108900000I0J100000D01*
G01*
X121650000Y-107625000D01*
G75*
G02*
X121750000Y-107525000I100000J0D01*
G01*
X121950000Y-107525000D01*
G75*
G02*
X122050000Y-107625000I0J-100000D01*
G01*
X122050000Y-108900000D01*
G75*
G02*
X121950000Y-109000000I-100000J0D01*
G01*
G37*
G36*
G01*
X121300000Y-109000000D02*
X121100000Y-109000000D01*
G75*
G02*
X121000000Y-108900000I0J100000D01*
G01*
X121000000Y-107625000D01*
G75*
G02*
X121100000Y-107525000I100000J0D01*
G01*
X121300000Y-107525000D01*
G75*
G02*
X121400000Y-107625000I0J-100000D01*
G01*
X121400000Y-108900000D01*
G75*
G02*
X121300000Y-109000000I-100000J0D01*
G01*
G37*
G36*
G01*
X120650000Y-109000000D02*
X120450000Y-109000000D01*
G75*
G02*
X120350000Y-108900000I0J100000D01*
G01*
X120350000Y-107625000D01*
G75*
G02*
X120450000Y-107525000I100000J0D01*
G01*
X120650000Y-107525000D01*
G75*
G02*
X120750000Y-107625000I0J-100000D01*
G01*
X120750000Y-108900000D01*
G75*
G02*
X120650000Y-109000000I-100000J0D01*
G01*
G37*
G36*
G01*
X120900000Y-85820000D02*
X121240000Y-85820000D01*
G75*
G02*
X121380000Y-85960000I0J-140000D01*
G01*
X121380000Y-86240000D01*
G75*
G02*
X121240000Y-86380000I-140000J0D01*
G01*
X120900000Y-86380000D01*
G75*
G02*
X120760000Y-86240000I0J140000D01*
G01*
X120760000Y-85960000D01*
G75*
G02*
X120900000Y-85820000I140000J0D01*
G01*
G37*
G36*
G01*
X120900000Y-84860000D02*
X121240000Y-84860000D01*
G75*
G02*
X121380000Y-85000000I0J-140000D01*
G01*
X121380000Y-85280000D01*
G75*
G02*
X121240000Y-85420000I-140000J0D01*
G01*
X120900000Y-85420000D01*
G75*
G02*
X120760000Y-85280000I0J140000D01*
G01*
X120760000Y-85000000D01*
G75*
G02*
X120900000Y-84860000I140000J0D01*
G01*
G37*
D14*
X123520000Y-87550000D03*
X123520000Y-89450000D03*
X121320000Y-89450000D03*
X121320000Y-88500000D03*
X121320000Y-87550000D03*
G36*
G01*
X122340000Y-85420000D02*
X122000000Y-85420000D01*
G75*
G02*
X121860000Y-85280000I0J140000D01*
G01*
X121860000Y-85000000D01*
G75*
G02*
X122000000Y-84860000I140000J0D01*
G01*
X122340000Y-84860000D01*
G75*
G02*
X122480000Y-85000000I0J-140000D01*
G01*
X122480000Y-85280000D01*
G75*
G02*
X122340000Y-85420000I-140000J0D01*
G01*
G37*
G36*
G01*
X122340000Y-86380000D02*
X122000000Y-86380000D01*
G75*
G02*
X121860000Y-86240000I0J140000D01*
G01*
X121860000Y-85960000D01*
G75*
G02*
X122000000Y-85820000I140000J0D01*
G01*
X122340000Y-85820000D01*
G75*
G02*
X122480000Y-85960000I0J-140000D01*
G01*
X122480000Y-86240000D01*
G75*
G02*
X122340000Y-86380000I-140000J0D01*
G01*
G37*
D18*
G36*
X135000431Y-89346016D02*
G01*
X134151903Y-88497488D01*
X135141853Y-87507538D01*
X135990381Y-88356066D01*
X135000431Y-89346016D01*
G37*
G36*
X136556066Y-87790381D02*
G01*
X135707538Y-86941853D01*
X136697488Y-85951903D01*
X137546016Y-86800431D01*
X136556066Y-87790381D01*
G37*
G36*
X137758147Y-88992462D02*
G01*
X136909619Y-88143934D01*
X137899569Y-87153984D01*
X138748097Y-88002512D01*
X137758147Y-88992462D01*
G37*
G36*
X136202512Y-90548097D02*
G01*
X135353984Y-89699569D01*
X136343934Y-88709619D01*
X137192462Y-89558147D01*
X136202512Y-90548097D01*
G37*
G36*
G01*
X140045000Y-97375000D02*
X140245000Y-97375000D01*
G75*
G02*
X140345000Y-97475000I0J-100000D01*
G01*
X140345000Y-98750000D01*
G75*
G02*
X140245000Y-98850000I-100000J0D01*
G01*
X140045000Y-98850000D01*
G75*
G02*
X139945000Y-98750000I0J100000D01*
G01*
X139945000Y-97475000D01*
G75*
G02*
X140045000Y-97375000I100000J0D01*
G01*
G37*
G36*
G01*
X139395000Y-97375000D02*
X139595000Y-97375000D01*
G75*
G02*
X139695000Y-97475000I0J-100000D01*
G01*
X139695000Y-98750000D01*
G75*
G02*
X139595000Y-98850000I-100000J0D01*
G01*
X139395000Y-98850000D01*
G75*
G02*
X139295000Y-98750000I0J100000D01*
G01*
X139295000Y-97475000D01*
G75*
G02*
X139395000Y-97375000I100000J0D01*
G01*
G37*
G36*
G01*
X138745000Y-97375000D02*
X138945000Y-97375000D01*
G75*
G02*
X139045000Y-97475000I0J-100000D01*
G01*
X139045000Y-98750000D01*
G75*
G02*
X138945000Y-98850000I-100000J0D01*
G01*
X138745000Y-98850000D01*
G75*
G02*
X138645000Y-98750000I0J100000D01*
G01*
X138645000Y-97475000D01*
G75*
G02*
X138745000Y-97375000I100000J0D01*
G01*
G37*
G36*
G01*
X138095000Y-97375000D02*
X138295000Y-97375000D01*
G75*
G02*
X138395000Y-97475000I0J-100000D01*
G01*
X138395000Y-98750000D01*
G75*
G02*
X138295000Y-98850000I-100000J0D01*
G01*
X138095000Y-98850000D01*
G75*
G02*
X137995000Y-98750000I0J100000D01*
G01*
X137995000Y-97475000D01*
G75*
G02*
X138095000Y-97375000I100000J0D01*
G01*
G37*
G36*
G01*
X137445000Y-97375000D02*
X137645000Y-97375000D01*
G75*
G02*
X137745000Y-97475000I0J-100000D01*
G01*
X137745000Y-98750000D01*
G75*
G02*
X137645000Y-98850000I-100000J0D01*
G01*
X137445000Y-98850000D01*
G75*
G02*
X137345000Y-98750000I0J100000D01*
G01*
X137345000Y-97475000D01*
G75*
G02*
X137445000Y-97375000I100000J0D01*
G01*
G37*
G36*
G01*
X136795000Y-97375000D02*
X136995000Y-97375000D01*
G75*
G02*
X137095000Y-97475000I0J-100000D01*
G01*
X137095000Y-98750000D01*
G75*
G02*
X136995000Y-98850000I-100000J0D01*
G01*
X136795000Y-98850000D01*
G75*
G02*
X136695000Y-98750000I0J100000D01*
G01*
X136695000Y-97475000D01*
G75*
G02*
X136795000Y-97375000I100000J0D01*
G01*
G37*
G36*
G01*
X136145000Y-97375000D02*
X136345000Y-97375000D01*
G75*
G02*
X136445000Y-97475000I0J-100000D01*
G01*
X136445000Y-98750000D01*
G75*
G02*
X136345000Y-98850000I-100000J0D01*
G01*
X136145000Y-98850000D01*
G75*
G02*
X136045000Y-98750000I0J100000D01*
G01*
X136045000Y-97475000D01*
G75*
G02*
X136145000Y-97375000I100000J0D01*
G01*
G37*
G36*
G01*
X135495000Y-97375000D02*
X135695000Y-97375000D01*
G75*
G02*
X135795000Y-97475000I0J-100000D01*
G01*
X135795000Y-98750000D01*
G75*
G02*
X135695000Y-98850000I-100000J0D01*
G01*
X135495000Y-98850000D01*
G75*
G02*
X135395000Y-98750000I0J100000D01*
G01*
X135395000Y-97475000D01*
G75*
G02*
X135495000Y-97375000I100000J0D01*
G01*
G37*
G36*
G01*
X134845000Y-97375000D02*
X135045000Y-97375000D01*
G75*
G02*
X135145000Y-97475000I0J-100000D01*
G01*
X135145000Y-98750000D01*
G75*
G02*
X135045000Y-98850000I-100000J0D01*
G01*
X134845000Y-98850000D01*
G75*
G02*
X134745000Y-98750000I0J100000D01*
G01*
X134745000Y-97475000D01*
G75*
G02*
X134845000Y-97375000I100000J0D01*
G01*
G37*
G36*
G01*
X134195000Y-97375000D02*
X134395000Y-97375000D01*
G75*
G02*
X134495000Y-97475000I0J-100000D01*
G01*
X134495000Y-98750000D01*
G75*
G02*
X134395000Y-98850000I-100000J0D01*
G01*
X134195000Y-98850000D01*
G75*
G02*
X134095000Y-98750000I0J100000D01*
G01*
X134095000Y-97475000D01*
G75*
G02*
X134195000Y-97375000I100000J0D01*
G01*
G37*
G36*
G01*
X134195000Y-91650000D02*
X134395000Y-91650000D01*
G75*
G02*
X134495000Y-91750000I0J-100000D01*
G01*
X134495000Y-93025000D01*
G75*
G02*
X134395000Y-93125000I-100000J0D01*
G01*
X134195000Y-93125000D01*
G75*
G02*
X134095000Y-93025000I0J100000D01*
G01*
X134095000Y-91750000D01*
G75*
G02*
X134195000Y-91650000I100000J0D01*
G01*
G37*
G36*
G01*
X134845000Y-91650000D02*
X135045000Y-91650000D01*
G75*
G02*
X135145000Y-91750000I0J-100000D01*
G01*
X135145000Y-93025000D01*
G75*
G02*
X135045000Y-93125000I-100000J0D01*
G01*
X134845000Y-93125000D01*
G75*
G02*
X134745000Y-93025000I0J100000D01*
G01*
X134745000Y-91750000D01*
G75*
G02*
X134845000Y-91650000I100000J0D01*
G01*
G37*
G36*
G01*
X135495000Y-91650000D02*
X135695000Y-91650000D01*
G75*
G02*
X135795000Y-91750000I0J-100000D01*
G01*
X135795000Y-93025000D01*
G75*
G02*
X135695000Y-93125000I-100000J0D01*
G01*
X135495000Y-93125000D01*
G75*
G02*
X135395000Y-93025000I0J100000D01*
G01*
X135395000Y-91750000D01*
G75*
G02*
X135495000Y-91650000I100000J0D01*
G01*
G37*
G36*
G01*
X136145000Y-91650000D02*
X136345000Y-91650000D01*
G75*
G02*
X136445000Y-91750000I0J-100000D01*
G01*
X136445000Y-93025000D01*
G75*
G02*
X136345000Y-93125000I-100000J0D01*
G01*
X136145000Y-93125000D01*
G75*
G02*
X136045000Y-93025000I0J100000D01*
G01*
X136045000Y-91750000D01*
G75*
G02*
X136145000Y-91650000I100000J0D01*
G01*
G37*
G36*
G01*
X136795000Y-91650000D02*
X136995000Y-91650000D01*
G75*
G02*
X137095000Y-91750000I0J-100000D01*
G01*
X137095000Y-93025000D01*
G75*
G02*
X136995000Y-93125000I-100000J0D01*
G01*
X136795000Y-93125000D01*
G75*
G02*
X136695000Y-93025000I0J100000D01*
G01*
X136695000Y-91750000D01*
G75*
G02*
X136795000Y-91650000I100000J0D01*
G01*
G37*
G36*
G01*
X137445000Y-91650000D02*
X137645000Y-91650000D01*
G75*
G02*
X137745000Y-91750000I0J-100000D01*
G01*
X137745000Y-93025000D01*
G75*
G02*
X137645000Y-93125000I-100000J0D01*
G01*
X137445000Y-93125000D01*
G75*
G02*
X137345000Y-93025000I0J100000D01*
G01*
X137345000Y-91750000D01*
G75*
G02*
X137445000Y-91650000I100000J0D01*
G01*
G37*
G36*
G01*
X138095000Y-91650000D02*
X138295000Y-91650000D01*
G75*
G02*
X138395000Y-91750000I0J-100000D01*
G01*
X138395000Y-93025000D01*
G75*
G02*
X138295000Y-93125000I-100000J0D01*
G01*
X138095000Y-93125000D01*
G75*
G02*
X137995000Y-93025000I0J100000D01*
G01*
X137995000Y-91750000D01*
G75*
G02*
X138095000Y-91650000I100000J0D01*
G01*
G37*
G36*
G01*
X138745000Y-91650000D02*
X138945000Y-91650000D01*
G75*
G02*
X139045000Y-91750000I0J-100000D01*
G01*
X139045000Y-93025000D01*
G75*
G02*
X138945000Y-93125000I-100000J0D01*
G01*
X138745000Y-93125000D01*
G75*
G02*
X138645000Y-93025000I0J100000D01*
G01*
X138645000Y-91750000D01*
G75*
G02*
X138745000Y-91650000I100000J0D01*
G01*
G37*
G36*
G01*
X139395000Y-91650000D02*
X139595000Y-91650000D01*
G75*
G02*
X139695000Y-91750000I0J-100000D01*
G01*
X139695000Y-93025000D01*
G75*
G02*
X139595000Y-93125000I-100000J0D01*
G01*
X139395000Y-93125000D01*
G75*
G02*
X139295000Y-93025000I0J100000D01*
G01*
X139295000Y-91750000D01*
G75*
G02*
X139395000Y-91650000I100000J0D01*
G01*
G37*
G36*
G01*
X140045000Y-91650000D02*
X140245000Y-91650000D01*
G75*
G02*
X140345000Y-91750000I0J-100000D01*
G01*
X140345000Y-93025000D01*
G75*
G02*
X140245000Y-93125000I-100000J0D01*
G01*
X140045000Y-93125000D01*
G75*
G02*
X139945000Y-93025000I0J100000D01*
G01*
X139945000Y-91750000D01*
G75*
G02*
X140045000Y-91650000I100000J0D01*
G01*
G37*
G36*
G01*
X141850000Y-98430000D02*
X141850000Y-98770000D01*
G75*
G02*
X141710000Y-98910000I-140000J0D01*
G01*
X141430000Y-98910000D01*
G75*
G02*
X141290000Y-98770000I0J140000D01*
G01*
X141290000Y-98430000D01*
G75*
G02*
X141430000Y-98290000I140000J0D01*
G01*
X141710000Y-98290000D01*
G75*
G02*
X141850000Y-98430000I0J-140000D01*
G01*
G37*
G36*
G01*
X142810000Y-98430000D02*
X142810000Y-98770000D01*
G75*
G02*
X142670000Y-98910000I-140000J0D01*
G01*
X142390000Y-98910000D01*
G75*
G02*
X142250000Y-98770000I0J140000D01*
G01*
X142250000Y-98430000D01*
G75*
G02*
X142390000Y-98290000I140000J0D01*
G01*
X142670000Y-98290000D01*
G75*
G02*
X142810000Y-98430000I0J-140000D01*
G01*
G37*
G36*
G01*
X134600000Y-119345001D02*
X134600000Y-118044999D01*
G75*
G02*
X134849999Y-117795000I249999J0D01*
G01*
X135550001Y-117795000D01*
G75*
G02*
X135800000Y-118044999I0J-249999D01*
G01*
X135800000Y-119345001D01*
G75*
G02*
X135550001Y-119595000I-249999J0D01*
G01*
X134849999Y-119595000D01*
G75*
G02*
X134600000Y-119345001I0J249999D01*
G01*
G37*
G36*
G01*
X124000000Y-119345001D02*
X124000000Y-118044999D01*
G75*
G02*
X124249999Y-117795000I249999J0D01*
G01*
X124950001Y-117795000D01*
G75*
G02*
X125200000Y-118044999I0J-249999D01*
G01*
X125200000Y-119345001D01*
G75*
G02*
X124950001Y-119595000I-249999J0D01*
G01*
X124249999Y-119595000D01*
G75*
G02*
X124000000Y-119345001I0J249999D01*
G01*
G37*
G36*
G01*
X133600000Y-115445000D02*
X133600000Y-114195000D01*
G75*
G02*
X133750000Y-114045000I150000J0D01*
G01*
X134050000Y-114045000D01*
G75*
G02*
X134200000Y-114195000I0J-150000D01*
G01*
X134200000Y-115445000D01*
G75*
G02*
X134050000Y-115595000I-150000J0D01*
G01*
X133750000Y-115595000D01*
G75*
G02*
X133600000Y-115445000I0J150000D01*
G01*
G37*
G36*
G01*
X132600000Y-115445000D02*
X132600000Y-114195000D01*
G75*
G02*
X132750000Y-114045000I150000J0D01*
G01*
X133050000Y-114045000D01*
G75*
G02*
X133200000Y-114195000I0J-150000D01*
G01*
X133200000Y-115445000D01*
G75*
G02*
X133050000Y-115595000I-150000J0D01*
G01*
X132750000Y-115595000D01*
G75*
G02*
X132600000Y-115445000I0J150000D01*
G01*
G37*
G36*
G01*
X131600000Y-115445000D02*
X131600000Y-114195000D01*
G75*
G02*
X131750000Y-114045000I150000J0D01*
G01*
X132050000Y-114045000D01*
G75*
G02*
X132200000Y-114195000I0J-150000D01*
G01*
X132200000Y-115445000D01*
G75*
G02*
X132050000Y-115595000I-150000J0D01*
G01*
X131750000Y-115595000D01*
G75*
G02*
X131600000Y-115445000I0J150000D01*
G01*
G37*
G36*
G01*
X130600000Y-115445000D02*
X130600000Y-114195000D01*
G75*
G02*
X130750000Y-114045000I150000J0D01*
G01*
X131050000Y-114045000D01*
G75*
G02*
X131200000Y-114195000I0J-150000D01*
G01*
X131200000Y-115445000D01*
G75*
G02*
X131050000Y-115595000I-150000J0D01*
G01*
X130750000Y-115595000D01*
G75*
G02*
X130600000Y-115445000I0J150000D01*
G01*
G37*
G36*
G01*
X129600000Y-115445000D02*
X129600000Y-114195000D01*
G75*
G02*
X129750000Y-114045000I150000J0D01*
G01*
X130050000Y-114045000D01*
G75*
G02*
X130200000Y-114195000I0J-150000D01*
G01*
X130200000Y-115445000D01*
G75*
G02*
X130050000Y-115595000I-150000J0D01*
G01*
X129750000Y-115595000D01*
G75*
G02*
X129600000Y-115445000I0J150000D01*
G01*
G37*
G36*
G01*
X128600000Y-115445000D02*
X128600000Y-114195000D01*
G75*
G02*
X128750000Y-114045000I150000J0D01*
G01*
X129050000Y-114045000D01*
G75*
G02*
X129200000Y-114195000I0J-150000D01*
G01*
X129200000Y-115445000D01*
G75*
G02*
X129050000Y-115595000I-150000J0D01*
G01*
X128750000Y-115595000D01*
G75*
G02*
X128600000Y-115445000I0J150000D01*
G01*
G37*
G36*
G01*
X127600000Y-115445000D02*
X127600000Y-114195000D01*
G75*
G02*
X127750000Y-114045000I150000J0D01*
G01*
X128050000Y-114045000D01*
G75*
G02*
X128200000Y-114195000I0J-150000D01*
G01*
X128200000Y-115445000D01*
G75*
G02*
X128050000Y-115595000I-150000J0D01*
G01*
X127750000Y-115595000D01*
G75*
G02*
X127600000Y-115445000I0J150000D01*
G01*
G37*
G36*
G01*
X126600000Y-115445000D02*
X126600000Y-114195000D01*
G75*
G02*
X126750000Y-114045000I150000J0D01*
G01*
X127050000Y-114045000D01*
G75*
G02*
X127200000Y-114195000I0J-150000D01*
G01*
X127200000Y-115445000D01*
G75*
G02*
X127050000Y-115595000I-150000J0D01*
G01*
X126750000Y-115595000D01*
G75*
G02*
X126600000Y-115445000I0J150000D01*
G01*
G37*
G36*
G01*
X125600000Y-115445000D02*
X125600000Y-114195000D01*
G75*
G02*
X125750000Y-114045000I150000J0D01*
G01*
X126050000Y-114045000D01*
G75*
G02*
X126200000Y-114195000I0J-150000D01*
G01*
X126200000Y-115445000D01*
G75*
G02*
X126050000Y-115595000I-150000J0D01*
G01*
X125750000Y-115595000D01*
G75*
G02*
X125600000Y-115445000I0J150000D01*
G01*
G37*
G36*
G01*
X110165000Y-79390000D02*
X109795000Y-79390000D01*
G75*
G02*
X109660000Y-79255000I0J135000D01*
G01*
X109660000Y-78985000D01*
G75*
G02*
X109795000Y-78850000I135000J0D01*
G01*
X110165000Y-78850000D01*
G75*
G02*
X110300000Y-78985000I0J-135000D01*
G01*
X110300000Y-79255000D01*
G75*
G02*
X110165000Y-79390000I-135000J0D01*
G01*
G37*
G36*
G01*
X110165000Y-80410000D02*
X109795000Y-80410000D01*
G75*
G02*
X109660000Y-80275000I0J135000D01*
G01*
X109660000Y-80005000D01*
G75*
G02*
X109795000Y-79870000I135000J0D01*
G01*
X110165000Y-79870000D01*
G75*
G02*
X110300000Y-80005000I0J-135000D01*
G01*
X110300000Y-80275000D01*
G75*
G02*
X110165000Y-80410000I-135000J0D01*
G01*
G37*
G36*
G01*
X113785000Y-71300000D02*
X113415000Y-71300000D01*
G75*
G02*
X113280000Y-71165000I0J135000D01*
G01*
X113280000Y-70895000D01*
G75*
G02*
X113415000Y-70760000I135000J0D01*
G01*
X113785000Y-70760000D01*
G75*
G02*
X113920000Y-70895000I0J-135000D01*
G01*
X113920000Y-71165000D01*
G75*
G02*
X113785000Y-71300000I-135000J0D01*
G01*
G37*
G36*
G01*
X113785000Y-72320000D02*
X113415000Y-72320000D01*
G75*
G02*
X113280000Y-72185000I0J135000D01*
G01*
X113280000Y-71915000D01*
G75*
G02*
X113415000Y-71780000I135000J0D01*
G01*
X113785000Y-71780000D01*
G75*
G02*
X113920000Y-71915000I0J-135000D01*
G01*
X113920000Y-72185000D01*
G75*
G02*
X113785000Y-72320000I-135000J0D01*
G01*
G37*
G36*
G01*
X112365000Y-70760000D02*
X112735000Y-70760000D01*
G75*
G02*
X112870000Y-70895000I0J-135000D01*
G01*
X112870000Y-71165000D01*
G75*
G02*
X112735000Y-71300000I-135000J0D01*
G01*
X112365000Y-71300000D01*
G75*
G02*
X112230000Y-71165000I0J135000D01*
G01*
X112230000Y-70895000D01*
G75*
G02*
X112365000Y-70760000I135000J0D01*
G01*
G37*
G36*
G01*
X112365000Y-71780000D02*
X112735000Y-71780000D01*
G75*
G02*
X112870000Y-71915000I0J-135000D01*
G01*
X112870000Y-72185000D01*
G75*
G02*
X112735000Y-72320000I-135000J0D01*
G01*
X112365000Y-72320000D01*
G75*
G02*
X112230000Y-72185000I0J135000D01*
G01*
X112230000Y-71915000D01*
G75*
G02*
X112365000Y-71780000I135000J0D01*
G01*
G37*
G36*
G01*
X144735000Y-102880000D02*
X144365000Y-102880000D01*
G75*
G02*
X144230000Y-102745000I0J135000D01*
G01*
X144230000Y-102475000D01*
G75*
G02*
X144365000Y-102340000I135000J0D01*
G01*
X144735000Y-102340000D01*
G75*
G02*
X144870000Y-102475000I0J-135000D01*
G01*
X144870000Y-102745000D01*
G75*
G02*
X144735000Y-102880000I-135000J0D01*
G01*
G37*
G36*
G01*
X144735000Y-101860000D02*
X144365000Y-101860000D01*
G75*
G02*
X144230000Y-101725000I0J135000D01*
G01*
X144230000Y-101455000D01*
G75*
G02*
X144365000Y-101320000I135000J0D01*
G01*
X144735000Y-101320000D01*
G75*
G02*
X144870000Y-101455000I0J-135000D01*
G01*
X144870000Y-101725000D01*
G75*
G02*
X144735000Y-101860000I-135000J0D01*
G01*
G37*
G36*
G01*
X111185000Y-84260000D02*
X110815000Y-84260000D01*
G75*
G02*
X110680000Y-84125000I0J135000D01*
G01*
X110680000Y-83855000D01*
G75*
G02*
X110815000Y-83720000I135000J0D01*
G01*
X111185000Y-83720000D01*
G75*
G02*
X111320000Y-83855000I0J-135000D01*
G01*
X111320000Y-84125000D01*
G75*
G02*
X111185000Y-84260000I-135000J0D01*
G01*
G37*
G36*
G01*
X111185000Y-83240000D02*
X110815000Y-83240000D01*
G75*
G02*
X110680000Y-83105000I0J135000D01*
G01*
X110680000Y-82835000D01*
G75*
G02*
X110815000Y-82700000I135000J0D01*
G01*
X111185000Y-82700000D01*
G75*
G02*
X111320000Y-82835000I0J-135000D01*
G01*
X111320000Y-83105000D01*
G75*
G02*
X111185000Y-83240000I-135000J0D01*
G01*
G37*
G36*
X112641852Y-84751193D02*
G01*
X113101472Y-84291573D01*
X113843934Y-85034035D01*
X113384314Y-85493655D01*
X112641852Y-84751193D01*
G37*
G36*
X115576345Y-87685686D02*
G01*
X116035965Y-87226066D01*
X116778427Y-87968528D01*
X116318807Y-88428148D01*
X115576345Y-87685686D01*
G37*
G36*
X111121573Y-86271472D02*
G01*
X111581193Y-85811852D01*
X112323655Y-86554314D01*
X111864035Y-87013934D01*
X111121573Y-86271472D01*
G37*
G36*
X114056066Y-89205965D02*
G01*
X114515686Y-88746345D01*
X115258148Y-89488807D01*
X114798528Y-89948427D01*
X114056066Y-89205965D01*
G37*
G36*
G01*
X111895000Y-82700000D02*
X112265000Y-82700000D01*
G75*
G02*
X112400000Y-82835000I0J-135000D01*
G01*
X112400000Y-83105000D01*
G75*
G02*
X112265000Y-83240000I-135000J0D01*
G01*
X111895000Y-83240000D01*
G75*
G02*
X111760000Y-83105000I0J135000D01*
G01*
X111760000Y-82835000D01*
G75*
G02*
X111895000Y-82700000I135000J0D01*
G01*
G37*
G36*
G01*
X111895000Y-83720000D02*
X112265000Y-83720000D01*
G75*
G02*
X112400000Y-83855000I0J-135000D01*
G01*
X112400000Y-84125000D01*
G75*
G02*
X112265000Y-84260000I-135000J0D01*
G01*
X111895000Y-84260000D01*
G75*
G02*
X111760000Y-84125000I0J135000D01*
G01*
X111760000Y-83855000D01*
G75*
G02*
X111895000Y-83720000I135000J0D01*
G01*
G37*
G36*
G01*
X110430000Y-115630000D02*
X110770000Y-115630000D01*
G75*
G02*
X110910000Y-115770000I0J-140000D01*
G01*
X110910000Y-116050000D01*
G75*
G02*
X110770000Y-116190000I-140000J0D01*
G01*
X110430000Y-116190000D01*
G75*
G02*
X110290000Y-116050000I0J140000D01*
G01*
X110290000Y-115770000D01*
G75*
G02*
X110430000Y-115630000I140000J0D01*
G01*
G37*
G36*
G01*
X110430000Y-114670000D02*
X110770000Y-114670000D01*
G75*
G02*
X110910000Y-114810000I0J-140000D01*
G01*
X110910000Y-115090000D01*
G75*
G02*
X110770000Y-115230000I-140000J0D01*
G01*
X110430000Y-115230000D01*
G75*
G02*
X110290000Y-115090000I0J140000D01*
G01*
X110290000Y-114810000D01*
G75*
G02*
X110430000Y-114670000I140000J0D01*
G01*
G37*
G36*
G01*
X118200000Y-116470000D02*
X118200000Y-116130000D01*
G75*
G02*
X118340000Y-115990000I140000J0D01*
G01*
X118620000Y-115990000D01*
G75*
G02*
X118760000Y-116130000I0J-140000D01*
G01*
X118760000Y-116470000D01*
G75*
G02*
X118620000Y-116610000I-140000J0D01*
G01*
X118340000Y-116610000D01*
G75*
G02*
X118200000Y-116470000I0J140000D01*
G01*
G37*
G36*
G01*
X117240000Y-116470000D02*
X117240000Y-116130000D01*
G75*
G02*
X117380000Y-115990000I140000J0D01*
G01*
X117660000Y-115990000D01*
G75*
G02*
X117800000Y-116130000I0J-140000D01*
G01*
X117800000Y-116470000D01*
G75*
G02*
X117660000Y-116610000I-140000J0D01*
G01*
X117380000Y-116610000D01*
G75*
G02*
X117240000Y-116470000I0J140000D01*
G01*
G37*
G36*
G01*
X138900000Y-116030000D02*
X138900000Y-116370000D01*
G75*
G02*
X138760000Y-116510000I-140000J0D01*
G01*
X138480000Y-116510000D01*
G75*
G02*
X138340000Y-116370000I0J140000D01*
G01*
X138340000Y-116030000D01*
G75*
G02*
X138480000Y-115890000I140000J0D01*
G01*
X138760000Y-115890000D01*
G75*
G02*
X138900000Y-116030000I0J-140000D01*
G01*
G37*
G36*
G01*
X139860000Y-116030000D02*
X139860000Y-116370000D01*
G75*
G02*
X139720000Y-116510000I-140000J0D01*
G01*
X139440000Y-116510000D01*
G75*
G02*
X139300000Y-116370000I0J140000D01*
G01*
X139300000Y-116030000D01*
G75*
G02*
X139440000Y-115890000I140000J0D01*
G01*
X139720000Y-115890000D01*
G75*
G02*
X139860000Y-116030000I0J-140000D01*
G01*
G37*
G36*
G01*
X142000000Y-116370000D02*
X142000000Y-116030000D01*
G75*
G02*
X142140000Y-115890000I140000J0D01*
G01*
X142420000Y-115890000D01*
G75*
G02*
X142560000Y-116030000I0J-140000D01*
G01*
X142560000Y-116370000D01*
G75*
G02*
X142420000Y-116510000I-140000J0D01*
G01*
X142140000Y-116510000D01*
G75*
G02*
X142000000Y-116370000I0J140000D01*
G01*
G37*
G36*
G01*
X141040000Y-116370000D02*
X141040000Y-116030000D01*
G75*
G02*
X141180000Y-115890000I140000J0D01*
G01*
X141460000Y-115890000D01*
G75*
G02*
X141600000Y-116030000I0J-140000D01*
G01*
X141600000Y-116370000D01*
G75*
G02*
X141460000Y-116510000I-140000J0D01*
G01*
X141180000Y-116510000D01*
G75*
G02*
X141040000Y-116370000I0J140000D01*
G01*
G37*
G36*
G01*
X101700000Y-102030000D02*
X101700000Y-102370000D01*
G75*
G02*
X101560000Y-102510000I-140000J0D01*
G01*
X101280000Y-102510000D01*
G75*
G02*
X101140000Y-102370000I0J140000D01*
G01*
X101140000Y-102030000D01*
G75*
G02*
X101280000Y-101890000I140000J0D01*
G01*
X101560000Y-101890000D01*
G75*
G02*
X101700000Y-102030000I0J-140000D01*
G01*
G37*
G36*
G01*
X102660000Y-102030000D02*
X102660000Y-102370000D01*
G75*
G02*
X102520000Y-102510000I-140000J0D01*
G01*
X102240000Y-102510000D01*
G75*
G02*
X102100000Y-102370000I0J140000D01*
G01*
X102100000Y-102030000D01*
G75*
G02*
X102240000Y-101890000I140000J0D01*
G01*
X102520000Y-101890000D01*
G75*
G02*
X102660000Y-102030000I0J-140000D01*
G01*
G37*
G36*
G01*
X155820000Y-108750000D02*
X155480000Y-108750000D01*
G75*
G02*
X155340000Y-108610000I0J140000D01*
G01*
X155340000Y-108330000D01*
G75*
G02*
X155480000Y-108190000I140000J0D01*
G01*
X155820000Y-108190000D01*
G75*
G02*
X155960000Y-108330000I0J-140000D01*
G01*
X155960000Y-108610000D01*
G75*
G02*
X155820000Y-108750000I-140000J0D01*
G01*
G37*
G36*
G01*
X155820000Y-109710000D02*
X155480000Y-109710000D01*
G75*
G02*
X155340000Y-109570000I0J140000D01*
G01*
X155340000Y-109290000D01*
G75*
G02*
X155480000Y-109150000I140000J0D01*
G01*
X155820000Y-109150000D01*
G75*
G02*
X155960000Y-109290000I0J-140000D01*
G01*
X155960000Y-109570000D01*
G75*
G02*
X155820000Y-109710000I-140000J0D01*
G01*
G37*
G36*
G01*
X101700000Y-94930000D02*
X101700000Y-95270000D01*
G75*
G02*
X101560000Y-95410000I-140000J0D01*
G01*
X101280000Y-95410000D01*
G75*
G02*
X101140000Y-95270000I0J140000D01*
G01*
X101140000Y-94930000D01*
G75*
G02*
X101280000Y-94790000I140000J0D01*
G01*
X101560000Y-94790000D01*
G75*
G02*
X101700000Y-94930000I0J-140000D01*
G01*
G37*
G36*
G01*
X102660000Y-94930000D02*
X102660000Y-95270000D01*
G75*
G02*
X102520000Y-95410000I-140000J0D01*
G01*
X102240000Y-95410000D01*
G75*
G02*
X102100000Y-95270000I0J140000D01*
G01*
X102100000Y-94930000D01*
G75*
G02*
X102240000Y-94790000I140000J0D01*
G01*
X102520000Y-94790000D01*
G75*
G02*
X102660000Y-94930000I0J-140000D01*
G01*
G37*
G36*
G01*
X101700000Y-85430000D02*
X101700000Y-85770000D01*
G75*
G02*
X101560000Y-85910000I-140000J0D01*
G01*
X101280000Y-85910000D01*
G75*
G02*
X101140000Y-85770000I0J140000D01*
G01*
X101140000Y-85430000D01*
G75*
G02*
X101280000Y-85290000I140000J0D01*
G01*
X101560000Y-85290000D01*
G75*
G02*
X101700000Y-85430000I0J-140000D01*
G01*
G37*
G36*
G01*
X102660000Y-85430000D02*
X102660000Y-85770000D01*
G75*
G02*
X102520000Y-85910000I-140000J0D01*
G01*
X102240000Y-85910000D01*
G75*
G02*
X102100000Y-85770000I0J140000D01*
G01*
X102100000Y-85430000D01*
G75*
G02*
X102240000Y-85290000I140000J0D01*
G01*
X102520000Y-85290000D01*
G75*
G02*
X102660000Y-85430000I0J-140000D01*
G01*
G37*
G36*
G01*
X101750000Y-78530000D02*
X101750000Y-78870000D01*
G75*
G02*
X101610000Y-79010000I-140000J0D01*
G01*
X101330000Y-79010000D01*
G75*
G02*
X101190000Y-78870000I0J140000D01*
G01*
X101190000Y-78530000D01*
G75*
G02*
X101330000Y-78390000I140000J0D01*
G01*
X101610000Y-78390000D01*
G75*
G02*
X101750000Y-78530000I0J-140000D01*
G01*
G37*
G36*
G01*
X102710000Y-78530000D02*
X102710000Y-78870000D01*
G75*
G02*
X102570000Y-79010000I-140000J0D01*
G01*
X102290000Y-79010000D01*
G75*
G02*
X102150000Y-78870000I0J140000D01*
G01*
X102150000Y-78530000D01*
G75*
G02*
X102290000Y-78390000I140000J0D01*
G01*
X102570000Y-78390000D01*
G75*
G02*
X102710000Y-78530000I0J-140000D01*
G01*
G37*
G36*
G01*
X104300000Y-70530000D02*
X104300000Y-70870000D01*
G75*
G02*
X104160000Y-71010000I-140000J0D01*
G01*
X103880000Y-71010000D01*
G75*
G02*
X103740000Y-70870000I0J140000D01*
G01*
X103740000Y-70530000D01*
G75*
G02*
X103880000Y-70390000I140000J0D01*
G01*
X104160000Y-70390000D01*
G75*
G02*
X104300000Y-70530000I0J-140000D01*
G01*
G37*
G36*
G01*
X105260000Y-70530000D02*
X105260000Y-70870000D01*
G75*
G02*
X105120000Y-71010000I-140000J0D01*
G01*
X104840000Y-71010000D01*
G75*
G02*
X104700000Y-70870000I0J140000D01*
G01*
X104700000Y-70530000D01*
G75*
G02*
X104840000Y-70390000I140000J0D01*
G01*
X105120000Y-70390000D01*
G75*
G02*
X105260000Y-70530000I0J-140000D01*
G01*
G37*
G36*
G01*
X158100000Y-78070000D02*
X158100000Y-77730000D01*
G75*
G02*
X158240000Y-77590000I140000J0D01*
G01*
X158520000Y-77590000D01*
G75*
G02*
X158660000Y-77730000I0J-140000D01*
G01*
X158660000Y-78070000D01*
G75*
G02*
X158520000Y-78210000I-140000J0D01*
G01*
X158240000Y-78210000D01*
G75*
G02*
X158100000Y-78070000I0J140000D01*
G01*
G37*
G36*
G01*
X157140000Y-78070000D02*
X157140000Y-77730000D01*
G75*
G02*
X157280000Y-77590000I140000J0D01*
G01*
X157560000Y-77590000D01*
G75*
G02*
X157700000Y-77730000I0J-140000D01*
G01*
X157700000Y-78070000D01*
G75*
G02*
X157560000Y-78210000I-140000J0D01*
G01*
X157280000Y-78210000D01*
G75*
G02*
X157140000Y-78070000I0J140000D01*
G01*
G37*
G36*
G01*
X117520000Y-64450000D02*
X117180000Y-64450000D01*
G75*
G02*
X117040000Y-64310000I0J140000D01*
G01*
X117040000Y-64030000D01*
G75*
G02*
X117180000Y-63890000I140000J0D01*
G01*
X117520000Y-63890000D01*
G75*
G02*
X117660000Y-64030000I0J-140000D01*
G01*
X117660000Y-64310000D01*
G75*
G02*
X117520000Y-64450000I-140000J0D01*
G01*
G37*
G36*
G01*
X117520000Y-65410000D02*
X117180000Y-65410000D01*
G75*
G02*
X117040000Y-65270000I0J140000D01*
G01*
X117040000Y-64990000D01*
G75*
G02*
X117180000Y-64850000I140000J0D01*
G01*
X117520000Y-64850000D01*
G75*
G02*
X117660000Y-64990000I0J-140000D01*
G01*
X117660000Y-65270000D01*
G75*
G02*
X117520000Y-65410000I-140000J0D01*
G01*
G37*
G36*
G01*
X121020000Y-64580000D02*
X120680000Y-64580000D01*
G75*
G02*
X120540000Y-64440000I0J140000D01*
G01*
X120540000Y-64160000D01*
G75*
G02*
X120680000Y-64020000I140000J0D01*
G01*
X121020000Y-64020000D01*
G75*
G02*
X121160000Y-64160000I0J-140000D01*
G01*
X121160000Y-64440000D01*
G75*
G02*
X121020000Y-64580000I-140000J0D01*
G01*
G37*
G36*
G01*
X121020000Y-65540000D02*
X120680000Y-65540000D01*
G75*
G02*
X120540000Y-65400000I0J140000D01*
G01*
X120540000Y-65120000D01*
G75*
G02*
X120680000Y-64980000I140000J0D01*
G01*
X121020000Y-64980000D01*
G75*
G02*
X121160000Y-65120000I0J-140000D01*
G01*
X121160000Y-65400000D01*
G75*
G02*
X121020000Y-65540000I-140000J0D01*
G01*
G37*
G36*
G01*
X138070000Y-64580000D02*
X137730000Y-64580000D01*
G75*
G02*
X137590000Y-64440000I0J140000D01*
G01*
X137590000Y-64160000D01*
G75*
G02*
X137730000Y-64020000I140000J0D01*
G01*
X138070000Y-64020000D01*
G75*
G02*
X138210000Y-64160000I0J-140000D01*
G01*
X138210000Y-64440000D01*
G75*
G02*
X138070000Y-64580000I-140000J0D01*
G01*
G37*
G36*
G01*
X138070000Y-65540000D02*
X137730000Y-65540000D01*
G75*
G02*
X137590000Y-65400000I0J140000D01*
G01*
X137590000Y-65120000D01*
G75*
G02*
X137730000Y-64980000I140000J0D01*
G01*
X138070000Y-64980000D01*
G75*
G02*
X138210000Y-65120000I0J-140000D01*
G01*
X138210000Y-65400000D01*
G75*
G02*
X138070000Y-65540000I-140000J0D01*
G01*
G37*
G36*
G01*
X149470000Y-64650000D02*
X149130000Y-64650000D01*
G75*
G02*
X148990000Y-64510000I0J140000D01*
G01*
X148990000Y-64230000D01*
G75*
G02*
X149130000Y-64090000I140000J0D01*
G01*
X149470000Y-64090000D01*
G75*
G02*
X149610000Y-64230000I0J-140000D01*
G01*
X149610000Y-64510000D01*
G75*
G02*
X149470000Y-64650000I-140000J0D01*
G01*
G37*
G36*
G01*
X149470000Y-65610000D02*
X149130000Y-65610000D01*
G75*
G02*
X148990000Y-65470000I0J140000D01*
G01*
X148990000Y-65190000D01*
G75*
G02*
X149130000Y-65050000I140000J0D01*
G01*
X149470000Y-65050000D01*
G75*
G02*
X149610000Y-65190000I0J-140000D01*
G01*
X149610000Y-65470000D01*
G75*
G02*
X149470000Y-65610000I-140000J0D01*
G01*
G37*
D16*
X148950000Y-113400000D03*
D17*
X148950000Y-112900000D03*
D16*
X148950000Y-111900000D03*
D17*
X148950000Y-112400000D03*
D16*
X147950000Y-113400000D03*
D17*
X147950000Y-112400000D03*
X147950000Y-112900000D03*
D16*
X147950000Y-111900000D03*
G36*
G01*
X135450000Y-103275000D02*
X135250000Y-103275000D01*
G75*
G02*
X135150000Y-103175000I0J100000D01*
G01*
X135150000Y-101900000D01*
G75*
G02*
X135250000Y-101800000I100000J0D01*
G01*
X135450000Y-101800000D01*
G75*
G02*
X135550000Y-101900000I0J-100000D01*
G01*
X135550000Y-103175000D01*
G75*
G02*
X135450000Y-103275000I-100000J0D01*
G01*
G37*
G36*
G01*
X136100000Y-103275000D02*
X135900000Y-103275000D01*
G75*
G02*
X135800000Y-103175000I0J100000D01*
G01*
X135800000Y-101900000D01*
G75*
G02*
X135900000Y-101800000I100000J0D01*
G01*
X136100000Y-101800000D01*
G75*
G02*
X136200000Y-101900000I0J-100000D01*
G01*
X136200000Y-103175000D01*
G75*
G02*
X136100000Y-103275000I-100000J0D01*
G01*
G37*
G36*
G01*
X136750000Y-103275000D02*
X136550000Y-103275000D01*
G75*
G02*
X136450000Y-103175000I0J100000D01*
G01*
X136450000Y-101900000D01*
G75*
G02*
X136550000Y-101800000I100000J0D01*
G01*
X136750000Y-101800000D01*
G75*
G02*
X136850000Y-101900000I0J-100000D01*
G01*
X136850000Y-103175000D01*
G75*
G02*
X136750000Y-103275000I-100000J0D01*
G01*
G37*
G36*
G01*
X137400000Y-103275000D02*
X137200000Y-103275000D01*
G75*
G02*
X137100000Y-103175000I0J100000D01*
G01*
X137100000Y-101900000D01*
G75*
G02*
X137200000Y-101800000I100000J0D01*
G01*
X137400000Y-101800000D01*
G75*
G02*
X137500000Y-101900000I0J-100000D01*
G01*
X137500000Y-103175000D01*
G75*
G02*
X137400000Y-103275000I-100000J0D01*
G01*
G37*
G36*
G01*
X138050000Y-103275000D02*
X137850000Y-103275000D01*
G75*
G02*
X137750000Y-103175000I0J100000D01*
G01*
X137750000Y-101900000D01*
G75*
G02*
X137850000Y-101800000I100000J0D01*
G01*
X138050000Y-101800000D01*
G75*
G02*
X138150000Y-101900000I0J-100000D01*
G01*
X138150000Y-103175000D01*
G75*
G02*
X138050000Y-103275000I-100000J0D01*
G01*
G37*
G36*
G01*
X138700000Y-103275000D02*
X138500000Y-103275000D01*
G75*
G02*
X138400000Y-103175000I0J100000D01*
G01*
X138400000Y-101900000D01*
G75*
G02*
X138500000Y-101800000I100000J0D01*
G01*
X138700000Y-101800000D01*
G75*
G02*
X138800000Y-101900000I0J-100000D01*
G01*
X138800000Y-103175000D01*
G75*
G02*
X138700000Y-103275000I-100000J0D01*
G01*
G37*
G36*
G01*
X139350000Y-103275000D02*
X139150000Y-103275000D01*
G75*
G02*
X139050000Y-103175000I0J100000D01*
G01*
X139050000Y-101900000D01*
G75*
G02*
X139150000Y-101800000I100000J0D01*
G01*
X139350000Y-101800000D01*
G75*
G02*
X139450000Y-101900000I0J-100000D01*
G01*
X139450000Y-103175000D01*
G75*
G02*
X139350000Y-103275000I-100000J0D01*
G01*
G37*
G36*
G01*
X139350000Y-109000000D02*
X139150000Y-109000000D01*
G75*
G02*
X139050000Y-108900000I0J100000D01*
G01*
X139050000Y-107625000D01*
G75*
G02*
X139150000Y-107525000I100000J0D01*
G01*
X139350000Y-107525000D01*
G75*
G02*
X139450000Y-107625000I0J-100000D01*
G01*
X139450000Y-108900000D01*
G75*
G02*
X139350000Y-109000000I-100000J0D01*
G01*
G37*
G36*
G01*
X138700000Y-109000000D02*
X138500000Y-109000000D01*
G75*
G02*
X138400000Y-108900000I0J100000D01*
G01*
X138400000Y-107625000D01*
G75*
G02*
X138500000Y-107525000I100000J0D01*
G01*
X138700000Y-107525000D01*
G75*
G02*
X138800000Y-107625000I0J-100000D01*
G01*
X138800000Y-108900000D01*
G75*
G02*
X138700000Y-109000000I-100000J0D01*
G01*
G37*
G36*
G01*
X138050000Y-109000000D02*
X137850000Y-109000000D01*
G75*
G02*
X137750000Y-108900000I0J100000D01*
G01*
X137750000Y-107625000D01*
G75*
G02*
X137850000Y-107525000I100000J0D01*
G01*
X138050000Y-107525000D01*
G75*
G02*
X138150000Y-107625000I0J-100000D01*
G01*
X138150000Y-108900000D01*
G75*
G02*
X138050000Y-109000000I-100000J0D01*
G01*
G37*
G36*
G01*
X137400000Y-109000000D02*
X137200000Y-109000000D01*
G75*
G02*
X137100000Y-108900000I0J100000D01*
G01*
X137100000Y-107625000D01*
G75*
G02*
X137200000Y-107525000I100000J0D01*
G01*
X137400000Y-107525000D01*
G75*
G02*
X137500000Y-107625000I0J-100000D01*
G01*
X137500000Y-108900000D01*
G75*
G02*
X137400000Y-109000000I-100000J0D01*
G01*
G37*
G36*
G01*
X136750000Y-109000000D02*
X136550000Y-109000000D01*
G75*
G02*
X136450000Y-108900000I0J100000D01*
G01*
X136450000Y-107625000D01*
G75*
G02*
X136550000Y-107525000I100000J0D01*
G01*
X136750000Y-107525000D01*
G75*
G02*
X136850000Y-107625000I0J-100000D01*
G01*
X136850000Y-108900000D01*
G75*
G02*
X136750000Y-109000000I-100000J0D01*
G01*
G37*
G36*
G01*
X136100000Y-109000000D02*
X135900000Y-109000000D01*
G75*
G02*
X135800000Y-108900000I0J100000D01*
G01*
X135800000Y-107625000D01*
G75*
G02*
X135900000Y-107525000I100000J0D01*
G01*
X136100000Y-107525000D01*
G75*
G02*
X136200000Y-107625000I0J-100000D01*
G01*
X136200000Y-108900000D01*
G75*
G02*
X136100000Y-109000000I-100000J0D01*
G01*
G37*
G36*
G01*
X135450000Y-109000000D02*
X135250000Y-109000000D01*
G75*
G02*
X135150000Y-108900000I0J100000D01*
G01*
X135150000Y-107625000D01*
G75*
G02*
X135250000Y-107525000I100000J0D01*
G01*
X135450000Y-107525000D01*
G75*
G02*
X135550000Y-107625000I0J-100000D01*
G01*
X135550000Y-108900000D01*
G75*
G02*
X135450000Y-109000000I-100000J0D01*
G01*
G37*
D27*
X111400000Y-75550000D03*
X109300000Y-75550000D03*
G36*
G01*
X142150000Y-95999998D02*
X142150000Y-96900002D01*
G75*
G02*
X141900002Y-97150000I-249998J0D01*
G01*
X141374998Y-97150000D01*
G75*
G02*
X141125000Y-96900002I0J249998D01*
G01*
X141125000Y-95999998D01*
G75*
G02*
X141374998Y-95750000I249998J0D01*
G01*
X141900002Y-95750000D01*
G75*
G02*
X142150000Y-95999998I0J-249998D01*
G01*
G37*
G36*
G01*
X143975000Y-95999998D02*
X143975000Y-96900002D01*
G75*
G02*
X143725002Y-97150000I-249998J0D01*
G01*
X143199998Y-97150000D01*
G75*
G02*
X142950000Y-96900002I0J249998D01*
G01*
X142950000Y-95999998D01*
G75*
G02*
X143199998Y-95750000I249998J0D01*
G01*
X143725002Y-95750000D01*
G75*
G02*
X143975000Y-95999998I0J-249998D01*
G01*
G37*
G36*
G01*
X135460000Y-100595000D02*
X135460000Y-100225000D01*
G75*
G02*
X135595000Y-100090000I135000J0D01*
G01*
X135865000Y-100090000D01*
G75*
G02*
X136000000Y-100225000I0J-135000D01*
G01*
X136000000Y-100595000D01*
G75*
G02*
X135865000Y-100730000I-135000J0D01*
G01*
X135595000Y-100730000D01*
G75*
G02*
X135460000Y-100595000I0J135000D01*
G01*
G37*
G36*
G01*
X134440000Y-100595000D02*
X134440000Y-100225000D01*
G75*
G02*
X134575000Y-100090000I135000J0D01*
G01*
X134845000Y-100090000D01*
G75*
G02*
X134980000Y-100225000I0J-135000D01*
G01*
X134980000Y-100595000D01*
G75*
G02*
X134845000Y-100730000I-135000J0D01*
G01*
X134575000Y-100730000D01*
G75*
G02*
X134440000Y-100595000I0J135000D01*
G01*
G37*
D12*
X147650000Y-101650000D03*
D13*
X147150000Y-101650000D03*
D12*
X146150000Y-101650000D03*
D13*
X146650000Y-101650000D03*
D12*
X147650000Y-102650000D03*
D13*
X146650000Y-102650000D03*
X147150000Y-102650000D03*
D12*
X146150000Y-102650000D03*
X151300000Y-98850000D03*
D13*
X150800000Y-98850000D03*
D12*
X149800000Y-98850000D03*
D13*
X150300000Y-98850000D03*
D12*
X151300000Y-99850000D03*
D13*
X150300000Y-99850000D03*
X150800000Y-99850000D03*
D12*
X149800000Y-99850000D03*
D16*
X114150000Y-111900000D03*
D17*
X114150000Y-112400000D03*
D16*
X114150000Y-113400000D03*
D17*
X114150000Y-112900000D03*
D16*
X115150000Y-111900000D03*
D17*
X115150000Y-112900000D03*
X115150000Y-112400000D03*
D16*
X115150000Y-113400000D03*
X111050000Y-111900000D03*
D17*
X111050000Y-112400000D03*
D16*
X111050000Y-113400000D03*
D17*
X111050000Y-112900000D03*
D16*
X112050000Y-111900000D03*
D17*
X112050000Y-112900000D03*
X112050000Y-112400000D03*
D16*
X112050000Y-113400000D03*
D12*
X109930000Y-101650000D03*
D13*
X109430000Y-101650000D03*
D12*
X108430000Y-101650000D03*
D13*
X108930000Y-101650000D03*
D12*
X109930000Y-102650000D03*
D13*
X108930000Y-102650000D03*
X109430000Y-102650000D03*
D12*
X108430000Y-102650000D03*
X112780000Y-101650000D03*
D13*
X112280000Y-101650000D03*
D12*
X111280000Y-101650000D03*
D13*
X111780000Y-101650000D03*
D12*
X112780000Y-102650000D03*
D13*
X111780000Y-102650000D03*
X112280000Y-102650000D03*
D12*
X111280000Y-102650000D03*
X112780000Y-98850000D03*
D13*
X112280000Y-98850000D03*
D12*
X111280000Y-98850000D03*
D13*
X111780000Y-98850000D03*
D12*
X112780000Y-99850000D03*
D13*
X111780000Y-99850000D03*
X112280000Y-99850000D03*
D12*
X111280000Y-99850000D03*
G36*
G01*
X114210000Y-69830000D02*
X114210000Y-70170000D01*
G75*
G02*
X114070000Y-70310000I-140000J0D01*
G01*
X113790000Y-70310000D01*
G75*
G02*
X113650000Y-70170000I0J140000D01*
G01*
X113650000Y-69830000D01*
G75*
G02*
X113790000Y-69690000I140000J0D01*
G01*
X114070000Y-69690000D01*
G75*
G02*
X114210000Y-69830000I0J-140000D01*
G01*
G37*
G36*
G01*
X115170000Y-69830000D02*
X115170000Y-70170000D01*
G75*
G02*
X115030000Y-70310000I-140000J0D01*
G01*
X114750000Y-70310000D01*
G75*
G02*
X114610000Y-70170000I0J140000D01*
G01*
X114610000Y-69830000D01*
G75*
G02*
X114750000Y-69690000I140000J0D01*
G01*
X115030000Y-69690000D01*
G75*
G02*
X115170000Y-69830000I0J-140000D01*
G01*
G37*
G36*
G01*
X136780000Y-69300000D02*
X137120000Y-69300000D01*
G75*
G02*
X137260000Y-69440000I0J-140000D01*
G01*
X137260000Y-69720000D01*
G75*
G02*
X137120000Y-69860000I-140000J0D01*
G01*
X136780000Y-69860000D01*
G75*
G02*
X136640000Y-69720000I0J140000D01*
G01*
X136640000Y-69440000D01*
G75*
G02*
X136780000Y-69300000I140000J0D01*
G01*
G37*
G36*
G01*
X136780000Y-68340000D02*
X137120000Y-68340000D01*
G75*
G02*
X137260000Y-68480000I0J-140000D01*
G01*
X137260000Y-68760000D01*
G75*
G02*
X137120000Y-68900000I-140000J0D01*
G01*
X136780000Y-68900000D01*
G75*
G02*
X136640000Y-68760000I0J140000D01*
G01*
X136640000Y-68480000D01*
G75*
G02*
X136780000Y-68340000I140000J0D01*
G01*
G37*
G36*
G01*
X138180000Y-69300000D02*
X138520000Y-69300000D01*
G75*
G02*
X138660000Y-69440000I0J-140000D01*
G01*
X138660000Y-69720000D01*
G75*
G02*
X138520000Y-69860000I-140000J0D01*
G01*
X138180000Y-69860000D01*
G75*
G02*
X138040000Y-69720000I0J140000D01*
G01*
X138040000Y-69440000D01*
G75*
G02*
X138180000Y-69300000I140000J0D01*
G01*
G37*
G36*
G01*
X138180000Y-68340000D02*
X138520000Y-68340000D01*
G75*
G02*
X138660000Y-68480000I0J-140000D01*
G01*
X138660000Y-68760000D01*
G75*
G02*
X138520000Y-68900000I-140000J0D01*
G01*
X138180000Y-68900000D01*
G75*
G02*
X138040000Y-68760000I0J140000D01*
G01*
X138040000Y-68480000D01*
G75*
G02*
X138180000Y-68340000I140000J0D01*
G01*
G37*
G36*
G01*
X127050000Y-76720000D02*
X126710000Y-76720000D01*
G75*
G02*
X126570000Y-76580000I0J140000D01*
G01*
X126570000Y-76300000D01*
G75*
G02*
X126710000Y-76160000I140000J0D01*
G01*
X127050000Y-76160000D01*
G75*
G02*
X127190000Y-76300000I0J-140000D01*
G01*
X127190000Y-76580000D01*
G75*
G02*
X127050000Y-76720000I-140000J0D01*
G01*
G37*
G36*
G01*
X127050000Y-77680000D02*
X126710000Y-77680000D01*
G75*
G02*
X126570000Y-77540000I0J140000D01*
G01*
X126570000Y-77260000D01*
G75*
G02*
X126710000Y-77120000I140000J0D01*
G01*
X127050000Y-77120000D01*
G75*
G02*
X127190000Y-77260000I0J-140000D01*
G01*
X127190000Y-77540000D01*
G75*
G02*
X127050000Y-77680000I-140000J0D01*
G01*
G37*
G36*
G01*
X131495000Y-75460000D02*
X131865000Y-75460000D01*
G75*
G02*
X132000000Y-75595000I0J-135000D01*
G01*
X132000000Y-75865000D01*
G75*
G02*
X131865000Y-76000000I-135000J0D01*
G01*
X131495000Y-76000000D01*
G75*
G02*
X131360000Y-75865000I0J135000D01*
G01*
X131360000Y-75595000D01*
G75*
G02*
X131495000Y-75460000I135000J0D01*
G01*
G37*
G36*
G01*
X131495000Y-74440000D02*
X131865000Y-74440000D01*
G75*
G02*
X132000000Y-74575000I0J-135000D01*
G01*
X132000000Y-74845000D01*
G75*
G02*
X131865000Y-74980000I-135000J0D01*
G01*
X131495000Y-74980000D01*
G75*
G02*
X131360000Y-74845000I0J135000D01*
G01*
X131360000Y-74575000D01*
G75*
G02*
X131495000Y-74440000I135000J0D01*
G01*
G37*
G36*
G01*
X123070000Y-76720000D02*
X122730000Y-76720000D01*
G75*
G02*
X122590000Y-76580000I0J140000D01*
G01*
X122590000Y-76300000D01*
G75*
G02*
X122730000Y-76160000I140000J0D01*
G01*
X123070000Y-76160000D01*
G75*
G02*
X123210000Y-76300000I0J-140000D01*
G01*
X123210000Y-76580000D01*
G75*
G02*
X123070000Y-76720000I-140000J0D01*
G01*
G37*
G36*
G01*
X123070000Y-77680000D02*
X122730000Y-77680000D01*
G75*
G02*
X122590000Y-77540000I0J140000D01*
G01*
X122590000Y-77260000D01*
G75*
G02*
X122730000Y-77120000I140000J0D01*
G01*
X123070000Y-77120000D01*
G75*
G02*
X123210000Y-77260000I0J-140000D01*
G01*
X123210000Y-77540000D01*
G75*
G02*
X123070000Y-77680000I-140000J0D01*
G01*
G37*
G36*
G01*
X142200000Y-91330000D02*
X142200000Y-91670000D01*
G75*
G02*
X142060000Y-91810000I-140000J0D01*
G01*
X141780000Y-91810000D01*
G75*
G02*
X141640000Y-91670000I0J140000D01*
G01*
X141640000Y-91330000D01*
G75*
G02*
X141780000Y-91190000I140000J0D01*
G01*
X142060000Y-91190000D01*
G75*
G02*
X142200000Y-91330000I0J-140000D01*
G01*
G37*
G36*
G01*
X143160000Y-91330000D02*
X143160000Y-91670000D01*
G75*
G02*
X143020000Y-91810000I-140000J0D01*
G01*
X142740000Y-91810000D01*
G75*
G02*
X142600000Y-91670000I0J140000D01*
G01*
X142600000Y-91330000D01*
G75*
G02*
X142740000Y-91190000I140000J0D01*
G01*
X143020000Y-91190000D01*
G75*
G02*
X143160000Y-91330000I0J-140000D01*
G01*
G37*
G36*
G01*
X123540000Y-101072500D02*
X123540000Y-100727500D01*
G75*
G02*
X123687500Y-100580000I147500J0D01*
G01*
X123982500Y-100580000D01*
G75*
G02*
X124130000Y-100727500I0J-147500D01*
G01*
X124130000Y-101072500D01*
G75*
G02*
X123982500Y-101220000I-147500J0D01*
G01*
X123687500Y-101220000D01*
G75*
G02*
X123540000Y-101072500I0J147500D01*
G01*
G37*
G36*
G01*
X124510000Y-101072500D02*
X124510000Y-100727500D01*
G75*
G02*
X124657500Y-100580000I147500J0D01*
G01*
X124952500Y-100580000D01*
G75*
G02*
X125100000Y-100727500I0J-147500D01*
G01*
X125100000Y-101072500D01*
G75*
G02*
X124952500Y-101220000I-147500J0D01*
G01*
X124657500Y-101220000D01*
G75*
G02*
X124510000Y-101072500I0J147500D01*
G01*
G37*
G36*
G01*
X106957500Y-103370000D02*
X107302500Y-103370000D01*
G75*
G02*
X107450000Y-103517500I0J-147500D01*
G01*
X107450000Y-103812500D01*
G75*
G02*
X107302500Y-103960000I-147500J0D01*
G01*
X106957500Y-103960000D01*
G75*
G02*
X106810000Y-103812500I0J147500D01*
G01*
X106810000Y-103517500D01*
G75*
G02*
X106957500Y-103370000I147500J0D01*
G01*
G37*
G36*
G01*
X106957500Y-104340000D02*
X107302500Y-104340000D01*
G75*
G02*
X107450000Y-104487500I0J-147500D01*
G01*
X107450000Y-104782500D01*
G75*
G02*
X107302500Y-104930000I-147500J0D01*
G01*
X106957500Y-104930000D01*
G75*
G02*
X106810000Y-104782500I0J147500D01*
G01*
X106810000Y-104487500D01*
G75*
G02*
X106957500Y-104340000I147500J0D01*
G01*
G37*
G36*
G01*
X114860000Y-108877500D02*
X114860000Y-109222500D01*
G75*
G02*
X114712500Y-109370000I-147500J0D01*
G01*
X114417500Y-109370000D01*
G75*
G02*
X114270000Y-109222500I0J147500D01*
G01*
X114270000Y-108877500D01*
G75*
G02*
X114417500Y-108730000I147500J0D01*
G01*
X114712500Y-108730000D01*
G75*
G02*
X114860000Y-108877500I0J-147500D01*
G01*
G37*
G36*
G01*
X115830000Y-108877500D02*
X115830000Y-109222500D01*
G75*
G02*
X115682500Y-109370000I-147500J0D01*
G01*
X115387500Y-109370000D01*
G75*
G02*
X115240000Y-109222500I0J147500D01*
G01*
X115240000Y-108877500D01*
G75*
G02*
X115387500Y-108730000I147500J0D01*
G01*
X115682500Y-108730000D01*
G75*
G02*
X115830000Y-108877500I0J-147500D01*
G01*
G37*
G36*
G01*
X154357500Y-104340000D02*
X154702500Y-104340000D01*
G75*
G02*
X154850000Y-104487500I0J-147500D01*
G01*
X154850000Y-104782500D01*
G75*
G02*
X154702500Y-104930000I-147500J0D01*
G01*
X154357500Y-104930000D01*
G75*
G02*
X154210000Y-104782500I0J147500D01*
G01*
X154210000Y-104487500D01*
G75*
G02*
X154357500Y-104340000I147500J0D01*
G01*
G37*
G36*
G01*
X154357500Y-103370000D02*
X154702500Y-103370000D01*
G75*
G02*
X154850000Y-103517500I0J-147500D01*
G01*
X154850000Y-103812500D01*
G75*
G02*
X154702500Y-103960000I-147500J0D01*
G01*
X154357500Y-103960000D01*
G75*
G02*
X154210000Y-103812500I0J147500D01*
G01*
X154210000Y-103517500D01*
G75*
G02*
X154357500Y-103370000I147500J0D01*
G01*
G37*
G36*
G01*
X154780000Y-109377500D02*
X154780000Y-109722500D01*
G75*
G02*
X154632500Y-109870000I-147500J0D01*
G01*
X154337500Y-109870000D01*
G75*
G02*
X154190000Y-109722500I0J147500D01*
G01*
X154190000Y-109377500D01*
G75*
G02*
X154337500Y-109230000I147500J0D01*
G01*
X154632500Y-109230000D01*
G75*
G02*
X154780000Y-109377500I0J-147500D01*
G01*
G37*
G36*
G01*
X153810000Y-109377500D02*
X153810000Y-109722500D01*
G75*
G02*
X153662500Y-109870000I-147500J0D01*
G01*
X153367500Y-109870000D01*
G75*
G02*
X153220000Y-109722500I0J147500D01*
G01*
X153220000Y-109377500D01*
G75*
G02*
X153367500Y-109230000I147500J0D01*
G01*
X153662500Y-109230000D01*
G75*
G02*
X153810000Y-109377500I0J-147500D01*
G01*
G37*
G36*
G01*
X118417500Y-74800000D02*
X118762500Y-74800000D01*
G75*
G02*
X118910000Y-74947500I0J-147500D01*
G01*
X118910000Y-75242500D01*
G75*
G02*
X118762500Y-75390000I-147500J0D01*
G01*
X118417500Y-75390000D01*
G75*
G02*
X118270000Y-75242500I0J147500D01*
G01*
X118270000Y-74947500D01*
G75*
G02*
X118417500Y-74800000I147500J0D01*
G01*
G37*
G36*
G01*
X118417500Y-75770000D02*
X118762500Y-75770000D01*
G75*
G02*
X118910000Y-75917500I0J-147500D01*
G01*
X118910000Y-76212500D01*
G75*
G02*
X118762500Y-76360000I-147500J0D01*
G01*
X118417500Y-76360000D01*
G75*
G02*
X118270000Y-76212500I0J147500D01*
G01*
X118270000Y-75917500D01*
G75*
G02*
X118417500Y-75770000I147500J0D01*
G01*
G37*
G36*
G01*
X119802500Y-75390000D02*
X119457500Y-75390000D01*
G75*
G02*
X119310000Y-75242500I0J147500D01*
G01*
X119310000Y-74947500D01*
G75*
G02*
X119457500Y-74800000I147500J0D01*
G01*
X119802500Y-74800000D01*
G75*
G02*
X119950000Y-74947500I0J-147500D01*
G01*
X119950000Y-75242500D01*
G75*
G02*
X119802500Y-75390000I-147500J0D01*
G01*
G37*
G36*
G01*
X119802500Y-76360000D02*
X119457500Y-76360000D01*
G75*
G02*
X119310000Y-76212500I0J147500D01*
G01*
X119310000Y-75917500D01*
G75*
G02*
X119457500Y-75770000I147500J0D01*
G01*
X119802500Y-75770000D01*
G75*
G02*
X119950000Y-75917500I0J-147500D01*
G01*
X119950000Y-76212500D01*
G75*
G02*
X119802500Y-76360000I-147500J0D01*
G01*
G37*
G36*
G01*
X117712500Y-76360000D02*
X117367500Y-76360000D01*
G75*
G02*
X117220000Y-76212500I0J147500D01*
G01*
X117220000Y-75917500D01*
G75*
G02*
X117367500Y-75770000I147500J0D01*
G01*
X117712500Y-75770000D01*
G75*
G02*
X117860000Y-75917500I0J-147500D01*
G01*
X117860000Y-76212500D01*
G75*
G02*
X117712500Y-76360000I-147500J0D01*
G01*
G37*
G36*
G01*
X117712500Y-75390000D02*
X117367500Y-75390000D01*
G75*
G02*
X117220000Y-75242500I0J147500D01*
G01*
X117220000Y-74947500D01*
G75*
G02*
X117367500Y-74800000I147500J0D01*
G01*
X117712500Y-74800000D01*
G75*
G02*
X117860000Y-74947500I0J-147500D01*
G01*
X117860000Y-75242500D01*
G75*
G02*
X117712500Y-75390000I-147500J0D01*
G01*
G37*
G36*
G01*
X118427500Y-71730000D02*
X118772500Y-71730000D01*
G75*
G02*
X118920000Y-71877500I0J-147500D01*
G01*
X118920000Y-72172500D01*
G75*
G02*
X118772500Y-72320000I-147500J0D01*
G01*
X118427500Y-72320000D01*
G75*
G02*
X118280000Y-72172500I0J147500D01*
G01*
X118280000Y-71877500D01*
G75*
G02*
X118427500Y-71730000I147500J0D01*
G01*
G37*
G36*
G01*
X118427500Y-70760000D02*
X118772500Y-70760000D01*
G75*
G02*
X118920000Y-70907500I0J-147500D01*
G01*
X118920000Y-71202500D01*
G75*
G02*
X118772500Y-71350000I-147500J0D01*
G01*
X118427500Y-71350000D01*
G75*
G02*
X118280000Y-71202500I0J147500D01*
G01*
X118280000Y-70907500D01*
G75*
G02*
X118427500Y-70760000I147500J0D01*
G01*
G37*
G36*
G01*
X136025000Y-68293750D02*
X136025000Y-69206250D01*
G75*
G02*
X135781250Y-69450000I-243750J0D01*
G01*
X135293750Y-69450000D01*
G75*
G02*
X135050000Y-69206250I0J243750D01*
G01*
X135050000Y-68293750D01*
G75*
G02*
X135293750Y-68050000I243750J0D01*
G01*
X135781250Y-68050000D01*
G75*
G02*
X136025000Y-68293750I0J-243750D01*
G01*
G37*
G36*
G01*
X134150000Y-68293750D02*
X134150000Y-69206250D01*
G75*
G02*
X133906250Y-69450000I-243750J0D01*
G01*
X133418750Y-69450000D01*
G75*
G02*
X133175000Y-69206250I0J243750D01*
G01*
X133175000Y-68293750D01*
G75*
G02*
X133418750Y-68050000I243750J0D01*
G01*
X133906250Y-68050000D01*
G75*
G02*
X134150000Y-68293750I0J-243750D01*
G01*
G37*
G36*
G01*
X123477500Y-91490000D02*
X123822500Y-91490000D01*
G75*
G02*
X123970000Y-91637500I0J-147500D01*
G01*
X123970000Y-91932500D01*
G75*
G02*
X123822500Y-92080000I-147500J0D01*
G01*
X123477500Y-92080000D01*
G75*
G02*
X123330000Y-91932500I0J147500D01*
G01*
X123330000Y-91637500D01*
G75*
G02*
X123477500Y-91490000I147500J0D01*
G01*
G37*
G36*
G01*
X123477500Y-90520000D02*
X123822500Y-90520000D01*
G75*
G02*
X123970000Y-90667500I0J-147500D01*
G01*
X123970000Y-90962500D01*
G75*
G02*
X123822500Y-91110000I-147500J0D01*
G01*
X123477500Y-91110000D01*
G75*
G02*
X123330000Y-90962500I0J147500D01*
G01*
X123330000Y-90667500D01*
G75*
G02*
X123477500Y-90520000I147500J0D01*
G01*
G37*
G36*
G01*
X115022500Y-65530000D02*
X114677500Y-65530000D01*
G75*
G02*
X114530000Y-65382500I0J147500D01*
G01*
X114530000Y-65087500D01*
G75*
G02*
X114677500Y-64940000I147500J0D01*
G01*
X115022500Y-64940000D01*
G75*
G02*
X115170000Y-65087500I0J-147500D01*
G01*
X115170000Y-65382500D01*
G75*
G02*
X115022500Y-65530000I-147500J0D01*
G01*
G37*
G36*
G01*
X115022500Y-64560000D02*
X114677500Y-64560000D01*
G75*
G02*
X114530000Y-64412500I0J147500D01*
G01*
X114530000Y-64117500D01*
G75*
G02*
X114677500Y-63970000I147500J0D01*
G01*
X115022500Y-63970000D01*
G75*
G02*
X115170000Y-64117500I0J-147500D01*
G01*
X115170000Y-64412500D01*
G75*
G02*
X115022500Y-64560000I-147500J0D01*
G01*
G37*
G36*
G01*
X124802500Y-98260000D02*
X124457500Y-98260000D01*
G75*
G02*
X124310000Y-98112500I0J147500D01*
G01*
X124310000Y-97817500D01*
G75*
G02*
X124457500Y-97670000I147500J0D01*
G01*
X124802500Y-97670000D01*
G75*
G02*
X124950000Y-97817500I0J-147500D01*
G01*
X124950000Y-98112500D01*
G75*
G02*
X124802500Y-98260000I-147500J0D01*
G01*
G37*
G36*
G01*
X124802500Y-99230000D02*
X124457500Y-99230000D01*
G75*
G02*
X124310000Y-99082500I0J147500D01*
G01*
X124310000Y-98787500D01*
G75*
G02*
X124457500Y-98640000I147500J0D01*
G01*
X124802500Y-98640000D01*
G75*
G02*
X124950000Y-98787500I0J-147500D01*
G01*
X124950000Y-99082500D01*
G75*
G02*
X124802500Y-99230000I-147500J0D01*
G01*
G37*
G36*
G01*
X109807500Y-77790000D02*
X110152500Y-77790000D01*
G75*
G02*
X110300000Y-77937500I0J-147500D01*
G01*
X110300000Y-78232500D01*
G75*
G02*
X110152500Y-78380000I-147500J0D01*
G01*
X109807500Y-78380000D01*
G75*
G02*
X109660000Y-78232500I0J147500D01*
G01*
X109660000Y-77937500D01*
G75*
G02*
X109807500Y-77790000I147500J0D01*
G01*
G37*
G36*
G01*
X109807500Y-76820000D02*
X110152500Y-76820000D01*
G75*
G02*
X110300000Y-76967500I0J-147500D01*
G01*
X110300000Y-77262500D01*
G75*
G02*
X110152500Y-77410000I-147500J0D01*
G01*
X109807500Y-77410000D01*
G75*
G02*
X109660000Y-77262500I0J147500D01*
G01*
X109660000Y-76967500D01*
G75*
G02*
X109807500Y-76820000I147500J0D01*
G01*
G37*
G36*
G01*
X124922500Y-92080000D02*
X124577500Y-92080000D01*
G75*
G02*
X124430000Y-91932500I0J147500D01*
G01*
X124430000Y-91637500D01*
G75*
G02*
X124577500Y-91490000I147500J0D01*
G01*
X124922500Y-91490000D01*
G75*
G02*
X125070000Y-91637500I0J-147500D01*
G01*
X125070000Y-91932500D01*
G75*
G02*
X124922500Y-92080000I-147500J0D01*
G01*
G37*
G36*
G01*
X124922500Y-91110000D02*
X124577500Y-91110000D01*
G75*
G02*
X124430000Y-90962500I0J147500D01*
G01*
X124430000Y-90667500D01*
G75*
G02*
X124577500Y-90520000I147500J0D01*
G01*
X124922500Y-90520000D01*
G75*
G02*
X125070000Y-90667500I0J-147500D01*
G01*
X125070000Y-90962500D01*
G75*
G02*
X124922500Y-91110000I-147500J0D01*
G01*
G37*
G36*
G01*
X111817500Y-63970000D02*
X112162500Y-63970000D01*
G75*
G02*
X112310000Y-64117500I0J-147500D01*
G01*
X112310000Y-64412500D01*
G75*
G02*
X112162500Y-64560000I-147500J0D01*
G01*
X111817500Y-64560000D01*
G75*
G02*
X111670000Y-64412500I0J147500D01*
G01*
X111670000Y-64117500D01*
G75*
G02*
X111817500Y-63970000I147500J0D01*
G01*
G37*
G36*
G01*
X111817500Y-64940000D02*
X112162500Y-64940000D01*
G75*
G02*
X112310000Y-65087500I0J-147500D01*
G01*
X112310000Y-65382500D01*
G75*
G02*
X112162500Y-65530000I-147500J0D01*
G01*
X111817500Y-65530000D01*
G75*
G02*
X111670000Y-65382500I0J147500D01*
G01*
X111670000Y-65087500D01*
G75*
G02*
X111817500Y-64940000I147500J0D01*
G01*
G37*
G36*
G01*
X113592500Y-64560000D02*
X113247500Y-64560000D01*
G75*
G02*
X113100000Y-64412500I0J147500D01*
G01*
X113100000Y-64117500D01*
G75*
G02*
X113247500Y-63970000I147500J0D01*
G01*
X113592500Y-63970000D01*
G75*
G02*
X113740000Y-64117500I0J-147500D01*
G01*
X113740000Y-64412500D01*
G75*
G02*
X113592500Y-64560000I-147500J0D01*
G01*
G37*
G36*
G01*
X113592500Y-65530000D02*
X113247500Y-65530000D01*
G75*
G02*
X113100000Y-65382500I0J147500D01*
G01*
X113100000Y-65087500D01*
G75*
G02*
X113247500Y-64940000I147500J0D01*
G01*
X113592500Y-64940000D01*
G75*
G02*
X113740000Y-65087500I0J-147500D01*
G01*
X113740000Y-65382500D01*
G75*
G02*
X113592500Y-65530000I-147500J0D01*
G01*
G37*
G36*
G01*
X129752500Y-71350000D02*
X129407500Y-71350000D01*
G75*
G02*
X129260000Y-71202500I0J147500D01*
G01*
X129260000Y-70907500D01*
G75*
G02*
X129407500Y-70760000I147500J0D01*
G01*
X129752500Y-70760000D01*
G75*
G02*
X129900000Y-70907500I0J-147500D01*
G01*
X129900000Y-71202500D01*
G75*
G02*
X129752500Y-71350000I-147500J0D01*
G01*
G37*
G36*
G01*
X129752500Y-72320000D02*
X129407500Y-72320000D01*
G75*
G02*
X129260000Y-72172500I0J147500D01*
G01*
X129260000Y-71877500D01*
G75*
G02*
X129407500Y-71730000I147500J0D01*
G01*
X129752500Y-71730000D01*
G75*
G02*
X129900000Y-71877500I0J-147500D01*
G01*
X129900000Y-72172500D01*
G75*
G02*
X129752500Y-72320000I-147500J0D01*
G01*
G37*
G36*
G01*
X130872500Y-71350000D02*
X130527500Y-71350000D01*
G75*
G02*
X130380000Y-71202500I0J147500D01*
G01*
X130380000Y-70907500D01*
G75*
G02*
X130527500Y-70760000I147500J0D01*
G01*
X130872500Y-70760000D01*
G75*
G02*
X131020000Y-70907500I0J-147500D01*
G01*
X131020000Y-71202500D01*
G75*
G02*
X130872500Y-71350000I-147500J0D01*
G01*
G37*
G36*
G01*
X130872500Y-72320000D02*
X130527500Y-72320000D01*
G75*
G02*
X130380000Y-72172500I0J147500D01*
G01*
X130380000Y-71877500D01*
G75*
G02*
X130527500Y-71730000I147500J0D01*
G01*
X130872500Y-71730000D01*
G75*
G02*
X131020000Y-71877500I0J-147500D01*
G01*
X131020000Y-72172500D01*
G75*
G02*
X130872500Y-72320000I-147500J0D01*
G01*
G37*
G36*
G01*
X135972500Y-64590000D02*
X135627500Y-64590000D01*
G75*
G02*
X135480000Y-64442500I0J147500D01*
G01*
X135480000Y-64147500D01*
G75*
G02*
X135627500Y-64000000I147500J0D01*
G01*
X135972500Y-64000000D01*
G75*
G02*
X136120000Y-64147500I0J-147500D01*
G01*
X136120000Y-64442500D01*
G75*
G02*
X135972500Y-64590000I-147500J0D01*
G01*
G37*
G36*
G01*
X135972500Y-65560000D02*
X135627500Y-65560000D01*
G75*
G02*
X135480000Y-65412500I0J147500D01*
G01*
X135480000Y-65117500D01*
G75*
G02*
X135627500Y-64970000I147500J0D01*
G01*
X135972500Y-64970000D01*
G75*
G02*
X136120000Y-65117500I0J-147500D01*
G01*
X136120000Y-65412500D01*
G75*
G02*
X135972500Y-65560000I-147500J0D01*
G01*
G37*
G36*
G01*
X124172500Y-64590000D02*
X123827500Y-64590000D01*
G75*
G02*
X123680000Y-64442500I0J147500D01*
G01*
X123680000Y-64147500D01*
G75*
G02*
X123827500Y-64000000I147500J0D01*
G01*
X124172500Y-64000000D01*
G75*
G02*
X124320000Y-64147500I0J-147500D01*
G01*
X124320000Y-64442500D01*
G75*
G02*
X124172500Y-64590000I-147500J0D01*
G01*
G37*
G36*
G01*
X124172500Y-65560000D02*
X123827500Y-65560000D01*
G75*
G02*
X123680000Y-65412500I0J147500D01*
G01*
X123680000Y-65117500D01*
G75*
G02*
X123827500Y-64970000I147500J0D01*
G01*
X124172500Y-64970000D01*
G75*
G02*
X124320000Y-65117500I0J-147500D01*
G01*
X124320000Y-65412500D01*
G75*
G02*
X124172500Y-65560000I-147500J0D01*
G01*
G37*
G36*
G01*
X125262500Y-72320000D02*
X124917500Y-72320000D01*
G75*
G02*
X124770000Y-72172500I0J147500D01*
G01*
X124770000Y-71877500D01*
G75*
G02*
X124917500Y-71730000I147500J0D01*
G01*
X125262500Y-71730000D01*
G75*
G02*
X125410000Y-71877500I0J-147500D01*
G01*
X125410000Y-72172500D01*
G75*
G02*
X125262500Y-72320000I-147500J0D01*
G01*
G37*
G36*
G01*
X125262500Y-71350000D02*
X124917500Y-71350000D01*
G75*
G02*
X124770000Y-71202500I0J147500D01*
G01*
X124770000Y-70907500D01*
G75*
G02*
X124917500Y-70760000I147500J0D01*
G01*
X125262500Y-70760000D01*
G75*
G02*
X125410000Y-70907500I0J-147500D01*
G01*
X125410000Y-71202500D01*
G75*
G02*
X125262500Y-71350000I-147500J0D01*
G01*
G37*
G36*
G01*
X119822500Y-72320000D02*
X119477500Y-72320000D01*
G75*
G02*
X119330000Y-72172500I0J147500D01*
G01*
X119330000Y-71877500D01*
G75*
G02*
X119477500Y-71730000I147500J0D01*
G01*
X119822500Y-71730000D01*
G75*
G02*
X119970000Y-71877500I0J-147500D01*
G01*
X119970000Y-72172500D01*
G75*
G02*
X119822500Y-72320000I-147500J0D01*
G01*
G37*
G36*
G01*
X119822500Y-71350000D02*
X119477500Y-71350000D01*
G75*
G02*
X119330000Y-71202500I0J147500D01*
G01*
X119330000Y-70907500D01*
G75*
G02*
X119477500Y-70760000I147500J0D01*
G01*
X119822500Y-70760000D01*
G75*
G02*
X119970000Y-70907500I0J-147500D01*
G01*
X119970000Y-71202500D01*
G75*
G02*
X119822500Y-71350000I-147500J0D01*
G01*
G37*
G36*
G01*
X125262500Y-74340000D02*
X124917500Y-74340000D01*
G75*
G02*
X124770000Y-74192500I0J147500D01*
G01*
X124770000Y-73897500D01*
G75*
G02*
X124917500Y-73750000I147500J0D01*
G01*
X125262500Y-73750000D01*
G75*
G02*
X125410000Y-73897500I0J-147500D01*
G01*
X125410000Y-74192500D01*
G75*
G02*
X125262500Y-74340000I-147500J0D01*
G01*
G37*
G36*
G01*
X125262500Y-73370000D02*
X124917500Y-73370000D01*
G75*
G02*
X124770000Y-73222500I0J147500D01*
G01*
X124770000Y-72927500D01*
G75*
G02*
X124917500Y-72780000I147500J0D01*
G01*
X125262500Y-72780000D01*
G75*
G02*
X125410000Y-72927500I0J-147500D01*
G01*
X125410000Y-73222500D01*
G75*
G02*
X125262500Y-73370000I-147500J0D01*
G01*
G37*
G36*
G01*
X119802500Y-73370000D02*
X119457500Y-73370000D01*
G75*
G02*
X119310000Y-73222500I0J147500D01*
G01*
X119310000Y-72927500D01*
G75*
G02*
X119457500Y-72780000I147500J0D01*
G01*
X119802500Y-72780000D01*
G75*
G02*
X119950000Y-72927500I0J-147500D01*
G01*
X119950000Y-73222500D01*
G75*
G02*
X119802500Y-73370000I-147500J0D01*
G01*
G37*
G36*
G01*
X119802500Y-74340000D02*
X119457500Y-74340000D01*
G75*
G02*
X119310000Y-74192500I0J147500D01*
G01*
X119310000Y-73897500D01*
G75*
G02*
X119457500Y-73750000I147500J0D01*
G01*
X119802500Y-73750000D01*
G75*
G02*
X119950000Y-73897500I0J-147500D01*
G01*
X119950000Y-74192500D01*
G75*
G02*
X119802500Y-74340000I-147500J0D01*
G01*
G37*
G36*
G01*
X118772500Y-73370000D02*
X118427500Y-73370000D01*
G75*
G02*
X118280000Y-73222500I0J147500D01*
G01*
X118280000Y-72927500D01*
G75*
G02*
X118427500Y-72780000I147500J0D01*
G01*
X118772500Y-72780000D01*
G75*
G02*
X118920000Y-72927500I0J-147500D01*
G01*
X118920000Y-73222500D01*
G75*
G02*
X118772500Y-73370000I-147500J0D01*
G01*
G37*
G36*
G01*
X118772500Y-74340000D02*
X118427500Y-74340000D01*
G75*
G02*
X118280000Y-74192500I0J147500D01*
G01*
X118280000Y-73897500D01*
G75*
G02*
X118427500Y-73750000I147500J0D01*
G01*
X118772500Y-73750000D01*
G75*
G02*
X118920000Y-73897500I0J-147500D01*
G01*
X118920000Y-74192500D01*
G75*
G02*
X118772500Y-74340000I-147500J0D01*
G01*
G37*
D23*
X106850000Y-107800000D03*
X105550000Y-107800000D03*
X106200000Y-105900000D03*
X106200000Y-107800000D03*
X105550000Y-105900000D03*
X106850000Y-105900000D03*
X112950000Y-105900000D03*
X111650000Y-105900000D03*
X112300000Y-107800000D03*
X112300000Y-105900000D03*
X111650000Y-107800000D03*
X112950000Y-107800000D03*
X116000000Y-107800000D03*
X114700000Y-107800000D03*
X115350000Y-105900000D03*
X115350000Y-107800000D03*
X114700000Y-105900000D03*
X116000000Y-105900000D03*
D14*
X121050000Y-74510000D03*
X121050000Y-72610000D03*
X123250000Y-72610000D03*
X123250000Y-73560000D03*
X123250000Y-74510000D03*
G36*
G01*
X146030000Y-66250000D02*
X146370000Y-66250000D01*
G75*
G02*
X146510000Y-66390000I0J-140000D01*
G01*
X146510000Y-66670000D01*
G75*
G02*
X146370000Y-66810000I-140000J0D01*
G01*
X146030000Y-66810000D01*
G75*
G02*
X145890000Y-66670000I0J140000D01*
G01*
X145890000Y-66390000D01*
G75*
G02*
X146030000Y-66250000I140000J0D01*
G01*
G37*
G36*
G01*
X146030000Y-65290000D02*
X146370000Y-65290000D01*
G75*
G02*
X146510000Y-65430000I0J-140000D01*
G01*
X146510000Y-65710000D01*
G75*
G02*
X146370000Y-65850000I-140000J0D01*
G01*
X146030000Y-65850000D01*
G75*
G02*
X145890000Y-65710000I0J140000D01*
G01*
X145890000Y-65430000D01*
G75*
G02*
X146030000Y-65290000I140000J0D01*
G01*
G37*
G36*
G01*
X121222500Y-98980000D02*
X120877500Y-98980000D01*
G75*
G02*
X120730000Y-98832500I0J147500D01*
G01*
X120730000Y-98537500D01*
G75*
G02*
X120877500Y-98390000I147500J0D01*
G01*
X121222500Y-98390000D01*
G75*
G02*
X121370000Y-98537500I0J-147500D01*
G01*
X121370000Y-98832500D01*
G75*
G02*
X121222500Y-98980000I-147500J0D01*
G01*
G37*
G36*
G01*
X121222500Y-98010000D02*
X120877500Y-98010000D01*
G75*
G02*
X120730000Y-97862500I0J147500D01*
G01*
X120730000Y-97567500D01*
G75*
G02*
X120877500Y-97420000I147500J0D01*
G01*
X121222500Y-97420000D01*
G75*
G02*
X121370000Y-97567500I0J-147500D01*
G01*
X121370000Y-97862500D01*
G75*
G02*
X121222500Y-98010000I-147500J0D01*
G01*
G37*
G36*
G01*
X120047500Y-100700000D02*
X120392500Y-100700000D01*
G75*
G02*
X120540000Y-100847500I0J-147500D01*
G01*
X120540000Y-101142500D01*
G75*
G02*
X120392500Y-101290000I-147500J0D01*
G01*
X120047500Y-101290000D01*
G75*
G02*
X119900000Y-101142500I0J147500D01*
G01*
X119900000Y-100847500D01*
G75*
G02*
X120047500Y-100700000I147500J0D01*
G01*
G37*
G36*
G01*
X120047500Y-99730000D02*
X120392500Y-99730000D01*
G75*
G02*
X120540000Y-99877500I0J-147500D01*
G01*
X120540000Y-100172500D01*
G75*
G02*
X120392500Y-100320000I-147500J0D01*
G01*
X120047500Y-100320000D01*
G75*
G02*
X119900000Y-100172500I0J147500D01*
G01*
X119900000Y-99877500D01*
G75*
G02*
X120047500Y-99730000I147500J0D01*
G01*
G37*
G36*
G01*
X114347758Y-83770297D02*
X114135626Y-83558165D01*
G75*
G02*
X114135626Y-83346033I106066J106066D01*
G01*
X115054864Y-82426795D01*
G75*
G02*
X115266996Y-82426795I106066J-106066D01*
G01*
X115479128Y-82638927D01*
G75*
G02*
X115479128Y-82851059I-106066J-106066D01*
G01*
X114559890Y-83770297D01*
G75*
G02*
X114347758Y-83770297I-106066J106066D01*
G01*
G37*
G36*
G01*
X115245784Y-84668323D02*
X115033652Y-84456191D01*
G75*
G02*
X115033652Y-84244059I106066J106066D01*
G01*
X115952890Y-83324821D01*
G75*
G02*
X116165022Y-83324821I106066J-106066D01*
G01*
X116377154Y-83536953D01*
G75*
G02*
X116377154Y-83749085I-106066J-106066D01*
G01*
X115457916Y-84668323D01*
G75*
G02*
X115245784Y-84668323I-106066J106066D01*
G01*
G37*
G36*
G01*
X116143809Y-85566348D02*
X115931677Y-85354216D01*
G75*
G02*
X115931677Y-85142084I106066J106066D01*
G01*
X116850915Y-84222846D01*
G75*
G02*
X117063047Y-84222846I106066J-106066D01*
G01*
X117275179Y-84434978D01*
G75*
G02*
X117275179Y-84647110I-106066J-106066D01*
G01*
X116355941Y-85566348D01*
G75*
G02*
X116143809Y-85566348I-106066J106066D01*
G01*
G37*
G36*
G01*
X117041835Y-86464374D02*
X116829703Y-86252242D01*
G75*
G02*
X116829703Y-86040110I106066J106066D01*
G01*
X117748941Y-85120872D01*
G75*
G02*
X117961073Y-85120872I106066J-106066D01*
G01*
X118173205Y-85333004D01*
G75*
G02*
X118173205Y-85545136I-106066J-106066D01*
G01*
X117253967Y-86464374D01*
G75*
G02*
X117041835Y-86464374I-106066J106066D01*
G01*
G37*
G36*
G01*
X122133004Y-81373205D02*
X121920872Y-81161073D01*
G75*
G02*
X121920872Y-80948941I106066J106066D01*
G01*
X122840110Y-80029703D01*
G75*
G02*
X123052242Y-80029703I106066J-106066D01*
G01*
X123264374Y-80241835D01*
G75*
G02*
X123264374Y-80453967I-106066J-106066D01*
G01*
X122345136Y-81373205D01*
G75*
G02*
X122133004Y-81373205I-106066J106066D01*
G01*
G37*
G36*
G01*
X121234978Y-80475179D02*
X121022846Y-80263047D01*
G75*
G02*
X121022846Y-80050915I106066J106066D01*
G01*
X121942084Y-79131677D01*
G75*
G02*
X122154216Y-79131677I106066J-106066D01*
G01*
X122366348Y-79343809D01*
G75*
G02*
X122366348Y-79555941I-106066J-106066D01*
G01*
X121447110Y-80475179D01*
G75*
G02*
X121234978Y-80475179I-106066J106066D01*
G01*
G37*
G36*
G01*
X120336953Y-79577154D02*
X120124821Y-79365022D01*
G75*
G02*
X120124821Y-79152890I106066J106066D01*
G01*
X121044059Y-78233652D01*
G75*
G02*
X121256191Y-78233652I106066J-106066D01*
G01*
X121468323Y-78445784D01*
G75*
G02*
X121468323Y-78657916I-106066J-106066D01*
G01*
X120549085Y-79577154D01*
G75*
G02*
X120336953Y-79577154I-106066J106066D01*
G01*
G37*
G36*
G01*
X119438927Y-78679128D02*
X119226795Y-78466996D01*
G75*
G02*
X119226795Y-78254864I106066J106066D01*
G01*
X120146033Y-77335626D01*
G75*
G02*
X120358165Y-77335626I106066J-106066D01*
G01*
X120570297Y-77547758D01*
G75*
G02*
X120570297Y-77759890I-106066J-106066D01*
G01*
X119651059Y-78679128D01*
G75*
G02*
X119438927Y-78679128I-106066J106066D01*
G01*
G37*
G36*
G01*
X125052500Y-77700000D02*
X124707500Y-77700000D01*
G75*
G02*
X124560000Y-77552500I0J147500D01*
G01*
X124560000Y-77257500D01*
G75*
G02*
X124707500Y-77110000I147500J0D01*
G01*
X125052500Y-77110000D01*
G75*
G02*
X125200000Y-77257500I0J-147500D01*
G01*
X125200000Y-77552500D01*
G75*
G02*
X125052500Y-77700000I-147500J0D01*
G01*
G37*
G36*
G01*
X125052500Y-76730000D02*
X124707500Y-76730000D01*
G75*
G02*
X124560000Y-76582500I0J147500D01*
G01*
X124560000Y-76287500D01*
G75*
G02*
X124707500Y-76140000I147500J0D01*
G01*
X125052500Y-76140000D01*
G75*
G02*
X125200000Y-76287500I0J-147500D01*
G01*
X125200000Y-76582500D01*
G75*
G02*
X125052500Y-76730000I-147500J0D01*
G01*
G37*
G36*
G01*
X128360000Y-99820000D02*
X128360000Y-99480000D01*
G75*
G02*
X128500000Y-99340000I140000J0D01*
G01*
X128780000Y-99340000D01*
G75*
G02*
X128920000Y-99480000I0J-140000D01*
G01*
X128920000Y-99820000D01*
G75*
G02*
X128780000Y-99960000I-140000J0D01*
G01*
X128500000Y-99960000D01*
G75*
G02*
X128360000Y-99820000I0J140000D01*
G01*
G37*
G36*
G01*
X129320000Y-99820000D02*
X129320000Y-99480000D01*
G75*
G02*
X129460000Y-99340000I140000J0D01*
G01*
X129740000Y-99340000D01*
G75*
G02*
X129880000Y-99480000I0J-140000D01*
G01*
X129880000Y-99820000D01*
G75*
G02*
X129740000Y-99960000I-140000J0D01*
G01*
X129460000Y-99960000D01*
G75*
G02*
X129320000Y-99820000I0J140000D01*
G01*
G37*
G36*
G01*
X130850000Y-75020000D02*
X130510000Y-75020000D01*
G75*
G02*
X130370000Y-74880000I0J140000D01*
G01*
X130370000Y-74600000D01*
G75*
G02*
X130510000Y-74460000I140000J0D01*
G01*
X130850000Y-74460000D01*
G75*
G02*
X130990000Y-74600000I0J-140000D01*
G01*
X130990000Y-74880000D01*
G75*
G02*
X130850000Y-75020000I-140000J0D01*
G01*
G37*
G36*
G01*
X130850000Y-75980000D02*
X130510000Y-75980000D01*
G75*
G02*
X130370000Y-75840000I0J140000D01*
G01*
X130370000Y-75560000D01*
G75*
G02*
X130510000Y-75420000I140000J0D01*
G01*
X130850000Y-75420000D01*
G75*
G02*
X130990000Y-75560000I0J-140000D01*
G01*
X130990000Y-75840000D01*
G75*
G02*
X130850000Y-75980000I-140000J0D01*
G01*
G37*
G36*
G01*
X138900000Y-83070000D02*
X138900000Y-82730000D01*
G75*
G02*
X139040000Y-82590000I140000J0D01*
G01*
X139320000Y-82590000D01*
G75*
G02*
X139460000Y-82730000I0J-140000D01*
G01*
X139460000Y-83070000D01*
G75*
G02*
X139320000Y-83210000I-140000J0D01*
G01*
X139040000Y-83210000D01*
G75*
G02*
X138900000Y-83070000I0J140000D01*
G01*
G37*
G36*
G01*
X137940000Y-83070000D02*
X137940000Y-82730000D01*
G75*
G02*
X138080000Y-82590000I140000J0D01*
G01*
X138360000Y-82590000D01*
G75*
G02*
X138500000Y-82730000I0J-140000D01*
G01*
X138500000Y-83070000D01*
G75*
G02*
X138360000Y-83210000I-140000J0D01*
G01*
X138080000Y-83210000D01*
G75*
G02*
X137940000Y-83070000I0J140000D01*
G01*
G37*
G36*
G01*
X122022500Y-77700000D02*
X121677500Y-77700000D01*
G75*
G02*
X121530000Y-77552500I0J147500D01*
G01*
X121530000Y-77257500D01*
G75*
G02*
X121677500Y-77110000I147500J0D01*
G01*
X122022500Y-77110000D01*
G75*
G02*
X122170000Y-77257500I0J-147500D01*
G01*
X122170000Y-77552500D01*
G75*
G02*
X122022500Y-77700000I-147500J0D01*
G01*
G37*
G36*
G01*
X122022500Y-76730000D02*
X121677500Y-76730000D01*
G75*
G02*
X121530000Y-76582500I0J147500D01*
G01*
X121530000Y-76287500D01*
G75*
G02*
X121677500Y-76140000I147500J0D01*
G01*
X122022500Y-76140000D01*
G75*
G02*
X122170000Y-76287500I0J-147500D01*
G01*
X122170000Y-76582500D01*
G75*
G02*
X122022500Y-76730000I-147500J0D01*
G01*
G37*
G36*
G01*
X129507500Y-74440000D02*
X129852500Y-74440000D01*
G75*
G02*
X130000000Y-74587500I0J-147500D01*
G01*
X130000000Y-74882500D01*
G75*
G02*
X129852500Y-75030000I-147500J0D01*
G01*
X129507500Y-75030000D01*
G75*
G02*
X129360000Y-74882500I0J147500D01*
G01*
X129360000Y-74587500D01*
G75*
G02*
X129507500Y-74440000I147500J0D01*
G01*
G37*
G36*
G01*
X129507500Y-75410000D02*
X129852500Y-75410000D01*
G75*
G02*
X130000000Y-75557500I0J-147500D01*
G01*
X130000000Y-75852500D01*
G75*
G02*
X129852500Y-76000000I-147500J0D01*
G01*
X129507500Y-76000000D01*
G75*
G02*
X129360000Y-75852500I0J147500D01*
G01*
X129360000Y-75557500D01*
G75*
G02*
X129507500Y-75410000I147500J0D01*
G01*
G37*
G36*
G01*
X126052500Y-76730000D02*
X125707500Y-76730000D01*
G75*
G02*
X125560000Y-76582500I0J147500D01*
G01*
X125560000Y-76287500D01*
G75*
G02*
X125707500Y-76140000I147500J0D01*
G01*
X126052500Y-76140000D01*
G75*
G02*
X126200000Y-76287500I0J-147500D01*
G01*
X126200000Y-76582500D01*
G75*
G02*
X126052500Y-76730000I-147500J0D01*
G01*
G37*
G36*
G01*
X126052500Y-77700000D02*
X125707500Y-77700000D01*
G75*
G02*
X125560000Y-77552500I0J147500D01*
G01*
X125560000Y-77257500D01*
G75*
G02*
X125707500Y-77110000I147500J0D01*
G01*
X126052500Y-77110000D01*
G75*
G02*
X126200000Y-77257500I0J-147500D01*
G01*
X126200000Y-77552500D01*
G75*
G02*
X126052500Y-77700000I-147500J0D01*
G01*
G37*
G36*
G01*
X132872500Y-76000000D02*
X132527500Y-76000000D01*
G75*
G02*
X132380000Y-75852500I0J147500D01*
G01*
X132380000Y-75557500D01*
G75*
G02*
X132527500Y-75410000I147500J0D01*
G01*
X132872500Y-75410000D01*
G75*
G02*
X133020000Y-75557500I0J-147500D01*
G01*
X133020000Y-75852500D01*
G75*
G02*
X132872500Y-76000000I-147500J0D01*
G01*
G37*
G36*
G01*
X132872500Y-75030000D02*
X132527500Y-75030000D01*
G75*
G02*
X132380000Y-74882500I0J147500D01*
G01*
X132380000Y-74587500D01*
G75*
G02*
X132527500Y-74440000I147500J0D01*
G01*
X132872500Y-74440000D01*
G75*
G02*
X133020000Y-74587500I0J-147500D01*
G01*
X133020000Y-74882500D01*
G75*
G02*
X132872500Y-75030000I-147500J0D01*
G01*
G37*
G36*
G01*
X136940000Y-79072500D02*
X136940000Y-78727500D01*
G75*
G02*
X137087500Y-78580000I147500J0D01*
G01*
X137382500Y-78580000D01*
G75*
G02*
X137530000Y-78727500I0J-147500D01*
G01*
X137530000Y-79072500D01*
G75*
G02*
X137382500Y-79220000I-147500J0D01*
G01*
X137087500Y-79220000D01*
G75*
G02*
X136940000Y-79072500I0J147500D01*
G01*
G37*
G36*
G01*
X135970000Y-79072500D02*
X135970000Y-78727500D01*
G75*
G02*
X136117500Y-78580000I147500J0D01*
G01*
X136412500Y-78580000D01*
G75*
G02*
X136560000Y-78727500I0J-147500D01*
G01*
X136560000Y-79072500D01*
G75*
G02*
X136412500Y-79220000I-147500J0D01*
G01*
X136117500Y-79220000D01*
G75*
G02*
X135970000Y-79072500I0J147500D01*
G01*
G37*
G36*
G01*
X137920000Y-84172500D02*
X137920000Y-83827500D01*
G75*
G02*
X138067500Y-83680000I147500J0D01*
G01*
X138362500Y-83680000D01*
G75*
G02*
X138510000Y-83827500I0J-147500D01*
G01*
X138510000Y-84172500D01*
G75*
G02*
X138362500Y-84320000I-147500J0D01*
G01*
X138067500Y-84320000D01*
G75*
G02*
X137920000Y-84172500I0J147500D01*
G01*
G37*
G36*
G01*
X138890000Y-84172500D02*
X138890000Y-83827500D01*
G75*
G02*
X139037500Y-83680000I147500J0D01*
G01*
X139332500Y-83680000D01*
G75*
G02*
X139480000Y-83827500I0J-147500D01*
G01*
X139480000Y-84172500D01*
G75*
G02*
X139332500Y-84320000I-147500J0D01*
G01*
X139037500Y-84320000D01*
G75*
G02*
X138890000Y-84172500I0J147500D01*
G01*
G37*
G36*
G01*
X125877500Y-85950000D02*
X126222500Y-85950000D01*
G75*
G02*
X126370000Y-86097500I0J-147500D01*
G01*
X126370000Y-86392500D01*
G75*
G02*
X126222500Y-86540000I-147500J0D01*
G01*
X125877500Y-86540000D01*
G75*
G02*
X125730000Y-86392500I0J147500D01*
G01*
X125730000Y-86097500D01*
G75*
G02*
X125877500Y-85950000I147500J0D01*
G01*
G37*
G36*
G01*
X125877500Y-86920000D02*
X126222500Y-86920000D01*
G75*
G02*
X126370000Y-87067500I0J-147500D01*
G01*
X126370000Y-87362500D01*
G75*
G02*
X126222500Y-87510000I-147500J0D01*
G01*
X125877500Y-87510000D01*
G75*
G02*
X125730000Y-87362500I0J147500D01*
G01*
X125730000Y-87067500D01*
G75*
G02*
X125877500Y-86920000I147500J0D01*
G01*
G37*
G36*
G01*
X123272500Y-84280000D02*
X122927500Y-84280000D01*
G75*
G02*
X122780000Y-84132500I0J147500D01*
G01*
X122780000Y-83837500D01*
G75*
G02*
X122927500Y-83690000I147500J0D01*
G01*
X123272500Y-83690000D01*
G75*
G02*
X123420000Y-83837500I0J-147500D01*
G01*
X123420000Y-84132500D01*
G75*
G02*
X123272500Y-84280000I-147500J0D01*
G01*
G37*
G36*
G01*
X123272500Y-83310000D02*
X122927500Y-83310000D01*
G75*
G02*
X122780000Y-83162500I0J147500D01*
G01*
X122780000Y-82867500D01*
G75*
G02*
X122927500Y-82720000I147500J0D01*
G01*
X123272500Y-82720000D01*
G75*
G02*
X123420000Y-82867500I0J-147500D01*
G01*
X123420000Y-83162500D01*
G75*
G02*
X123272500Y-83310000I-147500J0D01*
G01*
G37*
G36*
G01*
X138910000Y-90192500D02*
X138910000Y-89847500D01*
G75*
G02*
X139057500Y-89700000I147500J0D01*
G01*
X139352500Y-89700000D01*
G75*
G02*
X139500000Y-89847500I0J-147500D01*
G01*
X139500000Y-90192500D01*
G75*
G02*
X139352500Y-90340000I-147500J0D01*
G01*
X139057500Y-90340000D01*
G75*
G02*
X138910000Y-90192500I0J147500D01*
G01*
G37*
G36*
G01*
X137940000Y-90192500D02*
X137940000Y-89847500D01*
G75*
G02*
X138087500Y-89700000I147500J0D01*
G01*
X138382500Y-89700000D01*
G75*
G02*
X138530000Y-89847500I0J-147500D01*
G01*
X138530000Y-90192500D01*
G75*
G02*
X138382500Y-90340000I-147500J0D01*
G01*
X138087500Y-90340000D01*
G75*
G02*
X137940000Y-90192500I0J147500D01*
G01*
G37*
G36*
G01*
X137670000Y-85872500D02*
X137670000Y-85527500D01*
G75*
G02*
X137817500Y-85380000I147500J0D01*
G01*
X138112500Y-85380000D01*
G75*
G02*
X138260000Y-85527500I0J-147500D01*
G01*
X138260000Y-85872500D01*
G75*
G02*
X138112500Y-86020000I-147500J0D01*
G01*
X137817500Y-86020000D01*
G75*
G02*
X137670000Y-85872500I0J147500D01*
G01*
G37*
G36*
G01*
X138640000Y-85872500D02*
X138640000Y-85527500D01*
G75*
G02*
X138787500Y-85380000I147500J0D01*
G01*
X139082500Y-85380000D01*
G75*
G02*
X139230000Y-85527500I0J-147500D01*
G01*
X139230000Y-85872500D01*
G75*
G02*
X139082500Y-86020000I-147500J0D01*
G01*
X138787500Y-86020000D01*
G75*
G02*
X138640000Y-85872500I0J147500D01*
G01*
G37*
G36*
G01*
X128852500Y-75030000D02*
X128507500Y-75030000D01*
G75*
G02*
X128360000Y-74882500I0J147500D01*
G01*
X128360000Y-74587500D01*
G75*
G02*
X128507500Y-74440000I147500J0D01*
G01*
X128852500Y-74440000D01*
G75*
G02*
X129000000Y-74587500I0J-147500D01*
G01*
X129000000Y-74882500D01*
G75*
G02*
X128852500Y-75030000I-147500J0D01*
G01*
G37*
G36*
G01*
X128852500Y-76000000D02*
X128507500Y-76000000D01*
G75*
G02*
X128360000Y-75852500I0J147500D01*
G01*
X128360000Y-75557500D01*
G75*
G02*
X128507500Y-75410000I147500J0D01*
G01*
X128852500Y-75410000D01*
G75*
G02*
X129000000Y-75557500I0J-147500D01*
G01*
X129000000Y-75852500D01*
G75*
G02*
X128852500Y-76000000I-147500J0D01*
G01*
G37*
G36*
G01*
X146372500Y-68880000D02*
X146027500Y-68880000D01*
G75*
G02*
X145880000Y-68732500I0J147500D01*
G01*
X145880000Y-68437500D01*
G75*
G02*
X146027500Y-68290000I147500J0D01*
G01*
X146372500Y-68290000D01*
G75*
G02*
X146520000Y-68437500I0J-147500D01*
G01*
X146520000Y-68732500D01*
G75*
G02*
X146372500Y-68880000I-147500J0D01*
G01*
G37*
G36*
G01*
X146372500Y-67910000D02*
X146027500Y-67910000D01*
G75*
G02*
X145880000Y-67762500I0J147500D01*
G01*
X145880000Y-67467500D01*
G75*
G02*
X146027500Y-67320000I147500J0D01*
G01*
X146372500Y-67320000D01*
G75*
G02*
X146520000Y-67467500I0J-147500D01*
G01*
X146520000Y-67762500D01*
G75*
G02*
X146372500Y-67910000I-147500J0D01*
G01*
G37*
G36*
G01*
X106957500Y-109690000D02*
X107302500Y-109690000D01*
G75*
G02*
X107450000Y-109837500I0J-147500D01*
G01*
X107450000Y-110132500D01*
G75*
G02*
X107302500Y-110280000I-147500J0D01*
G01*
X106957500Y-110280000D01*
G75*
G02*
X106810000Y-110132500I0J147500D01*
G01*
X106810000Y-109837500D01*
G75*
G02*
X106957500Y-109690000I147500J0D01*
G01*
G37*
G36*
G01*
X106957500Y-108720000D02*
X107302500Y-108720000D01*
G75*
G02*
X107450000Y-108867500I0J-147500D01*
G01*
X107450000Y-109162500D01*
G75*
G02*
X107302500Y-109310000I-147500J0D01*
G01*
X106957500Y-109310000D01*
G75*
G02*
X106810000Y-109162500I0J147500D01*
G01*
X106810000Y-108867500D01*
G75*
G02*
X106957500Y-108720000I147500J0D01*
G01*
G37*
G36*
G01*
X145207500Y-103370000D02*
X145552500Y-103370000D01*
G75*
G02*
X145700000Y-103517500I0J-147500D01*
G01*
X145700000Y-103812500D01*
G75*
G02*
X145552500Y-103960000I-147500J0D01*
G01*
X145207500Y-103960000D01*
G75*
G02*
X145060000Y-103812500I0J147500D01*
G01*
X145060000Y-103517500D01*
G75*
G02*
X145207500Y-103370000I147500J0D01*
G01*
G37*
G36*
G01*
X145207500Y-104340000D02*
X145552500Y-104340000D01*
G75*
G02*
X145700000Y-104487500I0J-147500D01*
G01*
X145700000Y-104782500D01*
G75*
G02*
X145552500Y-104930000I-147500J0D01*
G01*
X145207500Y-104930000D01*
G75*
G02*
X145060000Y-104782500I0J147500D01*
G01*
X145060000Y-104487500D01*
G75*
G02*
X145207500Y-104340000I147500J0D01*
G01*
G37*
G36*
G01*
X145207500Y-109690000D02*
X145552500Y-109690000D01*
G75*
G02*
X145700000Y-109837500I0J-147500D01*
G01*
X145700000Y-110132500D01*
G75*
G02*
X145552500Y-110280000I-147500J0D01*
G01*
X145207500Y-110280000D01*
G75*
G02*
X145060000Y-110132500I0J147500D01*
G01*
X145060000Y-109837500D01*
G75*
G02*
X145207500Y-109690000I147500J0D01*
G01*
G37*
G36*
G01*
X145207500Y-108720000D02*
X145552500Y-108720000D01*
G75*
G02*
X145700000Y-108867500I0J-147500D01*
G01*
X145700000Y-109162500D01*
G75*
G02*
X145552500Y-109310000I-147500J0D01*
G01*
X145207500Y-109310000D01*
G75*
G02*
X145060000Y-109162500I0J147500D01*
G01*
X145060000Y-108867500D01*
G75*
G02*
X145207500Y-108720000I147500J0D01*
G01*
G37*
G36*
G01*
X110007500Y-104340000D02*
X110352500Y-104340000D01*
G75*
G02*
X110500000Y-104487500I0J-147500D01*
G01*
X110500000Y-104782500D01*
G75*
G02*
X110352500Y-104930000I-147500J0D01*
G01*
X110007500Y-104930000D01*
G75*
G02*
X109860000Y-104782500I0J147500D01*
G01*
X109860000Y-104487500D01*
G75*
G02*
X110007500Y-104340000I147500J0D01*
G01*
G37*
G36*
G01*
X110007500Y-103370000D02*
X110352500Y-103370000D01*
G75*
G02*
X110500000Y-103517500I0J-147500D01*
G01*
X110500000Y-103812500D01*
G75*
G02*
X110352500Y-103960000I-147500J0D01*
G01*
X110007500Y-103960000D01*
G75*
G02*
X109860000Y-103812500I0J147500D01*
G01*
X109860000Y-103517500D01*
G75*
G02*
X110007500Y-103370000I147500J0D01*
G01*
G37*
G36*
G01*
X110007500Y-109690000D02*
X110352500Y-109690000D01*
G75*
G02*
X110500000Y-109837500I0J-147500D01*
G01*
X110500000Y-110132500D01*
G75*
G02*
X110352500Y-110280000I-147500J0D01*
G01*
X110007500Y-110280000D01*
G75*
G02*
X109860000Y-110132500I0J147500D01*
G01*
X109860000Y-109837500D01*
G75*
G02*
X110007500Y-109690000I147500J0D01*
G01*
G37*
G36*
G01*
X110007500Y-108720000D02*
X110352500Y-108720000D01*
G75*
G02*
X110500000Y-108867500I0J-147500D01*
G01*
X110500000Y-109162500D01*
G75*
G02*
X110352500Y-109310000I-147500J0D01*
G01*
X110007500Y-109310000D01*
G75*
G02*
X109860000Y-109162500I0J147500D01*
G01*
X109860000Y-108867500D01*
G75*
G02*
X110007500Y-108720000I147500J0D01*
G01*
G37*
G36*
G01*
X148257500Y-103370000D02*
X148602500Y-103370000D01*
G75*
G02*
X148750000Y-103517500I0J-147500D01*
G01*
X148750000Y-103812500D01*
G75*
G02*
X148602500Y-103960000I-147500J0D01*
G01*
X148257500Y-103960000D01*
G75*
G02*
X148110000Y-103812500I0J147500D01*
G01*
X148110000Y-103517500D01*
G75*
G02*
X148257500Y-103370000I147500J0D01*
G01*
G37*
G36*
G01*
X148257500Y-104340000D02*
X148602500Y-104340000D01*
G75*
G02*
X148750000Y-104487500I0J-147500D01*
G01*
X148750000Y-104782500D01*
G75*
G02*
X148602500Y-104930000I-147500J0D01*
G01*
X148257500Y-104930000D01*
G75*
G02*
X148110000Y-104782500I0J147500D01*
G01*
X148110000Y-104487500D01*
G75*
G02*
X148257500Y-104340000I147500J0D01*
G01*
G37*
G36*
G01*
X148257500Y-109690000D02*
X148602500Y-109690000D01*
G75*
G02*
X148750000Y-109837500I0J-147500D01*
G01*
X148750000Y-110132500D01*
G75*
G02*
X148602500Y-110280000I-147500J0D01*
G01*
X148257500Y-110280000D01*
G75*
G02*
X148110000Y-110132500I0J147500D01*
G01*
X148110000Y-109837500D01*
G75*
G02*
X148257500Y-109690000I147500J0D01*
G01*
G37*
G36*
G01*
X148257500Y-108720000D02*
X148602500Y-108720000D01*
G75*
G02*
X148750000Y-108867500I0J-147500D01*
G01*
X148750000Y-109162500D01*
G75*
G02*
X148602500Y-109310000I-147500J0D01*
G01*
X148257500Y-109310000D01*
G75*
G02*
X148110000Y-109162500I0J147500D01*
G01*
X148110000Y-108867500D01*
G75*
G02*
X148257500Y-108720000I147500J0D01*
G01*
G37*
G36*
G01*
X113057500Y-103370000D02*
X113402500Y-103370000D01*
G75*
G02*
X113550000Y-103517500I0J-147500D01*
G01*
X113550000Y-103812500D01*
G75*
G02*
X113402500Y-103960000I-147500J0D01*
G01*
X113057500Y-103960000D01*
G75*
G02*
X112910000Y-103812500I0J147500D01*
G01*
X112910000Y-103517500D01*
G75*
G02*
X113057500Y-103370000I147500J0D01*
G01*
G37*
G36*
G01*
X113057500Y-104340000D02*
X113402500Y-104340000D01*
G75*
G02*
X113550000Y-104487500I0J-147500D01*
G01*
X113550000Y-104782500D01*
G75*
G02*
X113402500Y-104930000I-147500J0D01*
G01*
X113057500Y-104930000D01*
G75*
G02*
X112910000Y-104782500I0J147500D01*
G01*
X112910000Y-104487500D01*
G75*
G02*
X113057500Y-104340000I147500J0D01*
G01*
G37*
G36*
G01*
X113057500Y-109690000D02*
X113402500Y-109690000D01*
G75*
G02*
X113550000Y-109837500I0J-147500D01*
G01*
X113550000Y-110132500D01*
G75*
G02*
X113402500Y-110280000I-147500J0D01*
G01*
X113057500Y-110280000D01*
G75*
G02*
X112910000Y-110132500I0J147500D01*
G01*
X112910000Y-109837500D01*
G75*
G02*
X113057500Y-109690000I147500J0D01*
G01*
G37*
G36*
G01*
X113057500Y-108720000D02*
X113402500Y-108720000D01*
G75*
G02*
X113550000Y-108867500I0J-147500D01*
G01*
X113550000Y-109162500D01*
G75*
G02*
X113402500Y-109310000I-147500J0D01*
G01*
X113057500Y-109310000D01*
G75*
G02*
X112910000Y-109162500I0J147500D01*
G01*
X112910000Y-108867500D01*
G75*
G02*
X113057500Y-108720000I147500J0D01*
G01*
G37*
G36*
G01*
X151307500Y-103370000D02*
X151652500Y-103370000D01*
G75*
G02*
X151800000Y-103517500I0J-147500D01*
G01*
X151800000Y-103812500D01*
G75*
G02*
X151652500Y-103960000I-147500J0D01*
G01*
X151307500Y-103960000D01*
G75*
G02*
X151160000Y-103812500I0J147500D01*
G01*
X151160000Y-103517500D01*
G75*
G02*
X151307500Y-103370000I147500J0D01*
G01*
G37*
G36*
G01*
X151307500Y-104340000D02*
X151652500Y-104340000D01*
G75*
G02*
X151800000Y-104487500I0J-147500D01*
G01*
X151800000Y-104782500D01*
G75*
G02*
X151652500Y-104930000I-147500J0D01*
G01*
X151307500Y-104930000D01*
G75*
G02*
X151160000Y-104782500I0J147500D01*
G01*
X151160000Y-104487500D01*
G75*
G02*
X151307500Y-104340000I147500J0D01*
G01*
G37*
G36*
G01*
X151307500Y-109690000D02*
X151652500Y-109690000D01*
G75*
G02*
X151800000Y-109837500I0J-147500D01*
G01*
X151800000Y-110132500D01*
G75*
G02*
X151652500Y-110280000I-147500J0D01*
G01*
X151307500Y-110280000D01*
G75*
G02*
X151160000Y-110132500I0J147500D01*
G01*
X151160000Y-109837500D01*
G75*
G02*
X151307500Y-109690000I147500J0D01*
G01*
G37*
G36*
G01*
X151307500Y-108720000D02*
X151652500Y-108720000D01*
G75*
G02*
X151800000Y-108867500I0J-147500D01*
G01*
X151800000Y-109162500D01*
G75*
G02*
X151652500Y-109310000I-147500J0D01*
G01*
X151307500Y-109310000D01*
G75*
G02*
X151160000Y-109162500I0J147500D01*
G01*
X151160000Y-108867500D01*
G75*
G02*
X151307500Y-108720000I147500J0D01*
G01*
G37*
G36*
G01*
X116107500Y-103220000D02*
X116452500Y-103220000D01*
G75*
G02*
X116600000Y-103367500I0J-147500D01*
G01*
X116600000Y-103662500D01*
G75*
G02*
X116452500Y-103810000I-147500J0D01*
G01*
X116107500Y-103810000D01*
G75*
G02*
X115960000Y-103662500I0J147500D01*
G01*
X115960000Y-103367500D01*
G75*
G02*
X116107500Y-103220000I147500J0D01*
G01*
G37*
G36*
G01*
X116107500Y-104190000D02*
X116452500Y-104190000D01*
G75*
G02*
X116600000Y-104337500I0J-147500D01*
G01*
X116600000Y-104632500D01*
G75*
G02*
X116452500Y-104780000I-147500J0D01*
G01*
X116107500Y-104780000D01*
G75*
G02*
X115960000Y-104632500I0J147500D01*
G01*
X115960000Y-104337500D01*
G75*
G02*
X116107500Y-104190000I147500J0D01*
G01*
G37*
G36*
G01*
X131932500Y-98960000D02*
X131587500Y-98960000D01*
G75*
G02*
X131440000Y-98812500I0J147500D01*
G01*
X131440000Y-98517500D01*
G75*
G02*
X131587500Y-98370000I147500J0D01*
G01*
X131932500Y-98370000D01*
G75*
G02*
X132080000Y-98517500I0J-147500D01*
G01*
X132080000Y-98812500D01*
G75*
G02*
X131932500Y-98960000I-147500J0D01*
G01*
G37*
G36*
G01*
X131932500Y-99930000D02*
X131587500Y-99930000D01*
G75*
G02*
X131440000Y-99782500I0J147500D01*
G01*
X131440000Y-99487500D01*
G75*
G02*
X131587500Y-99340000I147500J0D01*
G01*
X131932500Y-99340000D01*
G75*
G02*
X132080000Y-99487500I0J-147500D01*
G01*
X132080000Y-99782500D01*
G75*
G02*
X131932500Y-99930000I-147500J0D01*
G01*
G37*
M02*
