M48
; DRILL file {KiCad 7.0.7} date Fri Nov  3 11:49:37 2023
; FORMAT={2:4/ absolute / inch / suppress leading zeros}
; #@! TF.CreationDate,2023-11-03T11:49:37+08:00
; #@! TF.GenerationSoftware,Kicad,Pcbnew,7.0.7
; #@! TF.FileFunction,MixedPlating,1,2
FMAT,2
INCH,TZ
; #@! TA.AperFunction,Plated,PTH,ComponentDrill
T1C0.0394
; #@! TA.AperFunction,Plated,PTH,ComponentDrill
T2C0.0472
%
G90
G05
T1
X54500Y-29752
X54500Y-30752
X54500Y-31752
X54500Y-32752
X54500Y-33752
X54500Y-34752
X54500Y-35752
X54500Y-36752
X54500Y-37752
X54500Y-38752
T2
X56712Y-29126
X56712Y-30126
X56712Y-31126
X56712Y-32126
X56712Y-33126
X56712Y-34126
X56712Y-35126
X56712Y-36126
X56712Y-37126
X56712Y-38126
X58712Y-29126
X58712Y-30126
X58712Y-31126
X58712Y-32126
X58712Y-33126
X58712Y-34126
X58712Y-35126
X58712Y-36126
X58712Y-37126
X58712Y-38126
T0
M30
