G04 #@! TF.GenerationSoftware,KiCad,Pcbnew,7.0.7*
G04 #@! TF.CreationDate,2023-11-03T11:49:35+08:00*
G04 #@! TF.ProjectId,wago kf141r adapter,7761676f-206b-4663-9134-317220616461,rev?*
G04 #@! TF.SameCoordinates,Original*
G04 #@! TF.FileFunction,Copper,L2,Bot*
G04 #@! TF.FilePolarity,Positive*
%FSLAX46Y46*%
G04 Gerber Fmt 4.6, Leading zero omitted, Abs format (unit mm)*
G04 Created by KiCad (PCBNEW 7.0.7) date 2023-11-03 11:49:35*
%MOMM*%
%LPD*%
G01*
G04 APERTURE LIST*
G04 #@! TA.AperFunction,ComponentPad*
%ADD10R,1.700000X1.700000*%
G04 #@! TD*
G04 #@! TA.AperFunction,ComponentPad*
%ADD11O,1.700000X1.700000*%
G04 #@! TD*
G04 #@! TA.AperFunction,ComponentPad*
%ADD12C,2.000000*%
G04 #@! TD*
G04 #@! TA.AperFunction,Conductor*
%ADD13C,0.812800*%
G04 #@! TD*
G04 APERTURE END LIST*
D10*
X138430000Y-75570000D03*
D11*
X138430000Y-78110000D03*
X138430000Y-80650000D03*
X138430000Y-83190000D03*
X138430000Y-85730000D03*
X138430000Y-88270000D03*
X138430000Y-90810000D03*
X138430000Y-93350000D03*
X138430000Y-95890000D03*
X138430000Y-98430000D03*
D12*
X149128000Y-73980000D03*
X144048000Y-73980000D03*
X149128000Y-76520000D03*
X144048000Y-76520000D03*
X149128000Y-79060000D03*
X144048000Y-79060000D03*
X149128000Y-81600000D03*
X144048000Y-81600000D03*
X149128000Y-84140000D03*
X144048000Y-84140000D03*
X149128000Y-86680000D03*
X144048000Y-86680000D03*
X149128000Y-89220000D03*
X144048000Y-89220000D03*
X149128000Y-91760000D03*
X144048000Y-91760000D03*
X149128000Y-94300000D03*
X144048000Y-94300000D03*
X149128000Y-96840000D03*
X144048000Y-96840000D03*
D13*
X142458000Y-75570000D02*
X144048000Y-73980000D01*
X149128000Y-73980000D02*
X144048000Y-73980000D01*
X138430000Y-75570000D02*
X142458000Y-75570000D01*
X138430000Y-78110000D02*
X142458000Y-78110000D01*
X142458000Y-78110000D02*
X144048000Y-76520000D01*
X144048000Y-76520000D02*
X149128000Y-76520000D01*
X149128000Y-79060000D02*
X144048000Y-79060000D01*
X138430000Y-80650000D02*
X142458000Y-80650000D01*
X142458000Y-80650000D02*
X144048000Y-79060000D01*
X144048000Y-81600000D02*
X149128000Y-81600000D01*
X142458000Y-83190000D02*
X144048000Y-81600000D01*
X138430000Y-83190000D02*
X142458000Y-83190000D01*
X142458000Y-85730000D02*
X144048000Y-84140000D01*
X149128000Y-84140000D02*
X144048000Y-84140000D01*
X138430000Y-85730000D02*
X142458000Y-85730000D01*
X138430000Y-88270000D02*
X142458000Y-88270000D01*
X142458000Y-88270000D02*
X144048000Y-86680000D01*
X144048000Y-86680000D02*
X149128000Y-86680000D01*
X142458000Y-90810000D02*
X144048000Y-89220000D01*
X149128000Y-89220000D02*
X144048000Y-89220000D01*
X138430000Y-90810000D02*
X142458000Y-90810000D01*
X142458000Y-93350000D02*
X144048000Y-91760000D01*
X144048000Y-91760000D02*
X149128000Y-91760000D01*
X138430000Y-93350000D02*
X142458000Y-93350000D01*
X142458000Y-95890000D02*
X144048000Y-94300000D01*
X138430000Y-95890000D02*
X142458000Y-95890000D01*
X149128000Y-94300000D02*
X144048000Y-94300000D01*
X138430000Y-98430000D02*
X142458000Y-98430000D01*
X144048000Y-96840000D02*
X149128000Y-96840000D01*
X142458000Y-98430000D02*
X144048000Y-96840000D01*
M02*
