M48
; DRILL file {KiCad 7.0.7} date Tue Nov 28 10:34:58 2023
; FORMAT={-:-/ absolute / metric / decimal}
; #@! TF.CreationDate,2023-11-28T10:34:58+01:00
; #@! TF.GenerationSoftware,Kicad,Pcbnew,7.0.7
; #@! TF.FileFunction,Plated,1,2,PTH
FMAT,2
METRIC
; #@! TA.AperFunction,Plated,PTH,ComponentDrill
T1C1.000
; #@! TA.AperFunction,Plated,PTH,ComponentDrill
T2C1.200
%
G90
G05
T1
X138.43Y-75.57
X138.43Y-78.11
X138.43Y-80.65
X138.43Y-83.19
X138.43Y-85.73
X138.43Y-88.27
X138.43Y-90.81
X138.43Y-93.35
X138.43Y-95.89
X138.43Y-98.43
T2
X142.27Y-73.98
X142.27Y-76.52
X142.27Y-79.06
X142.27Y-81.6
X142.27Y-84.14
X142.27Y-86.68
X142.27Y-89.22
X142.27Y-91.76
X142.27Y-94.3
X142.27Y-96.84
X147.35Y-73.98
X147.35Y-76.52
X147.35Y-79.06
X147.35Y-81.6
X147.35Y-84.14
X147.35Y-86.68
X147.35Y-89.22
X147.35Y-91.76
X147.35Y-94.3
X147.35Y-96.84
T0
M30
