%TF.GenerationSoftware,KiCad,Pcbnew,7.0.7*%
%TF.CreationDate,2023-11-28T10:35:00+01:00*%
%TF.ProjectId,wago kf141r adapter,7761676f-206b-4663-9134-317220616461,rev?*%
%TF.SameCoordinates,Original*%
%TF.FileFunction,Drillmap*%
%TF.FilePolarity,Positive*%
%FSLAX45Y45*%
G04 Gerber Fmt 4.5, Leading zero omitted, Abs format (unit mm)*
G04 Created by KiCad (PCBNEW 7.0.7) date 2023-11-28 10:35:00*
%MOMM*%
%LPD*%
G01*
G04 APERTURE LIST*
%ADD10C,0.100000*%
%ADD11C,0.200000*%
G04 APERTURE END LIST*
D10*
X13800000Y-7200000D02*
X15267000Y-7200000D01*
X13800000Y-10200000D02*
X15267000Y-10200000D01*
X13700000Y-7300000D02*
X13700000Y-10100000D01*
X15267000Y-10200000D02*
G75*
G03*
X15367000Y-10100000I0J100000D01*
G01*
X15367000Y-7300000D02*
G75*
G03*
X15267000Y-7200000I-100000J0D01*
G01*
X15367000Y-7300000D02*
X15367000Y-10100000D01*
X13700000Y-10100000D02*
G75*
G03*
X13800000Y-10200000I100000J0D01*
G01*
X13800000Y-7200000D02*
G75*
G03*
X13700000Y-7300000I0J-100000D01*
G01*
D11*
X13955777Y-10516484D02*
X13955777Y-10316484D01*
X13955777Y-10316484D02*
X14003396Y-10316484D01*
X14003396Y-10316484D02*
X14031967Y-10326008D01*
X14031967Y-10326008D02*
X14051015Y-10345055D01*
X14051015Y-10345055D02*
X14060539Y-10364103D01*
X14060539Y-10364103D02*
X14070062Y-10402198D01*
X14070062Y-10402198D02*
X14070062Y-10430770D01*
X14070062Y-10430770D02*
X14060539Y-10468865D01*
X14060539Y-10468865D02*
X14051015Y-10487912D01*
X14051015Y-10487912D02*
X14031967Y-10506960D01*
X14031967Y-10506960D02*
X14003396Y-10516484D01*
X14003396Y-10516484D02*
X13955777Y-10516484D01*
X14155777Y-10516484D02*
X14155777Y-10383150D01*
X14155777Y-10421246D02*
X14165301Y-10402198D01*
X14165301Y-10402198D02*
X14174824Y-10392674D01*
X14174824Y-10392674D02*
X14193872Y-10383150D01*
X14193872Y-10383150D02*
X14212920Y-10383150D01*
X14279586Y-10516484D02*
X14279586Y-10383150D01*
X14279586Y-10316484D02*
X14270062Y-10326008D01*
X14270062Y-10326008D02*
X14279586Y-10335531D01*
X14279586Y-10335531D02*
X14289110Y-10326008D01*
X14289110Y-10326008D02*
X14279586Y-10316484D01*
X14279586Y-10316484D02*
X14279586Y-10335531D01*
X14403396Y-10516484D02*
X14384348Y-10506960D01*
X14384348Y-10506960D02*
X14374824Y-10487912D01*
X14374824Y-10487912D02*
X14374824Y-10316484D01*
X14508158Y-10516484D02*
X14489110Y-10506960D01*
X14489110Y-10506960D02*
X14479586Y-10487912D01*
X14479586Y-10487912D02*
X14479586Y-10316484D01*
X14736729Y-10516484D02*
X14736729Y-10316484D01*
X14736729Y-10316484D02*
X14803396Y-10459341D01*
X14803396Y-10459341D02*
X14870062Y-10316484D01*
X14870062Y-10316484D02*
X14870062Y-10516484D01*
X15051015Y-10516484D02*
X15051015Y-10411722D01*
X15051015Y-10411722D02*
X15041491Y-10392674D01*
X15041491Y-10392674D02*
X15022443Y-10383150D01*
X15022443Y-10383150D02*
X14984348Y-10383150D01*
X14984348Y-10383150D02*
X14965301Y-10392674D01*
X15051015Y-10506960D02*
X15031967Y-10516484D01*
X15031967Y-10516484D02*
X14984348Y-10516484D01*
X14984348Y-10516484D02*
X14965301Y-10506960D01*
X14965301Y-10506960D02*
X14955777Y-10487912D01*
X14955777Y-10487912D02*
X14955777Y-10468865D01*
X14955777Y-10468865D02*
X14965301Y-10449817D01*
X14965301Y-10449817D02*
X14984348Y-10440293D01*
X14984348Y-10440293D02*
X15031967Y-10440293D01*
X15031967Y-10440293D02*
X15051015Y-10430770D01*
X15146253Y-10383150D02*
X15146253Y-10583150D01*
X15146253Y-10392674D02*
X15165301Y-10383150D01*
X15165301Y-10383150D02*
X15203396Y-10383150D01*
X15203396Y-10383150D02*
X15222443Y-10392674D01*
X15222443Y-10392674D02*
X15231967Y-10402198D01*
X15231967Y-10402198D02*
X15241491Y-10421246D01*
X15241491Y-10421246D02*
X15241491Y-10478389D01*
X15241491Y-10478389D02*
X15231967Y-10497436D01*
X15231967Y-10497436D02*
X15222443Y-10506960D01*
X15222443Y-10506960D02*
X15203396Y-10516484D01*
X15203396Y-10516484D02*
X15165301Y-10516484D01*
X15165301Y-10516484D02*
X15146253Y-10506960D01*
X15327205Y-10497436D02*
X15336729Y-10506960D01*
X15336729Y-10506960D02*
X15327205Y-10516484D01*
X15327205Y-10516484D02*
X15317682Y-10506960D01*
X15317682Y-10506960D02*
X15327205Y-10497436D01*
X15327205Y-10497436D02*
X15327205Y-10516484D01*
X15327205Y-10392674D02*
X15336729Y-10402198D01*
X15336729Y-10402198D02*
X15327205Y-10411722D01*
X15327205Y-10411722D02*
X15317682Y-10402198D01*
X15317682Y-10402198D02*
X15327205Y-10392674D01*
X15327205Y-10392674D02*
X15327205Y-10411722D01*
M02*
