G04 #@! TF.GenerationSoftware,KiCad,Pcbnew,7.0.7*
G04 #@! TF.CreationDate,2023-11-28T10:37:46+01:00*
G04 #@! TF.ProjectId,wago kf141v adapter,7761676f-206b-4663-9134-317620616461,rev?*
G04 #@! TF.SameCoordinates,Original*
G04 #@! TF.FileFunction,Legend,Top*
G04 #@! TF.FilePolarity,Positive*
%FSLAX46Y46*%
G04 Gerber Fmt 4.6, Leading zero omitted, Abs format (unit mm)*
G04 Created by KiCad (PCBNEW 7.0.7) date 2023-11-28 10:37:46*
%MOMM*%
%LPD*%
G01*
G04 APERTURE LIST*
%ADD10C,0.150000*%
%ADD11C,0.120000*%
%ADD12R,1.700000X1.700000*%
%ADD13O,1.700000X1.700000*%
%ADD14C,2.000000*%
G04 APERTURE END LIST*
D10*
X138350666Y-72352819D02*
X138350666Y-73067104D01*
X138350666Y-73067104D02*
X138303047Y-73209961D01*
X138303047Y-73209961D02*
X138207809Y-73305200D01*
X138207809Y-73305200D02*
X138064952Y-73352819D01*
X138064952Y-73352819D02*
X137969714Y-73352819D01*
X139350666Y-73352819D02*
X138779238Y-73352819D01*
X139064952Y-73352819D02*
X139064952Y-72352819D01*
X139064952Y-72352819D02*
X138969714Y-72495676D01*
X138969714Y-72495676D02*
X138874476Y-72590914D01*
X138874476Y-72590914D02*
X138779238Y-72638533D01*
X150024180Y-86661666D02*
X149309895Y-86661666D01*
X149309895Y-86661666D02*
X149167038Y-86614047D01*
X149167038Y-86614047D02*
X149071800Y-86518809D01*
X149071800Y-86518809D02*
X149024180Y-86375952D01*
X149024180Y-86375952D02*
X149024180Y-86280714D01*
X149928942Y-87090238D02*
X149976561Y-87137857D01*
X149976561Y-87137857D02*
X150024180Y-87233095D01*
X150024180Y-87233095D02*
X150024180Y-87471190D01*
X150024180Y-87471190D02*
X149976561Y-87566428D01*
X149976561Y-87566428D02*
X149928942Y-87614047D01*
X149928942Y-87614047D02*
X149833704Y-87661666D01*
X149833704Y-87661666D02*
X149738466Y-87661666D01*
X149738466Y-87661666D02*
X149595609Y-87614047D01*
X149595609Y-87614047D02*
X149024180Y-87042619D01*
X149024180Y-87042619D02*
X149024180Y-87661666D01*
D11*
X128340000Y-74240000D02*
X128340000Y-99760000D01*
X128340000Y-74240000D02*
X136970000Y-74240000D01*
X128340000Y-74360000D02*
X136970000Y-74360000D01*
X128340000Y-74478095D02*
X136970000Y-74478095D01*
X128340000Y-74596190D02*
X136970000Y-74596190D01*
X128340000Y-74714285D02*
X136970000Y-74714285D01*
X128340000Y-74832380D02*
X136970000Y-74832380D01*
X128340000Y-74950475D02*
X136970000Y-74950475D01*
X128340000Y-75068570D02*
X136970000Y-75068570D01*
X128340000Y-75186665D02*
X136970000Y-75186665D01*
X128340000Y-75304760D02*
X136970000Y-75304760D01*
X128340000Y-75422855D02*
X136970000Y-75422855D01*
X128340000Y-75540950D02*
X136970000Y-75540950D01*
X128340000Y-75659045D02*
X136970000Y-75659045D01*
X128340000Y-75777140D02*
X136970000Y-75777140D01*
X128340000Y-75895235D02*
X136970000Y-75895235D01*
X128340000Y-76013330D02*
X136970000Y-76013330D01*
X128340000Y-76131425D02*
X136970000Y-76131425D01*
X128340000Y-76249520D02*
X136970000Y-76249520D01*
X128340000Y-76367615D02*
X136970000Y-76367615D01*
X128340000Y-76485710D02*
X136970000Y-76485710D01*
X128340000Y-76603805D02*
X136970000Y-76603805D01*
X128340000Y-76721900D02*
X136970000Y-76721900D01*
X128340000Y-76840000D02*
X136970000Y-76840000D01*
X128340000Y-79380000D02*
X136970000Y-79380000D01*
X128340000Y-81920000D02*
X136970000Y-81920000D01*
X128340000Y-84460000D02*
X136970000Y-84460000D01*
X128340000Y-87000000D02*
X136970000Y-87000000D01*
X128340000Y-89540000D02*
X136970000Y-89540000D01*
X128340000Y-92080000D02*
X136970000Y-92080000D01*
X128340000Y-94620000D02*
X136970000Y-94620000D01*
X128340000Y-97160000D02*
X136970000Y-97160000D01*
X128340000Y-99760000D02*
X136970000Y-99760000D01*
X136970000Y-74240000D02*
X136970000Y-99760000D01*
X136970000Y-75210000D02*
X137320000Y-75210000D01*
X136970000Y-75930000D02*
X137320000Y-75930000D01*
X136970000Y-77750000D02*
X137380000Y-77750000D01*
X136970000Y-78470000D02*
X137380000Y-78470000D01*
X136970000Y-80290000D02*
X137380000Y-80290000D01*
X136970000Y-81010000D02*
X137380000Y-81010000D01*
X136970000Y-82830000D02*
X137380000Y-82830000D01*
X136970000Y-83550000D02*
X137380000Y-83550000D01*
X136970000Y-85370000D02*
X137380000Y-85370000D01*
X136970000Y-86090000D02*
X137380000Y-86090000D01*
X136970000Y-87910000D02*
X137380000Y-87910000D01*
X136970000Y-88630000D02*
X137380000Y-88630000D01*
X136970000Y-90450000D02*
X137380000Y-90450000D01*
X136970000Y-91170000D02*
X137380000Y-91170000D01*
X136970000Y-92990000D02*
X137380000Y-92990000D01*
X136970000Y-93710000D02*
X137380000Y-93710000D01*
X136970000Y-95530000D02*
X137380000Y-95530000D01*
X136970000Y-96250000D02*
X137380000Y-96250000D01*
X136970000Y-98070000D02*
X137380000Y-98070000D01*
X136970000Y-98790000D02*
X137380000Y-98790000D01*
X138430000Y-74240000D02*
X139540000Y-74240000D01*
X139540000Y-74240000D02*
X139540000Y-75570000D01*
X150390000Y-72915000D02*
X139170000Y-72915000D01*
X150390000Y-72915000D02*
X150390000Y-101075000D01*
X139170000Y-72915000D02*
X139170000Y-101075000D01*
X150390000Y-101075000D02*
X139170000Y-101075000D01*
%LPC*%
D12*
X138430000Y-75570000D03*
D13*
X138430000Y-78110000D03*
X138430000Y-80650000D03*
X138430000Y-83190000D03*
X138430000Y-85730000D03*
X138430000Y-88270000D03*
X138430000Y-90810000D03*
X138430000Y-93350000D03*
X138430000Y-95890000D03*
X138430000Y-98430000D03*
D14*
X147360000Y-74025000D03*
X142280000Y-74025000D03*
X147360000Y-76565000D03*
X142280000Y-76565000D03*
X147360000Y-79105000D03*
X142280000Y-79105000D03*
X147360000Y-81645000D03*
X142280000Y-81645000D03*
X147360000Y-84185000D03*
X142280000Y-84185000D03*
X147360000Y-86725000D03*
X142280000Y-86725000D03*
X147360000Y-89265000D03*
X142280000Y-89265000D03*
X147360000Y-91805000D03*
X142280000Y-91805000D03*
X147360000Y-94345000D03*
X142280000Y-94345000D03*
X147360000Y-96885000D03*
X142280000Y-96885000D03*
%LPD*%
M02*
