M48
; DRILL file {KiCad 7.0.7} date Tue Nov 28 10:38:10 2023
; FORMAT={-:-/ absolute / metric / decimal}
; #@! TF.CreationDate,2023-11-28T10:38:10+01:00
; #@! TF.GenerationSoftware,Kicad,Pcbnew,7.0.7
; #@! TF.FileFunction,Plated,1,2,PTH
FMAT,2
METRIC
; #@! TA.AperFunction,Plated,PTH,ComponentDrill
T1C1.000
; #@! TA.AperFunction,Plated,PTH,ComponentDrill
T2C1.200
%
G90
G05
T1
X138.43Y-75.57
X138.43Y-78.11
X138.43Y-80.65
X138.43Y-83.19
X138.43Y-85.73
X138.43Y-88.27
X138.43Y-90.81
X138.43Y-93.35
X138.43Y-95.89
X138.43Y-98.43
T2
X142.28Y-74.025
X142.28Y-76.565
X142.28Y-79.105
X142.28Y-81.645
X142.28Y-84.185
X142.28Y-86.725
X142.28Y-89.265
X142.28Y-91.805
X142.28Y-94.345
X142.28Y-96.885
X147.36Y-74.025
X147.36Y-76.565
X147.36Y-79.105
X147.36Y-81.645
X147.36Y-84.185
X147.36Y-86.725
X147.36Y-89.265
X147.36Y-91.805
X147.36Y-94.345
X147.36Y-96.885
T0
M30
