M48
; DRILL file {KiCad 7.0.7} date Mon Nov 20 22:09:06 2023
; FORMAT={2:4/ absolute / inch / suppress leading zeros}
; #@! TF.CreationDate,2023-11-20T22:09:06+08:00
; #@! TF.GenerationSoftware,Kicad,Pcbnew,7.0.7
; #@! TF.FileFunction,MixedPlating,1,2
FMAT,2
INCH,TZ
; #@! TA.AperFunction,Plated,PTH,ComponentDrill
T1C0.0394
; #@! TA.AperFunction,Plated,PTH,ComponentDrill
T2C0.0472
%
G90
G05
T1
X54500Y-29752
X54500Y-30752
X54500Y-31752
X54500Y-32752
X54500Y-33752
X54500Y-34752
X54500Y-35752
X54500Y-36752
X54500Y-37752
X54500Y-38752
T2
X56666Y-29144
X56666Y-30144
X56666Y-31144
X56666Y-32144
X56666Y-33144
X56666Y-34144
X56666Y-35144
X56666Y-36144
X56666Y-37144
X56666Y-38144
X58666Y-29144
X58666Y-30144
X58666Y-31144
X58666Y-32144
X58666Y-33144
X58666Y-34144
X58666Y-35144
X58666Y-36144
X58666Y-37144
X58666Y-38144
T0
M30
